<?xml version="1.0" encoding="UTF-8"?><svg id="_レイヤー_2" xmlns="http://www.w3.org/2000/svg" viewBox="0 0 848 928"><defs><style>.cls-1{fill:none;}.cls-1,.cls-2{stroke-width:0px;}.cls-2{fill:#fff;opacity:.5;}</style></defs><g id="_ツール"><path class="cls-2" d="M848,60.03v-28.3l-436.29,436.29-76.97,76.97c-1.64,1.64-2.66,3.8-2.88,6.11l-17.02,176.31-23.21,23.2c-5.09,5.09-7.9,11.86-7.9,19.06s2.81,13.95,7.9,19.04c5.08,5.1,11.85,7.9,19.06,7.9s13.97-2.8,19.05-7.89l23.18-23.17,176.38-17.09c2.31-.23,4.47-1.25,6.11-2.89l312.59-312.62V124.96l-459.51,459.52-32.48-32.48,85.75-85.75L848,60.03ZM381.41,605.68h0s124.91,124.91,124.91,124.91l-154.18,14.94-.59-.59-16.7-16.73,14.89-154.2,31.67,31.67Z"/><rect class="cls-1" width="848" height="928"/></g></svg>