<?xml version="1.0" encoding="UTF-8"?><svg id="_レイヤー_2" xmlns="http://www.w3.org/2000/svg" viewBox="0 0 520 440"><defs><style>.cls-1{fill:none;stroke:#533c3e;stroke-linecap:round;stroke-linejoin:round;stroke-width:8.17px;}.cls-2{fill:#533c3e;}.cls-2,.cls-3,.cls-4,.cls-5,.cls-6,.cls-7,.cls-8{stroke-width:0px;}.cls-3{fill:#4761bd;}.cls-4{fill:#bcbcbc;}.cls-5{fill:#2ecaff;}.cls-6{fill:#333;}.cls-7{fill:#ffc;}.cls-8{fill:#fff;}</style></defs><g id="_レイヤー_1-2"><rect class="cls-8" x="2" y="2" width="516" height="436" rx="38" ry="38"/><path class="cls-4" d="M480,4c19.85,0,36,16.15,36,36v360c0,19.85-16.15,36-36,36H40c-19.85,0-36-16.15-36-36V40C4,20.15,20.15,4,40,4h440M480,0H40C17.91,0,0,17.91,0,40v360c0,22.09,17.91,40,40,40h440c22.09,0,40-17.91,40-40V40c0-22.09-17.91-40-40-40h0Z"/></g><g id="_2"><path class="cls-6" d="M186.86,365.8c-.38.79-.73,1.63-1.06,2.51-.32.88-.62,1.69-.88,2.42-.62,1.67-1.34,3.48-2.18,5.41s-1.76,3.84-2.77,5.7c-1.01,1.86-2.12,3.54-3.32,5.04-1.23,1.56-2.72,3.15-4.47,4.77-1.75,1.63-3.65,3.14-5.72,4.53-2.07,1.39-4.23,2.54-6.49,3.45l-5.02-5.15c2.29-.79,4.46-1.77,6.51-2.95,2.05-1.17,3.94-2.49,5.68-3.96,1.73-1.47,3.24-2.98,4.53-4.53,1.41-1.7,2.66-3.63,3.76-5.79,1.1-2.16,2.04-4.38,2.82-6.67.78-2.29,1.36-4.47,1.74-6.56l6.86,1.76Z"/><path class="cls-6" d="M195.75,377.63c.53.03,1.2.07,2.02.11.82.04,1.68.08,2.57.11.89.03,1.72.04,2.49.04h23.63c1.03,0,1.99-.04,2.9-.11.91-.07,1.66-.12,2.24-.15v6.91c-.5-.03-1.25-.07-2.24-.13-1-.06-1.97-.09-2.9-.09h-23.63c-1.26,0-2.55.02-3.87.07-1.32.04-2.39.1-3.21.15v-6.91Z"/><path class="cls-6" d="M246.92,393.78v-25.3c0-.76-.04-1.64-.11-2.64-.07-1-.18-1.88-.33-2.64h6.86c-.09.76-.18,1.61-.26,2.53-.09.92-.13,1.84-.13,2.75v25.3c0,.41.01.99.04,1.74.03.75.09,1.52.18,2.31s.15,1.5.18,2.11h-6.86c.12-.88.22-1.91.31-3.08s.13-2.2.13-3.08ZM251.63,374.6c1.47.38,3.11.87,4.93,1.47,1.82.6,3.65,1.24,5.5,1.91,1.85.68,3.59,1.34,5.21,2s2.98,1.27,4.07,1.83l-2.51,6.07c-1.23-.64-2.6-1.3-4.09-1.96-1.5-.66-3.01-1.3-4.55-1.91-1.54-.62-3.05-1.19-4.53-1.72-1.48-.53-2.82-1-4.03-1.41v-6.29Z"/><path class="cls-6" d="M280.76,377.98h40.74v5.76h-40.74v-5.76Z"/><path class="cls-6" d="M339.96,393.3h5.19c-.26,1.26-.7,2.38-1.3,3.37-.6.98-1.47,1.82-2.62,2.51-1.14.69-2.67,1.27-4.58,1.74-1.91.47-4.3.84-7.17,1.1-.18-.59-.49-1.28-.95-2.07-.46-.79-.9-1.44-1.34-1.94,2.46-.12,4.48-.3,6.05-.55,1.57-.25,2.8-.55,3.7-.9.89-.35,1.57-.79,2.02-1.32.45-.53.78-1.17.99-1.94ZM347.88,362.05v2.95h-13.64v10.16h14.34v2.9h-19.05v-16.02h18.35ZM332.13,366.41h15.14v7.13h-15.14v-2.77h10.56v-1.58h-10.56v-2.77ZM333.85,379.22h27.98v15.09h-27.98v-15.09ZM337.37,363.42h4.22v4.18h-4.22v-4.18ZM337.37,371.78h4.22v4.18h-4.22v-4.18ZM338.82,381.99v1.41h17.82v-1.41h-17.82ZM338.82,386.04v1.41h17.82v-1.41h-17.82ZM338.82,390.08v1.5h17.82v-1.5h-17.82ZM352.28,360.56l4.71,1.1c-.65,2.26-1.49,4.46-2.53,6.6-1.04,2.14-2.16,3.93-3.37,5.37-.29-.26-.69-.56-1.19-.9-.5-.34-1-.67-1.52-.99-.51-.32-.98-.59-1.39-.79,1.17-1.26,2.22-2.82,3.15-4.66.92-1.85,1.63-3.75,2.13-5.72ZM349.69,392.9h5.15v3.34c0,.53.13.86.4.99.26.13.84.2,1.72.2h5.24c.47,0,.83-.09,1.08-.26.25-.18.44-.51.57-1.01.13-.5.21-1.28.24-2.33.5.32,1.19.65,2.07.97.88.32,1.66.54,2.33.66-.18,1.61-.47,2.86-.88,3.74-.41.88-1,1.49-1.76,1.83-.76.34-1.8.51-3.12.51h-6.42c-1.76,0-3.12-.16-4.07-.48-.95-.32-1.61-.87-1.98-1.63-.37-.76-.55-1.8-.55-3.12v-3.39ZM352.15,372.88h14.65v4.05h-14.65v-4.05ZM352.5,364.92h15.4v4.05h-15.4v-4.05Z"/><path class="cls-6" d="M287.32,336.01c-.04.19-.07.41-.1.68-.03.27-.05.53-.07.8-.02.27-.03.49-.03.68,0,.41,0,.87,0,1.38,0,.51.02,1.02.03,1.55.01.53.05,1.05.1,1.57.11,1.05.27,1.97.48,2.76.21.79.49,1.4.82,1.84.33.44.72.66,1.16.66.25,0,.49-.12.72-.36.23-.24.44-.56.64-.96s.38-.84.55-1.31c.17-.47.31-.93.43-1.37l1.58,1.86c-.43,1.13-.85,2.04-1.27,2.71s-.85,1.16-1.29,1.45c-.44.29-.91.44-1.4.44-.67,0-1.3-.23-1.91-.69-.61-.46-1.13-1.22-1.57-2.27-.44-1.05-.75-2.46-.94-4.22-.07-.59-.12-1.22-.15-1.9-.03-.68-.05-1.33-.06-1.94,0-.61,0-1.12,0-1.52,0-.25,0-.56-.03-.93s-.06-.68-.13-.95l2.44.04ZM297.56,336.51c.36.47.71,1.01,1.05,1.63.34.62.65,1.29.93,2.01.28.72.53,1.45.75,2.2s.4,1.49.55,2.22c.15.73.25,1.43.3,2.08l-2.06.8c-.08-.87-.21-1.77-.4-2.72-.19-.95-.43-1.88-.72-2.81-.29-.93-.64-1.8-1.03-2.62-.39-.82-.84-1.53-1.35-2.13l1.98-.66Z"/><path class="cls-6" d="M303.27,336.79c.57.09,1.22.17,1.94.24.72.07,1.39.1,2,.1s1.35-.02,2.13-.06,1.6-.1,2.45-.18c.85-.08,1.71-.18,2.57-.31.86-.13,1.69-.28,2.49-.45l.04,1.92c-.68.11-1.43.21-2.26.32-.83.11-1.67.2-2.54.29-.87.09-1.72.15-2.56.2-.84.05-1.61.07-2.3.07s-1.41-.02-2.08-.05c-.67-.03-1.29-.08-1.88-.13v-1.96ZM309.81,334.33c-.09.29-.17.6-.23.92-.06.32-.12.63-.19.92-.05.32-.13.7-.22,1.15-.09.45-.2.93-.31,1.44-.11.51-.23,1.03-.35,1.55s-.25,1.02-.38,1.49c-.13.47-.27.9-.4,1.27.85-.53,1.71-.92,2.58-1.15.87-.23,1.79-.35,2.76-.35,1.08,0,2,.17,2.77.51.77.34,1.36.82,1.79,1.43.43.61.64,1.33.64,2.16,0,1.07-.26,1.97-.77,2.72-.51.75-1.24,1.33-2.17,1.75-.93.42-2.04.69-3.33.81-1.29.12-2.72.1-4.29-.06l-.54-2.02c1.13.16,2.24.23,3.31.22,1.07-.01,2.04-.14,2.89-.37.85-.23,1.53-.6,2.04-1.09.51-.49.76-1.13.76-1.92,0-.68-.28-1.26-.85-1.73-.57-.47-1.39-.71-2.47-.71-1.17,0-2.27.2-3.28.6-1.01.4-1.84.99-2.48,1.78-.11.15-.21.29-.3.43-.09.14-.19.3-.28.47l-1.88-.66c.39-.75.74-1.58,1.06-2.5.32-.92.6-1.85.85-2.79.25-.94.45-1.81.61-2.61.16-.8.27-1.45.32-1.96.05-.36.09-.68.11-.95.02-.27.02-.56-.01-.85l2.24.1Z"/><path class="cls-6" d="M334.2,338.05c-.07.31-.14.69-.21,1.16s-.15.95-.22,1.46-.14.99-.21,1.45c-.07.46-.12.84-.16,1.15.93-.76,1.92-1.32,2.97-1.68s2.14-.54,3.27-.54,2.03.2,2.82.59c.79.39,1.4.92,1.83,1.58.43.66.65,1.39.65,2.19,0,.89-.2,1.72-.6,2.47-.4.75-1.03,1.39-1.9,1.9-.87.51-1.99.88-3.37,1.09s-3.04.24-4.99.08l-.6-2.06c2.05.25,3.77.26,5.15.02,1.38-.24,2.42-.67,3.11-1.29.69-.62,1.04-1.37,1.04-2.25,0-.49-.14-.93-.43-1.31-.29-.38-.68-.68-1.17-.9-.49-.22-1.06-.33-1.7-.33-1.23,0-2.35.22-3.37.67s-1.86,1.07-2.53,1.87c-.17.2-.31.38-.41.55-.1.17-.19.34-.27.51l-1.84-.44c.08-.37.16-.82.25-1.35.09-.53.17-1.09.25-1.7.08-.61.15-1.22.22-1.84.07-.62.13-1.22.18-1.8s.09-1.09.12-1.53l2.12.28ZM334.38,334.25c.45.13,1.03.28,1.74.44.71.16,1.45.32,2.22.47.77.15,1.51.29,2.2.4s1.26.19,1.7.23l-.46,1.94c-.4-.05-.87-.13-1.42-.23-.55-.1-1.13-.21-1.76-.33-.63-.12-1.24-.24-1.85-.36-.61-.12-1.16-.24-1.65-.36-.49-.12-.9-.22-1.22-.3l.5-1.9Z"/><path class="cls-6" d="M357.22,335.25c-.09.13-.19.28-.3.45-.11.17-.22.34-.34.53-.23.35-.49.78-.8,1.29s-.63,1.06-.96,1.65c-.33.59-.66,1.17-.98,1.74-.32.57-.6,1.09-.84,1.56.43-.33.87-.58,1.33-.73.46-.15.9-.23,1.33-.23.71,0,1.28.22,1.71.65.43.43.67,1.06.71,1.87.01.35.02.74.02,1.17s0,.86,0,1.27c0,.41.02.77.05,1.08.03.47.18.8.47.99s.62.29.99.29c.51,0,.96-.14,1.37-.42.41-.28.77-.66,1.08-1.13.31-.47.58-.99.8-1.56.22-.57.4-1.14.53-1.71l1.68,1.38c-.35,1.11-.78,2.08-1.3,2.91-.52.83-1.15,1.49-1.88,1.96s-1.6.71-2.6.71c-.72,0-1.3-.13-1.75-.4s-.77-.6-.98-1-.32-.81-.35-1.24c-.03-.39-.04-.8-.05-1.25s-.01-.89-.02-1.32c0-.43-.02-.81-.05-1.13-.01-.4-.13-.71-.36-.93-.23-.22-.55-.33-.96-.33-.49,0-.97.15-1.43.44s-.87.68-1.24,1.16-.68.99-.93,1.52c-.15.29-.3.64-.46,1.05-.16.41-.32.83-.47,1.26-.15.43-.29.84-.41,1.23-.12.39-.22.71-.3.96l-2.2-.74c.25-.68.57-1.45.94-2.31.37-.86.79-1.77,1.24-2.72.45-.95.91-1.9,1.38-2.83.47-.93.91-1.82,1.34-2.66.43-.84.81-1.57,1.14-2.2.33-.63.59-1.1.76-1.42.13-.24.27-.5.42-.79.15-.29.29-.61.42-.97l2.24.9Z"/><rect class="cls-7" x="214.1" y="98.15" width="148.17" height="182.17" rx="12.26" ry="12.26"/><path class="cls-2" d="M350.01,102.24c4.51,0,8.17,3.66,8.17,8.17v157.66c0,4.51-3.66,8.17-8.17,8.17h-123.66c-4.51,0-8.17-3.66-8.17-8.17V110.41c0-4.51,3.66-8.17,8.17-8.17h123.66M350.01,94.07h-123.66c-9.01,0-16.34,7.33-16.34,16.34v157.66c0,9.01,7.33,16.34,16.34,16.34h123.66c9.01,0,16.34-7.33,16.34-16.34V110.41c0-9.01-7.33-16.34-16.34-16.34h0Z"/><path class="cls-3" d="M226.36,102.24c-4.51,0-8.17,3.66-8.17,8.17v157.66c0,4.51,3.66,8.17,8.17,8.17h19.08V102.24h-19.08Z"/><line class="cls-1" x1="263.43" y1="143.07" x2="341.06" y2="143.07"/><line class="cls-1" x1="263.43" y1="173.82" x2="341.06" y2="173.82"/><line class="cls-1" x1="263.43" y1="204.57" x2="341.06" y2="204.57"/><path class="cls-7" d="M169.99,67.09h123.66c6.77,0,12.26,5.49,12.26,12.26v157.66c0,6.77-5.49,12.26-12.26,12.26h-123.66c-6.77,0-12.26-5.49-12.26-12.26V79.34c0-6.77,5.49-12.26,12.26-12.26Z"/><path class="cls-2" d="M293.64,71.17c4.51,0,8.17,3.66,8.17,8.17v157.66c0,4.51-3.66,8.17-8.17,8.17h-123.66c-4.51,0-8.17-3.66-8.17-8.17V79.34c0-4.51,3.66-8.17,8.17-8.17h123.66M293.64,63h-123.66c-9.01,0-16.34,7.33-16.34,16.34v157.66c0,9.01,7.33,16.34,16.34,16.34h123.66c9.01,0,16.34-7.33,16.34-16.34V79.34c0-9.01-7.33-16.34-16.34-16.34h0Z"/><path class="cls-5" d="M169.99,71.17c-4.51,0-8.17,3.66-8.17,8.17v157.66c0,4.51,3.66,8.17,8.17,8.17h19.08V71.17h-19.08Z"/><line class="cls-1" x1="207.06" y1="112" x2="284.69" y2="112"/><line class="cls-1" x1="207.06" y1="142.75" x2="284.69" y2="142.75"/><line class="cls-1" x1="207.06" y1="173.5" x2="284.69" y2="173.5"/></g></svg>