<?xml version="1.0" encoding="utf-8"?>
<!-- Generator: Adobe Illustrator 28.2.0, SVG Export Plug-In . SVG Version: 6.00 Build 0)  -->
<svg version="1.1" id="_レイヤー_2" xmlns="http://www.w3.org/2000/svg" xmlns:xlink="http://www.w3.org/1999/xlink" x="0px"
	 y="0px" viewBox="0 0 1000 288" style="enable-background:new 0 0 1000 288;" xml:space="preserve">
<style type="text/css">
	.st0{fill:#FFFFFF;}
	.st1{fill:#FFFFFF;stroke:#FFFFFF;stroke-width:1.79;stroke-linecap:round;stroke-linejoin:round;}
	.st2{fill:none;stroke:#FFFFFF;stroke-width:1.79;stroke-linecap:round;stroke-linejoin:round;}
	.st3{fill:none;}
</style>
<g id="_2">
	<path class="st0" d="M155.5,177.4h-50.4v-43.2h27.8V97.6h-27.8v-43H68.4v43H13.6v36.6h54.8v43.2H55.2C24.8,177.4,0,202.2,0,232.6
		c0,30.5,24.8,55.2,55.2,55.2h49.8V214h50.4c3.5,0,6.3,2.8,6.3,6.3v24.5c0,3.5-2.9,6.3-6.3,6.3h-26.4v36.6h26.4
		c23.7,0,43-19.3,43-43v-24.5C198.5,196.7,179.2,177.4,155.5,177.4z M68.4,251.2H55.2c-10.3,0-18.6-8.3-18.6-18.6S45,214,55.2,214v0
		h13.2V251.2z"/>
	<rect x="315" y="185.2" class="st0" width="69.1" height="28.9"/>
	<path class="st0" d="M384.2,283.9h-29.6c-22.8,0-41.3-18.5-41.3-41.3v-4.8h33v4.8c0,4.6,3.7,8.3,8.3,8.3h29.6L384.2,283.9
		L384.2,283.9z"/>
	<circle class="st0" cx="184" cy="134.4" r="25.2"/>
	<rect x="570.1" y="123.9" class="st0" width="33" height="160"/>
	<path class="st0" d="M737.4,150.4v33h-33.1v76.5c0,14.1-11.5,25.6-25.6,25.6h-18.5v-33h11.2v-69.1h-39.7v-33h39.7v-44h33v44
		L737.4,150.4L737.4,150.4z"/>
	<path class="st0" d="M1000,222.8c0,35.4-28.8,64.2-64.2,64.2h-66.1v-36.6h66.1c15.2,0,27.5-12.4,27.5-27.5s-12.4-27.6-27.5-27.6
		h-64.5v-61h-45.7V97.6h45.7v-43H908v43h73.7v36.6H908v24.4h27.8C971.2,158.6,1000,187.4,1000,222.8L1000,222.8z"/>
	<path class="st0" d="M814.5,286H772v-29.3h35.2v-24.5h-59.3v-29.8h66.7c14.1,0,25.6,11.5,25.6,25.6v32.4
		C840.1,274.5,828.7,286,814.5,286L814.5,286z"/>
	<polygon class="st0" points="326.9,132.4 326.9,165.4 292.1,165.4 265.6,283.8 232.8,283.8 259.3,165.4 230.9,165.4 230.9,132.4 
		266.7,132.4 274.1,99.3 306.9,99.3 299.5,132.4 	"/>
	<path class="st0" d="M746.7,75.3H240.6c-1.5,0-2.8-1.2-2.8-2.8s1.2-2.8,2.8-2.8h506.1c1.5,0,2.8,1.2,2.8,2.8S748.2,75.3,746.7,75.3
		L746.7,75.3z"/>
	<path class="st0" d="M272.9,13.7c0.4,5.9,0.6,11.8,0.6,17v18.5c0,2.4-2.1,4-5.1,4s-5.2-1.7-5.2-4V12.7c0-5.4,2.9-8.2,8.4-8.2
		s7.1,1.2,9,6l5.5,14.1c1.2,3.1,2.2,6.8,2.8,9.7h0.2c0.5-2.5,1.7-6.8,2.8-9.7l5.5-14.1c1.9-4.8,3.7-6,9-6s8.4,2.8,8.4,8.2v36.5
		c0,2.4-2.1,4-5.1,4s-5.2-1.7-5.2-4V30.7c0-4.2,0.2-11.9,0.6-17h-0.2c-1.4,5.2-3.2,10.7-4.8,14.5l-5.1,12.4
		c-1.4,3.4-3.3,4.9-5.9,4.9s-4.5-1.6-5.9-4.9l-5.1-12.4c-1.5-3.6-3.5-9.7-4.8-14.5L272.9,13.7L272.9,13.7z"/>
	<path class="st0" d="M324.7,13.3c-0.9-1.2-1.3-2.3-1.3-3.5c0-2.7,2.9-5.3,5.9-5.3c1.8,0,3.4,0.9,4.5,2.4l11,15.8l11-15.8
		c1-1.5,2.7-2.4,4.5-2.4c3.1,0,5.9,2.6,5.9,5.4c0,1.2-0.5,2.4-1.3,3.5l-14.6,18.4V49c0,2.4-2.3,4.2-5.4,4.2s-5.4-1.8-5.4-4.2V31.8
		L324.7,13.3L324.7,13.3z"/>
	<path class="st0" d="M414.8,6.3c0-2.3,2.1-4.1,5-4.1s5.2,1.7,5.2,4.1v7.4h7.2c2,0,3.5,1.9,3.5,4.3s-1.5,4.3-3.5,4.3H425
		c-0.1,11.3-1.7,18.4-5.2,23.2c-3.1,4.1-10.3,8.8-13.7,8.8c-2.5,0-4.6-2.3-4.6-5.1c0-1.5,0.6-2.8,1.7-3.6c0.4-0.3,0.5-0.3,1.7-0.9
		c7.4-3.6,9.8-9,9.9-22.4h-12.2v12c0,2.4-2.1,4-5,4s-5.1-1.7-5.1-4v-12H386c-2,0-3.5-1.9-3.5-4.3s1.5-4.3,3.5-4.3h6.5V6.7
		c0-2.3,2.1-4.1,5-4.1s5.1,1.7,5.1,4.1v6.9h12.2L414.8,6.3L414.8,6.3z"/>
	<path class="st0" d="M457.7,29.1c0,0.8-0.8,4.3-1.6,7.8c-1.1,4-2.9,9.2-4.1,11.4c-1,1.9-2.8,3.1-4.8,3.1c-3,0-5.6-2.5-5.6-5.4
		c0-1,0.2-1.5,1.2-3.3c1.8-3.2,3.8-8.8,5.2-14.2c0.6-2.5,2.1-3.8,4.4-3.8C455.4,24.6,457.7,26.6,457.7,29.1z M484.6,12.6
		C483,11.1,482,9.2,482,7c0-3.8,3.2-7,7.1-7s7.1,3.2,7.1,7.1c0,3.4-2.3,6.1-5.8,6.9c0.6,0.8,0.9,1.9,0.9,2.9c0,2.5-1.5,4.3-3.5,4.3
		h-15.4v30c0,2.4-2.1,4-5,4s-5-1.7-5-4v-30h-16.5c-2,0-3.5-1.9-3.5-4.3s1.5-4.3,3.5-4.3h16.5V5.9c0-2.3,2.1-4,5-4s5.1,1.7,5.1,4v6.7
		L484.6,12.6L484.6,12.6z M484.6,26.4c0.4,0.5,0.5,0.8,1,2c1.5,3.9,4.8,11.7,6.3,14.8c0.6,1.1,0.8,1.8,0.8,2.8
		c0,2.7-2.3,4.9-5.3,4.9c-2,0-3.6-1-4.5-2.7c-3-5.8-7.2-17.4-7.2-19.5c0-2.4,2.3-4.3,4.9-4.3C482.2,24.5,483.7,25.2,484.6,26.4
		L484.6,26.4z M485.9,7.1c0,1.7,1.5,3.2,3.2,3.2s3.2-1.4,3.2-3.2s-1.5-3.2-3.2-3.2S485.9,5.4,485.9,7.1z"/>
	<path class="st0" d="M537.3,23.4c2.2,0,3.9,2,3.9,4.7s-1.6,4.9-3.9,4.9h-33.4c-2.2,0-3.9-2-3.9-4.8s1.7-4.8,3.9-4.8H537.3z"/>
	<path class="st0" d="M561.8,51.3c0,2.4-2.1,4-5.1,4s-5.1-1.7-5.1-4V6.1c0-2.3,2.1-4.1,5-4.1s5.2,1.7,5.2,4.1v12.1
		c11.1,3.4,14.5,4.6,23,8.3c2,0.9,3.1,2.4,3.1,4.4c0,2.9-2.3,5.6-4.8,5.6c-1.2,0-1.6-0.2-3.9-1.3c-4.3-2.1-10.2-4.6-17.4-7.4V51.3z"
		/>
	<path class="st0" d="M632.3,4.5c1.6,0.8,2.4,2,2.4,3.7c0,3.4-3.7,14.2-6.8,20.3c-4.4,8.5-10.7,15-19.8,20.5
		c-4.9,3-9.4,4.9-11.5,4.9c-1.7,0-3.1-0.9-4-3c-0.5-0.9-0.7-1.8-0.7-2.7c0-1.5,0.7-2.8,1.8-3.8c0.5-0.4,1.6-0.9,3.2-1.7
		c14.9-7,23.5-18.2,26.9-35.2c0.5-2.6,2-3.9,4.7-3.9C629.7,3.7,631.2,4.1,632.3,4.5L632.3,4.5z"/>
	<path class="st0" d="M679,23.4c2.2,0,3.9,2,3.9,4.7S681.3,33,679,33h-33.4c-2.2,0-3.9-2-3.9-4.8s1.7-4.8,3.9-4.8H679z"/>
	<path class="st0" d="M706.1,51.3c0,2.4-2.1,4-5.1,4s-5.1-1.7-5.1-4V6.1c0-2.3,2.1-4.1,5-4.1s5.2,1.7,5.2,4.1v12.1
		c11.1,3.4,14.5,4.6,23,8.3c2,0.9,3.1,2.4,3.1,4.4c0,2.9-2.3,5.6-4.8,5.6c-1.2,0-1.6-0.2-3.9-1.3c-4.3-2.1-10.2-4.6-17.4-7.4
		L706.1,51.3L706.1,51.3z"/>
	<path class="st1" d="M759,71.5L759,71.5l-2.3,2.3c-0.6,0.6-1.5,0.6-2.2,0c-0.3-0.3-0.5-0.7-0.5-1.1s0.2-0.8,0.5-1.1l2.3-2.3
		L759,71.5L759,71.5z"/>
	<polygon class="st2" points="822.8,22.2 775.2,69.9 759,71.5 759,71.5 756.9,69.4 758.5,53.3 806.2,5.6 	"/>
	
		<rect x="759" y="31" transform="matrix(0.7071 -0.7071 0.7071 0.7071 204.0205 572.2276)" class="st1" width="67.5" height="17.7"/>
	
		<rect x="750.7" y="28.5" transform="matrix(0.7071 -0.7071 0.7071 0.7071 207.4739 563.8779)" class="st2" width="67.5" height="5.9"/>
	<path class="st0" d="M507.4,123.8v-17.5h-33v17.5H395v33h79.5v9.4c-3.7-1.1-7.6-1.6-11.6-1.6c-23.1,0-41.8,18.8-41.8,41.8
		s18.1,41.2,40.6,41.8c-5.6,4.3-12.5,6.9-20.1,6.9v33c36.3,0,65.9-29.5,65.9-65.9v-65.3h38.7v-33L507.4,123.8L507.4,123.8z
		 M451.5,206.4c0-6.2,5-11.2,11.2-11.2s11.2,5,11.2,11.2s-5,11.2-11.2,11.2S451.5,212.6,451.5,206.4z"/>
	<path class="st3" d="M474,206.4c0,6.2-5,11.2-11.2,11.2s-11.2-5-11.2-11.2s5-11.2,11.2-11.2S474,200.2,474,206.4z"/>
	<path class="st3" d="M0,0v288h441.5v-33c7.6,0,14.5-2.6,20.1-6.9c-22.5-0.6-40.6-18.7-40.6-41.8s18.8-41.8,41.8-41.8
		c4,0,7.9,0.6,11.6,1.7v-9.4H395v-33h79.5v-17.5h33v17.5h38.8v33h-38.8v65.3c0,36.3-29.5,65.9-65.9,65.9H1000V0H0z M36.6,232.6
		c0-10.3,8.3-18.6,18.6-18.6v0h13.2v37.2H55.2C45,251.2,36.6,242.9,36.6,232.6z"/>
</g>
</svg>
