<?xml version="1.0" encoding="UTF-8"?><svg id="_レイヤー_2" xmlns="http://www.w3.org/2000/svg" viewBox="0 0 520 440"><defs><style>.cls-1,.cls-2,.cls-3{stroke:#533c3e;stroke-linecap:round;stroke-linejoin:round;}.cls-1,.cls-4{fill:#533c3e;}.cls-2{fill:#ffc;stroke-width:7.73px;}.cls-3{fill:none;stroke-width:8.73px;}.cls-4,.cls-5,.cls-6,.cls-7,.cls-8,.cls-9{stroke-width:0px;}.cls-5{fill:#05804d;}.cls-6{fill:#bcbcbc;}.cls-7{fill:#333;}.cls-8{fill:#8ac2a9;}.cls-9{fill:#fff;}</style></defs><g id="_レイヤー_1-2"><rect class="cls-9" x="2" y="2" width="516" height="436" rx="38" ry="38"/><path class="cls-6" d="M480,4c19.85,0,36,16.15,36,36v360c0,19.85-16.15,36-36,36H40c-19.85,0-36-16.15-36-36V40C4,20.15,20.15,4,40,4h440M480,0H40C17.91,0,0,17.91,0,40v360c0,22.09,17.91,40,40,40h440c22.09,0,40-17.91,40-40V40c0-22.09-17.91-40-40-40h0Z"/></g><g id="_2"><path class="cls-7" d="M70.47,387.7l3.7,1.41c-.7,1.58-1.56,3.18-2.55,4.77-1,1.6-2.08,3.09-3.26,4.47-1.17,1.38-2.35,2.54-3.52,3.48-.38-.56-.91-1.21-1.58-1.96s-1.29-1.34-1.85-1.78c1.14-.73,2.29-1.66,3.43-2.79,1.14-1.13,2.21-2.35,3.19-3.65.98-1.3,1.8-2.62,2.44-3.94ZM62.51,377.45h20.72v4.31h-20.72v-4.31ZM62.64,385.15h20.2v4.44h-20.2v-4.44ZM63.03,367.64h19.84v4.27h-19.84v-4.27ZM65.23,372.57l4.09-.97c.38.79.72,1.68,1.01,2.66.29.98.48,1.83.57,2.53l-4.27,1.19c-.06-.73-.21-1.61-.46-2.62-.25-1.01-.56-1.94-.95-2.79ZM70.43,363.64h5.1v5.9h-5.1v-5.9ZM70.43,381.5h5.1v23.01h-5.1v-23.01ZM75.18,389.77c.32.18.8.5,1.43.97.63.47,1.3.98,2,1.52.7.54,1.34,1.04,1.91,1.5.57.46,1,.79,1.3.99l-3.08,3.78c-.35-.41-.8-.92-1.34-1.52-.54-.6-1.13-1.21-1.76-1.83-.63-.62-1.24-1.2-1.83-1.76-.59-.56-1.09-1.01-1.5-1.36l2.86-2.29ZM76.19,371.51l4.71.92c-.41,1-.81,1.96-1.19,2.88-.38.92-.73,1.71-1.06,2.35l-4.22-.88c.21-.5.42-1.06.66-1.67.23-.62.45-1.24.66-1.87.21-.63.35-1.21.44-1.74ZM84.51,366.72l6.16,1.76c-.03.38-.4.63-1.1.75v12.94c0,1.64-.08,3.44-.24,5.39-.16,1.95-.48,3.95-.95,5.98-.47,2.04-1.16,4.01-2.07,5.92-.91,1.91-2.11,3.65-3.61,5.24-.21-.41-.54-.85-.99-1.32-.46-.47-.92-.92-1.41-1.34-.48-.43-.95-.74-1.39-.95,1.29-1.35,2.31-2.81,3.06-4.38.75-1.57,1.31-3.19,1.67-4.86.37-1.67.6-3.34.7-4.99.1-1.66.15-3.25.15-4.77v-15.36ZM98.89,363.72l4.22,3.83c-1.5.67-3.12,1.29-4.88,1.85-1.76.56-3.56,1.05-5.39,1.47-1.83.43-3.6.8-5.3,1.12-.15-.56-.38-1.23-.7-2.02-.32-.79-.65-1.45-.97-1.98,1.58-.35,3.18-.75,4.8-1.21,1.61-.45,3.13-.95,4.55-1.47,1.42-.53,2.65-1.06,3.67-1.58ZM86.88,377.8h16.46v4.88h-16.46v-4.88ZM94.01,379.96h5.15v24.42h-5.15v-24.42Z"/><path class="cls-7" d="M117.3,365.75c-.12.91-.23,1.89-.33,2.95-.1,1.06-.18,2.02-.24,2.9-.03,1.2-.08,2.66-.15,4.38-.07,1.72-.13,3.51-.18,5.39-.04,1.88-.09,3.73-.13,5.54-.04,1.82-.07,3.4-.07,4.75,0,1.47.27,2.63.81,3.5.54.87,1.27,1.48,2.18,1.85.91.37,1.94.55,3.08.55,1.82,0,3.48-.24,4.97-.73,1.5-.48,2.86-1.14,4.09-1.96,1.23-.82,2.34-1.77,3.32-2.86.98-1.08,1.87-2.23,2.66-3.43l4,4.84c-.7,1.06-1.63,2.17-2.77,3.34-1.14,1.17-2.5,2.27-4.07,3.3-1.57,1.03-3.38,1.86-5.43,2.51-2.05.65-4.33.97-6.82.97s-4.5-.37-6.27-1.12c-1.77-.75-3.15-1.91-4.14-3.48-.98-1.57-1.47-3.6-1.47-6.09,0-1.2.01-2.57.04-4.11.03-1.54.07-3.15.13-4.82.06-1.67.1-3.31.13-4.91.03-1.6.06-3.04.09-4.33.03-1.29.04-2.32.04-3.08,0-1.06-.04-2.09-.13-3.1-.09-1.01-.24-1.96-.44-2.84l7.08.09Z"/><path class="cls-7" d="M152.91,369.18c-.12.53-.21,1.13-.29,1.8s-.13,1.33-.18,1.98c-.04.65-.07,1.17-.07,1.58-.03.97-.04,1.97-.02,2.99.01,1.03.04,2.08.09,3.15.04,1.07.11,2.13.2,3.19.21,2.11.5,3.98.88,5.59.38,1.61.88,2.87,1.5,3.76.62.9,1.39,1.34,2.33,1.34.5,0,.99-.28,1.47-.84.48-.56.92-1.28,1.32-2.18.4-.89.75-1.84,1.06-2.84.31-1,.58-1.94.81-2.82l4.4,5.37c-.97,2.55-1.93,4.58-2.88,6.09-.95,1.51-1.94,2.6-2.97,3.26-1.03.66-2.14.99-3.34.99-1.58,0-3.09-.53-4.51-1.58-1.42-1.06-2.63-2.76-3.63-5.13-1-2.36-1.7-5.51-2.11-9.44-.15-1.35-.26-2.77-.33-4.27-.07-1.5-.12-2.92-.13-4.27-.02-1.35-.02-2.46-.02-3.34,0-.62-.03-1.35-.09-2.2-.06-.85-.15-1.61-.26-2.29l6.78.09ZM174.91,370.19c.82,1,1.61,2.22,2.38,3.65.76,1.44,1.47,2.98,2.11,4.62.64,1.64,1.22,3.32,1.72,5.04.5,1.72.9,3.39,1.21,5.02s.51,3.12.59,4.47l-5.81,2.24c-.15-1.79-.41-3.74-.79-5.85-.38-2.11-.9-4.24-1.54-6.38-.65-2.14-1.42-4.17-2.31-6.07-.9-1.91-1.94-3.55-3.15-4.93l5.59-1.8Z"/><path class="cls-7" d="M218.65,368.43c-.38.79-.73,1.63-1.06,2.51-.32.88-.62,1.69-.88,2.42-.62,1.67-1.34,3.48-2.18,5.41s-1.76,3.84-2.77,5.7c-1.01,1.86-2.12,3.54-3.32,5.04-1.23,1.56-2.72,3.15-4.47,4.77-1.75,1.63-3.65,3.14-5.72,4.53-2.07,1.39-4.23,2.54-6.49,3.45l-5.02-5.15c2.29-.79,4.46-1.77,6.51-2.95,2.05-1.17,3.94-2.49,5.68-3.96,1.73-1.47,3.24-2.98,4.53-4.53,1.41-1.7,2.66-3.63,3.76-5.79,1.1-2.16,2.04-4.38,2.82-6.67.78-2.29,1.36-4.47,1.74-6.56l6.86,1.76Z"/><path class="cls-7" d="M224.03,380.27c.53.03,1.2.07,2.02.11.82.04,1.68.08,2.57.11.89.03,1.72.04,2.49.04h23.63c1.03,0,1.99-.04,2.9-.11.91-.07,1.66-.12,2.24-.15v6.91c-.5-.03-1.25-.07-2.24-.13-1-.06-1.97-.09-2.9-.09h-23.63c-1.26,0-2.55.02-3.87.07-1.32.04-2.39.1-3.21.15v-6.91Z"/><path class="cls-7" d="M271.67,396.42v-25.3c0-.76-.04-1.64-.11-2.64-.07-1-.18-1.88-.33-2.64h6.86c-.09.76-.18,1.61-.26,2.53-.09.92-.13,1.84-.13,2.75v25.3c0,.41.01.99.04,1.74.03.75.09,1.52.18,2.31s.15,1.5.18,2.11h-6.86c.12-.88.22-1.91.31-3.08s.13-2.2.13-3.08ZM276.38,377.23c1.47.38,3.11.87,4.93,1.47,1.82.6,3.65,1.24,5.5,1.91,1.85.68,3.59,1.34,5.21,2s2.98,1.27,4.07,1.83l-2.51,6.07c-1.23-.64-2.6-1.3-4.09-1.96-1.5-.66-3.01-1.3-4.55-1.91-1.54-.62-3.05-1.19-4.53-1.72-1.48-.53-2.82-1-4.03-1.41v-6.29Z"/><path class="cls-7" d="M320.2,365.35c-.15.79-.38,1.82-.7,3.08-.32,1.26-.79,2.68-1.41,4.27-.47,1.09-1,2.21-1.61,3.37-.6,1.16-1.21,2.19-1.83,3.1.38-.18.87-.33,1.45-.46.59-.13,1.19-.23,1.83-.31.63-.07,1.19-.11,1.69-.11,1.85,0,3.38.53,4.6,1.58,1.22,1.06,1.83,2.63,1.83,4.71,0,.59,0,1.31.02,2.16.01.85.04,1.74.07,2.66.03.92.06,1.83.09,2.71.03.88.04,1.67.04,2.38h-5.28c.06-.5.1-1.09.11-1.78.01-.69.03-1.42.04-2.18.01-.76.03-1.5.04-2.22.01-.72.02-1.37.02-1.96,0-1.41-.37-2.38-1.12-2.93-.75-.54-1.58-.81-2.49-.81-1.23,0-2.47.3-3.72.9-1.25.6-2.3,1.31-3.15,2.13-.65.65-1.3,1.36-1.96,2.16-.66.79-1.37,1.69-2.13,2.68l-4.71-3.52c1.91-1.76,3.56-3.46,4.95-5.1,1.39-1.64,2.57-3.27,3.54-4.88.97-1.61,1.76-3.23,2.38-4.84.44-1.17.8-2.4,1.08-3.67s.45-2.47.51-3.59l5.81.48ZM303.66,369.4c1.11.18,2.41.31,3.87.4,1.47.09,2.76.13,3.87.13,1.94,0,4.05-.04,6.36-.13,2.3-.09,4.64-.24,7.02-.46,2.38-.22,4.63-.51,6.78-.86l-.04,5.1c-1.56.21-3.23.39-5.04.55-1.8.16-3.64.29-5.5.4-1.86.1-3.65.18-5.35.22-1.7.04-3.21.07-4.53.07-.59,0-1.31,0-2.18-.02-.87-.01-1.75-.04-2.66-.09-.91-.04-1.78-.09-2.6-.15v-5.15ZM338.5,381.9c-.47.15-1.02.33-1.65.55-.63.22-1.26.44-1.89.66-.63.22-1.2.43-1.69.64-1.41.56-3.07,1.23-4.99,2.02-1.92.79-3.92,1.72-6.01,2.77-1.32.7-2.44,1.39-3.34,2.07-.91.68-1.6,1.36-2.07,2.05-.47.69-.7,1.44-.7,2.27,0,.62.13,1.12.4,1.52s.66.71,1.19.95c.53.23,1.19.4,1.98.48s1.73.13,2.82.13c1.88,0,3.94-.11,6.2-.33,2.26-.22,4.36-.52,6.29-.9l-.18,5.68c-.94.12-2.13.24-3.56.37-1.44.13-2.93.23-4.47.29-1.54.06-3.01.09-4.42.09-2.29,0-4.34-.22-6.16-.66s-3.25-1.2-4.29-2.27c-1.04-1.07-1.56-2.54-1.56-4.42,0-1.52.34-2.9,1.03-4.14.69-1.23,1.61-2.35,2.75-3.34,1.14-1,2.4-1.9,3.76-2.71,1.36-.81,2.71-1.55,4.03-2.22,1.35-.7,2.57-1.3,3.65-1.8,1.08-.5,2.1-.95,3.06-1.34.95-.4,1.87-.8,2.75-1.21.85-.38,1.67-.75,2.46-1.12.79-.37,1.6-.75,2.42-1.17l2.2,5.1Z"/><path class="cls-7" d="M342.74,376.53c.82-.15,1.73-.35,2.73-.62,1-.26,1.89-.5,2.68-.7.85-.26,2-.63,3.45-1.1,1.45-.47,3.06-.94,4.82-1.41,1.76-.47,3.56-.87,5.39-1.21,1.83-.34,3.54-.51,5.13-.51,2.67,0,5.07.5,7.22,1.5,2.14,1,3.84,2.44,5.1,4.31,1.26,1.88,1.89,4.18,1.89,6.91,0,2-.37,3.84-1.1,5.54-.73,1.7-1.81,3.23-3.23,4.58-1.42,1.35-3.15,2.52-5.17,3.52-2.02,1-4.33,1.8-6.93,2.4-2.6.6-5.45.97-8.56,1.12l-2.55-5.85c2.99-.06,5.77-.33,8.34-.81,2.57-.48,4.82-1.19,6.75-2.11,1.94-.92,3.45-2.09,4.53-3.5,1.08-1.41,1.63-3.06,1.63-4.97,0-1.38-.31-2.62-.92-3.72-.62-1.1-1.53-1.97-2.75-2.62-1.22-.65-2.71-.97-4.47-.97-1.29,0-2.71.15-4.27.46-1.56.31-3.15.71-4.77,1.21-1.63.5-3.22,1.03-4.77,1.61-1.56.57-2.99,1.14-4.31,1.69-1.32.56-2.44,1.03-3.34,1.41l-2.51-6.16Z"/><path class="cls-7" d="M412.86,368.92c-.7.5-1.39,1.02-2.07,1.56-.68.54-1.26,1.03-1.76,1.47-.73.56-1.61,1.24-2.62,2.05-1.01.81-2.07,1.64-3.17,2.51s-2.16,1.71-3.19,2.53c-1.03.82-1.91,1.56-2.64,2.2-.76.67-1.28,1.23-1.54,1.65-.26.43-.26.84.02,1.25.28.41.81.97,1.61,1.67.65.56,1.47,1.25,2.49,2.07,1.01.82,2.11,1.72,3.3,2.71,1.19.98,2.4,2,3.65,3.04,1.25,1.04,2.45,2.07,3.61,3.08,1.16,1.01,2.19,1.96,3.1,2.84l-5.15,4.71c-1.23-1.38-2.51-2.74-3.83-4.09-.67-.67-1.55-1.5-2.62-2.49-1.07-.98-2.23-2.02-3.48-3.1-1.25-1.08-2.49-2.16-3.72-3.23-1.23-1.07-2.35-2.03-3.34-2.88-1.47-1.23-2.41-2.36-2.84-3.39-.43-1.03-.37-2.05.18-3.06.54-1.01,1.55-2.12,3.01-3.32.88-.67,1.88-1.47,2.99-2.4s2.26-1.88,3.43-2.86c1.17-.98,2.29-1.94,3.34-2.86,1.06-.92,1.95-1.74,2.68-2.44.65-.64,1.29-1.3,1.94-1.98.65-.67,1.13-1.26,1.45-1.76l5.15,4.53Z"/><path class="cls-7" d="M424.98,367.11c.62.09,1.28.15,1.98.18.7.03,1.38.04,2.02.04.47,0,1.17,0,2.11-.02.94-.01,2-.04,3.19-.07,1.19-.03,2.37-.06,3.54-.09,1.17-.03,2.24-.07,3.19-.11.95-.04,1.69-.08,2.22-.11.91-.09,1.63-.17,2.16-.24.53-.07.92-.15,1.19-.24l2.86,3.92c-.5.32-1.01.65-1.54.97-.53.32-1.04.68-1.54,1.06-.59.41-1.29.95-2.11,1.61-.82.66-1.69,1.36-2.62,2.09-.92.73-1.82,1.45-2.68,2.16-.87.7-1.65,1.33-2.35,1.89.73-.18,1.44-.3,2.11-.37.67-.07,1.36-.11,2.07-.11,2.49,0,4.73.48,6.71,1.45,1.98.97,3.55,2.28,4.71,3.94,1.16,1.66,1.74,3.56,1.74,5.7,0,2.32-.59,4.42-1.76,6.29-1.17,1.88-2.94,3.37-5.3,4.49-2.36,1.11-5.32,1.67-8.87,1.67-2.02,0-3.85-.29-5.48-.88-1.63-.59-2.91-1.42-3.85-2.51-.94-1.08-1.41-2.36-1.41-3.83,0-1.2.33-2.32.99-3.37.66-1.04,1.58-1.88,2.77-2.53,1.19-.65,2.56-.97,4.11-.97,2.02,0,3.73.4,5.13,1.21,1.39.81,2.46,1.88,3.21,3.23.75,1.35,1.14,2.83,1.17,4.44l-5.15.7c-.03-1.61-.43-2.91-1.21-3.89-.78-.98-1.81-1.47-3.1-1.47-.82,0-1.48.21-1.98.64-.5.43-.75.92-.75,1.47,0,.82.41,1.48,1.23,1.98.82.5,1.89.75,3.21.75,2.49,0,4.58-.3,6.25-.9,1.67-.6,2.93-1.47,3.76-2.6.84-1.13,1.25-2.47,1.25-4.03,0-1.32-.4-2.48-1.21-3.48-.81-1-1.9-1.77-3.28-2.33-1.38-.56-2.93-.84-4.66-.84s-3.26.21-4.66.64c-1.41.43-2.74,1.03-3.98,1.8-1.25.78-2.46,1.72-3.65,2.82s-2.37,2.33-3.54,3.67l-4-4.14c.79-.65,1.69-1.37,2.68-2.18,1-.81,2.02-1.65,3.06-2.53,1.04-.88,2.02-1.71,2.95-2.49.92-.78,1.71-1.43,2.35-1.96.62-.5,1.33-1.08,2.16-1.76.82-.67,1.67-1.37,2.55-2.09.88-.72,1.72-1.41,2.51-2.07.79-.66,1.45-1.22,1.98-1.69-.44,0-1.01.02-1.72.04-.7.03-1.47.06-2.31.09s-1.67.06-2.51.09c-.84.03-1.61.07-2.33.11-.72.04-1.31.08-1.78.11-.59.03-1.2.07-1.85.13-.65.06-1.23.13-1.76.22l-.18-5.72Z"/><path class="cls-7" d="M69.29,339.11c-.04.11-.09.25-.15.42-.06.17-.12.35-.18.52s-.12.32-.17.44c-.39,1.23-.86,2.34-1.41,3.35-.55,1.01-1.15,1.89-1.8,2.66-.65.77-1.31,1.4-1.99,1.91-.64.49-1.36.91-2.15,1.26-.79.35-1.58.52-2.35.52-.45,0-.87-.09-1.26-.28-.39-.19-.69-.48-.92-.88-.23-.4-.34-.91-.34-1.52,0-.69.15-1.38.44-2.06.29-.68.7-1.33,1.21-1.94s1.11-1.16,1.79-1.64c.68-.48,1.4-.87,2.16-1.16.67-.24,1.38-.43,2.15-.58.77-.15,1.5-.22,2.19-.22,1.27,0,2.37.22,3.31.67.94.45,1.67,1.06,2.2,1.83.53.77.79,1.65.79,2.62,0,.72-.12,1.41-.35,2.07-.23.66-.61,1.27-1.13,1.82-.52.55-1.2,1.03-2.03,1.43-.83.4-1.84.69-3.03.88l-1.08-1.66c1.24-.13,2.28-.42,3.12-.86.84-.44,1.48-.99,1.91-1.64.43-.65.65-1.36.65-2.12,0-.63-.17-1.2-.51-1.71-.34-.51-.84-.93-1.5-1.25-.66-.32-1.47-.48-2.43-.48-.87,0-1.66.1-2.37.31-.71.21-1.32.42-1.81.65-.72.32-1.37.74-1.94,1.27-.57.53-1.03,1.09-1.36,1.69-.33.6-.5,1.17-.5,1.72,0,.37.09.65.27.84.18.19.44.28.79.28.48,0,1.03-.15,1.66-.44.63-.29,1.25-.73,1.88-1.3.83-.73,1.6-1.62,2.31-2.66.71-1.04,1.28-2.32,1.71-3.84.04-.12.08-.26.11-.43s.06-.34.09-.52c.03-.18.05-.33.06-.45l1.96.48ZM60.83,336.51c1.21,0,2.39-.03,3.52-.09,1.13-.06,2.22-.16,3.27-.29,1.05-.13,2.05-.31,3.01-.54l.02,1.86c-.71.12-1.47.23-2.3.33-.83.1-1.68.18-2.56.25-.88.07-1.75.12-2.61.16-.86.04-1.66.06-2.41.06-.31,0-.67-.01-1.08-.03-.41-.02-.82-.04-1.23-.06-.41-.02-.76-.04-1.05-.05l-.06-1.86c.24.04.57.08.99.12.42.04.86.07,1.31.1.45.03.85.04,1.18.04ZM64.19,334.17c-.04.15-.08.31-.13.48-.05.17-.08.33-.11.48-.12.59-.23,1.29-.34,2.11-.11.82-.19,1.69-.26,2.61s-.1,1.82-.1,2.7c0,.95.06,1.84.17,2.68.11.84.26,1.63.45,2.36s.39,1.43.6,2.08l-1.82.54c-.2-.6-.39-1.3-.57-2.11-.18-.81-.32-1.66-.43-2.57-.11-.91-.16-1.81-.16-2.72,0-.67.02-1.35.06-2.06.04-.71.09-1.4.15-2.07.06-.67.13-1.31.2-1.91.07-.6.13-1.13.17-1.6.03-.17.04-.36.05-.56s.01-.37.01-.5l2.06.06Z"/><path class="cls-7" d="M77.36,337.47c.77,0,1.59-.04,2.46-.12s1.75-.19,2.65-.34c.9-.15,1.77-.33,2.61-.54v1.98c-.83.19-1.7.35-2.62.48-.92.13-1.82.24-2.7.31-.88.07-1.69.11-2.42.11-.45,0-.87,0-1.25-.02-.38-.01-.76-.03-1.13-.06l-.04-1.96c.49.05.93.09,1.31.12s.76.04,1.13.04ZM82.08,334.27c-.07.24-.14.54-.21.89-.07.35-.13.63-.17.83-.09.47-.2,1.02-.33,1.67-.13.65-.27,1.32-.44,2.03-.17.71-.34,1.39-.51,2.06-.17.71-.39,1.47-.64,2.3s-.52,1.66-.81,2.51-.57,1.65-.86,2.4c-.29.75-.57,1.42-.85,1.99l-2.18-.74c.29-.51.6-1.12.92-1.85.32-.73.63-1.51.94-2.34.31-.83.59-1.66.86-2.49.27-.83.49-1.59.68-2.28.12-.47.24-.96.36-1.47.12-.51.23-1.01.34-1.49.11-.48.19-.93.26-1.35.07-.42.12-.77.16-1.05.05-.32.08-.65.09-.98,0-.33,0-.61,0-.82l2.4.18ZM84.36,345.29c-.07.31-.13.61-.18.91-.05.3-.08.58-.08.83,0,.23.04.44.13.65.09.21.24.39.46.55s.53.29.94.38c.41.09.93.14,1.57.14s1.32-.04,2-.11c.68-.07,1.35-.17,2-.29l-.06,2.02c-.56.07-1.17.13-1.83.19-.66.06-1.37.09-2.13.09-1.63,0-2.87-.26-3.73-.78-.86-.52-1.29-1.27-1.29-2.26,0-.43.03-.85.1-1.27s.15-.83.24-1.23l1.86.18ZM83.66,340.35c.55-.05,1.15-.1,1.8-.13s1.3-.05,1.94-.05c.59,0,1.18,0,1.77.03.59.02,1.17.06,1.73.13l-.06,1.92c-.51-.07-1.05-.13-1.63-.18-.58-.05-1.17-.08-1.77-.08-.65,0-1.29.02-1.91.05-.62.03-1.24.09-1.87.17v-1.86Z"/><path class="cls-7" d="M97.49,338.05c-.07.31-.14.69-.21,1.16s-.15.95-.22,1.46-.14.99-.21,1.45c-.07.46-.12.84-.16,1.15.93-.76,1.92-1.32,2.97-1.68,1.05-.36,2.14-.54,3.27-.54s2.03.2,2.82.59,1.4.92,1.83,1.58.65,1.39.65,2.19c0,.89-.2,1.72-.6,2.47s-1.03,1.39-1.9,1.9c-.87.51-1.99.88-3.37,1.09-1.38.21-3.04.24-4.99.08l-.6-2.06c2.05.25,3.77.26,5.15.02,1.38-.24,2.42-.67,3.11-1.29.69-.62,1.04-1.37,1.04-2.25,0-.49-.14-.93-.43-1.31s-.68-.68-1.17-.9c-.49-.22-1.06-.33-1.7-.33-1.23,0-2.35.22-3.37.67-1.02.45-1.86,1.07-2.53,1.87-.17.2-.31.38-.41.55-.1.17-.19.34-.27.51l-1.84-.44c.08-.37.16-.82.25-1.35s.17-1.09.25-1.7c.08-.61.15-1.22.22-1.84.07-.62.13-1.22.18-1.8s.09-1.09.12-1.53l2.12.28ZM97.67,334.25c.45.13,1.03.28,1.74.44.71.16,1.45.32,2.22.47.77.15,1.51.29,2.2.4s1.26.19,1.7.23l-.46,1.94c-.4-.05-.87-.13-1.42-.23-.55-.1-1.13-.21-1.76-.33-.63-.12-1.24-.24-1.85-.36-.61-.12-1.16-.24-1.65-.36-.49-.12-.9-.22-1.22-.3l.5-1.9Z"/><path class="cls-1" d="M383.78,107.65c-38.65-14.96-81.17-15.13-119.92-.53,0,0,0,0,0,0,0,0,0,0,0,0-38.74-14.59-81.27-14.42-119.92.53-1.48.57-2.44,2.01-2.44,3.59v147.79c0,4.84,4.7,8.33,9.31,6.86,28.36-9.06,76.98-15.63,111.66,3.89.05.03.1.03.15.05.06.02.13.04.19.06.12.03.23.06.35.08.06.01.11.02.17.03.17.02.35.04.52.04,0,0,0,0,0,0h0s0,0,0,0c.17,0,.35-.02.52-.04.06,0,.11-.02.17-.03.12-.02.24-.05.35-.08.06-.02.13-.04.19-.06.05-.02.11-.02.15-.05,34.68-19.52,83.3-12.95,111.66-3.89,4.61,1.47,9.31-2.02,9.31-6.86V111.24c0-1.58-.97-3.02-2.44-3.59Z"/><path class="cls-2" d="M263.86,259.64c-34.53-13.35-72.94-14.55-108.16-3.6-5.13,1.6-10.33-2.27-10.33-7.65,0-45.72,0-91.44,0-137.16,37.93-14.67,80.56-14.67,118.49,0,0,49.47,0,98.93,0,148.4Z"/><path class="cls-2" d="M372.03,256.05c-35.23-10.95-73.64-9.75-108.16,3.6V111.24c37.94-14.67,80.56-14.67,118.49,0v137.16c0,5.37-5.2,9.24-10.33,7.65Z"/><path class="cls-3" d="M169.62,142.22c22.75-7.39,47.25-7.39,69.99,0"/><path class="cls-3" d="M169.62,172.06c22.75-7.39,47.25-7.39,69.99,0"/><path class="cls-3" d="M169.62,201.9c22.75-7.39,47.25-7.39,69.99,0"/><path class="cls-4" d="M313.31,210.17c-1.44,0-2.8-.56-3.82-1.58-2.1-2.1-2.1-5.53,0-7.63l2.88-2.88,2.35-24.38c.07-.69.37-1.34.87-1.83l75.37-75.37c.59-.59,1.35-.88,2.12-.88s1.54.29,2.12.88l26.38,26.38c1.17,1.17,1.17,3.07,0,4.24l-71.05,71.05-4.32,4.32c-.49.49-1.14.8-1.83.87l-24.39,2.36-2.88,2.88c-1.02,1.02-2.38,1.58-3.82,1.58Z"/><path class="cls-4" d="M393.08,98.61h0s26.38,26.38,26.38,26.38l-71.05,71.05-4.32,4.32-25.46,2.47-3.64,3.64c-.47.47-1.08.7-1.7.7s-1.23-.23-1.7-.7c-.94-.94-.94-2.45,0-3.39l3.64-3.64h0s2.46-25.45,2.46-25.45l7.54-7.54h0s67.83-67.83,67.83-67.83M393.08,92.61c-1.59,0-3.12.63-4.24,1.76l-67.83,67.83-7.54,7.54c-.98.98-1.6,2.28-1.73,3.67l-2.25,23.31-2.12,2.12c-1.59,1.59-2.46,3.69-2.46,5.94,0,2.24.87,4.35,2.46,5.94,1.59,1.59,3.7,2.46,5.94,2.46s4.35-.87,5.94-2.46l2.12-2.12,23.32-2.26c1.39-.13,2.68-.75,3.67-1.73l4.32-4.32,71.04-71.04c2.34-2.34,2.34-6.14,0-8.49l-26.38-26.38c-1.13-1.13-2.65-1.76-4.24-1.76h0Z"/><path class="cls-5" d="M315,198.28h0c1.32,0,2.4,1.07,2.4,2.4v7.19h-4.8v-7.19c0-1.32,1.07-2.4,2.4-2.4Z" transform="translate(394.15 569.41) rotate(-135)"/><polygon class="cls-9" points="351.63 192.82 344.1 200.36 318.64 202.83 315.25 199.43 317.71 173.98 325.25 166.44 351.63 192.82"/><rect class="cls-5" x="315.3" y="130.83" width="106.58" height="37.31" transform="translate(2.26 304.42) rotate(-45)"/><rect class="cls-8" x="305.41" y="134.93" width="106.58" height="9.33" transform="translate(6.36 294.52) rotate(-45)"/></g></svg>