<?xml version="1.0" encoding="UTF-8"?><svg id="_レイヤー_2" xmlns="http://www.w3.org/2000/svg" viewBox="0 0 248 84"><defs><style>.cls-1{fill:#ff8080;}.cls-1,.cls-2{stroke-width:0px;}.cls-2{fill:#fff;}</style></defs><g id="_ヘッダー"><path class="cls-2" d="M42,82.29C19.79,82.29,1.71,64.21,1.71,42S19.79,1.71,42,1.71h164c22.21,0,40.29,18.07,40.29,40.29s-18.07,40.29-40.29,40.29H42Z"/><path class="cls-1" d="M206,3.43c21.27,0,38.57,17.3,38.57,38.57s-17.3,38.57-38.57,38.57H42c-21.27,0-38.57-17.3-38.57-38.57S20.73,3.43,42,3.43h164M206,0H42C18.8,0,0,18.8,0,42h0c0,23.2,18.8,42,42,42h164c23.2,0,42-18.8,42-42h0c0-23.2-18.8-42-42-42h0Z"/><path class="cls-1" d="M71.01,39.34c1.3.43,2.61.77,3.94,1.01,1.33.24,2.65.4,3.96.49,1.31.08,2.56.13,3.76.13,1.1,0,2.3-.04,3.58-.11,1.28-.07,2.5-.18,3.65-.32l-.11,4.28c-1.01.1-2.04.17-3.1.23-1.06.06-2.15.09-3.28.09-2.4,0-4.7-.13-6.91-.38s-4.13-.61-5.76-1.06l.25-4.36ZM71.76,30.41c1.08.34,2.26.62,3.53.85,1.27.23,2.58.4,3.92.5,1.34.11,2.62.16,3.82.16,1.42,0,2.74-.05,3.96-.14,1.22-.1,2.29-.22,3.2-.36l-.14,4.28c-1.08.1-2.16.18-3.24.25-1.08.07-2.38.11-3.89.11-1.22,0-2.5-.07-3.82-.2-1.32-.13-2.63-.31-3.92-.54-1.3-.23-2.51-.49-3.64-.77l.22-4.14ZM84.61,25.94c-.14.65-.26,1.22-.36,1.73-.1.5-.18,1-.25,1.48-.1.5-.21,1.23-.34,2.18-.13.95-.28,2.02-.43,3.2-.16,1.19-.31,2.42-.47,3.71-.16,1.28-.31,2.54-.45,3.76-.14,1.22-.26,2.34-.34,3.35s-.13,1.81-.13,2.41c0,1.49.45,2.62,1.35,3.4.9.78,2.24,1.17,4.01,1.17,1.68,0,3.1-.23,4.25-.7,1.15-.47,2.03-1.1,2.63-1.89.6-.79.9-1.68.9-2.66,0-1.22-.32-2.42-.95-3.58-.64-1.16-1.55-2.3-2.75-3.4l5.08-1.08c1.2,1.51,2.08,2.95,2.65,4.3.56,1.36.85,2.8.85,4.34,0,1.8-.52,3.41-1.55,4.82-1.03,1.42-2.5,2.52-4.41,3.31s-4.18,1.19-6.82,1.19c-1.87,0-3.54-.29-5-.86s-2.6-1.49-3.42-2.74c-.82-1.25-1.22-2.87-1.22-4.86,0-.74.06-1.73.18-2.97s.27-2.6.45-4.1c.18-1.5.37-3.02.56-4.57.19-1.55.37-3.02.52-4.41.16-1.39.28-2.59.38-3.6.05-.84.08-1.48.09-1.93.01-.44,0-.87-.05-1.28l5.08.29Z"/><path class="cls-1" d="M131.59,34.87c-.58.34-1.16.65-1.75.95-.59.3-1.21.62-1.85.95-.74.36-1.6.79-2.57,1.28-.97.49-2,1.03-3.08,1.62s-2.17,1.23-3.28,1.93c-1.49.98-2.69,2-3.62,3.06-.92,1.06-1.39,2.22-1.39,3.49s.62,2.25,1.87,2.93c1.25.68,3.13,1.03,5.65,1.03,1.22,0,2.54-.05,3.96-.16,1.42-.11,2.8-.26,4.16-.47,1.36-.2,2.56-.43,3.62-.67l-.07,5.15c-1.01.19-2.11.36-3.29.5-1.19.14-2.47.25-3.83.32-1.37.07-2.84.11-4.43.11-1.78,0-3.43-.14-4.97-.43s-2.87-.74-4.01-1.37c-1.14-.62-2.03-1.46-2.66-2.52-.64-1.06-.95-2.36-.95-3.92s.34-2.89,1.01-4.14,1.58-2.4,2.74-3.46c1.15-1.06,2.44-2.05,3.85-2.99,1.15-.74,2.3-1.43,3.44-2.07,1.14-.64,2.22-1.22,3.24-1.76,1.02-.54,1.89-1.03,2.61-1.46.67-.38,1.28-.74,1.82-1.08.54-.33,1.04-.7,1.49-1.08l2.3,4.25ZM114.6,26.63c.58,1.58,1.19,3.11,1.85,4.59.66,1.48,1.32,2.85,1.98,4.12s1.27,2.4,1.82,3.38l-4.07,2.41c-.65-1.1-1.32-2.34-2.02-3.71-.7-1.37-1.39-2.81-2.07-4.34-.68-1.52-1.36-3.07-2.03-4.63l4.54-1.84ZM131.99,26.09c.31.43.65.95,1.01,1.55.36.6.7,1.2,1.03,1.8.32.6.61,1.13.85,1.58l-2.92,1.22c-.36-.74-.8-1.59-1.31-2.54-.52-.95-1.01-1.77-1.49-2.47l2.84-1.15ZM136.27,24.43c.31.46.65.99,1.01,1.6.36.61.71,1.21,1.06,1.8.35.59.63,1.1.85,1.53l-2.88,1.22c-.36-.77-.81-1.62-1.35-2.56-.54-.94-1.06-1.74-1.57-2.41l2.88-1.19Z"/><path class="cls-1" d="M147.65,27.35c.5.07,1.04.12,1.62.14.58.02,1.13.04,1.66.04.38,0,.96,0,1.73-.02.77-.01,1.64-.03,2.61-.05.97-.02,1.94-.05,2.9-.07.96-.02,1.83-.05,2.61-.09.78-.04,1.39-.07,1.82-.09.74-.07,1.33-.14,1.76-.2.43-.06.76-.13.97-.2l2.34,3.2c-.41.26-.83.53-1.26.79-.43.26-.85.55-1.26.86-.48.34-1.06.77-1.73,1.31-.67.54-1.39,1.11-2.14,1.71-.76.6-1.49,1.19-2.2,1.76-.71.58-1.35,1.09-1.93,1.55.6-.14,1.18-.25,1.73-.31.55-.06,1.12-.09,1.69-.09,2.04,0,3.87.4,5.49,1.19s2.9,1.87,3.85,3.22c.95,1.36,1.42,2.91,1.42,4.66,0,1.9-.48,3.61-1.44,5.15-.96,1.54-2.41,2.76-4.34,3.67-1.93.91-4.35,1.37-7.25,1.37-1.66,0-3.15-.24-4.48-.72-1.33-.48-2.38-1.16-3.15-2.05-.77-.89-1.15-1.93-1.15-3.13,0-.98.27-1.9.81-2.75s1.3-1.54,2.27-2.07c.97-.53,2.09-.79,3.37-.79,1.66,0,3.05.33,4.19.99,1.14.66,2.02,1.54,2.63,2.65.61,1.1.93,2.32.95,3.64l-4.21.58c-.02-1.32-.35-2.38-.99-3.19-.64-.8-1.48-1.21-2.54-1.21-.67,0-1.21.17-1.62.52-.41.35-.61.75-.61,1.21,0,.67.34,1.21,1.01,1.62.67.41,1.55.61,2.63.61,2.04,0,3.74-.25,5.11-.74,1.37-.49,2.39-1.2,3.08-2.12.68-.92,1.03-2.02,1.03-3.29,0-1.08-.33-2.03-.99-2.84-.66-.82-1.55-1.45-2.68-1.91-1.13-.46-2.4-.68-3.82-.68s-2.66.17-3.82.52c-1.15.35-2.24.84-3.26,1.48-1.02.64-2.02,1.4-2.99,2.3-.97.9-1.94,1.9-2.9,3.01l-3.28-3.38c.65-.53,1.38-1.12,2.2-1.78.82-.66,1.65-1.35,2.5-2.07.85-.72,1.66-1.4,2.41-2.03s1.4-1.17,1.93-1.6c.5-.41,1.09-.89,1.76-1.44s1.37-1.12,2.09-1.71c.72-.59,1.4-1.15,2.05-1.69.65-.54,1.19-1,1.62-1.39-.36,0-.83.01-1.4.04-.58.02-1.21.05-1.89.07-.68.02-1.37.05-2.05.07-.68.02-1.32.05-1.91.09-.59.04-1.08.07-1.46.09-.48.02-.98.06-1.51.11s-1.01.11-1.44.18l-.14-4.68Z"/></g></svg>