<?xml version="1.0" encoding="UTF-8"?><svg id="_レイヤー_2" xmlns="http://www.w3.org/2000/svg" viewBox="0 0 768 80"><defs><style>.cls-1{fill:none;}.cls-1,.cls-2{stroke-width:0px;}.cls-2{fill:#333;}</style></defs><g id="_2"><path class="cls-2" d="M77.52,37.85h33.04v20.08h-5.04v-15.36h-23.2v15.56h-4.8v-20.28ZM80,51.21h28.32v4.72h-28.32v-4.72ZM91.36,30.89h5.08v37.56h-5.08V30.89Z"/><path class="cls-2" d="M123.52,45.21l4.68.96c-.19,1.84-.44,3.72-.76,5.64-.32,1.92-.76,3.74-1.32,5.46-.56,1.72-1.29,3.23-2.2,4.54l-4.48-2.6c.8-1.15,1.47-2.47,2-3.96.53-1.49.97-3.09,1.32-4.8s.6-3.45.76-5.24ZM130.72,42.37h5v19.08c0,.99.13,1.61.38,1.86.25.25.86.38,1.82.38h5.48c.64,0,1.13-.19,1.46-.58.33-.39.58-1.13.74-2.22.16-1.09.28-2.68.36-4.76.56.43,1.28.83,2.16,1.22.88.39,1.65.67,2.32.86-.16,2.48-.46,4.45-.88,5.9-.43,1.45-1.09,2.48-2,3.08s-2.17.9-3.8.9h-6.48c-1.71,0-3.03-.21-3.98-.62-.95-.41-1.61-1.1-2-2.06s-.58-2.28-.58-3.96v-19.08ZM130.84,34.77l3.12-3.72c1.6.56,3.23,1.24,4.88,2.04,1.65.8,3.23,1.63,4.72,2.48,1.49.85,2.77,1.68,3.84,2.48l-3.16,4.2c-1.04-.85-2.3-1.74-3.78-2.66-1.48-.92-3.05-1.81-4.72-2.66-1.67-.85-3.3-1.57-4.9-2.16ZM146.52,45.81l4.4-2.16c1.15,1.47,2.21,3.05,3.2,4.76.99,1.71,1.83,3.4,2.54,5.08.71,1.68,1.22,3.21,1.54,4.6l-4.84,2.4c-.27-1.36-.73-2.9-1.4-4.62-.67-1.72-1.47-3.46-2.4-5.22-.93-1.76-1.95-3.37-3.04-4.84Z"/><path class="cls-2" d="M182.44,37.49c-.27,2.03-.61,4.19-1.04,6.48-.43,2.29-1,4.61-1.72,6.96-.77,2.69-1.68,5.01-2.72,6.96-1.04,1.95-2.18,3.45-3.42,4.5-1.24,1.05-2.59,1.58-4.06,1.58s-2.82-.5-4.06-1.5c-1.24-1-2.23-2.38-2.96-4.14-.73-1.76-1.1-3.76-1.1-6s.47-4.51,1.4-6.56c.93-2.05,2.23-3.87,3.9-5.46,1.67-1.59,3.61-2.83,5.84-3.74,2.23-.91,4.63-1.36,7.22-1.36s4.71.4,6.7,1.2c1.99.8,3.69,1.91,5.1,3.32,1.41,1.41,2.49,3.07,3.24,4.96.75,1.89,1.12,3.93,1.12,6.12,0,2.8-.57,5.31-1.72,7.52-1.15,2.21-2.85,4.04-5.1,5.48-2.25,1.44-5.06,2.43-8.42,2.96l-3-4.76c.77-.08,1.45-.17,2.04-.28.59-.11,1.15-.23,1.68-.36,1.28-.32,2.47-.78,3.58-1.38,1.11-.6,2.07-1.35,2.9-2.24.83-.89,1.47-1.94,1.94-3.14.47-1.2.7-2.52.7-3.96,0-1.57-.24-3.01-.72-4.32-.48-1.31-1.19-2.45-2.12-3.42s-2.07-1.72-3.4-2.24c-1.33-.52-2.87-.78-4.6-.78-2.13,0-4.01.38-5.64,1.14-1.63.76-3,1.74-4.12,2.94-1.12,1.2-1.97,2.49-2.54,3.88s-.86,2.71-.86,3.96c0,1.33.16,2.45.48,3.34.32.89.71,1.56,1.18,2,.47.44.97.66,1.5.66.56,0,1.11-.29,1.66-.86.55-.57,1.09-1.45,1.62-2.62.53-1.17,1.07-2.65,1.6-4.44.61-1.92,1.13-3.97,1.56-6.16.43-2.19.73-4.32.92-6.4l5.44.16Z"/><path class="cls-2" d="M199.68,57.09c1.04-.37,2.25-.84,3.62-1.4,1.37-.56,2.83-1.17,4.38-1.82,1.55-.65,3.08-1.31,4.6-1.98l1.04,4.12c-2,1.04-4.04,2.08-6.12,3.12-2.08,1.04-3.99,1.99-5.72,2.84l-1.8-4.88ZM200.6,39.33h12.2v4.52h-12.2v-4.52ZM204.64,31.41h4.48v24.88h-4.48v-24.88ZM218.16,48.53l4.12,1.04c-.99,2.29-2.33,4.41-4.02,6.34-1.69,1.93-3.49,3.53-5.38,4.78-.24-.27-.55-.59-.94-.98-.39-.39-.79-.75-1.2-1.1-.41-.35-.78-.63-1.1-.84,1.87-1.01,3.55-2.33,5.06-3.94,1.51-1.61,2.66-3.38,3.46-5.3ZM221.72,53.81l3.12,1.84c-.67,1.39-1.54,2.79-2.62,4.2-1.08,1.41-2.26,2.73-3.54,3.96-1.28,1.23-2.56,2.24-3.84,3.04-.37-.48-.85-.99-1.42-1.52s-1.14-.97-1.7-1.32c1.31-.67,2.61-1.55,3.9-2.64,1.29-1.09,2.47-2.3,3.54-3.62,1.07-1.32,1.92-2.63,2.56-3.94ZM212.28,47.05h25.36v4.04h-25.36v-4.04ZM215.8,31.93h19.04v13.6h-19.04v-13.6ZM216.64,52.97h16.44v3.8h-16.44v-3.8ZM227.76,53.77l3.24,1.76c-.48,1.6-1.16,3.23-2.04,4.9-.88,1.67-1.87,3.22-2.96,4.66-1.09,1.44-2.24,2.62-3.44,3.56-.4-.45-.92-.93-1.56-1.44-.64-.51-1.27-.92-1.88-1.24,1.31-.83,2.52-1.89,3.64-3.2s2.11-2.75,2.98-4.32c.87-1.57,1.54-3.13,2.02-4.68ZM220.08,35.25v1.88h10.32v-1.88h-10.32ZM220.08,40.29v1.92h10.32v-1.92h-10.32ZM232.36,52.97h4.44c-.03.83-.07,1.39-.12,1.68-.16,2.59-.35,4.71-.58,6.38s-.47,2.96-.74,3.88c-.27.92-.59,1.58-.96,1.98-.37.45-.78.77-1.22.96-.44.19-.93.32-1.46.4-.45.05-1.03.09-1.74.12-.71.03-1.47.01-2.3-.04-.03-.56-.13-1.21-.32-1.94-.19-.73-.44-1.34-.76-1.82.64.05,1.21.09,1.72.1.51.01.89.02,1.16.02s.49-.03.66-.08c.17-.05.34-.17.5-.36.24-.27.46-.78.66-1.54s.39-1.87.56-3.34c.17-1.47.34-3.37.5-5.72v-.68Z"/><path class="cls-2" d="M242.2,40.25h4.56v10.24c0,1.33-.04,2.79-.12,4.38-.08,1.59-.25,3.19-.52,4.82-.27,1.63-.64,3.2-1.12,4.72s-1.11,2.89-1.88,4.12c-.24-.29-.6-.63-1.08-1-.48-.37-.97-.73-1.46-1.08-.49-.35-.9-.61-1.22-.8.88-1.44,1.52-3.04,1.92-4.82.4-1.77.65-3.56.76-5.36.11-1.8.16-3.47.16-5.02v-10.2ZM240.92,32.89h17.76v4.32h-17.76v-4.32ZM244.84,40.25h13.04v13.64h-13.04v-4.28h8.4v-5.08h-8.4v-4.28ZM260.08,34.49l5.76,1.32c-.05.4-.41.65-1.08.76v9.08c0,1.63-.08,3.42-.24,5.38-.16,1.96-.49,3.97-.98,6.04-.49,2.07-1.23,4.07-2.2,6.02-.97,1.95-2.26,3.72-3.86,5.32-.19-.35-.49-.73-.92-1.16-.43-.43-.87-.83-1.34-1.22s-.89-.67-1.26-.86c1.39-1.41,2.49-2.95,3.3-4.6s1.43-3.35,1.84-5.08.68-3.45.8-5.14c.12-1.69.18-3.29.18-4.78v-11.08ZM273.24,31.29l4.2,3.6c-1.41.69-2.96,1.34-4.64,1.94s-3.39,1.14-5.12,1.62-3.43.92-5.08,1.32c-.11-.56-.33-1.22-.66-1.98-.33-.76-.65-1.38-.94-1.86,1.49-.4,2.99-.84,4.5-1.32,1.51-.48,2.93-1.01,4.28-1.58,1.35-.57,2.5-1.15,3.46-1.74ZM261.96,44.45h15.72v4.64h-15.72v-4.64ZM269.36,47.69h4.72v20.8h-4.72v-20.8Z"/><path class="cls-2" d="M298.24,32.81c-.13.72-.35,1.65-.64,2.8s-.72,2.44-1.28,3.88c-.43.99-.91,2.01-1.46,3.06-.55,1.05-1.1,1.99-1.66,2.82.35-.16.79-.3,1.32-.42.53-.12,1.09-.21,1.66-.28.57-.07,1.09-.1,1.54-.1,1.68,0,3.07.48,4.18,1.44,1.11.96,1.66,2.39,1.66,4.28,0,.53,0,1.19.02,1.96.01.77.03,1.58.06,2.42.03.84.05,1.66.08,2.46.03.8.04,1.52.04,2.16h-4.8c.05-.45.09-.99.1-1.62.01-.63.03-1.29.04-1.98.01-.69.03-1.37.04-2.02s.02-1.25.02-1.78c0-1.28-.34-2.17-1.02-2.66-.68-.49-1.43-.74-2.26-.74-1.12,0-2.25.27-3.38.82-1.13.55-2.09,1.19-2.86,1.94-.59.59-1.18,1.24-1.78,1.96-.6.72-1.25,1.53-1.94,2.44l-4.28-3.2c1.73-1.6,3.23-3.15,4.5-4.64,1.27-1.49,2.34-2.97,3.22-4.44.88-1.47,1.6-2.93,2.16-4.4.4-1.07.73-2.18.98-3.34.25-1.16.41-2.25.46-3.26l5.28.44ZM283.2,36.49c1.01.16,2.19.28,3.52.36,1.33.08,2.51.12,3.52.12,1.76,0,3.69-.04,5.78-.12,2.09-.08,4.22-.22,6.38-.42,2.16-.2,4.21-.46,6.16-.78l-.04,4.64c-1.41.19-2.94.35-4.58.5-1.64.15-3.31.27-5,.36-1.69.09-3.31.16-4.86.2-1.55.04-2.92.06-4.12.06-.53,0-1.19,0-1.98-.02-.79-.01-1.59-.04-2.42-.08-.83-.04-1.61-.09-2.36-.14v-4.68ZM314.88,47.85c-.43.13-.93.3-1.5.5-.57.2-1.15.4-1.72.6-.57.2-1.09.39-1.54.58-1.28.51-2.79,1.12-4.54,1.84-1.75.72-3.57,1.56-5.46,2.52-1.2.64-2.21,1.27-3.04,1.88-.83.61-1.45,1.23-1.88,1.86-.43.63-.64,1.31-.64,2.06,0,.56.12,1.02.36,1.38.24.36.6.65,1.08.86.48.21,1.08.36,1.8.44s1.57.12,2.56.12c1.71,0,3.59-.1,5.64-.3,2.05-.2,3.96-.47,5.72-.82l-.16,5.16c-.85.11-1.93.22-3.24.34s-2.66.21-4.06.26c-1.4.05-2.74.08-4.02.08-2.08,0-3.95-.2-5.6-.6-1.65-.4-2.95-1.09-3.9-2.06-.95-.97-1.42-2.31-1.42-4.02,0-1.39.31-2.64.94-3.76.63-1.12,1.46-2.13,2.5-3.04,1.04-.91,2.18-1.73,3.42-2.46,1.24-.73,2.46-1.41,3.66-2.02,1.23-.64,2.33-1.19,3.32-1.64s1.91-.86,2.78-1.22c.87-.36,1.7-.73,2.5-1.1.77-.35,1.52-.69,2.24-1.02s1.45-.69,2.2-1.06l2,4.64Z"/><path class="cls-2" d="M319.92,45.53l2.56-3.64c.85.29,1.75.65,2.68,1.08.93.43,1.83.88,2.68,1.36.85.48,1.55.95,2.08,1.4l-2.76,4c-.48-.45-1.13-.94-1.96-1.46-.83-.52-1.7-1.02-2.62-1.5-.92-.48-1.81-.89-2.66-1.24ZM321.04,64.93c.67-1.04,1.41-2.26,2.24-3.66.83-1.4,1.66-2.89,2.5-4.46.84-1.57,1.62-3.15,2.34-4.72l3.68,3c-.67,1.41-1.37,2.87-2.1,4.36-.73,1.49-1.47,2.95-2.22,4.36-.75,1.41-1.49,2.79-2.24,4.12l-4.2-3ZM322.24,34.61l2.6-3.52c.83.32,1.7.71,2.62,1.16.92.45,1.8.92,2.64,1.4.84.48,1.51.96,2.02,1.44l-2.76,3.92c-.48-.48-1.12-.99-1.92-1.52-.8-.53-1.66-1.05-2.58-1.56-.92-.51-1.79-.95-2.62-1.32ZM340.08,30.93h4.8v14c0,2.16-.12,4.33-.36,6.52-.24,2.19-.74,4.31-1.5,6.38-.76,2.07-1.91,4.01-3.46,5.84-1.55,1.83-3.63,3.47-6.24,4.94-.29-.35-.67-.73-1.14-1.16-.47-.43-.95-.85-1.46-1.26-.51-.41-.97-.74-1.4-.98,2.45-1.31,4.4-2.74,5.84-4.3,1.44-1.56,2.51-3.21,3.22-4.96.71-1.75,1.17-3.55,1.38-5.42.21-1.87.32-3.75.32-5.64v-13.96ZM331.44,48.85h26.12v4.48h-26.12v-4.48ZM333.4,37.05h21.16v13.72h-4.72v-9.2h-16.44v-4.52ZM347.08,51.37c.85,2.91,2.19,5.51,4.02,7.8,1.83,2.29,4.13,4.03,6.9,5.2-.37.29-.77.69-1.2,1.18-.43.49-.83,1.01-1.22,1.54-.39.53-.7,1.03-.94,1.48-3.09-1.52-5.6-3.66-7.52-6.42-1.92-2.76-3.41-5.99-4.48-9.7l4.44-1.08Z"/><path class="cls-2" d="M386.76,33.53c-.08.35-.18.77-.3,1.28-.12.51-.23,1.01-.34,1.52-.11.51-.2.92-.28,1.24-.43,1.79-.91,3.61-1.44,5.46s-1.13,3.69-1.8,5.5-1.41,3.51-2.22,5.08c-.81,1.57-1.71,2.97-2.7,4.2-1.2,1.55-2.33,2.81-3.38,3.8-1.05.99-2.1,1.71-3.14,2.18-1.04.47-2.17.7-3.4.7-1.09,0-2.13-.3-3.1-.9-.97-.6-1.76-1.49-2.36-2.68s-.9-2.65-.9-4.38.33-3.57.98-5.34c.65-1.77,1.56-3.42,2.72-4.94,1.16-1.52,2.53-2.79,4.1-3.8,2.13-1.39,4.23-2.36,6.28-2.92s4.15-.84,6.28-.84c2.77,0,5.23.58,7.36,1.74,2.13,1.16,3.8,2.78,5,4.86,1.2,2.08,1.8,4.52,1.8,7.32s-.62,5.22-1.86,7.26-2.94,3.67-5.1,4.88c-2.16,1.21-4.63,2.03-7.4,2.46l-3.08-4.64c2.21-.19,4.1-.59,5.66-1.2s2.83-1.39,3.8-2.32c.97-.93,1.69-1.97,2.14-3.12s.68-2.35.68-3.6c0-1.81-.39-3.41-1.18-4.78-.79-1.37-1.89-2.45-3.3-3.24-1.41-.79-3.08-1.18-5-1.18-2.11,0-3.99.34-5.64,1.02-1.65.68-3.17,1.53-4.56,2.54-1.04.75-1.93,1.65-2.68,2.7-.75,1.05-1.32,2.17-1.72,3.34-.4,1.17-.6,2.31-.6,3.4,0,.96.21,1.73.62,2.32.41.59.97.88,1.66.88.51,0,1.03-.15,1.56-.46.53-.31,1.07-.72,1.6-1.24.53-.52,1.07-1.13,1.6-1.82.53-.69,1.07-1.43,1.6-2.2.75-1.15,1.45-2.43,2.12-3.84.67-1.41,1.27-2.89,1.82-4.44.55-1.55,1.01-3.05,1.38-4.5.37-1.45.67-2.79.88-4.02.13-.59.22-1.25.26-2,.04-.75.06-1.35.06-1.8l5.52.52ZM369.88,34.85c.13.67.27,1.32.42,1.96.15.64.3,1.27.46,1.88.29,1.09.64,2.27,1.04,3.54.4,1.27.83,2.53,1.3,3.78.47,1.25.94,2.41,1.42,3.46.48,1.05.96,1.95,1.44,2.7.69,1.07,1.48,2.18,2.36,3.34.88,1.16,1.79,2.19,2.72,3.1l-4.04,3.2c-.8-.88-1.51-1.73-2.14-2.54-.63-.81-1.27-1.73-1.94-2.74-.59-.91-1.18-1.96-1.78-3.16s-1.19-2.51-1.76-3.92c-.57-1.41-1.12-2.87-1.64-4.36-.52-1.49-1.02-2.97-1.5-4.44-.21-.72-.45-1.41-.7-2.08-.25-.67-.55-1.36-.9-2.08l5.24-1.64Z"/><path class="cls-2" d="M422.68,32.53c-.05.4-.1.85-.14,1.34-.04.49-.07.99-.1,1.5-.03.53-.05,1.25-.08,2.14-.03.89-.04,1.87-.04,2.94v6c0,1.12.03,2.37.08,3.74.05,1.37.13,2.76.22,4.16.09,1.4.17,2.71.24,3.92.07,1.21.1,2.22.1,3.02,0,1.12-.29,2.14-.88,3.06-.59.92-1.46,1.65-2.62,2.18s-2.62.8-4.38.8c-3.2,0-5.63-.59-7.28-1.76-1.65-1.17-2.48-2.81-2.48-4.92,0-1.36.39-2.55,1.18-3.58.79-1.03,1.92-1.83,3.4-2.42,1.48-.59,3.25-.88,5.3-.88,2.19,0,4.23.23,6.14.7,1.91.47,3.65,1.07,5.22,1.82,1.57.75,2.97,1.53,4.2,2.36,1.23.83,2.27,1.57,3.12,2.24l-2.88,4.48c-.96-.91-2.03-1.8-3.22-2.68-1.19-.88-2.48-1.68-3.88-2.4-1.4-.72-2.88-1.3-4.44-1.74-1.56-.44-3.21-.66-4.94-.66-1.39,0-2.46.24-3.22.72s-1.14,1.07-1.14,1.76c0,.51.16.95.48,1.32s.79.65,1.4.84,1.39.28,2.32.28c.72,0,1.34-.08,1.86-.24.52-.16.93-.45,1.22-.88.29-.43.44-1.03.44-1.8,0-.59-.02-1.43-.06-2.52-.04-1.09-.09-2.3-.14-3.62-.05-1.32-.11-2.62-.16-3.9-.05-1.28-.08-2.41-.08-3.4s0-1.97.02-3.02c.01-1.05.02-2.1.02-3.14s0-1.99.02-2.86c.01-.87.02-1.58.02-2.14,0-.37-.02-.83-.06-1.38-.04-.55-.1-1.01-.18-1.38h5.4ZM405.88,44.93c.64.11,1.4.21,2.28.32.88.11,1.78.19,2.7.24s1.79.1,2.62.14c.83.04,1.51.06,2.04.06,2.48,0,4.73-.05,6.74-.16,2.01-.11,3.9-.24,5.66-.4,1.76-.16,3.45-.35,5.08-.56l-.04,4.72c-1.39.16-2.73.29-4.02.4-1.29.11-2.61.2-3.96.28s-2.79.13-4.34.16c-1.55.03-3.28.04-5.2.04-.77,0-1.73-.02-2.88-.06-1.15-.04-2.31-.1-3.5-.18s-2.23-.17-3.14-.28l-.04-4.72ZM406.08,36.29c.72.11,1.52.21,2.4.32.88.11,1.78.21,2.7.3.92.09,1.79.16,2.62.2.83.04,1.55.06,2.16.06,2.72,0,5.43-.09,8.14-.26,2.71-.17,5.51-.5,8.42-.98l-.04,4.6c-1.36.19-2.93.36-4.72.52s-3.69.29-5.7.38-4.03.14-6.06.14c-.83,0-1.85-.03-3.06-.1-1.21-.07-2.42-.16-3.62-.28-1.2-.12-2.24-.23-3.12-.34l-.12-4.56Z"/><path class="cls-2" d="M442.32,37.61c1.17,0,2.51-.01,4-.04,1.49-.03,3.05-.05,4.68-.08,1.63-.03,3.23-.05,4.8-.08,1.57-.03,3.05-.05,4.44-.06s2.59-.02,3.6-.02,2.12,0,3.32-.02c1.2-.01,2.39-.02,3.56-.02h5.48l-.04,4.72c-1.25-.05-2.91-.1-4.96-.14-2.05-.04-4.56-.06-7.52-.06-1.81,0-3.65.02-5.52.06-1.87.04-3.72.09-5.56.14-1.84.05-3.61.11-5.32.18-1.71.07-3.32.15-4.84.26l-.12-4.84ZM463.96,49.45c0,2.19-.26,4-.78,5.44-.52,1.44-1.3,2.53-2.34,3.26-1.04.73-2.33,1.1-3.88,1.1-.75,0-1.53-.16-2.34-.48-.81-.32-1.57-.79-2.26-1.4-.69-.61-1.25-1.37-1.66-2.28-.41-.91-.62-1.97-.62-3.2,0-1.52.36-2.83,1.08-3.94.72-1.11,1.69-1.97,2.9-2.6s2.55-.94,4.02-.94c1.76,0,3.23.39,4.42,1.18,1.19.79,2.08,1.85,2.68,3.18s.9,2.84.9,4.52c0,1.31-.21,2.67-.64,4.08-.43,1.41-1.13,2.79-2.1,4.14-.97,1.35-2.28,2.57-3.92,3.66s-3.69,1.99-6.14,2.68l-4.28-4.24c1.71-.35,3.29-.8,4.76-1.36,1.47-.56,2.75-1.27,3.86-2.12,1.11-.85,1.97-1.91,2.6-3.16.63-1.25.94-2.76.94-4.52,0-1.28-.31-2.24-.94-2.88s-1.38-.96-2.26-.96c-.51,0-1,.12-1.48.36-.48.24-.87.6-1.16,1.08-.29.48-.44,1.07-.44,1.76,0,.91.31,1.63.94,2.18.63.55,1.34.82,2.14.82.64,0,1.21-.2,1.7-.6.49-.4.82-1.07.98-2s.03-2.19-.4-3.76l3.72,1ZM464.92,32.65c-.03.21-.06.55-.1,1.02-.04.47-.07.93-.1,1.4-.03.47-.05.81-.08,1.02-.03.53-.04,1.25-.04,2.14v2.98c0,1.09,0,2.19.02,3.3.01,1.11.03,2.15.04,3.12.01.97.02,1.78.02,2.42l-5-1.68v-4.78c0-1,0-1.99-.02-2.98s-.03-1.88-.06-2.68c-.03-.8-.05-1.4-.08-1.8-.05-.83-.12-1.55-.2-2.18s-.15-1.06-.2-1.3h5.8Z"/><path class="cls-2" d="M486.52,54.97c1.23,0,2.32.29,3.28.88.96.59,1.73,1.37,2.32,2.34.59.97.88,2.06.88,3.26s-.29,2.25-.88,3.24c-.59.99-1.36,1.77-2.32,2.36s-2.05.88-3.28.88-2.25-.29-3.24-.88c-.99-.59-1.77-1.37-2.34-2.36-.57-.99-.86-2.07-.86-3.24s.29-2.29.86-3.26c.57-.97,1.35-1.75,2.34-2.34.99-.59,2.07-.88,3.24-.88ZM486.56,65.05c.99,0,1.83-.35,2.52-1.06s1.04-1.55,1.04-2.54c0-.67-.16-1.27-.48-1.82-.32-.55-.75-.98-1.3-1.3-.55-.32-1.14-.48-1.78-.48s-1.27.16-1.8.48c-.53.32-.97.75-1.3,1.3-.33.55-.5,1.15-.5,1.82s.17,1.27.5,1.82c.33.55.77.98,1.3,1.3.53.32,1.13.48,1.8.48Z"/><path class="cls-2" d="M67.92,8.55c.57.09,1.22.17,1.94.24.72.07,1.39.1,2,.1s1.35-.02,2.13-.06c.78-.04,1.6-.1,2.45-.18.85-.08,1.71-.18,2.57-.31s1.69-.28,2.49-.45l.04,1.92c-.68.11-1.43.21-2.26.32-.83.11-1.67.2-2.54.29-.87.09-1.72.15-2.56.2-.84.05-1.61.07-2.3.07s-1.41-.02-2.08-.05c-.67-.03-1.29-.08-1.88-.13v-1.96ZM74.46,6.09c-.09.29-.17.6-.23.92-.06.32-.12.63-.19.92-.05.32-.13.7-.22,1.15-.09.45-.2.93-.31,1.44-.11.51-.23,1.03-.35,1.55-.12.52-.25,1.02-.38,1.49-.13.47-.27.9-.4,1.27.85-.53,1.71-.92,2.58-1.15.87-.23,1.79-.35,2.76-.35,1.08,0,2,.17,2.77.51.77.34,1.36.82,1.79,1.43.43.61.64,1.33.64,2.16,0,1.07-.26,1.97-.77,2.72-.51.75-1.24,1.33-2.17,1.75s-2.04.69-3.33.81-2.72.1-4.29-.06l-.54-2.02c1.13.16,2.24.23,3.31.22,1.07-.01,2.04-.14,2.89-.37.85-.23,1.53-.6,2.04-1.09.51-.49.76-1.13.76-1.92,0-.68-.28-1.26-.85-1.73s-1.39-.71-2.47-.71c-1.17,0-2.27.2-3.28.6-1.01.4-1.84.99-2.48,1.78-.11.15-.21.29-.3.43-.09.14-.19.3-.28.47l-1.88-.66c.39-.75.74-1.58,1.06-2.5.32-.92.6-1.85.85-2.79.25-.94.45-1.81.61-2.61.16-.8.27-1.45.32-1.96.05-.36.09-.68.11-.95s.02-.56,0-.85l2.24.1Z"/><path class="cls-2" d="M89.71,10.43c-.05.15-.1.31-.14.48-.04.17-.08.32-.12.44-.05.24-.11.53-.17.87-.06.34-.12.7-.17,1.08-.05.38-.09.76-.12,1.13-.03.37-.04.71-.04,1,.44-.88,1.01-1.62,1.71-2.23.7-.61,1.48-1.07,2.33-1.38s1.71-.47,2.58-.47c1.12,0,2.07.2,2.84.61.77.41,1.36.95,1.75,1.64.39.69.59,1.46.59,2.31,0,.92-.19,1.77-.58,2.56-.39.79-.97,1.41-1.75,1.88-.78.47-1.77.7-2.97.7-.64,0-1.27-.11-1.88-.34-.61-.23-1.17-.56-1.68-1.01s-.93-1-1.26-1.67l1.04-1.44c.39.79.88,1.42,1.49,1.89.61.47,1.36.71,2.25.71.81,0,1.48-.14,1.99-.42.51-.28.89-.66,1.14-1.15.25-.49.37-1.04.37-1.67,0-.55-.11-1.04-.34-1.49-.23-.45-.59-.8-1.09-1.07-.5-.27-1.16-.4-1.99-.4s-1.65.15-2.35.45c-.7.3-1.31.69-1.84,1.18-.53.49-.95,1.02-1.28,1.61-.33.59-.54,1.16-.65,1.72-.03.13-.05.28-.07.43s-.03.32-.03.49c.01.11.03.27.05.48.02.21.05.43.08.65.03.22.06.4.09.53l-1.7.24c-.16-.53-.3-1.19-.41-1.98-.11-.79-.17-1.58-.17-2.38,0-.49.02-1,.05-1.51s.07-1.01.12-1.49.09-.91.14-1.29.08-.69.11-.93c.03-.16.04-.32.04-.49s0-.3-.02-.41l2.06.14ZM95.51,9.41c.08.4.16.92.24,1.55.08.63.15,1.34.21,2.11.06.77.09,1.57.09,2.38,0,1.09-.1,2.15-.29,3.17s-.54,1.96-1.03,2.81c-.49.85-1.19,1.59-2.1,2.2l-1.72-1.02c.69-.4,1.26-.87,1.69-1.4.43-.53.77-1.12,1.02-1.75.25-.63.42-1.3.51-2,.09-.7.14-1.42.14-2.17,0-1.08-.05-2.03-.14-2.86-.09-.83-.19-1.48-.28-1.96-.04-.19-.09-.36-.14-.52-.05-.16-.11-.33-.16-.5l1.96-.04Z"/><path class="cls-2" d="M115.31,15.27c0-.52-.13-.98-.39-1.38-.26-.4-.63-.72-1.11-.95-.48-.23-1.05-.35-1.7-.35-.76,0-1.48.06-2.15.18-.67.12-1.28.26-1.83.42-.55.16-1.01.29-1.38.4-.29.08-.6.18-.92.3-.32.12-.61.23-.86.34l-.62-2.28c.31-.03.64-.07.99-.13.35-.06.68-.12.99-.19.49-.12,1.06-.25,1.69-.39.63-.14,1.32-.27,2.06-.38s1.5-.17,2.27-.17c1,0,1.89.18,2.66.54.77.36,1.38.89,1.82,1.58.44.69.66,1.54.66,2.54,0,1.08-.23,2.05-.69,2.9-.46.85-1.11,1.6-1.94,2.23s-1.82,1.16-2.95,1.57c-1.13.41-2.37.72-3.7.92l-1.14-1.94c1.23-.15,2.34-.37,3.35-.68,1.01-.31,1.88-.69,2.61-1.16.73-.47,1.3-1.03,1.69-1.68.39-.65.59-1.4.59-2.24ZM107.13,5.99c.57.12,1.25.24,2.03.35.78.11,1.59.21,2.43.29.84.08,1.63.15,2.38.2.75.05,1.37.08,1.88.08l-.32,1.94c-.56-.04-1.22-.09-1.98-.15s-1.55-.13-2.37-.22c-.82-.09-1.61-.18-2.36-.28s-1.42-.2-1.99-.29l.3-1.92Z"/><path class="cls-2" d="M128.05,6.17c-.05.36-.1.74-.14,1.15s-.07.79-.08,1.15c-.03.55-.05,1.22-.08,2.03s-.05,1.66-.08,2.56c-.03.9-.05,1.79-.06,2.66s-.02,1.66-.02,2.35.13,1.27.39,1.68c.26.41.62.71,1.09.89.47.18.99.27,1.56.27.88,0,1.67-.11,2.38-.34.71-.23,1.34-.53,1.91-.92.57-.39,1.08-.83,1.53-1.32.45-.49.86-1.01,1.22-1.54l1.42,1.74c-.33.48-.75.98-1.26,1.5s-1.11,1.01-1.81,1.46c-.7.45-1.5.82-2.4,1.1-.9.28-1.91.42-3.03.42-1.01,0-1.9-.15-2.66-.46-.76-.31-1.35-.8-1.78-1.48s-.64-1.57-.64-2.68c0-.57,0-1.22.02-1.94s.03-1.46.05-2.23c.02-.77.04-1.52.06-2.25.02-.73.04-1.41.05-2.02.01-.61.02-1.11.02-1.48,0-.43-.02-.84-.05-1.23-.03-.39-.09-.76-.17-1.09l2.56.02Z"/><path class="cls-2" d="M150.98,7.01c-.09.13-.19.28-.3.45-.11.17-.22.34-.34.53-.23.35-.49.78-.8,1.29s-.63,1.06-.96,1.65c-.33.59-.66,1.17-.98,1.74-.32.57-.6,1.09-.84,1.56.43-.33.87-.58,1.33-.73.46-.15.9-.23,1.33-.23.71,0,1.28.22,1.71.65s.67,1.06.71,1.87c.01.35.02.74.02,1.17s0,.86,0,1.27c0,.41.02.77.05,1.08.03.47.18.8.47.99.29.19.62.29.99.29.51,0,.96-.14,1.37-.42.41-.28.77-.66,1.08-1.13s.58-.99.8-1.56c.22-.57.4-1.14.53-1.71l1.68,1.38c-.35,1.11-.78,2.08-1.3,2.91-.52.83-1.15,1.49-1.88,1.96-.73.47-1.6.71-2.6.71-.72,0-1.3-.13-1.75-.4-.45-.27-.77-.6-.98-1s-.32-.81-.35-1.24c-.03-.39-.04-.8-.05-1.25,0-.45-.01-.89-.02-1.32,0-.43-.02-.81-.05-1.13-.01-.4-.13-.71-.36-.93-.23-.22-.55-.33-.96-.33-.49,0-.97.15-1.43.44s-.87.68-1.24,1.16c-.37.48-.68.99-.93,1.52-.15.29-.3.64-.46,1.05-.16.41-.32.83-.47,1.26-.15.43-.29.84-.41,1.23-.12.39-.22.71-.3.96l-2.2-.74c.25-.68.57-1.45.94-2.31s.79-1.77,1.24-2.72.91-1.9,1.38-2.83.91-1.82,1.34-2.66c.43-.84.81-1.57,1.14-2.2.33-.63.59-1.1.76-1.42.13-.24.27-.5.42-.79.15-.29.29-.61.42-.97l2.24.9Z"/><path class="cls-2" d="M215.58,6.75c-.04.12-.09.28-.15.47s-.11.39-.16.59c-.05.2-.08.36-.11.48-.07.33-.14.75-.23,1.24s-.17,1.04-.26,1.63-.17,1.2-.24,1.81-.13,1.2-.17,1.76c-.04.56-.06,1.05-.06,1.48,0,.35,0,.7.03,1.05.02.35.06.72.11,1.09.09-.28.2-.57.32-.86.12-.29.24-.59.37-.88.13-.29.24-.57.35-.82l1,.78c-.17.51-.36,1.05-.55,1.63s-.37,1.13-.54,1.65c-.17.52-.28.95-.35,1.3-.03.13-.05.29-.07.47-.02.18-.03.33-.03.45.01.09.02.21.02.35s0,.28.02.41l-1.76.12c-.2-.71-.38-1.6-.54-2.69-.16-1.09-.24-2.31-.24-3.67,0-.73.03-1.51.1-2.32.07-.81.15-1.6.25-2.37.1-.77.2-1.47.3-2.12.1-.65.18-1.17.23-1.57.04-.25.07-.53.1-.82.03-.29.05-.57.06-.84l2.2.2ZM225.4,6.57c-.04.2-.07.41-.09.62-.02.21-.04.42-.05.62-.01.24-.02.54-.03.91,0,.37-.01.77-.02,1.2,0,.43,0,.86,0,1.29,0,.84.02,1.65.05,2.42.03.77.07,1.51.11,2.2.04.69.08,1.34.11,1.95s.05,1.16.05,1.65c0,.47-.06.9-.19,1.31s-.33.77-.61,1.09-.65.57-1.12.75-1.05.27-1.74.27c-1.36,0-2.42-.27-3.17-.8-.75-.53-1.13-1.28-1.13-2.24,0-.61.17-1.16.51-1.64s.83-.86,1.46-1.14c.63-.28,1.4-.42,2.29-.42s1.69.1,2.44.3,1.43.46,2.04.78c.61.32,1.17.67,1.68,1.06s.97.76,1.38,1.12l-1.08,1.68c-.73-.69-1.45-1.29-2.16-1.8-.71-.51-1.43-.9-2.16-1.18-.73-.28-1.5-.42-2.3-.42-.67,0-1.21.13-1.63.4-.42.27-.63.62-.63,1.06s.2.8.61,1.03c.41.23.93.35,1.57.35.49,0,.88-.08,1.16-.24.28-.16.48-.39.6-.69.12-.3.18-.66.18-1.09,0-.35-.01-.82-.04-1.41-.03-.59-.06-1.25-.09-1.96-.03-.71-.06-1.45-.09-2.2-.03-.75-.04-1.48-.04-2.17s0-1.38-.01-1.99c0-.61,0-1.07,0-1.39,0-.16,0-.37-.03-.62-.02-.25-.04-.47-.07-.66h2.26ZM218.14,10.07c.57.05,1.14.1,1.7.13s1.13.05,1.72.05c1.23,0,2.44-.05,3.64-.16,1.2-.11,2.31-.26,3.32-.46v1.94c-1.05.17-2.18.3-3.38.38-1.2.08-2.39.13-3.58.14-.57,0-1.14-.01-1.7-.04-.56-.03-1.13-.06-1.72-.1v-1.88ZM227.08,5.87c.13.24.27.53.4.86.13.33.27.67.4,1,.13.33.25.63.34.9l-1.2.4c-.09-.29-.2-.61-.32-.94-.12-.33-.24-.66-.37-.99-.13-.33-.26-.62-.39-.89l1.14-.34ZM229.12,5.23c.13.25.27.54.41.87.14.33.28.66.41.99.13.33.25.63.34.9l-1.18.38c-.15-.44-.32-.91-.52-1.42-.2-.51-.41-.95-.62-1.34l1.16-.38Z"/><path class="cls-2" d="M246.47,6.17c-.05.36-.1.74-.14,1.15s-.07.79-.08,1.15c-.03.55-.05,1.22-.08,2.03s-.05,1.66-.08,2.56c-.03.9-.05,1.79-.06,2.66s-.02,1.66-.02,2.35.13,1.27.39,1.68c.26.41.62.71,1.09.89.47.18.99.27,1.56.27.88,0,1.67-.11,2.38-.34.71-.23,1.34-.53,1.91-.92.57-.39,1.08-.83,1.53-1.32.45-.49.86-1.01,1.22-1.54l1.42,1.74c-.33.48-.75.98-1.26,1.5s-1.11,1.01-1.81,1.46c-.7.45-1.5.82-2.4,1.1-.9.28-1.91.42-3.03.42-1.01,0-1.9-.15-2.66-.46-.76-.31-1.35-.8-1.78-1.48s-.64-1.57-.64-2.68c0-.57,0-1.22.02-1.94s.03-1.46.05-2.23c.02-.77.04-1.52.06-2.25.02-.73.04-1.41.05-2.02.01-.61.02-1.11.02-1.48,0-.43-.02-.84-.05-1.23-.03-.39-.09-.76-.17-1.09l2.56.02Z"/><path class="cls-2" d="M268.42,9.33c-.04.16-.07.42-.1.78s-.04.69-.04,1v3.2c0,.41.01.91.04,1.5.03.59.06,1.19.09,1.8s.06,1.19.09,1.73c.03.54.04.98.04,1.33,0,.45-.1.88-.31,1.28-.21.4-.54.72-1.01.96s-1.1.36-1.9.36-1.52-.11-2.15-.32c-.63-.21-1.13-.53-1.5-.96-.37-.43-.55-.95-.55-1.58,0-.89.38-1.61,1.14-2.14.76-.53,1.84-.8,3.24-.8.87,0,1.69.1,2.46.31s1.5.47,2.18.8c.68.33,1.29.68,1.84,1.07.55.39,1.02.77,1.42,1.14l-1.08,1.74c-.39-.41-.84-.82-1.35-1.23-.51-.41-1.07-.78-1.67-1.12-.6-.34-1.24-.61-1.91-.82-.67-.21-1.38-.31-2.11-.31s-1.3.11-1.73.33c-.43.22-.65.53-.65.93,0,.35.2.64.59.87.39.23.92.35,1.59.35.51,0,.89-.13,1.14-.39.25-.26.38-.62.38-1.09,0-.36,0-.78-.03-1.27s-.04-1-.07-1.55c-.03-.55-.05-1.09-.07-1.62-.02-.53-.03-1.01-.03-1.44v-3.04c0-.33-.01-.68-.04-1.03-.03-.35-.06-.61-.1-.77h2.16ZM267.4,12.33c.25,0,.61,0,1.06-.02s.95-.03,1.5-.06c.55-.03,1.1-.06,1.65-.1.55-.04,1.05-.09,1.49-.14l.04,1.76c-.43.05-.92.1-1.47.13-.55.03-1.11.06-1.66.08-.55.02-1.06.04-1.52.05s-.82.02-1.09.02v-1.72Z"/><path class="cls-2" d="M333.05,12.03c1.17.11,2.31.18,3.41.22,1.1.04,2.14.04,3.13,0s1.87-.11,2.66-.2c1-.09,1.89-.23,2.67-.4.78-.17,1.45-.35,2.01-.52l.32,1.88c-.57.15-1.23.29-1.96.43-.73.14-1.51.26-2.34.35-.83.09-1.78.16-2.86.21s-2.21.06-3.4.04c-1.19-.02-2.37-.07-3.54-.15l-.1-1.86ZM333.43,7.89c1.43.16,2.77.25,4.02.28,1.25.03,2.4,0,3.44-.08.85-.08,1.69-.2,2.51-.36.82-.16,1.62-.37,2.39-.62l.26,1.82c-.68.2-1.43.38-2.26.53-.83.15-1.65.27-2.48.35-1.03.08-2.21.12-3.55.11-1.34,0-2.74-.08-4.21-.21l-.12-1.82ZM336.37,16.47c-.24.35-.44.7-.61,1.05-.17.35-.25.75-.25,1.19,0,.79.36,1.37,1.08,1.75.72.38,1.81.57,3.28.57.93,0,1.8-.04,2.6-.11.8-.07,1.56-.18,2.28-.33l-.1,2.02c-.69.11-1.45.19-2.27.26-.82.07-1.65.1-2.49.1-1.32,0-2.45-.14-3.38-.41-.93-.27-1.65-.69-2.16-1.26-.51-.57-.77-1.3-.78-2.21,0-.6.08-1.14.24-1.61.16-.47.36-.94.6-1.39l1.96.38ZM339.81,7.97c-.08-.33-.17-.66-.28-.99-.11-.33-.22-.66-.34-.99l2.14-.24c.07.59.17,1.18.31,1.79s.3,1.19.47,1.76c.17.57.34,1.1.5,1.59.17.49.39,1.03.64,1.62.25.59.53,1.17.84,1.74.31.57.62,1.11.94,1.6.12.17.25.34.38.49.13.15.28.3.44.45l-1,1.48c-.37-.09-.82-.18-1.35-.25-.53-.07-1.07-.14-1.62-.21-.55-.07-1.07-.12-1.55-.16l.16-1.52c.48.04.99.09,1.52.14.53.05.95.1,1.26.14-.55-.87-1.02-1.75-1.42-2.64-.4-.89-.74-1.73-1.02-2.5-.16-.47-.3-.89-.42-1.26-.12-.37-.23-.72-.32-1.05-.09-.33-.19-.66-.28-.99Z"/><rect class="cls-1" width="768" height="80"/></g></svg>