<?xml version="1.0" encoding="UTF-8"?><svg id="_レイヤー_2" xmlns="http://www.w3.org/2000/svg" viewBox="0 0 768 240"><defs><style>.cls-1{fill:none;}.cls-1,.cls-2{stroke-width:0px;}.cls-2{fill:#333;}</style></defs><g id="_2"><path class="cls-2" d="M84.2,29.16l4.44,1.44c-.88,2.27-1.93,4.53-3.14,6.78-1.21,2.25-2.52,4.39-3.92,6.4-1.4,2.01-2.83,3.78-4.3,5.3-.13-.4-.35-.91-.64-1.52-.29-.61-.61-1.24-.96-1.88-.35-.64-.67-1.15-.96-1.52,1.25-1.23,2.46-2.64,3.64-4.24,1.17-1.6,2.26-3.32,3.26-5.16s1.86-3.71,2.58-5.6ZM80.32,40.2l4.56-4.56v30.88h-4.56v-26.32ZM96.64,49.76l3.76,1.32c-.85,1.87-1.89,3.69-3.12,5.46-1.23,1.77-2.57,3.39-4.04,4.84-1.47,1.46-3,2.69-4.6,3.7-.24-.4-.55-.84-.94-1.32-.39-.48-.79-.94-1.2-1.38-.41-.44-.81-.82-1.18-1.14,1.55-.8,3.04-1.81,4.48-3.02s2.75-2.55,3.94-4c1.19-1.45,2.15-2.94,2.9-4.46ZM86.76,48.24h25.72v4.32h-25.72v-4.32ZM89.44,30.8h21.12v13.8h-21.12v-13.8ZM93.96,35.04v5.36h11.76v-5.36h-11.76ZM97.32,43.2h4.8v23.44h-4.8v-23.44ZM103.04,50.16c.75,1.44,1.69,2.87,2.82,4.28,1.13,1.41,2.37,2.72,3.72,3.92,1.35,1.2,2.71,2.2,4.1,3-.35.27-.74.63-1.18,1.08s-.85.92-1.24,1.4c-.39.48-.71.92-.98,1.32-1.39-.99-2.75-2.21-4.1-3.68-1.35-1.47-2.6-3.06-3.76-4.78-1.16-1.72-2.15-3.47-2.98-5.26l3.6-1.28Z"/><path class="cls-2" d="M128.72,29.04l5.12,1.2c-.99,3.25-2.23,6.45-3.72,9.58-1.49,3.13-3.3,6.06-5.42,8.78-2.12,2.72-4.62,5.07-7.5,7.04-.16-.45-.38-.97-.66-1.54-.28-.57-.57-1.15-.88-1.74-.31-.59-.59-1.07-.86-1.44,1.81-1.2,3.47-2.63,4.96-4.3,1.49-1.67,2.81-3.47,3.96-5.4,1.15-1.93,2.14-3.94,2.98-6.02.84-2.08,1.51-4.13,2.02-6.16ZM116.2,34.28h35.68v4.6h-35.68v-4.6ZM120.76,45.72h4.84v20.84h-4.84v-20.84ZM127.96,52.04h24.52v4.48h-24.52v-4.48ZM131.04,41.96h15.28v4.32h-15.28v-4.32ZM138.16,48.72h4.84v12.8c0,1.2-.14,2.14-.42,2.82-.28.68-.85,1.19-1.7,1.54-.85.37-1.87.59-3.06.66-1.19.07-2.59.1-4.22.1-.08-.72-.25-1.51-.5-2.36s-.53-1.61-.82-2.28c.67.03,1.35.05,2.04.08.69.03,1.31.03,1.86.02s.91-.02,1.1-.02c.35-.03.58-.08.7-.16.12-.08.18-.25.18-.52v-12.68ZM145.16,41.96h1.2l.96-.24,3,2.36c-.77.91-1.65,1.85-2.64,2.82s-2.01,1.91-3.06,2.8c-1.05.89-2.09,1.67-3.1,2.34-.29-.43-.7-.92-1.22-1.48s-.97-.99-1.34-1.28c.77-.56,1.56-1.22,2.36-1.98.8-.76,1.54-1.54,2.22-2.34.68-.8,1.22-1.49,1.62-2.08v-.92Z"/><path class="cls-2" d="M168.84,31.32c-.11.83-.21,1.72-.3,2.68-.09.96-.17,1.84-.22,2.64-.03,1.09-.07,2.42-.14,3.98-.07,1.56-.12,3.19-.16,4.9-.04,1.71-.08,3.39-.12,5.04-.04,1.65-.06,3.09-.06,4.32,0,1.33.25,2.39.74,3.18.49.79,1.15,1.35,1.98,1.68.83.33,1.76.5,2.8.5,1.65,0,3.16-.22,4.52-.66,1.36-.44,2.6-1.03,3.72-1.78,1.12-.75,2.13-1.61,3.02-2.6.89-.99,1.7-2.03,2.42-3.12l3.64,4.4c-.64.96-1.48,1.97-2.52,3.04s-2.27,2.07-3.7,3-3.07,1.69-4.94,2.28c-1.87.59-3.93.88-6.2.88s-4.09-.34-5.7-1.02c-1.61-.68-2.87-1.73-3.76-3.16-.89-1.43-1.34-3.27-1.34-5.54,0-1.09.01-2.34.04-3.74.03-1.4.07-2.86.12-4.38.05-1.52.09-3.01.12-4.46.03-1.45.05-2.77.08-3.94.03-1.17.04-2.11.04-2.8,0-.96-.04-1.9-.12-2.82-.08-.92-.21-1.78-.4-2.58l6.44.08Z"/><path class="cls-2" d="M212.96,31.12c-.16.53-.32,1.19-.48,1.96s-.28,1.37-.36,1.8c-.19.91-.42,2.01-.7,3.32-.28,1.31-.59,2.69-.92,4.16-.33,1.47-.67,2.87-1.02,4.2-.35,1.41-.77,2.94-1.28,4.58-.51,1.64-1.05,3.31-1.62,5-.57,1.69-1.15,3.31-1.74,4.84-.59,1.53-1.16,2.9-1.72,4.1l-5.56-1.88c.59-1.01,1.21-2.25,1.88-3.7.67-1.45,1.31-3.02,1.94-4.7.63-1.68,1.21-3.35,1.74-5,.53-1.65.99-3.19,1.36-4.6.27-.93.52-1.89.76-2.88.24-.99.45-1.95.64-2.88s.35-1.81.5-2.62c.15-.81.26-1.53.34-2.14.08-.75.13-1.49.16-2.24.03-.75.01-1.35-.04-1.8l6.12.48ZM202.76,37.08c1.63,0,3.32-.08,5.08-.24s3.53-.39,5.32-.68c1.79-.29,3.56-.64,5.32-1.04v5c-1.65.37-3.41.69-5.28.96-1.87.27-3.71.47-5.52.62s-3.48.22-5,.22c-.96,0-1.83-.02-2.6-.06s-1.52-.07-2.24-.1l-.12-5c1.04.11,1.93.19,2.68.24.75.05,1.53.08,2.36.08ZM217.48,53.28c-.16.56-.29,1.14-.4,1.74-.11.6-.16,1.13-.16,1.58,0,.43.09.83.28,1.2.19.38.48.7.88.98.4.28.95.5,1.66.66.71.16,1.59.24,2.66.24,1.36,0,2.73-.07,4.1-.22,1.37-.15,2.78-.35,4.22-.62l-.2,5.12c-1.12.13-2.36.26-3.72.38-1.36.12-2.84.18-4.44.18-3.36,0-5.93-.55-7.7-1.66-1.77-1.11-2.66-2.67-2.66-4.7,0-.91.08-1.83.24-2.76.16-.93.32-1.8.48-2.6l4.76.48ZM215.32,43.2c1.12-.11,2.36-.2,3.72-.28s2.68-.12,3.96-.12c1.15,0,2.31.03,3.5.08,1.19.05,2.37.15,3.54.28l-.12,4.8c-.99-.13-2.07-.25-3.26-.34-1.19-.09-2.39-.14-3.62-.14-1.36,0-2.67.03-3.94.1s-2.53.18-3.78.34v-4.72Z"/><path class="cls-2" d="M267.36,33.76c-.35.72-.67,1.48-.96,2.28-.29.8-.56,1.53-.8,2.2-.56,1.52-1.22,3.16-1.98,4.92-.76,1.76-1.6,3.49-2.52,5.18s-1.93,3.22-3.02,4.58c-1.12,1.41-2.47,2.86-4.06,4.34-1.59,1.48-3.32,2.85-5.2,4.12-1.88,1.27-3.85,2.31-5.9,3.14l-4.56-4.68c2.08-.72,4.05-1.61,5.92-2.68,1.87-1.07,3.59-2.27,5.16-3.6,1.57-1.33,2.95-2.71,4.12-4.12,1.28-1.55,2.42-3.3,3.42-5.26s1.85-3.98,2.56-6.06c.71-2.08,1.23-4.07,1.58-5.96l6.24,1.6Z"/><path class="cls-2" d="M277.68,44.52c.48.03,1.09.06,1.84.1.75.04,1.53.07,2.34.1.81.03,1.57.04,2.26.04h21.48c.93,0,1.81-.03,2.64-.1.83-.07,1.51-.11,2.04-.14v6.28c-.45-.03-1.13-.07-2.04-.12-.91-.05-1.79-.08-2.64-.08h-21.48c-1.15,0-2.32.02-3.52.06-1.2.04-2.17.09-2.92.14v-6.28Z"/><path class="cls-2" d="M326.56,59.2v-23c0-.69-.03-1.49-.1-2.4-.07-.91-.17-1.71-.3-2.4h6.24c-.08.69-.16,1.46-.24,2.3s-.12,1.67-.12,2.5v23c0,.37.01.9.04,1.58.03.68.08,1.38.16,2.1.08.72.13,1.36.16,1.92h-6.24c.11-.8.2-1.73.28-2.8s.12-2,.12-2.8ZM330.84,41.76c1.33.35,2.83.79,4.48,1.34,1.65.55,3.32,1.13,5,1.74s3.26,1.22,4.74,1.82c1.48.6,2.71,1.15,3.7,1.66l-2.28,5.52c-1.12-.59-2.36-1.18-3.72-1.78-1.36-.6-2.74-1.18-4.14-1.74s-2.77-1.08-4.12-1.56c-1.35-.48-2.57-.91-3.66-1.28v-5.72Z"/><path class="cls-2" d="M373.44,30.96c-.13.72-.35,1.65-.64,2.8s-.72,2.44-1.28,3.88c-.43.99-.91,2.01-1.46,3.06-.55,1.05-1.1,1.99-1.66,2.82.35-.16.79-.3,1.32-.42.53-.12,1.09-.21,1.66-.28.57-.07,1.09-.1,1.54-.1,1.68,0,3.07.48,4.18,1.44,1.11.96,1.66,2.39,1.66,4.28,0,.53,0,1.19.02,1.96.01.77.03,1.58.06,2.42.03.84.05,1.66.08,2.46.03.8.04,1.52.04,2.16h-4.8c.05-.45.09-.99.1-1.62.01-.63.03-1.29.04-1.98.01-.69.03-1.37.04-2.02s.02-1.25.02-1.78c0-1.28-.34-2.17-1.02-2.66-.68-.49-1.43-.74-2.26-.74-1.12,0-2.25.27-3.38.82-1.13.55-2.09,1.19-2.86,1.94-.59.59-1.18,1.24-1.78,1.96-.6.72-1.25,1.53-1.94,2.44l-4.28-3.2c1.73-1.6,3.23-3.15,4.5-4.64,1.27-1.49,2.34-2.97,3.22-4.44.88-1.47,1.6-2.93,2.16-4.4.4-1.07.73-2.18.98-3.34.25-1.16.41-2.25.46-3.26l5.28.44ZM358.4,34.64c1.01.16,2.19.28,3.52.36,1.33.08,2.51.12,3.52.12,1.76,0,3.69-.04,5.78-.12,2.09-.08,4.22-.22,6.38-.42,2.16-.2,4.21-.46,6.16-.78l-.04,4.64c-1.41.19-2.94.35-4.58.5-1.64.15-3.31.27-5,.36-1.69.09-3.31.16-4.86.2-1.55.04-2.92.06-4.12.06-.53,0-1.19,0-1.98-.02-.79-.01-1.59-.04-2.42-.08-.83-.04-1.61-.09-2.36-.14v-4.68ZM390.08,46c-.43.13-.93.3-1.5.5-.57.2-1.15.4-1.72.6-.57.2-1.09.39-1.54.58-1.28.51-2.79,1.12-4.54,1.84-1.75.72-3.57,1.56-5.46,2.52-1.2.64-2.21,1.27-3.04,1.88-.83.61-1.45,1.23-1.88,1.86-.43.63-.64,1.31-.64,2.06,0,.56.12,1.02.36,1.38.24.36.6.65,1.08.86.48.21,1.08.36,1.8.44s1.57.12,2.56.12c1.71,0,3.59-.1,5.64-.3,2.05-.2,3.96-.47,5.72-.82l-.16,5.16c-.85.11-1.93.22-3.24.34s-2.66.21-4.06.26c-1.4.05-2.74.08-4.02.08-2.08,0-3.95-.2-5.6-.6-1.65-.4-2.95-1.09-3.9-2.06-.95-.97-1.42-2.31-1.42-4.02,0-1.39.31-2.64.94-3.76.63-1.12,1.46-2.13,2.5-3.04,1.04-.91,2.18-1.73,3.42-2.46,1.24-.73,2.46-1.41,3.66-2.02,1.23-.64,2.33-1.19,3.32-1.64s1.91-.86,2.78-1.22c.87-.36,1.7-.73,2.5-1.1.77-.35,1.52-.69,2.24-1.02s1.45-.69,2.2-1.06l2,4.64Z"/><path class="cls-2" d="M397.16,30.6h4.68v36.04h-4.68V30.6ZM399.56,36.04h10.04v3.12h-10.04v-3.12ZM400,30.6h12.64v14.2h-12.64v-3.44h8.16v-7.36h-8.16v-3.4ZM407.88,48.24h4.12v7.64c0,.67-.08,1.46-.24,2.36s-.43,1.87-.82,2.9-.93,2.01-1.62,2.96c-.69.95-1.56,1.78-2.6,2.5-.35-.43-.83-.91-1.44-1.46-.61-.55-1.16-.98-1.64-1.3,1.12-.69,1.99-1.53,2.62-2.52.63-.99,1.05-1.97,1.28-2.96.23-.99.34-1.81.34-2.48v-7.64ZM403.72,53.68h20.64v3.92h-20.64v-3.92ZM404.28,46.88h19.4v3.76h-19.4v-3.76ZM428.8,30.6v3.4h-9v7.48h9v3.44h-13.56v-14.32h13.56ZM415.68,48.04h4.24v17.84h-4.24v-17.84ZM418.12,36.04h10.08v3.12h-10.08v-3.12ZM426.32,30.6h4.72v30.44c0,1.23-.13,2.19-.38,2.9-.25.71-.75,1.26-1.5,1.66-.72.4-1.61.65-2.68.76-1.07.11-2.37.15-3.92.12-.05-.43-.15-.93-.3-1.5s-.31-1.15-.5-1.74c-.19-.59-.4-1.08-.64-1.48.91.03,1.79.05,2.64.06.85.01,1.44,0,1.76-.02.29,0,.5-.07.62-.2.12-.13.18-.33.18-.6v-30.4Z"/><path class="cls-2" d="M439.84,42.72c2.43.21,4.75.36,6.96.44s4.29.08,6.24,0,3.72-.19,5.32-.32c2.16-.19,4.01-.46,5.56-.82s2.89-.7,4.04-1.02l.8,4.72c-1.2.29-2.52.57-3.96.84s-2.97.49-4.6.68c-1.71.16-3.66.29-5.86.38-2.2.09-4.51.12-6.94.08-2.43-.04-4.85-.13-7.28-.26l-.28-4.72ZM440.56,34.32c2.93.35,5.63.55,8.1.62s4.75.02,6.86-.14c1.84-.16,3.6-.4,5.28-.72,1.68-.32,3.33-.73,4.96-1.24l.64,4.6c-1.44.4-3,.75-4.68,1.04-1.68.29-3.4.52-5.16.68-2.05.16-4.42.23-7.1.22-2.68-.01-5.55-.17-8.62-.46l-.28-4.6ZM447.52,52c-.48.67-.89,1.35-1.24,2.06-.35.71-.52,1.5-.52,2.38,0,1.47.69,2.53,2.06,3.18,1.37.65,3.38.98,6.02.98,1.89,0,3.69-.08,5.38-.24,1.69-.16,3.25-.37,4.66-.64l-.28,5.08c-1.39.24-2.95.43-4.68.56-1.73.13-3.41.2-5.04.2-2.67,0-4.97-.28-6.9-.84-1.93-.56-3.43-1.43-4.5-2.62-1.07-1.19-1.61-2.73-1.64-4.62-.03-1.28.14-2.43.5-3.46.36-1.03.77-2.02,1.22-2.98l4.96.96ZM453.2,35.44c-.19-.75-.4-1.49-.64-2.22-.24-.73-.51-1.49-.8-2.26l5.4-.6c.16,1.25.37,2.49.62,3.7.25,1.21.55,2.38.88,3.5.33,1.12.66,2.2.98,3.24.32.91.74,1.94,1.26,3.1.52,1.16,1.09,2.32,1.7,3.48.61,1.16,1.23,2.21,1.84,3.14.27.37.54.73.82,1.06.28.33.61.66.98.98l-2.44,3.68c-.75-.16-1.67-.32-2.78-.48-1.11-.16-2.25-.31-3.44-.44-1.19-.13-2.27-.25-3.26-.36l.4-3.8c.83.08,1.73.16,2.7.24.97.08,1.75.16,2.34.24-1.07-1.79-1.98-3.53-2.74-5.24-.76-1.71-1.39-3.29-1.9-4.76-.32-.93-.59-1.74-.8-2.42-.21-.68-.41-1.32-.58-1.92-.17-.6-.35-1.22-.54-1.86Z"/><path class="cls-2" d="M497.88,30.68c-.05.4-.1.85-.14,1.34-.04.49-.07.99-.1,1.5-.03.53-.05,1.25-.08,2.14-.03.89-.04,1.87-.04,2.94v6c0,1.12.03,2.37.08,3.74.05,1.37.13,2.76.22,4.16.09,1.4.17,2.71.24,3.92.07,1.21.1,2.22.1,3.02,0,1.12-.29,2.14-.88,3.06-.59.92-1.46,1.65-2.62,2.18s-2.62.8-4.38.8c-3.2,0-5.63-.59-7.28-1.76-1.65-1.17-2.48-2.81-2.48-4.92,0-1.36.39-2.55,1.18-3.58.79-1.03,1.92-1.83,3.4-2.42,1.48-.59,3.25-.88,5.3-.88,2.19,0,4.23.23,6.14.7,1.91.47,3.65,1.07,5.22,1.82,1.57.75,2.97,1.53,4.2,2.36,1.23.83,2.27,1.57,3.12,2.24l-2.88,4.48c-.96-.91-2.04-1.8-3.22-2.68-1.19-.88-2.48-1.68-3.88-2.4-1.4-.72-2.88-1.3-4.44-1.74-1.56-.44-3.21-.66-4.94-.66-1.39,0-2.46.24-3.22.72s-1.14,1.07-1.14,1.76c0,.51.16.95.48,1.32s.79.65,1.4.84,1.39.28,2.32.28c.72,0,1.34-.08,1.86-.24.52-.16.93-.45,1.22-.88.29-.43.44-1.03.44-1.8,0-.59-.02-1.43-.06-2.52-.04-1.09-.09-2.3-.14-3.62-.05-1.32-.11-2.62-.16-3.9-.05-1.28-.08-2.41-.08-3.4s0-1.97.02-3.02c.01-1.05.02-2.1.02-3.14s0-1.99.02-2.86c.01-.87.02-1.58.02-2.14,0-.37-.02-.83-.06-1.38-.04-.55-.1-1.01-.18-1.38h5.4ZM481.08,43.08c.64.11,1.4.21,2.28.32.88.11,1.78.19,2.7.24s1.79.1,2.62.14c.83.04,1.51.06,2.04.06,2.48,0,4.73-.05,6.74-.16,2.01-.11,3.9-.24,5.66-.4,1.76-.16,3.45-.35,5.08-.56l-.04,4.72c-1.39.16-2.73.29-4.02.4-1.29.11-2.61.2-3.96.28s-2.79.13-4.34.16c-1.55.03-3.28.04-5.2.04-.77,0-1.73-.02-2.88-.06-1.15-.04-2.31-.1-3.5-.18s-2.23-.17-3.14-.28l-.04-4.72ZM481.28,34.44c.72.11,1.52.21,2.4.32.88.11,1.78.21,2.7.3.92.09,1.79.16,2.62.2.83.04,1.55.06,2.16.06,2.72,0,5.43-.09,8.14-.26,2.71-.17,5.51-.5,8.42-.98l-.04,4.6c-1.36.19-2.93.36-4.72.52s-3.69.29-5.7.38-4.03.14-6.06.14c-.83,0-1.85-.03-3.06-.1-1.21-.07-2.42-.16-3.62-.28-1.2-.12-2.24-.23-3.12-.34l-.12-4.56Z"/><path class="cls-2" d="M517.52,35.76c1.17,0,2.51-.01,4-.04,1.49-.03,3.05-.05,4.68-.08s3.23-.05,4.8-.08c1.57-.03,3.05-.05,4.44-.06s2.59-.02,3.6-.02,2.12,0,3.32-.02c1.2-.01,2.39-.02,3.56-.02h5.48l-.04,4.72c-1.25-.05-2.91-.1-4.96-.14-2.05-.04-4.56-.06-7.52-.06-1.81,0-3.65.02-5.52.06s-3.72.09-5.56.14c-1.84.05-3.61.11-5.32.18-1.71.07-3.32.15-4.84.26l-.12-4.84ZM539.16,47.6c0,2.19-.26,4-.78,5.44-.52,1.44-1.3,2.53-2.34,3.26-1.04.73-2.33,1.1-3.88,1.1-.75,0-1.53-.16-2.34-.48-.81-.32-1.57-.79-2.26-1.4s-1.25-1.37-1.66-2.28c-.41-.91-.62-1.97-.62-3.2,0-1.52.36-2.83,1.08-3.94.72-1.11,1.69-1.97,2.9-2.6,1.21-.63,2.55-.94,4.02-.94,1.76,0,3.23.39,4.42,1.18,1.19.79,2.08,1.85,2.68,3.18.6,1.33.9,2.84.9,4.52,0,1.31-.21,2.67-.64,4.08-.43,1.41-1.13,2.79-2.1,4.14-.97,1.35-2.28,2.57-3.92,3.66-1.64,1.09-3.69,1.99-6.14,2.68l-4.28-4.24c1.71-.35,3.29-.8,4.76-1.36s2.75-1.27,3.86-2.12c1.11-.85,1.97-1.91,2.6-3.16.62-1.25.94-2.76.94-4.52,0-1.28-.31-2.24-.94-2.88-.63-.64-1.38-.96-2.26-.96-.51,0-1,.12-1.48.36s-.87.6-1.16,1.08c-.29.48-.44,1.07-.44,1.76,0,.91.31,1.63.94,2.18.63.55,1.34.82,2.14.82.64,0,1.21-.2,1.7-.6s.82-1.07.98-2,.03-2.19-.4-3.76l3.72,1ZM540.12,30.8c-.03.21-.06.55-.1,1.02-.04.47-.07.93-.1,1.4-.03.47-.05.81-.08,1.02-.03.53-.04,1.25-.04,2.14v2.98c0,1.09,0,2.19.02,3.3.01,1.11.03,2.15.04,3.12.01.97.02,1.78.02,2.42l-5-1.68v-4.78c0-1,0-1.99-.02-2.98s-.03-1.88-.06-2.68c-.03-.8-.05-1.4-.08-1.8-.05-.83-.12-1.55-.2-2.18s-.15-1.06-.2-1.3h5.8Z"/><path class="cls-2" d="M561.72,53.12c1.23,0,2.32.29,3.28.88.96.59,1.73,1.37,2.32,2.34.59.97.88,2.06.88,3.26s-.29,2.25-.88,3.24c-.59.99-1.36,1.77-2.32,2.36-.96.59-2.05.88-3.28.88s-2.25-.29-3.24-.88c-.99-.59-1.77-1.37-2.34-2.36-.57-.99-.86-2.07-.86-3.24s.29-2.29.86-3.26c.57-.97,1.35-1.75,2.34-2.34.98-.59,2.06-.88,3.24-.88ZM561.76,63.2c.99,0,1.83-.35,2.52-1.06s1.04-1.55,1.04-2.54c0-.67-.16-1.27-.48-1.82-.32-.55-.75-.98-1.3-1.3s-1.14-.48-1.78-.48-1.27.16-1.8.48-.97.75-1.3,1.3c-.33.55-.5,1.15-.5,1.82s.17,1.27.5,1.82c.33.55.77.98,1.3,1.3.53.32,1.13.48,1.8.48Z"/><path class="cls-2" d="M74.68,126.48c1.31-.32,2.79-.69,4.46-1.1,1.67-.41,3.42-.87,5.26-1.38l5.52-1.52.6,4.24c-2.51.75-5.05,1.5-7.64,2.26-2.59.76-4.91,1.43-6.96,2.02l-1.24-4.52ZM75.64,101.16h14.08v4.44h-14.08v-4.44ZM76,112.6h13.32v4.4h-13.32v-4.4ZM80.52,102.92h4.6v23.48l-4.6.72v-24.2ZM94.28,122.52h4.72c-.16,1.73-.42,3.33-.78,4.78-.36,1.46-.94,2.78-1.74,3.98-.8,1.2-1.9,2.27-3.3,3.2-1.4.93-3.19,1.73-5.38,2.4-.16-.4-.39-.85-.68-1.34-.29-.49-.61-.97-.96-1.44-.35-.47-.68-.86-1-1.18,1.87-.45,3.39-1.02,4.56-1.7,1.17-.68,2.07-1.45,2.68-2.32.61-.87,1.05-1.83,1.32-2.88.27-1.05.45-2.22.56-3.5ZM91.28,100.6h19.68v22.56h-19.68v-22.56ZM95.76,104.48v2.48h10.48v-2.48h-10.48ZM95.76,110.6v2.48h10.48v-2.48h-10.48ZM95.76,116.72v2.48h10.48v-2.48h-10.48ZM101.4,121.36h4.56v9.64c0,.59.05.95.14,1.1s.31.22.66.22h1.64c.24,0,.42-.11.54-.32.12-.21.21-.66.28-1.34.07-.68.11-1.67.14-2.98.32.24.71.47,1.18.7.47.23.96.43,1.48.6.52.17.98.33,1.38.46-.13,1.81-.37,3.23-.7,4.24-.33,1.01-.8,1.73-1.4,2.14-.6.41-1.38.62-2.34.62h-3.08c-1.23,0-2.16-.17-2.8-.52-.64-.35-1.08-.91-1.32-1.7-.24-.79-.36-1.85-.36-3.18v-9.68Z"/><path class="cls-2" d="M128.84,99.04l5,1.2c-.99,3.2-2.23,6.36-3.72,9.48s-3.29,6.03-5.4,8.72c-2.11,2.69-4.59,5.01-7.44,6.96-.16-.45-.38-.96-.66-1.52-.28-.56-.57-1.12-.86-1.68-.29-.56-.57-1.03-.84-1.4,1.81-1.17,3.46-2.59,4.94-4.24,1.48-1.65,2.79-3.45,3.94-5.4,1.15-1.95,2.14-3.95,2.98-6,.84-2.05,1.53-4.09,2.06-6.12ZM116.2,104.6h35.68v4.6h-35.68v-4.6ZM120.84,115.8h4.84v20.76h-4.84v-20.76ZM127.72,131.16h24.04v4.44h-24.04v-4.44ZM129.24,117.56h21v4.44h-21v-4.44ZM137.4,110.92h4.84v22.6h-4.84v-22.6Z"/><path class="cls-2" d="M177.64,105.64c-.27,2.03-.61,4.19-1.04,6.48-.43,2.29-1,4.61-1.72,6.96-.77,2.69-1.68,5.01-2.72,6.96-1.04,1.95-2.18,3.45-3.42,4.5-1.24,1.05-2.59,1.58-4.06,1.58s-2.82-.5-4.06-1.5c-1.24-1-2.23-2.38-2.96-4.14-.73-1.76-1.1-3.76-1.1-6s.47-4.51,1.4-6.56c.93-2.05,2.23-3.87,3.9-5.46,1.67-1.59,3.61-2.83,5.84-3.74,2.23-.91,4.63-1.36,7.22-1.36s4.71.4,6.7,1.2c1.99.8,3.69,1.91,5.1,3.32,1.41,1.41,2.49,3.07,3.24,4.96.75,1.89,1.12,3.93,1.12,6.12,0,2.8-.57,5.31-1.72,7.52-1.15,2.21-2.85,4.04-5.1,5.48-2.25,1.44-5.06,2.43-8.42,2.96l-3-4.76c.77-.08,1.45-.17,2.04-.28.59-.11,1.15-.23,1.68-.36,1.28-.32,2.47-.78,3.58-1.38,1.11-.6,2.07-1.35,2.9-2.24.83-.89,1.47-1.94,1.94-3.14.47-1.2.7-2.52.7-3.96,0-1.57-.24-3.01-.72-4.32-.48-1.31-1.19-2.45-2.12-3.42s-2.07-1.72-3.4-2.24c-1.33-.52-2.87-.78-4.6-.78-2.13,0-4.01.38-5.64,1.14-1.63.76-3,1.74-4.12,2.94-1.12,1.2-1.97,2.49-2.54,3.88s-.86,2.71-.86,3.96c0,1.33.16,2.45.48,3.34.32.89.71,1.56,1.18,2,.47.44.97.66,1.5.66.56,0,1.11-.29,1.66-.86.55-.57,1.09-1.45,1.62-2.62.53-1.17,1.07-2.65,1.6-4.44.61-1.92,1.13-3.97,1.56-6.16.43-2.19.73-4.32.92-6.4l5.44.16Z"/><path class="cls-2" d="M227.36,103.76c-.35.72-.67,1.48-.96,2.28-.29.8-.56,1.53-.8,2.2-.56,1.52-1.22,3.16-1.98,4.92-.76,1.76-1.6,3.49-2.52,5.18s-1.93,3.22-3.02,4.58c-1.12,1.41-2.47,2.86-4.06,4.34-1.59,1.48-3.32,2.85-5.2,4.12-1.88,1.27-3.85,2.31-5.9,3.14l-4.56-4.68c2.08-.72,4.05-1.61,5.92-2.68,1.87-1.07,3.59-2.27,5.16-3.6,1.57-1.33,2.95-2.71,4.12-4.12,1.28-1.55,2.42-3.3,3.42-5.26s1.85-3.98,2.56-6.06c.71-2.08,1.23-4.07,1.58-5.96l6.24,1.6Z"/><path class="cls-2" d="M237.68,114.52c.48.03,1.09.06,1.84.1.75.04,1.53.07,2.34.1.81.03,1.57.04,2.26.04h21.48c.93,0,1.81-.03,2.64-.1.83-.07,1.51-.11,2.04-.14v6.28c-.45-.03-1.13-.07-2.04-.12-.91-.05-1.79-.08-2.64-.08h-21.48c-1.15,0-2.32.02-3.52.06-1.2.04-2.17.09-2.92.14v-6.28Z"/><path class="cls-2" d="M286.56,129.2v-23c0-.69-.03-1.49-.1-2.4-.07-.91-.17-1.71-.3-2.4h6.24c-.08.69-.16,1.46-.24,2.3s-.12,1.67-.12,2.5v23c0,.37.01.9.04,1.58.03.68.08,1.38.16,2.1.08.72.13,1.36.16,1.92h-6.24c.11-.8.2-1.73.28-2.8s.12-2,.12-2.8ZM290.84,111.76c1.33.35,2.83.79,4.48,1.34,1.65.55,3.32,1.13,5,1.74s3.26,1.22,4.74,1.82c1.48.6,2.71,1.15,3.7,1.66l-2.28,5.52c-1.12-.59-2.36-1.18-3.72-1.78-1.36-.6-2.74-1.18-4.14-1.74s-2.77-1.08-4.12-1.56c-1.35-.48-2.57-.91-3.66-1.28v-5.72Z"/><path class="cls-2" d="M325.32,102.16c-.08.27-.19.64-.34,1.12-.15.48-.27.95-.36,1.4-.09.45-.17.8-.22,1.04-.13.56-.28,1.31-.44,2.26s-.33,2.01-.5,3.2c-.17,1.19-.34,2.4-.5,3.64-.16,1.24-.28,2.41-.36,3.52s-.12,2.06-.12,2.86c0,.4,0,.83.02,1.3s.06.9.14,1.3c.19-.48.38-.95.58-1.4.2-.45.41-.91.62-1.36.21-.45.41-.91.6-1.36l2.44,2c-.37,1.09-.75,2.24-1.14,3.44-.39,1.2-.73,2.33-1.04,3.4-.31,1.07-.54,1.96-.7,2.68-.05.27-.1.59-.14.96-.04.37-.06.68-.06.92,0,.21,0,.47.02.78.01.31.03.59.06.86l-4.52.36c-.43-1.41-.8-3.22-1.12-5.42-.32-2.2-.48-4.66-.48-7.38,0-1.49.07-3.06.2-4.7.13-1.64.29-3.22.46-4.74.17-1.52.35-2.91.54-4.18.19-1.27.33-2.29.44-3.06.08-.56.16-1.19.24-1.9.08-.71.13-1.38.16-2.02l5.52.48ZM344.84,101.72c-.05.37-.1.79-.14,1.24-.04.45-.07.91-.1,1.36-.03.43-.05,1-.08,1.72-.03.72-.04,1.53-.04,2.42v2.82c0,1.81.03,3.51.08,5.1.05,1.59.12,3.05.2,4.4.08,1.35.15,2.58.22,3.7.07,1.12.1,2.16.1,3.12,0,1.04-.14,2-.42,2.88-.28.88-.73,1.65-1.34,2.32-.61.67-1.42,1.18-2.42,1.54-1,.36-2.22.54-3.66.54-2.77,0-4.96-.56-6.56-1.68-1.6-1.12-2.4-2.73-2.4-4.84,0-1.36.36-2.55,1.08-3.58.72-1.03,1.75-1.83,3.08-2.4,1.33-.57,2.91-.86,4.72-.86s3.61.2,5.16.6c1.55.4,2.96.93,4.24,1.6,1.28.67,2.42,1.39,3.42,2.18,1,.79,1.9,1.54,2.7,2.26l-2.76,4.2c-1.52-1.44-3-2.68-4.44-3.72-1.44-1.04-2.87-1.84-4.3-2.4-1.43-.56-2.9-.84-4.42-.84-1.12,0-2.03.21-2.74.64-.71.43-1.06,1.03-1.06,1.8s.36,1.39,1.08,1.76,1.6.56,2.64.56c.83,0,1.48-.14,1.96-.42.48-.28.82-.69,1.02-1.24.2-.55.3-1.21.3-1.98,0-.69-.03-1.6-.08-2.72-.05-1.12-.11-2.37-.18-3.76-.07-1.39-.13-2.83-.18-4.34-.05-1.51-.08-2.98-.08-4.42,0-1.52,0-2.9-.02-4.14-.01-1.24-.02-2.17-.02-2.78,0-.29-.03-.71-.08-1.24-.05-.53-.12-1-.2-1.4h5.72ZM329.64,108.48c1.15.11,2.3.19,3.46.26s2.34.1,3.54.1c2.45,0,4.89-.11,7.32-.32,2.43-.21,4.67-.55,6.72-1v5c-2.08.29-4.33.53-6.76.7-2.43.17-4.85.26-7.28.26-1.17,0-2.34-.02-3.5-.06-1.16-.04-2.33-.1-3.5-.18v-4.76Z"/><path class="cls-2" d="M355.12,113.36l2.72-3.4c.85.4,1.75.87,2.68,1.4s1.82,1.07,2.66,1.62c.84.55,1.53,1.07,2.06,1.58l-2.92,3.76c-.48-.51-1.13-1.06-1.94-1.66-.81-.6-1.68-1.19-2.6-1.78-.92-.59-1.81-1.09-2.66-1.52ZM356.24,133.36c.67-1.04,1.39-2.26,2.18-3.66.79-1.4,1.59-2.89,2.42-4.46.83-1.57,1.6-3.15,2.32-4.72l3.52,2.92c-.61,1.44-1.26,2.9-1.94,4.38s-1.39,2.95-2.12,4.4-1.45,2.86-2.14,4.22l-4.24-3.08ZM357,102.76l2.8-3.36c.83.37,1.69.82,2.6,1.34.91.52,1.77,1.06,2.58,1.62.81.56,1.47,1.09,1.98,1.6l-2.96,3.72c-.48-.51-1.11-1.06-1.9-1.66s-1.63-1.19-2.52-1.76c-.89-.57-1.75-1.07-2.58-1.5ZM367.72,102.04l4.08-1.8c.53.75,1.06,1.55,1.58,2.4.52.85.99,1.69,1.4,2.52.41.83.73,1.59.94,2.28l-4.36,2.04c-.16-.67-.43-1.43-.82-2.3-.39-.87-.82-1.75-1.3-2.64-.48-.89-.99-1.73-1.52-2.5ZM369,110.24h19.12v4.44h-14.44v21.88h-4.68v-26.32ZM372.12,124.68h15.92v4.04h-15.92v-4.04ZM372.16,117.64h15.88v4.04h-15.88v-4.04ZM377.48,99h4.84v14.2h-4.84v-14.2ZM385.88,110.24h4.68v21.2c0,1.12-.13,2.02-.4,2.7-.27.68-.79,1.21-1.56,1.58-.75.37-1.67.6-2.76.68s-2.4.12-3.92.12c-.08-.64-.26-1.4-.54-2.28-.28-.88-.58-1.63-.9-2.24.93.05,1.85.09,2.76.1.91.01,1.51.02,1.8.02.56-.03.84-.28.84-.76v-21.12ZM387.64,99.96l4.64,1.68c-.64,1.39-1.31,2.75-2.02,4.1-.71,1.35-1.37,2.5-1.98,3.46l-4.16-1.56c.4-.69.82-1.48,1.26-2.36.44-.88.86-1.79,1.26-2.72.4-.93.73-1.8,1-2.6Z"/><path class="cls-2" d="M424.2,113.32c-.53.37-1.01.73-1.44,1.06-.43.33-.81.66-1.16.98-.48.37-1.03.85-1.66,1.44-.63.59-1.27,1.18-1.94,1.78-.67.6-1.26,1.15-1.78,1.66-.52.51-.9.89-1.14,1.16.16-.03.4-.01.72.04.32.05.59.13.8.24.59.19,1.07.5,1.44.94.37.44.69,1.03.96,1.78.13.35.26.74.38,1.18.12.44.25.87.38,1.3.13.43.27.81.4,1.16.19.61.51,1.08.96,1.4.45.32,1.07.48,1.84.48,1.04,0,2.03-.03,2.96-.1.93-.07,1.81-.15,2.64-.26.83-.11,1.57-.23,2.24-.36l-.32,5.24c-.53.11-1.29.21-2.26.3-.97.09-1.97.17-3,.22-1.03.05-1.89.08-2.58.08-1.89,0-3.38-.25-4.46-.74-1.08-.49-1.87-1.39-2.38-2.7-.11-.4-.24-.85-.4-1.36-.16-.51-.3-1.01-.42-1.5-.12-.49-.23-.9-.34-1.22-.21-.72-.52-1.22-.92-1.5-.4-.28-.8-.42-1.2-.42-.43,0-.85.14-1.28.42-.43.28-.88.67-1.36,1.18-.27.27-.59.61-.98,1.04-.39.43-.83.91-1.32,1.44-.49.53-1,1.11-1.52,1.72-.52.61-1.06,1.25-1.62,1.92-.56.67-1.12,1.36-1.68,2.08l-4.72-3.32c.35-.32.76-.69,1.24-1.1.48-.41.99-.87,1.52-1.38.35-.35.84-.85,1.48-1.5.64-.65,1.38-1.39,2.22-2.22.84-.83,1.72-1.71,2.64-2.66s1.85-1.89,2.78-2.82c.93-.93,1.81-1.82,2.62-2.66.81-.84,1.53-1.58,2.14-2.22-.56.03-1.19.06-1.88.1-.69.04-1.41.08-2.16.12-.75.04-1.48.09-2.2.16-.72.07-1.39.13-2,.18-.61.05-1.16.11-1.64.16-.69.05-1.33.13-1.92.22-.59.09-1.09.17-1.52.22l-.48-5.52c.45.03,1.03.06,1.72.1.69.04,1.4.05,2.12.02.37,0,.99-.01,1.86-.04.87-.03,1.87-.07,3.02-.12,1.15-.05,2.31-.11,3.5-.18s2.31-.15,3.36-.24c1.05-.09,1.9-.18,2.54-.26.37-.05.79-.12,1.26-.2.47-.08.81-.16,1.02-.24l2.92,3.32ZM406.48,100.6c1.12.21,2.4.42,3.84.62,1.44.2,2.93.39,4.46.58,1.53.19,3,.34,4.4.46,1.4.12,2.61.22,3.62.3l-.64,4.68c-1.04-.08-2.26-.19-3.66-.34-1.4-.15-2.85-.31-4.36-.5-1.51-.19-2.99-.37-4.46-.56s-2.79-.39-3.96-.6l.76-4.64Z"/><path class="cls-2" d="M457.88,100.68c-.05.4-.1.85-.14,1.34-.04.49-.07.99-.1,1.5-.03.53-.05,1.25-.08,2.14-.03.89-.04,1.87-.04,2.94v6c0,1.12.03,2.37.08,3.74.05,1.37.13,2.76.22,4.16.09,1.4.17,2.71.24,3.92.07,1.21.1,2.22.1,3.02,0,1.12-.29,2.14-.88,3.06-.59.92-1.46,1.65-2.62,2.18s-2.62.8-4.38.8c-3.2,0-5.63-.59-7.28-1.76-1.65-1.17-2.48-2.81-2.48-4.92,0-1.36.39-2.55,1.18-3.58.79-1.03,1.92-1.83,3.4-2.42,1.48-.59,3.25-.88,5.3-.88,2.19,0,4.23.23,6.14.7,1.91.47,3.65,1.07,5.22,1.82,1.57.75,2.97,1.53,4.2,2.36,1.23.83,2.27,1.57,3.12,2.24l-2.88,4.48c-.96-.91-2.03-1.8-3.22-2.68-1.19-.88-2.48-1.68-3.88-2.4-1.4-.72-2.88-1.3-4.44-1.74-1.56-.44-3.21-.66-4.94-.66-1.39,0-2.46.24-3.22.72s-1.14,1.07-1.14,1.76c0,.51.16.95.48,1.32s.79.65,1.4.84,1.39.28,2.32.28c.72,0,1.34-.08,1.86-.24.52-.16.93-.45,1.22-.88.29-.43.44-1.03.44-1.8,0-.59-.02-1.43-.06-2.52-.04-1.09-.09-2.3-.14-3.62-.05-1.32-.11-2.62-.16-3.9-.05-1.28-.08-2.41-.08-3.4s0-1.97.02-3.02c.01-1.05.02-2.1.02-3.14s0-1.99.02-2.86c.01-.87.02-1.58.02-2.14,0-.37-.02-.83-.06-1.38-.04-.55-.1-1.01-.18-1.38h5.4ZM441.08,113.08c.64.11,1.4.21,2.28.32.88.11,1.78.19,2.7.24s1.79.1,2.62.14c.83.04,1.51.06,2.04.06,2.48,0,4.73-.05,6.74-.16,2.01-.11,3.9-.24,5.66-.4,1.76-.16,3.45-.35,5.08-.56l-.04,4.72c-1.39.16-2.73.29-4.02.4-1.29.11-2.61.2-3.96.28s-2.79.13-4.34.16c-1.55.03-3.28.04-5.2.04-.77,0-1.73-.02-2.88-.06-1.15-.04-2.31-.1-3.5-.18s-2.23-.17-3.14-.28l-.04-4.72ZM441.28,104.44c.72.11,1.52.21,2.4.32.88.11,1.78.21,2.7.3.92.09,1.79.16,2.62.2.83.04,1.55.06,2.16.06,2.72,0,5.43-.09,8.14-.26,2.71-.17,5.51-.5,8.42-.98l-.04,4.6c-1.36.19-2.93.36-4.72.52s-3.69.29-5.7.38-4.03.14-6.06.14c-.83,0-1.85-.03-3.06-.1-1.21-.07-2.42-.16-3.62-.28-1.2-.12-2.24-.23-3.12-.34l-.12-4.56Z"/><path class="cls-2" d="M477.52,105.76c1.17,0,2.51-.01,4-.04,1.49-.03,3.05-.05,4.68-.08,1.63-.03,3.23-.05,4.8-.08,1.57-.03,3.05-.05,4.44-.06s2.59-.02,3.6-.02,2.12,0,3.32-.02c1.2-.01,2.39-.02,3.56-.02h5.48l-.04,4.72c-1.25-.05-2.91-.1-4.96-.14-2.05-.04-4.56-.06-7.52-.06-1.81,0-3.65.02-5.52.06-1.87.04-3.72.09-5.56.14-1.84.05-3.61.11-5.32.18-1.71.07-3.32.15-4.84.26l-.12-4.84ZM499.16,117.6c0,2.19-.26,4-.78,5.44-.52,1.44-1.3,2.53-2.34,3.26-1.04.73-2.33,1.1-3.88,1.1-.75,0-1.53-.16-2.34-.48-.81-.32-1.57-.79-2.26-1.4-.69-.61-1.25-1.37-1.66-2.28-.41-.91-.62-1.97-.62-3.2,0-1.52.36-2.83,1.08-3.94.72-1.11,1.69-1.97,2.9-2.6s2.55-.94,4.02-.94c1.76,0,3.23.39,4.42,1.18,1.19.79,2.08,1.85,2.68,3.18s.9,2.84.9,4.52c0,1.31-.21,2.67-.64,4.08-.43,1.41-1.13,2.79-2.1,4.14-.97,1.35-2.28,2.57-3.92,3.66s-3.69,1.99-6.14,2.68l-4.28-4.24c1.71-.35,3.29-.8,4.76-1.36,1.47-.56,2.75-1.27,3.86-2.12,1.11-.85,1.97-1.91,2.6-3.16.63-1.25.94-2.76.94-4.52,0-1.28-.31-2.24-.94-2.88s-1.38-.96-2.26-.96c-.51,0-1,.12-1.48.36-.48.24-.87.6-1.16,1.08-.29.48-.44,1.07-.44,1.76,0,.91.31,1.63.94,2.18.63.55,1.34.82,2.14.82.64,0,1.21-.2,1.7-.6.49-.4.82-1.07.98-2s.03-2.19-.4-3.76l3.72,1ZM500.12,100.8c-.03.21-.06.55-.1,1.02-.04.47-.07.93-.1,1.4-.03.47-.05.81-.08,1.02-.03.53-.04,1.25-.04,2.14v2.98c0,1.09,0,2.19.02,3.3.01,1.11.03,2.15.04,3.12.01.97.02,1.78.02,2.42l-5-1.68v-4.78c0-1,0-1.99-.02-2.98s-.03-1.88-.06-2.68c-.03-.8-.05-1.4-.08-1.8-.05-.83-.12-1.55-.2-2.18s-.15-1.06-.2-1.3h5.8Z"/><path class="cls-2" d="M515.96,109.92c.72.05,1.43.07,2.14.06.71-.01,1.42-.03,2.14-.06.67-.03,1.46-.07,2.4-.14s1.93-.14,2.98-.22,2.11-.17,3.18-.26c1.07-.09,2.05-.17,2.96-.22.91-.05,1.65-.08,2.24-.08,1.44,0,2.69.23,3.76.7,1.07.47,1.91,1.26,2.54,2.38.63,1.12.94,2.64.94,4.56,0,1.57-.07,3.28-.2,5.12s-.37,3.6-.7,5.28c-.33,1.68-.79,3.11-1.38,4.28-.64,1.39-1.51,2.35-2.62,2.88-1.11.53-2.42.8-3.94.8-.75,0-1.56-.06-2.44-.18-.88-.12-1.67-.25-2.36-.38l-.84-5.28c.51.13,1.07.27,1.7.4s1.23.24,1.8.32c.57.08,1.03.12,1.38.12.67,0,1.25-.13,1.76-.38s.92-.7,1.24-1.34c.37-.77.68-1.77.92-3,.24-1.23.42-2.55.54-3.98.12-1.43.18-2.79.18-4.1,0-1.07-.15-1.85-.46-2.36-.31-.51-.75-.85-1.32-1.02-.57-.17-1.27-.26-2.1-.26-.62,0-1.44.05-2.48.14-1.04.09-2.15.2-3.34.32-1.19.12-2.29.25-3.3.38-1.01.13-1.8.23-2.36.28-.59.11-1.33.22-2.22.34s-1.65.23-2.26.34l-.48-5.44ZM532.2,101.72c-.11.51-.23,1.06-.36,1.66-.13.6-.25,1.15-.36,1.66-.11.59-.24,1.25-.4,1.98-.16.73-.31,1.47-.46,2.2s-.3,1.45-.46,2.14c-.27,1.15-.6,2.48-1,4-.4,1.52-.87,3.15-1.4,4.9s-1.13,3.5-1.8,5.26-1.37,3.47-2.12,5.14c-.75,1.67-1.55,3.17-2.4,4.5l-5.2-2.08c.93-1.25,1.8-2.66,2.62-4.22.81-1.56,1.55-3.16,2.22-4.8.67-1.64,1.26-3.27,1.78-4.88s.97-3.11,1.36-4.5.69-2.57.9-3.56c.37-1.81.67-3.56.88-5.24.21-1.68.29-3.27.24-4.76l5.96.6ZM545.96,105.76c.64.88,1.3,1.95,1.98,3.22s1.35,2.61,2.02,4.02c.67,1.41,1.27,2.77,1.8,4.08s.95,2.44,1.24,3.4l-5.08,2.32c-.24-1.12-.59-2.36-1.06-3.72-.47-1.36-1.01-2.74-1.62-4.14-.62-1.4-1.26-2.73-1.94-3.98-.68-1.25-1.38-2.31-2.1-3.16l4.76-2.04ZM545.24,100.2c.35.48.71,1.05,1.1,1.72s.77,1.33,1.14,2c.37.67.69,1.25.96,1.76l-3.24,1.4c-.27-.56-.57-1.17-.92-1.84-.35-.67-.71-1.33-1.08-2-.37-.67-.75-1.24-1.12-1.72l3.16-1.32ZM550,98.4c.35.51.72,1.09,1.12,1.76.4.67.79,1.33,1.18,2,.39.67.69,1.23.9,1.68l-3.16,1.36c-.43-.83-.93-1.77-1.52-2.82-.59-1.05-1.16-1.95-1.72-2.7l3.2-1.28Z"/><path class="cls-2" d="M564.2,135.8c-.8-1.01-1.69-2.04-2.68-3.08s-1.99-2.06-3-3.06-1.99-1.9-2.92-2.7l4.16-3.6c.96.77,1.99,1.69,3.08,2.74,1.09,1.05,2.14,2.11,3.14,3.18s1.83,2.01,2.5,2.84l-4.28,3.68Z"/><path class="cls-2" d="M96.8,170.96c-.05.38-.11.83-.16,1.38-.05.55-.09,1.11-.12,1.68-.03.57-.05,1.11-.08,1.62-.03.96-.03,2-.02,3.12.01,1.12.02,2.25.02,3.4s.03,2.43.1,3.94c.07,1.51.15,3.06.26,4.66s.19,3.09.26,4.46c.07,1.37.1,2.49.1,3.34s-.13,1.73-.4,2.56c-.27.83-.72,1.57-1.36,2.22-.64.65-1.51,1.17-2.6,1.56-1.09.39-2.48.58-4.16.58-1.89,0-3.63-.23-5.22-.7-1.59-.47-2.85-1.23-3.78-2.3-.93-1.07-1.4-2.51-1.4-4.32,0-1.39.4-2.65,1.2-3.78.8-1.13,2.01-2.03,3.62-2.7,1.61-.67,3.65-1,6.1-1,2.08,0,4.1.24,6.06.72,1.96.48,3.8,1.1,5.52,1.86,1.72.76,3.28,1.61,4.68,2.56,1.4.95,2.61,1.9,3.62,2.86l-3.08,4.76c-.99-.99-2.11-1.97-3.38-2.96-1.27-.99-2.65-1.88-4.14-2.68-1.49-.8-3.09-1.45-4.78-1.94-1.69-.49-3.45-.74-5.26-.74-1.55,0-2.77.25-3.66.74-.89.49-1.34,1.18-1.34,2.06,0,.99.45,1.68,1.36,2.08.91.4,2.07.6,3.48.6,1.25,0,2.15-.3,2.68-.9s.8-1.57.8-2.9c0-.69-.03-1.66-.08-2.9-.05-1.24-.11-2.59-.16-4.04-.05-1.45-.11-2.86-.16-4.22-.05-1.36-.08-2.52-.08-3.48v-4.6c0-.72-.01-1.36-.04-1.92-.03-.67-.06-1.29-.1-1.88-.04-.59-.08-1.12-.12-1.6-.04-.48-.11-.88-.22-1.2h6.04ZM93.72,178.6c.59,0,1.43,0,2.52-.02,1.09-.01,2.3-.05,3.62-.1,1.32-.05,2.65-.13,4-.22,1.35-.09,2.59-.19,3.74-.3l.16,4.76c-1.12.11-2.36.2-3.72.28s-2.71.14-4.04.18c-1.33.04-2.55.07-3.66.1-1.11.03-1.97.04-2.58.04l-.04-4.72Z"/><path class="cls-2" d="M122.68,172.84c.32.03.77.06,1.36.1s1.21.06,1.88.06h1.98c.89,0,1.89,0,3-.02,1.11-.01,2.23-.04,3.38-.08s2.19-.07,3.14-.1c.95-.03,1.67-.05,2.18-.08.48-.05.99-.11,1.52-.18.53-.07.99-.15,1.36-.26l2.68,3.52c-.35.19-.73.41-1.16.68-.43.27-.77.49-1.04.68-.59.43-1.25.93-1.98,1.52-.73.59-1.53,1.21-2.4,1.88-.87.67-1.74,1.34-2.62,2.02-.88.68-1.76,1.35-2.64,2.02.67-.19,1.34-.32,2.02-.4s1.27-.12,1.78-.12c2.35,0,4.41.43,6.2,1.28,1.79.85,3.17,2.01,4.16,3.48.99,1.47,1.48,3.13,1.48,5,0,2.64-.78,4.88-2.34,6.72s-3.95,3.17-7.16,3.98-7.29,1.03-12.22.66l-1.4-5.2c2.77.35,5.25.47,7.44.38,2.19-.09,4.03-.41,5.54-.96,1.51-.55,2.66-1.29,3.46-2.24.8-.95,1.2-2.07,1.2-3.38,0-1.57-.67-2.89-2.02-3.94-1.35-1.05-3.17-1.58-5.46-1.58-1.55,0-2.99.23-4.34.68-1.35.45-2.61,1.07-3.8,1.84-1.19.77-2.33,1.66-3.44,2.66-1.11,1-2.19,2.05-3.26,3.14l-3.76-3.96c1.07-.8,2.28-1.75,3.64-2.84,1.36-1.09,2.77-2.23,4.22-3.42,1.45-1.19,2.86-2.35,4.22-3.5,1.36-1.15,2.59-2.21,3.68-3.18,1.09-.97,1.96-1.79,2.6-2.46-.45,0-1.01.01-1.66.04-.65.03-1.37.07-2.14.12-.77.05-1.53.1-2.28.14-.75.04-1.43.07-2.06.1-.63.03-1.14.05-1.54.08-.48.03-1.04.07-1.68.14-.64.07-1.19.14-1.64.22l-.08-5.24Z"/><path class="cls-2" d="M168.84,171.32c-.11.83-.21,1.72-.3,2.68-.09.96-.17,1.84-.22,2.64-.03,1.09-.07,2.42-.14,3.98-.07,1.56-.12,3.19-.16,4.9-.04,1.71-.08,3.39-.12,5.04-.04,1.65-.06,3.09-.06,4.32,0,1.33.25,2.39.74,3.18.49.79,1.15,1.35,1.98,1.68.83.33,1.76.5,2.8.5,1.65,0,3.16-.22,4.52-.66,1.36-.44,2.6-1.03,3.72-1.78,1.12-.75,2.13-1.61,3.02-2.6.89-.99,1.7-2.03,2.42-3.12l3.64,4.4c-.64.96-1.48,1.97-2.52,3.04s-2.27,2.07-3.7,3-3.07,1.69-4.94,2.28c-1.87.59-3.93.88-6.2.88s-4.09-.34-5.7-1.02c-1.61-.68-2.87-1.73-3.76-3.16-.89-1.43-1.34-3.27-1.34-5.54,0-1.09.01-2.34.04-3.74.03-1.4.07-2.86.12-4.38.05-1.52.09-3.01.12-4.46.03-1.45.05-2.77.08-3.94.03-1.17.04-2.11.04-2.8,0-.96-.04-1.9-.12-2.82-.08-.92-.21-1.78-.4-2.58l6.44.08Z"/><path class="cls-2" d="M204.4,174.44c-.11.48-.19,1.03-.26,1.64-.07.61-.12,1.21-.16,1.8-.04.59-.06,1.07-.06,1.44-.03.88-.03,1.79-.02,2.72.01.93.04,1.89.08,2.86.04.97.1,1.94.18,2.9.19,1.92.45,3.61.8,5.08.35,1.47.8,2.61,1.36,3.42.56.81,1.27,1.22,2.12,1.22.45,0,.9-.25,1.34-.76.44-.51.84-1.17,1.2-1.98.36-.81.68-1.67.96-2.58.28-.91.53-1.76.74-2.56l4,4.88c-.88,2.32-1.75,4.17-2.62,5.54-.87,1.37-1.77,2.36-2.7,2.96s-1.95.9-3.04.9c-1.44,0-2.81-.48-4.1-1.44-1.29-.96-2.39-2.51-3.3-4.66-.91-2.15-1.55-5.01-1.92-8.58-.13-1.23-.23-2.52-.3-3.88-.07-1.36-.11-2.65-.12-3.88-.01-1.23-.02-2.24-.02-3.04,0-.56-.03-1.23-.08-2-.05-.77-.13-1.47-.24-2.08l6.16.08ZM224.4,175.36c.75.91,1.47,2.01,2.16,3.32.69,1.31,1.33,2.71,1.92,4.2.59,1.49,1.11,3.02,1.56,4.58.45,1.56.82,3.08,1.1,4.56.28,1.48.46,2.83.54,4.06l-5.28,2.04c-.13-1.63-.37-3.4-.72-5.32-.35-1.92-.81-3.85-1.4-5.8-.59-1.95-1.29-3.79-2.1-5.52s-1.77-3.23-2.86-4.48l5.08-1.64Z"/><path class="cls-2" d="M236.76,175.6c.8-.03,1.56-.06,2.28-.1.72-.04,1.27-.07,1.64-.1.83-.05,1.85-.14,3.06-.26,1.21-.12,2.57-.25,4.08-.38,1.51-.13,3.11-.27,4.82-.4,1.71-.13,3.48-.28,5.32-.44,1.39-.13,2.77-.25,4.14-.34s2.68-.17,3.92-.24,2.33-.11,3.26-.14l.04,5.12c-.72,0-1.55.01-2.48.04-.93.03-1.86.07-2.78.14s-1.74.19-2.46.38c-1.2.32-2.32.86-3.36,1.62-1.04.76-1.94,1.65-2.7,2.68-.76,1.03-1.35,2.13-1.78,3.32-.43,1.19-.64,2.38-.64,3.58,0,1.31.23,2.46.7,3.46.47,1,1.11,1.85,1.92,2.56.81.71,1.77,1.29,2.86,1.76s2.27.82,3.54,1.06c1.27.24,2.58.4,3.94.48l-1.88,5.48c-1.68-.11-3.31-.37-4.9-.8-1.59-.43-3.07-1.01-4.46-1.76-1.39-.75-2.59-1.66-3.62-2.74-1.03-1.08-1.84-2.32-2.44-3.72-.6-1.4-.9-2.97-.9-4.7,0-1.92.31-3.69.92-5.3.61-1.61,1.38-3.03,2.3-4.24.92-1.21,1.83-2.15,2.74-2.82-.75.11-1.65.21-2.7.32-1.05.11-2.19.23-3.4.38-1.21.15-2.45.3-3.7.46-1.25.16-2.46.34-3.62.54-1.16.2-2.21.39-3.14.58l-.52-5.48ZM263.6,182.24c.35.48.71,1.05,1.1,1.7.39.65.77,1.31,1.14,1.96s.69,1.25.96,1.78l-3.04,1.36c-.51-1.12-.99-2.11-1.46-2.96-.47-.85-1.02-1.72-1.66-2.6l2.96-1.24ZM268.08,180.4c.35.48.73,1.03,1.14,1.66.41.63.82,1.27,1.22,1.92.4.65.73,1.23,1,1.74l-3,1.44c-.53-1.07-1.05-2.01-1.54-2.84-.49-.83-1.07-1.68-1.74-2.56l2.92-1.36Z"/><path class="cls-2" d="M277.52,175.76c1.17,0,2.51-.01,4-.04,1.49-.03,3.05-.05,4.68-.08,1.63-.03,3.23-.05,4.8-.08,1.57-.03,3.05-.05,4.44-.06s2.59-.02,3.6-.02,2.12,0,3.32-.02c1.2-.01,2.39-.02,3.56-.02h5.48l-.04,4.72c-1.25-.05-2.91-.1-4.96-.14-2.05-.04-4.56-.06-7.52-.06-1.81,0-3.65.02-5.52.06-1.87.04-3.72.09-5.56.14-1.84.05-3.61.11-5.32.18-1.71.07-3.32.15-4.84.26l-.12-4.84ZM299.16,187.6c0,2.19-.26,4-.78,5.44-.52,1.44-1.3,2.53-2.34,3.26-1.04.73-2.33,1.1-3.88,1.1-.75,0-1.53-.16-2.34-.48-.81-.32-1.57-.79-2.26-1.4-.69-.61-1.25-1.37-1.66-2.28-.41-.91-.62-1.97-.62-3.2,0-1.52.36-2.83,1.08-3.94.72-1.11,1.69-1.97,2.9-2.6s2.55-.94,4.02-.94c1.76,0,3.23.39,4.42,1.18,1.19.79,2.08,1.85,2.68,3.18s.9,2.84.9,4.52c0,1.31-.21,2.67-.64,4.08-.43,1.41-1.13,2.79-2.1,4.14-.97,1.35-2.28,2.57-3.92,3.66s-3.69,1.99-6.14,2.68l-4.28-4.24c1.71-.35,3.29-.8,4.76-1.36,1.47-.56,2.75-1.27,3.86-2.12,1.11-.85,1.97-1.91,2.6-3.16.63-1.25.94-2.76.94-4.52,0-1.28-.31-2.24-.94-2.88s-1.38-.96-2.26-.96c-.51,0-1,.12-1.48.36-.48.24-.87.6-1.16,1.08-.29.48-.44,1.07-.44,1.76,0,.91.31,1.63.94,2.18.63.55,1.34.82,2.14.82.64,0,1.21-.2,1.7-.6.49-.4.82-1.07.98-2s.03-2.19-.4-3.76l3.72,1ZM300.12,170.8c-.03.21-.06.55-.1,1.02-.04.47-.07.93-.1,1.4-.03.47-.05.81-.08,1.02-.03.53-.04,1.25-.04,2.14v2.98c0,1.09,0,2.19.02,3.3.01,1.11.03,2.15.04,3.12.01.97.02,1.78.02,2.42l-5-1.68v-4.78c0-1,0-1.99-.02-2.98s-.03-1.88-.06-2.68c-.03-.8-.05-1.4-.08-1.8-.05-.83-.12-1.55-.2-2.18s-.15-1.06-.2-1.3h5.8Z"/><path class="cls-2" d="M316.24,179.64c.72.05,1.43.07,2.12.06.69-.01,1.41-.03,2.16-.06.64-.03,1.43-.07,2.38-.14.95-.07,1.95-.14,3-.22,1.05-.08,2.11-.17,3.18-.26s2.05-.17,2.96-.22c.91-.05,1.65-.08,2.24-.08,1.41,0,2.66.23,3.74.7s1.93,1.26,2.56,2.38c.63,1.12.94,2.64.94,4.56,0,1.57-.07,3.28-.22,5.12s-.38,3.6-.7,5.28-.77,3.11-1.36,4.28c-.64,1.39-1.51,2.35-2.62,2.88-1.11.53-2.42.8-3.94.8-.77,0-1.59-.06-2.46-.18-.87-.12-1.65-.25-2.34-.38l-.88-5.28c.53.13,1.11.27,1.74.4.63.13,1.23.24,1.8.32s1.03.12,1.38.12c.67,0,1.25-.13,1.76-.38s.92-.7,1.24-1.34c.37-.77.67-1.77.9-3s.4-2.55.52-3.98c.12-1.43.18-2.79.18-4.1,0-1.07-.15-1.85-.44-2.36-.29-.51-.73-.85-1.3-1.02-.57-.17-1.29-.26-2.14-.26-.59,0-1.41.05-2.46.14s-2.17.2-3.34.32c-1.17.12-2.27.25-3.3.38-1.03.13-1.82.23-2.38.28-.56.11-1.29.22-2.18.34-.89.12-1.65.23-2.26.34l-.48-5.44ZM332.48,171.44c-.13.51-.26,1.06-.38,1.66-.12.6-.23,1.15-.34,1.66-.11.59-.24,1.25-.4,1.98-.16.73-.31,1.47-.46,2.2-.15.73-.3,1.45-.46,2.14-.27,1.15-.6,2.48-1,4-.4,1.52-.87,3.15-1.4,4.9-.53,1.75-1.13,3.5-1.8,5.26-.67,1.76-1.37,3.47-2.12,5.14-.75,1.67-1.55,3.17-2.4,4.5l-5.2-2.08c.93-1.25,1.81-2.66,2.62-4.22.81-1.56,1.55-3.17,2.22-4.82.67-1.65,1.26-3.28,1.78-4.88.52-1.6.97-3.09,1.34-4.48.37-1.39.67-2.57.88-3.56.37-1.81.67-3.56.88-5.24.21-1.68.31-3.27.28-4.76l5.96.6ZM346.24,175.2c.64.85,1.3,1.93,1.98,3.22.68,1.29,1.35,2.66,2,4.1.65,1.44,1.25,2.83,1.8,4.16s.97,2.47,1.26,3.4l-5.08,2.36c-.27-1.12-.63-2.37-1.1-3.74-.47-1.37-1-2.77-1.6-4.2-.6-1.43-1.24-2.78-1.92-4.06-.68-1.28-1.38-2.35-2.1-3.2l4.76-2.04Z"/><path class="cls-2" d="M370.96,192.76c-.13-1.07-.05-2,.26-2.8.31-.8.75-1.52,1.32-2.16.57-.64,1.21-1.23,1.92-1.76.71-.53,1.37-1.05,2-1.56.63-.51,1.14-1.03,1.54-1.56s.6-1.12.6-1.76c0-.8-.2-1.48-.6-2.04-.4-.56-.98-.99-1.74-1.28s-1.67-.44-2.74-.44c-1.23,0-2.35.27-3.36.8-1.01.53-2.01,1.32-3,2.36l-3.28-3.04c1.28-1.47,2.79-2.65,4.54-3.54s3.67-1.34,5.78-1.34c1.95,0,3.67.29,5.18.88,1.51.59,2.69,1.47,3.56,2.66.87,1.19,1.3,2.67,1.3,4.46,0,.99-.21,1.85-.62,2.58-.41.73-.95,1.39-1.6,1.96-.65.57-1.34,1.12-2.06,1.64s-1.39,1.06-2,1.62c-.61.56-1.09,1.19-1.44,1.88-.35.69-.48,1.51-.4,2.44h-5.16ZM373.56,203.4c-1.01,0-1.85-.33-2.52-1-.67-.67-1-1.51-1-2.52s.33-1.89,1-2.56,1.51-1,2.52-1,1.85.33,2.52,1c.67.67,1,1.52,1,2.56s-.33,1.85-1,2.52-1.51,1-2.52,1Z"/><path class="cls-2" d="M93.09,6.48c-.04.12-.09.28-.15.48-.06.2-.11.4-.15.59s-.07.35-.1.47c-.07.33-.14.75-.23,1.24-.09.49-.17,1.03-.25,1.62-.08.59-.16,1.18-.23,1.79-.07.61-.13,1.19-.18,1.75-.05.56-.07,1.05-.07,1.48,0,.35.01.7.04,1.07.03.37.07.74.12,1.11.09-.28.2-.57.32-.88s.25-.61.38-.91.25-.58.34-.83l1,.82c-.17.49-.36,1.03-.55,1.61s-.37,1.13-.53,1.65-.27.95-.34,1.3c-.03.13-.05.29-.08.47-.03.18-.03.33-.02.45,0,.09,0,.21,0,.35,0,.14.02.27.03.39l-1.8.14c-.21-.71-.4-1.6-.55-2.69-.15-1.09-.23-2.31-.23-3.67,0-.75.03-1.52.1-2.32s.15-1.58.24-2.35.19-1.47.28-2.1c.09-.63.17-1.16.24-1.57.03-.24.06-.51.09-.81s.06-.58.07-.83l2.2.18ZM102.45,8.14v4.64c0,.65.01,1.3.04,1.94.03.64.06,1.26.09,1.85.03.59.06,1.15.09,1.68.03.53.04,1,.04,1.43,0,.84-.28,1.51-.85,2-.57.49-1.44.74-2.61.74-.75,0-1.42-.11-2.03-.33-.61-.22-1.09-.55-1.44-.98s-.53-.98-.53-1.65c0-.53.14-1.02.42-1.46s.71-.79,1.3-1.06c.59-.27,1.33-.4,2.22-.4s1.79.1,2.58.3c.79.2,1.49.46,2.12.79.63.33,1.18.67,1.67,1.03s.9.69,1.25.98l-1.06,1.74c-.64-.65-1.32-1.23-2.05-1.73s-1.48-.9-2.25-1.19c-.77-.29-1.55-.44-2.32-.44-.64,0-1.15.12-1.53.36-.38.24-.57.56-.57.96,0,.44.18.77.54.99.36.22.85.33,1.46.33.47,0,.83-.07,1.09-.22s.44-.35.55-.61.16-.56.16-.89c0-.31-.01-.69-.03-1.16s-.05-.98-.08-1.55c-.03-.57-.06-1.14-.07-1.72-.01-.58-.02-1.13-.02-1.65v-4.72h1.82ZM95.91,11.88c1.23.09,2.44.14,3.63.13,1.19,0,2.34-.05,3.44-.13,1.1-.08,2.12-.17,3.05-.28v1.82c-.87.09-1.85.17-2.96.24-1.11.07-2.27.11-3.48.12s-2.43,0-3.66-.06l-.02-1.84ZM96.23,7.22c.84.07,1.69.11,2.55.12.86.01,1.7,0,2.51-.02.81-.03,1.58-.07,2.31-.14.73-.07,1.39-.15,1.99-.24v1.78c-.59.05-1.24.11-1.97.16-.73.05-1.5.1-2.31.13-.81.03-1.65.05-2.51.05s-1.72-.02-2.57-.06v-1.78Z"/><path class="cls-2" d="M121.36,6.68c.28.01.56.03.84.04.28.01.58.02.9.02.17,0,.45,0,.83-.02.38-.01.81-.03,1.3-.05.49-.02.98-.04,1.49-.07.51-.03.97-.05,1.4-.08.43-.03.75-.05.98-.08.28-.03.52-.06.73-.1.21-.04.37-.08.49-.12l1.26,1.44c-.16.11-.37.25-.64.43-.27.18-.48.34-.64.47-.29.24-.62.51-.99.81s-.75.61-1.14.94c-.39.33-.79.65-1.19.98-.4.33-.78.64-1.15.94-.37.3-.7.56-.99.79.96-.11,1.97-.2,3.02-.28,1.05-.08,2.1-.14,3.13-.19,1.03-.05,2-.07,2.89-.07l.02,1.86c-.97-.05-1.92-.07-2.83-.06-.91.01-1.68.06-2.29.14-.47.07-.92.2-1.35.41s-.83.47-1.18.79c-.35.32-.63.68-.82,1.07-.19.39-.29.82-.29,1.27,0,.6.15,1.09.44,1.46.29.37.69.65,1.19.84.5.19,1.05.33,1.65.42.57.07,1.11.1,1.62.09.51,0,.95-.02,1.32-.05l-.42,2.06c-2.49.11-4.41-.22-5.76-.98s-2.02-1.93-2.02-3.52c0-.51.1-.99.3-1.44.2-.45.45-.86.74-1.21.29-.35.59-.64.88-.87-.99.08-2.07.19-3.25.34-1.18.15-2.33.32-3.45.52l-.18-1.9c.55-.07,1.14-.14,1.77-.21s1.2-.14,1.71-.19c.51-.35,1.05-.75,1.63-1.2s1.16-.92,1.74-1.41c.58-.49,1.12-.94,1.61-1.37.49-.43.89-.78,1.2-1.06-.16.01-.4.03-.73.05-.33.02-.68.04-1.07.06-.39.02-.77.04-1.16.06-.39.02-.74.04-1.05.06-.31.02-.56.04-.73.05-.25.01-.53.04-.82.07s-.57.06-.84.09l-.1-2.04ZM131.56,8.94c.24.35.49.74.75,1.17s.5.86.71,1.29l-1.26.56c-.2-.44-.41-.87-.64-1.28-.23-.41-.48-.82-.76-1.22l1.2-.52ZM133.72,8.1c.24.31.5.69.78,1.14s.53.88.74,1.28l-1.24.58c-.21-.43-.44-.85-.69-1.28-.25-.43-.51-.82-.79-1.18l1.2-.54Z"/><path class="cls-2" d="M145.61,6.92c-.09.13-.19.28-.3.45-.11.17-.22.34-.34.53-.23.35-.49.78-.8,1.29-.31.51-.63,1.06-.96,1.65-.33.59-.66,1.17-.98,1.74s-.6,1.09-.84,1.56c.43-.33.87-.58,1.33-.73s.9-.23,1.33-.23c.71,0,1.28.22,1.71.65.43.43.67,1.06.71,1.87.01.35.02.74.02,1.17s0,.86,0,1.27c0,.41.02.77.05,1.08.03.47.18.8.47.99s.62.29.99.29c.51,0,.96-.14,1.37-.42.41-.28.77-.66,1.08-1.13.31-.47.58-.99.8-1.56.22-.57.4-1.14.53-1.71l1.68,1.38c-.35,1.11-.78,2.08-1.3,2.91-.52.83-1.15,1.49-1.88,1.96-.73.47-1.6.71-2.6.71-.72,0-1.3-.13-1.75-.4s-.77-.6-.98-1c-.21-.4-.32-.81-.35-1.24-.03-.39-.04-.8-.05-1.25,0-.45-.01-.89-.02-1.32,0-.43-.02-.81-.05-1.13-.01-.4-.13-.71-.36-.93s-.55-.33-.96-.33c-.49,0-.97.15-1.43.44-.46.29-.87.68-1.24,1.16-.37.48-.68.99-.93,1.52-.15.29-.3.64-.46,1.05-.16.41-.32.83-.47,1.26-.15.43-.29.84-.41,1.23-.12.39-.22.71-.3.96l-2.2-.74c.25-.68.57-1.45.94-2.31.37-.86.79-1.77,1.24-2.72.45-.95.91-1.9,1.38-2.83.47-.93.91-1.82,1.34-2.66.43-.84.81-1.57,1.14-2.2s.59-1.1.76-1.42c.13-.24.27-.5.42-.79.15-.29.29-.61.42-.97l2.24.9Z"/><path class="cls-2" d="M397.03,7.82c.33.03.7.03,1.1,0,.45-.03.98-.07,1.59-.13.61-.06,1.22-.14,1.84-.24.62-.1,1.2-.2,1.73-.31.53-.11.95-.21,1.26-.32l.58,1.76c-.13.04-.3.09-.5.16s-.37.14-.52.22c-.27.2-.58.49-.94.86-.36.37-.73.82-1.11,1.34-.38.52-.73,1.1-1.06,1.74-.33.64-.59,1.33-.8,2.06s-.31,1.5-.31,2.3c0,.65.1,1.21.29,1.66s.46.82.81,1.09c.35.27.74.47,1.19.6s.92.19,1.41.19c1.56,0,2.77-.53,3.62-1.58.85-1.05,1.36-2.54,1.51-4.47s-.04-4.18-.59-6.75l1.86,3.18c.2,1.12.31,2.24.34,3.35.03,1.11-.07,2.17-.3,3.18s-.6,1.9-1.12,2.68c-.52.78-1.22,1.39-2.1,1.84-.88.45-1.97.67-3.26.67-.8,0-1.54-.11-2.23-.33-.69-.22-1.29-.55-1.8-.98-.51-.43-.91-.98-1.2-1.63-.29-.65-.43-1.41-.43-2.26s.1-1.71.29-2.5.45-1.52.78-2.21c.33-.69.7-1.33,1.12-1.94.42-.61.86-1.18,1.31-1.71-.31.03-.66.07-1.05.12-.39.05-.77.1-1.13.15s-.65.08-.88.11c-.2.03-.39.05-.56.08-.17.03-.37.06-.6.1l-.14-2.08ZM409.83,6.78c.09.61.23,1.27.41,1.97.18.7.43,1.42.74,2.16.31.74.72,1.48,1.23,2.22s1.13,1.45,1.88,2.13l-1.3,1.8c-.73-.8-1.39-1.68-1.98-2.65s-1.12-2.04-1.6-3.22c-.48-1.18-.94-2.46-1.38-3.85l2-.56Z"/><path class="cls-2" d="M420.26,9.72c-.07.31-.14.69-.21,1.16s-.15.95-.22,1.46c-.07.51-.14.99-.21,1.45-.07.46-.12.84-.16,1.15.93-.76,1.92-1.32,2.97-1.68,1.05-.36,2.14-.54,3.27-.54s2.03.2,2.82.59c.79.39,1.4.92,1.83,1.58.43.66.65,1.39.65,2.19,0,.89-.2,1.72-.6,2.47-.4.75-1.03,1.39-1.9,1.9-.87.51-1.99.88-3.37,1.09-1.38.21-3.04.24-4.99.08l-.6-2.06c2.05.25,3.77.26,5.15.02,1.38-.24,2.42-.67,3.11-1.29.69-.62,1.04-1.37,1.04-2.25,0-.49-.14-.93-.43-1.31-.29-.38-.68-.68-1.17-.9-.49-.22-1.06-.33-1.7-.33-1.23,0-2.35.22-3.37.67-1.02.45-1.86,1.07-2.53,1.87-.17.2-.31.38-.41.55-.1.17-.19.34-.27.51l-1.84-.44c.08-.37.16-.82.25-1.35.09-.53.17-1.09.25-1.7s.15-1.22.22-1.84c.07-.62.13-1.22.18-1.8s.09-1.09.12-1.53l2.12.28ZM420.44,5.92c.45.13,1.03.28,1.74.44s1.45.32,2.22.47c.77.15,1.51.29,2.2.4s1.26.19,1.7.23l-.46,1.94c-.4-.05-.87-.13-1.42-.23-.55-.1-1.13-.21-1.76-.33-.63-.12-1.24-.24-1.85-.36-.61-.12-1.16-.24-1.65-.36-.49-.12-.9-.22-1.22-.3l.5-1.9Z"/><path class="cls-2" d="M82.04,76.72c-.07.21-.14.46-.21.73s-.14.51-.19.71c-.15.64-.29,1.38-.43,2.21s-.25,1.7-.34,2.59c-.09.89-.12,1.77-.11,2.63.01.86.11,1.66.28,2.41.13-.39.29-.83.48-1.33.19-.5.37-.97.54-1.41l1.02.64c-.17.51-.35,1.05-.52,1.63-.17.58-.33,1.13-.47,1.66-.14.53-.25.97-.33,1.33-.04.15-.07.31-.09.49-.02.18-.02.32,0,.43,0,.11,0,.23.02.37.01.14.03.27.04.39l-1.76.18c-.13-.4-.29-.94-.46-1.63s-.32-1.45-.44-2.28c-.12-.83-.18-1.66-.18-2.49,0-1.09.04-2.14.13-3.15s.19-1.93.3-2.77c.11-.84.2-1.53.27-2.06.04-.27.07-.53.08-.8.01-.27.03-.51.04-.72l2.34.24ZM84.52,80.44c.31.04.63.08.98.11s.71.06,1.08.08c.37.02.73.03,1.08.03.84,0,1.71-.02,2.62-.06.91-.04,1.78-.11,2.63-.2.85-.09,1.6-.21,2.25-.34v2.06c-.64.08-1.37.15-2.2.22-.83.07-1.69.12-2.59.16s-1.79.06-2.67.06c-.31,0-.65,0-1.03-.02-.38-.01-.75-.03-1.12-.05-.37-.02-.71-.04-1.03-.05v-2ZM91.86,76.4c-.01.19-.02.39-.03.6,0,.21-.02.43-.03.66-.01.16-.02.42,0,.77,0,.35.01.75.02,1.2,0,.45,0,.9,0,1.35s0,.88.01,1.27,0,.7,0,.93c0,1.16-.03,2.23-.1,3.21-.07.98-.23,1.89-.5,2.72-.27.83-.69,1.61-1.27,2.32-.58.71-1.39,1.38-2.43,2.01l-1.82-1.42c.35-.15.72-.35,1.12-.61s.73-.53.98-.81c.48-.43.86-.89,1.13-1.38.27-.49.48-1.04.62-1.63.14-.59.23-1.25.27-1.98s.06-1.54.06-2.45c0-.33,0-.76,0-1.28,0-.52-.02-1.06-.03-1.62-.01-.56-.03-1.07-.04-1.54-.01-.47-.03-.82-.06-1.06-.01-.23-.04-.45-.08-.68-.04-.23-.08-.42-.12-.58h2.3ZM93.44,75.8c.19.37.39.83.61,1.37.22.54.39,1.01.51,1.41l-1.16.4c-.15-.44-.32-.92-.51-1.45s-.39-.98-.59-1.37l1.14-.36ZM95.47,75.16c.19.39.39.85.61,1.38s.4,1,.53,1.4l-1.16.38c-.15-.44-.32-.92-.52-1.43-.2-.51-.4-.96-.6-1.35l1.14-.38Z"/><path class="cls-2" d="M105.58,76.92c-.09.13-.19.28-.3.45-.11.17-.22.34-.34.53-.23.35-.49.78-.8,1.29-.31.51-.63,1.06-.96,1.65-.33.59-.66,1.17-.98,1.74s-.6,1.09-.84,1.56c.43-.33.87-.58,1.33-.73s.9-.23,1.33-.23c.71,0,1.28.22,1.71.65.43.43.67,1.06.71,1.87.01.35.02.74.02,1.17s0,.86,0,1.27c0,.41.02.77.05,1.08.03.47.18.8.47.99s.62.29.99.29c.51,0,.96-.14,1.37-.42.41-.28.77-.66,1.08-1.13.31-.47.58-.99.8-1.56.22-.57.4-1.14.53-1.71l1.68,1.38c-.35,1.11-.78,2.08-1.3,2.91-.52.83-1.15,1.49-1.88,1.96-.73.47-1.6.71-2.6.71-.72,0-1.3-.13-1.75-.4s-.77-.6-.98-1c-.21-.4-.32-.81-.35-1.24-.03-.39-.04-.8-.05-1.25,0-.45-.01-.89-.02-1.32,0-.43-.02-.81-.05-1.13-.01-.4-.13-.71-.36-.93s-.55-.33-.96-.33c-.49,0-.97.15-1.43.44-.46.29-.87.68-1.24,1.16-.37.48-.68.99-.93,1.52-.15.29-.3.64-.46,1.05-.16.41-.32.83-.47,1.26-.15.43-.29.84-.41,1.23-.12.39-.22.71-.3.96l-2.2-.74c.25-.68.57-1.45.94-2.31.37-.86.79-1.77,1.24-2.72.45-.95.91-1.9,1.38-2.83.47-.93.91-1.82,1.34-2.66.43-.84.81-1.57,1.14-2.2s.59-1.1.76-1.42c.13-.24.27-.5.42-.79.15-.29.29-.61.42-.97l2.24.9Z"/><path class="cls-2" d="M118.8,79.02c1.17.13,2.29.23,3.36.28,1.07.05,2.07.07,3.01.04.94-.03,1.8-.08,2.57-.16.57-.07,1.15-.15,1.74-.25.59-.1,1.17-.22,1.75-.36.58-.14,1.12-.29,1.63-.45l.24,1.98c-.45.13-.95.25-1.49.36-.54.11-1.09.21-1.64.3-.55.09-1.08.17-1.59.22-1.31.16-2.75.25-4.33.26s-3.32-.05-5.21-.2l-.04-2.02ZM122.28,85.58c-.29.48-.53.94-.7,1.39-.17.45-.26.9-.26,1.37,0,.89.39,1.55,1.18,1.96.79.41,1.9.63,3.34.64,1.04,0,2-.04,2.87-.13.87-.09,1.66-.21,2.37-.37l-.1,2.02c-.6.09-1.34.19-2.21.29-.87.1-1.89.15-3.05.15-1.31-.01-2.44-.18-3.4-.5-.96-.32-1.7-.8-2.22-1.43-.52-.63-.78-1.41-.78-2.33,0-.59.09-1.16.27-1.72.18-.56.42-1.15.73-1.78l1.96.44ZM126.1,77.74c-.07-.23-.15-.49-.25-.8-.1-.31-.2-.61-.31-.9l2.14-.26c.08.44.18.91.31,1.41.13.5.27,1,.43,1.49.16.49.32.95.48,1.38.31.85.68,1.7,1.13,2.53.45.83.86,1.51,1.23,2.03.16.21.32.42.48.62.16.2.32.39.48.56l-.98,1.42c-.27-.05-.6-.11-1.01-.16-.41-.05-.85-.11-1.33-.16-.48-.05-.96-.1-1.43-.15-.47-.05-.9-.08-1.29-.11l.16-1.66c.36.03.74.06,1.14.09.4.03.78.06,1.14.09s.65.05.86.08c-.25-.4-.53-.87-.83-1.4-.3-.53-.59-1.09-.87-1.68-.28-.59-.53-1.17-.74-1.74s-.4-1.09-.55-1.54-.28-.83-.39-1.14ZM131.58,75.28c.17.23.36.51.56.84.2.33.39.67.58,1.01.19.34.35.64.48.89l-1.32.58c-.12-.28-.27-.59-.45-.92-.18-.33-.37-.67-.57-1-.2-.33-.39-.62-.58-.86l1.3-.54ZM133.88,74.46c.17.24.36.53.57.87s.41.67.6,1c.19.33.35.62.47.87l-1.3.56c-.21-.43-.47-.9-.77-1.42-.3-.52-.59-.97-.87-1.34l1.3-.54Z"/><path class="cls-2" d="M140.01,77.68c-.04.19-.07.41-.1.68s-.05.53-.07.8-.03.49-.03.68c0,.41,0,.87,0,1.38,0,.51.02,1.02.03,1.55.01.53.05,1.05.1,1.57.11,1.05.27,1.97.48,2.76.21.79.49,1.4.82,1.84.33.44.72.66,1.16.66.25,0,.49-.12.72-.36s.44-.56.64-.96c.2-.4.38-.84.55-1.31.17-.47.31-.93.43-1.37l1.58,1.86c-.43,1.13-.85,2.04-1.27,2.71-.42.67-.85,1.16-1.29,1.45-.44.29-.91.44-1.4.44-.67,0-1.3-.23-1.91-.69-.61-.46-1.13-1.22-1.57-2.27-.44-1.05-.75-2.46-.94-4.22-.07-.59-.12-1.22-.15-1.9-.03-.68-.05-1.33-.06-1.94,0-.61,0-1.12,0-1.52,0-.25,0-.56-.03-.93-.02-.37-.06-.68-.13-.95l2.44.04ZM150.25,78.18c.36.47.71,1.01,1.05,1.63.34.62.65,1.29.93,2.01.28.72.53,1.45.75,2.2.22.75.4,1.49.55,2.22s.25,1.43.3,2.08l-2.06.8c-.08-.87-.21-1.77-.4-2.72-.19-.95-.43-1.88-.72-2.81s-.64-1.8-1.03-2.62c-.39-.82-.84-1.53-1.35-2.13l1.98-.66Z"/><path class="cls-2" d="M367.62,81.94c1.17.11,2.31.18,3.41.22,1.1.04,2.14.04,3.13,0s1.87-.11,2.66-.2c1-.09,1.89-.23,2.67-.4.78-.17,1.45-.35,2.01-.52l.32,1.88c-.57.15-1.23.29-1.96.43-.73.14-1.51.26-2.34.35s-1.78.16-2.86.21-2.21.06-3.4.04c-1.19-.02-2.37-.07-3.54-.15l-.1-1.86ZM368,77.8c1.43.16,2.77.25,4.02.28s2.4,0,3.44-.08c.85-.08,1.69-.2,2.51-.36.82-.16,1.62-.37,2.39-.62l.26,1.82c-.68.2-1.43.38-2.26.53s-1.65.27-2.48.35c-1.03.08-2.21.12-3.55.11s-2.74-.08-4.21-.21l-.12-1.82ZM370.94,86.38c-.24.35-.44.7-.61,1.05-.17.35-.25.75-.25,1.19,0,.79.36,1.37,1.08,1.75.72.38,1.81.57,3.28.57.93,0,1.8-.04,2.6-.11.8-.07,1.56-.18,2.28-.33l-.1,2.02c-.69.11-1.45.19-2.27.26-.82.07-1.65.1-2.49.1-1.32,0-2.45-.14-3.38-.41s-1.65-.69-2.16-1.26c-.51-.57-.77-1.3-.78-2.21,0-.6.08-1.14.24-1.61.16-.47.36-.94.6-1.39l1.96.38ZM374.38,77.88c-.08-.33-.17-.66-.28-.99-.11-.33-.22-.66-.34-.99l2.14-.24c.07.59.17,1.18.31,1.79.14.61.3,1.19.47,1.76.17.57.34,1.1.5,1.59.17.49.39,1.03.64,1.62s.53,1.17.84,1.74.62,1.11.94,1.6c.12.17.25.34.38.49s.28.3.44.45l-1,1.48c-.37-.09-.82-.18-1.35-.25-.53-.07-1.07-.14-1.62-.21-.55-.07-1.07-.12-1.55-.16l.16-1.52c.48.04.99.09,1.52.14.53.05.95.1,1.26.14-.55-.87-1.02-1.75-1.42-2.64-.4-.89-.74-1.73-1.02-2.5-.16-.47-.3-.89-.42-1.26-.12-.37-.23-.72-.32-1.05-.09-.33-.19-.66-.28-.99Z"/><rect class="cls-1" width="768" height="240"/></g></svg>