<?xml version="1.0" encoding="UTF-8"?><svg id="_レイヤー_2" xmlns="http://www.w3.org/2000/svg" viewBox="0 0 768 80"><defs><style>.cls-1{fill:none;}.cls-1,.cls-2{stroke-width:0px;}.cls-2{fill:#333;}</style></defs><g id="_2"><rect class="cls-1" width="768" height="80"/><path class="cls-2" d="M252.32,6.33c-.05.21-.12.46-.2.73-.08.27-.15.51-.2.71-.15.65-.29,1.39-.43,2.22-.14.83-.25,1.69-.34,2.58-.09.89-.12,1.77-.1,2.64.02.87.11,1.67.27,2.4.13-.37.29-.81.48-1.32.19-.51.37-.98.54-1.42l1.04.66c-.17.49-.35,1.03-.52,1.62s-.33,1.14-.48,1.67c-.15.53-.26.96-.34,1.31-.03.16-.05.33-.07.51-.02.18-.03.32-.03.43s0,.23.02.36c.01.13.03.26.04.38l-1.74.2c-.13-.41-.29-.96-.47-1.65-.18-.69-.33-1.44-.45-2.27-.12-.83-.18-1.65-.18-2.48,0-1.09.04-2.15.13-3.16.09-1.01.19-1.94.3-2.77s.21-1.52.29-2.07c.04-.25.07-.51.08-.78.01-.27.02-.51.02-.72l2.34.22ZM254.82,10.05c.31.04.63.08.98.12.35.04.7.07,1.07.08.37.01.73.02,1.09.02.84,0,1.71-.02,2.61-.06.9-.04,1.77-.1,2.62-.19.85-.09,1.6-.2,2.27-.33l-.02,2.04c-.63.09-1.35.17-2.18.24-.83.07-1.69.12-2.6.15s-1.8.05-2.68.05c-.29,0-.63,0-1.01-.02-.38-.01-.76-.03-1.13-.04s-.71-.03-1.02-.04v-2.02ZM262.38,6.03c-.03.19-.05.39-.06.6-.01.21-.03.43-.04.66v.77c0,.35,0,.75.01,1.19,0,.44.01.89.02,1.35,0,.46,0,.88,0,1.27v.94c0,1.16-.03,2.23-.1,3.2s-.23,1.88-.5,2.72c-.27.84-.69,1.62-1.27,2.33-.58.71-1.38,1.38-2.41,2.01l-1.84-1.44c.35-.15.72-.35,1.12-.61s.73-.52,1-.79c.47-.44.84-.9,1.11-1.39.27-.49.48-1.03.62-1.62.14-.59.23-1.25.28-1.98s.07-1.54.07-2.45c0-.35,0-.78,0-1.3,0-.52-.02-1.06-.04-1.61-.02-.55-.04-1.06-.05-1.53-.01-.47-.03-.82-.04-1.06-.01-.24-.04-.47-.09-.7s-.08-.41-.11-.56h2.32Z"/><path class="cls-2" d="M107.47,35.49c-.35.72-.67,1.48-.96,2.28-.29.8-.56,1.53-.8,2.2-.56,1.52-1.22,3.16-1.98,4.92s-1.6,3.49-2.52,5.18c-.92,1.69-1.93,3.22-3.02,4.58-1.12,1.41-2.47,2.86-4.06,4.34-1.59,1.48-3.32,2.85-5.2,4.12s-3.85,2.31-5.9,3.14l-4.56-4.68c2.08-.72,4.05-1.61,5.92-2.68,1.87-1.07,3.59-2.27,5.16-3.6,1.57-1.33,2.95-2.71,4.12-4.12,1.28-1.55,2.42-3.3,3.42-5.26s1.85-3.98,2.56-6.06,1.23-4.07,1.58-5.96l6.24,1.6Z"/><path class="cls-2" d="M117.79,46.25c.48.03,1.09.06,1.84.1.75.04,1.53.07,2.34.1.81.03,1.57.04,2.26.04h21.48c.93,0,1.81-.03,2.64-.1.83-.07,1.51-.11,2.04-.14v6.28c-.45-.03-1.13-.07-2.04-.12-.91-.05-1.79-.08-2.64-.08h-21.48c-1.15,0-2.32.02-3.52.06-1.2.04-2.17.09-2.92.14v-6.28Z"/><path class="cls-2" d="M166.67,60.93v-23c0-.69-.03-1.49-.1-2.4s-.17-1.71-.3-2.4h6.24c-.08.69-.16,1.46-.24,2.3-.08.84-.12,1.67-.12,2.5v23c0,.37.01.9.04,1.58.03.68.08,1.38.16,2.1.08.72.13,1.36.16,1.92h-6.24c.11-.8.2-1.73.28-2.8s.12-2,.12-2.8ZM170.95,43.49c1.33.35,2.83.79,4.48,1.34,1.65.55,3.32,1.13,5,1.74,1.68.61,3.26,1.22,4.74,1.82,1.48.6,2.71,1.15,3.7,1.66l-2.28,5.52c-1.12-.59-2.36-1.18-3.72-1.78-1.36-.6-2.74-1.18-4.14-1.74-1.4-.56-2.77-1.08-4.12-1.56-1.35-.48-2.57-.91-3.66-1.28v-5.72Z"/><path class="cls-2" d="M213.55,32.69c-.13.72-.35,1.65-.64,2.8-.29,1.15-.72,2.44-1.28,3.88-.43.99-.91,2.01-1.46,3.06-.55,1.05-1.1,1.99-1.66,2.82.35-.16.79-.3,1.32-.42.53-.12,1.09-.21,1.66-.28.57-.07,1.09-.1,1.54-.1,1.68,0,3.07.48,4.18,1.44,1.11.96,1.66,2.39,1.66,4.28,0,.53,0,1.19.02,1.96s.03,1.58.06,2.42c.03.84.05,1.66.08,2.46.03.8.04,1.52.04,2.16h-4.8c.05-.45.09-.99.1-1.62.01-.63.03-1.29.04-1.98.01-.69.03-1.37.04-2.02.01-.65.02-1.25.02-1.78,0-1.28-.34-2.17-1.02-2.66s-1.43-.74-2.26-.74c-1.12,0-2.25.27-3.38.82s-2.09,1.19-2.86,1.94c-.59.59-1.18,1.24-1.78,1.96s-1.25,1.53-1.94,2.44l-4.28-3.2c1.73-1.6,3.23-3.15,4.5-4.64,1.27-1.49,2.34-2.97,3.22-4.44.88-1.47,1.6-2.93,2.16-4.4.4-1.07.73-2.18.98-3.34.25-1.16.41-2.25.46-3.26l5.28.44ZM198.51,36.37c1.01.16,2.19.28,3.52.36,1.33.08,2.51.12,3.52.12,1.76,0,3.69-.04,5.78-.12,2.09-.08,4.22-.22,6.38-.42,2.16-.2,4.21-.46,6.16-.78l-.04,4.64c-1.41.19-2.94.35-4.58.5-1.64.15-3.31.27-5,.36-1.69.09-3.31.16-4.86.2-1.55.04-2.92.06-4.12.06-.53,0-1.19,0-1.98-.02-.79-.01-1.59-.04-2.42-.08-.83-.04-1.61-.09-2.36-.14v-4.68ZM230.19,47.73c-.43.13-.93.3-1.5.5-.57.2-1.15.4-1.72.6-.57.2-1.09.39-1.54.58-1.28.51-2.79,1.12-4.54,1.84s-3.57,1.56-5.46,2.52c-1.2.64-2.21,1.27-3.04,1.88-.83.61-1.45,1.23-1.88,1.86-.43.63-.64,1.31-.64,2.06,0,.56.12,1.02.36,1.38.24.36.6.65,1.08.86.48.21,1.08.36,1.8.44.72.08,1.57.12,2.56.12,1.71,0,3.59-.1,5.64-.3,2.05-.2,3.96-.47,5.72-.82l-.16,5.16c-.85.11-1.93.22-3.24.34s-2.66.21-4.06.26c-1.4.05-2.74.08-4.02.08-2.08,0-3.95-.2-5.6-.6-1.65-.4-2.95-1.09-3.9-2.06-.95-.97-1.42-2.31-1.42-4.02,0-1.39.31-2.64.94-3.76.63-1.12,1.46-2.13,2.5-3.04,1.04-.91,2.18-1.73,3.42-2.46,1.24-.73,2.46-1.41,3.66-2.02,1.23-.64,2.33-1.19,3.32-1.64.99-.45,1.91-.86,2.78-1.22.87-.36,1.7-.73,2.5-1.1.77-.35,1.52-.69,2.24-1.02.72-.33,1.45-.69,2.2-1.06l2,4.64Z"/><path class="cls-2" d="M235.23,45.09l2.72-3.4c.85.4,1.75.87,2.68,1.4.93.53,1.82,1.07,2.66,1.62s1.53,1.07,2.06,1.58l-2.92,3.76c-.48-.51-1.13-1.06-1.94-1.66-.81-.6-1.68-1.19-2.6-1.78s-1.81-1.09-2.66-1.52ZM236.35,65.09c.67-1.04,1.39-2.26,2.18-3.66.79-1.4,1.59-2.89,2.42-4.46.83-1.57,1.6-3.15,2.32-4.72l3.52,2.92c-.61,1.44-1.26,2.9-1.94,4.38-.68,1.48-1.39,2.95-2.12,4.4s-1.45,2.86-2.14,4.22l-4.24-3.08ZM237.11,34.49l2.8-3.36c.83.37,1.69.82,2.6,1.34.91.52,1.77,1.06,2.58,1.62s1.47,1.09,1.98,1.6l-2.96,3.72c-.48-.51-1.11-1.06-1.9-1.66-.79-.6-1.63-1.19-2.52-1.76-.89-.57-1.75-1.07-2.58-1.5ZM247.83,33.77l4.08-1.8c.53.75,1.06,1.55,1.58,2.4.52.85.99,1.69,1.4,2.52.41.83.73,1.59.94,2.28l-4.36,2.04c-.16-.67-.43-1.43-.82-2.3s-.82-1.75-1.3-2.64c-.48-.89-.99-1.73-1.52-2.5ZM249.11,41.97h19.12v4.44h-14.44v21.88h-4.68v-26.32ZM252.23,56.41h15.92v4.04h-15.92v-4.04ZM252.27,49.37h15.88v4.04h-15.88v-4.04ZM257.59,30.73h4.84v14.2h-4.84v-14.2ZM265.99,41.97h4.68v21.2c0,1.12-.13,2.02-.4,2.7-.27.68-.79,1.21-1.56,1.58-.75.37-1.67.6-2.76.68-1.09.08-2.4.12-3.92.12-.08-.64-.26-1.4-.54-2.28-.28-.88-.58-1.63-.9-2.24.93.05,1.85.09,2.76.1.91.01,1.51.02,1.8.02.56-.03.84-.28.84-.76v-21.12ZM267.75,31.69l4.64,1.68c-.64,1.39-1.31,2.75-2.02,4.1-.71,1.35-1.37,2.5-1.98,3.46l-4.16-1.56c.4-.69.82-1.48,1.26-2.36s.86-1.79,1.26-2.72.73-1.8,1-2.6Z"/><path class="cls-2" d="M288.95,33.05c-.11.83-.21,1.72-.3,2.68-.09.96-.17,1.84-.22,2.64-.03,1.09-.07,2.42-.14,3.98-.07,1.56-.12,3.19-.16,4.9-.04,1.71-.08,3.39-.12,5.04-.04,1.65-.06,3.09-.06,4.32,0,1.33.25,2.39.74,3.18.49.79,1.15,1.35,1.98,1.68.83.33,1.76.5,2.8.5,1.65,0,3.16-.22,4.52-.66,1.36-.44,2.6-1.03,3.72-1.78s2.13-1.61,3.02-2.6,1.7-2.03,2.42-3.12l3.64,4.4c-.64.96-1.48,1.97-2.52,3.04-1.04,1.07-2.27,2.07-3.7,3-1.43.93-3.07,1.69-4.94,2.28-1.87.59-3.93.88-6.2.88s-4.09-.34-5.7-1.02-2.87-1.73-3.76-3.16c-.89-1.43-1.34-3.27-1.34-5.54,0-1.09.01-2.34.04-3.74s.07-2.86.12-4.38c.05-1.52.09-3.01.12-4.46.03-1.45.05-2.77.08-3.94.03-1.17.04-2.11.04-2.8,0-.96-.04-1.9-.12-2.82-.08-.92-.21-1.78-.4-2.58l6.44.08Z"/><path class="cls-2" d="M316.95,37.25c.8-.03,1.56-.06,2.28-.1.72-.04,1.28-.07,1.68-.1.83-.08,1.84-.17,3.04-.28,1.2-.11,2.55-.23,4.06-.36s3.11-.27,4.82-.42c1.71-.15,3.48-.3,5.32-.46,1.39-.11,2.77-.21,4.16-.3,1.39-.09,2.7-.17,3.94-.24,1.24-.07,2.31-.11,3.22-.14l.04,5.12c-.72,0-1.55.01-2.48.04-.93.03-1.86.07-2.78.14-.92.07-1.74.18-2.46.34-1.2.32-2.31.86-3.34,1.62-1.03.76-1.93,1.66-2.7,2.7-.77,1.04-1.37,2.15-1.78,3.34-.41,1.19-.62,2.38-.62,3.58,0,1.31.23,2.46.68,3.46.45,1,1.09,1.85,1.9,2.56.81.71,1.77,1.29,2.86,1.76,1.09.47,2.27.82,3.54,1.06,1.27.24,2.58.4,3.94.48l-1.88,5.48c-1.68-.11-3.31-.37-4.9-.8-1.59-.43-3.07-1.01-4.44-1.76-1.37-.75-2.58-1.66-3.62-2.74s-1.85-2.32-2.44-3.72c-.59-1.4-.88-2.97-.88-4.7,0-1.95.31-3.72.92-5.32.61-1.6,1.37-3.01,2.28-4.22s1.81-2.15,2.72-2.82c-.75.08-1.65.18-2.7.3-1.05.12-2.19.25-3.4.4-1.21.15-2.45.3-3.7.46s-2.46.34-3.62.54c-1.16.2-2.21.39-3.14.58l-.52-5.48Z"/><path class="cls-2" d="M357.75,47.61c1.44.48,2.9.85,4.38,1.12,1.48.27,2.95.45,4.4.54,1.45.09,2.85.14,4.18.14,1.23,0,2.55-.04,3.98-.12,1.43-.08,2.78-.2,4.06-.36l-.12,4.76c-1.12.11-2.27.19-3.44.26-1.17.07-2.39.1-3.64.1-2.67,0-5.23-.14-7.68-.42-2.45-.28-4.59-.67-6.4-1.18l.28-4.84ZM358.59,37.69c1.2.37,2.51.69,3.92.94,1.41.25,2.87.44,4.36.56,1.49.12,2.91.18,4.24.18,1.57,0,3.04-.05,4.4-.16,1.36-.11,2.55-.24,3.56-.4l-.16,4.76c-1.2.11-2.4.2-3.6.28-1.2.08-2.64.12-4.32.12-1.36,0-2.77-.07-4.24-.22-1.47-.15-2.92-.35-4.36-.6-1.44-.25-2.79-.54-4.04-.86l.24-4.6ZM372.87,32.73c-.16.72-.29,1.36-.4,1.92-.11.56-.2,1.11-.28,1.64-.11.56-.23,1.37-.38,2.42-.15,1.05-.31,2.24-.48,3.56-.17,1.32-.35,2.69-.52,4.12-.17,1.43-.34,2.82-.5,4.18-.16,1.36-.29,2.6-.38,3.72-.09,1.12-.14,2.01-.14,2.68,0,1.65.5,2.91,1.5,3.78s2.49,1.3,4.46,1.3c1.87,0,3.44-.26,4.72-.78,1.28-.52,2.25-1.22,2.92-2.1s1-1.87,1-2.96c0-1.36-.35-2.69-1.06-3.98-.71-1.29-1.73-2.55-3.06-3.78l5.64-1.2c1.33,1.68,2.31,3.27,2.94,4.78.62,1.51.94,3.11.94,4.82,0,2-.57,3.79-1.72,5.36-1.15,1.57-2.78,2.8-4.9,3.68-2.12.88-4.65,1.32-7.58,1.32-2.08,0-3.93-.32-5.56-.96-1.63-.64-2.89-1.65-3.8-3.04s-1.36-3.19-1.36-5.4c0-.83.07-1.93.2-3.3.13-1.37.3-2.89.5-4.56.2-1.67.41-3.36.62-5.08.21-1.72.41-3.35.58-4.9.17-1.55.31-2.88.42-4,.05-.93.09-1.65.1-2.14s0-.97-.06-1.42l5.64.32Z"/><path class="cls-2" d="M416.91,32.69c-.05.37-.11.83-.16,1.38-.05.55-.09,1.11-.12,1.68-.03.57-.05,1.11-.08,1.62-.03.96-.03,2-.02,3.12.01,1.12.02,2.25.02,3.4s.03,2.43.1,3.94.15,3.06.26,4.66c.11,1.6.19,3.09.26,4.46.07,1.37.1,2.49.1,3.34s-.13,1.73-.4,2.56c-.27.83-.72,1.57-1.36,2.22-.64.65-1.51,1.17-2.6,1.56s-2.48.58-4.16.58c-1.89,0-3.63-.23-5.22-.7-1.59-.47-2.85-1.23-3.78-2.3-.93-1.07-1.4-2.51-1.4-4.32,0-1.39.4-2.65,1.2-3.78.8-1.13,2.01-2.03,3.62-2.7,1.61-.67,3.65-1,6.1-1,2.08,0,4.1.24,6.06.72s3.8,1.1,5.52,1.86c1.72.76,3.28,1.61,4.68,2.56,1.4.95,2.61,1.9,3.62,2.86l-3.08,4.76c-.99-.99-2.11-1.97-3.38-2.96-1.27-.99-2.65-1.88-4.14-2.68-1.49-.8-3.09-1.45-4.78-1.94-1.69-.49-3.45-.74-5.26-.74-1.55,0-2.77.25-3.66.74-.89.49-1.34,1.18-1.34,2.06,0,.99.45,1.68,1.36,2.08.91.4,2.07.6,3.48.6,1.25,0,2.15-.3,2.68-.9.53-.6.8-1.57.8-2.9,0-.69-.03-1.66-.08-2.9s-.11-2.59-.16-4.04c-.05-1.45-.11-2.86-.16-4.22s-.08-2.52-.08-3.48v-4.6c0-.72-.01-1.36-.04-1.92-.03-.67-.06-1.29-.1-1.88s-.08-1.12-.12-1.6c-.04-.48-.11-.88-.22-1.2h6.04ZM413.83,40.33c.59,0,1.43,0,2.52-.02,1.09-.01,2.3-.05,3.62-.1,1.32-.05,2.65-.13,4-.22,1.35-.09,2.59-.19,3.74-.3l.16,4.76c-1.12.11-2.36.2-3.72.28-1.36.08-2.71.14-4.04.18-1.33.04-2.55.07-3.66.1-1.11.03-1.97.04-2.58.04l-.04-4.72Z"/><path class="cls-2" d="M442.79,34.57c.32.03.77.06,1.36.1.59.04,1.21.06,1.88.06h1.98c.89,0,1.89,0,3-.02s2.23-.04,3.38-.08,2.19-.07,3.14-.1c.95-.03,1.67-.05,2.18-.08.48-.05.99-.11,1.52-.18s.99-.15,1.36-.26l2.68,3.52c-.35.19-.73.41-1.16.68-.43.27-.77.49-1.04.68-.59.43-1.25.93-1.98,1.52s-1.53,1.21-2.4,1.88c-.87.67-1.74,1.34-2.62,2.02-.88.68-1.76,1.35-2.64,2.02.67-.19,1.34-.32,2.02-.4s1.27-.12,1.78-.12c2.35,0,4.41.43,6.2,1.28,1.79.85,3.17,2.01,4.16,3.48.99,1.47,1.48,3.13,1.48,5,0,2.64-.78,4.88-2.34,6.72-1.56,1.84-3.95,3.17-7.16,3.98-3.21.81-7.29,1.03-12.22.66l-1.4-5.2c2.77.35,5.25.47,7.44.38s4.03-.41,5.54-.96c1.51-.54,2.66-1.29,3.46-2.24.8-.95,1.2-2.07,1.2-3.38,0-1.57-.67-2.89-2.02-3.94-1.35-1.05-3.17-1.58-5.46-1.58-1.55,0-2.99.23-4.34.68-1.35.45-2.61,1.07-3.8,1.84s-2.33,1.66-3.44,2.66c-1.11,1-2.19,2.05-3.26,3.14l-3.76-3.96c1.07-.8,2.28-1.75,3.64-2.84,1.36-1.09,2.77-2.23,4.22-3.42,1.45-1.19,2.86-2.35,4.22-3.5s2.59-2.21,3.68-3.18c1.09-.97,1.96-1.79,2.6-2.46-.45,0-1.01.01-1.66.04-.65.03-1.37.07-2.14.12-.77.05-1.53.1-2.28.14-.75.04-1.43.07-2.06.1-.63.03-1.14.05-1.54.08-.48.03-1.04.07-1.68.14-.64.07-1.19.14-1.64.22l-.08-5.24Z"/><path class="cls-2" d="M488.95,33.05c-.11.83-.21,1.72-.3,2.68-.09.96-.17,1.84-.22,2.64-.03,1.09-.07,2.42-.14,3.98-.07,1.56-.12,3.19-.16,4.9-.04,1.71-.08,3.39-.12,5.04-.04,1.65-.06,3.09-.06,4.32,0,1.33.25,2.39.74,3.18.49.79,1.15,1.35,1.98,1.68.83.33,1.76.5,2.8.5,1.65,0,3.16-.22,4.52-.66,1.36-.44,2.6-1.03,3.72-1.78s2.13-1.61,3.02-2.6,1.7-2.03,2.42-3.12l3.64,4.4c-.64.96-1.48,1.97-2.52,3.04-1.04,1.07-2.27,2.07-3.7,3-1.43.93-3.07,1.69-4.94,2.28-1.87.59-3.93.88-6.2.88s-4.09-.34-5.7-1.02-2.87-1.73-3.76-3.16c-.89-1.43-1.34-3.27-1.34-5.54,0-1.09.01-2.34.04-3.74s.07-2.86.12-4.38c.05-1.52.09-3.01.12-4.46.03-1.45.05-2.77.08-3.94.03-1.17.04-2.11.04-2.8,0-.96-.04-1.9-.12-2.82-.08-.92-.21-1.78-.4-2.58l6.44.08Z"/><path class="cls-2" d="M524.51,36.17c-.11.48-.19,1.03-.26,1.64-.07.61-.12,1.21-.16,1.8-.04.59-.06,1.07-.06,1.44-.03.88-.03,1.79-.02,2.72.01.93.04,1.89.08,2.86.04.97.1,1.94.18,2.9.19,1.92.45,3.61.8,5.08s.8,2.61,1.36,3.42c.56.81,1.27,1.22,2.12,1.22.45,0,.9-.25,1.34-.76.44-.51.84-1.17,1.2-1.98.36-.81.68-1.67.96-2.58.28-.91.53-1.76.74-2.56l4,4.88c-.88,2.32-1.75,4.17-2.62,5.54s-1.77,2.36-2.7,2.96c-.93.6-1.95.9-3.04.9-1.44,0-2.81-.48-4.1-1.44-1.29-.96-2.39-2.51-3.3-4.66-.91-2.15-1.55-5.01-1.92-8.58-.13-1.23-.23-2.52-.3-3.88-.07-1.36-.11-2.65-.12-3.88-.01-1.23-.02-2.24-.02-3.04,0-.56-.03-1.23-.08-2-.05-.77-.13-1.47-.24-2.08l6.16.08ZM544.51,37.09c.75.91,1.47,2.01,2.16,3.32.69,1.31,1.33,2.71,1.92,4.2.59,1.49,1.11,3.02,1.56,4.58.45,1.56.82,3.08,1.1,4.56.28,1.48.46,2.83.54,4.06l-5.28,2.04c-.13-1.63-.37-3.4-.72-5.32s-.81-3.85-1.4-5.8c-.59-1.95-1.29-3.79-2.1-5.52-.81-1.73-1.77-3.23-2.86-4.48l5.08-1.64Z"/><path class="cls-2" d="M556.87,37.33c.8-.03,1.56-.06,2.28-.1.72-.04,1.27-.07,1.64-.1.83-.05,1.85-.14,3.06-.26,1.21-.12,2.57-.25,4.08-.38,1.51-.13,3.11-.27,4.82-.4,1.71-.13,3.48-.28,5.32-.44,1.39-.13,2.77-.25,4.14-.34,1.37-.09,2.68-.17,3.92-.24,1.24-.07,2.33-.11,3.26-.14l.04,5.12c-.72,0-1.55.01-2.48.04s-1.86.07-2.78.14c-.92.07-1.74.19-2.46.38-1.2.32-2.32.86-3.36,1.62-1.04.76-1.94,1.65-2.7,2.68s-1.35,2.13-1.78,3.32c-.43,1.19-.64,2.38-.64,3.58,0,1.31.23,2.46.7,3.46.47,1,1.11,1.85,1.92,2.56.81.71,1.77,1.29,2.86,1.76,1.09.47,2.27.82,3.54,1.06,1.27.24,2.58.4,3.94.48l-1.88,5.48c-1.68-.11-3.31-.37-4.9-.8-1.59-.43-3.07-1.01-4.46-1.76s-2.59-1.66-3.62-2.74-1.84-2.32-2.44-3.72c-.6-1.4-.9-2.97-.9-4.7,0-1.92.31-3.69.92-5.3.61-1.61,1.38-3.03,2.3-4.24.92-1.21,1.83-2.15,2.74-2.82-.75.11-1.65.21-2.7.32-1.05.11-2.19.23-3.4.38-1.21.15-2.45.3-3.7.46-1.25.16-2.46.34-3.62.54-1.16.2-2.21.39-3.14.58l-.52-5.48ZM583.71,43.97c.35.48.71,1.05,1.1,1.7.39.65.77,1.31,1.14,1.96.37.65.69,1.25.96,1.78l-3.04,1.36c-.51-1.12-.99-2.11-1.46-2.96-.47-.85-1.02-1.72-1.66-2.6l2.96-1.24ZM588.19,42.13c.35.48.73,1.03,1.14,1.66s.82,1.27,1.22,1.92c.4.65.73,1.23,1,1.74l-3,1.44c-.53-1.07-1.05-2.01-1.54-2.84-.49-.83-1.07-1.68-1.74-2.56l2.92-1.36Z"/><path class="cls-2" d="M597.63,37.49c1.17,0,2.51-.01,4-.04,1.49-.03,3.05-.05,4.68-.08,1.63-.03,3.23-.05,4.8-.08,1.57-.03,3.05-.05,4.44-.06,1.39-.01,2.59-.02,3.6-.02s2.12,0,3.32-.02c1.2-.01,2.39-.02,3.56-.02h5.48l-.04,4.72c-1.25-.05-2.91-.1-4.96-.14-2.05-.04-4.56-.06-7.52-.06-1.81,0-3.65.02-5.52.06-1.87.04-3.72.09-5.56.14-1.84.05-3.61.11-5.32.18-1.71.07-3.32.15-4.84.26l-.12-4.84ZM619.27,49.33c0,2.19-.26,4-.78,5.44-.52,1.44-1.3,2.53-2.34,3.26s-2.33,1.1-3.88,1.1c-.75,0-1.53-.16-2.34-.48-.81-.32-1.57-.79-2.26-1.4-.69-.61-1.25-1.37-1.66-2.28-.41-.91-.62-1.97-.62-3.2,0-1.52.36-2.83,1.08-3.94.72-1.11,1.69-1.97,2.9-2.6,1.21-.62,2.55-.94,4.02-.94,1.76,0,3.23.39,4.42,1.18,1.19.79,2.08,1.85,2.68,3.18.6,1.33.9,2.84.9,4.52,0,1.31-.21,2.67-.64,4.08s-1.13,2.79-2.1,4.14c-.97,1.35-2.28,2.57-3.92,3.66-1.64,1.09-3.69,1.99-6.14,2.68l-4.28-4.24c1.71-.35,3.29-.8,4.76-1.36,1.47-.56,2.75-1.27,3.86-2.12,1.11-.85,1.97-1.91,2.6-3.16.63-1.25.94-2.76.94-4.52,0-1.28-.31-2.24-.94-2.88-.63-.64-1.38-.96-2.26-.96-.51,0-1,.12-1.48.36-.48.24-.87.6-1.16,1.08-.29.48-.44,1.07-.44,1.76,0,.91.31,1.63.94,2.18.63.55,1.34.82,2.14.82.64,0,1.21-.2,1.7-.6.49-.4.82-1.07.98-2,.16-.93.03-2.19-.4-3.76l3.72,1ZM620.23,32.53c-.03.21-.06.55-.1,1.02-.04.47-.07.93-.1,1.4s-.05.81-.08,1.02c-.03.53-.04,1.25-.04,2.14v2.98c0,1.09,0,2.19.02,3.3.01,1.11.03,2.15.04,3.12.01.97.02,1.78.02,2.42l-5-1.68v-4.78c0-1,0-1.99-.02-2.98-.01-.99-.03-1.88-.06-2.68-.03-.8-.05-1.4-.08-1.8-.05-.83-.12-1.55-.2-2.18-.08-.63-.15-1.06-.2-1.3h5.8Z"/><path class="cls-2" d="M636.35,41.37c.72.05,1.43.07,2.12.06.69-.01,1.41-.03,2.16-.06.64-.03,1.43-.07,2.38-.14.95-.07,1.95-.14,3-.22,1.05-.08,2.11-.17,3.18-.26,1.07-.09,2.05-.17,2.96-.22.91-.05,1.65-.08,2.24-.08,1.41,0,2.66.23,3.74.7,1.08.47,1.93,1.26,2.56,2.38.63,1.12.94,2.64.94,4.56,0,1.57-.07,3.28-.22,5.12s-.38,3.6-.7,5.28c-.32,1.68-.77,3.11-1.36,4.28-.64,1.39-1.51,2.35-2.62,2.88-1.11.53-2.42.8-3.94.8-.77,0-1.59-.06-2.46-.18-.87-.12-1.65-.25-2.34-.38l-.88-5.28c.53.13,1.11.27,1.74.4.63.13,1.23.24,1.8.32.57.08,1.03.12,1.38.12.67,0,1.25-.13,1.76-.38.51-.25.92-.7,1.24-1.34.37-.77.67-1.77.9-3,.23-1.23.4-2.55.52-3.98s.18-2.79.18-4.1c0-1.07-.15-1.85-.44-2.36-.29-.51-.73-.85-1.3-1.02-.57-.17-1.29-.26-2.14-.26-.59,0-1.41.05-2.46.14-1.05.09-2.17.2-3.34.32-1.17.12-2.27.25-3.3.38-1.03.13-1.82.23-2.38.28-.56.11-1.29.22-2.18.34-.89.12-1.65.23-2.26.34l-.48-5.44ZM652.59,33.17c-.13.51-.26,1.06-.38,1.66-.12.6-.23,1.15-.34,1.66-.11.59-.24,1.25-.4,1.98-.16.73-.31,1.47-.46,2.2-.15.73-.3,1.45-.46,2.14-.27,1.15-.6,2.48-1,4-.4,1.52-.87,3.15-1.4,4.9-.53,1.75-1.13,3.5-1.8,5.26-.67,1.76-1.37,3.47-2.12,5.14-.75,1.67-1.55,3.17-2.4,4.5l-5.2-2.08c.93-1.25,1.81-2.66,2.62-4.22.81-1.56,1.55-3.17,2.22-4.82.67-1.65,1.26-3.28,1.78-4.88.52-1.6.97-3.09,1.34-4.48.37-1.39.67-2.57.88-3.56.37-1.81.67-3.56.88-5.24.21-1.68.31-3.27.28-4.76l5.96.6ZM666.35,36.93c.64.85,1.3,1.93,1.98,3.22.68,1.29,1.35,2.66,2,4.1s1.25,2.83,1.8,4.16.97,2.47,1.26,3.4l-5.08,2.36c-.27-1.12-.63-2.37-1.1-3.74s-1-2.77-1.6-4.2c-.6-1.43-1.24-2.78-1.92-4.06s-1.38-2.35-2.1-3.2l4.76-2.04Z"/><path class="cls-2" d="M691.07,54.49c-.13-1.07-.05-2,.26-2.8.31-.8.75-1.52,1.32-2.16.57-.64,1.21-1.23,1.92-1.76.71-.53,1.37-1.05,2-1.56.63-.51,1.14-1.03,1.54-1.56.4-.53.6-1.12.6-1.76,0-.8-.2-1.48-.6-2.04-.4-.56-.98-.99-1.74-1.28-.76-.29-1.67-.44-2.74-.44-1.23,0-2.35.27-3.36.8-1.01.53-2.01,1.32-3,2.36l-3.28-3.04c1.28-1.47,2.79-2.65,4.54-3.54,1.75-.89,3.67-1.34,5.78-1.34,1.95,0,3.67.29,5.18.88s2.69,1.47,3.56,2.66c.87,1.19,1.3,2.67,1.3,4.46,0,.99-.21,1.85-.62,2.58-.41.73-.95,1.39-1.6,1.96s-1.34,1.12-2.06,1.64-1.39,1.06-2,1.62-1.09,1.19-1.44,1.88-.48,1.51-.4,2.44h-5.16ZM693.67,65.13c-1.01,0-1.85-.33-2.52-1-.67-.67-1-1.51-1-2.52s.33-1.89,1-2.56,1.51-1,2.52-1,1.85.33,2.52,1c.67.67,1,1.52,1,2.56s-.33,1.85-1,2.52c-.67.67-1.51,1-2.52,1Z"/></g></svg>