<?xml version="1.0" encoding="UTF-8"?><svg id="_レイヤー_2" xmlns="http://www.w3.org/2000/svg" viewBox="0 0 248 84"><defs><style>.cls-1{fill:#ff8080;}.cls-1,.cls-2{stroke-width:0px;}.cls-2{fill:#fff;}</style></defs><g id="_ヘッダー"><rect class="cls-1" x="0" y="0" width="248" height="84" rx="42" ry="42"/><path class="cls-2" d="M89.01,43.52l2.3-3.28c.77.26,1.57.59,2.41.97.84.38,1.64.79,2.41,1.22.77.43,1.39.85,1.87,1.26l-2.48,3.6c-.43-.41-1.02-.85-1.76-1.31s-1.53-.92-2.36-1.35c-.83-.43-1.63-.8-2.39-1.12ZM90.02,60.98c.6-.94,1.27-2.03,2.02-3.29.74-1.26,1.49-2.6,2.25-4.01s1.46-2.83,2.11-4.25l3.31,2.7c-.6,1.27-1.23,2.58-1.89,3.92-.66,1.34-1.33,2.65-2,3.92-.67,1.27-1.34,2.51-2.02,3.71l-3.78-2.7ZM91.1,33.69l2.34-3.17c.74.29,1.53.64,2.36,1.04.83.41,1.62.83,2.38,1.26.76.43,1.36.86,1.82,1.3l-2.48,3.53c-.43-.43-1.01-.89-1.73-1.37-.72-.48-1.49-.95-2.32-1.4s-1.61-.85-2.36-1.19ZM107.15,30.38h4.32v12.6c0,1.94-.11,3.9-.32,5.87s-.67,3.88-1.35,5.74c-.68,1.86-1.72,3.61-3.11,5.26-1.39,1.64-3.26,3.13-5.62,4.45-.26-.31-.61-.66-1.03-1.04-.42-.38-.86-.76-1.31-1.13-.46-.37-.88-.67-1.26-.88,2.21-1.18,3.96-2.47,5.26-3.87,1.3-1.4,2.26-2.89,2.9-4.46.64-1.57,1.05-3.2,1.24-4.88.19-1.68.29-3.37.29-5.08v-12.56ZM99.38,46.51h23.51v4.03h-23.51v-4.03ZM101.14,35.89h19.04v12.35h-4.25v-8.28h-14.8v-4.07ZM113.45,48.78c.77,2.62,1.97,4.96,3.62,7.02,1.64,2.06,3.71,3.62,6.21,4.68-.34.26-.7.62-1.08,1.06-.38.44-.75.91-1.1,1.39-.35.48-.63.92-.85,1.33-2.78-1.37-5.04-3.29-6.77-5.78-1.73-2.48-3.07-5.39-4.03-8.73l4-.97Z"/><path class="cls-2" d="M131.13,47.34l4.5.47c-.48,3.67-1.3,6.91-2.45,9.72-1.15,2.81-2.76,5.1-4.82,6.88-.24-.26-.58-.59-1.01-.97-.43-.38-.88-.76-1.35-1.12s-.87-.65-1.21-.86c1.94-1.44,3.41-3.38,4.39-5.81.98-2.44,1.63-5.2,1.94-8.3ZM126.56,34.05h30.92v9.04h-4.43v-4.97h-22.25v4.97h-4.25v-9.04ZM134.62,51.87c.55,1.63,1.28,2.96,2.18,3.98.9,1.02,1.94,1.79,3.13,2.3,1.19.52,2.49.87,3.91,1.06s2.92.29,4.5.29h3.76c.8,0,1.62,0,2.47-.02.84-.01,1.62-.02,2.34-.04.72-.01,1.32-.03,1.8-.05-.22.36-.43.8-.63,1.31-.2.52-.39,1.05-.56,1.6-.17.55-.29,1.06-.36,1.51h-9.04c-2.09,0-4.01-.14-5.76-.43s-3.33-.81-4.73-1.57c-1.4-.76-2.65-1.84-3.74-3.26-1.09-1.42-2.02-3.26-2.79-5.54l3.53-1.15ZM132.03,41.22h19.91v4.14h-19.91v-4.14ZM139.66,30.42h4.61v6.55h-4.61v-6.55ZM139.73,43.63h4.5v17.39l-4.5-.54v-16.85ZM142,49.86h12.13v4.07h-12.13v-4.07Z"/><path class="cls-2" d="M94.24,11.4c-.05.19-.11.41-.18.66-.07.25-.13.46-.18.64-.13.59-.26,1.25-.39,2s-.23,1.52-.31,2.32c-.08.8-.11,1.6-.09,2.38.02.78.1,1.5.24,2.16.12-.34.26-.73.43-1.19s.33-.88.49-1.28l.94.59c-.16.44-.31.93-.47,1.46-.16.53-.3,1.03-.43,1.5-.13.47-.23.87-.31,1.18-.02.14-.04.3-.06.46-.02.16-.03.29-.03.39s0,.2.02.32.02.23.04.34l-1.57.18c-.12-.37-.26-.87-.42-1.48s-.3-1.3-.41-2.04c-.11-.74-.16-1.49-.16-2.23,0-.98.04-1.93.12-2.84s.17-1.74.27-2.49c.1-.75.19-1.37.26-1.86.04-.23.06-.46.07-.7.01-.24.02-.46.02-.65l2.11.2ZM96.49,14.75c.28.04.57.07.88.11.31.04.63.06.96.07.33.01.66.02.98.02.76,0,1.54-.02,2.35-.05.81-.04,1.6-.09,2.36-.17.76-.08,1.44-.18,2.04-.3l-.02,1.84c-.56.08-1.22.16-1.96.22-.74.06-1.52.1-2.34.13-.82.03-1.62.04-2.41.04-.26,0-.57,0-.91-.02-.34-.01-.68-.02-1.02-.04-.34-.01-.64-.02-.92-.04v-1.82ZM103.29,11.13c-.02.17-.04.35-.05.54-.01.19-.02.39-.04.59v.69c0,.32,0,.67,0,1.07,0,.4.01.8.02,1.21s0,.79,0,1.14v.85c0,1.04-.03,2-.09,2.88-.06.88-.21,1.69-.45,2.45-.24.76-.62,1.46-1.14,2.1-.52.64-1.25,1.25-2.17,1.81l-1.66-1.3c.31-.13.65-.31,1.01-.55.36-.23.66-.47.9-.71.42-.4.75-.81,1-1.25s.43-.92.56-1.46.21-1.13.25-1.78c.04-.65.06-1.39.06-2.21,0-.31,0-.7,0-1.17s-.02-.95-.04-1.45c-.02-.5-.03-.96-.04-1.38-.01-.42-.02-.74-.04-.95-.01-.22-.04-.43-.08-.63s-.08-.37-.1-.5h2.09Z"/><path class="cls-2" d="M108.46,17.9c.26-.05.56-.11.87-.2.32-.08.62-.17.91-.25.31-.11.72-.24,1.21-.4.5-.16,1.05-.31,1.65-.48.6-.16,1.2-.3,1.81-.41.61-.11,1.18-.16,1.72-.16.9,0,1.69.17,2.38.5.68.34,1.22.82,1.6,1.44s.58,1.36.58,2.21-.19,1.61-.57,2.27c-.38.66-.93,1.23-1.66,1.71-.73.48-1.6.86-2.63,1.14-1.03.28-2.19.46-3.5.55l-.76-1.75c1-.04,1.93-.13,2.81-.29.88-.16,1.65-.39,2.31-.7.67-.31,1.19-.71,1.57-1.21s.57-1.07.57-1.75c0-.49-.12-.92-.36-1.3-.24-.37-.57-.67-.99-.88-.42-.22-.92-.32-1.49-.32-.43,0-.92.05-1.46.16-.54.11-1.09.25-1.67.42s-1.12.36-1.66.56-1.02.38-1.45.55c-.43.17-.78.31-1.04.43l-.76-1.87Z"/><path class="cls-2" d="M125.12,13.13c.35-.01.67-.03.97-.04.3-.02.53-.03.7-.04.32-.02.76-.06,1.3-.12s1.17-.11,1.86-.18c.7-.07,1.44-.13,2.23-.2.79-.07,1.6-.13,2.43-.21.65-.06,1.27-.11,1.87-.15.6-.04,1.16-.08,1.69-.11s1-.05,1.4-.06v1.82c-.32,0-.7,0-1.12.02-.43.01-.85.04-1.27.07s-.79.1-1.1.18c-.6.18-1.15.46-1.64.85-.49.38-.91.83-1.26,1.33-.35.5-.62,1.04-.81,1.59-.19.56-.29,1.11-.29,1.65,0,.65.11,1.22.34,1.71s.54.91.94,1.25c.4.34.85.62,1.36.85s1.06.39,1.64.5c.58.11,1.17.17,1.77.2l-.67,1.91c-.71-.02-1.41-.13-2.1-.31-.69-.18-1.34-.43-1.96-.75-.62-.32-1.16-.71-1.64-1.19-.47-.47-.85-1.02-1.12-1.65-.27-.62-.41-1.34-.41-2.14,0-.9.15-1.73.46-2.5.31-.77.7-1.44,1.17-2.01.47-.57.95-1.02,1.43-1.34-.36.05-.8.1-1.33.15-.53.05-1.09.11-1.7.18-.61.07-1.22.14-1.83.22-.61.08-1.19.16-1.74.24s-1.02.17-1.41.27l-.2-1.98Z"/><path class="cls-2" d="M144.85,12.59c-.04.17-.07.37-.09.61-.02.24-.04.48-.06.72-.02.24-.03.44-.03.61,0,.37,0,.79,0,1.24s.02.92.03,1.39c.01.47.04.95.09,1.41.1.95.24,1.78.43,2.48.19.71.44,1.26.74,1.66.3.4.65.59,1.04.59.23,0,.44-.11.65-.32s.4-.5.58-.86c.18-.36.34-.75.5-1.18.15-.43.28-.84.39-1.23l1.42,1.67c-.38,1.02-.76,1.83-1.14,2.44-.38.61-.77,1.04-1.16,1.3-.4.26-.82.4-1.26.4-.6,0-1.17-.21-1.72-.62s-1.02-1.09-1.41-2.04c-.4-.95-.68-2.21-.85-3.8-.06-.53-.11-1.1-.13-1.71-.03-.61-.05-1.19-.05-1.75,0-.55,0-1.01,0-1.37,0-.23,0-.51-.03-.84-.02-.33-.06-.62-.12-.86l2.2.04ZM154.07,13.04c.32.42.64.91.94,1.47.31.56.58,1.16.84,1.81.25.65.48,1.31.68,1.98.2.67.36,1.34.5,2,.13.66.22,1.28.27,1.87l-1.85.72c-.07-.78-.19-1.6-.36-2.45-.17-.85-.38-1.7-.65-2.53s-.57-1.62-.93-2.36c-.35-.74-.76-1.38-1.21-1.92l1.78-.59Z"/></g></svg>