<?xml version="1.0" encoding="UTF-8"?><svg id="_レイヤー_2" xmlns="http://www.w3.org/2000/svg" viewBox="0 0 768 160"><defs><style>.cls-1{fill:none;}.cls-1,.cls-2{stroke-width:0px;}.cls-2{fill:#333;}</style></defs><g id="_2"><path class="cls-2" d="M82.75,10.87c-.04.11-.09.25-.15.42s-.12.35-.18.52c-.06.17-.12.32-.17.44-.39,1.23-.86,2.34-1.41,3.35-.55,1.01-1.15,1.89-1.8,2.66s-1.31,1.4-1.99,1.91c-.64.49-1.36.91-2.15,1.26s-1.58.52-2.35.52c-.45,0-.87-.09-1.26-.28s-.69-.48-.92-.88c-.23-.4-.34-.91-.34-1.52,0-.69.15-1.38.44-2.06s.7-1.33,1.21-1.94c.51-.61,1.11-1.16,1.79-1.64s1.4-.87,2.16-1.16c.67-.24,1.38-.43,2.15-.58.77-.15,1.5-.22,2.19-.22,1.27,0,2.37.22,3.31.67.94.45,1.67,1.06,2.2,1.83.53.77.79,1.65.79,2.62,0,.72-.12,1.41-.35,2.07-.23.66-.61,1.27-1.13,1.82-.52.55-1.2,1.03-2.03,1.43-.83.4-1.84.69-3.03.88l-1.08-1.66c1.24-.13,2.28-.42,3.12-.86.84-.44,1.48-.99,1.91-1.64.43-.65.65-1.36.65-2.12,0-.63-.17-1.2-.51-1.71s-.84-.93-1.5-1.25-1.47-.48-2.43-.48c-.87,0-1.66.1-2.37.31s-1.32.42-1.81.65c-.72.32-1.37.74-1.94,1.27s-1.03,1.09-1.36,1.69c-.33.6-.5,1.17-.5,1.72,0,.37.09.65.27.84.18.19.44.28.79.28.48,0,1.03-.15,1.66-.44.63-.29,1.25-.73,1.88-1.3.83-.73,1.6-1.62,2.31-2.66s1.28-2.32,1.71-3.84c.04-.12.08-.26.11-.43.03-.17.06-.34.09-.52.03-.18.05-.33.06-.45l1.96.48ZM74.29,8.27c1.21,0,2.39-.03,3.52-.09,1.13-.06,2.22-.16,3.27-.29,1.05-.13,2.05-.31,3.01-.54l.02,1.86c-.71.12-1.47.23-2.3.33-.83.1-1.68.18-2.56.25s-1.75.12-2.61.16c-.86.04-1.66.06-2.41.06-.31,0-.67,0-1.08-.03-.41-.02-.82-.04-1.23-.06-.41-.02-.76-.04-1.05-.05l-.06-1.86c.24.04.57.08.99.12s.86.07,1.31.1c.45.03.85.04,1.18.04ZM77.65,5.93c-.04.15-.08.31-.13.48-.05.17-.08.33-.11.48-.12.59-.23,1.29-.34,2.11-.11.82-.19,1.69-.26,2.61-.07.92-.1,1.82-.1,2.7,0,.95.06,1.84.17,2.68.11.84.26,1.63.45,2.36.19.73.39,1.43.6,2.08l-1.82.54c-.2-.6-.39-1.3-.57-2.11s-.32-1.66-.43-2.57c-.11-.91-.16-1.81-.16-2.72,0-.67.02-1.35.06-2.06.04-.71.09-1.4.15-2.07.06-.67.13-1.31.2-1.91.07-.6.13-1.13.17-1.6.03-.17.04-.36.05-.56,0-.2.01-.37.01-.5l2.06.06Z"/><path class="cls-2" d="M90.81,9.23c.77,0,1.59-.04,2.46-.12.87-.08,1.75-.19,2.65-.34.9-.15,1.77-.33,2.61-.54v1.98c-.83.19-1.7.35-2.62.48-.92.13-1.82.24-2.7.31-.88.07-1.69.11-2.42.11-.45,0-.87,0-1.25-.02-.38-.01-.76-.03-1.13-.06l-.04-1.96c.49.05.93.09,1.31.12.38.03.76.04,1.13.04ZM95.54,6.03c-.07.24-.14.54-.21.89s-.13.63-.17.83c-.09.47-.2,1.02-.33,1.67s-.27,1.32-.44,2.03c-.17.71-.34,1.39-.51,2.06-.17.71-.39,1.47-.64,2.3-.25.83-.52,1.66-.81,2.51-.29.85-.57,1.65-.86,2.4-.29.75-.57,1.42-.85,1.99l-2.18-.74c.29-.51.6-1.12.92-1.85.32-.73.63-1.51.94-2.34.31-.83.59-1.66.86-2.49.27-.83.49-1.59.68-2.28.12-.47.24-.96.36-1.47.12-.51.23-1.01.34-1.49.11-.48.19-.93.26-1.35s.12-.77.16-1.05c.05-.32.08-.65.09-.98,0-.33,0-.61,0-.82l2.4.18ZM97.81,17.05c-.07.31-.13.61-.18.91-.05.3-.08.58-.08.83,0,.23.04.44.13.65.09.21.24.39.46.55.22.16.53.29.94.38.41.09.93.14,1.57.14s1.32-.04,2-.11c.68-.07,1.35-.17,2-.29l-.06,2.02c-.56.07-1.17.13-1.83.19-.66.06-1.37.09-2.13.09-1.63,0-2.87-.26-3.73-.78-.86-.52-1.29-1.27-1.29-2.26,0-.43.03-.85.1-1.27.07-.42.15-.83.24-1.23l1.86.18ZM97.12,12.11c.55-.05,1.15-.1,1.8-.13.65-.03,1.3-.05,1.94-.05.59,0,1.18,0,1.77.03.59.02,1.17.06,1.73.13l-.06,1.92c-.51-.07-1.05-.13-1.63-.18s-1.17-.08-1.77-.08c-.65,0-1.29.02-1.91.05-.62.03-1.24.09-1.87.17v-1.86Z"/><path class="cls-2" d="M110.95,9.81c-.07.31-.14.69-.21,1.16-.07.47-.15.95-.22,1.46s-.14.99-.21,1.45-.12.84-.16,1.15c.93-.76,1.92-1.32,2.97-1.68,1.05-.36,2.14-.54,3.27-.54s2.03.2,2.82.59c.79.39,1.4.92,1.83,1.58.43.66.65,1.39.65,2.19,0,.89-.2,1.72-.6,2.47-.4.75-1.03,1.39-1.9,1.9-.87.51-1.99.88-3.37,1.09-1.38.21-3.04.24-4.99.08l-.6-2.06c2.05.25,3.77.26,5.15.02,1.38-.24,2.42-.67,3.11-1.29s1.04-1.37,1.04-2.25c0-.49-.14-.93-.43-1.31-.29-.38-.68-.68-1.17-.9s-1.06-.33-1.7-.33c-1.23,0-2.35.22-3.37.67-1.02.45-1.86,1.07-2.53,1.87-.17.2-.31.38-.41.55-.1.17-.19.34-.27.51l-1.84-.44c.08-.37.16-.82.25-1.35.09-.53.17-1.09.25-1.7s.15-1.22.22-1.84c.07-.62.13-1.22.18-1.8.05-.58.09-1.09.12-1.53l2.12.28ZM111.13,6.01c.45.13,1.03.28,1.74.44.71.16,1.45.32,2.22.47.77.15,1.51.29,2.2.4s1.26.19,1.7.23l-.46,1.94c-.4-.05-.87-.13-1.42-.23-.55-.1-1.13-.21-1.76-.33-.63-.12-1.24-.24-1.85-.36-.61-.12-1.16-.24-1.65-.36s-.9-.22-1.22-.3l.5-1.9Z"/><path class="cls-2" d="M255.47,83.63c1.06.12,2.06.2,3.02.25s1.87.06,2.72.04c.85-.02,1.63-.07,2.32-.14.5-.06,1.02-.14,1.55-.23s1.05-.19,1.58-.31c.52-.12,1.02-.26,1.48-.41l.22,1.8c-.41.11-.86.21-1.34.31-.49.1-.98.19-1.48.27s-.98.15-1.44.21c-1.16.13-2.46.2-3.89.22s-2.99-.05-4.7-.18l-.04-1.82ZM258.62,89.54c-.28.43-.49.85-.64,1.25-.15.4-.23.81-.23,1.23,0,.8.35,1.39,1.05,1.76.7.37,1.7.56,3,.58.95.01,1.81-.02,2.59-.11.78-.08,1.49-.19,2.12-.32l-.09,1.8c-.54.1-1.2.19-1.99.28-.79.09-1.7.13-2.74.12-1.18,0-2.2-.15-3.06-.44-.86-.29-1.53-.73-2-1.3-.47-.57-.7-1.27-.7-2.1,0-.53.08-1.04.24-1.55s.38-1.04.66-1.6l1.78.4ZM262.04,82.48c-.06-.2-.13-.44-.22-.71-.08-.27-.18-.54-.29-.82l1.94-.23c.06.4.15.82.27,1.27.12.45.25.9.4,1.34.14.44.28.86.41,1.26.28.76.62,1.51,1.02,2.26s.78,1.36,1.12,1.83c.13.19.27.38.41.56.14.18.29.35.45.5l-.9,1.3c-.24-.06-.54-.11-.91-.16s-.76-.1-1.19-.14c-.43-.05-.85-.09-1.28-.13-.43-.04-.81-.07-1.16-.11l.13-1.49c.32.02.67.05,1.03.08.36.03.7.06,1.03.09s.59.06.79.08c-.24-.37-.5-.8-.77-1.28-.27-.48-.53-.98-.78-1.5-.25-.52-.47-1.05-.67-1.58-.19-.5-.36-.96-.49-1.37-.14-.41-.26-.76-.35-1.04Z"/><path class="cls-2" d="M270.77,85.63c.32-.06.67-.14,1.04-.23.37-.1.72-.19,1.05-.29.36-.11.84-.26,1.43-.46.59-.2,1.25-.4,1.96-.59.71-.2,1.44-.36,2.19-.5.74-.13,1.45-.2,2.11-.2,1.03,0,1.96.19,2.8.58.83.38,1.5.94,2,1.67.5.73.75,1.63.75,2.68,0,.85-.16,1.62-.47,2.3-.31.68-.76,1.3-1.35,1.84s-1.29,1-2.11,1.38c-.82.38-1.75.68-2.77.9-1.03.22-2.13.36-3.3.42l-.81-1.87c1.2-.04,2.33-.16,3.38-.36,1.06-.2,1.99-.5,2.81-.9.82-.4,1.46-.9,1.93-1.52.47-.62.7-1.35.7-2.2,0-.61-.14-1.16-.41-1.64-.28-.48-.69-.86-1.23-1.15s-1.2-.43-1.97-.43c-.56,0-1.18.07-1.85.21-.67.14-1.34.31-2.03.51-.69.2-1.36.43-2,.67-.64.24-1.22.46-1.75.67s-.95.39-1.27.53l-.81-2.02Z"/><path class="cls-2" d="M82.88,53.13l3.36,1.28c-.64,1.44-1.41,2.89-2.32,4.34-.91,1.46-1.89,2.81-2.96,4.06-1.07,1.25-2.13,2.31-3.2,3.16-.35-.51-.83-1.1-1.44-1.78-.61-.68-1.17-1.22-1.68-1.62,1.04-.67,2.08-1.51,3.12-2.54,1.04-1.03,2.01-2.13,2.9-3.32.89-1.19,1.63-2.38,2.22-3.58ZM75.64,43.81h18.84v3.92h-18.84v-3.92ZM75.76,50.81h18.36v4.04h-18.36v-4.04ZM76.12,34.89h18.04v3.88h-18.04v-3.88ZM78.12,39.37l3.72-.88c.35.72.65,1.53.92,2.42.27.89.44,1.66.52,2.3l-3.88,1.08c-.05-.67-.19-1.46-.42-2.38-.23-.92-.51-1.77-.86-2.54ZM82.84,31.25h4.64v5.36h-4.64v-5.36ZM82.84,47.49h4.64v20.92h-4.64v-20.92ZM87.16,55.01c.29.16.73.45,1.3.88.57.43,1.18.89,1.82,1.38.64.49,1.22.95,1.74,1.36.52.41.91.71,1.18.9l-2.8,3.44c-.32-.37-.73-.83-1.22-1.38-.49-.55-1.03-1.1-1.6-1.66-.57-.56-1.13-1.09-1.66-1.6-.53-.51-.99-.92-1.36-1.24l2.6-2.08ZM88.08,38.41l4.28.84c-.37.91-.73,1.78-1.08,2.62-.35.84-.67,1.55-.96,2.14l-3.84-.8c.19-.45.39-.96.6-1.52.21-.56.41-1.13.6-1.7.19-.57.32-1.1.4-1.58ZM95.64,34.05l5.6,1.6c-.03.35-.36.57-1,.68v11.76c0,1.49-.07,3.13-.22,4.9s-.43,3.59-.86,5.44c-.43,1.85-1.05,3.65-1.88,5.38-.83,1.73-1.92,3.32-3.28,4.76-.19-.37-.49-.77-.9-1.2-.41-.43-.84-.83-1.28-1.22-.44-.39-.86-.67-1.26-.86,1.17-1.23,2.1-2.55,2.78-3.98.68-1.43,1.19-2.9,1.52-4.42.33-1.52.55-3.03.64-4.54s.14-2.95.14-4.34v-13.96ZM108.72,31.33l3.84,3.48c-1.36.61-2.84,1.17-4.44,1.68-1.6.51-3.23.95-4.9,1.34-1.67.39-3.27.73-4.82,1.02-.13-.51-.35-1.12-.64-1.84s-.59-1.32-.88-1.8c1.44-.32,2.89-.69,4.36-1.1,1.47-.41,2.85-.86,4.14-1.34s2.41-.96,3.34-1.44ZM97.8,44.13h14.96v4.44h-14.96v-4.44ZM104.28,46.09h4.68v22.2h-4.68v-22.2Z"/><path class="cls-2" d="M128.84,33.17c-.11.83-.21,1.72-.3,2.68-.09.96-.17,1.84-.22,2.64-.03,1.09-.07,2.42-.14,3.98s-.12,3.19-.16,4.9c-.04,1.71-.08,3.39-.12,5.04-.04,1.65-.06,3.09-.06,4.32,0,1.33.25,2.39.74,3.18.49.79,1.15,1.35,1.98,1.68.83.33,1.76.5,2.8.5,1.65,0,3.16-.22,4.52-.66s2.6-1.03,3.72-1.78c1.12-.75,2.13-1.61,3.02-2.6s1.7-2.03,2.42-3.12l3.64,4.4c-.64.96-1.48,1.97-2.52,3.04s-2.27,2.07-3.7,3c-1.43.93-3.07,1.69-4.94,2.28-1.87.59-3.93.88-6.2.88s-4.09-.34-5.7-1.02c-1.61-.68-2.87-1.73-3.76-3.16-.89-1.43-1.34-3.27-1.34-5.54,0-1.09.01-2.34.04-3.74.03-1.4.07-2.86.12-4.38s.09-3.01.12-4.46c.03-1.45.05-2.77.08-3.94s.04-2.11.04-2.8c0-.96-.04-1.9-.12-2.82-.08-.92-.21-1.78-.4-2.58l6.44.08Z"/><path class="cls-2" d="M164.4,36.29c-.11.48-.19,1.03-.26,1.64-.07.61-.12,1.21-.16,1.8-.04.59-.06,1.07-.06,1.44-.03.88-.03,1.79-.02,2.72.01.93.04,1.89.08,2.86.04.97.1,1.94.18,2.9.19,1.92.45,3.61.8,5.08s.8,2.61,1.36,3.42c.56.81,1.27,1.22,2.12,1.22.45,0,.9-.25,1.34-.76.44-.51.84-1.17,1.2-1.98.36-.81.68-1.67.96-2.58.28-.91.53-1.76.74-2.56l4,4.88c-.88,2.32-1.75,4.17-2.62,5.54-.87,1.37-1.77,2.36-2.7,2.96-.93.6-1.95.9-3.04.9-1.44,0-2.81-.48-4.1-1.44-1.29-.96-2.39-2.51-3.3-4.66-.91-2.15-1.55-5.01-1.92-8.58-.13-1.23-.23-2.52-.3-3.88-.07-1.36-.11-2.65-.12-3.88-.01-1.23-.02-2.24-.02-3.04,0-.56-.03-1.23-.08-2-.05-.77-.13-1.47-.24-2.08l6.16.08ZM184.4,37.21c.75.91,1.47,2.01,2.16,3.32.69,1.31,1.33,2.71,1.92,4.2.59,1.49,1.11,3.02,1.56,4.58.45,1.56.82,3.08,1.1,4.56.28,1.48.46,2.83.54,4.06l-5.28,2.04c-.13-1.63-.37-3.4-.72-5.32s-.81-3.85-1.4-5.8c-.59-1.95-1.29-3.79-2.1-5.52-.81-1.73-1.77-3.23-2.86-4.48l5.08-1.64Z"/><path class="cls-2" d="M227.36,35.61c-.35.72-.67,1.48-.96,2.28-.29.8-.56,1.53-.8,2.2-.56,1.52-1.22,3.16-1.98,4.92-.76,1.76-1.6,3.49-2.52,5.18-.92,1.69-1.93,3.22-3.02,4.58-1.12,1.41-2.47,2.86-4.06,4.34-1.59,1.48-3.32,2.85-5.2,4.12-1.88,1.27-3.85,2.31-5.9,3.14l-4.56-4.68c2.08-.72,4.05-1.61,5.92-2.68,1.87-1.07,3.59-2.27,5.16-3.6,1.57-1.33,2.95-2.71,4.12-4.12,1.28-1.55,2.42-3.3,3.42-5.26,1-1.96,1.85-3.98,2.56-6.06.71-2.08,1.23-4.07,1.58-5.96l6.24,1.6Z"/><path class="cls-2" d="M237.68,46.37c.48.03,1.09.06,1.84.1s1.53.07,2.34.1c.81.03,1.57.04,2.26.04h21.48c.93,0,1.81-.03,2.64-.1.83-.07,1.51-.11,2.04-.14v6.28c-.45-.03-1.13-.07-2.04-.12-.91-.05-1.79-.08-2.64-.08h-21.48c-1.15,0-2.32.02-3.52.06-1.2.04-2.17.09-2.92.14v-6.28Z"/><path class="cls-2" d="M286.56,61.05v-23c0-.69-.03-1.49-.1-2.4-.07-.91-.17-1.71-.3-2.4h6.24c-.08.69-.16,1.46-.24,2.3s-.12,1.67-.12,2.5v23c0,.37.01.9.04,1.58.03.68.08,1.38.16,2.1.08.72.13,1.36.16,1.92h-6.24c.11-.8.2-1.73.28-2.8s.12-2,.12-2.8ZM290.84,43.61c1.33.35,2.83.79,4.48,1.34,1.65.55,3.32,1.13,5,1.74,1.68.61,3.26,1.22,4.74,1.82,1.48.6,2.71,1.15,3.7,1.66l-2.28,5.52c-1.12-.59-2.36-1.18-3.72-1.78-1.36-.6-2.74-1.18-4.14-1.74-1.4-.56-2.77-1.08-4.12-1.56-1.35-.48-2.57-.91-3.66-1.28v-5.72Z"/><path class="cls-2" d="M333.44,32.81c-.13.72-.35,1.65-.64,2.8s-.72,2.44-1.28,3.88c-.43.99-.91,2.01-1.46,3.06-.55,1.05-1.1,1.99-1.66,2.82.35-.16.79-.3,1.32-.42.53-.12,1.09-.21,1.66-.28.57-.07,1.09-.1,1.54-.1,1.68,0,3.07.48,4.18,1.44s1.66,2.39,1.66,4.28c0,.53,0,1.19.02,1.96.01.77.03,1.58.06,2.42.03.84.05,1.66.08,2.46.03.8.04,1.52.04,2.16h-4.8c.05-.45.09-.99.1-1.62.01-.62.03-1.29.04-1.98.01-.69.03-1.37.04-2.02.01-.65.02-1.25.02-1.78,0-1.28-.34-2.17-1.02-2.66-.68-.49-1.43-.74-2.26-.74-1.12,0-2.25.27-3.38.82-1.13.55-2.09,1.19-2.86,1.94-.59.59-1.18,1.24-1.78,1.96-.6.72-1.25,1.53-1.94,2.44l-4.28-3.2c1.73-1.6,3.23-3.15,4.5-4.64,1.27-1.49,2.34-2.97,3.22-4.44.88-1.47,1.6-2.93,2.16-4.4.4-1.07.73-2.18.98-3.34.25-1.16.41-2.25.46-3.26l5.28.44ZM318.4,36.49c1.01.16,2.19.28,3.52.36,1.33.08,2.51.12,3.52.12,1.76,0,3.69-.04,5.78-.12,2.09-.08,4.22-.22,6.38-.42s4.21-.46,6.16-.78l-.04,4.64c-1.41.19-2.94.35-4.58.5-1.64.15-3.31.27-5,.36-1.69.09-3.31.16-4.86.2s-2.92.06-4.12.06c-.53,0-1.19,0-1.98-.02s-1.59-.04-2.42-.08-1.61-.09-2.36-.14v-4.68ZM350.08,47.85c-.43.13-.93.3-1.5.5-.57.2-1.15.4-1.72.6-.57.2-1.09.39-1.54.58-1.28.51-2.79,1.12-4.54,1.84-1.75.72-3.57,1.56-5.46,2.52-1.2.64-2.21,1.27-3.04,1.88-.83.61-1.45,1.23-1.88,1.86-.43.63-.64,1.31-.64,2.06,0,.56.12,1.02.36,1.38.24.36.6.65,1.08.86s1.08.36,1.8.44,1.57.12,2.56.12c1.71,0,3.59-.1,5.64-.3,2.05-.2,3.96-.47,5.72-.82l-.16,5.16c-.85.11-1.93.22-3.24.34-1.31.12-2.66.21-4.06.26-1.4.05-2.74.08-4.02.08-2.08,0-3.95-.2-5.6-.6-1.65-.4-2.95-1.09-3.9-2.06-.95-.97-1.42-2.31-1.42-4.02,0-1.39.31-2.64.94-3.76.63-1.12,1.46-2.13,2.5-3.04,1.04-.91,2.18-1.73,3.42-2.46,1.24-.73,2.46-1.41,3.66-2.02,1.23-.64,2.33-1.19,3.32-1.64s1.91-.86,2.78-1.22c.87-.36,1.7-.73,2.5-1.1.77-.35,1.52-.69,2.24-1.02.72-.33,1.45-.69,2.2-1.06l2,4.64Z"/><path class="cls-2" d="M356.16,42.97c.75-.13,1.57-.32,2.48-.56.91-.24,1.72-.45,2.44-.64.77-.24,1.82-.57,3.14-1,1.32-.43,2.78-.85,4.38-1.28,1.6-.43,3.23-.79,4.9-1.1,1.67-.31,3.22-.46,4.66-.46,2.43,0,4.61.45,6.56,1.36,1.95.91,3.49,2.21,4.64,3.92s1.72,3.8,1.72,6.28c0,1.81-.33,3.49-1,5.04-.67,1.55-1.65,2.93-2.94,4.16-1.29,1.23-2.86,2.29-4.7,3.2s-3.94,1.63-6.3,2.18c-2.36.55-4.96.89-7.78,1.02l-2.32-5.32c2.72-.05,5.25-.3,7.58-.74,2.33-.44,4.38-1.08,6.14-1.92,1.76-.84,3.13-1.9,4.12-3.18.99-1.28,1.48-2.79,1.48-4.52,0-1.25-.28-2.38-.84-3.38-.56-1-1.39-1.79-2.5-2.38-1.11-.59-2.46-.88-4.06-.88-1.17,0-2.47.14-3.88.42-1.41.28-2.86.65-4.34,1.1s-2.93.94-4.34,1.46c-1.41.52-2.72,1.03-3.92,1.54-1.2.51-2.21.93-3.04,1.28l-2.28-5.6Z"/><path class="cls-2" d="M423.36,36.05c-.64.45-1.27.93-1.88,1.42-.61.49-1.15.94-1.6,1.34-.67.51-1.46,1.13-2.38,1.86-.92.73-1.88,1.49-2.88,2.28-1,.79-1.97,1.55-2.9,2.3-.93.75-1.73,1.41-2.4,2-.69.61-1.16,1.11-1.4,1.5-.24.39-.23.77.02,1.14s.74.88,1.46,1.52c.59.51,1.34,1.13,2.26,1.88s1.92,1.57,3,2.46c1.08.89,2.19,1.81,3.32,2.76,1.13.95,2.23,1.88,3.28,2.8,1.05.92,1.99,1.78,2.82,2.58l-4.68,4.28c-1.12-1.25-2.28-2.49-3.48-3.72-.61-.61-1.41-1.37-2.38-2.26s-2.03-1.83-3.16-2.82-2.26-1.97-3.38-2.94-2.13-1.85-3.04-2.62c-1.33-1.12-2.19-2.15-2.58-3.08-.39-.93-.33-1.86.16-2.78s1.41-1.93,2.74-3.02c.8-.61,1.71-1.34,2.72-2.18,1.01-.84,2.05-1.71,3.12-2.6,1.07-.89,2.08-1.76,3.04-2.6s1.77-1.58,2.44-2.22c.59-.59,1.17-1.19,1.76-1.8.59-.61,1.03-1.15,1.32-1.6l4.68,4.12Z"/><path class="cls-2" d="M442.8,34.41c.56.08,1.16.13,1.8.16.64.03,1.25.04,1.84.04.43,0,1.07,0,1.92-.02.85-.01,1.82-.03,2.9-.06,1.08-.03,2.15-.05,3.22-.08,1.07-.03,2.03-.06,2.9-.1s1.54-.07,2.02-.1c.83-.08,1.48-.15,1.96-.22.48-.07.84-.14,1.08-.22l2.6,3.56c-.45.29-.92.59-1.4.88-.48.29-.95.61-1.4.96-.53.37-1.17.86-1.92,1.46-.75.6-1.54,1.23-2.38,1.9-.84.67-1.65,1.32-2.44,1.96-.79.64-1.5,1.21-2.14,1.72.67-.16,1.31-.27,1.92-.34.61-.07,1.24-.1,1.88-.1,2.27,0,4.3.44,6.1,1.32,1.8.88,3.23,2.07,4.28,3.58s1.58,3.23,1.58,5.18c0,2.11-.53,4.01-1.6,5.72-1.07,1.71-2.67,3.07-4.82,4.08-2.15,1.01-4.83,1.52-8.06,1.52-1.84,0-3.5-.27-4.98-.8s-2.65-1.29-3.5-2.28-1.28-2.15-1.28-3.48c0-1.09.3-2.11.9-3.06.6-.95,1.44-1.71,2.52-2.3,1.08-.59,2.33-.88,3.74-.88,1.84,0,3.39.37,4.66,1.1s2.24,1.71,2.92,2.94c.68,1.23,1.03,2.57,1.06,4.04l-4.68.64c-.03-1.47-.39-2.65-1.1-3.54-.71-.89-1.65-1.34-2.82-1.34-.75,0-1.35.19-1.8.58-.45.39-.68.83-.68,1.34,0,.75.37,1.35,1.12,1.8.75.45,1.72.68,2.92.68,2.27,0,4.16-.27,5.68-.82,1.52-.55,2.66-1.33,3.42-2.36.76-1.03,1.14-2.25,1.14-3.66,0-1.2-.37-2.25-1.1-3.16-.73-.91-1.73-1.61-2.98-2.12-1.25-.51-2.67-.76-4.24-.76s-2.96.19-4.24.58c-1.28.39-2.49.93-3.62,1.64-1.13.71-2.24,1.56-3.32,2.56s-2.15,2.11-3.22,3.34l-3.64-3.76c.72-.59,1.53-1.25,2.44-1.98.91-.73,1.83-1.5,2.78-2.3.95-.8,1.84-1.55,2.68-2.26s1.55-1.3,2.14-1.78c.56-.45,1.21-.99,1.96-1.6s1.52-1.25,2.32-1.9c.8-.65,1.56-1.28,2.28-1.88s1.32-1.11,1.8-1.54c-.4,0-.92.01-1.56.04-.64.03-1.34.05-2.1.08s-1.52.05-2.28.08-1.47.06-2.12.1c-.65.04-1.19.07-1.62.1-.53.03-1.09.07-1.68.12-.59.05-1.12.12-1.6.2l-.16-5.2Z"/><path class="cls-2" d="M100.11,102.85c-.23.49-.45,1.02-.66,1.6-.2.58-.38,1.09-.53,1.54-.43,1.2-.93,2.49-1.52,3.87-.59,1.39-1.25,2.75-1.98,4.1-.74,1.34-1.55,2.58-2.45,3.71-.92,1.19-2.02,2.37-3.31,3.54-1.29,1.16-2.68,2.24-4.16,3.22s-3.02,1.8-4.62,2.46l-2.85-2.94c1.64-.58,3.2-1.3,4.69-2.16,1.48-.86,2.86-1.83,4.13-2.9s2.38-2.19,3.34-3.36c1-1.24,1.9-2.63,2.69-4.18.79-1.55,1.47-3.14,2.05-4.77.58-1.63,1-3.22,1.28-4.75l3.9,1.02Z"/><path class="cls-2" d="M109.1,111.77c.36.02.81.05,1.33.08.52.03,1.09.06,1.7.08.61.02,1.19.03,1.74.03h17.41c.77,0,1.46-.03,2.08-.08.62-.05,1.12-.09,1.5-.11v3.97c-.36-.02-.88-.05-1.54-.1-.66-.04-1.34-.06-2.05-.06h-17.41c-.88,0-1.75.02-2.62.05s-1.59.07-2.14.11v-3.97Z"/><path class="cls-2" d="M148.46,123.1v-18.5c0-.51-.02-1.1-.06-1.78-.04-.67-.12-1.28-.22-1.81h3.94c-.04.51-.09,1.1-.14,1.76-.05.66-.08,1.27-.08,1.82v18.5c0,.34,0,.76.03,1.25.02.49.05.99.1,1.49s.09.95.13,1.36h-3.94c.08-.55.15-1.22.19-2,.04-.78.06-1.48.06-2.1ZM151.15,109.38c1.04.3,2.22.67,3.52,1.1,1.3.44,2.61.91,3.94,1.41,1.32.5,2.58,1,3.78,1.49,1.19.49,2.21.94,3.04,1.34l-1.44,3.49c-.9-.49-1.9-.99-3.02-1.49s-2.27-.99-3.44-1.46c-1.17-.47-2.31-.9-3.41-1.28-1.1-.38-2.08-.71-2.96-.99v-3.62Z"/><path class="cls-2" d="M178.54,101.5c-.06.17-.14.42-.22.74-.09.32-.17.64-.24.96-.08.32-.13.58-.18.77-.11.51-.23,1.17-.37,1.97-.14.8-.28,1.67-.42,2.62-.14.95-.27,1.92-.38,2.9s-.21,1.92-.29,2.82c-.08.9-.11,1.69-.11,2.37,0,.55.02,1.12.06,1.68.04.57.11,1.15.19,1.74.15-.45.32-.91.51-1.39.19-.48.39-.96.59-1.42.2-.47.39-.9.56-1.28l1.6,1.25c-.28.81-.58,1.68-.9,2.61-.32.93-.6,1.81-.85,2.64-.24.83-.43,1.53-.56,2.08-.04.21-.08.46-.11.75-.03.29-.05.53-.05.72.02.15.04.34.05.56.01.22.03.43.05.62l-2.85.22c-.34-1.13-.64-2.57-.88-4.3-.25-1.74-.37-3.7-.37-5.87,0-1.2.05-2.44.16-3.73.11-1.29.24-2.55.4-3.79.16-1.24.31-2.37.46-3.39.15-1.02.28-1.86.38-2.5.04-.41.09-.84.14-1.31.05-.47.09-.92.11-1.34l3.49.32ZM194.26,101.21c-.04.32-.08.65-.11.99-.03.34-.06.67-.08.99-.02.36-.04.84-.05,1.44-.01.6-.02,1.24-.03,1.94-.01.69-.02,1.38-.02,2.06,0,1.34.03,2.63.08,3.87s.11,2.41.18,3.52c.06,1.11.12,2.15.16,3.12.04.97.06,1.85.06,2.64,0,.73-.1,1.42-.29,2.08-.19.66-.51,1.25-.96,1.76-.45.51-1.05.91-1.81,1.2-.76.29-1.69.43-2.8.43-2.18,0-3.86-.43-5.06-1.28-1.2-.85-1.79-2.05-1.79-3.58,0-.98.27-1.86.82-2.62.54-.77,1.32-1.38,2.34-1.82,1.01-.45,2.23-.67,3.66-.67s2.73.16,3.9.46c1.17.31,2.26.73,3.26,1.25,1,.52,1.9,1.09,2.7,1.71.8.62,1.53,1.22,2.19,1.79l-1.73,2.69c-1.15-1.11-2.3-2.07-3.44-2.88s-2.3-1.44-3.47-1.89c-1.17-.45-2.4-.67-3.68-.67-1.09,0-1.97.21-2.64.64s-1.01.98-1.01,1.66c0,.75.33,1.31.99,1.68.66.37,1.5.56,2.53.56.79,0,1.41-.13,1.86-.38s.77-.63.96-1.12c.19-.49.29-1.07.29-1.73,0-.55-.02-1.31-.06-2.26-.04-.95-.1-2-.16-3.14-.06-1.14-.12-2.32-.16-3.52-.04-1.21-.06-2.36-.06-3.47v-5.41c0-.28-.02-.61-.05-1.01s-.08-.74-.14-1.04h3.62ZM182.64,106.81c.92.09,1.83.16,2.74.21.91.05,1.84.08,2.8.08,1.92,0,3.84-.08,5.76-.26s3.7-.42,5.34-.74v3.1c-1.71.28-3.51.48-5.42.61-1.91.13-3.81.2-5.71.22-.94,0-1.85-.02-2.74-.06-.89-.04-1.8-.1-2.74-.16l-.03-3.01Z"/><path class="cls-2" d="M211.41,126.05v-2.14c2.2-2.15,4.08-4.07,5.65-5.74,1.57-1.67,2.77-3.19,3.6-4.54.83-1.35,1.25-2.63,1.25-3.82,0-.85-.14-1.59-.43-2.21-.29-.62-.73-1.1-1.31-1.44-.59-.34-1.33-.51-2.22-.51s-1.76.26-2.53.78-1.47,1.14-2.11,1.84l-2.08-2.05c1-1.11,2.06-1.97,3.18-2.59,1.12-.62,2.46-.93,4.02-.93,1.43,0,2.68.29,3.74.86,1.07.58,1.89,1.38,2.48,2.42.59,1.04.88,2.25.88,3.63s-.39,2.79-1.17,4.22c-.78,1.43-1.83,2.91-3.15,4.45-1.32,1.54-2.81,3.16-4.45,4.86.62-.06,1.27-.12,1.97-.18.69-.05,1.33-.08,1.9-.08h6.02v3.17h-15.23Z"/><path class="cls-2" d="M237.39,126.5c-1.58,0-2.94-.46-4.08-1.39s-2.02-2.28-2.64-4.06c-.62-1.78-.93-3.96-.93-6.54s.31-4.75.93-6.5c.62-1.75,1.5-3.07,2.64-3.97,1.14-.9,2.5-1.34,4.08-1.34s2.9.45,4.03,1.34c1.13.9,2,2.22,2.62,3.97.62,1.75.93,3.92.93,6.5s-.31,4.76-.93,6.54c-.62,1.78-1.49,3.14-2.62,4.06s-2.47,1.39-4.03,1.39ZM237.39,123.55c.79,0,1.49-.3,2.11-.9.62-.6,1.1-1.56,1.44-2.88.34-1.32.51-3.08.51-5.28s-.17-3.94-.51-5.23-.82-2.22-1.44-2.8c-.62-.58-1.32-.86-2.11-.86s-1.49.29-2.11.86-1.1,1.51-1.46,2.8c-.35,1.29-.53,3.04-.53,5.23s.18,3.96.53,5.28c.35,1.32.84,2.28,1.46,2.88.62.6,1.32.9,2.11.9Z"/><path class="cls-2" d="M255.63,112.48h29.76v2.98h-29.76v-2.98ZM258.74,100.93h22.4v2.98h-19.42v24.9h-2.98v-27.87ZM265.62,101.92h2.82v26.43h-2.82v-26.43ZM272.5,101.92h2.85v26.43h-2.85v-26.43ZM279.54,100.93h3.01v24.38c0,.73-.08,1.31-.24,1.76-.16.45-.46.8-.91,1.06s-1,.42-1.65.5c-.65.07-1.46.11-2.42.11-.02-.28-.08-.59-.18-.94-.1-.35-.21-.71-.34-1.07-.13-.36-.27-.68-.42-.96.58.02,1.11.04,1.62.05.5.01.85.02,1.04.02.17-.02.29-.07.37-.16.07-.09.11-.22.11-.42v-24.32Z"/><path class="cls-2" d="M305.13,100.45c-.02.3-.05.62-.08.98-.03.35-.06.75-.08,1.2-.02.36-.04.88-.05,1.57-.01.68-.02,1.44-.03,2.26-.01.82-.02,1.64-.02,2.46v2.26c0,.98.03,2.04.08,3.18.05,1.14.11,2.27.18,3.38.06,1.11.12,2.13.18,3.07.05.94.08,1.71.08,2.3,0,.81-.2,1.57-.61,2.27s-1.04,1.27-1.92,1.71c-.88.44-2.02.66-3.42.66-2.41,0-4.25-.43-5.5-1.3-1.26-.86-1.89-2.1-1.89-3.7,0-1.02.3-1.92.91-2.69.61-.77,1.48-1.37,2.62-1.81,1.14-.44,2.5-.66,4.08-.66,1.71,0,3.31.19,4.82.58s2.88.88,4.13,1.47c1.25.6,2.35,1.22,3.31,1.87.96.65,1.77,1.23,2.43,1.74l-1.86,2.85c-.75-.68-1.59-1.38-2.53-2.08-.94-.7-1.97-1.34-3.1-1.92s-2.33-1.03-3.6-1.38c-1.27-.34-2.61-.51-4.02-.51s-2.41.23-3.12.69c-.71.46-1.07,1.01-1.07,1.65,0,.45.14.85.43,1.2.29.35.72.63,1.3.83s1.32.3,2.24.3c.6,0,1.14-.07,1.62-.22s.86-.41,1.14-.78.42-.9.42-1.58c0-.55-.02-1.3-.06-2.24-.04-.94-.08-1.96-.11-3.06-.03-1.1-.07-2.17-.11-3.2-.04-1.03-.06-1.91-.06-2.64s0-1.52.02-2.32.02-1.59.02-2.37v-4.02c0-.28-.01-.62-.03-1.04-.02-.42-.06-.74-.13-.98h3.42ZM292.3,110.56c.53.09,1.15.17,1.86.24.7.08,1.43.13,2.18.18.75.04,1.46.08,2.13.11.67.03,1.25.05,1.74.05,1.73,0,3.36-.04,4.88-.11,1.52-.07,3-.18,4.42-.32,1.42-.14,2.8-.29,4.14-.46l-.03,2.98c-1.09.15-2.15.27-3.2.37-1.05.1-2.1.18-3.15.24-1.06.06-2.17.11-3.33.13-1.16.02-2.43.03-3.79.03-.66,0-1.46-.02-2.4-.05-.94-.03-1.89-.08-2.85-.14-.96-.06-1.81-.14-2.56-.22l-.03-3.01ZM292.46,103.71c.53.08,1.16.17,1.87.26.71.08,1.45.17,2.21.24.76.07,1.48.13,2.16.16.68.03,1.28.05,1.79.05,2.11,0,4.23-.08,6.37-.22,2.13-.15,4.29-.41,6.46-.77v2.94c-1.15.13-2.43.26-3.84.38-1.41.13-2.88.23-4.4.32-1.53.09-3.05.13-4.56.13-.7,0-1.55-.03-2.54-.1-.99-.06-1.98-.14-2.96-.22-.98-.08-1.82-.17-2.53-.26l-.03-2.91Z"/><path class="cls-2" d="M320.88,104.61c.62-.02,1.19-.05,1.71-.08.52-.03.94-.06,1.26-.08.58-.06,1.35-.14,2.32-.24.97-.1,2.07-.2,3.31-.3,1.24-.11,2.56-.22,3.97-.35s2.85-.26,4.32-.38c1.13-.08,2.23-.17,3.31-.24,1.08-.07,2.08-.14,3.02-.19.94-.05,1.77-.09,2.5-.11v3.23c-.6-.02-1.28-.02-2.03,0-.76.02-1.5.06-2.24.13-.74.06-1.39.17-1.97.32-1.04.32-2.01.82-2.88,1.5-.88.68-1.63,1.47-2.26,2.37-.63.9-1.11,1.85-1.44,2.85-.33,1-.5,1.97-.5,2.91,0,1.17.2,2.19.59,3.06.39.86.94,1.6,1.65,2.21.7.61,1.51,1.11,2.43,1.5.92.4,1.89.69,2.93.88,1.03.19,2.08.31,3.12.35l-1.15,3.42c-1.26-.06-2.51-.25-3.74-.56-1.24-.31-2.4-.75-3.49-1.31-1.09-.56-2.05-1.27-2.9-2.13-.84-.85-1.5-1.83-1.98-2.94-.48-1.11-.72-2.37-.72-3.78,0-1.62.27-3.11.82-4.48.54-1.36,1.23-2.55,2.06-3.57s1.68-1.8,2.56-2.35c-.64.06-1.43.14-2.37.24-.94.1-1.95.21-3.02.34-1.08.13-2.16.26-3.25.4s-2.12.28-3.09.43c-.97.15-1.82.3-2.54.45l-.32-3.49ZM342,109.41c.26.36.54.81.86,1.33.32.52.64,1.06.96,1.6.32.54.59,1.04.8,1.49l-1.98.9c-.38-.81-.78-1.59-1.2-2.34s-.87-1.46-1.36-2.14l1.92-.83ZM345.55,108.03c.26.36.55.79.9,1.3.34.5.67,1.02.99,1.55s.6,1.04.83,1.5l-1.95.93c-.43-.81-.85-1.57-1.28-2.29-.43-.71-.9-1.42-1.41-2.13l1.92-.86Z"/><path class="cls-2" d="M352.88,104.61c.62-.02,1.19-.05,1.71-.08.52-.03.94-.06,1.26-.08.58-.06,1.35-.14,2.32-.24.97-.1,2.07-.2,3.31-.3,1.24-.11,2.56-.22,3.97-.35s2.85-.26,4.32-.38c1.13-.08,2.23-.17,3.31-.24,1.08-.07,2.08-.14,3.02-.19.94-.05,1.77-.09,2.5-.11v3.23c-.6-.02-1.28-.02-2.03,0-.76.02-1.5.06-2.24.13-.74.06-1.39.17-1.97.32-1.04.32-2.01.82-2.88,1.5-.88.68-1.63,1.47-2.26,2.37-.63.9-1.11,1.85-1.44,2.85-.33,1-.5,1.97-.5,2.91,0,1.17.2,2.19.59,3.06.39.86.94,1.6,1.65,2.21.7.61,1.51,1.11,2.43,1.5.92.4,1.89.69,2.93.88,1.03.19,2.08.31,3.12.35l-1.15,3.42c-1.26-.06-2.51-.25-3.74-.56-1.24-.31-2.4-.75-3.49-1.31-1.09-.56-2.05-1.27-2.9-2.13-.84-.85-1.5-1.83-1.98-2.94-.48-1.11-.72-2.37-.72-3.78,0-1.62.27-3.11.82-4.48.54-1.36,1.23-2.55,2.06-3.57s1.68-1.8,2.56-2.35c-.64.06-1.43.14-2.37.24-.94.1-1.95.21-3.02.34-1.08.13-2.16.26-3.25.4s-2.12.28-3.09.43c-.97.15-1.82.3-2.54.45l-.32-3.49ZM374,109.41c.26.36.54.81.86,1.33.32.52.64,1.06.96,1.6.32.54.59,1.04.8,1.49l-1.98.9c-.38-.81-.78-1.59-1.2-2.34s-.87-1.46-1.36-2.14l1.92-.83ZM377.55,108.03c.26.36.55.79.9,1.3.34.5.67,1.02.99,1.55s.6,1.04.83,1.5l-1.95.93c-.43-.81-.85-1.57-1.28-2.29-.43-.71-.9-1.42-1.41-2.13l1.92-.86Z"/><path class="cls-2" d="M385.42,104.77c.92-.02,1.95-.04,3.09-.06,1.14-.02,2.35-.05,3.63-.08,1.28-.03,2.55-.06,3.82-.1,1.27-.03,2.48-.05,3.63-.06s2.18-.02,3.07-.02h9.63l-.06,3.01c-.92-.04-2.16-.08-3.73-.11s-3.54-.05-5.9-.05c-1.41,0-2.86.01-4.35.03-1.49.02-2.99.06-4.5.11-1.5.05-2.96.11-4.35.18-1.4.06-2.69.14-3.89.22l-.1-3.07ZM402.45,114.11c0,1.58-.21,2.89-.62,3.92-.42,1.04-1.01,1.81-1.78,2.34-.77.52-1.7.78-2.78.78-.66,0-1.31-.12-1.94-.35-.63-.23-1.21-.59-1.73-1.07-.52-.48-.94-1.07-1.25-1.76-.31-.69-.46-1.49-.46-2.38,0-1.13.27-2.13.82-2.99.54-.86,1.27-1.54,2.18-2.03.91-.49,1.89-.74,2.96-.74,1.32,0,2.43.3,3.31.9.89.6,1.55,1.4,2,2.42.45,1.01.67,2.16.67,3.44,0,1.05-.16,2.13-.48,3.25s-.85,2.2-1.6,3.25c-.75,1.05-1.76,2-3.02,2.86-1.27.86-2.85,1.57-4.75,2.13l-2.72-2.69c1.43-.3,2.72-.7,3.87-1.2s2.14-1.12,2.98-1.86c.83-.74,1.48-1.61,1.94-2.62.46-1.01.69-2.19.69-3.54s-.28-2.21-.85-2.78c-.56-.58-1.25-.86-2.06-.86-.49,0-.96.12-1.41.35-.45.24-.81.58-1.09,1.02-.28.45-.42.99-.42,1.63,0,.9.29,1.59.88,2.1.59.5,1.26.75,2.03.75.62,0,1.15-.18,1.58-.53.44-.35.74-.91.91-1.66.17-.76.13-1.72-.13-2.9l2.27.83ZM402.93,100.51c-.02.13-.05.35-.08.67-.03.32-.06.64-.08.96s-.03.55-.03.7c-.02.41-.04.97-.05,1.68-.01.71-.02,1.5-.02,2.35s0,1.71.02,2.58c0,.86.02,1.67.03,2.43.01.76.02,1.39.02,1.9l-3.1-1.28v-1.46c0-.63,0-1.34-.02-2.14-.01-.8-.02-1.59-.03-2.38-.01-.79-.02-1.51-.03-2.18,0-.66-.03-1.16-.05-1.5-.04-.51-.09-.99-.14-1.44-.05-.45-.09-.75-.11-.9h3.68Z"/><path class="cls-2" d="M420.69,118.17c.94,0,1.78.23,2.53.69.75.46,1.34,1.06,1.79,1.81.45.75.67,1.59.67,2.53s-.22,1.76-.67,2.51c-.45.76-1.05,1.36-1.79,1.81-.75.45-1.59.67-2.53.67s-1.75-.22-2.51-.67c-.76-.45-1.37-1.05-1.82-1.81s-.69-1.59-.69-2.51.23-1.78.69-2.53,1.07-1.35,1.82-1.81c.76-.46,1.59-.69,2.51-.69ZM420.69,126.27c.85,0,1.58-.3,2.18-.9.6-.6.9-1.32.9-2.18,0-.58-.13-1.09-.4-1.55-.27-.46-.63-.83-1.1-1.1-.47-.28-.99-.42-1.57-.42s-1.07.14-1.54.42-.84.65-1.12,1.1c-.28.46-.42.98-.42,1.55s.14,1.07.42,1.55c.28.48.65.85,1.12,1.12.47.27.98.4,1.54.4Z"/><rect class="cls-1" width="768" height="160"/></g></svg>