<?xml version="1.0" encoding="UTF-8"?><svg id="_レイヤー_2" xmlns="http://www.w3.org/2000/svg" viewBox="0 0 768 80"><defs><style>.cls-1{fill:none;}.cls-1,.cls-2{stroke-width:0px;}.cls-2{fill:#333;}</style></defs><g id="_2"><path class="cls-2" d="M77.2,33.45h31.36v4.76h-26.56v30.24h-4.8v-35ZM79.8,48.33h28.84v4.72h-28.84v-4.72ZM91.48,36.05h4.8v14.64h-4.8v-14.64ZM106.28,33.45h4.84v29.4c0,1.28-.16,2.29-.48,3.02-.32.73-.89,1.3-1.72,1.7-.83.4-1.86.65-3.1.74-1.24.09-2.75.14-4.54.14-.08-.45-.21-.97-.4-1.56-.19-.59-.4-1.17-.64-1.74-.24-.57-.48-1.07-.72-1.5.77.05,1.55.09,2.34.1.79.01,1.49.02,2.1.02h1.28c.37-.03.64-.11.8-.26s.24-.39.24-.74v-29.32Z"/><path class="cls-2" d="M133.44,32.81c-.13.72-.35,1.65-.64,2.8s-.72,2.44-1.28,3.88c-.43.99-.91,2.01-1.46,3.06-.55,1.05-1.1,1.99-1.66,2.82.35-.16.79-.3,1.32-.42s1.09-.21,1.66-.28c.57-.07,1.09-.1,1.54-.1,1.68,0,3.07.48,4.18,1.44,1.11.96,1.66,2.39,1.66,4.28,0,.53,0,1.19.02,1.96.01.77.03,1.58.06,2.42.03.84.05,1.66.08,2.46.03.8.04,1.52.04,2.16h-4.8c.05-.45.09-.99.1-1.62.01-.63.03-1.29.04-1.98s.03-1.37.04-2.02c.01-.65.02-1.25.02-1.78,0-1.28-.34-2.17-1.02-2.66-.68-.49-1.43-.74-2.26-.74-1.12,0-2.25.27-3.38.82-1.13.55-2.09,1.19-2.86,1.94-.59.59-1.18,1.24-1.78,1.96-.6.72-1.25,1.53-1.94,2.44l-4.28-3.2c1.73-1.6,3.23-3.15,4.5-4.64,1.27-1.49,2.34-2.97,3.22-4.44.88-1.47,1.6-2.93,2.16-4.4.4-1.07.73-2.18.98-3.34.25-1.16.41-2.25.46-3.26l5.28.44ZM118.4,36.49c1.01.16,2.19.28,3.52.36s2.51.12,3.52.12c1.76,0,3.69-.04,5.78-.12s4.22-.22,6.38-.42c2.16-.2,4.21-.46,6.16-.78l-.04,4.64c-1.41.19-2.94.35-4.58.5-1.64.15-3.31.27-5,.36-1.69.09-3.31.16-4.86.2-1.55.04-2.92.06-4.12.06-.53,0-1.19,0-1.98-.02-.79-.01-1.59-.04-2.42-.08-.83-.04-1.61-.09-2.36-.14v-4.68ZM150.08,47.85c-.43.13-.93.3-1.5.5-.57.2-1.15.4-1.72.6-.57.2-1.09.39-1.54.58-1.28.51-2.79,1.12-4.54,1.84-1.75.72-3.57,1.56-5.46,2.52-1.2.64-2.21,1.27-3.04,1.88-.83.61-1.45,1.23-1.88,1.86-.43.63-.64,1.31-.64,2.06,0,.56.12,1.02.36,1.38s.6.65,1.08.86c.48.21,1.08.36,1.8.44s1.57.12,2.56.12c1.71,0,3.59-.1,5.64-.3,2.05-.2,3.96-.47,5.72-.82l-.16,5.16c-.85.11-1.93.22-3.24.34-1.31.12-2.66.21-4.06.26-1.4.05-2.74.08-4.02.08-2.08,0-3.95-.2-5.6-.6s-2.95-1.09-3.9-2.06c-.95-.97-1.42-2.31-1.42-4.02,0-1.39.31-2.64.94-3.76.63-1.12,1.46-2.13,2.5-3.04,1.04-.91,2.18-1.73,3.42-2.46s2.46-1.41,3.66-2.02c1.23-.64,2.33-1.19,3.32-1.64.99-.45,1.91-.86,2.78-1.22.87-.36,1.7-.73,2.5-1.1.77-.35,1.52-.69,2.24-1.02.72-.33,1.45-.69,2.2-1.06l2,4.64Z"/><path class="cls-2" d="M156.24,41.49c.72.05,1.43.07,2.12.06.69-.01,1.41-.03,2.16-.06.64-.03,1.43-.07,2.38-.14.95-.07,1.95-.14,3-.22,1.05-.08,2.11-.17,3.18-.26,1.07-.09,2.05-.17,2.96-.22.91-.05,1.65-.08,2.24-.08,1.41,0,2.66.23,3.74.7s1.93,1.26,2.56,2.38c.63,1.12.94,2.64.94,4.56,0,1.57-.07,3.28-.22,5.12s-.38,3.6-.7,5.28c-.32,1.68-.77,3.11-1.36,4.28-.64,1.39-1.51,2.35-2.62,2.88-1.11.53-2.42.8-3.94.8-.77,0-1.59-.06-2.46-.18-.87-.12-1.65-.25-2.34-.38l-.88-5.28c.53.13,1.11.27,1.74.4.63.13,1.23.24,1.8.32.57.08,1.03.12,1.38.12.67,0,1.25-.13,1.76-.38.51-.25.92-.7,1.24-1.34.37-.77.67-1.77.9-3s.4-2.55.52-3.98c.12-1.43.18-2.79.18-4.1,0-1.07-.15-1.85-.44-2.36-.29-.51-.73-.85-1.3-1.02-.57-.17-1.29-.26-2.14-.26-.59,0-1.41.05-2.46.14-1.05.09-2.17.2-3.34.32-1.17.12-2.27.25-3.3.38-1.03.13-1.82.23-2.38.28-.56.11-1.29.22-2.18.34-.89.12-1.65.23-2.26.34l-.48-5.44ZM172.48,33.29c-.13.51-.26,1.06-.38,1.66-.12.6-.23,1.15-.34,1.66-.11.59-.24,1.25-.4,1.98-.16.73-.31,1.47-.46,2.2-.15.73-.3,1.45-.46,2.14-.27,1.15-.6,2.48-1,4-.4,1.52-.87,3.15-1.4,4.9-.53,1.75-1.13,3.5-1.8,5.26-.67,1.76-1.37,3.47-2.12,5.14-.75,1.67-1.55,3.17-2.4,4.5l-5.2-2.08c.93-1.25,1.81-2.66,2.62-4.22.81-1.56,1.55-3.17,2.22-4.82.67-1.65,1.26-3.28,1.78-4.88.52-1.6.97-3.09,1.34-4.48.37-1.39.67-2.57.88-3.56.37-1.81.67-3.56.88-5.24.21-1.68.31-3.27.28-4.76l5.96.6ZM186.24,37.05c.64.85,1.3,1.93,1.98,3.22s1.35,2.66,2,4.1,1.25,2.83,1.8,4.16c.55,1.33.97,2.47,1.26,3.4l-5.08,2.36c-.27-1.12-.63-2.37-1.1-3.74-.47-1.37-1-2.77-1.6-4.2-.6-1.43-1.24-2.78-1.92-4.06-.68-1.28-1.38-2.35-2.1-3.2l4.76-2.04Z"/><path class="cls-2" d="M199.84,44.57c2.43.21,4.75.36,6.96.44s4.29.08,6.24,0c1.95-.08,3.72-.19,5.32-.32,2.16-.19,4.01-.46,5.56-.82,1.55-.36,2.89-.7,4.04-1.02l.8,4.72c-1.2.29-2.52.57-3.96.84-1.44.27-2.97.49-4.6.68-1.71.16-3.66.29-5.86.38-2.2.09-4.51.12-6.94.08-2.43-.04-4.85-.13-7.28-.26l-.28-4.72ZM200.56,36.17c2.93.35,5.63.55,8.1.62,2.47.07,4.75.02,6.86-.14,1.84-.16,3.6-.4,5.28-.72,1.68-.32,3.33-.73,4.96-1.24l.64,4.6c-1.44.4-3,.75-4.68,1.04-1.68.29-3.4.52-5.16.68-2.05.16-4.42.23-7.1.22-2.68-.01-5.55-.17-8.62-.46l-.28-4.6ZM207.52,53.85c-.48.67-.89,1.35-1.24,2.06-.35.71-.52,1.5-.52,2.38,0,1.47.69,2.53,2.06,3.18,1.37.65,3.38.98,6.02.98,1.89,0,3.69-.08,5.38-.24s3.25-.37,4.66-.64l-.28,5.08c-1.39.24-2.95.43-4.68.56-1.73.13-3.41.2-5.04.2-2.67,0-4.97-.28-6.9-.84s-3.43-1.43-4.5-2.62c-1.07-1.19-1.61-2.73-1.64-4.62-.03-1.28.14-2.43.5-3.46.36-1.03.77-2.02,1.22-2.98l4.96.96ZM213.2,37.29c-.19-.75-.4-1.49-.64-2.22s-.51-1.49-.8-2.26l5.4-.6c.16,1.25.37,2.49.62,3.7.25,1.21.55,2.38.88,3.5.33,1.12.66,2.2.98,3.24.32.91.74,1.94,1.26,3.1.52,1.16,1.09,2.32,1.7,3.48.61,1.16,1.23,2.21,1.84,3.14.27.37.54.73.82,1.06.28.33.61.66.98.98l-2.44,3.68c-.75-.16-1.67-.32-2.78-.48-1.11-.16-2.25-.31-3.44-.44-1.19-.13-2.27-.25-3.26-.36l.4-3.8c.83.08,1.73.16,2.7.24s1.75.16,2.34.24c-1.07-1.79-1.98-3.53-2.74-5.24-.76-1.71-1.39-3.29-1.9-4.76-.32-.93-.59-1.74-.8-2.42-.21-.68-.41-1.32-.58-1.92-.17-.6-.35-1.22-.54-1.86Z"/><path class="cls-2" d="M257.88,32.53c-.05.4-.1.85-.14,1.34-.04.49-.07.99-.1,1.5-.03.53-.05,1.25-.08,2.14-.03.89-.04,1.87-.04,2.94v6c0,1.12.03,2.37.08,3.74.05,1.37.12,2.76.22,4.16.09,1.4.17,2.71.24,3.92s.1,2.22.1,3.02c0,1.12-.29,2.14-.88,3.06-.59.92-1.46,1.65-2.62,2.18-1.16.53-2.62.8-4.38.8-3.2,0-5.63-.59-7.28-1.76s-2.48-2.81-2.48-4.92c0-1.36.39-2.55,1.18-3.58.79-1.03,1.92-1.83,3.4-2.42,1.48-.59,3.25-.88,5.3-.88,2.19,0,4.23.23,6.14.7,1.91.47,3.65,1.07,5.22,1.82,1.57.75,2.97,1.53,4.2,2.36,1.23.83,2.27,1.57,3.12,2.24l-2.88,4.48c-.96-.91-2.03-1.8-3.22-2.68-1.19-.88-2.48-1.68-3.88-2.4-1.4-.72-2.88-1.3-4.44-1.74-1.56-.44-3.21-.66-4.94-.66-1.39,0-2.46.24-3.22.72s-1.14,1.07-1.14,1.76c0,.51.16.95.48,1.32.32.37.79.65,1.4.84.61.19,1.39.28,2.32.28.72,0,1.34-.08,1.86-.24.52-.16.93-.45,1.22-.88s.44-1.03.44-1.8c0-.59-.02-1.43-.06-2.52-.04-1.09-.09-2.3-.14-3.62-.05-1.32-.11-2.62-.16-3.9-.05-1.28-.08-2.41-.08-3.4s0-1.97.02-3.02c.01-1.05.02-2.1.02-3.14s0-1.99.02-2.86c.01-.87.02-1.58.02-2.14,0-.37-.02-.83-.06-1.38-.04-.55-.1-1.01-.18-1.38h5.4ZM241.08,44.93c.64.11,1.4.21,2.28.32.88.11,1.78.19,2.7.24s1.79.1,2.62.14c.83.04,1.51.06,2.04.06,2.48,0,4.73-.05,6.74-.16,2.01-.11,3.9-.24,5.66-.4s3.45-.35,5.08-.56l-.04,4.72c-1.39.16-2.73.29-4.02.4s-2.61.2-3.96.28c-1.35.08-2.79.13-4.34.16-1.55.03-3.28.04-5.2.04-.77,0-1.73-.02-2.88-.06-1.15-.04-2.31-.1-3.5-.18s-2.23-.17-3.14-.28l-.04-4.72ZM241.28,36.29c.72.11,1.52.21,2.4.32.88.11,1.78.21,2.7.3.92.09,1.79.16,2.62.2.83.04,1.55.06,2.16.06,2.72,0,5.43-.09,8.14-.26,2.71-.17,5.51-.5,8.42-.98l-.04,4.6c-1.36.19-2.93.36-4.72.52-1.79.16-3.69.29-5.7.38-2.01.09-4.03.14-6.06.14-.83,0-1.85-.03-3.06-.1-1.21-.07-2.42-.16-3.62-.28-1.2-.12-2.24-.23-3.12-.34l-.12-4.56Z"/><path class="cls-2" d="M277.52,37.61c1.17,0,2.51-.01,4-.04,1.49-.03,3.05-.05,4.68-.08,1.63-.03,3.23-.05,4.8-.08s3.05-.05,4.44-.06c1.39-.01,2.59-.02,3.6-.02s2.12,0,3.32-.02c1.2-.01,2.39-.02,3.56-.02h5.48l-.04,4.72c-1.25-.05-2.91-.1-4.96-.14-2.05-.04-4.56-.06-7.52-.06-1.81,0-3.65.02-5.52.06-1.87.04-3.72.09-5.56.14-1.84.05-3.61.11-5.32.18s-3.32.15-4.84.26l-.12-4.84ZM299.16,49.45c0,2.19-.26,4-.78,5.44-.52,1.44-1.3,2.53-2.34,3.26-1.04.73-2.33,1.1-3.88,1.1-.75,0-1.53-.16-2.34-.48-.81-.32-1.57-.79-2.26-1.4s-1.25-1.37-1.66-2.28c-.41-.91-.62-1.97-.62-3.2,0-1.52.36-2.83,1.08-3.94.72-1.11,1.69-1.97,2.9-2.6s2.55-.94,4.02-.94c1.76,0,3.23.39,4.42,1.18,1.19.79,2.08,1.85,2.68,3.18s.9,2.84.9,4.52c0,1.31-.21,2.67-.64,4.08-.43,1.41-1.13,2.79-2.1,4.14-.97,1.35-2.28,2.57-3.92,3.66-1.64,1.09-3.69,1.99-6.14,2.68l-4.28-4.24c1.71-.35,3.29-.8,4.76-1.36s2.75-1.27,3.86-2.12c1.11-.85,1.97-1.91,2.6-3.16.63-1.25.94-2.76.94-4.52,0-1.28-.31-2.24-.94-2.88-.63-.64-1.38-.96-2.26-.96-.51,0-1,.12-1.48.36-.48.24-.87.6-1.16,1.08-.29.48-.44,1.07-.44,1.76,0,.91.31,1.63.94,2.18.63.55,1.34.82,2.14.82.64,0,1.21-.2,1.7-.6.49-.4.82-1.07.98-2,.16-.93.03-2.19-.4-3.76l3.72,1ZM300.12,32.65c-.03.21-.06.55-.1,1.02-.04.47-.07.93-.1,1.4-.03.47-.05.81-.08,1.02-.03.53-.04,1.25-.04,2.14v2.98c0,1.09,0,2.19.02,3.3.01,1.11.03,2.15.04,3.12.01.97.02,1.78.02,2.42l-5-1.68v-4.78c0-1,0-1.99-.02-2.98-.01-.99-.03-1.88-.06-2.68-.03-.8-.05-1.4-.08-1.8-.05-.83-.12-1.55-.2-2.18s-.15-1.06-.2-1.3h5.8Z"/><path class="cls-2" d="M321.72,54.97c1.23,0,2.32.29,3.28.88.96.59,1.73,1.37,2.32,2.34.59.97.88,2.06.88,3.26s-.29,2.25-.88,3.24c-.59.99-1.36,1.77-2.32,2.36s-2.05.88-3.28.88-2.25-.29-3.24-.88-1.77-1.37-2.34-2.36-.86-2.07-.86-3.24.29-2.29.86-3.26,1.35-1.75,2.34-2.34c.99-.59,2.07-.88,3.24-.88ZM321.76,65.05c.99,0,1.83-.35,2.52-1.06s1.04-1.55,1.04-2.54c0-.67-.16-1.27-.48-1.82-.32-.55-.75-.98-1.3-1.3s-1.14-.48-1.78-.48-1.27.16-1.8.48-.97.75-1.3,1.3c-.33.55-.5,1.15-.5,1.82s.17,1.27.5,1.82c.33.55.77.98,1.3,1.3.53.32,1.13.48,1.8.48Z"/><path class="cls-2" d="M88.51,11.89c-.21.16-.43.33-.64.5-.21.17-.39.33-.54.46-.21.19-.49.43-.82.73-.33.3-.68.62-1.04.96s-.69.65-1,.94c-.31.29-.53.52-.68.69.09-.01.22,0,.37,0,.15.02.28.05.39.09.35.05.63.2.85.44.22.24.4.56.53.96.07.17.14.38.21.63.07.25.15.49.22.74s.14.47.21.67c.11.35.28.61.53.78.25.17.6.26,1.05.26.48,0,.95-.02,1.42-.05s.91-.08,1.32-.15c.41-.07.78-.13,1.1-.2l-.12,2.1c-.28.04-.65.08-1.12.13-.47.05-.95.09-1.44.12-.49.03-.91.05-1.26.05-.87,0-1.56-.12-2.08-.37-.52-.25-.89-.7-1.12-1.35-.07-.2-.14-.44-.22-.71s-.16-.55-.23-.82-.14-.5-.19-.67c-.12-.36-.28-.62-.48-.79s-.43-.25-.68-.25c-.24,0-.48.07-.71.21-.23.14-.46.32-.69.55-.15.15-.33.34-.56.57s-.48.5-.75.8c-.27.3-.56.61-.85.94-.29.33-.59.66-.88,1-.29.34-.56.67-.8.99l-1.9-1.32c.15-.13.32-.29.53-.46s.42-.37.65-.58c.15-.16.39-.41.74-.76.35-.35.75-.75,1.22-1.22s.96-.97,1.49-1.5c.53-.53,1.05-1.06,1.58-1.58.53-.52,1.02-1.01,1.47-1.47s.84-.86,1.16-1.19c-.29.01-.64.03-1.04.06-.4.03-.82.06-1.25.09s-.86.07-1.28.11-.81.07-1.16.1c-.35.03-.66.05-.91.08-.33.01-.64.04-.91.08s-.52.08-.75.12l-.18-2.2c.23.01.5.03.81.04.31.01.64.02.99.02.21-.01.55-.03,1-.05.45-.02.97-.05,1.55-.08s1.17-.07,1.76-.11c.59-.04,1.15-.08,1.67-.12.52-.04.94-.08,1.26-.12.17-.03.36-.06.57-.1.21-.04.36-.08.45-.12l1.18,1.32ZM79.97,5.91c.55.11,1.18.21,1.89.32.71.11,1.45.21,2.2.3s1.47.17,2.16.24c.69.07,1.28.11,1.77.14l-.26,1.86c-.52-.04-1.12-.1-1.79-.17-.67-.07-1.38-.16-2.11-.25-.73-.09-1.46-.19-2.18-.3-.72-.11-1.39-.21-2-.32l.32-1.82Z"/><path class="cls-2" d="M104.43,7.01c-.09.13-.19.28-.3.45-.11.17-.22.34-.34.53-.23.35-.49.78-.8,1.29s-.63,1.06-.96,1.65c-.33.59-.66,1.17-.98,1.74-.32.57-.6,1.09-.84,1.56.43-.33.87-.58,1.33-.73.46-.15.9-.23,1.33-.23.71,0,1.28.22,1.71.65.43.43.67,1.06.71,1.87.01.35.02.74.02,1.17s0,.86,0,1.27c0,.41.02.77.05,1.08.03.47.18.8.47.99.29.19.62.29.99.29.51,0,.96-.14,1.37-.42.41-.28.77-.66,1.08-1.13s.58-.99.8-1.56c.22-.57.4-1.14.53-1.71l1.68,1.38c-.35,1.11-.78,2.08-1.3,2.91-.52.83-1.15,1.49-1.88,1.96-.73.47-1.6.71-2.6.71-.72,0-1.3-.13-1.75-.4-.45-.27-.77-.6-.98-1s-.32-.81-.35-1.24c-.03-.39-.04-.8-.05-1.25,0-.45-.01-.89-.02-1.32,0-.43-.02-.81-.05-1.13-.01-.4-.13-.71-.36-.93s-.55-.33-.96-.33c-.49,0-.97.15-1.43.44s-.87.68-1.24,1.16c-.37.48-.68.99-.93,1.52-.15.29-.3.64-.46,1.05-.16.41-.32.83-.47,1.26-.15.43-.29.84-.41,1.23-.12.39-.22.71-.3.96l-2.2-.74c.25-.68.57-1.45.94-2.31.37-.86.79-1.77,1.24-2.72.45-.95.91-1.9,1.38-2.83s.91-1.82,1.34-2.66.81-1.57,1.14-2.2c.33-.63.59-1.1.76-1.42.13-.24.27-.5.42-.79s.29-.61.42-.97l2.24.9Z"/><rect class="cls-1" width="768" height="80"/></g></svg>