<?xml version="1.0" encoding="UTF-8"?><svg id="_レイヤー_2" xmlns="http://www.w3.org/2000/svg" viewBox="0 0 768 160"><defs><style>.cls-1{fill:none;}.cls-1,.cls-2{stroke-width:0px;}.cls-2{fill:#333;}</style></defs><g id="_2"><path class="cls-2" d="M235.5,11.19c.36-.07.74-.15,1.15-.26.41-.11.8-.21,1.17-.32.4-.12.93-.29,1.59-.51.66-.22,1.39-.44,2.18-.66.79-.22,1.6-.4,2.43-.55.83-.15,1.61-.22,2.34-.22,1.15,0,2.18.21,3.11.64.93.43,1.67,1.05,2.22,1.86.55.81.83,1.81.83,2.98,0,.95-.17,1.8-.52,2.56s-.85,1.44-1.5,2.04c-.65.6-1.44,1.11-2.35,1.53-.91.42-1.94.75-3.08,1-1.14.25-2.36.4-3.67.47l-.9-2.08c1.33-.04,2.59-.17,3.76-.4,1.17-.23,2.21-.56,3.12-1,.91-.44,1.62-1,2.14-1.69.52-.69.78-1.5.78-2.45,0-.68-.15-1.29-.46-1.82-.31-.53-.76-.96-1.37-1.28-.61-.32-1.34-.48-2.19-.48-.63,0-1.31.08-2.05.23s-1.49.34-2.26.57c-.77.23-1.51.47-2.22.74s-1.36.52-1.94.75-1.05.43-1.41.59l-.9-2.24Z"/><path class="cls-2" d="M257.9,7.77c-.04.19-.07.41-.1.68-.03.27-.05.53-.07.8-.02.27-.03.49-.03.68,0,.41,0,.87,0,1.38,0,.51.02,1.02.03,1.55.01.53.05,1.05.1,1.57.11,1.05.27,1.97.48,2.76.21.79.49,1.4.82,1.84.33.44.72.66,1.16.66.25,0,.49-.12.72-.36s.44-.56.64-.96c.2-.4.38-.84.55-1.31.17-.47.31-.93.43-1.37l1.58,1.86c-.43,1.13-.85,2.04-1.27,2.71-.42.67-.85,1.16-1.29,1.45s-.91.44-1.4.44c-.67,0-1.3-.23-1.91-.69-.61-.46-1.13-1.22-1.57-2.27-.44-1.05-.75-2.46-.94-4.22-.07-.59-.12-1.22-.15-1.9-.03-.68-.05-1.33-.06-1.94s0-1.12,0-1.52c0-.25,0-.56-.03-.93-.02-.37-.06-.68-.13-.95l2.44.04ZM268.14,8.27c.36.47.71,1.01,1.05,1.63.34.62.65,1.29.93,2.01.28.72.53,1.45.75,2.2.22.75.4,1.49.55,2.22s.25,1.43.3,2.08l-2.06.8c-.08-.87-.21-1.77-.4-2.72-.19-.95-.43-1.88-.72-2.81-.29-.93-.64-1.8-1.03-2.62-.39-.82-.84-1.53-1.35-2.13l1.98-.66Z"/><path class="cls-2" d="M286.85,10.45c.33.01.66.02.97.02s.64,0,.97-.02c.32-.01.71-.04,1.18-.07s.97-.07,1.51-.12c.54-.05,1.08-.09,1.62-.14s1.04-.08,1.49-.11c.45-.03.82-.04,1.1-.04.65,0,1.23.1,1.74.31.51.21.91.57,1.21,1.09.3.52.45,1.25.45,2.18,0,.79-.03,1.64-.1,2.55-.07.91-.18,1.79-.35,2.62-.17.83-.4,1.53-.69,2.09-.32.69-.74,1.16-1.25,1.39-.51.23-1.12.35-1.83.35-.37,0-.78-.03-1.22-.08-.44-.05-.83-.12-1.16-.2l-.32-2.08c.27.07.56.13.87.2.31.07.61.12.89.15s.51.05.68.05c.36,0,.68-.06.95-.19.27-.13.5-.38.69-.77.2-.41.37-.95.5-1.6.13-.65.23-1.35.3-2.1.07-.75.1-1.47.1-2.16,0-.59-.08-1.02-.25-1.3-.17-.28-.4-.47-.71-.57-.31-.1-.67-.15-1.08-.15-.32,0-.76.02-1.31.07-.55.05-1.14.1-1.77.17-.63.07-1.21.13-1.74.19-.53.06-.95.11-1.26.15-.25.03-.58.07-.97.12-.39.05-.73.11-1.01.16l-.2-2.16ZM294.46,6.19c-.04.2-.09.43-.14.68s-.1.49-.14.7c-.05.27-.12.6-.19.99-.07.39-.15.8-.23,1.22-.08.42-.17.82-.26,1.21-.13.56-.3,1.21-.5,1.94-.2.73-.43,1.52-.69,2.35-.26.83-.55,1.68-.88,2.54-.33.86-.68,1.7-1.06,2.52-.38.82-.79,1.58-1.23,2.29l-2.06-.82c.47-.63.9-1.32,1.3-2.09.4-.77.77-1.56,1.1-2.38.33-.82.63-1.63.9-2.43.27-.8.5-1.54.69-2.23.19-.69.34-1.28.45-1.77.19-.85.34-1.71.45-2.56.11-.85.16-1.65.15-2.4l2.34.24ZM301.35,8.21c.31.41.63.93.98,1.56.35.63.69,1.29,1.03,2,.34.71.65,1.39.92,2.04.27.65.49,1.21.65,1.68l-1.98.92c-.13-.53-.32-1.14-.57-1.81-.25-.67-.53-1.36-.84-2.05-.31-.69-.65-1.35-1-1.97s-.7-1.14-1.05-1.57l1.86-.8Z"/><path class="cls-2" d="M75.4,53.49c.61-.51,1.16-.99,1.64-1.44s1.04-.99,1.68-1.6c.45-.48.97-1.05,1.56-1.72.59-.67,1.22-1.41,1.9-2.24.68-.83,1.38-1.67,2.1-2.54.72-.87,1.43-1.71,2.12-2.54,1.17-1.41,2.39-2.19,3.64-2.34,1.25-.15,2.65.53,4.2,2.02.91.83,1.83,1.72,2.78,2.68.95.96,1.88,1.92,2.8,2.88.92.96,1.78,1.88,2.58,2.76.91.93,1.93,2.01,3.06,3.24s2.29,2.48,3.48,3.76c1.19,1.28,2.29,2.47,3.3,3.56l-4.4,4.72c-.88-1.12-1.83-2.29-2.84-3.52-1.01-1.23-2-2.42-2.96-3.58-.96-1.16-1.84-2.19-2.64-3.1-.56-.69-1.19-1.43-1.9-2.22-.71-.79-1.41-1.57-2.1-2.34-.69-.77-1.33-1.47-1.92-2.08-.59-.61-1.05-1.11-1.4-1.48-.67-.64-1.23-.94-1.7-.9-.47.04-.99.42-1.58,1.14-.37.51-.83,1.11-1.36,1.8-.53.69-1.08,1.43-1.64,2.2s-1.1,1.52-1.62,2.24c-.52.72-.98,1.35-1.38,1.88-.45.64-.91,1.29-1.36,1.94-.45.65-.87,1.25-1.24,1.78l-4.8-4.96ZM100.28,40.41c0-.99.23-1.87.7-2.64.47-.77,1.09-1.39,1.86-1.86.77-.47,1.64-.7,2.6-.7s1.87.23,2.64.7c.77.47,1.39,1.09,1.86,1.86.47.77.7,1.65.7,2.64,0,.93-.23,1.79-.7,2.58-.47.79-1.09,1.41-1.86,1.88s-1.65.7-2.64.7-1.83-.23-2.6-.7-1.39-1.09-1.86-1.88c-.47-.79-.7-1.65-.7-2.58ZM102.92,40.41c0,.69.25,1.29.74,1.78.49.49,1.09.74,1.78.74s1.33-.25,1.82-.74.74-1.09.74-1.78-.25-1.33-.74-1.82c-.49-.49-1.1-.74-1.82-.74s-1.29.25-1.78.74c-.49.49-.74,1.1-.74,1.82Z"/><path class="cls-2" d="M117.68,46.37c.48.03,1.09.06,1.84.1s1.53.07,2.34.1c.81.03,1.57.04,2.26.04h21.48c.93,0,1.81-.03,2.64-.1.83-.07,1.51-.11,2.04-.14v6.28c-.45-.03-1.13-.07-2.04-.12-.91-.05-1.79-.08-2.64-.08h-21.48c-1.15,0-2.32.02-3.52.06-1.2.04-2.17.09-2.92.14v-6.28Z"/><path class="cls-2" d="M159.64,42.53c.67.35,1.43.77,2.28,1.28.85.51,1.71,1.02,2.56,1.54.85.52,1.66,1.03,2.42,1.52.76.49,1.39.93,1.9,1.3l-2.92,4.48c-.59-.4-1.26-.85-2.02-1.36-.76-.51-1.56-1.03-2.4-1.56s-1.67-1.05-2.48-1.54c-.81-.49-1.55-.91-2.22-1.26l2.88-4.4ZM158.4,61.81c1.49-.27,3.01-.6,4.56-1,1.55-.4,3.08-.89,4.6-1.46,1.52-.57,3-1.26,4.44-2.06,2.27-1.28,4.38-2.72,6.34-4.32s3.73-3.3,5.3-5.1c1.57-1.8,2.88-3.66,3.92-5.58l3.08,5.44c-1.84,2.77-4.13,5.39-6.86,7.86-2.73,2.47-5.74,4.65-9.02,6.54-1.36.75-2.85,1.46-4.48,2.14-1.63.68-3.22,1.26-4.78,1.74s-2.93.83-4.1,1.04l-3-5.24ZM165.8,33.41c.67.35,1.41.77,2.24,1.28.83.51,1.67,1.03,2.52,1.58.85.55,1.67,1.07,2.44,1.56.77.49,1.41.93,1.92,1.3l-2.96,4.4c-.56-.37-1.22-.81-1.98-1.32s-1.56-1.03-2.4-1.56c-.84-.53-1.67-1.05-2.48-1.54-.81-.49-1.54-.93-2.18-1.3l2.88-4.4ZM183.2,34.17c.37.56.78,1.21,1.22,1.94.44.73.87,1.47,1.3,2.2.43.73.8,1.42,1.12,2.06l-3.48,1.48c-.4-.85-.77-1.62-1.12-2.3-.35-.68-.71-1.35-1.1-2-.39-.65-.82-1.31-1.3-1.98l3.36-1.4ZM188.68,32.25c.43.51.87,1.12,1.32,1.84s.89,1.44,1.32,2.16c.43.72.8,1.38,1.12,1.96l-3.4,1.52c-.43-.83-.83-1.57-1.22-2.24-.39-.67-.78-1.31-1.18-1.92-.4-.61-.85-1.25-1.36-1.92l3.4-1.4Z"/><path class="cls-2" d="M217.64,37.49c-.27,2.03-.61,4.19-1.04,6.48-.43,2.29-1,4.61-1.72,6.96-.77,2.69-1.68,5.01-2.72,6.96-1.04,1.95-2.18,3.45-3.42,4.5-1.24,1.05-2.59,1.58-4.06,1.58s-2.82-.5-4.06-1.5c-1.24-1-2.23-2.38-2.96-4.14-.73-1.76-1.1-3.76-1.1-6s.47-4.51,1.4-6.56c.93-2.05,2.23-3.87,3.9-5.46,1.67-1.59,3.61-2.83,5.84-3.74,2.23-.91,4.63-1.36,7.22-1.36s4.71.4,6.7,1.2c1.99.8,3.69,1.91,5.1,3.32,1.41,1.41,2.49,3.07,3.24,4.96.75,1.89,1.12,3.93,1.12,6.12,0,2.8-.57,5.31-1.72,7.52-1.15,2.21-2.85,4.04-5.1,5.48s-5.06,2.43-8.42,2.96l-3-4.76c.77-.08,1.45-.17,2.04-.28.59-.11,1.15-.23,1.68-.36,1.28-.32,2.47-.78,3.58-1.38,1.11-.6,2.07-1.35,2.9-2.24.83-.89,1.47-1.94,1.94-3.14.47-1.2.7-2.52.7-3.96,0-1.57-.24-3.01-.72-4.32-.48-1.31-1.19-2.45-2.12-3.42-.93-.97-2.07-1.72-3.4-2.24-1.33-.52-2.87-.78-4.6-.78-2.13,0-4.01.38-5.64,1.14-1.63.76-3,1.74-4.12,2.94-1.12,1.2-1.97,2.49-2.54,3.88-.57,1.39-.86,2.71-.86,3.96,0,1.33.16,2.45.48,3.34.32.89.71,1.56,1.18,2,.47.44.97.66,1.5.66.56,0,1.11-.29,1.66-.86.55-.57,1.09-1.45,1.62-2.62.53-1.17,1.07-2.65,1.6-4.44.61-1.92,1.13-3.97,1.56-6.16.43-2.19.73-4.32.92-6.4l5.44.16Z"/><path class="cls-2" d="M245.08,59.17c.83,1.31,1.99,2.27,3.48,2.88,1.49.61,3.28.96,5.36,1.04,1.17.05,2.57.09,4.18.1,1.61.01,3.31,0,5.1-.02,1.79-.03,3.54-.08,5.26-.16s3.25-.17,4.58-.28c-.16.37-.35.85-.56,1.44-.21.59-.41,1.19-.58,1.8-.17.61-.3,1.16-.38,1.64-1.2.08-2.57.14-4.12.18-1.55.04-3.13.07-4.76.08-1.63.01-3.2,0-4.72-.02s-2.88-.07-4.08-.12c-2.45-.11-4.55-.49-6.28-1.14-1.73-.65-3.27-1.75-4.6-3.3-.88.75-1.78,1.52-2.7,2.32-.92.8-1.93,1.62-3.02,2.48l-2.36-5c.93-.56,1.91-1.17,2.92-1.84,1.01-.67,1.99-1.36,2.92-2.08h4.36ZM245.08,46.49v14.76h-4.68v-10.32h-4.64v-4.44h9.32ZM235.8,34.73l3.56-2.88c.83.53,1.67,1.15,2.52,1.86.85.71,1.65,1.43,2.4,2.16.75.73,1.35,1.41,1.8,2.02l-3.8,3.2c-.4-.64-.95-1.33-1.66-2.08-.71-.75-1.49-1.5-2.34-2.26-.85-.76-1.68-1.43-2.48-2.02ZM248.76,34.85h4.64v25.96h-4.64v-25.96ZM251.08,34.85h17.52v11.28h-17.52v-3.92h12.88v-3.48h-12.88v-3.88ZM251.44,48.81h18.76v12h-18.76v-4h14.04v-4.04h-14.04v-3.96ZM256.32,30.85l5.68.68c-.48,1.09-.95,2.13-1.4,3.12-.45.99-.87,1.84-1.24,2.56l-4.52-.84c.29-.8.58-1.71.86-2.74.28-1.03.49-1.95.62-2.78Z"/><path class="cls-2" d="M280.76,31.49h4.72c0,3.95-.06,7.71-.18,11.3s-.39,6.95-.82,10.1c-.43,3.15-1.13,6.03-2.1,8.66s-2.33,4.94-4.06,6.94c-.24-.4-.56-.83-.96-1.28-.4-.45-.83-.88-1.28-1.28s-.88-.72-1.28-.96c1.25-1.41,2.26-3.01,3.02-4.78.76-1.77,1.35-3.71,1.76-5.82.41-2.11.7-4.37.86-6.78s.25-4.97.28-7.68c.03-2.71.04-5.51.04-8.42ZM276,38.09h14.64v4.68h-14.64v-4.68ZM289.48,38.09h4.64v1.36c0,.35-.01.63-.04.84-.08,4.27-.17,7.9-.26,10.9-.09,3-.2,5.46-.32,7.38s-.29,3.43-.5,4.52c-.21,1.09-.48,1.87-.8,2.32-.45.67-.92,1.15-1.4,1.44-.48.29-1.05.51-1.72.64-.59.13-1.31.21-2.16.22-.85.01-1.75,0-2.68-.06-.03-.69-.16-1.5-.4-2.42s-.56-1.71-.96-2.38c.8.05,1.53.09,2.2.12.67.03,1.19.04,1.56.04.29,0,.54-.05.76-.16.21-.11.41-.31.6-.6.21-.29.4-.91.56-1.84.16-.93.29-2.29.4-4.08.11-1.79.2-4.09.28-6.9s.16-6.25.24-10.3v-1.04ZM296.36,35.49h14.56v31.88h-4.8v-27.24h-5.16v27.52h-4.6v-32.16ZM298.52,60.25h10.24v4.6h-10.24v-4.6Z"/><path class="cls-2" d="M75.44,117.31c.45-.36.85-.71,1.22-1.06.36-.34.77-.74,1.22-1.18.38-.38.82-.86,1.31-1.44s1.02-1.21,1.58-1.89c.57-.68,1.14-1.38,1.71-2.08.58-.7,1.12-1.37,1.63-1.98.9-1.04,1.8-1.63,2.71-1.74.91-.12,1.94.38,3.09,1.49.68.62,1.41,1.32,2.18,2.11.77.79,1.53,1.58,2.29,2.37.76.79,1.44,1.52,2.06,2.18.73.77,1.54,1.64,2.45,2.61s1.83,1.96,2.78,2.98c.95,1.01,1.83,1.97,2.64,2.86l-2.79,2.94c-.72-.92-1.5-1.87-2.34-2.85s-1.65-1.94-2.45-2.88c-.8-.94-1.53-1.79-2.19-2.56-.47-.53-.99-1.11-1.55-1.73-.57-.62-1.13-1.24-1.7-1.86-.57-.62-1.09-1.18-1.58-1.7-.49-.51-.9-.93-1.22-1.25-.58-.55-1.06-.82-1.44-.78-.38.03-.83.37-1.34,1.01-.36.43-.77.94-1.23,1.54-.46.6-.93,1.22-1.42,1.87-.49.65-.97,1.28-1.44,1.89-.47.61-.88,1.12-1.22,1.55-.34.45-.68.92-1.02,1.41-.34.49-.64.92-.9,1.28l-3.04-3.1ZM95.02,106.69c0-.75.18-1.42.53-2.03.35-.61.83-1.09,1.44-1.46.61-.36,1.27-.54,2-.54s1.42.18,2.03.54c.61.36,1.09.85,1.46,1.46.36.61.54,1.29.54,2.03s-.18,1.39-.54,2c-.36.61-.85,1.09-1.46,1.44-.61.35-1.29.53-2.03.53s-1.39-.18-2-.53c-.61-.35-1.09-.83-1.44-1.44-.35-.61-.53-1.27-.53-2ZM96.78,106.69c0,.6.22,1.12.66,1.55.44.44.96.66,1.55.66s1.14-.22,1.57-.66c.43-.44.64-.95.64-1.55s-.21-1.14-.64-1.57c-.43-.43-.95-.64-1.57-.64s-1.12.21-1.55.64c-.44.43-.66.95-.66,1.57Z"/><path class="cls-2" d="M109.1,111.77c.36.02.81.05,1.33.08.52.03,1.09.06,1.7.08.61.02,1.19.03,1.74.03h17.41c.77,0,1.46-.03,2.08-.08.62-.05,1.12-.09,1.5-.11v3.97c-.36-.02-.88-.05-1.54-.1-.66-.04-1.34-.06-2.05-.06h-17.41c-.88,0-1.75.02-2.62.05s-1.59.07-2.14.11v-3.97Z"/><path class="cls-2" d="M142.45,108.57c.51.26,1.1.58,1.76.98s1.33.81,2.02,1.23c.68.43,1.32.83,1.92,1.22.6.38,1.09.7,1.47.96l-1.86,2.85c-.43-.3-.94-.65-1.54-1.06-.6-.41-1.23-.82-1.89-1.25-.66-.43-1.31-.83-1.95-1.2s-1.22-.7-1.73-.98l1.79-2.75ZM142.03,124.13c1.19-.21,2.41-.49,3.65-.82,1.24-.33,2.46-.74,3.68-1.22,1.22-.48,2.38-1.02,3.49-1.62,1.79-1.02,3.45-2.17,4.98-3.42s2.91-2.6,4.14-4.03c1.24-1.43,2.28-2.9,3.14-4.42l1.95,3.39c-1.43,2.18-3.22,4.26-5.38,6.24-2.15,1.98-4.53,3.73-7.14,5.25-1.07.6-2.24,1.16-3.52,1.7-1.28.53-2.54,1-3.78,1.39-1.24.39-2.35.68-3.33.85l-1.89-3.3ZM147.34,101.31c.49.28,1.06.62,1.71,1.04.65.42,1.32.84,2,1.28.68.44,1.32.85,1.92,1.25.6.39,1.09.73,1.47,1.01l-1.92,2.75c-.38-.3-.88-.65-1.47-1.06-.6-.41-1.23-.82-1.9-1.25s-1.32-.84-1.95-1.23c-.63-.39-1.19-.73-1.68-1.01l1.82-2.78ZM161.1,101.85c.28.41.6.91.98,1.5.37.6.74,1.2,1.09,1.81.35.61.64,1.17.88,1.68l-2.24.96c-.28-.62-.57-1.21-.88-1.78-.31-.56-.62-1.12-.94-1.68s-.67-1.08-1.06-1.57l2.18-.93ZM165.39,100.32c.3.38.63.86,1.01,1.44.37.58.74,1.17,1.1,1.78.36.61.67,1.16.93,1.65l-2.24.99c-.28-.62-.58-1.21-.91-1.76-.33-.55-.67-1.1-1.01-1.63-.34-.53-.7-1.04-1.09-1.54l2.21-.93Z"/><path class="cls-2" d="M178.54,101.5c-.06.17-.14.42-.22.74-.09.32-.17.64-.24.96-.08.32-.13.58-.18.77-.11.51-.23,1.17-.37,1.97-.14.8-.28,1.67-.42,2.62-.14.95-.27,1.92-.38,2.9s-.21,1.92-.29,2.82c-.08.9-.11,1.69-.11,2.37,0,.55.02,1.12.06,1.68.04.57.11,1.15.19,1.74.15-.45.32-.91.51-1.39.19-.48.39-.96.59-1.42.2-.47.39-.9.56-1.28l1.6,1.25c-.28.81-.58,1.68-.9,2.61-.32.93-.6,1.81-.85,2.64-.24.83-.43,1.53-.56,2.08-.04.21-.08.46-.11.75-.03.29-.05.53-.05.72.02.15.04.34.05.56.01.22.03.43.05.62l-2.85.22c-.34-1.13-.64-2.57-.88-4.3-.25-1.74-.37-3.7-.37-5.87,0-1.2.05-2.44.16-3.73.11-1.29.24-2.55.4-3.79.16-1.24.31-2.37.46-3.39.15-1.02.28-1.86.38-2.5.04-.41.09-.84.14-1.31.05-.47.09-.92.11-1.34l3.49.32ZM194.26,101.21c-.04.32-.08.65-.11.99-.03.34-.06.67-.08.99-.02.36-.04.84-.05,1.44-.01.6-.02,1.24-.03,1.94-.01.69-.02,1.38-.02,2.06,0,1.34.03,2.63.08,3.87s.11,2.41.18,3.52c.06,1.11.12,2.15.16,3.12.04.97.06,1.85.06,2.64,0,.73-.1,1.42-.29,2.08-.19.66-.51,1.25-.96,1.76-.45.51-1.05.91-1.81,1.2-.76.29-1.69.43-2.8.43-2.18,0-3.86-.43-5.06-1.28-1.2-.85-1.79-2.05-1.79-3.58,0-.98.27-1.86.82-2.62.54-.77,1.32-1.38,2.34-1.82,1.01-.45,2.23-.67,3.66-.67s2.73.16,3.9.46c1.17.31,2.26.73,3.26,1.25,1,.52,1.9,1.09,2.7,1.71.8.62,1.53,1.22,2.19,1.79l-1.73,2.69c-1.15-1.11-2.3-2.07-3.44-2.88s-2.3-1.44-3.47-1.89c-1.17-.45-2.4-.67-3.68-.67-1.09,0-1.97.21-2.64.64s-1.01.98-1.01,1.66c0,.75.33,1.31.99,1.68.66.37,1.5.56,2.53.56.79,0,1.41-.13,1.86-.38s.77-.63.96-1.12c.19-.49.29-1.07.29-1.73,0-.55-.02-1.31-.06-2.26-.04-.95-.1-2-.16-3.14-.06-1.14-.12-2.32-.16-3.52-.04-1.21-.06-2.36-.06-3.47v-5.41c0-.28-.02-.61-.05-1.01s-.08-.74-.14-1.04h3.62ZM182.64,106.81c.92.09,1.83.16,2.74.21.91.05,1.84.08,2.8.08,1.92,0,3.84-.08,5.76-.26s3.7-.42,5.34-.74v3.1c-1.71.28-3.51.48-5.42.61-1.91.13-3.81.2-5.71.22-.94,0-1.85-.02-2.74-.06-.89-.04-1.8-.1-2.74-.16l-.03-3.01Z"/><path class="cls-2" d="M211.41,126.05v-2.14c2.2-2.15,4.08-4.07,5.65-5.74,1.57-1.67,2.77-3.19,3.6-4.54.83-1.35,1.25-2.63,1.25-3.82,0-.85-.14-1.59-.43-2.21-.29-.62-.73-1.1-1.31-1.44-.59-.34-1.33-.51-2.22-.51s-1.76.26-2.53.78-1.47,1.14-2.11,1.84l-2.08-2.05c1-1.11,2.06-1.97,3.18-2.59,1.12-.62,2.46-.93,4.02-.93,1.43,0,2.68.29,3.74.86,1.07.58,1.89,1.38,2.48,2.42.59,1.04.88,2.25.88,3.63s-.39,2.79-1.17,4.22c-.78,1.43-1.83,2.91-3.15,4.45-1.32,1.54-2.81,3.16-4.45,4.86.62-.06,1.27-.12,1.97-.18.69-.05,1.33-.08,1.9-.08h6.02v3.17h-15.23Z"/><path class="cls-2" d="M237.39,126.5c-1.58,0-2.94-.46-4.08-1.39s-2.02-2.28-2.64-4.06c-.62-1.78-.93-3.96-.93-6.54s.31-4.75.93-6.5c.62-1.75,1.5-3.07,2.64-3.97,1.14-.9,2.5-1.34,4.08-1.34s2.9.45,4.03,1.34c1.13.9,2,2.22,2.62,3.97.62,1.75.93,3.92.93,6.5s-.31,4.76-.93,6.54c-.62,1.78-1.49,3.14-2.62,4.06s-2.47,1.39-4.03,1.39ZM237.39,123.55c.79,0,1.49-.3,2.11-.9.62-.6,1.1-1.56,1.44-2.88.34-1.32.51-3.08.51-5.28s-.17-3.94-.51-5.23-.82-2.22-1.44-2.8c-.62-.58-1.32-.86-2.11-.86s-1.49.29-2.11.86-1.1,1.51-1.46,2.8c-.35,1.29-.53,3.04-.53,5.23s.18,3.96.53,5.28c.35,1.32.84,2.28,1.46,2.88.62.6,1.32.9,2.11.9Z"/><path class="cls-2" d="M255.92,117.31c.45-.36.85-.71,1.21-1.06.36-.34.77-.74,1.22-1.18.38-.38.82-.86,1.31-1.44.49-.58,1.02-1.21,1.58-1.89.56-.68,1.13-1.38,1.71-2.08.58-.7,1.12-1.37,1.63-1.98.9-1.04,1.8-1.63,2.7-1.74.91-.12,1.94.38,3.09,1.49.68.62,1.41,1.32,2.18,2.11.77.79,1.53,1.58,2.29,2.37.76.79,1.45,1.52,2.06,2.18.72.77,1.54,1.64,2.45,2.61s1.83,1.96,2.78,2.98c.95,1.01,1.83,1.97,2.64,2.86l-2.78,2.94c-.73-.92-1.5-1.87-2.34-2.85s-1.65-1.94-2.45-2.88c-.8-.94-1.53-1.79-2.19-2.56-.47-.53-.99-1.11-1.55-1.73-.57-.62-1.13-1.24-1.7-1.86-.57-.62-1.09-1.18-1.58-1.7-.49-.51-.9-.93-1.22-1.25-.58-.55-1.06-.82-1.44-.78-.38.03-.83.37-1.34,1.01-.36.43-.77.94-1.23,1.54-.46.6-.93,1.22-1.42,1.87-.49.65-.97,1.28-1.44,1.89-.47.61-.88,1.12-1.22,1.55-.34.45-.68.92-1.02,1.41-.34.49-.64.92-.9,1.28l-3.04-3.1ZM275.5,106.69c0-.75.18-1.42.53-2.03.35-.61.83-1.09,1.44-1.46.61-.36,1.27-.54,2-.54s1.42.18,2.03.54c.61.36,1.09.85,1.46,1.46.36.61.54,1.29.54,2.03s-.18,1.39-.54,2c-.36.61-.85,1.09-1.46,1.44-.61.35-1.29.53-2.03.53s-1.39-.18-2-.53c-.61-.35-1.09-.83-1.44-1.44-.35-.61-.53-1.27-.53-2ZM277.26,106.69c0,.6.22,1.12.66,1.55.44.44.95.66,1.55.66s1.14-.22,1.57-.66c.43-.44.64-.95.64-1.55s-.21-1.14-.64-1.57c-.43-.43-.95-.64-1.57-.64s-1.12.21-1.55.64c-.44.43-.66.95-.66,1.57Z"/><path class="cls-2" d="M289.58,111.77c.36.02.8.05,1.33.08.52.03,1.09.06,1.7.08.61.02,1.19.03,1.74.03h17.41c.77,0,1.46-.03,2.08-.08.62-.05,1.12-.09,1.5-.11v3.97c-.36-.02-.88-.05-1.54-.1-.66-.04-1.34-.06-2.05-.06h-17.41c-.88,0-1.75.02-2.62.05-.88.03-1.59.07-2.14.11v-3.97Z"/><path class="cls-2" d="M322.93,108.57c.51.26,1.1.58,1.76.98.66.39,1.33.81,2.02,1.23.68.43,1.32.83,1.92,1.22.6.38,1.09.7,1.47.96l-1.86,2.85c-.43-.3-.94-.65-1.54-1.06s-1.23-.82-1.89-1.25-1.31-.83-1.95-1.2c-.64-.37-1.22-.7-1.73-.98l1.79-2.75ZM322.51,124.13c1.19-.21,2.41-.49,3.65-.82,1.24-.33,2.46-.74,3.68-1.22,1.22-.48,2.38-1.02,3.49-1.62,1.79-1.02,3.45-2.17,4.98-3.42,1.52-1.26,2.91-2.6,4.14-4.03,1.24-1.43,2.28-2.9,3.14-4.42l1.95,3.39c-1.43,2.18-3.22,4.26-5.38,6.24-2.16,1.98-4.53,3.73-7.14,5.25-1.07.6-2.24,1.16-3.52,1.7-1.28.53-2.54,1-3.78,1.39s-2.35.68-3.33.85l-1.89-3.3ZM327.82,101.31c.49.28,1.06.62,1.71,1.04s1.32.84,2,1.28,1.32.85,1.92,1.25,1.09.73,1.47,1.01l-1.92,2.75c-.38-.3-.88-.65-1.47-1.06s-1.23-.82-1.9-1.25c-.67-.43-1.32-.84-1.95-1.23-.63-.39-1.19-.73-1.68-1.01l1.82-2.78ZM341.58,101.85c.28.41.6.91.98,1.5.37.6.74,1.2,1.09,1.81.35.61.65,1.17.88,1.68l-2.24.96c-.28-.62-.57-1.21-.88-1.78-.31-.56-.62-1.12-.95-1.68-.32-.55-.67-1.08-1.05-1.57l2.18-.93ZM345.87,100.32c.3.38.63.86,1.01,1.44s.74,1.17,1.1,1.78c.36.61.67,1.16.93,1.65l-2.24.99c-.28-.62-.58-1.21-.91-1.76-.33-.55-.67-1.1-1.01-1.63-.34-.53-.71-1.04-1.09-1.54l2.21-.93Z"/><path class="cls-2" d="M369.13,100.45c-.02.3-.05.62-.08.98-.03.35-.06.75-.08,1.2-.02.36-.04.88-.05,1.57-.01.68-.02,1.44-.03,2.26-.01.82-.02,1.64-.02,2.46v2.26c0,.98.03,2.04.08,3.18.05,1.14.11,2.27.18,3.38.06,1.11.12,2.13.18,3.07.05.94.08,1.71.08,2.3,0,.81-.2,1.57-.61,2.27s-1.04,1.27-1.92,1.71c-.88.44-2.02.66-3.42.66-2.41,0-4.25-.43-5.5-1.3-1.26-.86-1.89-2.1-1.89-3.7,0-1.02.3-1.92.91-2.69.61-.77,1.48-1.37,2.62-1.81,1.14-.44,2.5-.66,4.08-.66,1.71,0,3.31.19,4.82.58s2.88.88,4.13,1.47c1.25.6,2.35,1.22,3.31,1.87.96.65,1.77,1.23,2.43,1.74l-1.86,2.85c-.75-.68-1.59-1.38-2.53-2.08-.94-.7-1.97-1.34-3.1-1.92s-2.33-1.03-3.6-1.38c-1.27-.34-2.61-.51-4.02-.51s-2.41.23-3.12.69c-.71.46-1.07,1.01-1.07,1.65,0,.45.14.85.43,1.2.29.35.72.63,1.3.83s1.32.3,2.24.3c.6,0,1.14-.07,1.62-.22s.86-.41,1.14-.78.42-.9.42-1.58c0-.55-.02-1.3-.06-2.24-.04-.94-.08-1.96-.11-3.06-.03-1.1-.07-2.17-.11-3.2-.04-1.03-.06-1.91-.06-2.64s0-1.52.02-2.32.02-1.59.02-2.37v-4.02c0-.28-.01-.62-.03-1.04-.02-.42-.06-.74-.13-.98h3.42ZM356.3,110.56c.53.09,1.15.17,1.86.24.7.08,1.43.13,2.18.18.75.04,1.46.08,2.13.11.67.03,1.25.05,1.74.05,1.73,0,3.36-.04,4.88-.11,1.52-.07,3-.18,4.42-.32,1.42-.14,2.8-.29,4.14-.46l-.03,2.98c-1.09.15-2.15.27-3.2.37-1.05.1-2.1.18-3.15.24-1.06.06-2.17.11-3.33.13-1.16.02-2.43.03-3.79.03-.66,0-1.46-.02-2.4-.05-.94-.03-1.89-.08-2.85-.14-.96-.06-1.81-.14-2.56-.22l-.03-3.01ZM356.46,103.71c.53.08,1.16.17,1.87.26.71.08,1.45.17,2.21.24.76.07,1.48.13,2.16.16.68.03,1.28.05,1.79.05,2.11,0,4.23-.08,6.37-.22,2.13-.15,4.29-.41,6.46-.77v2.94c-1.15.13-2.43.26-3.84.38-1.41.13-2.88.23-4.4.32-1.53.09-3.05.13-4.56.13-.7,0-1.55-.03-2.54-.1-.99-.06-1.98-.14-2.96-.22-.98-.08-1.82-.17-2.53-.26l-.03-2.91Z"/><path class="cls-2" d="M384.88,104.61c.62-.02,1.19-.05,1.71-.08.52-.03.94-.06,1.26-.08.58-.06,1.35-.14,2.32-.24.97-.1,2.07-.2,3.31-.3,1.24-.11,2.56-.22,3.97-.35s2.85-.26,4.32-.38c1.13-.08,2.23-.17,3.31-.24,1.08-.07,2.08-.14,3.02-.19.94-.05,1.77-.09,2.5-.11v3.23c-.6-.02-1.28-.02-2.03,0-.76.02-1.5.06-2.24.13-.74.06-1.39.17-1.97.32-1.04.32-2.01.82-2.88,1.5-.88.68-1.63,1.47-2.26,2.37-.63.9-1.11,1.85-1.44,2.85-.33,1-.5,1.97-.5,2.91,0,1.17.2,2.19.59,3.06.39.86.94,1.6,1.65,2.21.7.61,1.51,1.11,2.43,1.5.92.4,1.89.69,2.93.88,1.03.19,2.08.31,3.12.35l-1.15,3.42c-1.26-.06-2.51-.25-3.74-.56-1.24-.31-2.4-.75-3.49-1.31-1.09-.56-2.05-1.27-2.9-2.13-.84-.85-1.5-1.83-1.98-2.94-.48-1.11-.72-2.37-.72-3.78,0-1.62.27-3.11.82-4.48.54-1.36,1.23-2.55,2.06-3.57s1.68-1.8,2.56-2.35c-.64.06-1.43.14-2.37.24-.94.1-1.95.21-3.02.34-1.08.13-2.16.26-3.25.4s-2.12.28-3.09.43c-.97.15-1.82.3-2.54.45l-.32-3.49ZM406,109.41c.26.36.54.81.86,1.33.32.52.64,1.06.96,1.6.32.54.59,1.04.8,1.49l-1.98.9c-.38-.81-.78-1.59-1.2-2.34s-.87-1.46-1.36-2.14l1.92-.83ZM409.55,108.03c.26.36.55.79.9,1.3.34.5.67,1.02.99,1.55s.6,1.04.83,1.5l-1.95.93c-.43-.81-.85-1.57-1.28-2.29-.43-.71-.9-1.42-1.41-2.13l1.92-.86Z"/><path class="cls-2" d="M416.88,104.61c.62-.02,1.19-.05,1.71-.08.52-.03.94-.06,1.26-.08.58-.06,1.35-.14,2.32-.24.97-.1,2.07-.2,3.31-.3,1.24-.11,2.56-.22,3.97-.35s2.85-.26,4.32-.38c1.13-.08,2.23-.17,3.31-.24,1.08-.07,2.08-.14,3.02-.19.94-.05,1.77-.09,2.5-.11v3.23c-.6-.02-1.28-.02-2.03,0-.76.02-1.5.06-2.24.13-.74.06-1.39.17-1.97.32-1.04.32-2.01.82-2.88,1.5-.88.68-1.63,1.47-2.26,2.37-.63.9-1.11,1.85-1.44,2.85-.33,1-.5,1.97-.5,2.91,0,1.17.2,2.19.59,3.06.39.86.94,1.6,1.65,2.21.7.61,1.51,1.11,2.43,1.5.92.4,1.89.69,2.93.88,1.03.19,2.08.31,3.12.35l-1.15,3.42c-1.26-.06-2.51-.25-3.74-.56-1.24-.31-2.4-.75-3.49-1.31-1.09-.56-2.05-1.27-2.9-2.13-.84-.85-1.5-1.83-1.98-2.94-.48-1.11-.72-2.37-.72-3.78,0-1.62.27-3.11.82-4.48.54-1.36,1.23-2.55,2.06-3.57s1.68-1.8,2.56-2.35c-.64.06-1.43.14-2.37.24-.94.1-1.95.21-3.02.34-1.08.13-2.16.26-3.25.4s-2.12.28-3.09.43c-.97.15-1.82.3-2.54.45l-.32-3.49ZM438,109.41c.26.36.54.81.86,1.33.32.52.64,1.06.96,1.6.32.54.59,1.04.8,1.49l-1.98.9c-.38-.81-.78-1.59-1.2-2.34s-.87-1.46-1.36-2.14l1.92-.83ZM441.55,108.03c.26.36.55.79.9,1.3.34.5.67,1.02.99,1.55s.6,1.04.83,1.5l-1.95.93c-.43-.81-.85-1.57-1.28-2.29-.43-.71-.9-1.42-1.41-2.13l1.92-.86Z"/><path class="cls-2" d="M449.42,104.77c.92-.02,1.95-.04,3.09-.06,1.14-.02,2.35-.05,3.63-.08,1.28-.03,2.55-.06,3.82-.1,1.27-.03,2.48-.05,3.63-.06s2.18-.02,3.07-.02h9.63l-.06,3.01c-.92-.04-2.16-.08-3.73-.11s-3.54-.05-5.9-.05c-1.41,0-2.86.01-4.35.03-1.49.02-2.99.06-4.5.11-1.5.05-2.96.11-4.35.18-1.4.06-2.69.14-3.89.22l-.1-3.07ZM466.45,114.11c0,1.58-.21,2.89-.62,3.92-.42,1.04-1.01,1.81-1.78,2.34-.77.52-1.7.78-2.78.78-.66,0-1.31-.12-1.94-.35-.63-.23-1.21-.59-1.73-1.07-.52-.48-.94-1.07-1.25-1.76-.31-.69-.46-1.49-.46-2.38,0-1.13.27-2.13.82-2.99.54-.86,1.27-1.54,2.18-2.03.91-.49,1.89-.74,2.96-.74,1.32,0,2.43.3,3.31.9.89.6,1.55,1.4,2,2.42.45,1.01.67,2.16.67,3.44,0,1.05-.16,2.13-.48,3.25s-.85,2.2-1.6,3.25c-.75,1.05-1.76,2-3.02,2.86-1.27.86-2.85,1.57-4.75,2.13l-2.72-2.69c1.43-.3,2.72-.7,3.87-1.2s2.14-1.12,2.98-1.86c.83-.74,1.48-1.61,1.94-2.62.46-1.01.69-2.19.69-3.54s-.28-2.21-.85-2.78c-.56-.58-1.25-.86-2.06-.86-.49,0-.96.12-1.41.35-.45.24-.81.58-1.09,1.02-.28.45-.42.99-.42,1.63,0,.9.29,1.59.88,2.1.59.5,1.26.75,2.03.75.62,0,1.15-.18,1.58-.53.44-.35.74-.91.91-1.66.17-.76.13-1.72-.13-2.9l2.27.83ZM466.93,100.51c-.02.13-.05.35-.08.67-.03.32-.06.64-.08.96s-.03.55-.03.7c-.02.41-.04.97-.05,1.68-.01.71-.02,1.5-.02,2.35s0,1.71.02,2.58c0,.86.02,1.67.03,2.43.01.76.02,1.39.02,1.9l-3.1-1.28v-1.46c0-.63,0-1.34-.02-2.14-.01-.8-.02-1.59-.03-2.38-.01-.79-.02-1.51-.03-2.18,0-.66-.03-1.16-.05-1.5-.04-.51-.09-.99-.14-1.44-.05-.45-.09-.75-.11-.9h3.68Z"/><path class="cls-2" d="M484.69,118.17c.94,0,1.78.23,2.53.69.75.46,1.34,1.06,1.79,1.81.45.75.67,1.59.67,2.53s-.22,1.76-.67,2.51c-.45.76-1.05,1.36-1.79,1.81-.75.45-1.59.67-2.53.67s-1.75-.22-2.51-.67c-.76-.45-1.37-1.05-1.82-1.81s-.69-1.59-.69-2.51.23-1.78.69-2.53,1.07-1.35,1.82-1.81c.76-.46,1.59-.69,2.51-.69ZM484.69,126.27c.85,0,1.58-.3,2.18-.9.6-.6.9-1.32.9-2.18,0-.58-.13-1.09-.4-1.55-.27-.46-.63-.83-1.1-1.1-.47-.28-.99-.42-1.57-.42s-1.07.14-1.54.42-.84.65-1.12,1.1c-.28.46-.42.98-.42,1.55s.14,1.07.42,1.55c.28.48.65.85,1.12,1.12.47.27.98.4,1.54.4Z"/><rect class="cls-1" width="768" height="160"/></g></svg>