<?xml version="1.0" encoding="UTF-8"?><svg id="_レイヤー_2" xmlns="http://www.w3.org/2000/svg" viewBox="0 0 380 84"><defs><style>.cls-1{fill:#ff8080;}.cls-1,.cls-2{stroke-width:0px;}.cls-2{fill:#fff;}</style></defs><g id="_ヘッダー"><path class="cls-2" d="M42,82.29C19.79,82.29,1.71,64.21,1.71,42S19.79,1.71,42,1.71h296c22.21,0,40.29,18.07,40.29,40.29s-18.07,40.29-40.29,40.29H42Z"/><path class="cls-1" d="M338,3.43c21.27,0,38.57,17.3,38.57,38.57s-17.3,38.57-38.57,38.57H42c-21.27,0-38.57-17.3-38.57-38.57S20.73,3.43,42,3.43h296M338,0H42C18.8,0,0,18.8,0,42h0c0,23.2,18.8,42,42,42h296c23.2,0,42-18.8,42-42h0c0-23.2-18.8-42-42-42h0Z"/><path class="cls-1" d="M51.18,54.93c.62.05,1.33.1,2.11.14.78.05,1.58.07,2.39.07h19.44v4.72h-19.3c-.7,0-1.49.02-2.39.07-.9.05-1.65.1-2.25.14v-5.15ZM51.65,35.39c.67.07,1.43.13,2.27.16.84.04,1.56.05,2.16.05h18.14c.53,0,1.11,0,1.75-.02.64-.01,1.11-.03,1.42-.05-.02.41-.05.93-.07,1.57-.02.64-.04,1.22-.04,1.75v18.65c0,.62.02,1.36.05,2.2s.07,1.52.09,2.05h-5.22c.02-.53.04-1.11.05-1.75.01-.64.02-1.28.02-1.93v-17.82h-16.16c-.77,0-1.58.01-2.43.04-.85.02-1.53.06-2.03.11v-5Z"/><path class="cls-1" d="M86.18,57.56c1.87-.26,3.64-.64,5.29-1.12s3.19-1.03,4.61-1.66c1.42-.62,2.71-1.27,3.89-1.94,2.04-1.22,3.91-2.62,5.62-4.18,1.7-1.56,3.19-3.19,4.46-4.88,1.27-1.69,2.28-3.34,3.02-4.95l2.81,5.08c-.91,1.61-2.03,3.22-3.37,4.82-1.33,1.61-2.84,3.14-4.52,4.59-1.68,1.45-3.49,2.75-5.44,3.91-1.22.74-2.54,1.45-3.96,2.11-1.42.66-2.91,1.25-4.48,1.76-1.57.52-3.21.92-4.91,1.21l-3.02-4.75ZM90.68,33.59c.62.43,1.36.96,2.2,1.58.84.62,1.71,1.3,2.61,2.03.9.73,1.75,1.45,2.54,2.14.79.7,1.44,1.32,1.94,1.87l-3.67,3.74c-.46-.5-1.06-1.1-1.8-1.8-.74-.7-1.55-1.42-2.41-2.16-.86-.74-1.72-1.45-2.56-2.12s-1.58-1.24-2.23-1.69l3.38-3.6Z"/><path class="cls-1" d="M124.91,49.75c.41-1.01.8-2.07,1.17-3.19.37-1.12.7-2.27.99-3.46.29-1.19.55-2.37.77-3.55.23-1.18.39-2.34.49-3.49l5.26,1.08c-.1.34-.2.73-.32,1.19-.12.46-.23.9-.32,1.33s-.17.79-.22,1.08c-.12.62-.29,1.38-.5,2.27-.22.89-.47,1.83-.76,2.83-.29,1-.58,1.99-.88,2.99-.3,1-.61,1.91-.92,2.75-.43,1.15-.94,2.35-1.53,3.6-.59,1.25-1.21,2.45-1.87,3.6s-1.3,2.18-1.93,3.1l-5.04-2.12c1.15-1.49,2.23-3.13,3.22-4.93s1.79-3.49,2.39-5.08ZM142.7,48.99c-.36-.96-.76-1.98-1.19-3.06-.43-1.08-.89-2.16-1.37-3.24-.48-1.08-.95-2.1-1.4-3.06-.46-.96-.88-1.79-1.26-2.48l4.79-1.55c.36.7.78,1.54,1.26,2.52.48.98.96,2.02,1.44,3.11.48,1.09.95,2.18,1.4,3.26.46,1.08.86,2.05,1.22,2.92.31.79.65,1.73,1.03,2.81.37,1.08.76,2.2,1.15,3.37.4,1.16.77,2.3,1.12,3.4.35,1.1.64,2.1.88,2.99l-5.33,1.73c-.31-1.42-.67-2.86-1.08-4.32-.41-1.46-.83-2.9-1.28-4.32-.44-1.42-.91-2.77-1.39-4.07ZM144.6,35.06c0-.79.2-1.52.59-2.18.4-.66.92-1.18,1.57-1.57.65-.38,1.37-.58,2.16-.58s1.51.19,2.16.58c.65.38,1.17.91,1.57,1.57.4.66.59,1.39.59,2.18s-.2,1.48-.59,2.12c-.4.65-.92,1.17-1.57,1.57-.65.4-1.37.59-2.16.59s-1.51-.2-2.16-.59c-.65-.4-1.17-.92-1.57-1.57-.4-.65-.59-1.36-.59-2.12ZM146.84,35.06c0,.58.2,1.06.61,1.46.41.4.9.59,1.48.59s1.07-.2,1.48-.59c.41-.4.61-.88.61-1.46s-.2-1.07-.61-1.48c-.41-.41-.9-.61-1.48-.61s-1.07.21-1.48.61c-.41.41-.61.9-.61,1.48Z"/><path class="cls-1" d="M184.02,36.54c-.14.22-.35.55-.63,1.01-.28.46-.49.88-.63,1.26-.5,1.13-1.12,2.39-1.85,3.78-.73,1.39-1.56,2.79-2.48,4.19-.92,1.4-1.9,2.72-2.93,3.94-1.34,1.51-2.83,3.01-4.45,4.48s-3.32,2.83-5.11,4.07-3.62,2.3-5.49,3.19l-3.71-3.89c1.94-.74,3.83-1.68,5.65-2.81,1.82-1.13,3.52-2.35,5.08-3.67,1.56-1.32,2.9-2.6,4.03-3.85.79-.91,1.54-1.88,2.25-2.92.71-1.03,1.34-2.06,1.89-3.08.55-1.02.96-1.96,1.22-2.83h-12.2c-.5,0-1.03.02-1.58.05-.55.04-1.07.07-1.57.11-.49.04-.87.07-1.13.09v-5.11c.36.02.8.06,1.33.11.53.05,1.06.08,1.6.11.54.02.99.04,1.35.04h12.71c.79,0,1.52-.05,2.18-.14.66-.1,1.17-.2,1.53-.32l2.95,2.2ZM175.96,47.73c.94.74,1.93,1.61,2.99,2.59,1.06.98,2.1,2,3.13,3.06,1.03,1.06,1.99,2.07,2.86,3.04.88.97,1.61,1.82,2.21,2.54l-4.1,3.56c-.89-1.22-1.9-2.5-3.04-3.82-1.14-1.32-2.34-2.63-3.6-3.94-1.26-1.31-2.54-2.55-3.83-3.73l3.38-3.31Z"/><path class="cls-1" d="M207.5,32.07c-.12.65-.31,1.49-.58,2.52-.26,1.03-.65,2.2-1.15,3.49-.38.89-.82,1.81-1.31,2.75-.49.95-.99,1.79-1.49,2.54.31-.14.71-.27,1.19-.38s.98-.19,1.49-.25c.52-.06.98-.09,1.39-.09,1.51,0,2.77.43,3.76,1.3,1,.86,1.49,2.15,1.49,3.85,0,.48,0,1.07.02,1.76.01.7.03,1.42.05,2.18s.05,1.49.07,2.21c.02.72.04,1.37.04,1.94h-4.32c.05-.41.08-.89.09-1.46.01-.56.02-1.16.04-1.78s.02-1.23.04-1.82c.01-.59.02-1.12.02-1.6,0-1.15-.31-1.95-.92-2.39-.61-.44-1.29-.67-2.03-.67-1.01,0-2.02.25-3.04.74-1.02.49-1.88,1.07-2.57,1.75-.53.53-1.06,1.12-1.6,1.76-.54.65-1.12,1.38-1.75,2.2l-3.85-2.88c1.56-1.44,2.91-2.83,4.05-4.18s2.11-2.68,2.9-4c.79-1.32,1.44-2.64,1.94-3.96.36-.96.65-1.96.88-3.01.23-1.04.37-2.02.41-2.93l4.75.4ZM193.96,35.39c.91.14,1.97.25,3.17.32,1.2.07,2.26.11,3.17.11,1.58,0,3.32-.04,5.2-.11,1.88-.07,3.8-.2,5.74-.38,1.94-.18,3.79-.41,5.54-.7l-.04,4.18c-1.27.17-2.65.32-4.12.45-1.48.13-2.98.24-4.5.32-1.52.08-2.98.14-4.37.18-1.39.04-2.63.05-3.71.05-.48,0-1.07,0-1.78-.02-.71-.01-1.43-.04-2.18-.07-.74-.04-1.45-.08-2.12-.13v-4.21ZM222.47,45.61c-.38.12-.83.27-1.35.45-.52.18-1.03.36-1.55.54-.52.18-.98.35-1.39.52-1.15.46-2.51,1.01-4.09,1.66-1.57.65-3.21,1.4-4.91,2.27-1.08.58-1.99,1.14-2.74,1.69-.74.55-1.31,1.11-1.69,1.67-.38.56-.58,1.18-.58,1.85,0,.5.11.92.32,1.24s.54.58.97.77c.43.19.97.32,1.62.4.65.07,1.42.11,2.3.11,1.54,0,3.23-.09,5.08-.27,1.85-.18,3.56-.43,5.15-.74l-.14,4.64c-.77.1-1.74.2-2.92.31-1.18.11-2.39.19-3.65.23-1.26.05-2.47.07-3.62.07-1.87,0-3.55-.18-5.04-.54-1.49-.36-2.66-.98-3.51-1.85-.85-.88-1.28-2.08-1.28-3.62,0-1.25.28-2.38.85-3.38.56-1.01,1.31-1.92,2.25-2.74.94-.82,1.96-1.55,3.08-2.21s2.21-1.27,3.29-1.82c1.1-.58,2.1-1.07,2.99-1.48.89-.41,1.72-.77,2.5-1.1.78-.32,1.53-.65,2.25-.99.7-.31,1.37-.62,2.02-.92.65-.3,1.31-.62,1.98-.95l1.8,4.18Z"/><path class="cls-1" d="M228.84,31.75h4.28v32.44h-4.28V31.75ZM231,36.75h9v2.92h-9v-2.92ZM231.33,31.75h11.41v13.07h-11.41v-3.1h7.34v-6.84h-7.34v-3.13ZM243.5,50.4l3.1,1.22c-.77,1.25-1.69,2.48-2.77,3.69-1.08,1.21-2.24,2.32-3.49,3.31-1.25,1-2.5,1.83-3.74,2.5-.31-.46-.73-.99-1.26-1.6-.53-.61-1-1.1-1.4-1.46,1.2-.53,2.41-1.19,3.62-2,1.21-.8,2.34-1.69,3.38-2.66,1.04-.97,1.9-1.97,2.57-3.01ZM235.14,48.31h17.82v3.49h-17.82v-3.49ZM244.36,45.54h3.89v13.93c0,.86-.1,1.56-.29,2.09-.19.53-.59.94-1.19,1.22s-1.29.47-2.07.54c-.78.07-1.7.11-2.75.11-.1-.53-.27-1.13-.52-1.82-.25-.68-.51-1.27-.77-1.75.67.02,1.31.04,1.91.04h1.22c.38,0,.58-.17.58-.5v-13.86ZM257.32,31.75v3.13h-8.06v6.91h8.06v3.1h-12.17v-13.14h12.17ZM247.71,36.75h9.07v2.92h-9.07v-2.92ZM255.02,31.75h4.36v27.25c0,1.2-.14,2.14-.41,2.81-.28.67-.8,1.19-1.57,1.55-.74.36-1.7.59-2.86.68s-2.57.14-4.23.14c-.05-.43-.15-.91-.31-1.44-.16-.53-.34-1.06-.54-1.6-.2-.54-.41-1-.63-1.39.7.05,1.4.08,2.12.09.72.01,1.37.01,1.94,0,.58-.01.98-.02,1.22-.02.33,0,.57-.07.7-.2.13-.13.2-.37.2-.7v-27.18Z"/><path class="cls-1" d="M274.82,32.61c-.12.77-.22,1.58-.29,2.43-.07.85-.13,1.64-.18,2.36-.05.96-.1,2.14-.14,3.55-.05,1.4-.1,2.88-.14,4.43s-.09,3.06-.13,4.54-.05,2.78-.05,3.91c0,1.2.22,2.15.67,2.86.44.71,1.04,1.21,1.8,1.51s1.6.45,2.54.45c1.46,0,2.81-.2,4.05-.59,1.24-.4,2.35-.94,3.35-1.62,1-.68,1.9-1.47,2.72-2.36.82-.89,1.55-1.82,2.2-2.81l3.28,4c-.6.86-1.37,1.78-2.3,2.74-.94.96-2.05,1.86-3.33,2.7-1.28.84-2.77,1.52-4.45,2.03-1.68.52-3.54.77-5.58.77s-3.65-.3-5.11-.9c-1.46-.6-2.59-1.54-3.38-2.83-.79-1.28-1.19-2.95-1.19-4.99,0-.98.01-2.11.04-3.37.02-1.26.05-2.57.09-3.94.04-1.37.07-2.71.09-4.01.02-1.31.05-2.5.07-3.56.02-1.07.04-1.9.04-2.5,0-.86-.04-1.71-.11-2.54s-.18-1.6-.32-2.32l5.8.07ZM284.1,35.49c.34.5.71,1.1,1.13,1.78.42.68.83,1.38,1.24,2.09s.74,1.35,1.01,1.93l-3.2,1.4c-.36-.77-.71-1.48-1.06-2.14-.35-.66-.7-1.3-1.04-1.91-.35-.61-.75-1.22-1.21-1.82l3.13-1.33ZM288.93,33.51c.36.48.76,1.06,1.19,1.75.43.68.86,1.37,1.28,2.05.42.68.76,1.3,1.03,1.85l-3.13,1.51c-.36-.77-.73-1.47-1.1-2.11s-.74-1.25-1.12-1.85c-.37-.6-.79-1.19-1.24-1.76l3.1-1.44Z"/><path class="cls-1" d="M305.92,33.51c.5.07,1.04.12,1.62.14.58.02,1.13.04,1.66.04.38,0,.96,0,1.73-.02.77-.01,1.64-.03,2.61-.05.97-.02,1.94-.05,2.9-.07.96-.02,1.83-.05,2.61-.09.78-.04,1.39-.07,1.82-.09.74-.07,1.33-.14,1.76-.2.43-.06.76-.13.97-.2l2.34,3.2c-.41.26-.83.53-1.26.79-.43.26-.85.55-1.26.86-.48.34-1.06.77-1.73,1.31s-1.39,1.11-2.14,1.71-1.49,1.19-2.2,1.76-1.35,1.09-1.93,1.55c.6-.14,1.18-.25,1.73-.31s1.12-.09,1.69-.09c2.04,0,3.87.4,5.49,1.19s2.9,1.87,3.85,3.22c.95,1.36,1.42,2.91,1.42,4.66,0,1.9-.48,3.61-1.44,5.15-.96,1.54-2.41,2.76-4.34,3.67-1.93.91-4.35,1.37-7.25,1.37-1.66,0-3.15-.24-4.48-.72-1.33-.48-2.38-1.17-3.15-2.05-.77-.89-1.15-1.93-1.15-3.13,0-.98.27-1.9.81-2.75.54-.85,1.3-1.54,2.27-2.07.97-.53,2.09-.79,3.37-.79,1.66,0,3.05.33,4.19.99s2.02,1.54,2.63,2.65.93,2.32.95,3.64l-4.21.58c-.02-1.32-.35-2.38-.99-3.19-.64-.8-1.48-1.21-2.54-1.21-.67,0-1.21.17-1.62.52s-.61.75-.61,1.21c0,.67.34,1.21,1.01,1.62s1.55.61,2.63.61c2.04,0,3.74-.25,5.11-.74,1.37-.49,2.39-1.2,3.08-2.12.68-.92,1.03-2.02,1.03-3.29,0-1.08-.33-2.03-.99-2.84-.66-.82-1.55-1.45-2.68-1.91s-2.4-.68-3.82-.68-2.66.17-3.82.52-2.24.84-3.26,1.48c-1.02.64-2.02,1.4-2.99,2.3-.97.9-1.94,1.9-2.9,3.01l-3.28-3.38c.65-.53,1.38-1.12,2.2-1.78.82-.66,1.65-1.35,2.5-2.07.85-.72,1.66-1.4,2.41-2.03.76-.64,1.4-1.17,1.93-1.6.5-.41,1.09-.89,1.76-1.44.67-.55,1.37-1.12,2.09-1.71.72-.59,1.4-1.15,2.05-1.69.65-.54,1.19-1,1.62-1.39-.36,0-.83.01-1.4.04-.58.02-1.21.05-1.89.07-.68.02-1.37.05-2.05.07-.68.02-1.32.05-1.91.09-.59.04-1.07.07-1.46.09-.48.02-.98.06-1.51.11-.53.05-1.01.11-1.44.18l-.14-4.68Z"/><path class="cls-1" d="M249.24,14.64c-.23.14-.47.29-.73.42s-.53.28-.82.42c-.3.16-.66.34-1.08.55-.42.21-.88.44-1.37.68s-.98.51-1.47.78c-.49.28-.95.55-1.38.83-.79.53-1.42,1.07-1.89,1.64-.47.56-.7,1.18-.7,1.85s.34,1.24,1.01,1.64c.67.4,1.68.59,3.02.59.65,0,1.33-.03,2.03-.08s1.4-.13,2.06-.22c.67-.1,1.24-.21,1.72-.34l-.02,2.05c-.47.07-1,.14-1.6.22-.6.07-1.25.13-1.94.16-.69.04-1.42.05-2.19.05-.86,0-1.67-.07-2.4-.2-.74-.13-1.38-.35-1.92-.65s-.96-.7-1.26-1.2-.45-1.11-.45-1.83.15-1.34.46-1.93c.31-.59.73-1.14,1.27-1.66.54-.52,1.16-1.01,1.87-1.48.44-.3.92-.59,1.42-.88.5-.29,1-.56,1.48-.83.49-.26.94-.5,1.36-.72.42-.22.77-.41,1.06-.58.29-.17.55-.32.78-.47.23-.14.45-.31.66-.49l.99,1.64ZM240.15,11.13c.29.77.59,1.52.92,2.26s.65,1.42.98,2.06c.33.64.63,1.2.91,1.69l-1.58.94c-.31-.52-.64-1.11-.97-1.79-.34-.68-.68-1.39-1.03-2.15s-.68-1.51-1.01-2.27l1.78-.74Z"/></g></svg>