<?xml version="1.0" encoding="UTF-8"?><svg id="_レイヤー_2" xmlns="http://www.w3.org/2000/svg" viewBox="0 0 768 80"><defs><style>.cls-1{fill:none;}.cls-1,.cls-2{stroke-width:0px;}.cls-2{fill:#333;}</style></defs><g id="_2"><path class="cls-2" d="M254.29,5.89c-.08.33-.18.75-.31,1.26-.13.51-.27,1.04-.42,1.6-.15.56-.31,1.1-.47,1.62-.32.96-.72,1.98-1.2,3.05-.48,1.07-1,2.12-1.56,3.13-.56,1.01-1.13,1.9-1.7,2.66l-1.92-.98c.45-.55.9-1.16,1.34-1.83.44-.67.86-1.37,1.25-2.1.39-.73.75-1.43,1.07-2.12.32-.69.58-1.32.78-1.89.23-.67.43-1.42.62-2.26.19-.84.29-1.63.32-2.36l2.2.22ZM246.91,9.05c.4.04.82.07,1.27.09.45.02.87.03,1.27.03.77,0,1.56-.04,2.37-.11.81-.07,1.61-.19,2.4-.34.79-.15,1.55-.34,2.27-.57l.06,1.84c-.61.17-1.31.33-2.1.48-.79.15-1.61.27-2.46.36-.85.09-1.7.14-2.54.14-.37,0-.77,0-1.18-.02-.41-.01-.82-.03-1.22-.04l-.14-1.86ZM258.99,12.09c-.01.41-.02.81-.02,1.18s0,.76.02,1.16c.01.31.03.7.05,1.19.02.49.04,1,.07,1.55.03.55.05,1.07.07,1.56.02.49.03.89.03,1.2,0,.56-.12,1.07-.37,1.54-.25.47-.64.84-1.17,1.12-.53.28-1.24.42-2.12.42-.77,0-1.48-.11-2.11-.34s-1.14-.57-1.52-1.02c-.38-.45-.57-1.03-.57-1.72,0-.63.18-1.18.53-1.66.35-.48.84-.86,1.47-1.13.63-.27,1.35-.41,2.18-.41,1.15,0,2.2.16,3.16.49.96.33,1.82.73,2.59,1.22.77.49,1.43.98,1.99,1.47l-1.06,1.7c-.39-.35-.81-.71-1.28-1.09s-.98-.73-1.55-1.06c-.57-.33-1.18-.6-1.84-.81-.66-.21-1.36-.32-2.11-.32-.67,0-1.2.13-1.61.4-.41.27-.61.61-.61,1.02s.18.77.53,1.04c.35.27.87.4,1.55.4.51,0,.91-.08,1.21-.25.3-.17.51-.4.63-.69.12-.29.18-.62.18-.98s-.01-.81-.03-1.4-.05-1.22-.08-1.9-.07-1.36-.1-2.05-.06-1.3-.07-1.83h1.96ZM262.75,12.85c-.37-.31-.84-.64-1.4-.99-.56-.35-1.13-.69-1.72-1.02-.59-.33-1.11-.59-1.56-.79l1.02-1.54c.36.16.77.35,1.22.58.45.23.91.47,1.36.72.45.25.87.5,1.26.75.39.25.71.46.96.63l-1.14,1.66Z"/><path class="cls-2" d="M287.99,5.87c-.01.19-.03.39-.05.61-.02.22-.04.47-.05.75-.01.23-.02.55-.03.98s-.01.9-.02,1.41c0,.51,0,1.03,0,1.54v1.41c0,.61.02,1.28.05,1.99.03.71.07,1.42.11,2.11.04.69.08,1.33.11,1.92.03.59.05,1.07.05,1.44,0,.51-.13.98-.38,1.42-.25.44-.65.8-1.2,1.07s-1.26.41-2.14.41c-1.51,0-2.65-.27-3.44-.81s-1.18-1.31-1.18-2.31c0-.64.19-1.2.57-1.68.38-.48.93-.86,1.64-1.13s1.56-.41,2.55-.41c1.07,0,2.07.12,3.01.36.94.24,1.8.55,2.58.92.78.37,1.47.76,2.07,1.17s1.11.77,1.52,1.09l-1.16,1.78c-.47-.43-.99-.86-1.58-1.3-.59-.44-1.23-.84-1.94-1.2-.71-.36-1.46-.65-2.25-.86-.79-.21-1.63-.32-2.51-.32s-1.5.14-1.95.43c-.45.29-.67.63-.67,1.03,0,.28.09.53.27.75.18.22.45.39.81.52s.83.19,1.4.19c.37,0,.71-.05,1.01-.14.3-.09.54-.26.71-.49.17-.23.26-.56.26-.99,0-.35-.01-.81-.04-1.4s-.05-1.22-.07-1.91c-.02-.69-.04-1.35-.07-2-.03-.65-.04-1.2-.04-1.65s0-.95,0-1.45.01-.99.01-1.48v-2.51c0-.17,0-.39-.02-.65-.01-.26-.04-.46-.08-.61h2.14ZM279.97,12.19c.33.05.72.1,1.16.15.44.05.89.08,1.36.11.47.03.91.05,1.33.07.42.02.78.03,1.09.03,1.08,0,2.1-.02,3.05-.07.95-.05,1.87-.11,2.76-.2s1.75-.18,2.59-.29l-.02,1.86c-.68.09-1.35.17-2,.23-.65.06-1.31.11-1.97.15s-1.35.07-2.08.08c-.73.01-1.52.02-2.37.02-.41,0-.91,0-1.5-.03-.59-.02-1.18-.05-1.78-.09-.6-.04-1.13-.09-1.6-.14l-.02-1.88ZM280.07,7.91c.33.05.72.11,1.17.16.45.05.91.1,1.38.15.47.05.92.08,1.35.1.43.02.8.03,1.12.03,1.32,0,2.65-.05,3.98-.14,1.33-.09,2.68-.25,4.04-.48v1.84c-.72.08-1.52.16-2.4.24-.88.08-1.8.15-2.75.2-.95.05-1.9.08-2.85.08-.44,0-.97-.02-1.59-.06s-1.24-.09-1.85-.14c-.61-.05-1.14-.11-1.58-.16l-.02-1.82Z"/><path class="cls-2" d="M309.44,11.89c-.21.16-.43.33-.64.5-.21.17-.39.33-.54.46-.21.19-.49.43-.82.73s-.68.62-1.04.96c-.36.34-.69.65-1,.94-.31.29-.53.52-.68.69.09-.01.22,0,.37,0,.15.02.28.05.39.09.35.05.63.2.85.44.22.24.4.56.53.96.07.17.14.38.21.63.07.25.15.49.22.74.07.25.14.47.21.67.11.35.28.61.53.78.25.17.6.26,1.05.26.48,0,.95-.02,1.42-.05s.91-.08,1.32-.15c.41-.07.78-.13,1.1-.2l-.12,2.1c-.28.04-.65.08-1.12.13-.47.05-.95.09-1.44.12-.49.03-.91.05-1.26.05-.87,0-1.56-.12-2.08-.37-.52-.25-.89-.7-1.12-1.35-.07-.2-.14-.44-.22-.71s-.16-.55-.23-.82c-.07-.27-.14-.5-.19-.67-.12-.36-.28-.62-.48-.79-.2-.17-.43-.25-.68-.25-.24,0-.48.07-.71.21s-.46.32-.69.55c-.15.15-.33.34-.56.57s-.48.5-.75.8-.56.61-.85.94c-.29.33-.59.66-.88,1-.29.34-.56.67-.8.99l-1.9-1.32c.15-.13.32-.29.53-.46.21-.17.42-.37.65-.58.15-.16.39-.41.74-.76.35-.35.75-.75,1.22-1.22s.96-.97,1.49-1.5c.53-.53,1.05-1.06,1.58-1.58.53-.52,1.02-1.01,1.47-1.47s.84-.86,1.16-1.19c-.29.01-.64.03-1.04.06s-.82.06-1.25.09-.86.07-1.28.11c-.42.04-.81.07-1.16.1-.35.03-.66.05-.91.08-.33.01-.64.04-.91.08s-.52.08-.75.12l-.18-2.2c.23.01.5.03.81.04s.64.02.99.02c.21-.01.55-.03,1-.05.45-.02.97-.05,1.55-.08s1.17-.07,1.76-.11,1.15-.08,1.67-.12.94-.08,1.26-.12c.17-.03.36-.06.57-.1s.36-.08.45-.12l1.18,1.32ZM300.9,5.91c.55.11,1.18.21,1.89.32.71.11,1.45.21,2.2.3.75.09,1.47.17,2.16.24.69.07,1.28.11,1.77.14l-.26,1.86c-.52-.04-1.12-.1-1.79-.17-.67-.07-1.38-.16-2.11-.25-.73-.09-1.46-.19-2.18-.3-.72-.11-1.39-.21-2-.32l.32-1.82Z"/><path class="cls-2" d="M107.36,35.61c-.35.72-.67,1.48-.96,2.28-.29.8-.56,1.53-.8,2.2-.56,1.52-1.22,3.16-1.98,4.92-.76,1.76-1.6,3.49-2.52,5.18-.92,1.69-1.93,3.22-3.02,4.58-1.12,1.41-2.47,2.86-4.06,4.34-1.59,1.48-3.32,2.85-5.2,4.12-1.88,1.27-3.85,2.31-5.9,3.14l-4.56-4.68c2.08-.72,4.05-1.61,5.92-2.68,1.87-1.07,3.59-2.27,5.16-3.6,1.57-1.33,2.95-2.71,4.12-4.12,1.28-1.55,2.42-3.3,3.42-5.26,1-1.96,1.85-3.98,2.56-6.06.71-2.08,1.23-4.07,1.58-5.96l6.24,1.6Z"/><path class="cls-2" d="M117.68,46.37c.48.03,1.09.06,1.84.1s1.53.07,2.34.1c.81.03,1.57.04,2.26.04h21.48c.93,0,1.81-.03,2.64-.1.83-.07,1.51-.11,2.04-.14v6.28c-.45-.03-1.13-.07-2.04-.12-.91-.05-1.79-.08-2.64-.08h-21.48c-1.15,0-2.32.02-3.52.06-1.2.04-2.17.09-2.92.14v-6.28Z"/><path class="cls-2" d="M166.56,61.05v-23c0-.69-.03-1.49-.1-2.4-.07-.91-.17-1.71-.3-2.4h6.24c-.08.69-.16,1.46-.24,2.3s-.12,1.67-.12,2.5v23c0,.37.01.9.04,1.58.03.68.08,1.38.16,2.1.08.72.13,1.36.16,1.92h-6.24c.11-.8.2-1.73.28-2.8s.12-2,.12-2.8ZM170.84,43.61c1.33.35,2.83.79,4.48,1.34,1.65.55,3.32,1.13,5,1.74,1.68.61,3.26,1.22,4.74,1.82,1.48.6,2.71,1.15,3.7,1.66l-2.28,5.52c-1.12-.59-2.36-1.18-3.72-1.78-1.36-.6-2.74-1.18-4.14-1.74-1.4-.56-2.77-1.08-4.12-1.56-1.35-.48-2.57-.91-3.66-1.28v-5.72Z"/><path class="cls-2" d="M217.64,37.49c-.27,2.03-.61,4.19-1.04,6.48-.43,2.29-1,4.61-1.72,6.96-.77,2.69-1.68,5.01-2.72,6.96-1.04,1.95-2.18,3.45-3.42,4.5-1.24,1.05-2.59,1.58-4.06,1.58s-2.82-.5-4.06-1.5c-1.24-1-2.23-2.38-2.96-4.14-.73-1.76-1.1-3.76-1.1-6s.47-4.51,1.4-6.56c.93-2.05,2.23-3.87,3.9-5.46,1.67-1.59,3.61-2.83,5.84-3.74,2.23-.91,4.63-1.36,7.22-1.36s4.71.4,6.7,1.2c1.99.8,3.69,1.91,5.1,3.32,1.41,1.41,2.49,3.07,3.24,4.96.75,1.89,1.12,3.93,1.12,6.12,0,2.8-.57,5.31-1.72,7.52-1.15,2.21-2.85,4.04-5.1,5.48s-5.06,2.43-8.42,2.96l-3-4.76c.77-.08,1.45-.17,2.04-.28.59-.11,1.15-.23,1.68-.36,1.28-.32,2.47-.78,3.58-1.38,1.11-.6,2.07-1.35,2.9-2.24.83-.89,1.47-1.94,1.94-3.14.47-1.2.7-2.52.7-3.96,0-1.57-.24-3.01-.72-4.32-.48-1.31-1.19-2.45-2.12-3.42-.93-.97-2.07-1.72-3.4-2.24-1.33-.52-2.87-.78-4.6-.78-2.13,0-4.01.38-5.64,1.14-1.63.76-3,1.74-4.12,2.94-1.12,1.2-1.97,2.49-2.54,3.88-.57,1.39-.86,2.71-.86,3.96,0,1.33.16,2.45.48,3.34.32.89.71,1.56,1.18,2,.47.44.97.66,1.5.66.56,0,1.11-.29,1.66-.86.55-.57,1.09-1.45,1.62-2.62.53-1.17,1.07-2.65,1.6-4.44.61-1.92,1.13-3.97,1.56-6.16.43-2.19.73-4.32.92-6.4l5.44.16Z"/><path class="cls-2" d="M259.92,34.85h.88l.8-.24,3.32,1.72c-1.17,3.12-2.69,5.97-4.54,8.54-1.85,2.57-3.97,4.89-6.36,6.94-2.39,2.05-4.97,3.84-7.74,5.36-2.77,1.52-5.65,2.79-8.64,3.8-.19-.45-.44-.95-.76-1.48-.32-.53-.65-1.05-1-1.56s-.69-.93-1.04-1.28c2.77-.77,5.46-1.83,8.06-3.18,2.6-1.35,5.01-2.93,7.24-4.74,2.23-1.81,4.18-3.82,5.86-6.02,1.68-2.2,2.99-4.55,3.92-7.06v-.8ZM248.32,30.69l5.4,1.04c-1.15,1.95-2.46,3.83-3.94,5.66-1.48,1.83-3.16,3.57-5.04,5.24-1.88,1.67-4.02,3.21-6.42,4.62-.24-.4-.56-.83-.96-1.3-.4-.47-.81-.93-1.24-1.38-.43-.45-.83-.81-1.2-1.08,2.21-1.17,4.18-2.47,5.9-3.88,1.72-1.41,3.21-2.89,4.46-4.42,1.25-1.53,2.27-3.03,3.04-4.5ZM242,43.61l3.6-3.08c.93.64,1.91,1.36,2.94,2.16s2,1.61,2.92,2.42c.92.81,1.67,1.58,2.26,2.3l-3.88,3.44c-.51-.69-1.2-1.47-2.08-2.34-.88-.87-1.83-1.73-2.84-2.58-1.01-.85-1.99-1.63-2.92-2.32ZM251.32,50.37h16.04v4.32h-16.04v13.76h-4.84v-14.56l3.68-3.52h1.16ZM247.24,34.85h14.2v4.24h-14.2v-4.24ZM249.28,62.53h17.88v4.36h-17.88v-4.36ZM264.96,50.37h4.96v18.12h-4.96v-18.12Z"/><path class="cls-2" d="M275.8,36.85h36.4v4.36h-36.4v-4.36ZM278,43.93h12.6v4.04h-8.08v20.28h-4.52v-24.32ZM280.56,50.45h10.36v3.56h-10.36v-3.56ZM280.56,56.61h10.36v3.52h-10.36v-3.52ZM281.32,32.45l4.56-1.6c.72.8,1.44,1.68,2.16,2.64.72.96,1.25,1.83,1.6,2.6l-4.88,1.68c-.27-.72-.73-1.59-1.38-2.6-.65-1.01-1.34-1.92-2.06-2.72ZM289.28,43.93h4.6v19.84c0,.99-.12,1.79-.36,2.4s-.69,1.09-1.36,1.44c-.69.35-1.5.56-2.42.64s-1.99.12-3.22.12c-.13-.61-.34-1.31-.62-2.1-.28-.79-.58-1.45-.9-1.98.72.03,1.44.05,2.16.06.72.01,1.2,0,1.44-.02.24,0,.41-.05.52-.16.11-.11.16-.27.16-.48v-19.76ZM297.32,44.37h4.4v16.4h-4.4v-16.4ZM301.88,30.77l5.2,1.56c-.8,1.28-1.62,2.53-2.46,3.74-.84,1.21-1.62,2.26-2.34,3.14l-4.32-1.48c.48-.64.96-1.36,1.44-2.16.48-.8.94-1.62,1.38-2.46.44-.84.81-1.62,1.1-2.34ZM305.32,43.25h4.72v19.96c0,1.17-.14,2.09-.42,2.74-.28.65-.81,1.18-1.58,1.58-.77.35-1.71.57-2.8.68-1.09.11-2.37.15-3.84.12-.11-.64-.33-1.4-.66-2.28-.33-.88-.69-1.63-1.06-2.24,1.04.05,2.02.08,2.94.08s1.54-.01,1.86-.04c.32,0,.54-.05.66-.14.12-.09.18-.27.18-.54v-19.92Z"/><rect class="cls-1" width="768" height="80"/></g></svg>