<?xml version="1.0" encoding="UTF-8"?><svg id="_レイヤー_2" xmlns="http://www.w3.org/2000/svg" viewBox="0 0 248 84"><defs><style>.cls-1{fill:#ff8080;}.cls-1,.cls-2{stroke-width:0px;}.cls-2{fill:#fff;}</style></defs><g id="_ヘッダー"><rect class="cls-1" x="0" y="0" width="248" height="84" rx="42" ry="42"/><path class="cls-2" d="M111.58,55.29c-2.35,0-4.42-.56-6.21-1.67-1.79-1.12-3.19-2.72-4.19-4.81s-1.51-4.58-1.51-7.49.5-5.34,1.51-7.38c1.01-2.04,2.41-3.6,4.19-4.68,1.79-1.08,3.86-1.62,6.21-1.62s4.45.55,6.23,1.64,3.17,2.65,4.18,4.68c1.01,2.03,1.51,4.48,1.51,7.36s-.5,5.4-1.51,7.49c-1.01,2.09-2.4,3.69-4.18,4.81-1.78,1.12-3.85,1.67-6.23,1.67ZM111.58,50.68c1.32,0,2.47-.38,3.44-1.15.97-.77,1.72-1.85,2.25-3.26.53-1.4.79-3.05.79-4.95s-.26-3.52-.79-4.88c-.53-1.36-1.28-2.4-2.25-3.13-.97-.73-2.12-1.1-3.44-1.1s-2.47.37-3.44,1.1c-.97.73-1.72,1.78-2.23,3.13-.52,1.36-.77,2.98-.77,4.88s.26,3.55.77,4.95c.52,1.4,1.26,2.49,2.23,3.26.97.77,2.12,1.15,3.44,1.15Z"/><path class="cls-2" d="M128.71,54.78v-26.68h5.33v11.59h.11l8.82-11.59h5.87l-8.14,10.51,9.58,16.16h-5.83l-6.91-11.99-3.49,4.5v7.49h-5.33Z"/></g></svg>