<?xml version="1.0" encoding="UTF-8"?><svg id="_レイヤー_2" xmlns="http://www.w3.org/2000/svg" viewBox="0 0 292 84"><defs><style>.cls-1{fill:#ff8080;}.cls-1,.cls-2{stroke-width:0px;}.cls-2{fill:#fff;}</style></defs><g id="_ヘッダー"><rect class="cls-1" y="0" width="292" height="84" rx="42" ry="42"/><path class="cls-2" d="M50.55,43.45h4.21c-.1,1.9-.25,3.81-.47,5.74s-.57,3.8-1.06,5.62c-.49,1.81-1.19,3.52-2.09,5.11-.9,1.6-2.08,3.02-3.55,4.27-.31-.53-.74-1.09-1.3-1.69-.55-.6-1.09-1.08-1.62-1.44,1.3-1.03,2.32-2.23,3.06-3.6s1.31-2.83,1.69-4.39c.38-1.56.65-3.16.79-4.79.14-1.63.25-3.24.32-4.82ZM46.88,32.04h14.87v12.56h-14.87v-12.56ZM50.8,35.85v4.93h6.77v-4.93h-6.77ZM51.7,47.55h8.28v3.78h-8.28v-3.78ZM58.07,47.55h4c-.02.41-.04.74-.04.99v.59c-.12,2.9-.25,5.27-.4,7.11-.14,1.84-.32,3.24-.52,4.21s-.47,1.67-.81,2.11c-.36.46-.76.78-1.19.97-.43.19-.94.32-1.51.4-.48.07-1.12.12-1.91.14-.79.02-1.61.01-2.45-.04-.02-.58-.14-1.22-.36-1.93-.22-.71-.48-1.31-.79-1.82.74.07,1.45.12,2.11.14.66.02,1.15.04,1.46.04.26,0,.49-.03.67-.09.18-.06.35-.19.52-.38.22-.24.4-.77.54-1.6.14-.83.28-2.06.4-3.71s.22-3.81.29-6.5v-.65ZM64.48,34.74h4.18v20.38h-4.18v-20.38ZM72.98,31.1h4.28v27.83c0,1.27-.15,2.24-.45,2.92-.3.67-.82,1.19-1.57,1.55-.74.33-1.72.56-2.92.67-1.2.11-2.63.16-4.28.16-.05-.43-.16-.92-.32-1.46-.17-.54-.35-1.08-.56-1.62-.2-.54-.41-1-.63-1.39,1.18.02,2.29.04,3.35.05,1.06.01,1.76.02,2.12.02.34,0,.58-.07.74-.2.16-.13.23-.37.23-.7v-27.83Z"/><path class="cls-2" d="M101.13,36.29c-.24,1.82-.55,3.77-.94,5.83-.38,2.06-.9,4.15-1.55,6.26-.7,2.42-1.51,4.51-2.45,6.26s-1.96,3.1-3.08,4.05-2.33,1.42-3.65,1.42-2.54-.45-3.65-1.35c-1.12-.9-2-2.14-2.66-3.73-.66-1.58-.99-3.38-.99-5.4s.42-4.06,1.26-5.9,2.01-3.49,3.51-4.91c1.5-1.43,3.25-2.55,5.26-3.37,2-.82,4.17-1.22,6.5-1.22s4.24.36,6.03,1.08c1.79.72,3.32,1.72,4.59,2.99,1.27,1.27,2.24,2.76,2.92,4.46.67,1.71,1.01,3.54,1.01,5.51,0,2.52-.52,4.78-1.55,6.77-1.03,1.99-2.56,3.64-4.59,4.93-2.03,1.3-4.55,2.18-7.58,2.66l-2.7-4.28c.7-.07,1.31-.16,1.84-.25.53-.09,1.03-.2,1.51-.32,1.15-.29,2.23-.7,3.22-1.24s1.87-1.21,2.61-2.02c.74-.8,1.33-1.75,1.75-2.83s.63-2.27.63-3.56c0-1.42-.22-2.71-.65-3.89-.43-1.18-1.07-2.2-1.91-3.08-.84-.88-1.86-1.55-3.06-2.02-1.2-.47-2.58-.7-4.14-.7-1.92,0-3.61.34-5.08,1.03-1.46.68-2.7,1.57-3.71,2.65s-1.77,2.24-2.29,3.49c-.52,1.25-.77,2.44-.77,3.56,0,1.2.14,2.2.43,3.01.29.8.64,1.4,1.06,1.8.42.4.87.59,1.35.59s1-.26,1.49-.77c.49-.52.98-1.3,1.46-2.36.48-1.06.96-2.39,1.44-4,.55-1.73,1.02-3.58,1.4-5.54s.66-3.89.83-5.76l4.9.14Z"/><path class="cls-2" d="M118.73,32.65h28.22v4.28h-23.9v27.22h-4.32v-31.5ZM121.07,46.04h25.96v4.25h-25.96v-4.25ZM131.58,34.99h4.32v13.18h-4.32v-13.18ZM144.91,32.65h4.36v26.46c0,1.15-.14,2.06-.43,2.72s-.8,1.17-1.55,1.53c-.74.36-1.67.58-2.79.67-1.12.08-2.48.13-4.09.13-.07-.41-.19-.88-.36-1.4-.17-.53-.36-1.05-.58-1.57-.22-.52-.43-.97-.65-1.35.7.05,1.4.08,2.11.09.71.01,1.34.02,1.89.02h1.15c.33-.02.58-.1.72-.23.14-.13.22-.35.22-.67v-26.39Z"/><path class="cls-2" d="M169.35,32.07c-.12.65-.31,1.49-.58,2.52-.26,1.03-.65,2.2-1.15,3.49-.38.89-.82,1.81-1.31,2.75-.49.95-.99,1.79-1.49,2.54.31-.14.71-.27,1.19-.38s.98-.19,1.49-.25c.52-.06.98-.09,1.39-.09,1.51,0,2.77.43,3.76,1.3,1,.86,1.49,2.15,1.49,3.85,0,.48,0,1.07.02,1.76.01.7.03,1.42.05,2.18s.05,1.49.07,2.21c.02.72.04,1.37.04,1.94h-4.32c.05-.41.08-.89.09-1.46.01-.56.02-1.16.04-1.78s.02-1.23.04-1.82c.01-.59.02-1.12.02-1.6,0-1.15-.31-1.95-.92-2.39-.61-.44-1.29-.67-2.03-.67-1.01,0-2.02.25-3.04.74-1.02.49-1.88,1.07-2.57,1.75-.53.53-1.06,1.12-1.6,1.76-.54.65-1.12,1.38-1.75,2.2l-3.85-2.88c1.56-1.44,2.91-2.83,4.05-4.18s2.11-2.68,2.9-4c.79-1.32,1.44-2.64,1.94-3.96.36-.96.65-1.96.88-3.01.23-1.04.37-2.02.41-2.93l4.75.4ZM155.81,35.39c.91.14,1.97.25,3.17.32,1.2.07,2.26.11,3.17.11,1.58,0,3.32-.04,5.2-.11,1.88-.07,3.8-.2,5.74-.38,1.94-.18,3.79-.41,5.54-.7l-.04,4.18c-1.27.17-2.65.32-4.12.45-1.48.13-2.98.24-4.5.32-1.52.08-2.98.14-4.37.18-1.39.04-2.63.05-3.71.05-.48,0-1.07,0-1.78-.02-.71-.01-1.43-.04-2.18-.07-.74-.04-1.45-.08-2.12-.13v-4.21ZM184.33,45.61c-.38.12-.83.27-1.35.45-.52.18-1.03.36-1.55.54-.52.18-.98.35-1.39.52-1.15.46-2.51,1.01-4.09,1.66-1.57.65-3.21,1.4-4.91,2.27-1.08.58-1.99,1.14-2.74,1.69-.74.55-1.31,1.11-1.69,1.67-.38.56-.58,1.18-.58,1.85,0,.5.11.92.32,1.24s.54.58.97.77c.43.19.97.32,1.62.4.65.07,1.42.11,2.3.11,1.54,0,3.23-.09,5.08-.27,1.85-.18,3.56-.43,5.15-.74l-.14,4.64c-.77.1-1.74.2-2.92.31-1.18.11-2.39.19-3.65.23-1.26.05-2.47.07-3.62.07-1.87,0-3.55-.18-5.04-.54-1.49-.36-2.66-.98-3.51-1.85-.85-.88-1.28-2.08-1.28-3.62,0-1.25.28-2.38.85-3.38.56-1.01,1.31-1.92,2.25-2.74.94-.82,1.96-1.55,3.08-2.21s2.21-1.27,3.29-1.82c1.1-.58,2.1-1.07,2.99-1.48.89-.41,1.72-.77,2.5-1.1.78-.32,1.53-.65,2.25-.99.7-.31,1.37-.62,2.02-.92.65-.3,1.31-.62,1.98-.95l1.8,4.18Z"/><path class="cls-2" d="M189.87,39.89c.65.05,1.28.07,1.91.05s1.27-.03,1.94-.05c.58-.02,1.29-.07,2.14-.13.85-.06,1.75-.13,2.7-.2.95-.07,1.9-.15,2.86-.23s1.85-.15,2.66-.2c.82-.05,1.49-.07,2.02-.07,1.27,0,2.39.21,3.37.63.97.42,1.74,1.13,2.3,2.14.56,1.01.85,2.38.85,4.1,0,1.42-.07,2.95-.2,4.61s-.34,3.24-.63,4.75-.7,2.8-1.22,3.85c-.58,1.25-1.36,2.11-2.36,2.59-1,.48-2.18.72-3.55.72-.7,0-1.43-.05-2.21-.16-.78-.11-1.48-.22-2.11-.34l-.79-4.75c.48.12,1,.24,1.57.36.56.12,1.1.22,1.62.29.52.07.93.11,1.24.11.6,0,1.13-.11,1.58-.34.46-.23.83-.63,1.12-1.21.33-.7.61-1.6.81-2.7.2-1.1.36-2.3.47-3.58.11-1.28.16-2.51.16-3.69,0-.96-.13-1.67-.4-2.12-.26-.46-.65-.76-1.17-.92-.52-.16-1.16-.23-1.93-.23-.53,0-1.27.04-2.21.13s-1.95.18-3.01.29c-1.06.11-2.05.22-2.97.34-.92.12-1.64.2-2.14.25-.5.1-1.16.2-1.96.31-.8.11-1.48.21-2.03.31l-.43-4.9ZM204.49,32.51c-.12.46-.23.95-.34,1.49-.11.54-.21,1.04-.31,1.49-.1.53-.22,1.12-.36,1.78-.14.66-.28,1.32-.41,1.98-.13.66-.27,1.3-.41,1.93-.24,1.03-.54,2.23-.9,3.6-.36,1.37-.78,2.84-1.26,4.41-.48,1.57-1.02,3.15-1.62,4.73s-1.24,3.13-1.91,4.63c-.67,1.5-1.39,2.85-2.16,4.05l-4.68-1.87c.84-1.13,1.63-2.39,2.36-3.8.73-1.4,1.4-2.85,2-4.34.6-1.49,1.13-2.95,1.6-4.39.47-1.44.87-2.78,1.21-4.03.34-1.25.6-2.32.79-3.2.34-1.63.6-3.2.79-4.72s.28-2.94.25-4.28l5.36.54ZM216.87,35.89c.58.77,1.17,1.73,1.78,2.9s1.21,2.39,1.8,3.69c.59,1.3,1.13,2.54,1.62,3.74.49,1.2.87,2.22,1.13,3.06l-4.57,2.12c-.24-1.01-.57-2.13-.99-3.37-.42-1.24-.9-2.5-1.44-3.78-.54-1.28-1.12-2.5-1.73-3.65-.61-1.15-1.24-2.11-1.89-2.88l4.28-1.84Z"/><path class="cls-2" d="M250.28,34.99c-.58.41-1.14.83-1.69,1.28-.55.45-1.03.85-1.44,1.21-.6.46-1.31,1.01-2.14,1.67s-1.69,1.34-2.59,2.05c-.9.71-1.77,1.4-2.61,2.07-.84.67-1.56,1.27-2.16,1.8-.62.55-1.04,1-1.26,1.35-.22.35-.21.69.02,1.03.23.34.67.79,1.31,1.37.53.46,1.21,1.02,2.03,1.69.83.67,1.73,1.41,2.7,2.21.97.8,1.97,1.63,2.99,2.48,1.02.85,2,1.69,2.95,2.52.95.83,1.79,1.6,2.54,2.32l-4.21,3.85c-1.01-1.13-2.05-2.25-3.13-3.35-.55-.55-1.27-1.23-2.14-2.03-.88-.8-1.82-1.65-2.84-2.54-1.02-.89-2.03-1.77-3.04-2.65-1.01-.88-1.92-1.66-2.74-2.36-1.2-1.01-1.97-1.93-2.32-2.77s-.3-1.67.14-2.5c.44-.83,1.27-1.73,2.47-2.72.72-.55,1.54-1.21,2.45-1.96.91-.76,1.85-1.54,2.81-2.34.96-.8,1.87-1.58,2.74-2.34.86-.76,1.6-1.42,2.2-2,.53-.53,1.06-1.07,1.58-1.62.53-.55.92-1.03,1.19-1.44l4.21,3.71Z"/><path class="cls-2" d="M44.53,20.49c.25-.19.49-.39.7-.59.22-.2.45-.44.7-.7.23-.23.48-.51.77-.85.28-.34.58-.7.89-1.1.31-.4.62-.79.93-1.17.31-.38.6-.73.87-1.04.56-.67,1.12-1.03,1.67-1.09.55-.05,1.12.23,1.74.86.4.38.8.83,1.22,1.32s.84.99,1.26,1.48c.42.49.82.94,1.19,1.35.28.3.58.63.93,1s.71.74,1.1,1.13c.39.39.79.79,1.2,1.19.41.4.82.79,1.24,1.16l-1.49,1.66c-.43-.42-.89-.89-1.38-1.41-.49-.52-.96-1.05-1.41-1.58s-.89-1.03-1.3-1.49c-.38-.44-.78-.91-1.19-1.4-.41-.49-.8-.97-1.18-1.42s-.71-.83-.98-1.13c-.24-.28-.45-.45-.62-.51-.17-.07-.34-.05-.5.04-.16.1-.33.27-.52.52-.19.24-.42.53-.68.86-.26.34-.54.69-.82,1.05-.28.37-.55.73-.82,1.08-.26.35-.5.66-.72.93-.19.26-.39.54-.58.84-.2.29-.37.55-.51.76l-1.69-1.75ZM56.43,13.02c.16.23.34.51.55.86.21.34.42.69.63,1.05.21.36.39.68.53.97l-1.31.58c-.17-.35-.34-.69-.51-1.03-.17-.33-.36-.66-.55-.98s-.4-.62-.61-.91l1.28-.54ZM58.79,12.06c.17.23.36.51.58.85.22.34.44.68.65,1.04.21.35.39.67.53.95l-1.28.61c-.17-.35-.34-.69-.53-1.02-.19-.33-.38-.65-.58-.96-.2-.31-.41-.61-.62-.88l1.24-.58Z"/><path class="cls-2" d="M62.5,15.67c.32-.06.67-.14,1.04-.23.37-.1.72-.19,1.05-.29.36-.11.84-.26,1.43-.46.59-.2,1.25-.4,1.96-.59s1.44-.36,2.19-.5,1.45-.2,2.11-.2c1.03,0,1.96.19,2.8.58.83.38,1.5.94,2,1.67.5.73.75,1.63.75,2.68,0,.85-.16,1.62-.47,2.3-.31.68-.76,1.3-1.35,1.84s-1.29,1-2.12,1.38-1.75.68-2.77.9c-1.03.22-2.13.36-3.3.42l-.81-1.87c1.2-.04,2.33-.16,3.38-.36s1.99-.5,2.81-.9c.82-.4,1.46-.9,1.93-1.52.47-.62.7-1.35.7-2.21,0-.61-.14-1.16-.41-1.64-.28-.48-.69-.86-1.23-1.15s-1.2-.43-1.97-.43c-.56,0-1.18.07-1.85.21s-1.34.31-2.03.51c-.69.2-1.36.43-2,.67-.64.24-1.22.46-1.75.67-.52.21-.95.39-1.27.53l-.81-2.02Z"/><path class="cls-2" d="M128.22,16.3c-.19.14-.38.29-.58.45-.19.16-.35.29-.49.41-.19.17-.44.39-.74.66-.3.27-.61.56-.94.86-.32.31-.62.59-.9.85-.28.26-.48.47-.61.62.08-.01.2,0,.33,0,.14.02.25.04.35.08.31.05.57.18.77.4s.36.5.48.86c.06.16.12.34.19.57.07.22.13.44.2.67.07.22.13.42.19.6.1.31.25.55.48.7.22.16.54.23.94.23.43,0,.86-.01,1.28-.04s.82-.08,1.19-.13c.37-.06.7-.12.99-.18l-.11,1.89c-.25.04-.59.07-1.01.12-.42.04-.85.08-1.3.11-.44.03-.82.04-1.13.04-.78,0-1.4-.11-1.87-.33s-.8-.63-1.01-1.21c-.06-.18-.13-.39-.2-.64s-.14-.49-.21-.74c-.07-.25-.12-.45-.17-.6-.11-.32-.25-.56-.43-.71-.18-.15-.38-.23-.61-.23-.22,0-.43.06-.64.19s-.42.29-.62.5c-.13.13-.3.3-.5.51s-.43.45-.67.72c-.25.27-.5.55-.77.85-.26.29-.53.59-.79.9s-.5.6-.72.89l-1.71-1.19c.13-.12.29-.26.48-.41.19-.16.38-.33.58-.52.13-.14.35-.37.67-.68.31-.31.68-.68,1.1-1.1.42-.42.87-.87,1.34-1.35.47-.48.95-.95,1.42-1.42.47-.47.92-.91,1.32-1.32.41-.41.76-.77,1.04-1.07-.26.01-.58.03-.94.05-.36.02-.74.05-1.12.08s-.77.06-1.15.1-.73.07-1.04.09c-.32.02-.59.05-.82.07-.3.01-.57.04-.82.07s-.47.07-.67.11l-.16-1.98c.2.01.45.02.73.04.28.01.58.02.89.02.19-.01.49-.03.9-.04.41-.02.87-.04,1.39-.07.52-.03,1.05-.06,1.58-.1s1.04-.07,1.5-.11c.47-.04.85-.07,1.13-.11.16-.02.33-.05.51-.09.19-.04.32-.07.41-.11l1.06,1.19ZM120.54,10.91c.49.1,1.06.19,1.7.29.64.1,1.3.19,1.98.27s1.33.16,1.94.22c.62.06,1.15.1,1.59.13l-.23,1.67c-.47-.04-1-.09-1.61-.15-.61-.07-1.24-.14-1.9-.23s-1.31-.17-1.96-.27c-.65-.1-1.25-.19-1.8-.29l.29-1.64Z"/><path class="cls-2" d="M142.56,11.9c-.08.12-.17.25-.27.41-.1.15-.2.31-.31.48-.2.31-.44.7-.72,1.16s-.56.96-.86,1.49-.59,1.05-.88,1.57c-.29.52-.54.98-.76,1.4.38-.3.78-.52,1.2-.66.41-.14.81-.21,1.2-.21.64,0,1.15.2,1.54.59.39.39.6.95.64,1.68.01.31.02.66.02,1.05s0,.77,0,1.14.02.7.04.97c.02.42.17.72.42.89.26.17.55.26.89.26.46,0,.87-.13,1.23-.38.37-.25.69-.59.97-1.02s.52-.89.72-1.4c.2-.51.36-1.02.48-1.54l1.51,1.24c-.31,1-.7,1.87-1.17,2.62s-1.03,1.34-1.69,1.76c-.66.43-1.44.64-2.34.64-.65,0-1.17-.12-1.58-.36s-.7-.54-.88-.9c-.19-.36-.29-.73-.31-1.12-.02-.35-.04-.72-.05-1.12,0-.4-.01-.8-.02-1.19,0-.39-.02-.73-.04-1.02-.01-.36-.12-.64-.32-.84s-.49-.3-.86-.3c-.44,0-.87.13-1.29.4-.41.26-.79.61-1.12,1.04-.33.43-.61.89-.84,1.37-.13.26-.27.58-.41.95-.14.37-.29.74-.42,1.13-.14.39-.26.76-.37,1.11-.11.35-.2.64-.27.86l-1.98-.67c.23-.61.51-1.3.85-2.08.34-.77.71-1.59,1.12-2.45.41-.86.82-1.71,1.24-2.55.42-.84.82-1.64,1.21-2.39.38-.76.73-1.42,1.03-1.98.3-.56.53-.99.68-1.28.12-.22.25-.45.38-.71.13-.26.26-.55.38-.87l2.02.81Z"/></g></svg>