<?xml version="1.0" encoding="UTF-8"?><svg id="_レイヤー_2" xmlns="http://www.w3.org/2000/svg" viewBox="0 0 248 84"><defs><style>.cls-1{fill:#ff8080;}.cls-1,.cls-2{stroke-width:0px;}.cls-2{fill:#fff;}</style></defs><g id="_ヘッダー"><rect class="cls-1" x="0" y="0" width="248" height="84" rx="42" ry="42"/><path class="cls-2" d="M97.18,30.45l4,1.3c-.79,2.04-1.73,4.07-2.83,6.1-1.09,2.03-2.27,3.95-3.53,5.76-1.26,1.81-2.55,3.4-3.87,4.77-.12-.36-.31-.82-.58-1.37-.26-.55-.55-1.12-.86-1.69-.31-.58-.6-1.03-.86-1.37,1.13-1.1,2.22-2.38,3.28-3.82,1.06-1.44,2.03-2.99,2.93-4.64.9-1.66,1.67-3.33,2.32-5.04ZM93.69,40.39l4.1-4.1v27.79h-4.1v-23.69ZM108.38,48.99l3.38,1.19c-.77,1.68-1.7,3.32-2.81,4.91-1.1,1.6-2.32,3.05-3.64,4.36-1.32,1.31-2.7,2.42-4.14,3.33-.22-.36-.5-.76-.85-1.19-.35-.43-.71-.85-1.08-1.24-.37-.4-.73-.74-1.06-1.03,1.39-.72,2.74-1.62,4.03-2.72,1.3-1.09,2.48-2.29,3.55-3.6,1.07-1.31,1.94-2.65,2.61-4.01ZM99.48,47.63h23.15v3.89h-23.15v-3.89ZM101.89,31.93h19.01v12.42h-19.01v-12.42ZM105.96,35.75v4.82h10.58v-4.82h-10.58ZM108.99,43.09h4.32v21.1h-4.32v-21.1ZM114.13,49.35c.67,1.3,1.52,2.58,2.54,3.85,1.02,1.27,2.14,2.45,3.35,3.53s2.44,1.98,3.69,2.7c-.31.24-.67.56-1.06.97-.4.41-.77.83-1.12,1.26-.35.43-.64.83-.88,1.19-1.25-.89-2.48-1.99-3.69-3.31-1.21-1.32-2.34-2.75-3.38-4.3s-1.94-3.13-2.68-4.73l3.24-1.15Z"/><path class="cls-2" d="M137.25,30.35l4.61,1.08c-.89,2.93-2,5.8-3.35,8.62-1.34,2.82-2.97,5.45-4.88,7.9-1.91,2.45-4.16,4.56-6.75,6.34-.14-.41-.34-.87-.59-1.39-.25-.52-.52-1.04-.79-1.57-.28-.53-.54-.96-.77-1.3,1.63-1.08,3.12-2.37,4.46-3.87s2.53-3.12,3.56-4.86c1.03-1.74,1.93-3.55,2.68-5.42s1.36-3.72,1.82-5.54ZM125.98,35.06h32.11v4.14h-32.11v-4.14ZM130.08,45.36h4.36v18.76h-4.36v-18.76ZM136.56,51.05h22.07v4.03h-22.07v-4.03ZM139.33,41.97h13.75v3.89h-13.75v-3.89ZM145.74,48.06h4.36v11.52c0,1.08-.13,1.93-.38,2.54-.25.61-.76,1.07-1.53,1.39-.77.33-1.69.53-2.75.59-1.07.06-2.33.09-3.8.09-.07-.65-.22-1.36-.45-2.12-.23-.77-.47-1.45-.74-2.05.6.02,1.21.05,1.84.07.62.02,1.18.03,1.67.02.49-.01.82-.02.99-.02.31-.02.52-.07.63-.14.11-.07.16-.23.16-.47v-11.41ZM152.04,41.97h1.08l.86-.22,2.7,2.12c-.7.82-1.49,1.66-2.38,2.54s-1.81,1.72-2.75,2.52c-.95.8-1.88,1.51-2.79,2.11-.26-.38-.63-.83-1.1-1.33s-.87-.89-1.21-1.15c.7-.5,1.4-1.1,2.12-1.78.72-.68,1.39-1.39,2-2.11.61-.72,1.1-1.34,1.46-1.87v-.83Z"/><path class="cls-2" d="M103.93,11.51c-.04.11-.08.25-.13.43-.05.18-.1.36-.13.53-.04.17-.07.32-.09.42-.06.3-.13.67-.21,1.12-.08.44-.15.93-.23,1.46-.07.53-.14,1.07-.21,1.61-.07.55-.12,1.07-.16,1.58s-.06.95-.06,1.33c0,.31.01.63.04.96.02.33.06.66.11,1,.08-.25.18-.52.29-.79.11-.28.22-.55.34-.82.12-.27.22-.52.31-.75l.9.74c-.16.44-.32.93-.5,1.45-.17.52-.33,1.02-.48,1.48-.14.47-.25.86-.31,1.17-.02.12-.05.26-.07.42-.02.16-.03.3-.02.4,0,.08,0,.19,0,.32,0,.13.01.24.03.35l-1.62.13c-.19-.64-.36-1.44-.49-2.42-.14-.98-.21-2.08-.21-3.3,0-.67.03-1.37.09-2.09.06-.72.13-1.42.22-2.12.08-.69.17-1.32.25-1.89.08-.57.16-1.04.22-1.41.02-.22.05-.46.08-.73.03-.27.05-.52.06-.75l1.98.16ZM112.36,13v4.18c0,.59.01,1.17.04,1.75s.05,1.13.08,1.67c.03.53.06,1.04.08,1.51.02.47.04.9.04,1.29,0,.76-.25,1.36-.76,1.8-.51.44-1.29.67-2.35.67-.67,0-1.28-.1-1.83-.3-.55-.2-.98-.49-1.3-.88-.32-.39-.48-.88-.48-1.48,0-.48.13-.92.38-1.31.25-.4.64-.71,1.17-.95.53-.24,1.19-.36,2-.36s1.61.09,2.32.27c.71.18,1.34.42,1.91.71.56.29,1.07.6,1.5.93.44.32.81.62,1.12.88l-.95,1.57c-.58-.59-1.19-1.11-1.85-1.56s-1.33-.81-2.02-1.07c-.7-.26-1.39-.4-2.09-.4-.58,0-1.04.11-1.38.32-.34.22-.51.5-.51.86,0,.4.16.69.49.89.32.2.76.3,1.31.3.42,0,.75-.07.98-.2s.4-.32.5-.55c.1-.23.14-.5.14-.8,0-.28,0-.62-.03-1.04-.02-.42-.04-.88-.07-1.39-.03-.51-.05-1.03-.06-1.55-.01-.52-.02-1.02-.02-1.49v-4.25h1.64ZM106.47,16.37c1.1.08,2.19.12,3.27.12,1.07,0,2.11-.04,3.1-.12s1.9-.16,2.75-.25v1.64c-.78.08-1.67.16-2.66.22-1,.06-2.04.1-3.13.11-1.09.01-2.19,0-3.29-.05l-.02-1.66ZM106.76,12.17c.76.06,1.52.1,2.29.11s1.53,0,2.26-.02c.73-.02,1.42-.07,2.08-.13.65-.06,1.25-.13,1.79-.22v1.6c-.53.05-1.12.1-1.77.14-.65.05-1.35.09-2.08.12-.73.03-1.49.04-2.26.04s-1.54-.02-2.31-.05v-1.6Z"/><path class="cls-2" d="M128.58,11.69l.76.04c.25.01.52.02.81.02.16,0,.4,0,.75-.02.34-.01.73-.03,1.17-.04.44-.02.88-.04,1.34-.06s.88-.05,1.26-.07c.38-.02.68-.05.88-.07.25-.02.47-.05.66-.09.19-.04.33-.07.44-.11l1.13,1.3c-.14.1-.34.22-.58.39s-.43.3-.58.42c-.26.22-.56.46-.89.73-.33.27-.67.55-1.03.85s-.71.59-1.07.88c-.36.29-.71.58-1.03.85-.33.27-.63.51-.89.71.86-.1,1.77-.18,2.72-.25.95-.07,1.89-.13,2.82-.17.93-.04,1.8-.06,2.6-.06l.02,1.67c-.88-.05-1.73-.07-2.55-.05-.82.01-1.51.05-2.06.13-.42.06-.83.18-1.21.37-.39.19-.74.42-1.06.71-.32.29-.56.61-.74.96s-.26.74-.26,1.14c0,.54.13.98.4,1.31s.62.59,1.07.76.95.29,1.49.38c.52.06,1,.09,1.46.08.46,0,.85-.02,1.19-.04l-.38,1.85c-2.24.1-3.97-.2-5.18-.88-1.21-.68-1.82-1.74-1.82-3.17,0-.46.09-.89.27-1.3.18-.41.4-.77.67-1.09.26-.32.53-.58.79-.78-.89.07-1.86.17-2.92.31-1.06.13-2.1.29-3.1.47l-.16-1.71c.49-.06,1.02-.12,1.59-.19.57-.07,1.08-.12,1.54-.17.46-.31.95-.67,1.47-1.08.52-.41,1.04-.83,1.57-1.27.52-.44,1-.85,1.45-1.23.44-.38.8-.7,1.08-.95-.14.01-.36.03-.66.04-.29.02-.62.04-.96.05-.35.02-.7.04-1.04.05-.35.02-.66.04-.94.05-.28.02-.5.03-.66.04-.23.01-.47.03-.74.06s-.52.06-.76.08l-.09-1.84ZM137.76,13.72c.22.31.44.66.68,1.05.23.39.45.78.64,1.16l-1.13.5c-.18-.4-.37-.78-.58-1.15s-.43-.74-.68-1.1l1.08-.47ZM139.71,12.96c.22.28.45.62.7,1.03s.47.79.67,1.15l-1.12.52c-.19-.38-.4-.77-.62-1.15-.22-.38-.46-.74-.71-1.06l1.08-.49Z"/><path class="cls-2" d="M150.43,11.9c-.08.12-.17.25-.27.4-.1.15-.2.31-.31.48-.2.31-.44.7-.72,1.16s-.56.96-.86,1.48c-.3.53-.59,1.05-.88,1.57-.29.52-.54.98-.76,1.4.38-.3.78-.52,1.2-.66s.81-.21,1.2-.21c.64,0,1.15.2,1.54.58.39.39.6.95.64,1.68.01.31.02.66.02,1.05s0,.77,0,1.14.02.7.04.97c.02.42.17.72.42.89.26.17.55.26.89.26.46,0,.87-.13,1.23-.38.37-.25.69-.59.97-1.02s.52-.89.72-1.4.36-1.02.48-1.54l1.51,1.24c-.31,1-.7,1.87-1.17,2.62s-1.03,1.34-1.69,1.76-1.44.64-2.34.64c-.65,0-1.17-.12-1.58-.36-.4-.24-.7-.54-.88-.9-.19-.36-.29-.73-.31-1.12-.02-.35-.04-.72-.05-1.12,0-.4-.01-.8-.02-1.19s-.02-.73-.04-1.02c-.01-.36-.12-.64-.32-.84-.2-.2-.49-.3-.86-.3-.44,0-.87.13-1.29.4s-.79.61-1.12,1.04c-.33.43-.61.89-.84,1.37-.13.26-.27.58-.41.94-.14.37-.29.74-.42,1.13-.14.39-.26.76-.37,1.11-.11.35-.2.64-.27.86l-1.98-.67c.23-.61.51-1.31.85-2.08.34-.77.71-1.59,1.12-2.45.41-.86.82-1.71,1.24-2.55.42-.84.82-1.64,1.21-2.39.38-.76.73-1.42,1.03-1.98.3-.56.53-.99.68-1.28.12-.22.25-.45.38-.71.13-.26.26-.55.38-.87l2.02.81Z"/></g></svg>