<?xml version="1.0" encoding="UTF-8"?><svg id="_レイヤー_2" xmlns="http://www.w3.org/2000/svg" viewBox="0 0 768 80"><defs><style>.cls-1{fill:none;}.cls-1,.cls-2{stroke-width:0px;}.cls-2{fill:#333;}</style></defs><g id="_2"><path class="cls-2" d="M75.88,52.97h36.28v4.84h-36.28v-4.84ZM78.32,43.41h31.76v4.76h-31.76v-4.76ZM79.16,33.45l4.4-1.72c.59.88,1.17,1.85,1.76,2.9.59,1.05,1.11,2.07,1.58,3.06.47.99.82,1.89,1.06,2.72l-4.76,1.96c-.19-.8-.49-1.71-.92-2.74-.43-1.03-.91-2.08-1.46-3.16s-1.1-2.09-1.66-3.02ZM91.36,30.85h5.04v37.56h-5.04V30.85ZM104,31.53l5.2,1.6c-.53,1.09-1.09,2.18-1.66,3.26-.57,1.08-1.14,2.11-1.7,3.08-.56.97-1.08,1.83-1.56,2.58l-4.4-1.52c.51-.8,1.01-1.72,1.52-2.76.51-1.04.99-2.11,1.46-3.2.47-1.09.85-2.11,1.14-3.04Z"/><path class="cls-2" d="M124.84,39.37l4.24,1.76c-.96,1.63-2.1,3.26-3.42,4.9-1.32,1.64-2.7,3.19-4.14,4.64-1.44,1.46-2.87,2.73-4.28,3.82-.13-.35-.35-.81-.66-1.4-.31-.59-.63-1.18-.98-1.78-.35-.6-.65-1.07-.92-1.42,1.23-.85,2.47-1.84,3.72-2.96,1.25-1.12,2.44-2.33,3.56-3.62,1.12-1.29,2.08-2.61,2.88-3.94ZM123.56,30.93l4.56,1.84c-.88,1.25-1.91,2.51-3.08,3.76-1.17,1.25-2.41,2.43-3.7,3.54-1.29,1.11-2.58,2.07-3.86,2.9-.16-.37-.39-.81-.68-1.32-.29-.51-.59-1.01-.9-1.52-.31-.51-.58-.92-.82-1.24,1.07-.64,2.14-1.41,3.22-2.32,1.08-.91,2.09-1.85,3.02-2.82.93-.97,1.68-1.91,2.24-2.82ZM120.76,48.69l4.44-4.44.2.08v24.12h-4.64v-19.76ZM146.28,32.89h.88l.8-.2,2.96,1.28c-.85,2.53-1.98,4.77-3.38,6.72-1.4,1.95-3.03,3.63-4.9,5.06-1.87,1.43-3.91,2.63-6.12,3.62-2.21.99-4.56,1.81-7.04,2.48-.24-.59-.58-1.25-1.02-2-.44-.75-.87-1.35-1.3-1.8,2.24-.51,4.37-1.17,6.38-2s3.86-1.84,5.54-3.04c1.68-1.2,3.13-2.59,4.36-4.16,1.23-1.57,2.17-3.33,2.84-5.28v-.68ZM127.48,63.13h25.16v4.2h-25.16v-4.2ZM129.56,32.89h17.96v3.92h-17.96v-3.92ZM129.8,54.77h20.84v4.08h-20.84v-4.08ZM135.76,36.61c1.07,1.81,2.46,3.46,4.18,4.94,1.72,1.48,3.72,2.75,6,3.8,2.28,1.05,4.78,1.85,7.5,2.38-.35.32-.71.72-1.08,1.2-.37.48-.73.97-1.06,1.46-.33.49-.61.94-.82,1.34-2.83-.72-5.42-1.71-7.78-2.98-2.36-1.27-4.45-2.81-6.28-4.62-1.83-1.81-3.38-3.87-4.66-6.16l4-1.36ZM138.04,50.53h4.68v14.6h-4.68v-14.6Z"/><path class="cls-2" d="M177.64,37.49c-.27,2.03-.61,4.19-1.04,6.48-.43,2.29-1,4.61-1.72,6.96-.77,2.69-1.68,5.01-2.72,6.96-1.04,1.95-2.18,3.45-3.42,4.5-1.24,1.05-2.59,1.58-4.06,1.58s-2.82-.5-4.06-1.5-2.23-2.38-2.96-4.14c-.73-1.76-1.1-3.76-1.1-6s.47-4.51,1.4-6.56,2.23-3.87,3.9-5.46c1.67-1.59,3.61-2.83,5.84-3.74,2.23-.91,4.63-1.36,7.22-1.36s4.71.4,6.7,1.2c1.99.8,3.69,1.91,5.1,3.32,1.41,1.41,2.49,3.07,3.24,4.96.75,1.89,1.12,3.93,1.12,6.12,0,2.8-.57,5.31-1.72,7.52-1.15,2.21-2.85,4.04-5.1,5.48s-5.06,2.43-8.42,2.96l-3-4.76c.77-.08,1.45-.17,2.04-.28.59-.11,1.15-.23,1.68-.36,1.28-.32,2.47-.78,3.58-1.38,1.11-.6,2.07-1.35,2.9-2.24.83-.89,1.47-1.94,1.94-3.14.47-1.2.7-2.52.7-3.96,0-1.57-.24-3.01-.72-4.32-.48-1.31-1.19-2.45-2.12-3.42-.93-.97-2.07-1.72-3.4-2.24-1.33-.52-2.87-.78-4.6-.78-2.13,0-4.01.38-5.64,1.14-1.63.76-3,1.74-4.12,2.94-1.12,1.2-1.97,2.49-2.54,3.88-.57,1.39-.86,2.71-.86,3.96,0,1.33.16,2.45.48,3.34.32.89.71,1.56,1.18,2,.47.44.97.66,1.5.66s1.11-.29,1.66-.86c.55-.57,1.09-1.45,1.62-2.62.53-1.17,1.07-2.65,1.6-4.44.61-1.92,1.13-3.97,1.56-6.16.43-2.19.73-4.32.92-6.4l5.44.16Z"/><path class="cls-2" d="M195.88,49.81h36.28v4.24h-36.28v-4.24ZM197.64,63.85c1.57-.19,3.38-.42,5.42-.7,2.04-.28,4.19-.58,6.44-.9,2.25-.32,4.47-.64,6.66-.96l.24,4.2c-2.05.32-4.13.65-6.24,1s-4.13.66-6.08.94-3.73.55-5.36.82l-1.08-4.4ZM202.56,32.29h25.36v3.92h-20.44v15.36h-4.92v-19.28ZM202.56,51.09h4.92v13.28l-4.92.52v-13.8ZM205.2,38.29h21.64v3.72h-21.64v-3.72ZM205.2,44.05h21.64v3.72h-21.64v-3.72ZM215.68,51.01c1.31,3.49,3.37,6.36,6.2,8.6,2.83,2.24,6.51,3.77,11.04,4.6-.35.35-.71.77-1.1,1.28-.39.51-.75,1.03-1.1,1.56s-.63,1.03-.84,1.48c-3.28-.77-6.11-1.89-8.48-3.34s-4.38-3.27-6.02-5.46c-1.64-2.19-3.01-4.75-4.1-7.68l4.4-1.04ZM227.04,53.53l3.88,2.68c-.99.72-2.02,1.42-3.1,2.1-1.08.68-2.17,1.31-3.26,1.9s-2.11,1.11-3.04,1.56l-3.2-2.48c.93-.48,1.93-1.05,3-1.7s2.1-1.34,3.1-2.06c1-.72,1.87-1.39,2.62-2Z"/><path class="cls-2" d="M239.72,38.37c2.48.29,4.81.49,7,.6,2.19.11,4.23.13,6.12.08,1.89-.05,3.63-.17,5.2-.36,1.23-.16,2.42-.33,3.58-.52,1.16-.19,2.31-.41,3.44-.68,1.13-.27,2.21-.56,3.22-.88l.64,5.04c-.88.24-1.83.47-2.86.68-1.03.21-2.09.41-3.18.58-1.09.17-2.17.33-3.24.46-2.69.29-5.65.47-8.88.52-3.23.05-6.88-.08-10.96-.4l-.08-5.12ZM247.72,52.01c-.61.93-1.09,1.85-1.44,2.74-.35.89-.52,1.78-.52,2.66,0,1.68.73,2.9,2.2,3.66s3.56,1.14,6.28,1.14c2.19,0,4.17-.09,5.94-.28,1.77-.19,3.37-.41,4.78-.68l-.28,5.04c-1.12.21-2.58.43-4.38.64-1.8.21-3.93.32-6.38.32-2.69-.03-5.04-.38-7.04-1.06-2-.68-3.55-1.69-4.64-3.04-1.09-1.35-1.64-2.97-1.64-4.86,0-1.23.18-2.43.54-3.62.36-1.19.89-2.46,1.58-3.82l5,1.16ZM254.28,36.49c-.16-.45-.35-1.01-.56-1.68-.21-.67-.45-1.33-.72-2l5.4-.64c.21,1.04.45,2.07.72,3.1.27,1.03.56,2.03.88,3s.64,1.89.96,2.74c.61,1.65,1.34,3.27,2.18,4.86.84,1.59,1.58,2.83,2.22,3.74.35.51.7.98,1.06,1.42.36.44.73.86,1.1,1.26l-2.48,3.6c-.56-.11-1.27-.22-2.12-.34-.85-.12-1.78-.23-2.78-.34s-2-.21-3-.32c-1-.11-1.91-.19-2.74-.24l.4-4.24c.67.05,1.37.11,2.12.18.75.07,1.45.13,2.1.18.65.05,1.19.09,1.62.12-.48-.77-.99-1.65-1.52-2.64-.53-.99-1.05-2.02-1.56-3.1-.51-1.08-.97-2.17-1.4-3.26-.43-1.12-.79-2.13-1.1-3.04-.31-.91-.57-1.69-.78-2.36Z"/><path class="cls-2" d="M285.76,34.25c-.11.27-.23.64-.36,1.12-.13.48-.26.95-.38,1.4-.12.45-.21.8-.26,1.04-.08.56-.21,1.29-.38,2.18-.17.89-.35,1.89-.52,3-.17,1.11-.34,2.23-.5,3.38s-.29,2.25-.38,3.32c-.09,1.07-.14,2-.14,2.8,0,.37,0,.8.02,1.28.01.48.06.92.14,1.32.19-.45.39-.91.6-1.36.21-.45.43-.91.64-1.38.21-.47.4-.91.56-1.34l2.48,1.96c-.37,1.09-.75,2.27-1.14,3.52-.39,1.25-.73,2.43-1.04,3.54-.31,1.11-.54,2.02-.7,2.74-.05.29-.1.63-.14,1-.04.37-.06.67-.06.88s0,.47.02.78c.01.31.03.59.06.86l-4.64.32c-.4-1.39-.76-3.23-1.08-5.54-.32-2.31-.48-4.82-.48-7.54,0-1.49.07-3.01.2-4.56.13-1.55.29-3.03.48-4.46s.37-2.73.54-3.9c.17-1.17.33-2.15.46-2.92.05-.56.13-1.19.22-1.9s.15-1.38.18-2.02l5.6.48ZM295.12,54.01c-.16.67-.28,1.26-.36,1.78-.08.52-.12,1.05-.12,1.58,0,.43.11.82.32,1.18.21.36.54.67.98.92.44.25,1.01.44,1.72.56.71.12,1.57.18,2.58.18,1.79,0,3.47-.09,5.04-.26,1.57-.17,3.24-.43,5-.78l.08,5.4c-1.28.24-2.75.43-4.42.56-1.67.13-3.63.2-5.9.2-3.44,0-6-.58-7.68-1.74-1.68-1.16-2.52-2.77-2.52-4.82,0-.77.06-1.58.18-2.42.12-.84.29-1.77.5-2.78l4.6.44ZM291.92,36.93c1.23.16,2.61.27,4.14.34,1.53.07,3.09.09,4.68.08,1.59-.01,3.11-.07,4.58-.16,1.47-.09,2.73-.19,3.8-.3v5.16c-1.23.11-2.57.19-4.04.26-1.47.07-2.97.1-4.52.1s-3.06-.03-4.54-.1c-1.48-.07-2.85-.15-4.1-.26v-5.12Z"/><path class="cls-2" d="M319.76,58.21c.69.05,1.47.11,2.34.16.87.05,1.75.08,2.66.08h21.6v5.24h-21.44c-.77,0-1.66.03-2.66.08s-1.83.11-2.5.16v-5.72ZM320.28,36.49c.75.08,1.59.14,2.52.18.93.04,1.73.06,2.4.06h20.16c.59,0,1.23,0,1.94-.02s1.23-.03,1.58-.06c-.03.45-.05,1.03-.08,1.74-.03.71-.04,1.35-.04,1.94v20.72c0,.69.02,1.51.06,2.44.04.93.07,1.69.1,2.28h-5.8c.03-.59.05-1.23.06-1.94.01-.71.02-1.42.02-2.14v-19.8h-17.96c-.85,0-1.75.01-2.7.04-.95.03-1.7.07-2.26.12v-5.56Z"/><path class="cls-2" d="M358.64,61.13c2.08-.29,4.04-.71,5.88-1.24s3.55-1.15,5.12-1.84,3.01-1.41,4.32-2.16c2.27-1.36,4.35-2.91,6.24-4.64,1.89-1.73,3.55-3.54,4.96-5.42,1.41-1.88,2.53-3.71,3.36-5.5l3.12,5.64c-1.01,1.79-2.26,3.57-3.74,5.36-1.48,1.79-3.15,3.49-5.02,5.1-1.87,1.61-3.88,3.06-6.04,4.34-1.36.83-2.83,1.61-4.4,2.34-1.57.73-3.23,1.39-4.98,1.96-1.75.57-3.57,1.02-5.46,1.34l-3.36-5.28ZM363.64,34.49c.69.48,1.51,1.07,2.44,1.76.93.69,1.9,1.45,2.9,2.26s1.94,1.61,2.82,2.38c.88.77,1.6,1.47,2.16,2.08l-4.08,4.16c-.51-.56-1.17-1.23-2-2s-1.72-1.57-2.68-2.4c-.96-.83-1.91-1.61-2.84-2.36-.93-.75-1.76-1.37-2.48-1.88l3.76-4Z"/><path class="cls-2" d="M401.68,52.45c.45-1.12.89-2.3,1.3-3.54.41-1.24.78-2.52,1.1-3.84.32-1.32.61-2.63.86-3.94.25-1.31.43-2.6.54-3.88l5.84,1.2c-.11.37-.23.81-.36,1.32-.13.51-.25,1-.36,1.48-.11.48-.19.88-.24,1.2-.13.69-.32,1.53-.56,2.52s-.52,2.03-.84,3.14c-.32,1.11-.65,2.21-.98,3.32-.33,1.11-.67,2.13-1.02,3.06-.48,1.28-1.05,2.61-1.7,4-.65,1.39-1.35,2.72-2.08,4-.73,1.28-1.45,2.43-2.14,3.44l-5.6-2.36c1.28-1.65,2.47-3.48,3.58-5.48,1.11-2,1.99-3.88,2.66-5.64ZM421.44,51.61c-.4-1.07-.84-2.2-1.32-3.4-.48-1.2-.99-2.4-1.52-3.6-.53-1.2-1.05-2.33-1.56-3.4-.51-1.07-.97-1.99-1.4-2.76l5.32-1.72c.4.77.87,1.71,1.4,2.8.53,1.09,1.07,2.25,1.6,3.46.53,1.21,1.05,2.42,1.56,3.62.51,1.2.96,2.28,1.36,3.24.35.88.73,1.92,1.14,3.12.41,1.2.84,2.45,1.28,3.74.44,1.29.85,2.55,1.24,3.78s.71,2.33.98,3.32l-5.92,1.92c-.35-1.57-.75-3.17-1.2-4.8-.45-1.63-.93-3.23-1.42-4.8-.49-1.57-1.01-3.08-1.54-4.52ZM423.56,36.13c0-.88.22-1.69.66-2.42.44-.73,1.02-1.31,1.74-1.74.72-.43,1.52-.64,2.4-.64s1.68.21,2.4.64c.72.43,1.3,1.01,1.74,1.74s.66,1.54.66,2.42-.22,1.64-.66,2.36c-.44.72-1.02,1.3-1.74,1.74s-1.52.66-2.4.66-1.68-.22-2.4-.66c-.72-.44-1.3-1.02-1.74-1.74-.44-.72-.66-1.51-.66-2.36ZM426.04,36.13c0,.64.23,1.18.68,1.62.45.44,1,.66,1.64.66s1.19-.22,1.64-.66c.45-.44.68-.98.68-1.62s-.23-1.19-.68-1.64c-.45-.45-1-.68-1.64-.68s-1.19.23-1.64.68c-.45.45-.68,1-.68,1.64Z"/><path class="cls-2" d="M467.36,37.77c-.16.24-.39.61-.7,1.12-.31.51-.54.97-.7,1.4-.56,1.25-1.25,2.65-2.06,4.2-.81,1.55-1.73,3.1-2.76,4.66-1.03,1.56-2.11,3.02-3.26,4.38-1.49,1.68-3.14,3.34-4.94,4.98-1.8,1.64-3.69,3.15-5.68,4.52-1.99,1.37-4.02,2.55-6.1,3.54l-4.12-4.32c2.16-.83,4.25-1.87,6.28-3.12,2.03-1.25,3.91-2.61,5.64-4.08,1.73-1.47,3.23-2.89,4.48-4.28.88-1.01,1.71-2.09,2.5-3.24.79-1.15,1.49-2.29,2.1-3.42.61-1.13,1.07-2.18,1.36-3.14h-13.56c-.56,0-1.15.02-1.76.06-.61.04-1.19.08-1.74.12-.55.04-.97.07-1.26.1v-5.68c.4.03.89.07,1.48.12.59.05,1.18.09,1.78.12.6.03,1.1.04,1.5.04h14.12c.88,0,1.69-.05,2.42-.16s1.3-.23,1.7-.36l3.28,2.44ZM458.4,50.21c1.04.83,2.15,1.79,3.32,2.88,1.17,1.09,2.33,2.23,3.48,3.4,1.15,1.17,2.21,2.3,3.18,3.38.97,1.08,1.79,2.02,2.46,2.82l-4.56,3.96c-.99-1.36-2.11-2.77-3.38-4.24-1.27-1.47-2.6-2.93-4-4.38-1.4-1.45-2.82-2.83-4.26-4.14l3.76-3.68Z"/><path class="cls-2" d="M493.44,32.81c-.13.72-.35,1.65-.64,2.8s-.72,2.44-1.28,3.88c-.43.99-.91,2.01-1.46,3.06-.55,1.05-1.1,1.99-1.66,2.82.35-.16.79-.3,1.32-.42.53-.12,1.09-.21,1.66-.28.57-.07,1.09-.1,1.54-.1,1.68,0,3.07.48,4.18,1.44,1.11.96,1.66,2.39,1.66,4.28,0,.53,0,1.19.02,1.96.01.77.03,1.58.06,2.42.03.84.05,1.66.08,2.46.03.8.04,1.52.04,2.16h-4.8c.05-.45.09-.99.1-1.62.01-.62.03-1.29.04-1.98.01-.69.03-1.37.04-2.02.01-.65.02-1.25.02-1.78,0-1.28-.34-2.17-1.02-2.66-.68-.49-1.43-.74-2.26-.74-1.12,0-2.25.27-3.38.82-1.13.55-2.09,1.19-2.86,1.94-.59.59-1.18,1.24-1.78,1.96-.6.72-1.25,1.53-1.94,2.44l-4.28-3.2c1.73-1.6,3.23-3.15,4.5-4.64,1.27-1.49,2.34-2.97,3.22-4.44.88-1.47,1.6-2.93,2.16-4.4.4-1.07.73-2.18.98-3.34.25-1.16.41-2.25.46-3.26l5.28.44ZM478.4,36.49c1.01.16,2.19.28,3.52.36s2.51.12,3.52.12c1.76,0,3.69-.04,5.78-.12s4.22-.22,6.38-.42c2.16-.2,4.21-.46,6.16-.78l-.04,4.64c-1.41.19-2.94.35-4.58.5-1.64.15-3.31.27-5,.36-1.69.09-3.31.16-4.86.2-1.55.04-2.92.06-4.12.06-.53,0-1.19,0-1.98-.02-.79-.01-1.59-.04-2.42-.08s-1.61-.09-2.36-.14v-4.68ZM510.08,47.85c-.43.13-.93.3-1.5.5s-1.15.4-1.72.6c-.57.2-1.09.39-1.54.58-1.28.51-2.79,1.12-4.54,1.84-1.75.72-3.57,1.56-5.46,2.52-1.2.64-2.21,1.27-3.04,1.88-.83.61-1.45,1.23-1.88,1.86-.43.63-.64,1.31-.64,2.06,0,.56.12,1.02.36,1.38.24.36.6.65,1.08.86s1.08.36,1.8.44,1.57.12,2.56.12c1.71,0,3.59-.1,5.64-.3,2.05-.2,3.96-.47,5.72-.82l-.16,5.16c-.85.11-1.93.22-3.24.34-1.31.12-2.66.21-4.06.26-1.4.05-2.74.08-4.02.08-2.08,0-3.95-.2-5.6-.6-1.65-.4-2.95-1.09-3.9-2.06-.95-.97-1.42-2.31-1.42-4.02,0-1.39.31-2.64.94-3.76s1.46-2.13,2.5-3.04c1.04-.91,2.18-1.73,3.42-2.46s2.46-1.41,3.66-2.02c1.23-.64,2.33-1.19,3.32-1.64.99-.45,1.91-.86,2.78-1.22s1.7-.73,2.5-1.1c.77-.35,1.52-.69,2.24-1.02.72-.33,1.45-.69,2.2-1.06l2,4.64Z"/><path class="cls-2" d="M517.16,32.45h4.68v36.04h-4.68v-36.04ZM519.56,37.89h10.04v3.12h-10.04v-3.12ZM520,32.45h12.64v14.2h-12.64v-3.44h8.16v-7.36h-8.16v-3.4ZM527.88,50.09h4.12v7.64c0,.67-.08,1.45-.24,2.36-.16.91-.43,1.87-.82,2.9-.39,1.03-.93,2.01-1.62,2.96-.69.95-1.56,1.78-2.6,2.5-.35-.43-.83-.91-1.44-1.46-.62-.55-1.16-.98-1.64-1.3,1.12-.69,1.99-1.53,2.62-2.52.63-.99,1.05-1.97,1.28-2.96s.34-1.81.34-2.48v-7.64ZM523.72,55.53h20.64v3.92h-20.64v-3.92ZM524.28,48.73h19.4v3.76h-19.4v-3.76ZM548.8,32.45v3.4h-9v7.48h9v3.44h-13.56v-14.32h13.56ZM535.68,49.89h4.24v17.84h-4.24v-17.84ZM538.12,37.89h10.08v3.12h-10.08v-3.12ZM546.32,32.45h4.72v30.44c0,1.23-.13,2.19-.38,2.9-.25.71-.75,1.26-1.5,1.66-.72.4-1.61.65-2.68.76-1.07.11-2.37.15-3.92.12-.05-.43-.15-.93-.3-1.5-.15-.57-.31-1.15-.5-1.74-.19-.59-.4-1.08-.64-1.48.91.03,1.79.05,2.64.06.85.01,1.44,0,1.76-.02.29,0,.5-.07.62-.2.12-.13.18-.33.18-.6v-30.4Z"/><path class="cls-2" d="M559.84,44.57c2.43.21,4.75.36,6.96.44,2.21.08,4.29.08,6.24,0,1.95-.08,3.72-.19,5.32-.32,2.16-.19,4.01-.46,5.56-.82,1.55-.36,2.89-.7,4.04-1.02l.8,4.72c-1.2.29-2.52.57-3.96.84-1.44.27-2.97.49-4.6.68-1.71.16-3.66.29-5.86.38-2.2.09-4.51.12-6.94.08-2.43-.04-4.85-.13-7.28-.26l-.28-4.72ZM560.56,36.17c2.93.35,5.63.55,8.1.62s4.75.02,6.86-.14c1.84-.16,3.6-.4,5.28-.72s3.33-.73,4.96-1.24l.64,4.6c-1.44.4-3,.75-4.68,1.04-1.68.29-3.4.52-5.16.68-2.05.16-4.42.23-7.1.22s-5.55-.17-8.62-.46l-.28-4.6ZM567.52,53.85c-.48.67-.89,1.35-1.24,2.06-.35.71-.52,1.5-.52,2.38,0,1.47.69,2.53,2.06,3.18,1.37.65,3.38.98,6.02.98,1.89,0,3.69-.08,5.38-.24s3.25-.37,4.66-.64l-.28,5.08c-1.39.24-2.95.43-4.68.56-1.73.13-3.41.2-5.04.2-2.67,0-4.97-.28-6.9-.84-1.93-.56-3.43-1.43-4.5-2.62-1.07-1.19-1.61-2.73-1.64-4.62-.03-1.28.14-2.43.5-3.46.36-1.03.77-2.02,1.22-2.98l4.96.96ZM573.2,37.29c-.19-.75-.4-1.49-.64-2.22-.24-.73-.51-1.49-.8-2.26l5.4-.6c.16,1.25.37,2.49.62,3.7.25,1.21.54,2.38.88,3.5.33,1.12.66,2.2.98,3.24.32.91.74,1.94,1.26,3.1.52,1.16,1.09,2.32,1.7,3.48s1.23,2.21,1.84,3.14c.27.37.54.73.82,1.06.28.33.61.66.98.98l-2.44,3.68c-.75-.16-1.67-.32-2.78-.48-1.11-.16-2.25-.31-3.44-.44-1.19-.13-2.27-.25-3.26-.36l.4-3.8c.83.08,1.73.16,2.7.24.97.08,1.75.16,2.34.24-1.07-1.79-1.98-3.53-2.74-5.24-.76-1.71-1.39-3.29-1.9-4.76-.32-.93-.59-1.74-.8-2.42s-.41-1.32-.58-1.92-.35-1.22-.54-1.86Z"/><path class="cls-2" d="M617.88,32.53c-.05.4-.1.85-.14,1.34-.04.49-.07.99-.1,1.5-.03.53-.05,1.25-.08,2.14-.03.89-.04,1.87-.04,2.94v6c0,1.12.03,2.37.08,3.74.05,1.37.13,2.76.22,4.16s.17,2.71.24,3.92c.07,1.21.1,2.22.1,3.02,0,1.12-.29,2.14-.88,3.06-.59.92-1.46,1.65-2.62,2.18-1.16.53-2.62.8-4.38.8-3.2,0-5.63-.59-7.28-1.76-1.65-1.17-2.48-2.81-2.48-4.92,0-1.36.39-2.55,1.18-3.58.79-1.03,1.92-1.83,3.4-2.42,1.48-.59,3.25-.88,5.3-.88,2.19,0,4.23.23,6.14.7,1.91.47,3.65,1.07,5.22,1.82,1.57.75,2.97,1.53,4.2,2.36,1.23.83,2.27,1.57,3.12,2.24l-2.88,4.48c-.96-.91-2.04-1.8-3.22-2.68-1.19-.88-2.48-1.68-3.88-2.4-1.4-.72-2.88-1.3-4.44-1.74s-3.21-.66-4.94-.66c-1.39,0-2.46.24-3.22.72-.76.48-1.14,1.07-1.14,1.76,0,.51.16.95.48,1.32.32.37.79.65,1.4.84.61.19,1.39.28,2.32.28.72,0,1.34-.08,1.86-.24.52-.16.93-.45,1.22-.88s.44-1.03.44-1.8c0-.59-.02-1.43-.06-2.52-.04-1.09-.09-2.3-.14-3.62-.05-1.32-.11-2.62-.16-3.9-.05-1.28-.08-2.41-.08-3.4s0-1.97.02-3.02.02-2.1.02-3.14,0-1.99.02-2.86c.01-.87.02-1.58.02-2.14,0-.37-.02-.83-.06-1.38-.04-.55-.1-1.01-.18-1.38h5.4ZM601.08,44.93c.64.11,1.4.21,2.28.32.88.11,1.78.19,2.7.24.92.05,1.79.1,2.62.14.83.04,1.51.06,2.04.06,2.48,0,4.73-.05,6.74-.16,2.01-.11,3.9-.24,5.66-.4s3.45-.35,5.08-.56l-.04,4.72c-1.39.16-2.73.29-4.02.4s-2.61.2-3.96.28c-1.35.08-2.79.13-4.34.16-1.55.03-3.28.04-5.2.04-.77,0-1.73-.02-2.88-.06-1.15-.04-2.31-.1-3.5-.18-1.19-.08-2.23-.17-3.14-.28l-.04-4.72ZM601.28,36.29c.72.11,1.52.21,2.4.32.88.11,1.78.21,2.7.3.92.09,1.79.16,2.62.2.83.04,1.55.06,2.16.06,2.72,0,5.43-.09,8.14-.26,2.71-.17,5.51-.5,8.42-.98l-.04,4.6c-1.36.19-2.93.36-4.72.52-1.79.16-3.69.29-5.7.38-2.01.09-4.03.14-6.06.14-.83,0-1.85-.03-3.06-.1-1.21-.07-2.42-.16-3.62-.28-1.2-.12-2.24-.23-3.12-.34l-.12-4.56Z"/><path class="cls-2" d="M637.52,37.61c1.17,0,2.51-.01,4-.04,1.49-.03,3.05-.05,4.68-.08,1.62-.03,3.22-.05,4.8-.08,1.57-.03,3.05-.05,4.44-.06,1.38-.01,2.59-.02,3.6-.02s2.12,0,3.32-.02c1.2-.01,2.38-.02,3.56-.02h5.48l-.04,4.72c-1.25-.05-2.91-.1-4.96-.14-2.05-.04-4.56-.06-7.52-.06-1.81,0-3.65.02-5.52.06-1.87.04-3.72.09-5.56.14s-3.61.11-5.32.18c-1.71.07-3.32.15-4.84.26l-.12-4.84ZM659.16,49.45c0,2.19-.26,4-.78,5.44s-1.3,2.53-2.34,3.26c-1.04.73-2.33,1.1-3.88,1.1-.75,0-1.53-.16-2.34-.48-.81-.32-1.57-.79-2.26-1.4s-1.25-1.37-1.66-2.28c-.41-.91-.62-1.97-.62-3.2,0-1.52.36-2.83,1.08-3.94.72-1.11,1.69-1.97,2.9-2.6,1.21-.63,2.55-.94,4.02-.94,1.76,0,3.23.39,4.42,1.18,1.19.79,2.08,1.85,2.68,3.18.6,1.33.9,2.84.9,4.52,0,1.31-.21,2.67-.64,4.08-.43,1.41-1.13,2.79-2.1,4.14-.97,1.35-2.28,2.57-3.92,3.66-1.64,1.09-3.69,1.99-6.14,2.68l-4.28-4.24c1.71-.35,3.29-.8,4.76-1.36,1.46-.56,2.75-1.27,3.86-2.12,1.11-.85,1.97-1.91,2.6-3.16s.94-2.76.94-4.52c0-1.28-.31-2.24-.94-2.88-.63-.64-1.38-.96-2.26-.96-.51,0-1,.12-1.48.36-.48.24-.87.6-1.16,1.08-.29.48-.44,1.07-.44,1.76,0,.91.31,1.63.94,2.18.63.55,1.34.82,2.14.82.64,0,1.21-.2,1.7-.6.49-.4.82-1.07.98-2s.03-2.19-.4-3.76l3.72,1ZM660.12,32.65c-.03.21-.06.55-.1,1.02-.04.47-.07.93-.1,1.4-.03.47-.05.81-.08,1.02-.03.53-.04,1.25-.04,2.14v2.98c0,1.09,0,2.19.02,3.3s.03,2.15.04,3.12c.01.97.02,1.78.02,2.42l-5-1.68v-4.78c0-1,0-1.99-.02-2.98-.01-.99-.04-1.88-.06-2.68-.03-.8-.05-1.4-.08-1.8-.05-.83-.12-1.55-.2-2.18-.08-.63-.15-1.06-.2-1.3h5.8Z"/><path class="cls-2" d="M681.72,54.97c1.23,0,2.32.29,3.28.88.96.59,1.73,1.37,2.32,2.34s.88,2.06.88,3.26-.29,2.25-.88,3.24c-.59.99-1.36,1.77-2.32,2.36-.96.59-2.05.88-3.28.88s-2.25-.29-3.24-.88c-.99-.59-1.77-1.37-2.34-2.36-.57-.99-.86-2.07-.86-3.24s.29-2.29.86-3.26c.57-.97,1.35-1.75,2.34-2.34s2.07-.88,3.24-.88ZM681.76,65.05c.99,0,1.83-.35,2.52-1.06.69-.71,1.04-1.55,1.04-2.54,0-.67-.16-1.27-.48-1.82s-.75-.98-1.3-1.3c-.55-.32-1.14-.48-1.78-.48s-1.27.16-1.8.48c-.54.32-.97.75-1.3,1.3s-.5,1.15-.5,1.82.17,1.27.5,1.82c.33.55.77.98,1.3,1.3.53.32,1.13.48,1.8.48Z"/><path class="cls-2" d="M79.03,6.53c-.04.11-.09.26-.14.46-.05.2-.1.4-.15.6-.05.2-.08.36-.11.48-.07.32-.14.73-.23,1.23s-.17,1.05-.26,1.64c-.09.59-.17,1.2-.24,1.81s-.13,1.2-.18,1.76-.07,1.05-.07,1.48c0,.35.01.7.04,1.05.03.35.07.72.12,1.09.09-.28.2-.57.32-.87.12-.3.24-.6.37-.89.13-.29.24-.56.35-.8l1,.78c-.17.51-.36,1.05-.56,1.63-.2.58-.38,1.13-.53,1.65-.15.52-.27.95-.35,1.3-.03.13-.05.29-.07.47-.02.18-.03.33-.03.45.01.09.02.21.03.35,0,.14.02.27.03.39l-1.78.14c-.21-.71-.4-1.6-.55-2.69-.15-1.09-.23-2.31-.23-3.67,0-.75.03-1.52.1-2.33.07-.81.15-1.6.25-2.37.1-.77.2-1.48.29-2.12s.17-1.16.24-1.56c.03-.25.06-.53.09-.82s.06-.57.07-.84l2.18.2ZM88.85,6.35c-.03.2-.05.41-.07.62s-.04.42-.05.62c-.01.23-.02.53-.03.9s-.01.78-.02,1.21c0,.43,0,.86,0,1.29,0,.84.02,1.65.05,2.42s.07,1.51.11,2.2c.04.69.07,1.34.1,1.95.03.61.04,1.16.04,1.65,0,.45-.06.89-.18,1.3-.12.41-.32.78-.6,1.1s-.66.57-1.13.75-1.06.27-1.75.27c-1.36,0-2.41-.27-3.16-.8s-1.12-1.28-1.12-2.24c0-.61.17-1.16.51-1.64.34-.48.83-.86,1.46-1.14.63-.28,1.4-.42,2.29-.42s1.71.1,2.44.29,1.41.45,2.04.78c.63.33,1.19.68,1.69,1.07s.96.76,1.37,1.12l-1.08,1.68c-.72-.69-1.44-1.29-2.15-1.8-.71-.51-1.44-.9-2.17-1.18-.73-.28-1.5-.42-2.3-.42-.68,0-1.23.13-1.65.4-.42.27-.63.61-.63,1.04,0,.47.21.82.62,1.05.41.23.94.35,1.58.35.49,0,.88-.08,1.16-.24.28-.16.48-.39.6-.7s.18-.67.18-1.08c0-.35-.01-.82-.04-1.41s-.06-1.25-.1-1.96c-.04-.71-.07-1.45-.1-2.2-.03-.75-.04-1.48-.04-2.17v-3.38c0-.17,0-.38-.03-.63-.02-.25-.05-.46-.09-.65h2.26ZM81.59,9.85c.57.05,1.14.1,1.71.13.57.03,1.15.05,1.75.05,1.2,0,2.4-.05,3.6-.16,1.2-.11,2.31-.26,3.34-.46v1.94c-1.07.17-2.2.3-3.39.38s-2.38.13-3.57.14c-.59,0-1.16-.01-1.71-.04-.55-.03-1.12-.06-1.71-.1l-.02-1.88Z"/><path class="cls-2" d="M104.47,7.01c-.09.13-.19.28-.3.45-.11.17-.22.34-.34.53-.23.35-.49.78-.8,1.29-.31.51-.63,1.06-.96,1.65-.33.59-.66,1.17-.98,1.74s-.6,1.09-.84,1.56c.43-.33.87-.58,1.33-.73.46-.15.9-.23,1.33-.23.71,0,1.28.22,1.71.65s.67,1.06.71,1.87c.01.35.02.74.02,1.17s0,.86,0,1.27.02.77.05,1.08c.03.47.18.8.47.99.29.19.62.29.99.29.51,0,.96-.14,1.37-.42.41-.28.77-.66,1.08-1.13.31-.47.58-.99.8-1.56.22-.57.4-1.14.53-1.71l1.68,1.38c-.35,1.11-.78,2.08-1.3,2.91s-1.15,1.49-1.88,1.96-1.6.71-2.6.71c-.72,0-1.3-.13-1.75-.4-.45-.27-.77-.6-.98-1-.21-.4-.32-.81-.35-1.24-.03-.39-.04-.8-.05-1.25,0-.45-.01-.89-.02-1.32s-.02-.81-.05-1.13c-.01-.4-.13-.71-.36-.93-.23-.22-.55-.33-.96-.33-.49,0-.97.15-1.43.44-.46.29-.87.68-1.24,1.16s-.68.99-.93,1.52c-.15.29-.3.64-.46,1.05-.16.41-.32.83-.47,1.26-.15.43-.29.84-.41,1.23-.12.39-.22.71-.3.96l-2.2-.74c.25-.68.57-1.45.94-2.31.37-.86.79-1.77,1.24-2.72.45-.95.91-1.9,1.38-2.83.47-.93.91-1.82,1.34-2.66.43-.84.81-1.57,1.14-2.2.33-.63.59-1.1.76-1.42.13-.24.27-.5.42-.79.15-.29.29-.61.42-.97l2.24.9Z"/><path class="cls-2" d="M121.77,6.45c-.05.21-.12.46-.2.73s-.15.51-.2.71c-.15.65-.29,1.39-.43,2.22-.14.83-.25,1.69-.34,2.58-.09.89-.12,1.77-.1,2.64.02.87.11,1.67.27,2.4.13-.37.29-.81.48-1.32.19-.51.37-.98.54-1.42l1.04.66c-.17.49-.35,1.03-.52,1.62-.17.59-.33,1.14-.48,1.67-.15.53-.26.96-.34,1.31-.03.16-.05.33-.07.51-.02.18-.03.32-.03.43s0,.23.02.36.03.26.04.38l-1.74.2c-.13-.41-.29-.96-.47-1.65s-.33-1.44-.45-2.27c-.12-.83-.18-1.65-.18-2.48,0-1.09.04-2.15.13-3.16.09-1.01.19-1.94.3-2.77s.21-1.52.29-2.07c.04-.25.07-.51.08-.78.01-.27.02-.51.02-.72l2.34.22ZM124.27,10.17c.31.04.63.08.98.12.35.04.7.07,1.07.08.37.01.73.02,1.09.02.84,0,1.71-.02,2.61-.06.9-.04,1.77-.1,2.62-.19.85-.09,1.6-.2,2.27-.33l-.02,2.04c-.63.09-1.35.17-2.18.24s-1.69.12-2.6.15c-.91.03-1.8.05-2.68.05-.29,0-.63,0-1.01-.02-.38-.01-.76-.03-1.13-.04-.37-.01-.71-.03-1.02-.04v-2.02ZM131.83,6.15c-.03.19-.05.39-.06.6-.01.21-.03.43-.04.66v.77c0,.35,0,.75.01,1.19,0,.44.01.89.02,1.35,0,.46,0,.88,0,1.27v.94c0,1.16-.03,2.23-.1,3.2-.07.97-.23,1.88-.5,2.72-.27.84-.69,1.62-1.27,2.33-.58.71-1.38,1.38-2.41,2.01l-1.84-1.44c.35-.15.72-.35,1.12-.61.4-.26.73-.52,1-.79.47-.44.84-.9,1.11-1.39.27-.49.48-1.03.62-1.62s.23-1.25.28-1.98.07-1.54.07-2.45c0-.35,0-.78,0-1.3,0-.52-.02-1.06-.04-1.61-.02-.55-.04-1.06-.05-1.53s-.03-.82-.04-1.06c-.01-.24-.04-.47-.09-.7-.05-.23-.08-.41-.11-.56h2.32Z"/><path class="cls-2" d="M140.28,7.77c-.04.19-.07.41-.1.68-.03.27-.05.53-.07.8-.02.27-.03.49-.03.68,0,.41,0,.87,0,1.38s.02,1.02.03,1.55c.01.53.05,1.05.1,1.57.11,1.05.27,1.97.48,2.76.21.79.49,1.4.82,1.84.33.44.72.66,1.16.66.25,0,.49-.12.72-.36s.44-.56.64-.96c.2-.4.38-.84.55-1.31s.31-.93.43-1.37l1.58,1.86c-.43,1.13-.85,2.04-1.27,2.71s-.85,1.16-1.29,1.45c-.44.29-.91.44-1.4.44-.67,0-1.3-.23-1.91-.69-.61-.46-1.13-1.22-1.57-2.27-.44-1.05-.75-2.46-.94-4.22-.07-.59-.12-1.22-.15-1.9-.03-.68-.05-1.33-.06-1.94,0-.61,0-1.12,0-1.52,0-.25,0-.56-.03-.93-.02-.37-.06-.68-.13-.95l2.44.04ZM150.52,8.27c.36.47.71,1.01,1.05,1.63.34.62.65,1.29.93,2.01.28.72.53,1.45.75,2.2.22.75.4,1.49.55,2.22.15.73.25,1.43.3,2.08l-2.06.8c-.08-.87-.21-1.77-.4-2.72-.19-.95-.43-1.88-.72-2.81-.29-.93-.64-1.8-1.03-2.62-.39-.82-.84-1.53-1.35-2.13l1.98-.66Z"/><path class="cls-2" d="M204.06,5.89c-.08.33-.18.75-.31,1.26s-.27,1.04-.42,1.6c-.15.56-.31,1.1-.47,1.62-.32.96-.72,1.98-1.2,3.05s-1,2.12-1.56,3.13-1.13,1.9-1.7,2.66l-1.92-.98c.45-.55.9-1.16,1.34-1.83.44-.67.86-1.37,1.25-2.1.39-.73.75-1.43,1.07-2.12.32-.69.58-1.32.78-1.89.23-.67.43-1.42.62-2.26.19-.84.29-1.63.32-2.36l2.2.22ZM196.68,9.05c.4.04.82.07,1.27.09s.87.03,1.27.03c.77,0,1.56-.04,2.37-.11s1.61-.19,2.4-.34,1.55-.34,2.27-.57l.06,1.84c-.61.17-1.31.33-2.1.48-.79.15-1.61.27-2.46.36-.85.09-1.7.14-2.54.14-.37,0-.77,0-1.18-.02-.41-.01-.82-.03-1.22-.04l-.14-1.86ZM208.76,12.09c-.01.41-.02.81-.02,1.18s0,.76.02,1.16c.01.31.03.7.05,1.19.02.49.04,1,.07,1.55.03.55.05,1.07.07,1.56s.03.89.03,1.2c0,.56-.12,1.07-.37,1.54-.25.47-.64.84-1.17,1.12-.53.28-1.24.42-2.12.42-.77,0-1.48-.11-2.11-.34-.63-.23-1.14-.57-1.52-1.02s-.57-1.03-.57-1.72c0-.63.18-1.18.53-1.66s.84-.86,1.47-1.13c.63-.27,1.35-.41,2.18-.41,1.15,0,2.2.16,3.16.49.96.33,1.82.73,2.59,1.22.77.49,1.43.98,1.99,1.47l-1.06,1.7c-.39-.35-.81-.71-1.28-1.09s-.98-.73-1.55-1.06c-.57-.33-1.18-.6-1.84-.81-.66-.21-1.36-.32-2.11-.32-.67,0-1.2.13-1.61.4-.41.27-.61.61-.61,1.02s.18.77.53,1.04c.35.27.87.4,1.55.4.51,0,.91-.08,1.21-.25.3-.17.51-.4.63-.69s.18-.62.18-.98,0-.81-.03-1.4c-.02-.59-.05-1.22-.08-1.9-.03-.68-.07-1.36-.1-2.05-.03-.69-.06-1.3-.07-1.83h1.96ZM212.52,12.85c-.37-.31-.84-.64-1.4-.99s-1.13-.69-1.72-1.02c-.59-.33-1.11-.59-1.56-.79l1.02-1.54c.36.16.77.35,1.22.58s.91.47,1.36.72c.45.25.87.5,1.26.75s.71.46.96.63l-1.14,1.66Z"/><path class="cls-2" d="M215.9,10.55c.33.01.65.02.96.02s.63,0,.98-.02c.31-.01.7-.04,1.17-.07.47-.03.98-.07,1.52-.12s1.08-.09,1.61-.14,1.03-.08,1.49-.11c.46-.03.83-.04,1.11-.04.64,0,1.22.1,1.73.31.51.21.92.57,1.22,1.09s.45,1.25.45,2.18c0,.79-.04,1.64-.11,2.55-.07.91-.19,1.79-.36,2.62-.17.83-.39,1.53-.67,2.09-.32.69-.74,1.16-1.26,1.4-.52.24-1.13.36-1.82.36-.39,0-.8-.03-1.23-.09-.43-.06-.82-.13-1.15-.21l-.34-2.08c.28.08.57.15.88.21.31.06.6.11.88.14.28.03.51.05.7.05.35,0,.66-.06.94-.19.28-.13.51-.38.7-.75.2-.43.36-.97.49-1.62.13-.65.22-1.35.29-2.1.07-.75.1-1.47.1-2.16,0-.59-.08-1.02-.24-1.3-.16-.28-.39-.47-.7-.57-.31-.1-.67-.15-1.1-.15-.32,0-.76.02-1.31.07s-1.14.1-1.76.17-1.2.13-1.74.19c-.54.06-.96.11-1.25.15-.25.03-.58.07-.97.12s-.73.11-1.01.16l-.2-2.16ZM223.5,6.29c-.05.2-.1.43-.15.68s-.1.49-.15.7c-.04.27-.1.6-.18.99-.08.39-.16.8-.23,1.22-.07.42-.16.82-.25,1.21-.13.56-.3,1.21-.5,1.94-.2.73-.43,1.52-.69,2.35-.26.83-.55,1.68-.88,2.54-.33.86-.68,1.7-1.06,2.52s-.79,1.58-1.23,2.29l-2.06-.82c.47-.61.9-1.31,1.3-2.08s.77-1.57,1.1-2.39c.33-.82.63-1.63.9-2.43.27-.8.49-1.54.68-2.23.19-.69.33-1.28.44-1.77.19-.85.34-1.71.45-2.56.11-.85.17-1.65.17-2.4l2.34.24ZM230.38,8.47c.31.41.64.93.99,1.55.35.62.7,1.28,1.03,1.97.33.69.64,1.36.92,2.01.28.65.5,1.2.66,1.67l-1.98.94c-.15-.53-.34-1.13-.59-1.8s-.53-1.34-.84-2.03c-.31-.69-.65-1.34-1-1.95s-.7-1.13-1.05-1.54l1.86-.82ZM230.34,5.61c.17.24.36.53.56.86.2.33.39.67.58,1,.19.33.35.63.48.9l-1.32.56c-.12-.27-.27-.57-.46-.9-.19-.33-.38-.67-.57-1-.19-.33-.38-.63-.57-.88l1.3-.54ZM232.62,4.77c.17.25.37.55.58.88s.42.66.61.99.35.61.47.85l-1.3.58c-.21-.43-.47-.9-.77-1.42-.3-.52-.6-.97-.89-1.34l1.3-.54Z"/><path class="cls-2" d="M515.82,7.91c.33.03.7.03,1.1,0,.45-.03.98-.07,1.59-.13.61-.06,1.22-.14,1.84-.24.62-.1,1.2-.2,1.73-.31s.95-.21,1.26-.32l.58,1.76c-.13.04-.3.09-.5.16-.2.07-.37.14-.52.22-.27.2-.58.49-.94.86s-.73.82-1.11,1.34c-.38.52-.73,1.1-1.06,1.74-.33.64-.59,1.33-.8,2.06-.21.73-.31,1.5-.31,2.3,0,.65.1,1.21.29,1.66s.46.82.81,1.09c.35.27.74.47,1.19.6.45.13.92.19,1.41.19,1.56,0,2.77-.53,3.62-1.58s1.36-2.54,1.51-4.47-.04-4.18-.59-6.75l1.86,3.18c.2,1.12.31,2.24.34,3.35.03,1.11-.07,2.17-.3,3.18-.23,1.01-.6,1.9-1.12,2.68-.52.78-1.22,1.39-2.1,1.84-.88.45-1.97.67-3.26.67-.8,0-1.54-.11-2.23-.33-.69-.22-1.29-.55-1.8-.98-.51-.43-.91-.98-1.2-1.63s-.43-1.41-.43-2.26.1-1.71.29-2.5c.19-.79.45-1.52.78-2.21.33-.69.7-1.33,1.12-1.94.42-.61.86-1.18,1.31-1.71-.31.03-.66.07-1.05.12s-.77.1-1.13.15c-.36.05-.65.08-.88.11-.2.03-.39.05-.56.08-.17.03-.37.06-.6.1l-.14-2.08ZM528.62,6.87c.09.61.23,1.27.41,1.97.18.7.43,1.42.74,2.16.31.74.72,1.48,1.23,2.22.51.74,1.13,1.45,1.88,2.13l-1.3,1.8c-.73-.8-1.39-1.68-1.98-2.65-.59-.97-1.12-2.04-1.6-3.22s-.94-2.46-1.38-3.85l2-.56Z"/><path class="cls-2" d="M539.05,9.81c-.07.31-.14.69-.21,1.16s-.15.95-.22,1.46c-.07.51-.14.99-.21,1.45-.07.46-.12.84-.16,1.15.93-.76,1.92-1.32,2.97-1.68s2.14-.54,3.27-.54,2.03.2,2.82.59,1.4.92,1.83,1.58c.43.66.65,1.39.65,2.19,0,.89-.2,1.72-.6,2.47-.4.75-1.03,1.39-1.9,1.9-.87.51-1.99.88-3.37,1.09-1.38.21-3.04.24-4.99.08l-.6-2.06c2.05.25,3.77.26,5.15.02,1.38-.24,2.42-.67,3.11-1.29.69-.62,1.04-1.37,1.04-2.25,0-.49-.14-.93-.43-1.31-.29-.38-.68-.68-1.17-.9-.49-.22-1.06-.33-1.7-.33-1.23,0-2.35.22-3.37.67s-1.86,1.07-2.53,1.87c-.17.2-.31.38-.41.55-.1.17-.19.34-.27.51l-1.84-.44c.08-.37.16-.82.25-1.35.09-.53.17-1.09.25-1.7.08-.61.15-1.22.22-1.84.07-.62.13-1.22.18-1.8s.09-1.09.12-1.53l2.12.28ZM539.23,6.01c.45.13,1.03.28,1.74.44.71.16,1.45.32,2.22.47s1.51.29,2.2.4,1.26.19,1.7.23l-.46,1.94c-.4-.05-.87-.13-1.42-.23-.55-.1-1.13-.21-1.76-.33s-1.24-.24-1.85-.36c-.61-.12-1.16-.24-1.65-.36-.49-.12-.9-.22-1.22-.3l.5-1.9Z"/><rect class="cls-1" width="768" height="80"/></g></svg>