<?xml version="1.0" encoding="UTF-8"?><svg id="_レイヤー_2" xmlns="http://www.w3.org/2000/svg" viewBox="0 0 248 84"><defs><style>.cls-1{fill:#ff8080;}.cls-1,.cls-2{stroke-width:0px;}.cls-2{fill:#fff;}</style></defs><g id="_ヘッダー"><path class="cls-2" d="M42,82.29C19.79,82.29,1.71,64.21,1.71,42S19.79,1.71,42,1.71h164c22.21,0,40.29,18.07,40.29,40.29s-18.07,40.29-40.29,40.29H42Z"/><path class="cls-1" d="M206,3.43c21.27,0,38.57,17.3,38.57,38.57s-17.3,38.57-38.57,38.57H42c-21.27,0-38.57-17.3-38.57-38.57S20.73,3.43,42,3.43h164M206,0H42C18.8,0,0,18.8,0,42h0c0,23.2,18.8,42,42,42h164c23.2,0,42-18.8,42-42h0c0-23.2-18.8-42-42-42h0Z"/><path class="cls-1" d="M53.37,44.75c.72-.17,1.42-.37,2.11-.61.68-.24,1.17-.42,1.46-.54,1.32-.53,2.66-1.09,4.01-1.69,1.36-.6,2.72-1.21,4.1-1.82s2.74-1.16,4.07-1.66c1.33-.49,2.64-.89,3.92-1.19s2.49-.45,3.62-.45c1.87,0,3.47.34,4.81,1.01,1.33.67,2.35,1.58,3.06,2.74.71,1.15,1.06,2.42,1.06,3.82,0,1.68-.36,3.14-1.08,4.37-.72,1.24-1.75,2.19-3.1,2.86-1.34.67-2.94,1.01-4.79,1.01-.96,0-1.95-.11-2.97-.32-1.02-.22-1.88-.44-2.57-.68l.11-4.54c.82.36,1.66.65,2.52.88.86.23,1.69.34,2.48.34.89,0,1.69-.16,2.39-.49s1.27-.79,1.67-1.39.61-1.33.61-2.2c0-.6-.17-1.15-.52-1.66-.35-.5-.84-.91-1.48-1.21-.64-.3-1.41-.45-2.32-.45-1.18,0-2.5.22-3.98.67-1.48.45-3.03,1.01-4.66,1.71s-3.23,1.43-4.79,2.21c-1.56.78-3,1.51-4.32,2.2-1.32.68-2.42,1.23-3.31,1.64l-2.12-4.57ZM61.14,34.2c.12.22.26.5.43.86.17.36.35.71.54,1.06.19.35.35.64.47.88.74,1.39,1.5,2.92,2.27,4.59.77,1.67,1.48,3.26,2.12,4.77.41.98.88,2.16,1.42,3.53.54,1.37,1.07,2.8,1.6,4.28.53,1.49,1.03,2.92,1.49,4.28s.85,2.56,1.13,3.56l-4.93,1.3c-.36-1.51-.8-3.16-1.33-4.93-.53-1.78-1.09-3.53-1.69-5.27s-1.2-3.33-1.8-4.77c-.48-1.13-.95-2.23-1.42-3.31s-.94-2.12-1.4-3.11c-.47-1-.95-1.91-1.46-2.75-.24-.46-.56-.98-.95-1.58-.4-.6-.79-1.13-1.17-1.58l4.68-1.8ZM70.94,38.05c-.41-.46-.92-.99-1.55-1.6-.62-.61-1.26-1.21-1.91-1.8-.65-.59-1.21-1.05-1.69-1.39l3.31-2.3c.46.31,1.01.75,1.66,1.31.65.56,1.3,1.14,1.96,1.73.66.59,1.19,1.11,1.6,1.57l-3.38,2.48Z"/><path class="cls-1" d="M101,32.04c-.12.43-.25.97-.4,1.62-.14.65-.29,1.33-.43,2.03-.14.71-.27,1.4-.38,2.07-.11.67-.19,1.26-.23,1.76.43-.72.95-1.42,1.55-2.11.6-.68,1.28-1.31,2.03-1.87.76-.56,1.58-1.01,2.48-1.35.9-.34,1.85-.5,2.86-.5,1.68,0,3.19.52,4.54,1.55,1.34,1.03,2.41,2.51,3.19,4.43.78,1.92,1.17,4.2,1.17,6.84s-.37,4.77-1.12,6.68c-.74,1.91-1.81,3.53-3.2,4.88-1.39,1.34-3.05,2.44-4.99,3.29-1.93.85-4.09,1.49-6.46,1.93l-2.74-4.18c1.99-.31,3.82-.74,5.49-1.28s3.11-1.28,4.32-2.21c1.21-.94,2.15-2.14,2.81-3.62s.99-3.29.99-5.45c0-1.85-.19-3.41-.58-4.7-.38-1.28-.94-2.26-1.67-2.93-.73-.67-1.6-1.01-2.61-1.01s-2.06.35-3.02,1.04c-.96.7-1.82,1.6-2.57,2.72s-1.36,2.32-1.8,3.62c-.44,1.3-.69,2.54-.74,3.74-.02.5-.03,1.06-.02,1.66.01.6.08,1.32.2,2.16l-4.43.29c-.1-.7-.2-1.57-.31-2.61-.11-1.04-.16-2.18-.16-3.4,0-.84.03-1.74.09-2.7.06-.96.13-1.94.22-2.93s.19-2,.32-3.01c.13-1.01.26-1.97.38-2.88.1-.7.17-1.38.22-2.05.05-.67.07-1.25.07-1.73l4.93.22Z"/><path class="cls-1" d="M126.02,33.3h32.04v3.96h-32.04v-3.96ZM127.67,40.35h4.28v23.87h-4.28v-23.87ZM129.83,58.57h28.62v4h-28.62v-4ZM134.87,39.27h19.48v17.21h-19.48v-17.21ZM138.94,42.3v1.8h11.12v-1.8h-11.12ZM138.94,46.94v1.8h11.12v-1.8h-11.12ZM138.94,51.59v1.87h11.12v-1.87h-11.12ZM140.31,30.24l5.08.14c-.17,1.27-.36,2.55-.58,3.83-.22,1.28-.43,2.5-.63,3.64-.21,1.14-.41,2.14-.63,3.01l-4.32-.29c.19-.94.36-2,.5-3.2.14-1.2.27-2.42.38-3.67.11-1.25.17-2.4.2-3.46Z"/><path class="cls-1" d="M163.17,36.39c1.06,0,2.26-.01,3.6-.04,1.34-.02,2.75-.05,4.21-.07,1.46-.02,2.9-.05,4.32-.07,1.42-.02,2.75-.04,4-.05,1.25-.01,2.33-.02,3.24-.02s1.91,0,2.99-.02c1.08-.01,2.15-.02,3.2-.02h4.93l-.04,4.25c-1.13-.05-2.62-.09-4.46-.13-1.85-.04-4.1-.05-6.77-.05-1.63,0-3.29.02-4.97.05-1.68.04-3.35.08-5,.13-1.66.05-3.25.1-4.79.16-1.54.06-2.99.14-4.36.23l-.11-4.36ZM182.64,47.05c0,1.97-.23,3.6-.7,4.9s-1.17,2.27-2.11,2.93c-.94.66-2.1.99-3.49.99-.67,0-1.38-.14-2.11-.43-.73-.29-1.41-.71-2.03-1.26-.62-.55-1.12-1.24-1.49-2.05-.37-.82-.56-1.78-.56-2.88,0-1.37.32-2.55.97-3.55.65-1,1.52-1.78,2.61-2.34,1.09-.56,2.3-.85,3.62-.85,1.58,0,2.91.35,3.98,1.06,1.07.71,1.87,1.66,2.41,2.86s.81,2.56.81,4.07c0,1.18-.19,2.4-.58,3.67-.38,1.27-1.01,2.51-1.89,3.73s-2.05,2.31-3.53,3.29c-1.48.98-3.32,1.79-5.53,2.41l-3.85-3.82c1.54-.31,2.96-.72,4.28-1.22,1.32-.5,2.48-1.14,3.47-1.91,1-.77,1.78-1.72,2.34-2.84.56-1.13.85-2.48.85-4.07,0-1.15-.28-2.02-.85-2.59-.56-.58-1.24-.86-2.03-.86-.46,0-.9.11-1.33.32-.43.22-.78.54-1.04.97-.26.43-.4.96-.4,1.58,0,.82.28,1.47.85,1.96.56.49,1.21.74,1.93.74.58,0,1.09-.18,1.53-.54.44-.36.74-.96.88-1.8s.02-1.97-.36-3.38l3.35.9ZM183.51,31.93c-.02.19-.05.5-.09.92-.04.42-.07.84-.09,1.26-.02.42-.05.73-.07.92-.02.48-.04,1.12-.04,1.93v2.68c0,.98,0,1.97.02,2.97.01,1,.02,1.93.04,2.81.01.88.02,1.6.02,2.18l-4.5-1.51v-4.3c0-.9,0-1.79-.02-2.68-.01-.89-.03-1.69-.05-2.41-.02-.72-.05-1.26-.07-1.62-.05-.74-.11-1.4-.18-1.96-.07-.56-.13-.95-.18-1.17h5.22Z"/><path class="cls-1" d="M132.72,10.89c-.07.3-.17.68-.28,1.13-.11.46-.24.94-.38,1.44-.14.5-.28.99-.42,1.46-.29.86-.65,1.78-1.08,2.75-.43.97-.9,1.91-1.4,2.82-.5.91-1.01,1.71-1.53,2.39l-1.73-.88c.41-.49.81-1.04,1.21-1.65.4-.61.77-1.24,1.12-1.89.35-.65.67-1.29.96-1.91s.52-1.18.7-1.7c.2-.6.39-1.28.56-2.03s.26-1.46.29-2.12l1.98.2ZM126.08,13.74c.36.04.74.06,1.14.08.4.02.78.03,1.14.03.7,0,1.41-.03,2.13-.1.73-.07,1.45-.17,2.16-.31.71-.14,1.39-.31,2.04-.51l.05,1.66c-.55.16-1.18.3-1.89.43s-1.45.24-2.21.32c-.77.08-1.53.13-2.29.13-.34,0-.69,0-1.06-.02-.37-.01-.74-.02-1.1-.04l-.13-1.67ZM136.95,16.47c-.01.37-.02.73-.02,1.06s0,.68.02,1.04c.01.28.03.63.04,1.07.02.44.04.9.06,1.4.02.49.04.96.06,1.4.02.44.03.8.03,1.08,0,.5-.11.97-.33,1.39-.22.42-.57.76-1.05,1.01-.48.25-1.12.38-1.91.38-.7,0-1.33-.1-1.9-.31-.57-.21-1.03-.51-1.37-.92-.34-.41-.51-.92-.51-1.55,0-.56.16-1.06.48-1.49.32-.43.76-.77,1.32-1.02s1.22-.37,1.96-.37c1.03,0,1.98.15,2.84.44.86.29,1.64.66,2.33,1.1.69.44,1.29.88,1.79,1.32l-.95,1.53c-.35-.31-.73-.64-1.15-.98s-.88-.66-1.4-.95c-.51-.29-1.06-.54-1.66-.73-.59-.19-1.23-.29-1.9-.29-.6,0-1.08.12-1.45.36-.37.24-.55.55-.55.92s.16.7.48.94c.32.24.78.36,1.39.36.46,0,.82-.08,1.09-.23.27-.15.46-.36.57-.62.11-.26.16-.56.16-.88s0-.73-.03-1.26-.04-1.1-.07-1.71c-.03-.61-.06-1.23-.09-1.84s-.05-1.17-.06-1.65h1.76ZM140.34,17.16c-.34-.28-.76-.57-1.26-.89-.5-.32-1.02-.62-1.55-.92-.53-.29-1-.53-1.4-.71l.92-1.39c.32.14.69.32,1.1.52.41.2.82.42,1.22.65.41.23.79.45,1.13.67s.64.41.86.57l-1.03,1.49Z"/><path class="cls-1" d="M149.42,10.79c-.02.11-.04.24-.05.41s-.03.33-.04.5c-.02.17-.03.33-.04.48-.01.31-.03.68-.04,1.11-.02.43-.04.89-.05,1.39-.02.5-.03,1-.04,1.49,0,.5,0,.98,0,1.43s0,.99.02,1.57c.01.58.02,1.14.04,1.7.01.56.02,1.07.04,1.55.01.47.02.85.02,1.12,0,.64-.08,1.13-.22,1.49-.15.36-.35.61-.61.76-.26.14-.57.22-.93.22-.38,0-.8-.08-1.26-.25s-.89-.4-1.3-.68c-.41-.29-.74-.62-1.01-1.01-.26-.38-.4-.79-.4-1.22,0-.55.21-1.1.64-1.65s.99-1.05,1.68-1.5c.7-.46,1.43-.83,2.21-1.12.82-.3,1.65-.53,2.5-.68.85-.16,1.63-.23,2.32-.23.9,0,1.7.15,2.41.45s1.27.73,1.67,1.3c.41.56.61,1.23.61,2,0,.71-.14,1.34-.42,1.91-.28.56-.71,1.04-1.29,1.44-.58.4-1.3.7-2.18.92-.41.08-.81.14-1.2.18s-.75.07-1.09.09l-.65-1.84c.36.01.73.01,1.1,0s.73-.05,1.06-.13c.5-.1.97-.25,1.4-.46s.78-.49,1.04-.85c.26-.35.39-.78.39-1.29,0-.47-.13-.86-.38-1.18-.25-.32-.59-.56-1.03-.73-.43-.17-.92-.25-1.48-.25-.78,0-1.55.08-2.32.24-.77.16-1.52.39-2.27.68-.55.22-1.06.47-1.51.77-.46.3-.82.61-1.08.93-.26.32-.4.62-.4.91,0,.18.06.35.18.51.12.16.27.3.44.42s.36.22.55.29c.19.07.37.11.52.11.18,0,.33-.06.44-.19s.17-.34.17-.64c0-.33,0-.81-.03-1.42-.02-.61-.03-1.29-.04-2.02-.01-.74-.02-1.45-.02-2.13,0-.52,0-1.05,0-1.61,0-.56.01-1.09.02-1.61,0-.52.01-.97.02-1.37,0-.4,0-.68,0-.86,0-.13,0-.29-.02-.47-.01-.18-.02-.36-.04-.53s-.03-.32-.05-.42h1.98ZM143.89,13.9c.52.06.96.1,1.33.12s.73.03,1.06.03c.44,0,.95-.02,1.51-.07.56-.05,1.14-.11,1.72-.18.58-.07,1.15-.17,1.71-.28s1.06-.24,1.52-.37l.04,1.76c-.48.11-1.01.21-1.59.31s-1.17.18-1.76.26-1.16.14-1.69.18c-.53.04-1,.06-1.41.06-.54,0-1,0-1.37-.03-.37-.02-.71-.04-1.01-.06l-.05-1.73ZM154.8,12.77c.44.22.94.48,1.48.8.55.32,1.07.64,1.57.95.5.32.9.6,1.2.84l-.88,1.44c-.22-.2-.5-.43-.86-.67-.35-.24-.73-.49-1.13-.74-.4-.25-.79-.49-1.17-.71-.38-.22-.71-.41-1-.55l.79-1.37Z"/></g></svg>