<?xml version="1.0" encoding="UTF-8"?><svg id="_レイヤー_2" xmlns="http://www.w3.org/2000/svg" viewBox="0 0 768 160"><defs><style>.cls-1{fill:none;}.cls-1,.cls-2{stroke-width:0px;}.cls-2{fill:#333;}</style></defs><g id="_2"><path class="cls-2" d="M86.4,14.55c.33.01.65.02.96.02s.63,0,.98-.02c.31-.01.7-.04,1.17-.07.47-.03.98-.07,1.52-.12.54-.05,1.08-.09,1.61-.14s1.03-.08,1.49-.11c.46-.03.83-.04,1.11-.04.64,0,1.22.1,1.73.31.51.21.92.57,1.22,1.09.3.52.45,1.25.45,2.18,0,.79-.04,1.64-.11,2.55-.07.91-.19,1.79-.36,2.62-.17.83-.39,1.53-.67,2.09-.32.69-.74,1.16-1.26,1.4-.52.24-1.13.36-1.82.36-.39,0-.8-.03-1.23-.09-.43-.06-.82-.13-1.15-.21l-.34-2.08c.28.08.57.15.88.21.31.06.6.11.88.14.28.03.51.05.7.05.35,0,.66-.06.94-.19s.51-.38.7-.75c.2-.43.36-.97.49-1.62.13-.65.22-1.35.29-2.1.07-.75.1-1.47.1-2.16,0-.59-.08-1.02-.24-1.3-.16-.28-.39-.47-.7-.57-.31-.1-.67-.15-1.1-.15-.32,0-.76.02-1.31.07-.55.05-1.14.1-1.76.17-.62.07-1.2.13-1.74.19-.54.06-.96.11-1.25.15-.25.03-.58.07-.97.12-.39.05-.73.11-1.01.16l-.2-2.16ZM94,10.29c-.05.2-.1.43-.15.68s-.1.49-.15.7c-.04.27-.1.6-.18.99-.08.39-.16.8-.23,1.22-.07.42-.16.82-.25,1.21-.13.56-.3,1.21-.5,1.94-.2.73-.43,1.52-.69,2.35-.26.83-.55,1.68-.88,2.54-.33.86-.68,1.7-1.06,2.52-.38.82-.79,1.58-1.23,2.29l-2.06-.82c.47-.61.9-1.31,1.3-2.08.4-.77.77-1.57,1.1-2.39s.63-1.63.9-2.43c.27-.8.49-1.54.68-2.23.19-.69.33-1.28.44-1.77.19-.85.34-1.71.45-2.56.11-.85.17-1.65.17-2.4l2.34.24ZM100.88,12.47c.31.41.64.93.99,1.55.35.62.7,1.28,1.03,1.97.33.69.64,1.36.92,2.01.28.65.5,1.2.66,1.67l-1.98.94c-.15-.53-.34-1.13-.59-1.8-.25-.67-.53-1.34-.84-2.03-.31-.69-.65-1.34-1-1.95s-.7-1.13-1.05-1.54l1.86-.82ZM100.84,9.61c.17.24.36.53.56.86.2.33.39.67.58,1,.19.33.35.63.48.9l-1.32.56c-.12-.27-.27-.57-.46-.9-.19-.33-.38-.67-.57-1-.19-.33-.38-.63-.57-.88l1.3-.54ZM103.12,8.77c.17.25.37.55.58.88.21.33.42.66.61.99s.35.61.47.85l-1.3.58c-.21-.43-.47-.9-.77-1.42-.3-.52-.6-.97-.89-1.34l1.3-.54Z"/><path class="cls-2" d="M216.87,10.01c-.03.17-.05.38-.07.63s-.04.51-.06.78-.03.52-.03.75c-.01.45-.02.99,0,1.6,0,.61,0,1.24,0,1.88,0,.55.02,1.19.05,1.93.03.74.07,1.5.11,2.28.04.78.08,1.51.11,2.18.03.67.05,1.22.05,1.65s-.07.83-.2,1.22-.35.73-.65,1.03c-.3.3-.7.54-1.21.71-.51.17-1.13.26-1.86.26-.93,0-1.78-.11-2.53-.33-.75-.22-1.35-.58-1.79-1.07s-.66-1.15-.66-1.96c0-.65.19-1.24.57-1.76.38-.52.96-.94,1.73-1.25.77-.31,1.75-.47,2.92-.47,1.01,0,1.99.11,2.94.34s1.84.53,2.68.91c.84.38,1.61.8,2.3,1.27s1.29.93,1.8,1.4l-1.2,1.88c-.49-.49-1.06-.98-1.7-1.46-.64-.48-1.34-.92-2.1-1.31-.76-.39-1.56-.7-2.4-.93-.84-.23-1.7-.34-2.58-.34-.93,0-1.65.15-2.16.44-.51.29-.76.69-.76,1.2s.25.91.75,1.16c.5.25,1.17.38,2.01.38.69,0,1.2-.16,1.52-.48s.48-.83.48-1.52c0-.35-.01-.83-.04-1.45-.03-.62-.05-1.29-.08-2.02-.03-.73-.05-1.43-.08-2.12-.03-.69-.04-1.28-.04-1.77,0-.4,0-.81,0-1.24,0-.43-.01-.84-.01-1.23v-1.01c-.01-.29-.03-.58-.04-.85s-.03-.52-.06-.75c-.03-.23-.06-.41-.1-.56h2.4ZM215.61,13.95c.32,0,.75,0,1.3,0,.55,0,1.14-.03,1.79-.06.65-.03,1.3-.07,1.96-.11.66-.04,1.26-.09,1.81-.16l.08,1.88c-.55.05-1.15.1-1.82.14-.67.04-1.32.07-1.97.1-.65.03-1.25.05-1.8.07s-1,.03-1.33.03l-.02-1.88Z"/><path class="cls-2" d="M288.81,19.85c-.12.37-.21.74-.28,1.1-.07.36-.1.71-.1,1.06,0,.71.36,1.29,1.09,1.74s1.85.68,3.37.68c.92,0,1.8-.03,2.65-.1s1.64-.16,2.37-.28,1.37-.26,1.9-.42l.02,2.2c-.52.13-1.14.25-1.85.36-.71.11-1.49.19-2.34.25-.85.06-1.74.09-2.67.09-1.43,0-2.63-.16-3.62-.47-.99-.31-1.73-.77-2.24-1.37-.51-.6-.76-1.33-.76-2.2,0-.55.05-1.06.14-1.53.09-.47.18-.9.26-1.29l2.06.18ZM287.61,11.61c.73.09,1.56.16,2.47.2s1.88.06,2.89.06c.65,0,1.31-.01,1.98-.04.67-.03,1.31-.06,1.93-.11.62-.05,1.18-.09,1.67-.13v2.08c-.45.04-1,.08-1.63.12-.63.04-1.29.07-1.97.09-.68.02-1.33.03-1.96.03-1.03,0-1.98-.02-2.86-.07-.88-.05-1.72-.1-2.52-.15v-2.08Z"/><path class="cls-2" d="M120.28,10.77c.28.01.56.03.84.04.28.01.58.02.9.02.17,0,.45,0,.83-.02.38-.01.81-.03,1.3-.05.49-.02.98-.04,1.49-.07.51-.03.97-.05,1.4-.08.43-.03.75-.05.98-.08.28-.03.52-.06.73-.1s.37-.08.49-.12l1.26,1.44c-.16.11-.37.25-.64.43-.27.18-.48.34-.64.47-.29.24-.62.51-.99.81-.37.3-.75.61-1.14.94-.39.33-.79.65-1.19.98-.4.33-.78.64-1.15.94-.37.3-.7.56-.99.79.96-.11,1.97-.2,3.02-.28,1.05-.08,2.1-.14,3.13-.19,1.03-.05,2-.07,2.89-.07l.02,1.86c-.97-.05-1.92-.07-2.83-.06-.91.01-1.68.06-2.29.14-.47.07-.92.2-1.35.41s-.83.47-1.18.79c-.35.32-.63.68-.82,1.07-.19.39-.29.82-.29,1.27,0,.6.15,1.09.44,1.46s.69.65,1.19.84c.5.19,1.05.33,1.65.42.57.07,1.11.1,1.62.09.51,0,.95-.02,1.32-.05l-.42,2.06c-2.49.11-4.41-.22-5.76-.98-1.35-.76-2.02-1.93-2.02-3.52,0-.51.1-.99.3-1.44s.45-.86.74-1.21c.29-.35.59-.64.88-.87-.99.08-2.07.19-3.25.34s-2.33.32-3.45.52l-.18-1.9c.55-.07,1.14-.14,1.77-.21s1.2-.14,1.71-.19c.51-.35,1.05-.75,1.63-1.2.58-.45,1.16-.92,1.74-1.41s1.12-.94,1.61-1.37c.49-.43.89-.78,1.2-1.06-.16.01-.4.03-.73.05-.33.02-.68.04-1.07.06-.39.02-.77.04-1.16.06-.39.02-.74.04-1.05.06-.31.02-.56.04-.73.05-.25.01-.53.04-.82.07-.29.03-.57.06-.84.09l-.1-2.04ZM130.48,13.03c.24.35.49.74.75,1.17.26.43.5.86.71,1.29l-1.26.56c-.2-.44-.41-.87-.64-1.28-.23-.41-.48-.82-.76-1.22l1.2-.52ZM132.64,12.19c.24.31.5.69.78,1.14.28.45.53.88.74,1.28l-1.24.58c-.21-.43-.44-.85-.69-1.28-.25-.43-.51-.82-.79-1.18l1.2-.54Z"/><path class="cls-2" d="M148.04,19.27c0-.52-.13-.98-.39-1.38s-.63-.72-1.11-.95c-.48-.23-1.05-.35-1.7-.35-.76,0-1.48.06-2.15.18-.67.12-1.28.26-1.83.42s-1.01.29-1.38.4c-.29.08-.6.18-.92.3-.32.12-.61.23-.86.34l-.62-2.28c.31-.03.64-.07.99-.13.35-.06.68-.12.99-.19.49-.12,1.06-.25,1.69-.39.63-.14,1.32-.27,2.06-.38.74-.11,1.5-.17,2.27-.17,1,0,1.89.18,2.66.54s1.38.89,1.82,1.58c.44.69.66,1.54.66,2.54,0,1.08-.23,2.05-.69,2.9-.46.85-1.11,1.6-1.94,2.23-.83.63-1.82,1.16-2.95,1.57-1.13.41-2.37.72-3.7.92l-1.14-1.94c1.23-.15,2.34-.37,3.35-.68,1.01-.31,1.88-.69,2.61-1.16s1.3-1.03,1.69-1.68c.39-.65.59-1.4.59-2.24ZM139.86,9.99c.57.12,1.25.24,2.03.35.78.11,1.59.21,2.43.29.84.08,1.63.15,2.38.2.75.05,1.37.08,1.88.08l-.32,1.94c-.56-.04-1.22-.09-1.98-.15-.76-.06-1.55-.13-2.37-.22s-1.61-.18-2.36-.28c-.75-.1-1.42-.2-1.99-.29l.3-1.92Z"/><path class="cls-2" d="M76,37.29h36.04v4.48h-36.04v-4.48ZM77.24,44.41h4.68v28.08h-4.68v-28.08ZM79.92,65.57h28.08v4.56h-28.08v-4.56ZM84.44,45.01h19.08v18.24h-19.08v-18.24ZM88.36,48.93v3.36h11.04v-3.36h-11.04ZM88.36,55.93v3.4h11.04v-3.4h-11.04ZM91.44,38.61h4.84v8.2h-4.84v-8.2ZM91.8,46.81h4.12v14.92h-4.12v-14.92ZM106.16,44.41h4.64v28h-4.64v-28Z"/><path class="cls-2" d="M122.4,34.97l4.44,1.32c-.75,2.32-1.65,4.67-2.7,7.04-1.05,2.38-2.21,4.62-3.46,6.74-1.25,2.12-2.56,3.98-3.92,5.58-.11-.37-.29-.89-.56-1.56-.27-.67-.56-1.33-.88-2s-.6-1.21-.84-1.64c1.07-1.25,2.1-2.71,3.1-4.36s1.91-3.43,2.74-5.34c.83-1.91,1.52-3.83,2.08-5.78ZM119.2,45.97l4.44-4.44.12.08v30.84h-4.56v-26.48ZM132.4,34.93l4.52.84c-1.09,1.97-2.37,3.9-3.84,5.78-1.47,1.88-3.21,3.63-5.24,5.26-.4-.45-.93-.95-1.6-1.48-.67-.53-1.28-.93-1.84-1.2,1.25-.91,2.39-1.88,3.42-2.92,1.03-1.04,1.92-2.1,2.68-3.18s1.39-2.11,1.9-3.1ZM138.72,59.77l3,2.08c-1.09,1.15-2.46,2.3-4.1,3.46-1.64,1.16-3.36,2.24-5.16,3.24-1.8,1-3.53,1.85-5.18,2.54-.29-.53-.67-1.13-1.12-1.78-.45-.65-.91-1.19-1.36-1.62,1.23-.37,2.49-.85,3.8-1.42,1.31-.57,2.6-1.22,3.88-1.94,1.28-.72,2.46-1.47,3.54-2.26,1.08-.79,1.98-1.55,2.7-2.3ZM137.56,49.61l3.56,1.44c-1.09,1.07-2.38,2.1-3.86,3.1-1.48,1-3.04,1.91-4.68,2.72-1.64.81-3.23,1.51-4.78,2.1-.19-.29-.44-.63-.76-1.02-.32-.39-.64-.78-.96-1.18s-.61-.72-.88-.96c1.52-.43,3.05-.96,4.6-1.6,1.55-.64,3-1.35,4.36-2.12,1.36-.77,2.49-1.6,3.4-2.48ZM136.8,55.69l2.6,1.76c-.93.83-2.07,1.69-3.4,2.58-1.33.89-2.74,1.73-4.22,2.5s-2.87,1.43-4.18,1.96c-.24-.45-.56-.97-.96-1.56s-.8-1.07-1.2-1.44c1.28-.4,2.64-.91,4.08-1.52s2.81-1.3,4.1-2.06c1.29-.76,2.35-1.5,3.18-2.22ZM127.28,42.97h24.12v9.52h-24.12v-9.52ZM133.68,37.33h8.88v3.48h-11.68l2.8-3.48ZM131.6,46.21v3.04h15.2v-3.04h-15.2ZM132.64,55.01l3.2-1.96c1.57,1.09,2.85,2.31,3.84,3.66.99,1.35,1.71,2.73,2.18,4.14.47,1.41.71,2.78.72,4.1.01,1.32-.15,2.5-.5,3.54-.35,1.04-.85,1.84-1.52,2.4-.64.59-1.29.99-1.94,1.22-.65.23-1.42.37-2.3.42-.43,0-.89-.01-1.38-.04-.49-.03-.98-.05-1.46-.08-.03-.56-.13-1.23-.3-2-.17-.77-.45-1.45-.82-2.04.59.08,1.14.13,1.66.16.52.03.98.04,1.38.04s.77-.05,1.1-.16c.33-.11.63-.32.9-.64.4-.4.68-1.07.84-2.02.16-.95.09-2.04-.2-3.3-.29-1.25-.87-2.53-1.72-3.84s-2.08-2.51-3.68-3.6ZM136.84,44.41h4.28v6.36h-4.28v-6.36ZM141.12,37.33h1.04l.84-.24,2.8,2.04c-.72,1.2-1.56,2.44-2.52,3.72s-1.89,2.37-2.8,3.28c-.32-.45-.75-.96-1.28-1.52-.54-.56-.99-1.01-1.36-1.36.61-.67,1.24-1.5,1.88-2.5.64-1,1.11-1.87,1.4-2.62v-.8ZM143.92,50.41c.45,2.4,1.09,4.69,1.9,6.86.81,2.17,1.84,4.11,3.08,5.82s2.71,3.07,4.42,4.08c-.35.27-.71.62-1.1,1.06s-.76.89-1.12,1.36c-.36.47-.65.9-.86,1.3-1.87-1.28-3.46-2.91-4.78-4.88-1.32-1.97-2.41-4.23-3.28-6.78-.87-2.55-1.57-5.27-2.1-8.18l3.84-.64ZM149.56,53.29l3.24,2.84c-.96.88-2,1.74-3.12,2.58s-2.15,1.54-3.08,2.1l-2.68-2.6c.59-.4,1.22-.88,1.9-1.44s1.36-1.15,2.04-1.78c.68-.63,1.25-1.19,1.7-1.7Z"/><path class="cls-2" d="M173.44,36.81c-.13.72-.35,1.65-.64,2.8-.29,1.15-.72,2.44-1.28,3.88-.43.99-.91,2.01-1.46,3.06-.55,1.05-1.1,1.99-1.66,2.82.35-.16.79-.3,1.32-.42.53-.12,1.09-.21,1.66-.28.57-.07,1.09-.1,1.54-.1,1.68,0,3.07.48,4.18,1.44s1.66,2.39,1.66,4.28c0,.53,0,1.19.02,1.96.01.77.03,1.58.06,2.42.03.84.05,1.66.08,2.46.03.8.04,1.52.04,2.16h-4.8c.05-.45.09-.99.1-1.62.01-.62.03-1.29.04-1.98.01-.69.03-1.37.04-2.02.01-.65.02-1.25.02-1.78,0-1.28-.34-2.17-1.02-2.66-.68-.49-1.43-.74-2.26-.74-1.12,0-2.25.27-3.38.82-1.13.55-2.09,1.19-2.86,1.94-.59.59-1.18,1.24-1.78,1.96-.6.72-1.25,1.53-1.94,2.44l-4.28-3.2c1.73-1.6,3.23-3.15,4.5-4.64,1.27-1.49,2.34-2.97,3.22-4.44s1.6-2.93,2.16-4.4c.4-1.07.73-2.18.98-3.34.25-1.16.41-2.25.46-3.26l5.28.44ZM158.4,40.49c1.01.16,2.19.28,3.52.36,1.33.08,2.51.12,3.52.12,1.76,0,3.69-.04,5.78-.12,2.09-.08,4.22-.22,6.38-.42,2.16-.2,4.21-.46,6.16-.78l-.04,4.64c-1.41.19-2.94.35-4.58.5-1.64.15-3.31.27-5,.36-1.69.09-3.31.16-4.86.2-1.55.04-2.92.06-4.12.06-.53,0-1.19,0-1.98-.02-.79-.01-1.59-.04-2.42-.08-.83-.04-1.61-.09-2.36-.14v-4.68ZM190.08,51.85c-.43.13-.93.3-1.5.5-.57.2-1.15.4-1.72.6-.57.2-1.09.39-1.54.58-1.28.51-2.79,1.12-4.54,1.84-1.75.72-3.57,1.56-5.46,2.52-1.2.64-2.21,1.27-3.04,1.88-.83.61-1.45,1.23-1.88,1.86-.43.63-.64,1.31-.64,2.06,0,.56.12,1.02.36,1.38.24.36.6.65,1.08.86.48.21,1.08.36,1.8.44.72.08,1.57.12,2.56.12,1.71,0,3.59-.1,5.64-.3,2.05-.2,3.96-.47,5.72-.82l-.16,5.16c-.85.11-1.93.22-3.24.34-1.31.12-2.66.21-4.06.26-1.4.05-2.74.08-4.02.08-2.08,0-3.95-.2-5.6-.6-1.65-.4-2.95-1.09-3.9-2.06s-1.42-2.31-1.42-4.02c0-1.39.31-2.64.94-3.76.63-1.12,1.46-2.13,2.5-3.04,1.04-.91,2.18-1.73,3.42-2.46s2.46-1.41,3.66-2.02c1.23-.64,2.33-1.19,3.32-1.64.99-.45,1.91-.86,2.78-1.22.87-.36,1.7-.73,2.5-1.1.77-.35,1.52-.69,2.24-1.02.72-.33,1.45-.69,2.2-1.06l2,4.64Z"/><path class="cls-2" d="M195.2,41.53h14.16v3.8h-14.16v-3.8ZM196.88,58.17h3.88v13.76h-3.88v-13.76ZM197,47.17h11.16v3.64h-11.16v-3.64ZM197,52.65h11.16v3.6h-11.16v-3.6ZM197.24,36.17h10.76v3.6h-10.76v-3.6ZM199.2,58.17h9.04v12.12h-9.04v-3.76h5.08v-4.6h-5.08v-3.76ZM214.96,55.69h4.44c-.05,2.11-.2,4.02-.44,5.74s-.67,3.28-1.28,4.68c-.61,1.4-1.49,2.63-2.62,3.7-1.13,1.07-2.62,2-4.46,2.8-.16-.4-.4-.85-.72-1.34s-.66-.97-1.02-1.42c-.36-.45-.7-.83-1.02-1.12,1.57-.59,2.82-1.28,3.74-2.08.92-.8,1.61-1.73,2.08-2.78.47-1.05.79-2.25.96-3.6.17-1.35.29-2.87.34-4.58ZM209.6,50.01h22.64v7.72h-4.44v-3.96h-13.96v3.96h-4.24v-7.72ZM210.08,37.89h21.84v3.92h-21.84v-3.92ZM211.4,44.21h19.36v3.88h-19.36v-3.88ZM218.36,34.85h4.72v11.32h-4.72v-11.32ZM222.04,55.73h4.44v10.96c0,.59.04.95.12,1.1s.27.22.56.22h1.4c.24,0,.41-.11.52-.34.11-.23.19-.71.24-1.44.05-.73.09-1.85.12-3.34.29.27.67.51,1.14.74s.95.43,1.46.6c.51.17.96.33,1.36.46-.11,1.95-.32,3.47-.64,4.56-.32,1.09-.78,1.85-1.38,2.28-.6.43-1.38.64-2.34.64h-2.68c-1.17,0-2.07-.17-2.7-.5-.63-.33-1.05-.9-1.28-1.7-.23-.8-.34-1.88-.34-3.24v-11Z"/><path class="cls-2" d="M242.52,38.61c.56.05,1.15.1,1.78.14.63.04,1.15.06,1.58.06.59,0,1.26-.01,2.02-.04s1.54-.05,2.34-.08c.8-.03,1.56-.07,2.28-.12.72-.05,1.31-.09,1.76-.12.48-.03.97-.09,1.46-.2.49-.11.91-.23,1.26-.36l3.2,2.48c-.27.32-.52.61-.76.86-.24.25-.44.53-.6.82-.45.75-.97,1.77-1.56,3.06-.59,1.29-1.21,2.69-1.86,4.18-.65,1.49-1.29,2.95-1.9,4.36-.4.91-.81,1.87-1.24,2.88s-.87,2.02-1.32,3.02c-.45,1-.89,1.93-1.32,2.8-.43.87-.84,1.62-1.24,2.26-.8,1.2-1.69,2.09-2.68,2.66-.99.57-2.17.86-3.56.86-1.76,0-3.23-.57-4.4-1.72-1.17-1.15-1.76-2.73-1.76-4.76,0-1.6.36-3.09,1.08-4.48.72-1.39,1.74-2.59,3.06-3.62,1.32-1.03,2.87-1.82,4.66-2.38,1.79-.56,3.75-.84,5.88-.84,2.32,0,4.56.27,6.72.8s4.18,1.21,6.06,2.04c1.88.83,3.57,1.69,5.08,2.58,1.51.89,2.79,1.7,3.86,2.42l-2.36,5.56c-1.2-1.12-2.55-2.2-4.04-3.24-1.49-1.04-3.09-1.99-4.78-2.86s-3.49-1.55-5.4-2.06c-1.91-.51-3.89-.76-5.94-.76-1.95,0-3.61.31-4.98.92s-2.42,1.38-3.14,2.3c-.72.92-1.08,1.87-1.08,2.86,0,.64.17,1.13.5,1.48.33.35.73.52,1.18.52.43,0,.79-.11,1.08-.32.29-.21.63-.57,1-1.08.35-.48.69-1.05,1.02-1.72.33-.67.68-1.4,1.04-2.2.36-.8.72-1.61,1.08-2.44.36-.83.71-1.63,1.06-2.4.48-1.07.97-2.18,1.48-3.34.51-1.16.99-2.29,1.46-3.38.47-1.09.9-2.05,1.3-2.88-.4.03-.89.05-1.48.06-.59.01-1.21.03-1.86.06-.65.03-1.29.06-1.92.1-.63.04-1.17.07-1.62.1-.4.03-.91.07-1.54.12-.63.05-1.19.12-1.7.2l-.24-5.16ZM268.88,48.09c-.16,2.83-.45,5.42-.86,7.78-.41,2.36-1.07,4.51-1.96,6.44-.89,1.93-2.11,3.68-3.66,5.24s-3.52,2.97-5.92,4.22l-4.24-3.48c2.45-1.07,4.42-2.29,5.9-3.68s2.6-2.84,3.36-4.36c.76-1.52,1.29-3.01,1.58-4.46s.48-2.77.56-3.94c.05-.77.08-1.54.08-2.3s-.03-1.45-.08-2.06l5.24.6Z"/><path class="cls-2" d="M285.08,63.17c.83,1.31,1.99,2.27,3.48,2.88,1.49.61,3.28.96,5.36,1.04,1.17.05,2.57.09,4.18.1,1.61.01,3.31,0,5.1-.02,1.79-.03,3.54-.08,5.26-.16,1.72-.08,3.25-.17,4.58-.28-.16.37-.35.85-.56,1.44-.21.59-.41,1.19-.58,1.8s-.3,1.16-.38,1.64c-1.2.08-2.57.14-4.12.18-1.55.04-3.13.07-4.76.08-1.63.01-3.2,0-4.72-.02-1.52-.03-2.88-.07-4.08-.12-2.45-.11-4.55-.49-6.28-1.14-1.73-.65-3.27-1.75-4.6-3.3-.88.75-1.78,1.52-2.7,2.32-.92.8-1.93,1.62-3.02,2.48l-2.36-5c.93-.56,1.91-1.17,2.92-1.84,1.01-.67,1.99-1.36,2.92-2.08h4.36ZM285.08,50.49v14.76h-4.68v-10.32h-4.64v-4.44h9.32ZM275.8,38.73l3.56-2.88c.83.53,1.67,1.15,2.52,1.86.85.71,1.65,1.43,2.4,2.16s1.35,1.41,1.8,2.02l-3.8,3.2c-.4-.64-.95-1.33-1.66-2.08-.71-.75-1.49-1.5-2.34-2.26-.85-.76-1.68-1.43-2.48-2.02ZM296.08,44.93l4.92.68c-.85,4.51-2.2,8.44-4.04,11.8-1.84,3.36-4.23,6.08-7.16,8.16-.24-.32-.58-.71-1.02-1.16-.44-.45-.91-.91-1.4-1.38-.49-.47-.93-.83-1.3-1.1,2.8-1.68,5.01-3.97,6.62-6.88,1.61-2.91,2.74-6.28,3.38-10.12ZM290.16,36.57h8.48v4.56h-8.48v-4.56ZM296.2,36.57h5.04c.16,2.85.45,5.57.88,8.16.43,2.59,1.07,4.98,1.92,7.18.85,2.2,1.97,4.14,3.36,5.82s3.13,3.05,5.24,4.12c-.4.27-.83.61-1.3,1.04-.47.43-.92.87-1.36,1.34s-.81.9-1.1,1.3c-2.13-1.28-3.92-2.85-5.36-4.7-1.44-1.85-2.61-3.94-3.5-6.26s-1.57-4.81-2.04-7.48-.79-5.45-.98-8.36h-.8v-2.16Z"/><path class="cls-2" d="M317.16,41.37c1.09.13,2.21.25,3.34.36,1.13.11,2.17.16,3.1.16,2,0,4.12-.14,6.36-.42,2.24-.28,4.51-.73,6.8-1.34v4.8c-1.55.35-3.13.63-4.74.84-1.61.21-3.12.37-4.52.46-1.4.09-2.58.14-3.54.14-.85,0-1.83-.03-2.92-.08-1.09-.05-2.29-.13-3.6-.24l-.28-4.68ZM330.76,55.33c0,1.17-.14,2.31-.42,3.42-.28,1.11-.73,2.09-1.34,2.96s-1.4,1.56-2.36,2.08c-.96.52-2.13.78-3.52.78-.96,0-1.89-.25-2.8-.74-.91-.49-1.65-1.27-2.22-2.32s-.86-2.43-.86-4.14c0-1.57.31-2.99.94-4.24.63-1.25,1.5-2.24,2.62-2.96,1.12-.72,2.4-1.08,3.84-1.08,2.05,0,3.59.58,4.6,1.74s1.52,2.66,1.52,4.5ZM323.64,59.77c.61,0,1.11-.19,1.48-.58.37-.39.65-.91.82-1.56.17-.65.26-1.34.26-2.06,0-.8-.17-1.41-.52-1.84-.35-.43-.8-.64-1.36-.64-.51,0-.99.16-1.44.48-.45.32-.81.77-1.06,1.36s-.38,1.28-.38,2.08c0,.88.22,1.56.66,2.04s.95.72,1.54.72ZM328.72,59.93c0,.27,0,.62-.02,1.06-.01.44-.02.9-.02,1.38v1.32c0,.43.05.81.14,1.14.09.33.31.61.64.82.33.21.85.37,1.56.48.71.11,1.65.16,2.82.16.69,0,1.41-.03,2.16-.08s1.47-.13,2.18-.24c.71-.11,1.3-.24,1.78-.4,1.04-.29,1.79-.78,2.26-1.46.47-.68.7-1.53.7-2.54,0-.8-.02-1.59-.06-2.38-.04-.79-.13-1.65-.26-2.58l5.56,1.68v3.18c0,.44-.03.94-.08,1.5-.05,1.2-.25,2.26-.6,3.18-.35.92-.93,1.71-1.76,2.38-.83.67-2.01,1.24-3.56,1.72-.59.19-1.39.35-2.42.48-1.03.13-2.09.23-3.2.3-1.11.07-2.13.1-3.06.1-1.87,0-3.4-.11-4.6-.32-1.2-.21-2.15-.51-2.86-.9-.71-.39-1.21-.83-1.52-1.32s-.51-1.01-.6-1.56-.14-1.1-.14-1.66c0-.69,0-1.39.02-2.1.01-.71.03-1.34.06-1.9l4.88-1.44ZM330,36.53c-.11.59-.2,1.27-.28,2.06s-.12,1.78-.12,2.98v12.08l-4.8-1.88v-10.2c0-1.25-.03-2.26-.08-3.02-.05-.76-.16-1.43-.32-2.02h5.6ZM343.44,40.21c.61.4,1.31.92,2.1,1.56.79.64,1.59,1.33,2.4,2.06.81.73,1.57,1.45,2.26,2.16.69.71,1.27,1.33,1.72,1.86l-3.6,3.68c-.72-.91-1.58-1.87-2.58-2.88-1-1.01-2-1.98-3-2.9s-1.89-1.66-2.66-2.22l3.36-3.32Z"/><path class="cls-2" d="M75.12,112.35h11.07v2.43h-11.07v-2.43ZM76.43,125.47h2.53v10.88h-2.53v-10.88ZM76.5,116.77h8.77v2.34h-8.77v-2.34ZM76.5,121.09h8.77v2.34h-8.77v-2.34ZM76.69,108.09h8.48v2.37h-8.48v-2.37ZM77.9,125.47h7.42v9.47h-7.42v-2.43h4.9v-4.61h-4.9v-2.43ZM91.18,123.52h2.82c-.06,1.71-.2,3.25-.4,4.62-.2,1.38-.55,2.6-1.04,3.68-.49,1.08-1.18,2.03-2.08,2.86s-2.06,1.54-3.49,2.11c-.11-.24-.26-.51-.46-.82s-.42-.61-.66-.9c-.24-.29-.45-.52-.64-.69,1.26-.47,2.27-1.03,3.04-1.68.77-.65,1.35-1.42,1.76-2.3.4-.89.69-1.89.85-3.02s.26-2.42.3-3.87ZM86.64,119.23h17.79v5.89h-2.82v-3.46h-12.26v3.46h-2.72v-5.89ZM86.9,109.69h17.38v2.5h-17.38v-2.5ZM87.92,114.72h15.39v2.5h-15.39v-2.5ZM93.9,107.01h2.98v8.99h-2.98v-8.99ZM96.75,123.52h2.82v9.28c0,.43.04.69.13.8.08.11.27.16.54.16h1.7c.21,0,.37-.09.48-.27.11-.18.19-.58.24-1.18.05-.61.09-1.51.11-2.7.19.15.44.3.74.45s.61.28.93.4c.32.12.6.22.83.3-.06,1.47-.2,2.62-.42,3.46-.21.83-.53,1.41-.94,1.73s-.96.48-1.65.48h-2.46c-.81,0-1.44-.11-1.87-.32-.44-.21-.74-.59-.91-1.12-.17-.53-.26-1.26-.26-2.18v-9.28Z"/><path class="cls-2" d="M113.01,110.24c.43.04.87.08,1.33.1s.86.03,1.2.03c.45,0,.99,0,1.63-.03.64-.02,1.3-.05,1.98-.08s1.33-.06,1.95-.1c.62-.03,1.1-.06,1.44-.08.34-.04.67-.1.99-.16.32-.06.61-.14.86-.22l2.02,1.6c-.19.19-.37.38-.53.58-.16.19-.3.39-.43.61-.34.55-.75,1.34-1.23,2.37s-.98,2.13-1.5,3.33c-.52,1.2-1.03,2.35-1.52,3.46-.32.73-.66,1.5-1.03,2.34-.36.83-.73,1.66-1.1,2.5s-.74,1.61-1.09,2.32c-.35.72-.7,1.33-1.04,1.84-.6.88-1.25,1.5-1.97,1.89s-1.54.58-2.48.58c-1.28,0-2.35-.42-3.2-1.26-.85-.84-1.28-2-1.28-3.47,0-1.24.28-2.38.83-3.44.55-1.06,1.33-1.98,2.34-2.78,1-.8,2.2-1.42,3.58-1.86,1.39-.44,2.91-.66,4.58-.66,1.81,0,3.57.21,5.28.64,1.71.43,3.29.96,4.77,1.62,1.47.65,2.81,1.34,4.02,2.06,1.21.73,2.23,1.39,3.09,1.98l-1.47,3.46c-.96-.83-2.03-1.66-3.22-2.48s-2.46-1.57-3.84-2.24c-1.38-.67-2.83-1.21-4.35-1.62-1.53-.41-3.11-.61-4.75-.61s-3.09.27-4.29.82c-1.2.54-2.1,1.23-2.72,2.06-.62.83-.93,1.7-.93,2.59,0,.64.17,1.12.51,1.44s.74.48,1.18.48c.34,0,.65-.08.93-.24.28-.16.56-.44.86-.85.32-.43.63-.94.94-1.54.31-.6.62-1.24.94-1.94s.63-1.4.94-2.13c.31-.73.6-1.41.88-2.05.43-.92.85-1.86,1.26-2.83s.83-1.91,1.25-2.82c.42-.91.79-1.71,1.14-2.42-.32,0-.75.01-1.28.03s-1.11.05-1.73.08c-.62.03-1.21.06-1.76.08s-1.01.04-1.38.06c-.34.02-.74.05-1.2.1-.46.04-.89.1-1.3.16l-.13-3.3ZM133.49,117.5c-.13,2.26-.36,4.33-.69,6.21-.33,1.88-.85,3.57-1.57,5.09s-1.69,2.88-2.91,4.08-2.78,2.29-4.66,3.25l-2.69-2.21c1.92-.81,3.47-1.77,4.66-2.86s2.09-2.27,2.72-3.52c.63-1.25,1.07-2.5,1.33-3.74.26-1.25.43-2.41.51-3.47.02-.53.04-1.08.05-1.65s-.02-1.07-.08-1.52l3.33.35Z"/><path class="cls-2" d="M146.58,129.82c.72,1.11,1.73,1.94,3.02,2.48,1.29.54,2.82.85,4.59.91.92.04,2,.07,3.26.08,1.26.01,2.59,0,4-.03,1.41-.03,2.77-.07,4.1-.11,1.32-.04,2.48-.11,3.49-.19-.13.23-.26.54-.38.91-.13.37-.25.75-.35,1.14-.11.38-.19.74-.26,1.06-.92.04-1.98.07-3.18.1s-2.45.04-3.74.05c-1.29,0-2.54,0-3.76,0-1.22-.01-2.28-.04-3.2-.08-2.03-.09-3.76-.41-5.2-.98-1.44-.57-2.68-1.48-3.73-2.74-.73.66-1.48,1.32-2.26,1.98-.78.66-1.61,1.34-2.48,2.05l-1.54-3.14c.75-.47,1.55-1.01,2.42-1.63.86-.62,1.68-1.24,2.45-1.86h2.75ZM146.58,119.58v11.55h-2.94v-8.74h-4.13v-2.82h7.07ZM139.7,109.63l2.24-1.82c.68.43,1.38.93,2.1,1.5.71.58,1.37,1.16,1.97,1.76.6.6,1.09,1.15,1.47,1.66l-2.4,1.98c-.34-.51-.8-1.07-1.39-1.68-.59-.61-1.23-1.21-1.92-1.81-.69-.6-1.38-1.13-2.06-1.6ZM156.05,114.94l3.1.45c-.73,3.63-1.83,6.77-3.33,9.44s-3.43,4.85-5.82,6.56c-.15-.21-.36-.46-.64-.75s-.57-.58-.88-.86c-.31-.29-.58-.52-.82-.69,2.3-1.43,4.13-3.34,5.49-5.74,1.35-2.4,2.32-5.2,2.9-8.4ZM150.96,108.54h6.72v2.85h-6.72v-2.85ZM156.02,108.54h3.23c.17,2.37.45,4.61.85,6.74.39,2.12.95,4.07,1.68,5.84.73,1.77,1.65,3.33,2.77,4.67,1.12,1.34,2.5,2.43,4.14,3.26-.24.17-.5.39-.8.66s-.59.54-.86.83c-.28.29-.51.56-.7.82-1.66-.98-3.07-2.19-4.22-3.63-1.15-1.44-2.1-3.08-2.85-4.93-.75-1.84-1.33-3.84-1.74-6-.42-2.15-.72-4.44-.91-6.85h-.58v-1.41Z"/><path class="cls-2" d="M191.82,109.12c-.06.28-.13.59-.21.94-.08.35-.15.7-.22,1.04-.08.34-.14.63-.21.86-.3,1.37-.66,2.78-1.09,4.24s-.9,2.9-1.42,4.32c-.52,1.42-1.09,2.75-1.71,3.98-.62,1.24-1.27,2.33-1.95,3.26-.9,1.17-1.75,2.18-2.58,3.01s-1.65,1.47-2.5,1.92c-.84.45-1.75.67-2.74.67-.83,0-1.61-.23-2.34-.69-.73-.46-1.31-1.14-1.74-2.05-.44-.91-.66-2.01-.66-3.31s.26-2.74.77-4.11,1.22-2.65,2.11-3.82c.9-1.17,1.94-2.14,3.14-2.91,1.62-1.09,3.24-1.86,4.86-2.32,1.62-.46,3.26-.69,4.93-.69,2.13,0,4.03.45,5.7,1.36,1.66.91,2.97,2.17,3.92,3.78.95,1.61,1.42,3.48,1.42,5.62s-.49,4.06-1.46,5.66c-.97,1.6-2.32,2.88-4.03,3.82-1.72.95-3.71,1.59-5.97,1.94l-1.92-2.88c1.71-.15,3.19-.47,4.46-.96,1.27-.49,2.33-1.12,3.17-1.9.84-.78,1.47-1.66,1.89-2.64s.62-2.04.62-3.17c0-1.54-.34-2.89-1.01-4.06-.67-1.17-1.62-2.09-2.85-2.75-1.23-.66-2.65-.99-4.27-.99s-3.12.26-4.48.77-2.65,1.21-3.84,2.08c-.85.64-1.6,1.4-2.24,2.29-.64.89-1.13,1.82-1.47,2.82-.34.99-.51,1.95-.51,2.86s.19,1.65.58,2.21c.38.55.9.83,1.54.83.49,0,.98-.14,1.46-.42s.96-.65,1.44-1.12c.48-.47.94-1,1.39-1.6.45-.6.88-1.22,1.28-1.86.58-.87,1.12-1.87,1.65-2.98.52-1.11,1-2.28,1.44-3.52.44-1.24.83-2.47,1.17-3.7.34-1.23.6-2.37.77-3.44.08-.38.15-.84.19-1.38s.05-.98.03-1.34l3.49.32ZM178.54,110.43c.11.47.22.96.34,1.46s.23.99.34,1.46c.23.83.51,1.74.83,2.72.32.98.66,1.96,1.02,2.94s.74,1.89,1.12,2.72.75,1.55,1.09,2.14c.55.9,1.19,1.82,1.9,2.78.71.96,1.44,1.8,2.19,2.53l-2.53,2.05c-.64-.72-1.24-1.46-1.81-2.19-.57-.74-1.13-1.57-1.68-2.51-.45-.68-.89-1.48-1.33-2.4-.44-.92-.88-1.91-1.31-2.98-.44-1.07-.85-2.17-1.25-3.3-.39-1.13-.75-2.23-1.07-3.3-.17-.55-.35-1.09-.54-1.6-.19-.51-.41-1.01-.64-1.5l3.33-1.02Z"/><path class="cls-2" d="M209.36,110.11c.41.04.84.08,1.3.1s.88.03,1.26.03c.32,0,.84,0,1.55-.02s1.53-.03,2.43-.05,1.81-.05,2.7-.08,1.7-.07,2.42-.11c.71-.04,1.24-.07,1.58-.1.58-.04,1.02-.08,1.33-.13s.55-.1.72-.16l1.76,2.3c-.32.21-.65.43-.99.64-.34.21-.68.46-1.02.74-.41.3-.93.71-1.58,1.23s-1.35,1.1-2.1,1.73c-.75.63-1.48,1.24-2.21,1.84-.73.6-1.38,1.13-1.95,1.6.64-.21,1.28-.36,1.92-.43.64-.08,1.28-.11,1.92-.11,1.77,0,3.36.34,4.77,1.02,1.41.68,2.52,1.6,3.33,2.75.81,1.15,1.22,2.49,1.22,4,0,1.69-.44,3.19-1.33,4.51-.89,1.32-2.17,2.36-3.84,3.1-1.68.75-3.71,1.12-6.1,1.12-1.47,0-2.76-.2-3.87-.61-1.11-.41-1.97-.98-2.58-1.71-.61-.74-.91-1.58-.91-2.54,0-.79.22-1.53.66-2.22s1.06-1.25,1.86-1.66,1.72-.62,2.77-.62c1.45,0,2.66.29,3.63.88.97.59,1.72,1.36,2.24,2.32s.8,2.01.85,3.14l-2.91.42c-.06-1.28-.43-2.33-1.1-3.14s-1.57-1.22-2.7-1.22c-.68,0-1.24.18-1.68.54-.44.36-.66.79-.66,1.28,0,.7.36,1.26,1.07,1.66.71.41,1.64.61,2.77.61,1.81,0,3.36-.23,4.64-.69s2.25-1.13,2.91-2.02c.66-.88.99-1.96.99-3.22,0-1-.3-1.9-.9-2.69-.6-.79-1.42-1.4-2.46-1.84-1.04-.44-2.24-.66-3.58-.66s-2.45.14-3.5.43c-1.06.29-2.04.7-2.96,1.25-.92.54-1.82,1.22-2.7,2.02-.89.8-1.8,1.71-2.74,2.74l-2.34-2.37c.64-.51,1.34-1.09,2.11-1.73.77-.64,1.54-1.29,2.32-1.94.78-.65,1.52-1.27,2.21-1.86.69-.59,1.27-1.07,1.74-1.46.45-.36.99-.81,1.63-1.33.64-.52,1.3-1.07,1.98-1.65.68-.58,1.33-1.12,1.95-1.65.62-.52,1.13-.96,1.54-1.33-.34.02-.81.04-1.41.06-.6.02-1.25.05-1.97.08-.72.03-1.43.06-2.16.1-.73.03-1.39.06-1.98.1-.6.03-1.06.06-1.38.08-.38.02-.78.05-1.2.08-.42.03-.81.07-1.17.11l-.1-3.3Z"/><path class="cls-2" d="M235.73,109.05h28.54v2.85h-28.54v-2.85ZM236.72,114.62h2.98v22.11h-2.98v-22.11ZM238.38,131.9h23.2v2.88h-23.2v-2.88ZM242.29,115.04h15.36v14.46h-15.36v-14.46ZM244.79,117.53v3.52h10.24v-3.52h-10.24ZM244.79,123.42v3.58h10.24v-3.58h-10.24ZM248.37,109.89h3.04v6.37h-3.04v-6.37ZM248.56,116.16h2.66v12.35h-2.66v-12.35ZM260.4,114.62h2.94v22.05h-2.94v-22.05Z"/><path class="cls-2" d="M273.14,107.17l2.78.8c-.6,1.86-1.31,3.71-2.13,5.55-.82,1.85-1.72,3.59-2.71,5.23-.98,1.64-2.02,3.09-3.1,4.35-.06-.23-.19-.55-.37-.96-.18-.41-.37-.81-.58-1.22-.2-.41-.39-.74-.56-.99.92-1.04,1.79-2.25,2.61-3.62.82-1.36,1.58-2.83,2.27-4.4.69-1.57,1.29-3.15,1.78-4.75ZM270.58,115.42l2.78-2.82.1.06v24.06h-2.88v-21.31ZM280.91,107.07l2.91.51c-.85,1.54-1.89,3.07-3.1,4.61-1.22,1.54-2.67,2.97-4.35,4.29-.24-.3-.57-.62-1.01-.96-.44-.34-.83-.6-1.17-.77,1.04-.75,2-1.56,2.86-2.43.86-.87,1.62-1.76,2.27-2.67.65-.91,1.18-1.76,1.58-2.58ZM286,127.01l1.95,1.34c-.9.94-2.01,1.88-3.33,2.82-1.32.94-2.73,1.81-4.21,2.62s-2.9,1.48-4.24,2.02c-.19-.34-.44-.73-.74-1.15-.3-.43-.6-.78-.9-1.06,1-.32,2.05-.72,3.14-1.2,1.09-.48,2.15-1.02,3.18-1.62,1.03-.6,2-1.22,2.88-1.87.88-.65,1.64-1.28,2.26-1.9ZM284.91,118.85l2.34.96c-.88.83-1.91,1.63-3.1,2.38-1.2.76-2.44,1.46-3.74,2.1-1.3.64-2.58,1.18-3.84,1.63-.11-.17-.26-.38-.46-.64-.2-.26-.41-.51-.62-.77-.21-.26-.42-.47-.61-.64,1.24-.34,2.48-.77,3.73-1.28,1.25-.51,2.43-1.09,3.54-1.73,1.11-.64,2.04-1.31,2.78-2.02ZM284.37,123.65l1.73,1.15c-.73.68-1.63,1.38-2.72,2.08s-2.23,1.37-3.42,1.98c-1.2.62-2.33,1.13-3.39,1.54-.15-.3-.36-.64-.64-1.02-.28-.38-.54-.7-.8-.96,1.04-.3,2.15-.71,3.33-1.23,1.17-.52,2.29-1.09,3.34-1.71,1.06-.62,1.91-1.23,2.58-1.82ZM276.72,113.41h18.98v7.36h-18.98v-7.36ZM279.47,115.52v3.1h13.31v-3.1h-13.31ZM281.46,109.05h7.46v2.24h-9.25l1.79-2.24ZM281.33,122.69l1.98-1.25c1.26.88,2.27,1.85,3.04,2.93.77,1.08,1.33,2.19,1.7,3.33.36,1.14.55,2.24.58,3.28.02,1.05-.12,1.98-.42,2.8-.3.82-.71,1.45-1.25,1.87-.49.41-.98.69-1.47.85-.49.16-1.08.25-1.76.27-.32,0-.69,0-1.1-.02-.42-.01-.85-.03-1.3-.05,0-.36-.06-.79-.18-1.28-.12-.49-.29-.93-.53-1.31.49.04.96.08,1.41.1.45.02.82.03,1.12.03.38,0,.72-.03,1.01-.1.29-.06.55-.22.78-.48.43-.34.71-.92.86-1.73.15-.81.12-1.76-.1-2.85-.21-1.09-.67-2.19-1.38-3.31-.7-1.12-1.71-2.15-3.01-3.09ZM284.62,114.3h2.72v5.31h-2.72v-5.31ZM287.98,109.05h.64l.54-.19,1.82,1.31c-.53.92-1.16,1.85-1.89,2.8s-1.43,1.77-2.11,2.45c-.19-.28-.46-.59-.8-.94-.34-.35-.64-.63-.9-.85.51-.55,1.02-1.22,1.54-2,.51-.78.9-1.48,1.15-2.1v-.48ZM289.14,119.33c.43,1.98,1,3.87,1.71,5.65.71,1.78,1.6,3.37,2.66,4.75,1.06,1.39,2.28,2.49,3.66,3.3-.21.17-.44.4-.69.69-.25.29-.49.58-.72.88-.23.3-.43.58-.58.83-1.47-1-2.76-2.28-3.87-3.84-1.11-1.56-2.04-3.34-2.78-5.36s-1.37-4.17-1.86-6.45l2.46-.45ZM294.64,121.6l2.08,1.79c-.81.7-1.7,1.41-2.67,2.13s-1.86,1.32-2.67,1.81l-1.73-1.63c.53-.34,1.1-.75,1.7-1.23.6-.48,1.19-.97,1.78-1.47.59-.5,1.09-.96,1.52-1.39Z"/><path class="cls-2" d="M325.94,112.77c-.11.26-.21.55-.3.88-.1.33-.19.66-.27.98-.17.81-.4,1.72-.67,2.72-.28,1-.61,2.04-1.01,3.1-.4,1.07-.85,2.11-1.36,3.12-.51,1.01-1.09,1.95-1.73,2.8-.98,1.26-2.08,2.43-3.31,3.52s-2.62,2.06-4.18,2.93-3.31,1.61-5.25,2.22l-2.75-3.01c2.11-.51,3.94-1.15,5.47-1.9,1.54-.76,2.88-1.62,4.02-2.59,1.14-.97,2.15-2.01,3.03-3.12.75-.94,1.39-1.98,1.92-3.14.53-1.15.98-2.31,1.34-3.47.36-1.16.61-2.23.74-3.22h-15.71c-.68,0-1.33.01-1.94.03-.61.02-1.12.05-1.52.1v-3.58c.3.04.65.08,1.05.11.41.03.82.06,1.25.1.43.03.81.05,1.15.05h15.52c.28,0,.6-.02.98-.05s.73-.09,1.07-.18l2.46,1.6Z"/><path class="cls-2" d="M358.03,117.98c-.13.13-.27.3-.43.51-.16.21-.28.38-.37.51-.26.41-.61.93-1.06,1.58-.45.65-.96,1.35-1.55,2.1-.59.75-1.21,1.46-1.86,2.13-.65.67-1.31,1.24-1.97,1.71l-2.59-1.76c.7-.45,1.39-1,2.06-1.65.67-.65,1.28-1.32,1.82-2,.54-.68.95-1.26,1.23-1.73h-14.66c-.51,0-1.03.01-1.57.03-.53.02-1.07.05-1.6.1v-3.3c.49.06,1.01.12,1.57.16s1.09.06,1.6.06h15.39c.19,0,.42,0,.69-.02.27-.01.53-.03.8-.06.27-.03.47-.06.62-.08l1.86,1.7ZM347.18,121.28c-.04,1.3-.1,2.54-.18,3.73-.07,1.18-.24,2.32-.51,3.41-.27,1.09-.67,2.13-1.2,3.12-.53.99-1.26,1.93-2.18,2.8-.92.87-2.09,1.71-3.52,2.5l-2.75-2.21c.38-.13.77-.29,1.17-.48.39-.19.8-.44,1.23-.74,1.32-.9,2.31-1.86,2.98-2.9.66-1.03,1.1-2.14,1.33-3.33.22-1.18.34-2.46.34-3.82,0-.34-.02-.69-.06-1.06-.04-.36-.1-.7-.16-1.02h3.52Z"/><path class="cls-2" d="M364.43,122.11c2.82-.75,5.4-1.64,7.76-2.67,2.36-1.03,4.42-2.11,6.19-3.22,1.13-.68,2.23-1.45,3.31-2.3s2.1-1.74,3.06-2.66c.96-.92,1.8-1.8,2.53-2.66l2.69,2.56c-.94.96-1.95,1.91-3.04,2.85-1.09.94-2.24,1.84-3.44,2.7s-2.44,1.68-3.7,2.45c-1.17.73-2.51,1.46-4,2.19-1.49.74-3.07,1.44-4.74,2.11s-3.35,1.28-5.06,1.81l-1.57-3.17ZM377.81,117.89l3.55-.93v14.5c0,.43,0,.89.02,1.39,0,.5.03.97.06,1.39.03.43.08.76.14.99h-3.97c.02-.23.05-.57.1-.99.04-.43.07-.89.08-1.39,0-.5.02-.96.02-1.39v-13.57Z"/><path class="cls-2" d="M395.73,133.05c1.39-.96,2.54-2.13,3.46-3.5s1.61-2.8,2.08-4.27c.23-.7.42-1.59.54-2.66.13-1.07.22-2.2.27-3.41s.09-2.39.1-3.57c.01-1.17.02-2.22.02-3.14,0-.55-.02-1.03-.06-1.44-.04-.4-.11-.79-.19-1.15h3.71c0,.08-.02.26-.05.53-.03.27-.06.58-.08.93-.02.35-.03.72-.03,1.1,0,.92-.01,1.99-.03,3.22-.02,1.23-.07,2.49-.14,3.79-.08,1.3-.17,2.54-.29,3.71-.12,1.17-.29,2.16-.53,2.94-.47,1.75-1.2,3.39-2.18,4.93-.98,1.54-2.15,2.88-3.52,4.03l-3.07-2.05ZM410.48,133.34c.06-.28.12-.59.16-.94.04-.35.06-.71.06-1.07v-18.94c0-.66-.03-1.23-.1-1.7-.06-.47-.1-.76-.1-.86h3.71c0,.11-.03.4-.08.86-.05.47-.08,1.04-.08,1.7v17.7c.94-.43,1.93-1,2.98-1.71,1.04-.71,2.07-1.55,3.07-2.51s1.89-2,2.66-3.14l1.95,2.75c-.92,1.22-1.99,2.38-3.22,3.49s-2.51,2.12-3.84,3.04c-1.33.92-2.62,1.69-3.86,2.3-.3.15-.54.29-.74.43-.19.14-.35.26-.48.37l-2.11-1.76Z"/><path class="cls-2" d="M434.54,109.5c-.06.17-.14.42-.22.74-.09.32-.17.64-.24.96-.07.32-.13.58-.18.77-.11.51-.23,1.17-.37,1.97-.14.8-.28,1.67-.42,2.62-.14.95-.27,1.92-.38,2.9s-.21,1.92-.29,2.82c-.08.9-.11,1.69-.11,2.37,0,.55.02,1.12.06,1.68.04.57.11,1.15.19,1.74.15-.45.32-.91.51-1.39.19-.48.39-.96.59-1.42.2-.47.39-.9.56-1.28l1.6,1.25c-.28.81-.58,1.68-.9,2.61-.32.93-.6,1.81-.85,2.64s-.43,1.53-.56,2.08c-.04.21-.08.46-.11.75s-.05.53-.05.72c.02.15.04.34.05.56.01.22.03.43.05.62l-2.85.22c-.34-1.13-.63-2.57-.88-4.3-.24-1.74-.37-3.7-.37-5.87,0-1.2.05-2.44.16-3.73.11-1.29.24-2.55.4-3.79.16-1.24.31-2.37.46-3.39.15-1.02.28-1.86.38-2.5.04-.41.09-.84.14-1.31.05-.47.09-.92.11-1.34l3.49.32ZM450.26,109.21c-.04.32-.08.65-.11.99-.03.34-.06.67-.08.99-.02.36-.04.84-.05,1.44-.01.6-.02,1.24-.03,1.94-.01.69-.02,1.38-.02,2.06,0,1.34.03,2.63.08,3.87.05,1.24.11,2.41.18,3.52.06,1.11.12,2.15.16,3.12.04.97.06,1.85.06,2.64,0,.73-.1,1.42-.29,2.08-.19.66-.51,1.25-.96,1.76-.45.51-1.05.91-1.81,1.2-.76.29-1.69.43-2.8.43-2.18,0-3.86-.43-5.05-1.28-1.2-.85-1.79-2.05-1.79-3.58,0-.98.27-1.86.82-2.62.54-.77,1.32-1.38,2.34-1.82,1.01-.45,2.23-.67,3.66-.67s2.73.16,3.9.46c1.17.31,2.26.73,3.26,1.25,1,.52,1.9,1.09,2.7,1.71.8.62,1.53,1.22,2.19,1.79l-1.73,2.69c-1.15-1.11-2.3-2.07-3.44-2.88-1.14-.81-2.3-1.44-3.47-1.89-1.17-.45-2.4-.67-3.68-.67-1.09,0-1.97.21-2.64.64s-1.01.98-1.01,1.66c0,.75.33,1.31.99,1.68.66.37,1.5.56,2.53.56.79,0,1.41-.13,1.86-.38.45-.26.77-.63.96-1.12.19-.49.29-1.07.29-1.73,0-.55-.02-1.31-.06-2.26-.04-.95-.1-2-.16-3.14-.06-1.14-.12-2.32-.16-3.52s-.06-2.36-.06-3.47v-5.41c0-.28-.02-.61-.05-1.01-.03-.39-.08-.74-.14-1.04h3.62ZM438.64,114.81c.92.09,1.83.16,2.74.21.91.05,1.84.08,2.8.08,1.92,0,3.84-.08,5.76-.26s3.7-.42,5.34-.74v3.1c-1.71.28-3.51.48-5.42.61s-3.81.2-5.71.22c-.94,0-1.85-.02-2.74-.06-.88-.04-1.8-.1-2.74-.16l-.03-3.01Z"/><path class="cls-2" d="M468.72,134.05v-3.04h5.18v-15.74h-4.22v-2.34c1.11-.21,2.07-.46,2.9-.75s1.57-.63,2.26-1.04h2.79v19.87h4.58v3.04h-13.47Z"/><path class="cls-2" d="M493.39,134.5c-1.58,0-2.94-.46-4.08-1.39-1.14-.93-2.02-2.28-2.64-4.06s-.93-3.96-.93-6.54.31-4.75.93-6.5,1.5-3.07,2.64-3.97c1.14-.9,2.5-1.34,4.08-1.34s2.9.45,4.03,1.34c1.13.9,2.01,2.22,2.62,3.97.62,1.75.93,3.92.93,6.5s-.31,4.76-.93,6.54c-.62,1.78-1.49,3.14-2.62,4.06s-2.47,1.39-4.03,1.39ZM493.39,131.55c.79,0,1.49-.3,2.11-.9.62-.6,1.1-1.56,1.44-2.88.34-1.32.51-3.08.51-5.28s-.17-3.94-.51-5.23c-.34-1.29-.82-2.22-1.44-2.8s-1.32-.86-2.11-.86-1.49.29-2.11.86c-.62.58-1.1,1.51-1.46,2.8s-.53,3.04-.53,5.23.18,3.96.53,5.28c.35,1.32.84,2.28,1.46,2.88.62.6,1.32.9,2.11.9Z"/><path class="cls-2" d="M505.58,134.05v-23.58h4.29l4.29,11.94c.28.77.54,1.55.8,2.35.26.8.51,1.59.77,2.38h.16c.28-.79.54-1.58.78-2.38.24-.8.5-1.58.75-2.35l4.22-11.94h4.32v23.58h-3.46v-11.65c0-.7.03-1.48.08-2.34.05-.85.12-1.72.19-2.59.08-.88.16-1.66.24-2.37h-.16l-1.89,5.44-4.1,11.23h-2.3l-4.13-11.23-1.89-5.44h-.13c.09.7.17,1.49.24,2.37s.14,1.74.19,2.59c.05.85.08,1.63.08,2.34v11.65h-3.36Z"/><path class="cls-2" d="M532.14,134.05v-23.58h7.33c1.6,0,3.02.19,4.27.58,1.25.38,2.23,1,2.94,1.84.71.84,1.07,1.97,1.07,3.38,0,.77-.13,1.49-.4,2.18-.27.68-.65,1.29-1.14,1.81-.49.52-1.1.9-1.82,1.14v.16c1.34.28,2.45.88,3.33,1.81.87.93,1.31,2.19,1.31,3.79s-.39,2.85-1.17,3.87c-.78,1.02-1.85,1.79-3.2,2.29s-2.91.75-4.66.75h-7.87ZM535.86,120.32h3.17c1.79,0,3.09-.32,3.89-.96.8-.64,1.2-1.5,1.2-2.59,0-1.22-.42-2.08-1.25-2.61-.83-.52-2.08-.78-3.74-.78h-3.26v6.94ZM535.86,131.13h3.74c1.83,0,3.26-.34,4.27-1.02,1.01-.68,1.52-1.74,1.52-3.17,0-1.32-.5-2.29-1.49-2.9-.99-.61-2.43-.91-4.3-.91h-3.74v8Z"/><path class="cls-2" d="M577.04,108.45c-.02.3-.05.62-.08.98-.03.35-.06.75-.08,1.2-.02.36-.04.88-.05,1.57-.01.68-.02,1.44-.03,2.26-.01.82-.02,1.64-.02,2.46v2.26c0,.98.03,2.04.08,3.18.05,1.14.11,2.27.18,3.38.06,1.11.12,2.13.18,3.07.05.94.08,1.71.08,2.3,0,.81-.2,1.57-.61,2.27s-1.04,1.27-1.92,1.71c-.88.44-2.02.66-3.42.66-2.41,0-4.25-.43-5.5-1.3-1.26-.86-1.89-2.1-1.89-3.7,0-1.02.3-1.92.91-2.69.61-.77,1.48-1.37,2.62-1.81,1.14-.44,2.5-.66,4.08-.66,1.71,0,3.31.19,4.82.58s2.88.88,4.13,1.47c1.25.6,2.35,1.22,3.31,1.87.96.65,1.77,1.23,2.43,1.74l-1.86,2.85c-.75-.68-1.59-1.38-2.53-2.08-.94-.7-1.97-1.34-3.1-1.92s-2.33-1.03-3.6-1.38c-1.27-.34-2.61-.51-4.02-.51s-2.41.23-3.12.69c-.72.46-1.07,1.01-1.07,1.65,0,.45.14.85.43,1.2.29.35.72.63,1.3.83s1.32.3,2.24.3c.6,0,1.14-.07,1.62-.22.48-.15.86-.41,1.14-.78s.42-.9.42-1.58c0-.55-.02-1.3-.06-2.24-.04-.94-.08-1.96-.11-3.06s-.07-2.17-.11-3.2c-.04-1.03-.06-1.91-.06-2.64s0-1.52.02-2.32.02-1.59.02-2.37v-4.02c0-.28-.01-.62-.03-1.04-.02-.42-.06-.74-.13-.98h3.42ZM564.21,118.56c.53.09,1.15.17,1.86.24.7.08,1.43.13,2.18.18.75.04,1.46.08,2.13.11.67.03,1.25.05,1.74.05,1.73,0,3.35-.04,4.88-.11,1.52-.07,3-.18,4.42-.32,1.42-.14,2.8-.29,4.14-.46l-.03,2.98c-1.09.15-2.15.27-3.2.37-1.04.1-2.1.18-3.15.24-1.06.06-2.17.11-3.33.13-1.16.02-2.43.03-3.79.03-.66,0-1.46-.02-2.4-.05s-1.89-.08-2.85-.14c-.96-.06-1.81-.14-2.56-.22l-.03-3.01ZM564.37,111.71c.53.08,1.16.17,1.87.26.71.08,1.45.17,2.21.24.76.07,1.48.13,2.16.16.68.03,1.28.05,1.79.05,2.11,0,4.24-.08,6.37-.22,2.13-.15,4.29-.41,6.46-.77v2.94c-1.15.13-2.43.26-3.84.38s-2.88.23-4.4.32c-1.53.09-3.05.13-4.56.13-.7,0-1.55-.03-2.54-.1-.99-.06-1.98-.14-2.96-.22s-1.82-.17-2.53-.26l-.03-2.91Z"/><path class="cls-2" d="M592.78,112.61c.62-.02,1.19-.05,1.71-.08.52-.03.94-.06,1.26-.08.58-.06,1.35-.14,2.32-.24.97-.1,2.07-.2,3.31-.3,1.24-.11,2.56-.22,3.97-.35,1.41-.13,2.85-.26,4.32-.38,1.13-.08,2.23-.17,3.31-.24,1.08-.07,2.08-.14,3.02-.19.94-.05,1.77-.09,2.5-.11v3.23c-.6-.02-1.28-.02-2.03,0-.76.02-1.5.06-2.24.13-.74.06-1.39.17-1.97.32-1.04.32-2,.82-2.88,1.5s-1.63,1.47-2.26,2.37c-.63.9-1.11,1.85-1.44,2.85-.33,1-.5,1.97-.5,2.91,0,1.17.2,2.19.59,3.06.39.86.94,1.6,1.65,2.21.7.61,1.51,1.11,2.43,1.5.92.4,1.89.69,2.93.88,1.03.19,2.07.31,3.12.35l-1.15,3.42c-1.26-.06-2.51-.25-3.74-.56-1.24-.31-2.4-.75-3.49-1.31-1.09-.56-2.05-1.27-2.9-2.13-.84-.85-1.5-1.83-1.98-2.94-.48-1.11-.72-2.37-.72-3.78,0-1.62.27-3.11.82-4.48.54-1.36,1.23-2.55,2.06-3.57s1.69-1.8,2.56-2.35c-.64.06-1.43.14-2.37.24-.94.1-1.95.21-3.02.34s-2.16.26-3.25.4c-1.09.14-2.12.28-3.09.43-.97.15-1.82.3-2.54.45l-.32-3.49ZM613.9,117.41c.26.36.54.81.86,1.33.32.52.64,1.06.96,1.6.32.54.59,1.04.8,1.49l-1.98.9c-.38-.81-.78-1.59-1.2-2.34s-.87-1.46-1.36-2.14l1.92-.83ZM617.46,116.03c.26.36.55.79.9,1.3.34.5.67,1.02.99,1.55s.6,1.04.83,1.5l-1.95.93c-.43-.81-.85-1.57-1.28-2.29-.43-.71-.9-1.42-1.41-2.13l1.92-.86Z"/><path class="cls-2" d="M624.78,112.61c.62-.02,1.19-.05,1.71-.08.52-.03.94-.06,1.26-.08.58-.06,1.35-.14,2.32-.24.97-.1,2.07-.2,3.31-.3,1.24-.11,2.56-.22,3.97-.35,1.41-.13,2.85-.26,4.32-.38,1.13-.08,2.23-.17,3.31-.24,1.08-.07,2.08-.14,3.02-.19.94-.05,1.77-.09,2.5-.11v3.23c-.6-.02-1.28-.02-2.03,0-.76.02-1.5.06-2.24.13-.74.06-1.39.17-1.97.32-1.04.32-2,.82-2.88,1.5s-1.63,1.47-2.26,2.37c-.63.9-1.11,1.85-1.44,2.85-.33,1-.5,1.97-.5,2.91,0,1.17.2,2.19.59,3.06.39.86.94,1.6,1.65,2.21.7.61,1.51,1.11,2.43,1.5.92.4,1.89.69,2.93.88,1.03.19,2.07.31,3.12.35l-1.15,3.42c-1.26-.06-2.51-.25-3.74-.56-1.24-.31-2.4-.75-3.49-1.31-1.09-.56-2.05-1.27-2.9-2.13-.84-.85-1.5-1.83-1.98-2.94-.48-1.11-.72-2.37-.72-3.78,0-1.62.27-3.11.82-4.48.54-1.36,1.23-2.55,2.06-3.57s1.69-1.8,2.56-2.35c-.64.06-1.43.14-2.37.24-.94.1-1.95.21-3.02.34s-2.16.26-3.25.4c-1.09.14-2.12.28-3.09.43-.97.15-1.82.3-2.54.45l-.32-3.49ZM645.9,117.41c.26.36.54.81.86,1.33.32.52.64,1.06.96,1.6.32.54.59,1.04.8,1.49l-1.98.9c-.38-.81-.78-1.59-1.2-2.34s-.87-1.46-1.36-2.14l1.92-.83ZM649.46,116.03c.26.36.55.79.9,1.3.34.5.67,1.02.99,1.55s.6,1.04.83,1.5l-1.95.93c-.43-.81-.85-1.57-1.28-2.29-.43-.71-.9-1.42-1.41-2.13l1.92-.86Z"/><path class="cls-2" d="M657.33,112.77c.92-.02,1.95-.04,3.09-.06,1.14-.02,2.35-.05,3.63-.08,1.28-.03,2.55-.06,3.82-.1,1.27-.03,2.48-.05,3.63-.06s2.18-.02,3.07-.02h9.63l-.06,3.01c-.92-.04-2.16-.08-3.73-.11-1.57-.03-3.54-.05-5.9-.05-1.41,0-2.86.01-4.35.03-1.49.02-2.99.06-4.5.11-1.5.05-2.96.11-4.35.18-1.4.06-2.69.14-3.89.22l-.1-3.07ZM674.35,122.11c0,1.58-.21,2.89-.62,3.92-.42,1.04-1.01,1.81-1.78,2.34-.77.52-1.7.78-2.78.78-.66,0-1.31-.12-1.94-.35s-1.21-.59-1.73-1.07c-.52-.48-.94-1.07-1.25-1.76-.31-.69-.46-1.49-.46-2.38,0-1.13.27-2.13.82-2.99s1.27-1.54,2.18-2.03c.91-.49,1.89-.74,2.96-.74,1.32,0,2.43.3,3.31.9.88.6,1.55,1.4,2,2.42.45,1.01.67,2.16.67,3.44,0,1.05-.16,2.13-.48,3.25-.32,1.12-.85,2.2-1.6,3.25-.75,1.05-1.75,2-3.02,2.86-1.27.86-2.85,1.57-4.75,2.13l-2.72-2.69c1.43-.3,2.72-.7,3.87-1.2,1.15-.5,2.14-1.12,2.98-1.86.83-.74,1.48-1.61,1.94-2.62.46-1.01.69-2.19.69-3.54s-.28-2.21-.85-2.78c-.57-.58-1.25-.86-2.06-.86-.49,0-.96.12-1.41.35-.45.24-.81.58-1.09,1.02s-.42.99-.42,1.63c0,.9.29,1.59.88,2.1.59.5,1.26.75,2.03.75.62,0,1.15-.18,1.58-.53.44-.35.74-.91.91-1.66.17-.76.13-1.72-.13-2.9l2.27.83ZM674.83,108.51c-.02.13-.05.35-.08.67s-.06.64-.08.96c-.02.32-.03.55-.03.7-.02.41-.04.97-.05,1.68-.01.71-.02,1.5-.02,2.35s0,1.71.02,2.58c.01.86.02,1.67.03,2.43.01.76.02,1.39.02,1.9l-3.1-1.28v-1.46c0-.63,0-1.34-.02-2.14-.01-.8-.02-1.59-.03-2.38-.01-.79-.02-1.51-.03-2.18-.01-.66-.03-1.16-.05-1.5-.04-.51-.09-.99-.14-1.44-.05-.45-.09-.75-.11-.9h3.68Z"/><path class="cls-2" d="M692.59,126.17c.94,0,1.78.23,2.53.69.75.46,1.34,1.06,1.79,1.81.45.75.67,1.59.67,2.53s-.22,1.76-.67,2.51c-.45.76-1.05,1.36-1.79,1.81-.75.45-1.59.67-2.53.67s-1.75-.22-2.51-.67c-.76-.45-1.37-1.05-1.82-1.81-.46-.76-.69-1.59-.69-2.51s.23-1.78.69-2.53c.46-.75,1.07-1.35,1.82-1.81.76-.46,1.59-.69,2.51-.69ZM692.59,134.27c.85,0,1.58-.3,2.18-.9.6-.6.9-1.32.9-2.18,0-.58-.13-1.09-.4-1.55-.27-.46-.63-.83-1.1-1.1-.47-.28-.99-.42-1.57-.42s-1.07.14-1.54.42c-.47.28-.84.65-1.12,1.1-.28.46-.42.98-.42,1.55s.14,1.07.42,1.55c.28.48.65.85,1.12,1.12.47.27.98.4,1.54.4Z"/><path class="cls-2" d="M92.14,88.97c-.02.16-.04.34-.06.57-.02.22-.04.46-.05.7-.02.25-.03.47-.03.68-.01.41-.01.89,0,1.44,0,.55,0,1.12,0,1.69,0,.49.01,1.07.04,1.74s.06,1.35.1,2.05c.04.7.07,1.36.1,1.96.03.61.04,1.1.04,1.48s-.06.75-.18,1.1c-.12.35-.32.66-.59.93-.27.27-.63.48-1.09.64-.46.16-1.01.23-1.67.23-.84,0-1.6-.1-2.28-.3-.68-.2-1.21-.52-1.61-.96s-.59-1.03-.59-1.76c0-.59.17-1.12.51-1.58.34-.47.86-.84,1.56-1.12.7-.28,1.57-.42,2.63-.42.91,0,1.79.1,2.65.31.85.2,1.66.48,2.41.82s1.45.72,2.07,1.14c.62.42,1.16.84,1.62,1.26l-1.08,1.69c-.44-.44-.95-.88-1.53-1.31s-1.21-.82-1.89-1.18c-.68-.35-1.4-.63-2.16-.84-.76-.2-1.53-.31-2.32-.31-.84,0-1.49.13-1.94.4s-.68.62-.68,1.08.22.82.67,1.04c.45.23,1.05.34,1.81.34.62,0,1.08-.14,1.37-.43.29-.29.43-.74.43-1.37,0-.31-.01-.75-.04-1.3-.02-.56-.05-1.16-.07-1.82-.02-.65-.05-1.29-.07-1.91s-.04-1.15-.04-1.59c0-.36,0-.73,0-1.12,0-.38,0-.75,0-1.11v-.91c-.01-.26-.02-.52-.04-.77s-.03-.47-.05-.67c-.02-.2-.05-.37-.09-.5h2.16ZM91,92.52c.29,0,.68,0,1.17,0s1.03-.02,1.61-.05c.58-.03,1.17-.06,1.76-.1.59-.04,1.14-.08,1.63-.14l.07,1.69c-.49.05-1.04.09-1.64.12-.6.04-1.19.07-1.77.09-.58.02-1.12.04-1.62.06-.5.02-.9.03-1.2.03l-.02-1.69Z"/><path class="cls-2" d="M150.58,97.83c-.11.34-.19.67-.25.99-.06.32-.09.64-.09.95,0,.64.33,1.16.98,1.57.65.41,1.67.61,3.03.61.83,0,1.62-.03,2.39-.09.76-.06,1.47-.14,2.13-.25.66-.11,1.23-.23,1.71-.38l.02,1.98c-.47.12-1.02.23-1.66.32-.64.1-1.34.17-2.11.23-.76.05-1.56.08-2.4.08-1.28,0-2.37-.14-3.26-.42-.89-.28-1.56-.69-2.02-1.23-.46-.54-.68-1.2-.68-1.98,0-.49.04-.95.12-1.38.08-.43.16-.81.23-1.16l1.85.16ZM149.5,90.41c.66.08,1.4.14,2.22.18.82.04,1.69.05,2.6.05.59,0,1.18-.01,1.78-.04.6-.02,1.18-.06,1.74-.1.56-.04,1.06-.08,1.5-.12v1.87c-.41.04-.9.07-1.47.11-.57.04-1.16.06-1.77.08-.61.02-1.2.03-1.76.03-.92,0-1.78-.02-2.57-.06-.79-.04-1.55-.09-2.27-.13v-1.87Z"/><path class="cls-2" d="M242.46,93.06c.3.01.59.02.86.02s.57,0,.88-.02c.28-.01.63-.03,1.05-.06.43-.03.88-.07,1.37-.11.49-.04.97-.08,1.45-.13s.93-.08,1.34-.1c.41-.02.75-.04,1-.04.58,0,1.1.09,1.56.28.46.19.83.51,1.1.98s.41,1.12.41,1.96c0,.71-.03,1.47-.1,2.29-.07.82-.17,1.61-.32,2.36-.15.75-.35,1.38-.6,1.88-.29.62-.67,1.04-1.13,1.26-.47.22-1.01.32-1.64.32-.35,0-.72-.03-1.11-.08-.39-.05-.74-.12-1.03-.19l-.31-1.87c.25.07.52.13.79.19s.54.1.79.13.46.04.63.04c.31,0,.59-.06.85-.17s.46-.34.63-.67c.18-.38.33-.87.44-1.46.11-.59.2-1.22.26-1.89.06-.67.09-1.32.09-1.95,0-.53-.07-.92-.22-1.17-.14-.25-.35-.42-.63-.51-.28-.09-.61-.14-.99-.14-.29,0-.68.02-1.18.06-.5.04-1.03.09-1.58.15-.56.06-1.08.12-1.57.17-.49.05-.86.1-1.12.13-.23.02-.52.06-.87.11-.35.05-.66.1-.91.14l-.18-1.94ZM249.3,89.22c-.05.18-.09.38-.13.61-.04.23-.09.44-.14.63-.04.24-.09.54-.16.89-.07.35-.14.72-.21,1.1-.07.38-.14.74-.23,1.09-.12.5-.27,1.09-.45,1.75-.18.66-.39,1.37-.62,2.12s-.5,1.51-.79,2.29c-.29.77-.61,1.53-.96,2.27s-.71,1.42-1.11,2.06l-1.85-.74c.42-.55.81-1.18,1.17-1.87.36-.7.69-1.41.99-2.15.3-.74.57-1.47.81-2.19.24-.72.44-1.39.61-2.01.17-.62.3-1.15.4-1.59.17-.77.3-1.54.4-2.3.1-.77.15-1.49.15-2.16l2.11.22ZM255.49,91.18c.28.37.57.84.89,1.39.32.56.63,1.15.93,1.77.3.62.58,1.23.83,1.81s.45,1.08.59,1.5l-1.78.85c-.13-.48-.31-1.02-.53-1.62-.22-.6-.47-1.21-.76-1.83-.28-.62-.58-1.2-.9-1.75s-.63-1.01-.95-1.39l1.67-.74ZM255.45,88.61c.16.22.32.47.5.77.18.3.35.6.52.9.17.3.31.57.43.81l-1.19.5c-.11-.24-.25-.51-.41-.81-.17-.3-.34-.6-.51-.9s-.34-.56-.51-.79l1.17-.49ZM257.5,87.85c.16.23.33.49.52.79s.38.6.55.89c.17.29.31.55.42.76l-1.17.52c-.19-.38-.42-.81-.69-1.28-.27-.47-.54-.87-.8-1.21l1.17-.49Z"/><path class="cls-2" d="M269.64,89.65l.76.04c.25.01.52.02.81.02.16,0,.4,0,.75-.02.34-.01.73-.03,1.17-.04s.88-.04,1.34-.06c.46-.02.88-.05,1.26-.07.38-.02.68-.05.88-.07.25-.02.47-.05.66-.09s.33-.07.44-.11l1.13,1.29c-.14.1-.34.23-.58.39-.24.16-.43.3-.58.42-.26.22-.56.46-.89.73-.33.27-.67.55-1.03.85-.35.29-.71.59-1.07.88-.36.29-.71.58-1.04.85s-.63.51-.89.71c.86-.1,1.77-.18,2.72-.25.95-.07,1.89-.13,2.82-.17.93-.04,1.8-.06,2.6-.06l.02,1.67c-.88-.05-1.73-.07-2.55-.05-.82.01-1.51.05-2.06.12-.42.06-.82.18-1.21.37-.39.19-.74.42-1.06.71-.32.29-.56.61-.74.96-.17.35-.26.74-.26,1.14,0,.54.13.98.4,1.31.26.34.62.59,1.07.76.45.17.95.29,1.49.38.52.06,1,.09,1.46.08.46,0,.85-.02,1.19-.04l-.38,1.85c-2.24.1-3.97-.2-5.18-.88s-1.82-1.74-1.82-3.17c0-.46.09-.89.27-1.3.18-.41.4-.77.67-1.09.26-.32.53-.58.79-.78-.89.07-1.86.17-2.92.31-1.06.13-2.1.29-3.11.47l-.16-1.71c.49-.06,1.02-.12,1.59-.19s1.08-.12,1.54-.17c.46-.31.95-.67,1.47-1.08.52-.41,1.04-.83,1.57-1.27.52-.44,1-.85,1.45-1.23.44-.38.8-.7,1.08-.95-.14.01-.36.03-.66.04-.29.02-.62.04-.96.05-.35.02-.7.04-1.04.05-.35.02-.66.04-.94.05s-.5.03-.66.04c-.23.01-.47.03-.74.06-.26.03-.52.06-.76.08l-.09-1.84ZM278.82,91.69c.22.31.44.66.68,1.05.23.39.45.78.64,1.16l-1.13.5c-.18-.4-.37-.78-.58-1.15s-.43-.74-.68-1.1l1.08-.47ZM280.76,90.93c.22.28.45.62.7,1.03.25.41.47.79.67,1.15l-1.12.52c-.19-.38-.4-.77-.62-1.15-.22-.38-.46-.74-.71-1.06l1.08-.49Z"/><path class="cls-2" d="M294.64,97.3c0-.47-.12-.88-.35-1.24-.23-.36-.57-.65-1-.85-.43-.21-.94-.32-1.53-.32-.68,0-1.33.05-1.94.16s-1.16.23-1.65.38c-.49.14-.91.26-1.24.36-.26.07-.54.16-.83.27-.29.11-.55.21-.77.31l-.56-2.05c.28-.02.57-.06.89-.12.32-.05.62-.11.89-.17.44-.11.95-.22,1.52-.35s1.19-.24,1.85-.34c.67-.1,1.35-.15,2.04-.15.9,0,1.7.16,2.39.49s1.24.8,1.64,1.42c.4.62.59,1.39.59,2.29,0,.97-.21,1.84-.62,2.61-.41.77-1,1.44-1.75,2.01-.75.57-1.63,1.04-2.66,1.41-1.02.37-2.13.65-3.33.83l-1.03-1.75c1.1-.13,2.11-.34,3.02-.61.91-.28,1.69-.62,2.35-1.04.66-.42,1.17-.92,1.52-1.51.35-.59.53-1.26.53-2.02ZM287.28,88.95c.52.11,1.12.21,1.83.32.7.1,1.43.19,2.19.26s1.47.13,2.14.18c.67.05,1.24.07,1.69.07l-.29,1.75c-.5-.04-1.1-.08-1.78-.13-.68-.05-1.39-.12-2.13-.2s-1.45-.16-2.12-.25c-.68-.09-1.28-.18-1.79-.26l.27-1.73Z"/><rect class="cls-1" width="768" height="160"/></g></svg>