<?xml version="1.0" encoding="UTF-8"?><svg id="_レイヤー_2" xmlns="http://www.w3.org/2000/svg" viewBox="0 0 120 120"><defs><style>.cls-1{fill:#4d4d4d;}.cls-1,.cls-2,.cls-3,.cls-4{stroke-width:0px;}.cls-2{fill:gray;}.cls-3{fill:#fff;}.cls-4{fill:#e3e3e3;}</style></defs><g id="_ガイド"><path class="cls-3" d="M60,119C27.47,119,1,92.53,1,60c0-15.75,6.14-30.57,17.28-41.72C29.43,7.14,44.25,1,60,1c11.13,0,21.95,3.11,31.3,8.99.2.11.35.21.5.31,3.59,2.3,6.93,4.99,9.92,7.98.75.75,1.53,1.57,2.3,2.44,2.06,2.3,3.96,4.79,5.65,7.42.01.02.02.04.04.06,6.08,9.51,9.29,20.51,9.29,31.8,0,15.75-6.14,30.57-17.28,41.72-11.15,11.14-25.97,17.28-41.72,17.28Z"/><path class="cls-4" d="M60,2c10.94,0,21.58,3.05,30.76,8.83.03.02.06.04.1.06.13.07.26.16.41.25,3.52,2.26,6.8,4.89,9.74,7.84.74.74,1.5,1.55,2.27,2.4,2.02,2.25,3.88,4.7,5.53,7.27.02.03.03.06.05.08,5.98,9.35,9.14,20.16,9.14,31.26,0,15.49-6.03,30.05-16.98,41.02-10.96,10.95-25.53,16.98-41.02,16.98-31.98,0-58-26.02-58-58,0-15.49,6.03-30.05,16.98-41.02C29.95,8.03,44.51,2,60,2M60,0c-16.57,0-31.57,6.72-42.43,17.57C6.72,28.43,0,43.43,0,60c0,33.14,26.86,60,60,60,16.57,0,31.57-6.72,42.43-17.57,10.85-10.86,17.57-25.86,17.57-42.43,0-11.91-3.48-23-9.45-32.34,0-.01-.01-.01-.01-.02-1.72-2.69-3.65-5.23-5.77-7.59-.76-.85-1.54-1.68-2.34-2.48-3.05-3.05-6.43-5.77-10.08-8.11-.17-.11-.34-.22-.52-.32C82.61,3.34,71.69,0,60,0h0Z"/><path class="cls-1" d="M34.59,69.3l-4.17,4.17c1.58,1.58,1.27,9.2-.11,10.58l5.23,5.23h0l9.51-9.51-10.47-10.47Z"/><path class="cls-2" d="M45.06,79.76l-9.51,9.51c1.38-1.38,9-1.69,10.58-.11l4.17-4.17-5.23-5.23Z"/><polygon class="cls-1" points="28.34 86.01 33.57 91.25 30.24 94.58 23.22 91.13 28.34 86.01"/><path class="cls-1" d="M104.77,20.05l-57.17,57.17-9.99-9.99c-1.07-1.07-1.07-2.81,0-3.88L91.83,9.14c.18.1.35.21.52.32,3.65,2.34,7.03,5.06,10.08,8.11.8.8,1.58,1.63,2.34,2.48Z"/><path class="cls-2" d="M110.55,27.66l-54.32,54.31c-1.07,1.07-2.8,1.07-3.87,0l-4.76-4.75,57.17-57.17c2.12,2.36,4.05,4.9,5.77,7.59,0,0,.01,0,.01.02Z"/></g></svg>