<?xml version="1.0" encoding="UTF-8"?><svg id="_レイヤー_2" xmlns="http://www.w3.org/2000/svg" viewBox="0 0 120 120"><defs><style>.cls-1{fill:none;stroke:#4d4d4d;stroke-linecap:round;stroke-linejoin:round;stroke-width:8px;}.cls-2{fill:#fff;}.cls-2,.cls-3{stroke-width:0px;}.cls-3{fill:#e3e3e3;}</style></defs><g id="_ガイド"><path class="cls-2" d="M60,119C27.47,119,1,92.53,1,60c0-15.75,6.14-30.57,17.28-41.72C29.43,7.14,44.25,1,60,1c11.33,0,22.33,3.22,31.81,9.3,3.58,2.3,6.92,4.98,9.91,7.98,3.01,3.01,5.69,6.34,7.98,9.9,6.08,9.5,9.3,20.51,9.3,31.82,0,15.75-6.14,30.57-17.28,41.72-11.15,11.14-25.97,17.28-41.72,17.28Z"/><path class="cls-3" d="M60,2c11.14,0,21.95,3.16,31.27,9.14,3.52,2.26,6.8,4.89,9.75,7.84,2.96,2.96,5.6,6.23,7.84,9.73,5.98,9.34,9.14,20.16,9.14,31.28,0,15.49-6.03,30.05-16.98,41.02-10.96,10.95-25.53,16.98-41.02,16.98-31.98,0-58-26.02-58-58,0-15.49,6.03-30.05,16.98-41.02C29.95,8.03,44.51,2,60,2M60,0c-16.57,0-31.57,6.72-42.43,17.57C6.72,28.43,0,43.43,0,60c0,33.14,26.86,60,60,60,16.57,0,31.57-6.72,42.43-17.57,10.85-10.86,17.57-25.86,17.57-42.43,0-11.92-3.48-23.02-9.46-32.36-2.34-3.65-5.06-7.02-8.11-10.07-3.05-3.05-6.43-5.77-10.08-8.11C83.02,3.47,71.91,0,60,0h0Z"/><line class="cls-1" x1="92" y1="28" x2="28" y2="92"/></g></svg>