<?xml version="1.0" encoding="UTF-8"?><svg id="_レイヤー_2" xmlns="http://www.w3.org/2000/svg" viewBox="0 0 120 72"><defs><style>.cls-1{fill:none;}.cls-1,.cls-2{stroke-width:0px;}.cls-2{fill:#4577ff;}</style></defs><g id="_2"><rect class="cls-1" x="24" y="-24" width="72" height="120" rx="20" ry="20" transform="translate(96 -24) rotate(90)"/><path class="cls-2" d="M79.21,16.89h-10.64v-6.21c0-1.28-1.04-2.31-2.31-2.31h-12.5c-1.28,0-2.31,1.04-2.31,2.31v6.21h-10.64c-1.28,0-2.31,1.04-2.31,2.31v10.93c0,1.28,1.04,2.31,2.31,2.31h2.19l2.54,29.08c.1,1.2,1.11,2.11,2.31,2.11h24.33c1.2,0,2.2-.92,2.31-2.11l2.54-29.08h2.19c1.28,0,2.31-1.04,2.31-2.31v-10.93c0-1.28-1.04-2.31-2.31-2.31ZM56.06,12.99h7.87v3.9h-7.87v-3.9ZM43.11,21.52h33.78v6.3h-33.78v-6.3ZM61.72,32.45v26.57h-3.43v-26.57h3.43ZM47.63,32.45h6.02v26.57h-3.7l-2.32-26.57ZM70.05,59.01h-3.7v-26.57h6.02l-2.32,26.57Z"/></g></svg>