<?xml version="1.0" encoding="UTF-8"?><svg id="_レイヤー_2" xmlns="http://www.w3.org/2000/svg" viewBox="0 0 120 72"><defs><style>.cls-1{fill:#4577ff;}.cls-1,.cls-2{stroke-width:0px;}.cls-2{fill:#fff;}</style></defs><g id="_2"><path class="cls-1" d="M101.88,40.73c-.37,0-.74-.14-1.02-.42l-6.18-6.18-6.18,6.18c-.56.56-1.47.56-2.04,0-.56-.56-.56-1.47,0-2.04l7.2-7.2c.56-.56,1.47-.56,2.04,0l7.2,7.2c.56.56.56,1.47,0,2.04-.28.28-.65.42-1.02.42Z"/><rect class="cls-1" x="24" y="-24" width="72" height="120" rx="20" ry="20" transform="translate(96 -24) rotate(90)"/><path class="cls-2" d="M78.31,31.02c-1.11-1.63-2.66-2.92-4.64-3.86-.62-.29-1.28-.52-1.96-.72.05-.13.09-.25.14-.39.13-.37.25-.73.38-1.1.13-.37.23-.66.32-.89l-4.14-1.01c-.03.25-.07.57-.13.95-.06.38-.12.75-.19,1.1-.05.27-.11.5-.18.71-.41-.02-.81-.06-1.24-.06-1.46,0-3,.15-4.62.46-.73.14-1.42.3-2.11.48.02-.36.03-.71.06-1.07.09-1.23.2-2.4.32-3.55,1.59-.08,3.2-.17,4.83-.3,1.86-.14,3.66-.32,5.4-.53s3.36-.44,4.86-.7l-.04-3.93c-2.03.48-4.14.86-6.35,1.14-2.21.28-4.51.49-6.9.61-.43.02-.89.03-1.33.05.15-1.03.31-1.96.48-2.77.06-.31.13-.65.23-1.01.1-.37.19-.7.27-1.01l-4.35-.13c0,.28,0,.63-.02,1.05-.01.42-.05.82-.11,1.18-.07.83-.17,1.78-.29,2.8-.77.01-1.54.03-2.32.03-.7,0-1.53-.03-2.49-.08-.96-.06-1.88-.13-2.77-.21s-1.58-.17-2.09-.25l.13,3.93c.62.03,1.36.06,2.22.11.86.04,1.72.08,2.6.13s1.63.06,2.28.06,1.35-.01,2.05-.03c-.03.31-.06.61-.09.93-.13,1.42-.23,2.88-.32,4.37,0,.17,0,.32-.01.48-1.12.53-2.2,1.15-3.24,1.88-1.43,1.01-2.69,2.17-3.78,3.46-1.08,1.29-1.94,2.66-2.55,4.09-.62,1.44-.93,2.89-.93,4.35,0,1.3.24,2.36.72,3.21s1.13,1.46,1.94,1.86c.82.4,1.7.59,2.66.59,1.63,0,3.29-.37,4.96-1.1.67-.29,1.3-.63,1.92-.98.2.76.42,1.47.63,2.12l3.84-1.14c-.35-1.06-.67-2.19-.99-3.36,1.13-.94,2.24-2.05,3.33-3.34,1.36-1.62,2.63-3.49,3.8-5.61.74-1.35,1.41-2.81,2.01-4.35.39.13.76.28,1.12.45,1.39.68,2.45,1.56,3.17,2.64.72,1.08,1.08,2.29,1.08,3.61,0,1.6-.46,3.1-1.37,4.47-.92,1.38-2.26,2.53-4.03,3.46-1.77.93-3.97,1.53-6.59,1.82l2.28,3.5c2.5-.39,4.64-1.01,6.39-1.86s3.19-1.85,4.29-3.02c1.1-1.17,1.89-2.45,2.39-3.84.49-1.39.74-2.85.74-4.37,0-2.05-.56-3.9-1.67-5.53ZM55.41,42.46c-1.32.62-2.49.93-3.5.93-.73,0-1.29-.2-1.67-.59-.38-.39-.57-.98-.57-1.77,0-1.15.35-2.36,1.05-3.63.7-1.27,1.66-2.46,2.87-3.57.77-.7,1.6-1.31,2.49-1.84,0,1.87.11,3.75.33,5.62.16,1.37.38,2.67.62,3.93-.54.35-1.09.67-1.63.93ZM64.25,34.1c-1.2,1.74-2.47,3.27-3.81,4.61-.1-.57-.2-1.14-.28-1.74-.24-1.77-.36-3.66-.36-5.66,0-.33.01-.67.02-1,.53-.18,1.09-.36,1.69-.54,1.51-.44,3.17-.66,5-.66.1,0,.19.01.29.01-.73,1.86-1.57,3.54-2.55,4.97Z"/><path class="cls-2" d="M41.27,36.93c-.7-1.03-1.67-1.83-2.92-2.43-.39-.18-.8-.33-1.23-.46.03-.08.06-.16.09-.25.08-.23.16-.46.24-.69.08-.23.15-.42.2-.56l-2.6-.64c-.02.16-.04.36-.08.6-.04.24-.08.47-.12.69-.03.17-.07.31-.11.45-.26-.02-.51-.04-.78-.04-.92,0-1.89.1-2.91.29-.46.09-.89.19-1.32.3.01-.23.02-.45.04-.67.06-.77.13-1.51.2-2.23,1-.05,2.01-.11,3.03-.19,1.17-.09,2.3-.2,3.4-.33s2.11-.28,3.05-.44l-.03-2.47c-1.27.3-2.61.54-3.99.72-1.39.18-2.84.31-4.34.38-.27.01-.56.02-.83.03.1-.65.2-1.23.3-1.74.04-.2.08-.41.15-.64.06-.23.12-.44.17-.64l-2.73-.08c0,.18,0,.4-.01.66,0,.27-.03.51-.07.74-.04.52-.11,1.12-.18,1.76-.49,0-.97.02-1.46.02-.44,0-.96-.02-1.57-.05-.6-.04-1.18-.08-1.74-.13s-.99-.11-1.31-.16l.08,2.47c.39.02.85.04,1.39.07.54.03,1.08.05,1.63.08s1.03.04,1.43.04.85,0,1.29-.02c-.02.2-.04.39-.06.59-.08.89-.15,1.81-.2,2.75,0,.1,0,.2,0,.3-.71.33-1.38.72-2.03,1.18-.9.64-1.69,1.36-2.37,2.18-.68.81-1.22,1.67-1.61,2.57-.39.9-.58,1.81-.58,2.73,0,.81.15,1.49.45,2.02s.71.92,1.22,1.17c.51.25,1.07.37,1.67.37,1.03,0,2.07-.23,3.12-.69.42-.19.82-.4,1.21-.61.13.48.26.92.4,1.33l2.42-.72c-.22-.67-.42-1.38-.62-2.11.71-.59,1.41-1.29,2.09-2.1.86-1.02,1.65-2.19,2.39-3.53.47-.85.88-1.77,1.26-2.74.25.08.48.17.7.28.88.42,1.54.98,1.99,1.66.45.68.68,1.44.68,2.27,0,1.01-.29,1.95-.86,2.81-.58.87-1.42,1.59-2.53,2.18-1.12.58-2.5.96-4.14,1.14l1.43,2.2c1.57-.25,2.91-.64,4.02-1.17s2-1.16,2.69-1.9c.69-.73,1.19-1.54,1.5-2.41.31-.88.46-1.79.46-2.75,0-1.29-.35-2.45-1.05-3.48ZM26.87,44.12c-.83.39-1.57.58-2.2.58-.46,0-.81-.12-1.05-.37-.24-.25-.36-.62-.36-1.11,0-.73.22-1.49.66-2.28.44-.8,1.04-1.54,1.8-2.24.48-.44,1.01-.82,1.57-1.16,0,1.18.07,2.35.21,3.53.1.86.24,1.68.39,2.47-.34.22-.68.42-1.03.58ZM32.43,38.86c-.75,1.1-1.55,2.06-2.4,2.9-.06-.36-.13-.72-.18-1.09-.15-1.11-.23-2.3-.23-3.56,0-.21,0-.42.01-.63.33-.11.68-.23,1.06-.34.95-.27,1.99-.41,3.14-.41.06,0,.12,0,.18,0-.46,1.17-.98,2.22-1.6,3.12Z"/><path class="cls-2" d="M101.88,40.73c-.37,0-.74-.14-1.02-.42l-6.18-6.18-6.18,6.18c-.56.56-1.47.56-2.04,0-.56-.56-.56-1.47,0-2.04l7.2-7.2c.56-.56,1.47-.56,2.04,0l7.2,7.2c.56.56.56,1.47,0,2.04-.28.28-.65.42-1.02.42Z"/><polygon class="cls-2" points="70.61 58.01 64.03 53.22 64.03 56.09 35.31 56.09 35.31 53.22 28.72 58.01 35.31 62.8 35.31 59.93 64.03 59.93 64.03 62.8 70.61 58.01"/></g></svg>