<?xml version="1.0" encoding="UTF-8"?><svg id="_レイヤー_2" xmlns="http://www.w3.org/2000/svg" viewBox="0 0 120 72"><defs><style>.cls-1{fill:#4577ff;}.cls-1,.cls-2{stroke-width:0px;}.cls-2{fill:#fff;}</style></defs><g id="_2"><rect class="cls-1" x="24" y="-24" width="72" height="120" rx="20" ry="20" transform="translate(96 -24) rotate(90)"/><path class="cls-2" d="M102.45,40.52c-.37,0-.74-.14-1.02-.42l-6.18-6.18-6.18,6.18c-.56.56-1.47.56-2.04,0-.56-.56-.56-1.47,0-2.04l7.2-7.2c.56-.56,1.47-.56,2.04,0l7.2,7.2c.56.56.56,1.47,0,2.04-.28.28-.65.42-1.02.42Z"/><path class="cls-2" d="M41.25,58.36c-3,0-5.82-1.17-7.94-3.29-4.14-4.14-4.43-10.64-.69-15.13.76-.92,2.13-1.04,3.04-.27.92.76,1.04,2.13.27,3.04-2.3,2.76-2.12,6.76.43,9.31,2.69,2.7,7.08,2.7,9.78,0l7.63-7.63c2.7-2.7,2.7-7.08,0-9.78s-7.08-2.7-9.78,0c-.84.84-2.21.84-3.06,0-.84-.84-.84-2.21,0-3.05,2.12-2.12,4.94-3.29,7.94-3.29s5.82,1.17,7.94,3.29c4.38,4.38,4.38,11.51,0,15.88l-7.63,7.63c-2.12,2.12-4.94,3.29-7.94,3.29Z"/><path class="cls-2" d="M44.85,42.7c-3,0-5.82-1.17-7.94-3.29-2.12-2.12-3.29-4.94-3.29-7.94s1.17-5.82,3.29-7.94l7.63-7.63c2.12-2.12,4.94-3.29,7.94-3.29s5.82,1.17,7.94,3.29c4.14,4.14,4.43,10.64.69,15.13-.76.92-2.13,1.04-3.04.27-.92-.76-1.04-2.13-.27-3.04,2.3-2.76,2.12-6.76-.43-9.31-1.31-1.31-3.04-2.02-4.89-2.02s-3.58.72-4.89,2.02l-7.63,7.63c-1.31,1.31-2.02,3.04-2.02,4.89s.72,3.58,2.02,4.89,3.04,2.02,4.89,2.02,3.58-.72,4.89-2.02c.84-.84,2.21-.84,3.05,0,.84.84.84,2.21,0,3.05-2.12,2.12-4.94,3.29-7.94,3.29Z"/></g></svg>