<?xml version="1.0" encoding="UTF-8"?><svg id="_レイヤー_2" xmlns="http://www.w3.org/2000/svg" viewBox="0 0 120 72"><defs><style>.cls-1{fill:none;}.cls-1,.cls-2{stroke-width:0px;}.cls-2{fill:#4577ff;}</style></defs><g id="_2"><rect class="cls-1" x="24" y="-24" width="72" height="120" rx="20" ry="20" transform="translate(96 -24) rotate(90)"/><path class="cls-2" d="M77.49,48.89v-3.04h5.18v-15.74h-4.22v-2.34c1.11-.21,2.08-.46,2.9-.75.82-.29,1.57-.63,2.26-1.04h2.78v19.87h4.58v3.04h-13.47Z"/><path class="cls-2" d="M99.18,33.79c-.85,0-1.64-.2-2.37-.59-.73-.39-1.3-.95-1.73-1.66-.43-.71-.64-1.55-.64-2.51s.21-1.8.64-2.51c.43-.71,1-1.27,1.73-1.68.73-.41,1.51-.61,2.37-.61s1.64.2,2.35.61c.71.41,1.29.97,1.71,1.68.43.72.64,1.55.64,2.51s-.21,1.8-.64,2.51c-.43.72-1,1.27-1.71,1.66-.71.4-1.5.59-2.35.59ZM99.18,31.87c.77,0,1.4-.27,1.89-.8.49-.53.74-1.22.74-2.05s-.25-1.55-.74-2.08c-.49-.53-1.12-.8-1.89-.8s-1.4.27-1.89.8c-.49.53-.74,1.23-.74,2.08s.25,1.52.74,2.05c.49.53,1.12.8,1.89.8Z"/><path class="cls-2" d="M60.95,56.34l-11.28-22.37c2.94-1.95,4.88-5.28,4.88-9.06,0-5.13-3.58-9.43-8.37-10.57v-2.43c0-1.38-1.12-2.5-2.5-2.5s-2.5,1.12-2.5,2.5v2.43c-4.79,1.13-8.37,5.44-8.37,10.57,0,3.78,1.94,7.12,4.88,9.06l-11.28,22.37c-.62,1.23-.13,2.74,1.11,3.36.36.18.75.27,1.12.27.91,0,1.79-.5,2.23-1.38l11.54-22.89c.41.05.83.08,1.26.08s.85-.03,1.26-.08l11.54,22.89c.44.87,1.32,1.38,2.23,1.38.38,0,.76-.09,1.12-.27,1.23-.62,1.73-2.12,1.11-3.36ZM37.81,24.91c0-3.24,2.63-5.87,5.87-5.87s5.87,2.63,5.87,5.87-2.63,5.87-5.87,5.87-5.87-2.63-5.87-5.87Z"/></g></svg>