<?xml version="1.0" encoding="UTF-8"?><svg id="_レイヤー_2" xmlns="http://www.w3.org/2000/svg" viewBox="0 0 40 40"><defs><style>.cls-1{fill:#4577ff;stroke-width:0px;}</style></defs><g id="_2"><path class="cls-1" d="M23.53,19.54l5.3-5.3c.98-.98.98-2.56,0-3.54-.98-.98-2.56-.98-3.54,0l-5.3,5.3-5.3-5.3c-.98-.98-2.56-.98-3.54,0-.98.98-.98,2.56,0,3.54l5.3,5.3-5.3,5.3c-.98.98-.98,2.56,0,3.54.49.49,1.13.73,1.77.73s1.28-.24,1.77-.73l5.3-5.3,5.3,5.3c.49.49,1.13.73,1.77.73s1.28-.24,1.77-.73c.98-.98.98-2.56,0-3.54l-5.3-5.3Z"/><path class="cls-1" d="M20,2c9.93,0,18,8.07,18,18s-8.07,18-18,18S2,29.93,2,20,10.07,2,20,2M20,0C8.95,0,0,8.95,0,20s8.95,20,20,20,20-8.95,20-20S31.05,0,20,0h0Z"/></g></svg>