<?xml version="1.0" encoding="UTF-8"?><svg id="_レイヤー_2" xmlns="http://www.w3.org/2000/svg" viewBox="0 0 120 72"><defs><style>.cls-1{fill:none;}.cls-1,.cls-2{stroke-width:0px;}.cls-2{fill:#4577ff;}</style></defs><g id="_2"><path class="cls-2" d="M101.88,40.73c-.37,0-.74-.14-1.02-.42l-6.18-6.18-6.18,6.18c-.56.56-1.47.56-2.04,0-.56-.56-.56-1.47,0-2.04l7.2-7.2c.56-.56,1.47-.56,2.04,0l7.2,7.2c.56.56.56,1.47,0,2.04-.28.28-.65.42-1.02.42Z"/><rect class="cls-1" x="24" y="-24" width="72" height="120" rx="20" ry="20" transform="translate(96 -24) rotate(90)"/><path class="cls-2" d="M70.91,25.92c-1.05-1.55-2.52-2.77-4.4-3.66-.58-.28-1.21-.5-1.86-.69.04-.12.09-.24.14-.37.12-.35.24-.69.36-1.04.12-.35.22-.63.3-.84l-3.92-.96c-.03.24-.07.54-.12.9-.05.36-.11.71-.18,1.04-.05.25-.11.47-.17.67-.39-.02-.77-.05-1.18-.05-1.39,0-2.85.15-4.39.44-.69.13-1.35.29-2,.46.02-.34.03-.68.06-1.02.08-1.17.19-2.28.31-3.36,1.51-.08,3.03-.16,4.58-.28,1.76-.13,3.47-.3,5.12-.5s3.19-.42,4.61-.66l-.04-3.72c-1.92.46-3.93.81-6.03,1.08-2.1.27-4.28.46-6.55.58-.41.02-.84.03-1.26.05.15-.97.3-1.86.46-2.63.05-.29.13-.61.22-.96.09-.35.18-.67.26-.96l-4.12-.12c0,.27,0,.6-.02,1-.01.4-.05.77-.1,1.12-.07.78-.16,1.68-.28,2.66-.73.01-1.46.03-2.2.03-.67,0-1.46-.03-2.36-.08-.91-.05-1.78-.12-2.62-.2s-1.5-.16-1.98-.24l.12,3.72c.59.03,1.29.06,2.1.1.81.04,1.63.08,2.46.12s1.55.06,2.16.06,1.28-.01,1.95-.02c-.03.3-.06.58-.09.89-.12,1.35-.22,2.73-.3,4.14,0,.16,0,.3-.01.46-1.06.5-2.09,1.09-3.07,1.78-1.36.96-2.56,2.06-3.58,3.28-1.03,1.23-1.84,2.52-2.42,3.88-.59,1.36-.88,2.74-.88,4.12,0,1.23.23,2.24.68,3.04.45.8,1.07,1.39,1.84,1.76.77.37,1.62.56,2.52.56,1.55,0,3.12-.35,4.71-1.04.64-.28,1.23-.6,1.82-.93.19.72.39,1.39.6,2.01l3.64-1.08c-.33-1.01-.64-2.08-.94-3.18,1.07-.89,2.13-1.94,3.16-3.16,1.29-1.53,2.5-3.31,3.6-5.33.7-1.28,1.33-2.67,1.9-4.13.37.12.72.26,1.06.42,1.32.64,2.32,1.48,3,2.5.68,1.03,1.02,2.17,1.02,3.42,0,1.52-.43,2.94-1.3,4.24-.87,1.31-2.14,2.4-3.82,3.28-1.68.88-3.76,1.46-6.25,1.72l2.16,3.32c2.38-.37,4.4-.96,6.07-1.76,1.67-.8,3.02-1.76,4.06-2.86,1.04-1.11,1.8-2.32,2.26-3.64.47-1.32.7-2.7.7-4.14,0-1.95-.53-3.7-1.58-5.25ZM49.19,36.77c-1.25.59-2.36.88-3.32.88-.7,0-1.22-.19-1.58-.56-.36-.37-.54-.93-.54-1.68,0-1.09.33-2.24,1-3.44.67-1.2,1.58-2.33,2.72-3.38.73-.67,1.52-1.24,2.37-1.75,0,1.78.11,3.55.32,5.33.15,1.3.36,2.53.59,3.73-.52.34-1.03.64-1.55.88ZM57.57,28.84c-1.13,1.65-2.34,3.1-3.62,4.37-.09-.54-.19-1.08-.27-1.65-.23-1.68-.34-3.47-.34-5.37,0-.31.01-.64.02-.95.5-.17,1.03-.34,1.6-.51,1.43-.41,3.01-.62,4.74-.62.1,0,.18.01.27.01-.69,1.77-1.48,3.35-2.42,4.71Z"/><path class="cls-2" d="M43.84,62.11c-10.98,0-19.92-8.94-19.92-19.92,0-8.25,5.19-15.74,12.9-18.65,1.16-.44,2.46.15,2.9,1.31.44,1.16-.15,2.46-1.31,2.9-5.97,2.25-9.99,8.05-9.99,14.44,0,8.5,6.92,15.42,15.42,15.42,6.16,0,11.71-3.65,14.16-9.3.49-1.14,1.82-1.66,2.96-1.17,1.14.49,1.67,1.82,1.17,2.96-3.16,7.3-10.34,12.02-18.29,12.02Z"/></g></svg>