<?xml version="1.0" encoding="UTF-8"?><svg id="_レイヤー_2" xmlns="http://www.w3.org/2000/svg" viewBox="0 0 120 72"><defs><style>.cls-1{fill:#4577ff;}.cls-1,.cls-2{stroke-width:0px;}.cls-2{fill:#fff;}</style></defs><g id="_2"><rect class="cls-1" x="24" y="-24" width="72" height="120" rx="20" ry="20" transform="translate(96 -24) rotate(90)"/><path class="cls-2" d="M76.41,26.42h-24.62v-5.47c0-2.28.8-4.22,2.39-5.81,1.6-1.6,3.53-2.39,5.81-2.39s4.22.8,5.81,2.39c.5.5.92,1.03,1.26,1.6.71,1.18,2.21,1.61,3.46,1.03h0c1.49-.69,2.05-2.53,1.19-3.93-.56-.91-1.24-1.76-2.04-2.56-2.67-2.67-5.89-4-9.68-4s-7.01,1.33-9.68,4c-2.67,2.67-4,5.89-4,9.68v5.47h-2.74c-1.5,0-2.79.54-3.86,1.61-1.07,1.07-1.61,2.36-1.61,3.86v27.36c0,1.5.54,2.79,1.61,3.86,1.07,1.07,2.36,1.61,3.86,1.61h32.83c1.5,0,2.79-.54,3.86-1.61,1.07-1.07,1.61-2.36,1.61-3.86v-27.36c0-1.5-.54-2.79-1.61-3.86-1.07-1.07-2.36-1.61-3.86-1.61ZM76.41,59.25h-32.83v-27.36h32.83v27.36Z"/><path class="cls-2" d="M60,51.05c1.5,0,2.79-.54,3.86-1.61,1.07-1.07,1.61-2.36,1.61-3.86s-.54-2.79-1.61-3.86c-1.07-1.07-2.36-1.61-3.86-1.61s-2.79.54-3.86,1.61c-1.07,1.07-1.61,2.36-1.61,3.86s.54,2.79,1.61,3.86c1.07,1.07,2.36,1.61,3.86,1.61Z"/></g></svg>