<?xml version="1.0" encoding="UTF-8"?><svg id="_レイヤー_2" xmlns="http://www.w3.org/2000/svg" viewBox="0 0 120 72"><defs><style>.cls-1{fill:#4577ff;}.cls-1,.cls-2{stroke-width:0px;}.cls-2{fill:#fff;}</style></defs><g id="_2"><rect class="cls-1" x="24" y="-24" width="72" height="120" rx="20" ry="20" transform="translate(96 -24) rotate(90)"/><path class="cls-2" d="M67.96,31.12H23.49c-2.39,0-4.32-1.93-4.32-4.32s1.93-4.32,4.32-4.32h44.47c2.39,0,4.32,1.93,4.32,4.32s-1.93,4.32-4.32,4.32Z"/><path class="cls-2" d="M69.4,43.7H22.05c-1.59,0-2.88-1.29-2.88-2.88s1.29-2.88,2.88-2.88h47.35c1.59,0,2.88,1.29,2.88,2.88s-1.29,2.88-2.88,2.88Z"/><path class="cls-2" d="M70.78,52.72H20.8c-.8,0-1.44-.64-1.44-1.44s.64-1.44,1.44-1.44h49.98c.8,0,1.44.64,1.44,1.44s-.64,1.44-1.44,1.44Z"/><path class="cls-2" d="M101.88,40.73c-.37,0-.74-.14-1.02-.42l-6.18-6.18-6.18,6.18c-.56.56-1.47.56-2.04,0-.56-.56-.56-1.47,0-2.04l7.2-7.2c.56-.56,1.47-.56,2.04,0l7.2,7.2c.56.56.56,1.47,0,2.04-.28.28-.65.42-1.02.42Z"/></g></svg>