<?xml version="1.0" encoding="UTF-8"?><svg id="_レイヤー_2" xmlns="http://www.w3.org/2000/svg" viewBox="0 0 54 60"><defs><style>.cls-1{fill:none;}.cls-1,.cls-2,.cls-3{stroke-width:0px;}.cls-2{fill:#4577ff;}.cls-3{fill:#fff;}</style></defs><g id="_2"><rect class="cls-1" width="54" height="60" rx="12" ry="12"/><path class="cls-3" d="M35.93,21.08v10.89h-5.45c-.84,0-1.5.67-1.5,1.5v5.44h-10.91v-10.89h5.45c.84,0,1.5-.67,1.5-1.5v-5.44h10.91Z"/><path class="cls-2" d="M44.37,31.97h-5.44v-12.39c0-.82-.68-1.5-1.5-1.5h-12.41v-5.44c0-.82-.66-1.5-1.5-1.5h-13.89c-.82,0-1.5.68-1.5,1.5v13.89c0,.83.68,1.5,1.5,1.5h5.44v12.39c0,.82.68,1.5,1.5,1.5h12.41v5.44c0,.83.66,1.5,1.5,1.5h13.89c.82,0,1.5-.67,1.5-1.5v-13.89c0-.83-.68-1.5-1.5-1.5ZM18.07,28.03h5.45c.84,0,1.5-.67,1.5-1.5v-5.44h10.91v10.89h-5.45c-.84,0-1.5.67-1.5,1.5v5.44h-10.91v-10.89Z"/></g></svg>