<?xml version="1.0" encoding="UTF-8"?><svg id="_レイヤー_2" xmlns="http://www.w3.org/2000/svg" viewBox="0 0 120 72"><defs><style>.cls-1{fill:none;}.cls-1,.cls-2{stroke-width:0px;}.cls-2{fill:#4577ff;}</style></defs><g id="_2"><rect class="cls-1" x="24" y="-24" width="72" height="120" rx="20" ry="20" transform="translate(96 -24) rotate(90)"/><path class="cls-2" d="M101.83,40.57c-.37,0-.74-.14-1.02-.42l-6.18-6.18-6.18,6.18c-.56.56-1.47.56-2.04,0-.56-.56-.56-1.47,0-2.04l7.2-7.2c.56-.56,1.47-.56,2.04,0l7.2,7.2c.56.56.56,1.47,0,2.04-.28.28-.65.42-1.02.42Z"/><path class="cls-2" d="M55.83,44.62c-1.26-.26-2.48.55-2.73,1.8-1.45,7.1-7.78,12.26-15.04,12.26-8.47,0-15.35-6.89-15.35-15.35,0-7.74,5.78-14.29,13.45-15.24,1.27-.16,2.17-1.31,2.01-2.58-.16-1.27-1.31-2.17-2.58-2.01-9.99,1.23-17.51,9.76-17.51,19.83,0,11.02,8.96,19.98,19.98,19.98,9.45,0,17.68-6.71,19.58-15.96.26-1.25-.55-2.48-1.8-2.73Z"/><path class="cls-2" d="M72.58,18.6l-9.23-9.23c-.9-.9-2.37-.9-3.27,0l-22.03,22.03s-.02.02-.02.03c-.03.03-.05.06-.07.09-.1.11-.18.23-.26.36-.03.05-.05.1-.08.15-.07.13-.12.27-.16.42,0,.03-.02.05-.03.08l-2.74,11.97c-.18.78.06,1.59.62,2.15.44.44,1.03.68,1.64.68.17,0,.34-.02.52-.06l11.97-2.74s.05-.02.07-.03c.15-.04.29-.09.43-.16.05-.02.09-.05.14-.07.13-.07.25-.16.36-.26.03-.03.06-.05.09-.07,0,0,.02-.01.03-.02l22.03-22.03c.43-.43.68-1.02.68-1.64s-.24-1.2-.68-1.64ZM41.01,37.63l3.31,3.31-4.3.98.98-4.3ZM48.92,38.99l-5.96-5.96,18.75-18.75,5.96,5.96-18.75,18.75Z"/></g></svg>