<?xml version="1.0" encoding="UTF-8"?><svg id="_レイヤー_2" xmlns="http://www.w3.org/2000/svg" viewBox="0 0 120 72"><defs><style>.cls-1{fill:none;}.cls-1,.cls-2{stroke-width:0px;}.cls-2{fill:#4577ff;}</style></defs><g id="_2"><rect class="cls-1" x="24" y="-24" width="72" height="120" rx="20" ry="20" transform="translate(96 -24) rotate(90)"/><path class="cls-2" d="M74,60.5h-36c-1.38,0-2.5-1.12-2.5-2.5V22c0-1.38,1.12-2.5,2.5-2.5h36c1.38,0,2.5,1.12,2.5,2.5v36c0,1.38-1.12,2.5-2.5,2.5ZM40.5,55.5h31v-31h-31v31Z"/><path class="cls-2" d="M82,44.5c-1.38,0-2.5-1.12-2.5-2.5v-25.5h-25.5c-1.38,0-2.5-1.12-2.5-2.5s1.12-2.5,2.5-2.5h28c1.38,0,2.5,1.12,2.5,2.5v28c0,1.38-1.12,2.5-2.5,2.5Z"/><path class="cls-2" d="M66.29,42.5h-20.57c-1.38,0-2.5-1.12-2.5-2.5s1.12-2.5,2.5-2.5h20.57c1.38,0,2.5,1.12,2.5,2.5s-1.12,2.5-2.5,2.5Z"/><path class="cls-2" d="M56,52.79c-1.38,0-2.5-1.12-2.5-2.5v-20.57c0-1.38,1.12-2.5,2.5-2.5s2.5,1.12,2.5,2.5v20.57c0,1.38-1.12,2.5-2.5,2.5Z"/></g></svg>