<?xml version="1.0" encoding="UTF-8"?><svg id="_レイヤー_2" xmlns="http://www.w3.org/2000/svg" viewBox="0 0 120 72"><defs><style>.cls-1{fill:#4577ff;}.cls-1,.cls-2{stroke-width:0px;}.cls-2{fill:#fff;}</style></defs><g id="_2"><rect class="cls-1" x="24" y="-24" width="72" height="120" rx="20" ry="20" transform="translate(96 -24) rotate(90)"/><path class="cls-2" d="M101.88,40.73c-.37,0-.74-.14-1.02-.42l-6.18-6.18-6.18,6.18c-.56.56-1.47.56-2.04,0-.56-.56-.56-1.47,0-2.04l7.2-7.2c.56-.56,1.47-.56,2.04,0l7.2,7.2c.56.56.56,1.47,0,2.04-.28.28-.65.42-1.02.42Z"/><path class="cls-2" d="M68.21,35.33c-1.36-1.99-3.25-3.56-5.67-4.72-.75-.36-1.56-.64-2.39-.89.06-.15.12-.31.18-.48.15-.45.31-.89.46-1.34.15-.45.28-.81.39-1.08l-5.05-1.24c-.03.31-.09.7-.15,1.16-.07.46-.15.91-.23,1.34-.07.33-.14.61-.21.87-.5-.03-.99-.07-1.51-.07-1.79,0-3.67.19-5.65.57-.89.17-1.74.37-2.57.59.03-.44.04-.87.07-1.31.11-1.5.25-2.93.4-4.33,1.95-.1,3.91-.21,5.89-.36,2.27-.17,4.47-.39,6.6-.64s4.11-.54,5.93-.85l-.05-4.8c-2.48.59-5.06,1.05-7.76,1.39-2.7.34-5.51.59-8.43.75-.53.03-1.08.04-1.62.06.19-1.26.38-2.39.59-3.39.07-.38.16-.79.28-1.24.12-.45.23-.86.34-1.24l-5.31-.15c0,.34,0,.77-.03,1.29-.02.52-.06,1-.13,1.44-.09,1.01-.21,2.17-.36,3.42-.94.01-1.88.04-2.84.04-.86,0-1.87-.03-3.04-.1-1.17-.07-2.29-.16-3.38-.26-1.08-.1-1.93-.21-2.55-.31l.16,4.79c.76.03,1.66.08,2.71.13,1.05.05,2.1.1,3.17.15,1.07.05,1.99.08,2.78.08s1.65-.01,2.51-.03c-.04.38-.08.75-.11,1.14-.15,1.74-.28,3.51-.39,5.34-.01.2,0,.39-.02.59-1.37.64-2.69,1.4-3.95,2.3-1.75,1.24-3.29,2.65-4.61,4.23-1.32,1.58-2.36,3.25-3.12,5-.76,1.75-1.13,3.52-1.13,5.31,0,1.58.29,2.89.88,3.92s1.37,1.79,2.37,2.27c1,.48,2.08.72,3.25.72,1.99,0,4.01-.45,6.06-1.34.82-.36,1.59-.77,2.35-1.19.25.93.51,1.79.77,2.58l4.69-1.39c-.42-1.3-.82-2.68-1.2-4.1,1.38-1.15,2.74-2.5,4.07-4.07,1.67-1.98,3.21-4.26,4.64-6.86.91-1.65,1.72-3.43,2.45-5.31.48.16.93.34,1.36.54,1.7.83,2.99,1.9,3.87,3.22.88,1.32,1.31,2.79,1.31,4.41,0,1.96-.56,3.78-1.68,5.46-1.12,1.69-2.76,3.09-4.92,4.23-2.17,1.13-4.85,1.87-8.04,2.22l2.78,4.28c3.06-.48,5.66-1.24,7.81-2.27s3.89-2.26,5.23-3.69c1.34-1.43,2.31-2.99,2.91-4.69.6-1.7.9-3.48.9-5.34,0-2.51-.68-4.76-2.04-6.75ZM40.24,49.3c-1.62.76-3.04,1.13-4.28,1.13-.9,0-1.57-.24-2.04-.72-.46-.48-.7-1.2-.7-2.16,0-1.41.43-2.89,1.29-4.43.86-1.55,2.03-3,3.51-4.36.94-.86,1.96-1.6,3.05-2.25,0,2.29.14,4.57.41,6.86.2,1.67.46,3.26.75,4.8-.66.43-1.33.82-1.99,1.13ZM51.04,39.09c-1.46,2.13-3.01,4-4.66,5.63-.12-.7-.24-1.39-.34-2.12-.29-2.16-.44-4.47-.44-6.91,0-.4.02-.82.02-1.23.65-.22,1.33-.44,2.06-.66,1.84-.53,3.88-.8,6.11-.8.12,0,.23.01.35.02-.89,2.28-1.91,4.32-3.11,6.07Z"/></g></svg>