<?xml version="1.0" encoding="UTF-8"?><svg id="_レイヤー_2" xmlns="http://www.w3.org/2000/svg" viewBox="0 0 120 72"><defs><style>.cls-1{fill:#4577ff;}.cls-1,.cls-2{stroke-width:0px;}.cls-2{fill:#fff;}</style></defs><g id="_2"><rect class="cls-1" x="24" y="-24" width="72" height="120" rx="20" ry="20" transform="translate(96 -24) rotate(90)"/><path class="cls-2" d="M68.5,61H23.5c-1.38,0-2.5-1.12-2.5-2.5V13.5c0-1.38,1.12-2.5,2.5-2.5h45c1.38,0,2.5,1.12,2.5,2.5v45c0,1.38-1.12,2.5-2.5,2.5ZM26,56h40V16H26v40Z"/><path class="cls-2" d="M48.42,24.02c-.08,3.92-.08,7.88-.08,11.96v2.04c0,3.92,0,5.88.08,9.84l4.4.44v1.44h-13.64v-1.44l4.4-.44c.12-3.88.12-5.84.12-9.84v-2.04c0-3.96,0-7.96-.12-11.96h-6.56l-1.48,6.24h-2.16l.32-8h24.6l.32,8h-2.16l-1.48-6.24h-6.56Z"/><path class="cls-2" d="M101.88,40.73c-.37,0-.74-.14-1.02-.42l-6.18-6.18-6.18,6.18c-.56.56-1.47.56-2.04,0-.56-.56-.56-1.47,0-2.04l7.2-7.2c.56-.56,1.47-.56,2.04,0l7.2,7.2c.56.56.56,1.47,0,2.04-.28.28-.65.42-1.02.42Z"/></g></svg>