<?xml version="1.0" encoding="UTF-8"?><svg id="_レイヤー_2" xmlns="http://www.w3.org/2000/svg" viewBox="0 0 120 72"><defs><style>.cls-1{fill:#4577ff;}.cls-1,.cls-2{stroke-width:0px;}.cls-2{fill:#fff;}</style></defs><g id="_2"><rect class="cls-1" x="24" y="-24" width="72" height="120" rx="20" ry="20" transform="translate(96 -24) rotate(90)"/><path class="cls-2" d="M60,40.34c5.02,0,9.1-4.08,9.1-9.1v-11.57c0-5.02-4.08-9.1-9.1-9.1s-9.1,4.08-9.1,9.1v11.57c0,5.02,4.08,9.1,9.1,9.1ZM55.22,19.68c0-2.63,2.14-4.78,4.78-4.78s4.78,2.14,4.78,4.78v11.57c0,2.64-2.14,4.78-4.78,4.78s-4.78-2.14-4.78-4.78v-11.57Z"/><path class="cls-2" d="M78.35,31.25c0-1.19-.97-2.16-2.16-2.16s-2.16.97-2.16,2.16c0,7.74-6.29,14.03-14.03,14.03s-14.03-6.29-14.03-14.03c0-1.19-.97-2.16-2.16-2.16s-2.16.97-2.16,2.16c0,9.39,7.09,17.14,16.19,18.21v5.07h-7.09c-1.19,0-2.16.97-2.16,2.16s.97,2.16,2.16,2.16h18.51c1.19,0,2.16-.97,2.16-2.16s-.97-2.16-2.16-2.16h-7.09v-5.07c9.1-1.07,16.19-8.83,16.19-18.21Z"/></g></svg>