<?xml version="1.0" encoding="UTF-8"?><svg id="_レイヤー_2" xmlns="http://www.w3.org/2000/svg" viewBox="0 0 42 42"><defs><style>.cls-1{fill:none;}.cls-1,.cls-2{stroke-width:0px;}.cls-2{fill:#e3e3e3;}</style></defs><g id="_2"><path class="cls-2" d="M33.45,8.61h-6.9v-4.03c0-.83-.67-1.5-1.5-1.5h-8.1c-.83,0-1.5.67-1.5,1.5v4.03h-6.9c-.83,0-1.5.67-1.5,1.5v7.09c0,.83.67,1.5,1.5,1.5h1.42l1.65,18.85c.07.77.72,1.37,1.49,1.37h15.77c.78,0,1.43-.59,1.49-1.37l1.65-18.85h1.42c.83,0,1.5-.67,1.5-1.5v-7.09c0-.83-.67-1.5-1.5-1.5ZM18.45,6.08h5.1v2.53h-5.1v-2.53ZM10.05,11.61h21.9v4.09H10.05v-4.09ZM22.11,18.7v17.22h-2.22v-17.22h2.22ZM12.98,18.7h3.9v17.22h-2.4l-1.5-17.22ZM27.51,35.92h-2.4v-17.22h3.9l-1.51,17.22Z"/><rect class="cls-1" width="42" height="42"/></g></svg>