<?xml version="1.0" encoding="UTF-8"?><svg id="_レイヤー_2" xmlns="http://www.w3.org/2000/svg" viewBox="0 0 32 32"><defs><style>.cls-1{fill:none;}.cls-1,.cls-2{stroke-width:0px;}.cls-2{fill:#4577ff;}</style></defs><g id="_2"><path class="cls-2" d="M23.72,17.24c-.69,0-1.25.56-1.25,1.25v8.26H5.25V9.53h7.07c.69,0,1.25-.56,1.25-1.25s-.56-1.25-1.25-1.25H4c-.69,0-1.25.56-1.25,1.25v19.72c0,.69.56,1.25,1.25,1.25h19.72c.69,0,1.25-.56,1.25-1.25v-9.51c0-.69-.56-1.25-1.25-1.25Z"/><path class="cls-2" d="M26.93,4l-10,.88c-.44,0-.66.53-.35.84l3.8,3.8-7.57,7.57c-.58.58-.58,1.51,0,2.09.29.29.67.43,1.04.43s.76-.14,1.04-.43l7.57-7.57,3.8,3.8c.31.31.84.09.84-.35l.88-10c.05-.61-.46-1.12-1.07-1.07Z"/><rect class="cls-1" width="32" height="32"/></g></svg>