<?xml version="1.0" encoding="UTF-8"?><svg id="_レイヤー_2" xmlns="http://www.w3.org/2000/svg" viewBox="0 0 40 40"><defs><style>.cls-1{fill:#ff8080;}.cls-1,.cls-2{stroke-width:0px;}.cls-2{fill:#fff;}</style></defs><g id="_2"><circle class="cls-1" cx="20" cy="20" r="19"/><path class="cls-1" d="M20,2c9.93,0,18,8.07,18,18s-8.07,18-18,18S2,29.93,2,20,10.07,2,20,2M20,0C8.95,0,0,8.95,0,20s8.95,20,20,20,20-8.95,20-20S31.05,0,20,0h0Z"/><path class="cls-2" d="M17.67,29.79s-.03,0-.05,0c-.68-.01-1.33-.31-1.79-.81l-6.71-7.29c-.93-1.02-.87-2.6.15-3.53,1.02-.93,2.6-.87,3.53.15l4.94,5.37,9.51-9.53c.98-.98,2.56-.98,3.54,0,.98.98.98,2.56,0,3.54l-11.36,11.38c-.47.47-1.11.73-1.77.73Z"/></g></svg>