<?xml version="1.0" encoding="UTF-8"?><svg id="_レイヤー_2" xmlns="http://www.w3.org/2000/svg" viewBox="0 0 54 60"><defs><style>.cls-1{fill:none;}.cls-1,.cls-2,.cls-3{stroke-width:0px;}.cls-2{fill:#4577ff;}.cls-3{fill:#fff;}</style></defs><g id="_2"><rect class="cls-1" width="54" height="60" rx="12" ry="12"/><path class="cls-2" d="M12.87,15.88v17.83h7.43v-8.92c0-.83.67-1.5,1.5-1.5h8.91v-7.41H12.87Z"/><path class="cls-3" d="M30.71,15.88v7.41h-8.91c-.83,0-1.5.67-1.5,1.5v8.92h-7.43V15.88h17.84Z"/><path class="cls-2" d="M42.63,23.29h-8.92v-8.91c0-.84-.66-1.5-1.5-1.5H11.37c-.82,0-1.5.66-1.5,1.5v20.83c0,.83.68,1.5,1.5,1.5h8.93v8.91c0,.84.66,1.5,1.5,1.5h20.83c.83,0,1.5-.66,1.5-1.5v-20.83c0-.83-.67-1.5-1.5-1.5ZM30.71,23.29h-8.91c-.83,0-1.5.67-1.5,1.5v8.92h-7.43V15.88h17.84v7.41Z"/></g></svg>