<?xml version="1.0" encoding="UTF-8"?><svg id="_レイヤー_2" xmlns="http://www.w3.org/2000/svg" viewBox="0 0 56 48"><defs><style>.cls-1{fill:none;}.cls-1,.cls-2{stroke-width:0px;}.cls-2{fill:#4577ff;}</style></defs><g id="_2"><rect class="cls-1" width="56" height="48" rx="8" ry="8"/><path class="cls-2" d="M17.36,42.62c-.98,0-1.81-.35-2.5-1.04s-1.04-1.53-1.04-2.5v-17.73c0-.98.35-1.81,1.04-2.5s1.53-1.04,2.5-1.04h1.77v-3.55c0-2.45.86-4.54,2.59-6.27s3.82-2.59,6.27-2.59,4.54.86,6.27,2.59c1.73,1.73,2.59,3.82,2.59,6.27v3.55h1.77c.98,0,1.81.35,2.5,1.04s1.04,1.53,1.04,2.5v17.73c0,.98-.35,1.81-1.04,2.5s-1.53,1.04-2.5,1.04h-21.28ZM17.36,39.07h21.28v-17.73h-21.28v17.73ZM28,33.75c.98,0,1.81-.35,2.5-1.04s1.04-1.53,1.04-2.5-.35-1.81-1.04-2.5-1.53-1.04-2.5-1.04-1.81.35-2.5,1.04-1.04,1.53-1.04,2.5.35,1.81,1.04,2.5,1.53,1.04,2.5,1.04ZM22.68,17.79h10.64v-3.55c0-1.48-.52-2.73-1.55-3.77-1.03-1.03-2.29-1.55-3.77-1.55s-2.73.52-3.77,1.55-1.55,2.29-1.55,3.77v3.55ZM17.36,39.07v-17.73,17.73Z"/></g></svg>