<?xml version="1.0" encoding="UTF-8"?><svg id="_レイヤー_2" xmlns="http://www.w3.org/2000/svg" viewBox="0 0 120 72"><defs><style>.cls-1{fill:#4577ff;}.cls-1,.cls-2{stroke-width:0px;}.cls-2{fill:#fff;}</style></defs><g id="_2"><rect class="cls-1" x="24" y="-24" width="72" height="120" rx="20" ry="20" transform="translate(96 -24) rotate(90)"/><path class="cls-2" d="M43.59,64.73c-1.5,0-2.79-.54-3.86-1.61-1.07-1.07-1.61-2.36-1.61-3.86v-27.36c0-1.5.54-2.79,1.61-3.86s2.36-1.61,3.86-1.61h2.74v-5.47c0-3.78,1.33-7.01,4-9.68,2.67-2.67,5.89-4,9.68-4s7.01,1.33,9.68,4c2.67,2.67,4,5.89,4,9.68v5.47h2.74c1.5,0,2.79.54,3.86,1.61,1.07,1.07,1.61,2.36,1.61,3.86v27.36c0,1.5-.54,2.79-1.61,3.86-1.07,1.07-2.36,1.61-3.86,1.61h-32.83ZM43.59,59.25h32.83v-27.36h-32.83v27.36ZM60,51.05c1.5,0,2.79-.54,3.86-1.61s1.61-2.36,1.61-3.86-.54-2.79-1.61-3.86-2.36-1.61-3.86-1.61-2.79.54-3.86,1.61c-1.07,1.07-1.61,2.36-1.61,3.86s.54,2.79,1.61,3.86c1.07,1.07,2.36,1.61,3.86,1.61ZM51.79,26.42h16.41v-5.47c0-2.28-.8-4.22-2.39-5.81-1.6-1.6-3.53-2.39-5.81-2.39s-4.22.8-5.81,2.39c-1.6,1.6-2.39,3.53-2.39,5.81v5.47ZM43.59,59.25v-27.36,27.36Z"/></g></svg>