<?xml version="1.0" encoding="UTF-8"?><svg id="_レイヤー_2" xmlns="http://www.w3.org/2000/svg" viewBox="0 0 120 72"><defs><style>.cls-1{fill:none;}.cls-1,.cls-2{stroke-width:0px;}.cls-2{fill:#4577ff;}</style></defs><g id="_2"><rect class="cls-1" x="24" y="-24" width="72" height="120" rx="20" ry="20" transform="translate(96 -24) rotate(90)"/><path class="cls-2" d="M70.82,24.84c0-.95-.58-1.81-1.47-2.15l-24.51-9.61c-.54-.21-1.15-.21-1.69,0l-24.51,9.61c-.89.35-1.47,1.2-1.47,2.15s.58,1.81,1.47,2.15l8.73,3.43-8.73,3.43c-.89.35-1.47,1.2-1.47,2.15s.58,1.81,1.47,2.15l8.73,3.43-8.73,3.43c-.89.35-1.47,1.2-1.47,2.15s.58,1.81,1.47,2.15l24.51,9.61c.27.11.56.16.85.16s.57-.05.85-.16l24.51-9.61c.89-.35,1.47-1.2,1.47-2.15s-.58-1.81-1.47-2.15l-8.73-3.43,8.73-3.43c.89-.35,1.47-1.2,1.47-2.15s-.58-1.81-1.47-2.15l-8.73-3.43,8.73-3.43c.89-.35,1.47-1.2,1.47-2.15ZM62.17,47.16l-18.17,7.13-18.17-7.13,7.89-3.09,9.44,3.7c.27.11.56.16.85.16s.57-.05.85-.16l9.44-3.7,7.89,3.09ZM62.17,36l-18.17,7.13-18.17-7.13,7.89-3.09,9.44,3.7c.27.11.56.16.85.16s.57-.05.85-.16l9.44-3.7,7.89,3.09ZM44,31.97l-18.17-7.13,18.17-7.13,18.17,7.13-18.17,7.13Z"/><path class="cls-2" d="M107.53,38.35l-8-8c-.62-.62-1.64-.62-2.26,0l-8,8c-.62.62-.62,1.64,0,2.26.62.62,1.64.62,2.26,0l6.87-6.87,6.87,6.87c.31.31.72.47,1.13.47s.82-.16,1.13-.47c.62-.62.62-1.64,0-2.26Z"/></g></svg>