<?xml version="1.0" encoding="UTF-8"?><svg id="_レイヤー_2" xmlns="http://www.w3.org/2000/svg" viewBox="0 0 54 60"><defs><style>.cls-1{fill:none;}.cls-1,.cls-2,.cls-3{stroke-width:0px;}.cls-2{fill:#4577ff;}.cls-3{fill:#fff;}</style></defs><g id="_2"><rect class="cls-1" x="0" width="54" height="60" rx="12" ry="12"/><path class="cls-2" d="M42.63,23.29h-8.92v-8.91c0-.84-.66-1.5-1.5-1.5H11.37c-.82,0-1.5.66-1.5,1.5v20.83c0,.83.68,1.5,1.5,1.5h8.93v8.91c0,.84.66,1.5,1.5,1.5h20.83c.83,0,1.5-.66,1.5-1.5v-20.84c0-.83-.67-1.5-1.5-1.5ZM30.71,33.71H12.87V15.88h17.84v17.83Z"/><rect class="cls-3" x="12.87" y="15.88" width="17.84" height="17.83"/></g></svg>