<?xml version="1.0" encoding="UTF-8"?><svg id="_レイヤー_2" xmlns="http://www.w3.org/2000/svg" viewBox="0 0 120 72"><defs><style>.cls-1{fill:none;}.cls-1,.cls-2{stroke-width:0px;}.cls-2{fill:#4577ff;}</style></defs><g id="_2"><rect class="cls-1" x="24" y="-24" width="72" height="120" rx="20" ry="20" transform="translate(96 -24) rotate(90)"/><path class="cls-2" d="M50,63.5c-12.41,0-22.5-10.68-22.5-23.82,0-5.51,3.57-12.37,10.62-20.41,5.06-5.77,10.06-10.01,10.27-10.19.93-.79,2.3-.79,3.23,0,.21.18,5.2,4.41,10.27,10.19,7.05,8.03,10.62,14.9,10.62,20.41,0,13.13-10.09,23.82-22.5,23.82ZM50,14.32c-6.06,5.47-17.5,17.44-17.5,25.36,0,10.38,7.85,18.82,17.5,18.82s17.5-8.44,17.5-18.82c0-7.93-11.44-19.89-17.5-25.36Z"/><path class="cls-2" d="M101.88,40.73c-.37,0-.74-.14-1.02-.42l-6.18-6.18-6.18,6.18c-.56.56-1.47.56-2.04,0-.56-.56-.56-1.47,0-2.04l7.2-7.2c.56-.56,1.47-.56,2.04,0l7.2,7.2c.56.56.56,1.47,0,2.04-.28.28-.65.42-1.02.42Z"/></g></svg>