<?xml version="1.0" encoding="UTF-8"?><svg id="_レイヤー_2" xmlns="http://www.w3.org/2000/svg" viewBox="0 0 120 72"><defs><style>.cls-1{fill:none;}.cls-1,.cls-2{stroke-width:0px;}.cls-2{fill:#4577ff;}</style></defs><g id="_2"><rect class="cls-1" x="24" y="-24" width="72" height="120" rx="20" ry="20" transform="translate(96 -24) rotate(90)"/><path class="cls-2" d="M66.26,48.89v-3.04h5.18v-15.74h-4.22v-2.34c1.11-.21,2.08-.46,2.9-.75.82-.29,1.57-.63,2.26-1.04h2.78v19.87h4.58v3.04h-13.47Z"/><path class="cls-2" d="M90.36,49.34c-1.22,0-2.3-.15-3.26-.45-.96-.3-1.8-.69-2.53-1.18-.73-.49-1.37-1-1.92-1.54l1.76-2.4c.45.45.94.86,1.47,1.23.53.37,1.14.68,1.81.91.67.24,1.42.35,2.26.35.87,0,1.66-.19,2.37-.56.7-.37,1.26-.91,1.66-1.62.4-.7.61-1.54.61-2.5,0-1.45-.41-2.58-1.23-3.39-.82-.81-1.9-1.22-3.25-1.22-.75,0-1.39.11-1.92.34-.53.22-1.14.56-1.82,1.01l-1.82-1.15.7-11.2h11.94v3.14h-8.74l-.54,6.02c.51-.26,1.02-.45,1.54-.59.51-.14,1.08-.21,1.7-.21,1.32,0,2.53.25,3.62.75,1.09.5,1.95,1.28,2.59,2.34.64,1.06.96,2.41.96,4.05s-.37,3.08-1.12,4.26c-.75,1.17-1.72,2.07-2.93,2.69s-2.5.93-3.89.93Z"/><path class="cls-2" d="M106.19,33.79c-.85,0-1.64-.2-2.37-.59-.73-.39-1.3-.95-1.73-1.66-.43-.71-.64-1.55-.64-2.51s.21-1.8.64-2.51c.43-.71,1-1.27,1.73-1.68.73-.41,1.51-.61,2.37-.61s1.64.2,2.35.61c.71.41,1.29.97,1.71,1.68.43.72.64,1.55.64,2.51s-.21,1.8-.64,2.51c-.43.72-1,1.27-1.71,1.66-.71.4-1.5.59-2.35.59ZM106.19,31.87c.77,0,1.4-.27,1.89-.8.49-.53.74-1.22.74-2.05s-.25-1.55-.74-2.08c-.49-.53-1.12-.8-1.89-.8s-1.4.27-1.89.8c-.49.53-.74,1.23-.74,2.08s.25,1.52.74,2.05c.49.53,1.12.8,1.89.8Z"/><path class="cls-2" d="M60.95,56.34l-11.28-22.37c2.94-1.95,4.88-5.28,4.88-9.06,0-5.13-3.58-9.43-8.37-10.57v-2.43c0-1.38-1.12-2.5-2.5-2.5s-2.5,1.12-2.5,2.5v2.43c-4.79,1.13-8.37,5.44-8.37,10.57,0,3.78,1.94,7.12,4.88,9.06l-11.28,22.37c-.62,1.23-.13,2.74,1.11,3.36.36.18.75.27,1.12.27.91,0,1.79-.5,2.23-1.38l7.1-14.09c1.85.54,3.76.82,5.7.82s3.85-.29,5.69-.82l7.1,14.09c.44.87,1.32,1.38,2.23,1.38.38,0,.76-.09,1.12-.27,1.23-.62,1.73-2.12,1.11-3.36ZM43.68,19.04c3.24,0,5.87,2.63,5.87,5.87s-2.63,5.87-5.87,5.87-5.87-2.63-5.87-5.87,2.63-5.87,5.87-5.87ZM39.83,40.85l2.6-5.15c.41.05.83.08,1.26.08s.85-.03,1.26-.08l2.59,5.15c-2.53.61-5.18.61-7.71,0Z"/></g></svg>