<?xml version="1.0" encoding="UTF-8"?><svg id="_レイヤー_2" xmlns="http://www.w3.org/2000/svg" viewBox="0 0 64 64"><defs><style>.cls-1{fill:none;}.cls-1,.cls-2,.cls-3{stroke-width:0px;}.cls-2{fill:#4577ff;}.cls-3{fill:#3c6cff;}</style></defs><g id="_2"><rect class="cls-1" width="64" height="64"/><path class="cls-2" d="M32,60.5c-15.71,0-28.5-12.79-28.5-28.5S16.29,3.5,32,3.5s28.5,12.79,28.5,28.5-12.79,28.5-28.5,28.5ZM32,8.5c-12.96,0-23.5,10.54-23.5,23.5s10.54,23.5,23.5,23.5,23.5-10.54,23.5-23.5-10.54-23.5-23.5-23.5Z"/><path class="cls-3" d="M36.6,31.41l6.89-6.89c1.27-1.27,1.27-3.33,0-4.6-1.27-1.27-3.33-1.27-4.6,0l-6.89,6.89-6.89-6.89c-1.27-1.27-3.33-1.27-4.6,0-1.27,1.27-1.27,3.33,0,4.6l6.89,6.89-6.89,6.9c-1.27,1.27-1.27,3.33,0,4.6.63.63,1.47.95,2.3.95s1.66-.32,2.3-.95l6.89-6.89,6.89,6.89c.63.63,1.47.95,2.3.95s1.66-.32,2.3-.95c1.27-1.27,1.27-3.33,0-4.6l-6.89-6.9Z"/></g></svg>