<?xml version="1.0" encoding="UTF-8"?><svg id="_レイヤー_2" xmlns="http://www.w3.org/2000/svg" viewBox="0 0 64 64"><defs><style>.cls-1{fill:none;}.cls-1,.cls-2{stroke-width:0px;}.cls-2{fill:#4577ff;}</style></defs><g id="_2"><rect class="cls-1" width="64" height="64"/><path class="cls-2" d="M32,60.5c-15.71,0-28.5-12.79-28.5-28.5S16.29,3.5,32,3.5s28.5,12.79,28.5,28.5-12.79,28.5-28.5,28.5ZM32,8.5c-12.96,0-23.5,10.54-23.5,23.5s10.54,23.5,23.5,23.5,23.5-10.54,23.5-23.5-10.54-23.5-23.5-23.5Z"/><path class="cls-2" d="M48.42,26.46c-.45-1.24-1.81-1.89-3.06-1.44-1.24.45-1.89,1.81-1.45,3.06.46,1.29.7,2.65.7,4.03,0,6.59-5.37,11.96-11.96,11.96s-11.96-5.36-11.96-11.96c0-.67.07-1.32.18-1.97l2.5,1.41c.37.21.77.31,1.17.31.48,0,.96-.15,1.37-.43.75-.53,1.14-1.44.99-2.35l-1.56-9.39c-.12-.73-.57-1.36-1.22-1.71-.65-.35-1.42-.38-2.1-.09l-8.49,3.73c-.83.36-1.38,1.17-1.43,2.07s.43,1.76,1.22,2.2l3.21,1.81c-.39,1.43-.62,2.91-.62,4.42,0,9.23,7.51,16.74,16.74,16.74s16.74-7.51,16.74-16.74c0-1.94-.33-3.84-.98-5.65Z"/></g></svg>