<?xml version="1.0" encoding="UTF-8"?><svg id="_レイヤー_2" xmlns="http://www.w3.org/2000/svg" viewBox="0 0 64 80"><defs><style>.cls-1{fill:#e3e3e3;}.cls-1,.cls-2{stroke-width:0px;}.cls-2{fill:#fff;}</style></defs><g id="_ガイド"><path class="cls-2" d="M32,76c-15.44,0-28-13.51-28-30.11,0-12.66,18.3-31.81,28-40.57,9.7,8.76,28,27.91,28,40.57,0,16.6-12.56,30.11-28,30.11Z"/><path class="cls-1" d="M31.97,10.78c2.83,2.69,6.51,6.37,10.14,10.52,8.83,10.09,13.89,19.05,13.89,24.59,0,14.4-10.77,26.11-24,26.11s-24-11.71-24-26.11c0-8.97,12.7-24.45,23.97-35.12M32,0S0,27.06,0,45.89s14.33,34.11,32,34.11,32-15.27,32-34.11S32,0,32,0h0Z"/></g></svg>