<?xml version="1.0" encoding="UTF-8"?><svg id="_レイヤー_2" xmlns="http://www.w3.org/2000/svg" viewBox="0 0 68 80"><defs><style>.cls-1{fill:#e3e3e3;stroke-width:0px;}</style></defs><g id="_ガイド"><path class="cls-1" d="M66.01,45.9c0,6.74-1.83,13.02-5,18.31L15.57,18.73C24.29,8.21,34,0,34,0c0,0,32,27.06,32,45.9Z"/><path class="cls-1" d="M67.41,78.46c-.39.39-.9.59-1.41.59s-1.03-.2-1.42-.59l-8.19-8.2c-5.78,6.02-13.68,9.74-22.39,9.74-17.67,0-32-15.27-32-34.1,0-6.56,3.88-14.11,8.93-21.17L.58,14.37c-.78-.78-.78-2.05.01-2.83.44-.44,1.03-.63,1.6-.56.45.03.88.22,1.22.57l9.93,9.95,45.65,45.7,5.92,5.93,2.5,2.5c.78.78.78,2.05,0,2.83Z"/></g></svg>