<?xml version="1.0" encoding="UTF-8"?><svg id="_レイヤー_2" xmlns="http://www.w3.org/2000/svg" viewBox="0 0 354 90"><defs><style>.cls-1{fill:#4577ff;stroke:#4577ff;stroke-miterlimit:10;stroke-width:2px;}.cls-2{fill:#fff;stroke-width:0px;}</style></defs><g id="_ツール"><rect class="cls-1" x="1" y="1" width="352" height="88" rx="8" ry="8"/><path class="cls-2" d="M212.36,62.2l-12.99-12.99-13.04,12.99-2.88-2.83,13.04-13.04-13.04-12.99,2.93-2.88,12.99,13.04,12.99-13.04,2.88,2.88-13.04,12.99,13.04,13.04-2.88,2.83Z"/><path class="cls-2" d="M171.53,46.25c0,2.33-.43,4.51-1.3,6.55-.86,2.04-2.08,3.83-3.64,5.38-1.56,1.55-3.35,2.75-5.38,3.62-2.03.86-4.21,1.3-6.53,1.3s-4.51-.43-6.55-1.3c-2.04-.86-3.83-2.08-5.38-3.64-1.55-1.56-2.75-3.35-3.62-5.38-.86-2.03-1.3-4.21-1.3-6.53s.43-4.51,1.3-6.55c.86-2.04,2.08-3.83,3.64-5.38,1.56-1.55,3.35-2.75,5.38-3.62,2.03-.86,4.21-1.3,6.53-1.3s4.51.43,6.55,1.3c2.04.86,3.83,2.08,5.38,3.64,1.55,1.56,2.75,3.35,3.62,5.38.86,2.03,1.3,4.21,1.3,6.53ZM154.68,33.47c-1.76,0-3.42.33-4.96,1-1.55.67-2.9,1.58-4.07,2.75-1.16,1.17-2.08,2.52-2.75,4.07-.67,1.55-1,3.2-1,4.96s.33,3.42,1,4.96c.66,1.55,1.58,2.9,2.75,4.07,1.16,1.17,2.52,2.08,4.07,2.75,1.55.67,3.2,1,4.96,1s3.42-.33,4.96-1c1.55-.67,2.9-1.58,4.07-2.75,1.16-1.16,2.08-2.52,2.75-4.07.67-1.55,1-3.2,1-4.96s-.33-3.42-1-4.96c-.67-1.55-1.58-2.9-2.75-4.07-1.17-1.16-2.52-2.08-4.07-2.75-1.55-.67-3.2-1-4.96-1Z"/><path class="cls-2" d="M212.36,62.2l-12.99-12.99-13.04,12.99-2.88-2.83,13.04-13.04-13.04-12.99,2.93-2.88,12.99,13.04,12.99-13.04,2.88,2.88-13.04,12.99,13.04,13.04-2.88,2.83Z"/></g></svg>