<?xml version="1.0" encoding="UTF-8"?><svg id="_レイヤー_2" xmlns="http://www.w3.org/2000/svg" viewBox="0 0 354 90"><defs><style>.cls-1{fill:#4577ff;stroke:#4577ff;stroke-miterlimit:10;stroke-width:2px;}.cls-2{fill:#fff;stroke-width:0px;}</style></defs><g id="_ツール"><rect class="cls-1" x="1" y="1" width="352" height="88" rx="8" ry="8"/><path class="cls-2" d="M142.01,65.33c.96-.36,2.08-.8,3.37-1.31,1.28-.52,2.65-1.07,4.1-1.67,1.45-.6,2.9-1.2,4.34-1.8l.76,3.02c-1.92.91-3.86,1.82-5.83,2.74-1.97.91-3.77,1.73-5.4,2.45l-1.33-3.42ZM142.37,49.31h11.66v3.2h-11.66v-3.2ZM146.83,41.21h3.2v23.62h-3.2v-23.62ZM152.56,55.46l19.08-8.06,1.26,2.88-19.04,8.21-1.3-3.02ZM156.3,44.2h3.28v23.76c0,.67.06,1.18.18,1.53.12.35.38.58.77.7.4.12.98.18,1.75.18h7.96c.67,0,1.18-.13,1.53-.4.35-.26.61-.74.77-1.44.17-.7.29-1.7.36-3.02.38.26.87.52,1.46.76.59.24,1.11.41,1.57.5-.14,1.68-.4,3-.76,3.96-.36.96-.91,1.65-1.64,2.07-.73.42-1.76.63-3.08.63h-8.39c-1.46,0-2.62-.16-3.47-.47-.85-.31-1.45-.87-1.78-1.67-.34-.8-.5-1.93-.5-3.37v-23.72ZM163.61,40.78h3.2v25.2h-3.2v-25.2ZM170.99,47.8h-.29l.68-.54.61-.47,2.41.9-.14.58c0,1.7,0,3.28-.02,4.73-.01,1.45-.03,2.75-.05,3.89-.02,1.14-.05,2.1-.09,2.88-.04.78-.09,1.35-.16,1.71-.07.77-.27,1.36-.59,1.76-.32.41-.76.7-1.31.86-.48.19-1.06.31-1.73.34-.67.04-1.27.05-1.8.05-.05-.46-.14-.97-.29-1.53-.14-.56-.3-1.03-.47-1.39.36.02.76.04,1.19.04h.9c.26,0,.47-.05.63-.16s.27-.34.34-.7c.05-.22.08-.66.11-1.33.02-.67.04-1.55.05-2.65.01-1.09.02-2.39.02-3.91v-5.08Z"/><path class="cls-2" d="M179.95,42.4h30.2v31.72h-3.53v-28.44h-23.26v28.44h-3.42v-31.72ZM181.93,69.18h26.1v3.28h-26.1v-3.28ZM201.44,47.9l3.2.83c-1.8,4.61-4.24,8.56-7.33,11.86-3.08,3.3-6.68,5.97-10.78,8.01-.12-.24-.31-.53-.58-.88-.26-.35-.54-.7-.83-1.04-.29-.35-.55-.63-.79-.85,4.03-1.75,7.49-4.14,10.39-7.16,2.89-3.02,5.13-6.61,6.71-10.76ZM185.06,48.98l2.59-1.08c.67.94,1.31,1.98,1.93,3.13.61,1.15,1.05,2.15,1.31,2.99l-2.74,1.26c-.22-.86-.62-1.88-1.21-3.06-.59-1.18-1.22-2.26-1.89-3.24ZM185.71,57.59l1.87-2.3c1.49.6,3.03,1.28,4.62,2.05,1.6.77,3.17,1.58,4.73,2.43,1.56.85,3,1.72,4.32,2.59,1.32.88,2.44,1.71,3.35,2.5l-2.05,2.66c-.86-.79-1.94-1.64-3.24-2.54-1.3-.9-2.71-1.8-4.23-2.7-1.53-.9-3.09-1.75-4.7-2.56-1.61-.8-3.17-1.52-4.68-2.14ZM191.83,47.8l2.66-.94c.6,1.03,1.15,2.16,1.66,3.38s.84,2.28,1.01,3.17l-2.88,1.04c-.07-.6-.23-1.28-.49-2.03-.25-.76-.54-1.54-.88-2.36-.34-.82-.7-1.57-1.08-2.27Z"/><path class="cls-2" d="M152.37,19.09c.57.09,1.22.17,1.94.24.72.07,1.39.1,2,.1s1.35-.02,2.13-.06,1.6-.1,2.45-.18c.85-.08,1.71-.18,2.57-.31.86-.13,1.69-.28,2.49-.45l.04,1.92c-.68.11-1.43.21-2.26.32-.83.11-1.67.2-2.54.29-.87.09-1.72.15-2.56.2-.84.05-1.61.07-2.3.07s-1.41-.02-2.08-.05c-.67-.03-1.29-.08-1.88-.13v-1.96ZM158.91,16.63c-.09.29-.17.6-.23.92-.06.32-.12.63-.19.92-.05.32-.13.7-.22,1.15-.09.45-.2.93-.31,1.44-.11.51-.23,1.03-.35,1.55s-.25,1.02-.38,1.49c-.13.47-.27.9-.4,1.27.85-.53,1.71-.92,2.58-1.15s1.79-.35,2.76-.35c1.08,0,2,.17,2.77.51.77.34,1.36.82,1.79,1.43.43.61.64,1.33.64,2.16,0,1.07-.26,1.97-.77,2.72-.51.75-1.24,1.33-2.17,1.75-.93.42-2.04.69-3.33.81-1.29.12-2.72.1-4.29-.06l-.54-2.02c1.13.16,2.24.23,3.31.22,1.07-.01,2.04-.14,2.89-.37.85-.23,1.53-.6,2.04-1.09.51-.49.76-1.13.76-1.92,0-.68-.28-1.26-.85-1.73s-1.39-.71-2.47-.71c-1.17,0-2.27.2-3.28.6-1.01.4-1.84.99-2.48,1.78-.11.15-.21.29-.3.43-.09.14-.19.3-.28.47l-1.88-.66c.39-.75.74-1.58,1.06-2.5.32-.92.6-1.85.85-2.79.25-.94.45-1.81.61-2.61.16-.8.27-1.45.32-1.96.05-.36.09-.68.11-.95.02-.27.02-.56-.01-.85l2.24.1Z"/><path class="cls-2" d="M184.5,19.35c.56,0,1.2,0,1.92-.03.72-.02,1.48-.04,2.27-.06s1.59-.04,2.38-.05c.79-.01,1.55-.02,2.27-.03.72,0,1.37-.01,1.94-.01s1.14,0,1.74,0c.6,0,1.17,0,1.72,0s1.04,0,1.48,0c.44,0,.79,0,1.06,0l-.02,1.88c-.59-.03-1.37-.05-2.35-.08-.98-.03-2.2-.04-3.67-.04-.89,0-1.81,0-2.74.03-.93.02-1.87.05-2.8.08-.93.03-1.84.07-2.71.11-.87.04-1.69.09-2.45.14l-.04-1.94ZM195.14,25.21c0,.97-.13,1.79-.39,2.44s-.63,1.14-1.12,1.47c-.49.33-1.07.49-1.75.49-.41,0-.82-.08-1.21-.23-.39-.15-.75-.38-1.08-.67-.33-.29-.59-.66-.78-1.09-.19-.43-.29-.94-.29-1.51,0-.71.17-1.33.51-1.86.34-.53.79-.95,1.36-1.26.57-.31,1.19-.46,1.87-.46.81,0,1.5.18,2.05.55.55.37.97.87,1.25,1.5.28.63.42,1.35.42,2.15,0,.67-.1,1.35-.3,2.05-.2.7-.53,1.38-1,2.03-.47.65-1.1,1.25-1.89,1.78-.79.53-1.78.97-2.97,1.32l-1.68-1.66c.88-.2,1.68-.45,2.4-.76.72-.31,1.34-.69,1.87-1.15.53-.46.93-1.01,1.21-1.64.28-.63.42-1.38.42-2.23,0-.79-.18-1.36-.53-1.73s-.78-.55-1.29-.55c-.31,0-.6.07-.87.22-.27.15-.5.36-.67.64-.17.28-.26.63-.26,1.04,0,.55.18.98.55,1.3s.78.48,1.25.48c.39,0,.72-.11.99-.33.27-.22.46-.57.57-1.04.11-.47.08-1.08-.08-1.83l1.44.54ZM195.4,16.69c0,.09-.01.24-.03.44-.02.2-.04.4-.05.59-.01.19-.02.34-.02.43-.01.27-.02.62-.03,1.06,0,.44,0,.93,0,1.46s0,1.07,0,1.61.01,1.05.02,1.53c0,.48.01.88.01,1.2l-1.94-.8v-2.26c0-.49,0-.99,0-1.49s-.02-.95-.03-1.36c-.01-.41-.03-.72-.04-.93-.03-.33-.05-.64-.08-.91-.03-.27-.05-.46-.08-.57h2.28ZM198.1,16.21c.24.35.49.74.76,1.18.27.44.49.84.68,1.2l-1.36.6c-.21-.4-.44-.81-.68-1.24s-.49-.82-.76-1.18l1.36-.56ZM200.64,15.67c.24.35.49.73.76,1.16.27.43.5.83.7,1.2l-1.38.6c-.2-.41-.43-.83-.68-1.25-.25-.42-.51-.8-.76-1.15l1.36-.56Z"/></g></svg>