<?xml version="1.0" encoding="UTF-8"?><svg id="_レイヤー_2" xmlns="http://www.w3.org/2000/svg" viewBox="0 0 354 90"><defs><style>.cls-1{fill:#4577ff;stroke:#4577ff;stroke-miterlimit:10;stroke-width:2px;}.cls-2{fill:#fff;stroke-width:0px;}</style></defs><g id="_ツール"><rect class="cls-1" x="1" y="1" width="352" height="88" rx="8" ry="8"/><path class="cls-2" d="M160.51,44.34h.61l.61-.18,2.3,1.26c-1.06,2.76-2.44,5.28-4.16,7.56-1.72,2.28-3.65,4.33-5.81,6.14-2.16,1.81-4.46,3.38-6.91,4.7-2.45,1.32-4.95,2.41-7.49,3.28-.14-.31-.33-.66-.56-1.04s-.47-.76-.72-1.12-.49-.66-.7-.9c2.4-.7,4.76-1.64,7.09-2.84,2.33-1.2,4.52-2.62,6.57-4.27,2.05-1.64,3.87-3.47,5.45-5.49s2.82-4.18,3.71-6.48v-.61ZM149.93,40.63l3.82.72c-.96,1.63-2.09,3.25-3.38,4.86-1.3,1.61-2.78,3.15-4.45,4.63-1.67,1.48-3.57,2.85-5.71,4.12-.14-.29-.36-.6-.65-.94-.29-.34-.58-.66-.88-.97-.3-.31-.59-.56-.88-.76,1.99-1.08,3.77-2.27,5.33-3.58,1.56-1.31,2.91-2.66,4.05-4.05,1.14-1.39,2.06-2.74,2.75-4.03ZM143.99,51.4l2.55-2.16c.91.6,1.85,1.29,2.83,2.07.97.78,1.89,1.55,2.75,2.32.87.77,1.56,1.5,2.09,2.2l-2.74,2.41c-.5-.65-1.17-1.38-2-2.2-.83-.82-1.72-1.63-2.68-2.45s-1.9-1.55-2.81-2.2ZM151.58,58.45h15.41v3.1h-15.41v12.64h-3.42v-13.14l2.66-2.59h.76ZM148.6,44.34h13v3.06h-13v-3.06ZM150.07,69.65h16.81v3.1h-16.81v-3.1ZM165.3,58.45h3.49v15.77h-3.49v-15.77Z"/><path class="cls-2" d="M183.12,46.32h32.44v3.1h-32.44v-3.1ZM185.24,52.3h11.38v2.92h-8.13v18.79h-3.24v-21.71ZM187.08,58.16h9.76v2.59h-9.76v-2.59ZM187.08,63.85h9.76v2.56h-9.76v-2.56ZM188.41,41.86l3.2-1.12c.67.72,1.34,1.54,2.02,2.47.67.92,1.16,1.73,1.48,2.43l-3.38,1.22c-.26-.67-.71-1.48-1.35-2.43-.64-.95-1.29-1.81-1.96-2.57ZM195.61,52.3h3.31v18.29c0,.79-.1,1.42-.31,1.87-.2.46-.58.8-1.13,1.04-.55.26-1.24.43-2.05.49-.82.06-1.81.09-2.99.09-.07-.43-.21-.94-.43-1.51-.22-.58-.44-1.06-.68-1.44.82.02,1.57.04,2.27.05.7.01,1.16,0,1.4-.02.24-.02.4-.08.49-.16.08-.08.12-.23.12-.45v-18.25ZM202.74,52.66h3.13v14.8h-3.13v-14.8ZM206.92,40.63l3.67,1.12c-.7,1.15-1.42,2.29-2.18,3.42-.76,1.13-1.47,2.1-2.14,2.92l-3.02-1.08c.43-.58.88-1.24,1.33-1.98.46-.74.89-1.5,1.31-2.27s.76-1.48,1.03-2.12ZM209.98,51.61h3.38v18.61c0,.91-.12,1.61-.36,2.11-.24.49-.67.87-1.3,1.13-.6.26-1.38.43-2.34.5-.96.07-2.11.11-3.46.11-.1-.46-.26-1-.5-1.64-.24-.64-.48-1.17-.72-1.6,1.01.02,1.94.04,2.81.05.86.01,1.44,0,1.73-.02.29-.02.49-.08.59-.16.11-.08.16-.26.16-.52v-18.58Z"/><path class="cls-2" d="M152.98,16.43c-.08.33-.18.75-.31,1.26-.13.51-.27,1.04-.42,1.6s-.31,1.1-.47,1.62c-.32.96-.72,1.98-1.2,3.05-.48,1.07-1,2.12-1.56,3.13s-1.13,1.9-1.7,2.66l-1.92-.98c.45-.55.9-1.16,1.34-1.83.44-.67.86-1.37,1.25-2.1.39-.73.75-1.43,1.07-2.12.32-.69.58-1.32.78-1.89.23-.67.43-1.42.62-2.26.19-.84.29-1.63.32-2.36l2.2.22ZM145.6,19.59c.4.04.82.07,1.27.09s.87.03,1.27.03c.77,0,1.56-.04,2.37-.11.81-.07,1.61-.19,2.4-.34s1.55-.34,2.27-.57l.06,1.84c-.61.17-1.31.33-2.1.48-.79.15-1.61.27-2.46.36s-1.7.14-2.54.14c-.37,0-.77,0-1.18-.02-.41-.01-.82-.03-1.22-.04l-.14-1.86ZM157.68,22.63c-.01.41-.02.81-.02,1.18s0,.76.02,1.16c.01.31.03.7.05,1.19.02.49.04,1,.07,1.55.03.55.05,1.07.07,1.56.02.49.03.89.03,1.2,0,.56-.12,1.07-.37,1.54-.25.47-.64.84-1.17,1.12-.53.28-1.24.42-2.12.42-.77,0-1.48-.11-2.11-.34-.63-.23-1.14-.57-1.52-1.02s-.57-1.03-.57-1.72c0-.63.18-1.18.53-1.66s.84-.86,1.47-1.13c.63-.27,1.35-.41,2.18-.41,1.15,0,2.2.16,3.16.49.96.33,1.82.73,2.59,1.22.77.49,1.43.98,1.99,1.47l-1.06,1.7c-.39-.35-.81-.71-1.28-1.09s-.98-.73-1.55-1.06c-.57-.33-1.18-.6-1.84-.81-.66-.21-1.36-.32-2.11-.32-.67,0-1.2.13-1.61.4-.41.27-.61.61-.61,1.02s.18.77.53,1.04c.35.27.87.4,1.55.4.51,0,.91-.08,1.21-.25.3-.17.51-.4.63-.69.12-.29.18-.62.18-.98s0-.81-.03-1.4c-.02-.59-.05-1.22-.08-1.9-.03-.68-.07-1.36-.1-2.05-.03-.69-.06-1.3-.07-1.83h1.96ZM161.44,23.39c-.37-.31-.84-.64-1.4-.99-.56-.35-1.13-.69-1.72-1.02-.59-.33-1.11-.59-1.56-.79l1.02-1.54c.36.16.77.35,1.22.58s.91.47,1.36.72c.45.25.87.5,1.26.75.39.25.71.46.96.63l-1.14,1.66Z"/><path class="cls-2" d="M191.89,16.41c-.01.19-.03.39-.05.61-.02.22-.04.47-.05.75-.01.23-.02.55-.03.98,0,.43-.01.9-.02,1.41,0,.51,0,1.03,0,1.54v1.41c0,.61.02,1.28.05,1.99.03.71.07,1.42.11,2.11.04.69.08,1.33.11,1.92.03.59.05,1.07.05,1.44,0,.51-.13.98-.38,1.42-.25.44-.65.8-1.2,1.07-.55.27-1.26.41-2.14.41-1.51,0-2.65-.27-3.44-.81-.79-.54-1.18-1.31-1.18-2.31,0-.64.19-1.2.57-1.68.38-.48.93-.86,1.64-1.13.71-.27,1.56-.41,2.55-.41,1.07,0,2.07.12,3.01.36.94.24,1.8.55,2.58.92.78.37,1.47.76,2.07,1.17.6.41,1.11.77,1.52,1.09l-1.16,1.78c-.47-.43-.99-.86-1.58-1.3-.59-.44-1.23-.84-1.94-1.2-.71-.36-1.46-.65-2.25-.86-.79-.21-1.63-.32-2.51-.32s-1.5.14-1.95.43c-.45.29-.67.63-.67,1.03,0,.28.09.53.27.75.18.22.45.39.81.52.36.13.83.19,1.4.19.37,0,.71-.05,1.01-.14.3-.09.54-.26.71-.49.17-.23.26-.56.26-.99,0-.35-.01-.81-.04-1.4-.03-.59-.05-1.22-.07-1.91-.02-.69-.04-1.35-.07-2-.03-.65-.04-1.2-.04-1.65s0-.95,0-1.45c0-.5,0-.99,0-1.48v-2.51c0-.17,0-.39-.02-.65-.01-.26-.04-.46-.08-.61h2.14ZM183.87,22.73c.33.05.72.1,1.16.15.44.05.89.08,1.36.11.47.03.91.05,1.33.07.42.02.78.03,1.09.03,1.08,0,2.1-.02,3.05-.07.95-.05,1.87-.11,2.76-.2s1.75-.18,2.59-.29l-.02,1.86c-.68.09-1.35.17-2,.23s-1.31.11-1.97.15c-.66.04-1.35.07-2.08.08-.73.01-1.52.02-2.37.02-.41,0-.91,0-1.5-.03-.59-.02-1.18-.05-1.78-.09-.6-.04-1.13-.09-1.6-.14l-.02-1.88ZM183.97,18.45c.33.05.72.11,1.17.16.45.05.91.1,1.38.15.47.05.92.08,1.35.1s.8.03,1.12.03c1.32,0,2.65-.05,3.98-.14,1.33-.09,2.68-.25,4.04-.48v1.84c-.72.08-1.52.16-2.4.24s-1.8.15-2.75.2-1.9.08-2.85.08c-.44,0-.97-.02-1.59-.06-.62-.04-1.24-.09-1.85-.14s-1.14-.11-1.58-.16l-.02-1.82Z"/><path class="cls-2" d="M213.25,22.43c-.21.16-.43.33-.64.5s-.39.33-.54.46c-.21.19-.49.43-.82.73-.33.3-.68.62-1.04.96s-.69.65-1,.94c-.31.29-.53.52-.68.69.09-.01.22,0,.37.01.15.02.28.05.39.09.35.05.63.2.85.44.22.24.4.56.53.96.07.17.14.38.21.63l.22.74c.07.25.14.47.21.67.11.35.28.61.53.78.25.17.6.26,1.05.26.48,0,.95-.02,1.42-.05s.91-.08,1.32-.15.78-.13,1.1-.2l-.12,2.1c-.28.04-.65.08-1.12.13-.47.05-.95.09-1.44.12-.49.03-.91.05-1.26.05-.87,0-1.56-.12-2.08-.37-.52-.25-.89-.7-1.12-1.35-.07-.2-.14-.44-.22-.71s-.16-.55-.23-.82c-.07-.27-.14-.5-.19-.67-.12-.36-.28-.62-.48-.79-.2-.17-.43-.25-.68-.25-.24,0-.48.07-.71.21-.23.14-.46.32-.69.55-.15.15-.33.34-.56.57-.23.23-.48.5-.75.8-.27.3-.56.61-.85.94-.29.33-.59.66-.88,1-.29.34-.56.67-.8.99l-1.9-1.32c.15-.13.32-.29.53-.46s.42-.37.65-.58c.15-.16.39-.41.74-.76.35-.35.75-.75,1.22-1.22s.96-.97,1.49-1.5c.53-.53,1.05-1.06,1.58-1.58.53-.52,1.02-1.01,1.47-1.47s.84-.86,1.16-1.19c-.29.01-.64.03-1.04.06-.4.03-.82.06-1.25.09-.43.03-.86.07-1.28.11s-.81.07-1.16.1c-.35.03-.66.05-.91.08-.33.01-.64.04-.91.08s-.52.08-.75.12l-.18-2.2c.23.01.5.03.81.04.31.01.64.02.99.02.21-.01.55-.03,1-.05s.97-.05,1.55-.08,1.17-.07,1.76-.11c.59-.04,1.15-.08,1.67-.12.52-.04.94-.08,1.26-.12.17-.03.36-.06.57-.1.21-.04.36-.08.45-.12l1.18,1.32ZM204.71,16.45c.55.11,1.18.21,1.89.32.71.11,1.45.21,2.2.3s1.47.17,2.16.24c.69.07,1.28.11,1.77.14l-.26,1.86c-.52-.04-1.12-.1-1.79-.17s-1.38-.16-2.11-.25c-.73-.09-1.46-.19-2.18-.3s-1.39-.21-2-.32l.32-1.82Z"/></g></svg>