<?xml version="1.0" encoding="UTF-8"?><svg id="_レイヤー_2" xmlns="http://www.w3.org/2000/svg" viewBox="0 0 354 90"><defs><style>.cls-1{fill:#4577ff;stroke:#4577ff;stroke-miterlimit:10;stroke-width:2px;}.cls-2{fill:#fff;stroke-width:0px;}</style></defs><g id="_ツール"><rect class="cls-1" x="1" y="1" width="352" height="88" rx="8" ry="8"/><path class="cls-2" d="M141.61,32.79c-.36.53-.71,1.1-1.06,1.73-.35.62-.62,1.1-.81,1.44-.75,1.39-1.69,2.86-2.83,4.39-1.14,1.54-2.46,3.04-3.94,4.5-1.49,1.46-3.16,2.82-5,4.07l-3.17-2.34c1.56-.94,2.95-1.93,4.18-2.99,1.22-1.06,2.29-2.12,3.19-3.19.9-1.07,1.67-2.09,2.32-3.08.65-.98,1.19-1.87,1.62-2.66.22-.36.46-.86.72-1.51.26-.65.47-1.22.61-1.73l4.18,1.37ZM153.53,38.33c-.19.29-.37.64-.54,1.04-.17.41-.32.79-.47,1.15-.31,1.15-.76,2.42-1.33,3.82-.58,1.39-1.28,2.81-2.12,4.27-.84,1.45-1.8,2.84-2.88,4.16-1.66,2.04-3.63,3.89-5.92,5.54-2.29,1.66-5.12,3.13-8.48,4.43l-3.35-3.02c2.33-.67,4.37-1.47,6.14-2.39,1.76-.92,3.32-1.94,4.68-3.06,1.36-1.12,2.56-2.29,3.62-3.51.91-1.03,1.73-2.18,2.47-3.44.73-1.26,1.37-2.52,1.91-3.78.54-1.26.91-2.39,1.1-3.4h-12.82l1.37-3.24h10.98c.5,0,1-.03,1.48-.09.48-.06.89-.15,1.22-.27l2.95,1.8ZM150.76,30.84c.31.41.65.91,1.01,1.51.36.6.71,1.2,1.04,1.8.34.6.62,1.14.86,1.62l-2.38,1.01c-.36-.72-.8-1.56-1.33-2.52-.53-.96-1.03-1.78-1.51-2.45l2.3-.97ZM154.82,29.29c.33.46.69.98,1.06,1.58s.73,1.19,1.08,1.78c.35.59.63,1.1.85,1.53l-2.34,1.04c-.38-.77-.85-1.62-1.39-2.56-.54-.94-1.06-1.74-1.57-2.41l2.3-.97Z"/><path class="cls-2" d="M191.04,42.69c-.12.19-.23.41-.34.65-.11.24-.19.44-.23.61-.5,1.75-1.18,3.5-2.02,5.26-.84,1.75-1.93,3.36-3.28,4.82-1.85,2.06-3.88,3.7-6.1,4.9-2.22,1.2-4.48,2.12-6.79,2.77l-2.81-3.24c2.62-.55,5-1.39,7.16-2.5,2.16-1.12,3.97-2.44,5.44-3.98,1.03-1.08,1.88-2.26,2.54-3.53.66-1.27,1.15-2.5,1.46-3.67h-18.32c-.43,0-1,.01-1.71.04-.71.02-1.41.06-2.11.11v-3.74c.72.07,1.4.13,2.05.18.65.05,1.24.07,1.76.07h18.43c.5,0,.95-.03,1.35-.09.4-.06.71-.14.95-.23l2.56,1.58ZM167.21,32.79c.48.05,1.03.09,1.64.13.61.04,1.22.05,1.82.05h14c.58,0,1.19-.02,1.85-.05s1.22-.08,1.67-.13v3.71c-.46-.05-1.01-.08-1.66-.09-.65-.01-1.28-.02-1.91-.02h-13.97c-.58,0-1.17,0-1.78.02-.61.01-1.17.04-1.67.09v-3.71Z"/><path class="cls-2" d="M226.43,35.99c-.12.29-.23.62-.34.99-.11.37-.21.74-.31,1.1-.19.91-.44,1.93-.76,3.06-.31,1.13-.69,2.29-1.13,3.49s-.95,2.37-1.53,3.51c-.58,1.14-1.22,2.19-1.94,3.15-1.1,1.42-2.35,2.74-3.73,3.96-1.38,1.22-2.95,2.32-4.7,3.29-1.75.97-3.72,1.81-5.9,2.5l-3.1-3.38c2.38-.58,4.43-1.29,6.16-2.14,1.73-.85,3.23-1.82,4.52-2.92,1.28-1.09,2.42-2.26,3.4-3.51.84-1.06,1.56-2.23,2.16-3.53.6-1.3,1.1-2.6,1.51-3.91.41-1.31.68-2.51.83-3.62h-17.68c-.77,0-1.49.01-2.18.04-.68.02-1.25.06-1.71.11v-4.03c.34.05.73.09,1.19.13.46.04.92.07,1.4.11.48.04.91.05,1.3.05h17.46c.31,0,.68-.02,1.1-.05s.82-.1,1.21-.2l2.77,1.8Z"/></g></svg>