<?xml version="1.0" encoding="UTF-8"?><svg id="_レイヤー_2" xmlns="http://www.w3.org/2000/svg" viewBox="0 0 352 88"><defs><style>.cls-1{fill:#333;}.cls-1,.cls-2,.cls-3{stroke-width:0px;}.cls-2{fill:#fff;}.cls-3{fill:#e3e3e3;}</style></defs><g id="_ツール"><rect class="cls-2" x="1" y="1" width="350" height="86" rx="7" ry="7"/><path class="cls-3" d="M344,2c3.31,0,6,2.69,6,6v72c0,3.31-2.69,6-6,6H8c-3.31,0-6-2.69-6-6V8c0-3.31,2.69-6,6-6h336M344,0H8C3.58,0,0,3.58,0,8v72c0,4.42,3.58,8,8,8h336c4.42,0,8-3.58,8-8V8c0-4.42-3.58-8-8-8h0Z"/><path class="cls-1" d="M138.2,42.04h3.17v27.18h-3.17v-27.18ZM139.82,42.04h9.11v24.08h-9.11v-3.06h5.94v-17.93h-5.94v-3.1ZM140,52.41h7.27v3.02h-7.27v-3.02ZM149.58,50.83h20.88v3.02h-20.88v-3.02ZM149.68,57.49h20.45v2.99h-20.45v-2.99ZM150.94,43.88h18.22v2.95h-18.22v-2.95ZM151.56,62.96l2.74-1.58c.58.6,1.16,1.26,1.76,1.98.6.72,1.15,1.43,1.66,2.14.5.71.89,1.35,1.15,1.93l-2.92,1.76c-.24-.58-.59-1.23-1.06-1.96-.47-.73-.99-1.47-1.57-2.21-.58-.74-1.17-1.43-1.76-2.05ZM162.93,53.53h3.31v15.88c0,.86-.12,1.55-.34,2.05-.23.5-.65.88-1.28,1.12-.62.26-1.42.43-2.38.49-.96.06-2.15.09-3.56.09-.07-.46-.22-.99-.43-1.6-.22-.61-.45-1.15-.68-1.6,1.03.02,1.98.04,2.86.05.88.01,1.46.02,1.75.02.29-.02.49-.08.59-.16.11-.08.16-.26.16-.52v-15.8ZM158.25,39.74h3.35v13h-3.35v-13Z"/><path class="cls-1" d="M181.58,45.75h14.51v2.74h-14.51v-2.74ZM183.24,60.51h2.99v12.24h-2.99v-12.24ZM183.31,50.72h11.41v2.63h-11.41v-2.63ZM183.31,55.58h11.41v2.63h-11.41v-2.63ZM183.49,40.96h11.27v2.66h-11.27v-2.66ZM184.85,60.51h9.76v10.69h-9.76v-2.74h6.73v-5.22h-6.73v-2.74ZM196.02,52.02h19.4v3.35h-19.4v-3.35ZM204.08,39.88h3.46v33.3h-3.46v-33.3Z"/><path class="cls-1" d="M159.22,19.59c-.25.16-.52.32-.81.47-.29.15-.59.31-.91.47-.33.17-.73.38-1.2.61l-1.52.76c-.55.27-1.09.56-1.63.87-.54.31-1.05.61-1.53.92-.88.59-1.58,1.19-2.1,1.82-.52.63-.78,1.31-.78,2.06s.37,1.38,1.12,1.82c.75.44,1.87.66,3.36.66.72,0,1.47-.03,2.26-.09.79-.06,1.55-.14,2.29-.25.74-.11,1.38-.23,1.91-.38l-.02,2.28c-.52.08-1.11.16-1.78.24s-1.38.14-2.15.18c-.77.04-1.58.06-2.43.06-.96,0-1.85-.07-2.67-.22-.82-.15-1.53-.39-2.13-.72-.6-.33-1.07-.78-1.4-1.33s-.5-1.23-.5-2.03.17-1.49.51-2.14.81-1.27,1.41-1.84c.6-.57,1.29-1.12,2.08-1.64.49-.33,1.02-.66,1.58-.98.56-.32,1.11-.63,1.65-.92.54-.29,1.04-.56,1.51-.8.47-.24.86-.45,1.18-.64.32-.19.61-.36.87-.52.26-.16.5-.34.73-.54l1.1,1.82ZM149.12,15.69c.32.85.66,1.69,1.02,2.51s.72,1.58,1.09,2.29c.37.71.7,1.33,1.01,1.88l-1.76,1.04c-.35-.57-.71-1.24-1.08-1.99-.37-.75-.75-1.55-1.14-2.39-.39-.84-.76-1.68-1.12-2.52l1.98-.82Z"/><path class="cls-1" d="M182.79,15.99c-.05.21-.12.46-.2.73-.08.27-.15.51-.2.71-.15.65-.29,1.39-.43,2.22-.14.83-.25,1.69-.34,2.58-.09.89-.12,1.77-.1,2.64.02.87.11,1.67.27,2.4.13-.37.29-.81.48-1.32.19-.51.37-.98.54-1.42l1.04.66c-.17.49-.35,1.03-.52,1.62-.17.59-.33,1.14-.48,1.67-.15.53-.26.96-.34,1.31-.03.16-.05.33-.07.51-.02.18-.03.32-.03.43s0,.23.02.36c.01.13.03.26.04.38l-1.74.2c-.13-.41-.29-.96-.47-1.65-.18-.69-.33-1.44-.45-2.27-.12-.83-.18-1.65-.18-2.48,0-1.09.04-2.15.13-3.16.09-1.01.19-1.94.3-2.77s.21-1.52.29-2.07c.04-.25.07-.51.08-.78.01-.27.02-.51.02-.72l2.34.22ZM185.29,19.71c.31.04.63.08.98.12.35.04.7.07,1.07.08.37.01.73.02,1.09.02.84,0,1.71-.02,2.61-.06.9-.04,1.77-.1,2.62-.19.85-.09,1.6-.2,2.27-.33l-.02,2.04c-.63.09-1.35.17-2.18.24-.83.07-1.69.12-2.6.15-.91.03-1.8.05-2.68.05-.29,0-.63,0-1.01-.02-.38-.01-.76-.03-1.13-.04-.37-.01-.71-.03-1.02-.04v-2.02ZM192.85,15.69c-.03.19-.05.39-.06.6-.01.21-.03.43-.04.66v.77c0,.35,0,.75,0,1.19,0,.44.01.89.02,1.35s0,.88,0,1.27v.94c0,1.16-.03,2.23-.1,3.2-.07.97-.23,1.88-.5,2.72s-.69,1.62-1.27,2.33c-.58.71-1.38,1.38-2.41,2.01l-1.84-1.44c.35-.15.72-.35,1.12-.61.4-.26.73-.52,1-.79.47-.44.84-.9,1.11-1.39.27-.49.48-1.03.62-1.62.14-.59.23-1.25.28-1.98.05-.73.07-1.54.07-2.45,0-.35,0-.78,0-1.3,0-.52-.02-1.06-.04-1.61-.02-.55-.04-1.06-.05-1.53-.01-.47-.03-.82-.04-1.06-.01-.24-.04-.47-.09-.7-.05-.23-.08-.41-.11-.56h2.32Z"/><path class="cls-1" d="M202.25,17.31c-.04.19-.07.41-.1.68-.03.27-.05.53-.07.8-.02.27-.03.49-.03.68,0,.41,0,.87,0,1.38,0,.51.02,1.02.03,1.55s.05,1.05.1,1.57c.11,1.05.27,1.97.48,2.76.21.79.49,1.4.82,1.84.33.44.72.66,1.16.66.25,0,.49-.12.72-.36.23-.24.44-.56.64-.96.2-.4.38-.84.55-1.31.17-.47.31-.93.43-1.37l1.58,1.86c-.43,1.13-.85,2.04-1.27,2.71s-.85,1.16-1.29,1.45c-.44.29-.91.44-1.4.44-.67,0-1.3-.23-1.91-.69s-1.13-1.22-1.57-2.27c-.44-1.05-.75-2.46-.94-4.22-.07-.59-.12-1.22-.15-1.9-.03-.68-.05-1.33-.06-1.94,0-.61,0-1.12,0-1.52,0-.25,0-.56-.03-.93s-.06-.68-.13-.95l2.44.04ZM212.49,17.81c.36.47.71,1.01,1.05,1.63.34.62.65,1.29.93,2.01.28.72.53,1.45.75,2.2.22.75.4,1.49.55,2.22.15.73.25,1.43.3,2.08l-2.06.8c-.08-.87-.21-1.77-.4-2.72s-.43-1.88-.72-2.81c-.29-.93-.64-1.8-1.03-2.62s-.84-1.53-1.35-2.13l1.98-.66Z"/></g></svg>