<?xml version="1.0" encoding="UTF-8"?><svg id="_レイヤー_2" xmlns="http://www.w3.org/2000/svg" viewBox="0 0 354 90"><defs><style>.cls-1{fill:#4577ff;stroke:#4577ff;stroke-miterlimit:10;stroke-width:2px;}.cls-2{fill:#fff;stroke-width:0px;}</style></defs><g id="_ツール"><rect class="cls-1" x="1" y="1" width="352" height="88" rx="8" ry="8"/><path class="cls-2" d="M93.8,69.29h32.54v3.42h-32.54v-3.42ZM95.03,47.51h30.28v3.35h-30.28v-3.35ZM99.78,53.38l3.24-.86c.6,1.54,1.14,3.17,1.62,4.9.48,1.73.88,3.41,1.21,5.06.32,1.64.54,3.13.67,4.45l-3.53.9c-.05-1.3-.22-2.78-.52-4.45-.3-1.67-.68-3.37-1.15-5.11s-.98-3.37-1.53-4.88ZM108.17,40.78h3.56v8.6h-3.56v-8.6ZM116.59,52.33l3.89.72c-.36,1.49-.76,3.02-1.19,4.59-.43,1.57-.88,3.13-1.35,4.68-.47,1.55-.94,3.02-1.4,4.41-.47,1.39-.93,2.64-1.39,3.74l-3.28-.79c.46-1.13.91-2.41,1.35-3.83.44-1.43.88-2.92,1.3-4.48.42-1.56.81-3.11,1.17-4.66.36-1.55.66-3.01.9-4.37Z"/><path class="cls-2" d="M145.25,40.92l3.2.94c-.7,2.04-1.52,4.06-2.46,6.07-.95,2-1.98,3.91-3.1,5.71-1.12,1.8-2.27,3.38-3.47,4.75-.1-.29-.26-.65-.49-1.08-.23-.43-.47-.87-.72-1.31-.25-.44-.49-.8-.7-1.06,1.06-1.15,2.06-2.48,3.02-3.98s1.84-3.11,2.65-4.82c.8-1.72,1.49-3.45,2.07-5.2ZM142.11,50.46l3.24-3.2v26.89h-3.24v-23.69ZM156.12,49.2l2.52.68c-.72,2.45-1.6,4.85-2.65,7.2-1.04,2.35-2.2,4.52-3.47,6.5-1.27,1.98-2.63,3.65-4.07,5.02-.19-.26-.43-.56-.7-.9-.28-.34-.57-.65-.88-.95-.31-.3-.6-.55-.86-.74,1.42-1.18,2.77-2.66,4.05-4.46,1.28-1.8,2.45-3.77,3.51-5.9,1.06-2.14,1.91-4.28,2.56-6.44ZM147.62,47.65h23.51v3.28h-23.51v-3.28ZM151.94,64.68h14.11v3.1h-14.11v-3.1ZM157.34,40.92h3.35v33.05h-3.35v-33.05ZM162.1,49.42c.65,2.09,1.49,4.18,2.52,6.26,1.03,2.09,2.17,4.01,3.42,5.78,1.25,1.76,2.56,3.22,3.92,4.37-.41.31-.86.72-1.37,1.22s-.91.98-1.22,1.44c-1.34-1.34-2.63-3-3.87-4.97-1.24-1.97-2.36-4.1-3.37-6.39-1.01-2.29-1.86-4.63-2.56-7l2.52-.72Z"/><path class="cls-2" d="M184.27,42.4h30.2v31.72h-3.53v-28.44h-23.26v28.44h-3.42v-31.72ZM186.25,69.18h26.1v3.28h-26.1v-3.28ZM205.76,47.9l3.2.83c-1.8,4.61-4.24,8.56-7.33,11.86-3.08,3.3-6.68,5.97-10.78,8.01-.12-.24-.31-.53-.58-.88-.26-.35-.54-.7-.83-1.04-.29-.35-.55-.63-.79-.85,4.03-1.75,7.49-4.14,10.38-7.16,2.89-3.02,5.13-6.61,6.71-10.76ZM189.38,48.98l2.59-1.08c.67.94,1.31,1.98,1.93,3.13s1.05,2.15,1.31,2.99l-2.74,1.26c-.22-.86-.62-1.88-1.21-3.06-.59-1.18-1.22-2.26-1.89-3.24ZM190.03,57.59l1.87-2.3c1.49.6,3.03,1.28,4.63,2.05,1.6.77,3.17,1.58,4.73,2.43,1.56.85,3,1.72,4.32,2.59,1.32.88,2.44,1.71,3.35,2.5l-2.05,2.66c-.86-.79-1.94-1.64-3.24-2.54-1.29-.9-2.71-1.8-4.23-2.7s-3.09-1.75-4.7-2.56c-1.61-.8-3.17-1.52-4.68-2.14ZM196.15,47.8l2.66-.94c.6,1.03,1.15,2.16,1.66,3.38s.84,2.28,1.01,3.17l-2.88,1.04c-.07-.6-.23-1.28-.49-2.03-.25-.76-.55-1.54-.88-2.36-.34-.82-.7-1.57-1.08-2.27Z"/><path class="cls-2" d="M231.79,43.76h3.21v11.81c0,2.26-.12,4.5-.34,6.73s-.73,4.37-1.51,6.43c-.78,2.05-1.97,3.95-3.58,5.71-.17-.24-.4-.51-.7-.81-.3-.3-.61-.59-.94-.86-.32-.28-.63-.49-.92-.63,1.44-1.56,2.5-3.25,3.17-5.06.67-1.81,1.11-3.69,1.31-5.63.2-1.94.31-3.9.31-5.87v-11.81ZM227.29,54.78h19.8v3.17h-19.8v-3.17ZM227.9,42.94h18.72v3.17h-18.72v-3.17ZM240.03,43.8h3.35v30.35h-3.35v-30.35ZM257.68,60.94l3.24,1.26c-1.01,1.68-2.22,3.26-3.64,4.75-1.42,1.49-2.96,2.84-4.63,4.05-1.67,1.21-3.41,2.26-5.24,3.15-.27-.43-.62-.91-1.06-1.44-.44-.53-.89-.96-1.35-1.3,1.73-.74,3.4-1.64,5-2.7,1.61-1.06,3.08-2.25,4.41-3.58,1.33-1.33,2.42-2.73,3.26-4.19ZM256.02,41.32l3.24,1.33c-.89,1.13-1.9,2.23-3.04,3.29-1.14,1.07-2.33,2.06-3.58,2.99-1.25.92-2.5,1.72-3.74,2.39-.29-.36-.65-.77-1.1-1.22-.44-.46-.89-.85-1.35-1.19,1.15-.55,2.33-1.24,3.53-2.05s2.33-1.7,3.4-2.66,1.95-1.92,2.65-2.88ZM256.95,51.25l3.1,1.3c-.91,1.18-1.96,2.33-3.15,3.47-1.19,1.14-2.44,2.2-3.74,3.19-1.31.98-2.6,1.85-3.87,2.59-.26-.36-.62-.77-1.08-1.22-.46-.46-.9-.85-1.33-1.19,1.2-.62,2.43-1.37,3.69-2.23,1.26-.86,2.45-1.81,3.58-2.83,1.13-1.02,2.06-2.05,2.81-3.08Z"/><path class="cls-2" d="M99.18,16.51c-.08.31-.17.68-.26,1.11-.09.43-.18.88-.26,1.35s-.15.92-.21,1.35c-.06.43-.1.81-.13,1.13.23-.45.51-.91.85-1.38.34-.47.74-.89,1.19-1.28.45-.39.95-.7,1.48-.94.53-.24,1.1-.36,1.7-.36.91,0,1.72.28,2.43.85s1.28,1.37,1.69,2.41c.41,1.04.62,2.28.62,3.72s-.21,2.6-.62,3.64c-.41,1.04-1,1.92-1.76,2.64-.76.72-1.67,1.31-2.72,1.77s-2.21.8-3.48,1.03l-1.2-1.82c1.09-.17,2.11-.42,3.04-.73.93-.31,1.75-.74,2.44-1.29.69-.55,1.23-1.25,1.61-2.1.38-.85.57-1.9.57-3.14,0-1.04-.11-1.95-.34-2.72-.23-.77-.56-1.37-1-1.8-.44-.43-.98-.64-1.62-.64s-1.2.2-1.76.6c-.56.4-1.06.91-1.51,1.54-.45.63-.81,1.3-1.08,2.02-.27.72-.44,1.41-.49,2.08-.03.33-.04.68-.03,1.04,0,.36.04.78.11,1.26l-1.96.14c-.04-.37-.09-.84-.14-1.41-.05-.57-.08-1.18-.08-1.83,0-.48.02-1,.06-1.55.04-.55.09-1.12.14-1.7.05-.58.12-1.14.19-1.69.07-.55.14-1.05.19-1.5.05-.35.09-.68.11-1,.02-.32.04-.62.05-.9l2.18.1Z"/><path class="cls-2" d="M112.28,24.21c.29-.05.62-.13.97-.22.35-.09.69-.19,1.01-.28.35-.12.8-.27,1.35-.44.55-.17,1.16-.35,1.83-.53.67-.18,1.34-.33,2.01-.45.67-.12,1.31-.18,1.91-.18,1,0,1.88.19,2.64.56.76.37,1.35.91,1.78,1.6.43.69.64,1.51.64,2.46s-.21,1.79-.63,2.52c-.42.73-1.03,1.37-1.84,1.9s-1.78.96-2.92,1.27c-1.14.31-2.44.52-3.89.61l-.84-1.94c1.11-.04,2.15-.15,3.12-.32.97-.17,1.83-.43,2.57-.78s1.32-.79,1.74-1.34.63-1.19.63-1.94c0-.55-.13-1.03-.4-1.44-.27-.41-.63-.74-1.1-.98-.47-.24-1.02-.36-1.66-.36-.48,0-1.02.06-1.62.18-.6.12-1.22.28-1.85.47-.63.19-1.25.4-1.84.62-.59.22-1.13.42-1.61.61-.48.19-.87.35-1.16.48l-.84-2.08Z"/><path class="cls-2" d="M139.95,19.77c.77,0,1.59-.04,2.46-.12.87-.08,1.75-.19,2.65-.34.9-.15,1.77-.33,2.61-.54v1.98c-.83.19-1.7.35-2.62.48-.92.13-1.82.24-2.7.31-.88.07-1.69.11-2.42.11-.45,0-.87,0-1.25-.02s-.76-.03-1.13-.06l-.04-1.96c.49.05.93.09,1.31.12.38.03.76.04,1.13.04ZM144.67,16.57c-.07.24-.14.54-.21.89-.07.35-.13.63-.17.83-.09.47-.2,1.02-.33,1.67-.13.65-.27,1.32-.44,2.03-.17.71-.34,1.39-.51,2.06-.17.71-.39,1.47-.64,2.3-.25.83-.52,1.66-.81,2.51s-.57,1.65-.86,2.4c-.29.75-.57,1.42-.85,1.99l-2.18-.74c.29-.51.6-1.12.92-1.85.32-.73.63-1.51.94-2.34s.59-1.66.86-2.49c.27-.83.49-1.59.68-2.28.12-.47.24-.96.36-1.47.12-.51.23-1.01.34-1.49.11-.48.19-.93.26-1.35.07-.42.12-.77.16-1.05.05-.32.08-.65.09-.98,0-.33,0-.61,0-.82l2.4.18ZM146.95,27.59c-.07.31-.13.61-.18.91-.05.3-.08.58-.08.83,0,.23.04.44.13.65.09.21.24.39.46.55.22.16.53.29.94.38s.93.14,1.57.14,1.32-.04,2-.11c.68-.07,1.35-.17,2-.29l-.06,2.02c-.56.07-1.17.13-1.83.19-.66.06-1.37.09-2.13.09-1.63,0-2.87-.26-3.73-.78-.86-.52-1.29-1.27-1.29-2.26,0-.43.03-.85.1-1.27s.15-.83.24-1.23l1.86.18ZM146.25,22.65c.55-.05,1.15-.1,1.8-.13.65-.03,1.3-.05,1.94-.05.59,0,1.18,0,1.77.03s1.17.06,1.73.13l-.06,1.92c-.51-.07-1.05-.13-1.63-.18-.58-.05-1.17-.08-1.77-.08-.65,0-1.29.02-1.91.05-.62.03-1.24.09-1.87.17v-1.86Z"/><path class="cls-2" d="M160.33,18.31c-.04.19-.07.41-.1.68-.03.27-.05.53-.07.8-.02.27-.03.49-.03.68,0,.41,0,.87,0,1.38,0,.51.02,1.02.03,1.55.01.53.05,1.05.1,1.57.11,1.05.27,1.97.48,2.76.21.79.49,1.4.82,1.84.33.44.72.66,1.16.66.25,0,.49-.12.72-.36.23-.24.44-.56.64-.96s.38-.84.55-1.31c.17-.47.31-.93.43-1.37l1.58,1.86c-.43,1.13-.85,2.04-1.27,2.71s-.85,1.16-1.29,1.45c-.44.29-.91.44-1.4.44-.67,0-1.3-.23-1.91-.69-.61-.46-1.13-1.22-1.57-2.27-.44-1.05-.75-2.46-.94-4.22-.07-.59-.12-1.22-.15-1.9-.03-.68-.05-1.33-.06-1.94,0-.61,0-1.12,0-1.52,0-.25,0-.56-.03-.93-.02-.37-.06-.68-.13-.95l2.44.04ZM170.57,18.81c.36.47.71,1.01,1.05,1.63.34.62.65,1.29.93,2.01.28.72.53,1.45.75,2.2s.4,1.49.55,2.22c.15.73.25,1.43.3,2.08l-2.06.8c-.08-.87-.21-1.77-.4-2.72-.19-.95-.43-1.88-.72-2.81s-.64-1.8-1.03-2.62c-.39-.82-.84-1.53-1.35-2.13l1.98-.66Z"/><path class="cls-2" d="M191.76,19.35c.56,0,1.2,0,1.92-.03.72-.02,1.48-.04,2.27-.06s1.59-.04,2.38-.05c.79-.01,1.55-.02,2.27-.03.72,0,1.37-.01,1.94-.01s1.14,0,1.74,0c.6,0,1.17,0,1.72,0s1.04,0,1.48,0c.44,0,.79,0,1.06,0l-.02,1.88c-.59-.03-1.37-.05-2.35-.08-.98-.03-2.2-.04-3.67-.04-.89,0-1.81,0-2.74.03-.93.02-1.87.05-2.8.08-.93.03-1.84.07-2.71.11-.87.04-1.69.09-2.45.14l-.04-1.94ZM202.4,25.21c0,.97-.13,1.79-.39,2.44s-.63,1.14-1.12,1.47c-.49.33-1.07.49-1.75.49-.41,0-.82-.08-1.21-.23-.39-.15-.75-.38-1.08-.67-.33-.29-.59-.66-.78-1.09-.19-.43-.29-.94-.29-1.51,0-.71.17-1.33.51-1.86.34-.53.79-.95,1.36-1.26.57-.31,1.19-.46,1.87-.46.81,0,1.5.18,2.05.55.55.37.97.87,1.25,1.5.28.63.42,1.35.42,2.15,0,.67-.1,1.35-.3,2.05-.2.7-.53,1.38-1,2.03-.47.65-1.1,1.25-1.89,1.78-.79.53-1.78.97-2.97,1.32l-1.68-1.66c.88-.2,1.68-.45,2.4-.76.72-.31,1.34-.69,1.87-1.15.53-.46.93-1.01,1.21-1.64.28-.63.42-1.38.42-2.23,0-.79-.18-1.36-.53-1.73s-.78-.55-1.29-.55c-.31,0-.6.07-.87.22-.27.15-.5.36-.67.64-.17.28-.26.63-.26,1.04,0,.55.18.98.55,1.3s.78.48,1.25.48c.39,0,.72-.11.99-.33.27-.22.46-.57.57-1.04.11-.47.08-1.08-.08-1.83l1.44.54ZM202.66,16.69c0,.09-.01.24-.03.44-.02.2-.04.4-.05.59-.01.19-.02.34-.02.43-.01.27-.02.62-.03,1.06,0,.44,0,.93,0,1.46s0,1.07,0,1.61.01,1.05.02,1.53c0,.48.01.88.01,1.2l-1.94-.8v-2.26c0-.49,0-.99,0-1.49s-.02-.95-.03-1.36c-.01-.41-.03-.72-.04-.93-.03-.33-.05-.64-.08-.91-.03-.27-.05-.46-.08-.57h2.28ZM205.36,16.21c.24.35.49.74.76,1.18.27.44.49.84.68,1.2l-1.36.6c-.21-.4-.44-.81-.68-1.24s-.49-.82-.76-1.18l1.36-.56ZM207.9,15.67c.24.35.49.73.76,1.16.27.43.5.83.7,1.2l-1.38.6c-.2-.41-.43-.83-.68-1.25-.25-.42-.51-.8-.76-1.15l1.36-.56Z"/><path class="cls-2" d="M227.91,16.99c-.05.21-.12.46-.2.73-.08.27-.15.51-.2.71-.15.65-.29,1.39-.43,2.22-.14.83-.25,1.69-.34,2.58-.09.89-.12,1.77-.1,2.64.02.87.11,1.67.27,2.4.13-.37.29-.81.48-1.32.19-.51.37-.98.54-1.42l1.04.66c-.17.49-.35,1.03-.52,1.62-.17.59-.33,1.14-.48,1.67-.15.53-.26.96-.34,1.31-.03.16-.05.33-.07.51-.02.18-.03.32-.03.43s0,.23.02.36c.01.13.03.26.04.38l-1.74.2c-.13-.41-.29-.96-.47-1.65-.18-.69-.33-1.44-.45-2.27-.12-.83-.18-1.65-.18-2.48,0-1.09.04-2.15.13-3.16.09-1.01.19-1.94.3-2.77s.21-1.52.29-2.07c.04-.25.07-.51.08-.78.01-.27.02-.51.02-.72l2.34.22ZM230.41,20.71c.31.04.63.08.98.12.35.04.7.07,1.07.08.37.01.73.02,1.09.02.84,0,1.71-.02,2.61-.06.9-.04,1.77-.1,2.62-.19.85-.09,1.6-.2,2.27-.33l-.02,2.04c-.63.09-1.35.17-2.18.24-.83.07-1.69.12-2.6.15-.91.03-1.8.05-2.68.05-.29,0-.63,0-1.01-.02-.38-.01-.76-.03-1.13-.04-.37-.01-.71-.03-1.02-.04v-2.02ZM237.97,16.69c-.03.19-.05.39-.06.6-.01.21-.03.43-.04.66v.77c0,.35,0,.75,0,1.19,0,.44.01.89.02,1.35s0,.88,0,1.27v.94c0,1.16-.03,2.23-.1,3.2-.07.97-.23,1.88-.5,2.72s-.69,1.62-1.27,2.33c-.58.71-1.38,1.38-2.41,2.01l-1.84-1.44c.35-.15.72-.35,1.12-.61.4-.26.73-.52,1-.79.47-.44.84-.9,1.11-1.39.27-.49.48-1.03.62-1.62.14-.59.23-1.25.28-1.98.05-.73.07-1.54.07-2.45,0-.35,0-.78,0-1.3,0-.52-.02-1.06-.04-1.61-.02-.55-.04-1.06-.05-1.53-.01-.47-.03-.82-.04-1.06-.01-.24-.04-.47-.09-.7-.05-.23-.08-.41-.11-.56h2.32Z"/><path class="cls-2" d="M247.37,18.31c-.04.19-.07.41-.1.68-.03.27-.05.53-.07.8-.02.27-.03.49-.03.68,0,.41,0,.87,0,1.38,0,.51.02,1.02.03,1.55s.05,1.05.1,1.57c.11,1.05.27,1.97.48,2.76.21.79.49,1.4.82,1.84.33.44.72.66,1.16.66.25,0,.49-.12.72-.36.23-.24.44-.56.64-.96.2-.4.38-.84.55-1.31.17-.47.31-.93.43-1.37l1.58,1.86c-.43,1.13-.85,2.04-1.27,2.71s-.85,1.16-1.29,1.45c-.44.29-.91.44-1.4.44-.67,0-1.3-.23-1.91-.69s-1.13-1.22-1.57-2.27c-.44-1.05-.75-2.46-.94-4.22-.07-.59-.12-1.22-.15-1.9-.03-.68-.05-1.33-.06-1.94,0-.61,0-1.12,0-1.52,0-.25,0-.56-.03-.93s-.06-.68-.13-.95l2.44.04ZM257.61,18.81c.36.47.71,1.01,1.05,1.63.34.62.65,1.29.93,2.01.28.72.53,1.45.75,2.2.22.75.4,1.49.55,2.22.15.73.25,1.43.3,2.08l-2.06.8c-.08-.87-.21-1.77-.4-2.72s-.43-1.88-.72-2.81c-.29-.93-.64-1.8-1.03-2.62s-.84-1.53-1.35-2.13l1.98-.66Z"/></g></svg>