<?xml version="1.0" encoding="UTF-8"?><svg id="_レイヤー_2" xmlns="http://www.w3.org/2000/svg" viewBox="0 0 354 90"><defs><style>.cls-1{fill:#4577ff;stroke:#4577ff;stroke-miterlimit:10;stroke-width:2px;}.cls-2{fill:#fff;stroke-width:0px;}</style></defs><g id="_ツール"><rect class="cls-1" x="1" y="1" width="352" height="88" rx="8" ry="8"/><path class="cls-2" d="M156.19,42.18c-.05.22-.08.49-.11.81-.03.32-.05.66-.09,1.01-.04.35-.07.67-.09.95-.02.62-.05,1.36-.09,2.21-.04.85-.07,1.78-.11,2.77-.04,1-.06,1.99-.07,2.99-.01,1-.02,1.95-.02,2.86s.01,1.98.04,3.13c.02,1.15.05,2.29.07,3.4.02,1.12.05,2.15.07,3.1.02.95.04,1.7.04,2.25,0,1.27-.15,2.27-.45,2.99-.3.72-.71,1.22-1.22,1.51-.52.29-1.13.43-1.85.43-.77,0-1.61-.17-2.52-.5-.91-.34-1.78-.79-2.59-1.37-.82-.58-1.49-1.25-2.02-2.02-.53-.77-.79-1.58-.79-2.45,0-1.1.43-2.2,1.28-3.29.85-1.09,1.97-2.09,3.37-3.01,1.39-.91,2.87-1.66,4.43-2.23,1.63-.6,3.3-1.06,5-1.37,1.7-.31,3.25-.47,4.64-.47,1.8,0,3.41.3,4.82.9s2.53,1.46,3.35,2.59c.82,1.13,1.22,2.46,1.22,4,0,1.42-.28,2.69-.85,3.82-.56,1.13-1.42,2.09-2.57,2.88-1.15.79-2.61,1.4-4.36,1.84-.82.17-1.61.29-2.39.36-.78.07-1.51.13-2.18.18l-1.3-3.67c.72.02,1.45.02,2.2,0,.74-.02,1.45-.11,2.12-.25,1.01-.19,1.94-.5,2.81-.92s1.55-.98,2.07-1.69c.52-.71.77-1.57.77-2.57,0-.94-.25-1.72-.76-2.36-.5-.64-1.19-1.12-2.05-1.46-.86-.34-1.85-.5-2.95-.5-1.56,0-3.11.16-4.64.49-1.54.32-3.05.77-4.54,1.35-1.1.43-2.11.95-3.02,1.55-.91.6-1.63,1.22-2.16,1.85-.53.64-.79,1.24-.79,1.82,0,.36.12.7.36,1.03.24.32.53.61.88.85.35.24.71.43,1.1.58.38.14.73.22,1.04.22.36,0,.65-.13.88-.38.23-.25.34-.68.34-1.28,0-.67-.02-1.62-.05-2.84-.04-1.22-.07-2.57-.09-4.05s-.04-2.9-.04-4.27c0-1.03,0-2.11.02-3.22.01-1.12.02-2.19.04-3.22.01-1.03.02-1.94.04-2.74.01-.79.02-1.37.02-1.73,0-.26-.01-.58-.04-.94-.03-.36-.05-.71-.07-1.06-.02-.35-.06-.63-.11-.85h3.96ZM145.14,48.41c1.03.12,1.92.2,2.66.23.74.04,1.45.05,2.12.05.89,0,1.9-.05,3.02-.14,1.13-.1,2.27-.22,3.44-.36,1.16-.14,2.3-.33,3.42-.56s2.13-.47,3.04-.74l.07,3.53c-.96.22-2.02.42-3.19.61-1.16.19-2.34.37-3.53.52-1.19.16-2.32.28-3.38.36-1.07.08-2.01.13-2.83.13-1.08,0-1.99-.02-2.74-.05s-1.42-.08-2.02-.13l-.11-3.46ZM166.95,46.14c.89.43,1.88.97,2.97,1.6,1.09.64,2.14,1.27,3.13,1.91,1,.64,1.79,1.19,2.39,1.67l-1.76,2.88c-.43-.41-1-.85-1.71-1.33-.71-.48-1.46-.97-2.27-1.48-.8-.5-1.58-.98-2.34-1.42-.76-.44-1.42-.81-2-1.1l1.58-2.74Z"/><path class="cls-2" d="M194.85,44.02c-.98,1.42-2.24,2.87-3.76,4.37-1.52,1.5-3.22,2.93-5.08,4.3-1.86,1.37-3.8,2.58-5.81,3.64-.12-.26-.3-.56-.54-.9-.24-.34-.5-.67-.77-.99-.28-.32-.53-.61-.77-.85,2.06-1.03,4.06-2.27,5.98-3.71,1.92-1.44,3.65-2.96,5.18-4.57,1.54-1.61,2.76-3.14,3.67-4.61h3.49c.96,1.32,2.05,2.6,3.26,3.83,1.21,1.24,2.5,2.39,3.85,3.47,1.36,1.08,2.75,2.06,4.2,2.93,1.44.88,2.87,1.61,4.28,2.21-.41.41-.81.89-1.21,1.44-.4.55-.74,1.08-1.03,1.58-1.39-.72-2.79-1.55-4.21-2.48-1.42-.94-2.79-1.94-4.12-3.02s-2.56-2.18-3.69-3.31c-1.13-1.13-2.1-2.24-2.92-3.35ZM179.66,70.12h30.71v2.99h-30.71v-2.99ZM181.39,58.96h27.11v2.95h-27.11v-2.95ZM184.06,63.56l2.77-1.12c.48.62.95,1.31,1.4,2.05.46.74.86,1.48,1.22,2.21.36.73.61,1.4.76,2l-2.92,1.3c-.14-.6-.38-1.27-.72-2.02-.34-.74-.72-1.51-1.15-2.29-.43-.78-.89-1.49-1.37-2.14ZM185.93,51.65h18.07v3.02h-18.07v-3.02ZM193.02,52.84h3.6v18.79h-3.6v-18.79ZM202.67,62.41l3.24,1.22c-.7,1.13-1.44,2.27-2.21,3.42-.78,1.15-1.49,2.14-2.14,2.95l-2.59-1.12c.43-.58.88-1.24,1.33-2,.46-.76.89-1.53,1.31-2.32s.77-1.51,1.06-2.16Z"/><path class="cls-2" d="M176.52,20.99c.33.01.66.02.97.02s.64,0,.97-.02c.32-.01.71-.04,1.18-.07.47-.03.97-.07,1.51-.12s1.08-.09,1.62-.14c.54-.05,1.04-.08,1.49-.11.45-.03.82-.04,1.1-.04.65,0,1.23.1,1.74.31.51.21.91.57,1.21,1.09.3.52.45,1.25.45,2.18,0,.79-.03,1.64-.1,2.55-.07.91-.18,1.79-.35,2.62-.17.83-.4,1.53-.69,2.09-.32.69-.74,1.16-1.25,1.39-.51.23-1.12.35-1.83.35-.37,0-.78-.03-1.22-.08-.44-.05-.83-.12-1.16-.2l-.32-2.08c.27.07.56.13.87.2.31.07.61.12.89.15.28.03.51.05.68.05.36,0,.68-.06.95-.19.27-.13.5-.38.69-.77.2-.41.37-.95.5-1.6s.23-1.35.3-2.1.1-1.47.1-2.16c0-.59-.08-1.02-.25-1.3-.17-.28-.4-.47-.71-.57-.31-.1-.67-.15-1.08-.15-.32,0-.76.02-1.31.07-.55.05-1.14.1-1.77.17s-1.21.13-1.74.19-.95.11-1.26.15c-.25.03-.58.07-.97.12-.39.05-.73.11-1.01.16l-.2-2.16ZM184.12,16.73c-.04.2-.09.43-.14.68-.05.25-.1.49-.14.7-.05.27-.12.6-.19.99-.07.39-.15.8-.23,1.22-.08.42-.17.82-.26,1.21-.13.56-.3,1.21-.5,1.94s-.43,1.52-.69,2.35-.55,1.68-.88,2.54c-.33.86-.68,1.7-1.06,2.52-.38.82-.79,1.58-1.23,2.29l-2.06-.82c.47-.63.9-1.32,1.3-2.09s.77-1.56,1.1-2.38c.33-.82.63-1.63.9-2.43s.5-1.54.69-2.23c.19-.69.34-1.28.45-1.77.19-.85.34-1.71.45-2.56.11-.85.16-1.65.15-2.4l2.34.24ZM191.02,18.75c.31.41.63.93.98,1.56.35.63.69,1.29,1.03,2,.34.71.65,1.39.92,2.04.27.65.49,1.21.65,1.68l-1.98.92c-.13-.53-.32-1.14-.57-1.81-.25-.67-.53-1.36-.84-2.05s-.65-1.35-1-1.97-.7-1.14-1.05-1.57l1.86-.8Z"/><path class="cls-2" d="M201.04,21.57c-.17.01-.43.04-.76.09-.33.05-.7.09-1.1.14-.4.05-.8.1-1.21.16-.41.06-.79.11-1.15.15l-.2-2.04c.25.01.49.02.72,0,.23,0,.49-.02.78-.03s.65-.04,1.07-.09c.42-.05.86-.1,1.31-.17.45-.07.88-.14,1.28-.21.4-.07.71-.15.94-.23l.68.84c-.12.16-.26.36-.41.6-.15.24-.31.48-.46.72-.15.24-.28.45-.39.64l-.86,3.16c-.23.35-.5.76-.83,1.23-.33.47-.67.98-1.03,1.51s-.72,1.05-1.07,1.56c-.35.51-.68.96-.97,1.36l-1.24-1.72c.25-.31.55-.68.88-1.12.33-.44.69-.91,1.06-1.41.37-.5.74-.99,1.09-1.48.35-.49.68-.94.97-1.37s.53-.78.7-1.06l.06-.8.14-.44ZM200.85,18.01v-.8c0-.28-.03-.55-.08-.82l2.32.08c-.05.28-.12.71-.2,1.28-.08.57-.16,1.24-.25,2-.09.76-.17,1.56-.24,2.4-.07.84-.13,1.67-.17,2.5-.04.83-.06,1.59-.06,2.3v1.66c0,.53,0,1.07.03,1.6.02.53.04,1.11.07,1.72.01.17.03.39.05.65.02.26.04.5.05.71h-2.16c.01-.17.03-.4.04-.67.01-.27.02-.49.02-.65,0-.64,0-1.22,0-1.75,0-.53.01-1.07.02-1.64,0-.57.02-1.24.05-2.01,0-.31.01-.71.04-1.2.03-.49.06-1.04.1-1.64.04-.6.08-1.21.12-1.82.04-.61.08-1.19.11-1.74.03-.55.06-1.01.09-1.4.03-.39.04-.64.04-.76ZM213.69,31.85c-.59-.69-1.19-1.3-1.8-1.81-.61-.51-1.25-.91-1.9-1.19-.65-.28-1.33-.42-2.04-.42-.31,0-.6.05-.87.15-.27.1-.5.24-.67.42-.17.18-.26.4-.26.67,0,.47.19.8.56,1.01.37.21.81.31,1.32.31.57,0,1.05-.16,1.42-.47.37-.31.67-.75.88-1.31.21-.56.36-1.22.45-1.97.09-.75.13-1.56.13-2.41,0-.79-.12-1.47-.35-2.05-.23-.58-.55-1.03-.95-1.35-.4-.32-.87-.48-1.42-.48s-1.09.14-1.68.41-1.18.63-1.78,1.07c-.6.44-1.17.92-1.72,1.44s-1.03,1.04-1.46,1.56l.04-2.38c.41-.4.89-.82,1.42-1.27s1.11-.87,1.72-1.27,1.24-.72,1.89-.97c.65-.25,1.28-.37,1.91-.37.92,0,1.7.25,2.34.74.64.49,1.13,1.18,1.46,2.06s.5,1.89.5,3.04-.07,2.23-.22,3.18c-.15.95-.4,1.76-.75,2.45-.35.69-.83,1.21-1.44,1.58s-1.36.55-2.27.55c-.68,0-1.3-.1-1.87-.31-.57-.21-1.02-.53-1.35-.98-.33-.45-.5-1.02-.5-1.73,0-.56.16-1.06.47-1.5.31-.44.75-.78,1.3-1.03.55-.25,1.2-.37,1.93-.37,1.21,0,2.36.28,3.43.83s2.14,1.4,3.19,2.53l-1.06,1.64Z"/></g></svg>