<?xml version="1.0" encoding="UTF-8"?><svg id="_レイヤー_2" xmlns="http://www.w3.org/2000/svg" viewBox="0 0 352 88"><defs><style>.cls-1{fill:#333;}.cls-1,.cls-2,.cls-3{stroke-width:0px;}.cls-2{fill:#fff;}.cls-3{fill:#e3e3e3;}</style></defs><g id="_ツール"><rect class="cls-2" x="1" y="1" width="350" height="86" rx="7" ry="7"/><path class="cls-3" d="M344,2c3.31,0,6,2.69,6,6v72c0,3.31-2.69,6-6,6H8c-3.31,0-6-2.69-6-6V8c0-3.31,2.69-6,6-6h336M344,0H8C3.58,0,0,3.58,0,8v72c0,4.42,3.58,8,8,8h336c4.42,0,8-3.58,8-8V8c0-4.42-3.58-8-8-8h0Z"/><path class="cls-1" d="M88.66,50.86h3.06v7.85c0,1.01-.04,2.1-.11,3.28-.07,1.18-.2,2.37-.38,3.58-.18,1.21-.44,2.39-.79,3.55s-.8,2.18-1.35,3.1c-.17-.22-.4-.46-.7-.72-.3-.26-.61-.53-.92-.79-.31-.26-.58-.46-.79-.58.62-1.13,1.07-2.35,1.35-3.67.28-1.32.45-2.65.52-4,.07-1.34.11-2.59.11-3.74v-7.85ZM87.98,43.3h15.73v2.84h-15.73v-2.84ZM89.6,50.86h14.29v2.84h-14.29v-2.84ZM90.57,46.69l2.7-.58c.29.67.55,1.41.79,2.21.24.8.38,1.49.43,2.07l-2.84.68c-.05-.58-.17-1.28-.38-2.11-.2-.83-.44-1.59-.7-2.29ZM101.01,63.97l2.84.97c-.74,1.18-1.67,2.24-2.77,3.2-1.1.96-2.33,1.82-3.69,2.57-1.36.76-2.79,1.4-4.3,1.93-.22-.36-.5-.76-.85-1.19-.35-.43-.7-.79-1.06-1.08,2.06-.62,3.98-1.49,5.76-2.59,1.78-1.1,3.13-2.38,4.07-3.82ZM99.1,54.1l2.59,1.08c-.67.65-1.45,1.25-2.32,1.82-.88.56-1.79,1.08-2.75,1.55-.96.47-1.9.87-2.81,1.21-.24-.31-.54-.65-.9-1.01-.36-.36-.72-.67-1.08-.94.86-.26,1.75-.59,2.66-.97.91-.38,1.78-.81,2.59-1.28.82-.47,1.49-.95,2.02-1.46ZM100,58.93l2.63,1.08c-.72.77-1.56,1.51-2.52,2.21-.96.71-1.97,1.34-3.02,1.91-1.06.56-2.12,1.06-3.21,1.49-.21-.31-.5-.66-.86-1.04-.36-.38-.71-.71-1.04-.97.98-.34,1.97-.75,2.97-1.24,1-.49,1.94-1.03,2.84-1.62.9-.59,1.64-1.19,2.21-1.82ZM94.31,40.03h3.31v5.04h-3.31v-5.04ZM98.81,45.97l3.06.61c-.31.79-.59,1.57-.85,2.34-.25.77-.5,1.44-.74,2.02l-2.77-.61c.24-.62.48-1.35.72-2.18.24-.83.43-1.55.58-2.18ZM108.21,66.45l2.88,1.76c-.6.62-1.32,1.25-2.16,1.89-.84.64-1.72,1.22-2.65,1.76s-1.82,1-2.68,1.39c-.26-.31-.62-.68-1.08-1.1-.46-.42-.86-.77-1.22-1.06.89-.36,1.77-.8,2.65-1.31.88-.52,1.69-1.07,2.45-1.66.76-.59,1.36-1.15,1.82-1.67ZM104,41.32h16.34v2.92h-16.34v-2.92ZM105.04,47.23h14.65v18.97h-14.65v-18.97ZM108,49.82v2.92h8.6v-2.92h-8.6ZM108,55.18v2.99h8.6v-2.99h-8.6ZM108,60.62v2.99h8.6v-2.99h-8.6ZM110.66,42.84l3.56.43c-.26,1.03-.56,2.07-.88,3.11s-.63,1.95-.92,2.72l-2.77-.5c.14-.55.28-1.16.41-1.84s.25-1.36.36-2.05c.11-.7.19-1.32.23-1.87ZM113.18,68.29l2.52-1.66c.65.46,1.33.97,2.03,1.53.71.56,1.39,1.12,2.03,1.67.65.55,1.18,1.06,1.58,1.51l-2.66,1.84c-.38-.46-.88-.97-1.49-1.55-.61-.58-1.27-1.15-1.98-1.73-.71-.58-1.38-1.12-2.03-1.62Z"/><path class="cls-1" d="M155.91,45.82c-.17.19-.37.44-.59.74-.23.3-.43.56-.59.77-.5.89-1.21,1.93-2.11,3.13-.9,1.2-1.92,2.41-3.06,3.62-1.14,1.21-2.36,2.27-3.65,3.19l-2.99-2.41c.79-.46,1.57-1,2.32-1.64.76-.64,1.46-1.3,2.12-2,.66-.7,1.24-1.37,1.75-2.03.5-.66.89-1.25,1.15-1.78h-19.73c-.72,0-1.42.02-2.09.05-.67.04-1.39.09-2.16.16v-4c.67.07,1.37.14,2.09.22.72.07,1.44.11,2.16.11h20.12c.26,0,.59,0,.99-.02.4-.01.78-.04,1.15-.09.37-.05.65-.1.85-.14l2.27,2.12ZM141.37,50.61c0,1.87-.05,3.65-.14,5.33-.1,1.68-.32,3.27-.67,4.77-.35,1.5-.88,2.9-1.6,4.21-.72,1.31-1.69,2.54-2.92,3.69-1.22,1.15-2.78,2.21-4.68,3.17l-3.31-2.7c.53-.17,1.1-.4,1.71-.7.61-.3,1.19-.65,1.75-1.06,1.29-.84,2.34-1.75,3.13-2.74.79-.98,1.39-2.05,1.78-3.19.4-1.14.67-2.37.83-3.69.16-1.32.23-2.72.23-4.21,0-.48-.01-.95-.04-1.4s-.08-.95-.18-1.48h4.1Z"/><path class="cls-1" d="M160.73,56.73c3.17-.84,6.08-1.84,8.73-3.01,2.65-1.16,4.97-2.37,6.97-3.62,1.27-.77,2.51-1.63,3.73-2.59,1.21-.96,2.36-1.96,3.44-2.99,1.08-1.03,2.03-2.03,2.84-2.99l3.02,2.88c-1.06,1.08-2.2,2.15-3.42,3.2-1.22,1.06-2.51,2.07-3.87,3.04-1.36.97-2.74,1.89-4.16,2.75-1.32.82-2.82,1.64-4.5,2.47s-3.46,1.62-5.33,2.38-3.77,1.43-5.69,2.03l-1.76-3.56ZM175.78,51.98l4-1.04v16.31c0,.48,0,1,.02,1.57.01.56.04,1.09.07,1.57.04.48.09.85.16,1.12h-4.46c.02-.26.06-.64.11-1.12.05-.48.08-1,.09-1.57.01-.56.02-1.09.02-1.57v-15.26Z"/><path class="cls-1" d="M199.51,64.83c.53.02,1.16.06,1.91.11.74.05,1.5.07,2.27.07h19.37v3.74h-19.22c-.72,0-1.49.01-2.3.04-.82.02-1.49.06-2.02.11v-4.07ZM199.94,45.1c.65.05,1.36.1,2.12.14.77.05,1.45.07,2.05.07h17.89c.48,0,1,0,1.57-.02.56-.01,1-.03,1.31-.05-.02.41-.04.89-.05,1.46-.01.56-.02,1.09-.02,1.57v18.61c0,.62.02,1.31.05,2.07.04.76.07,1.34.09,1.75h-4.1c0-.41.01-.92.04-1.53.02-.61.04-1.24.04-1.89v-18.32h-16.81c-.7,0-1.45.01-2.27.04-.82.02-1.45.06-1.91.11v-4Z"/><path class="cls-1" d="M234.68,67.42c2.02-.31,3.88-.73,5.58-1.24,1.7-.52,3.27-1.1,4.7-1.76,1.43-.66,2.72-1.34,3.87-2.03,1.92-1.18,3.69-2.53,5.31-4.07,1.62-1.54,3.04-3.12,4.27-4.75,1.22-1.63,2.2-3.22,2.92-4.75l2.2,3.92c-.86,1.56-1.93,3.12-3.19,4.68-1.26,1.56-2.68,3.05-4.27,4.48-1.58,1.43-3.31,2.72-5.18,3.87-1.2.74-2.51,1.46-3.94,2.16-1.43.7-2.96,1.32-4.61,1.87-1.64.55-3.39,1-5.24,1.33l-2.41-3.71ZM238.39,43.34c.65.43,1.39.97,2.23,1.6s1.7,1.31,2.57,2.03c.88.72,1.71,1.42,2.5,2.09.79.67,1.43,1.27,1.91,1.8l-2.84,2.92c-.46-.48-1.06-1.06-1.8-1.75s-1.54-1.39-2.39-2.12c-.85-.73-1.7-1.43-2.54-2.09s-1.6-1.22-2.27-1.67l2.63-2.81Z"/><path class="cls-1" d="M87.45,19.99c.33.01.66.02.97.02s.64,0,.97-.02c.32-.01.71-.04,1.18-.07.47-.03.97-.07,1.51-.12.54-.05,1.08-.09,1.62-.14.54-.05,1.04-.08,1.49-.11s.82-.04,1.1-.04c.65,0,1.23.1,1.74.31.51.21.91.57,1.21,1.09.3.52.45,1.25.45,2.18,0,.79-.03,1.64-.1,2.55-.07.91-.18,1.79-.35,2.62-.17.83-.4,1.53-.69,2.09-.32.69-.74,1.16-1.25,1.39-.51.23-1.12.35-1.83.35-.37,0-.78-.03-1.22-.08-.44-.05-.83-.12-1.16-.2l-.32-2.08c.27.07.56.13.87.2.31.07.61.12.89.15.28.03.51.05.68.05.36,0,.68-.06.95-.19.27-.13.5-.38.69-.77.2-.41.37-.95.5-1.6s.23-1.35.3-2.1c.07-.75.1-1.47.1-2.16,0-.59-.08-1.02-.25-1.3-.17-.28-.4-.47-.71-.57-.31-.1-.67-.15-1.08-.15-.32,0-.76.02-1.31.07-.55.05-1.14.1-1.77.17-.63.07-1.21.13-1.74.19s-.95.11-1.26.15c-.25.03-.58.07-.97.12-.39.05-.73.11-1.01.16l-.2-2.16ZM95.05,15.73c-.04.2-.09.43-.14.68-.05.25-.1.49-.14.7-.05.27-.12.6-.19.99-.07.39-.15.8-.23,1.22s-.17.82-.26,1.21c-.13.56-.3,1.21-.5,1.94s-.43,1.52-.69,2.35c-.26.83-.55,1.68-.88,2.54-.33.86-.68,1.7-1.06,2.52-.38.82-.79,1.58-1.23,2.29l-2.06-.82c.47-.63.9-1.32,1.3-2.09s.77-1.56,1.1-2.38c.33-.82.63-1.63.9-2.43s.5-1.54.69-2.23c.19-.69.34-1.28.45-1.77.19-.85.34-1.71.45-2.56.11-.85.16-1.65.15-2.4l2.34.24ZM101.95,17.75c.31.41.63.93.98,1.56.35.63.69,1.29,1.03,2,.34.71.65,1.39.92,2.04.27.65.49,1.21.65,1.68l-1.98.92c-.13-.53-.32-1.14-.57-1.81-.25-.67-.53-1.36-.84-2.05s-.65-1.35-1-1.97c-.35-.62-.7-1.14-1.05-1.57l1.86-.8Z"/><path class="cls-1" d="M114.53,15.31c-.03.12-.05.27-.06.45-.01.18-.03.37-.05.56s-.04.37-.05.53c-.01.35-.03.76-.05,1.23-.02.47-.04.99-.06,1.54-.02.55-.03,1.11-.04,1.66s0,1.08,0,1.59,0,1.1.02,1.74c.01.64.03,1.27.04,1.89.01.62.03,1.19.04,1.72.01.53.02.94.02,1.25,0,.71-.08,1.26-.25,1.66-.17.4-.39.68-.68.84-.29.16-.63.24-1.03.24-.43,0-.89-.09-1.4-.28-.51-.19-.99-.44-1.44-.76-.45-.32-.83-.69-1.12-1.12-.29-.43-.44-.88-.44-1.36,0-.61.24-1.22.71-1.83.47-.61,1.1-1.16,1.87-1.67.77-.51,1.59-.92,2.46-1.24.91-.33,1.83-.59,2.78-.76.95-.17,1.81-.26,2.58-.26,1,0,1.89.17,2.68.5.79.33,1.41.81,1.86,1.44.45.63.68,1.37.68,2.22,0,.79-.16,1.49-.47,2.12-.31.63-.79,1.16-1.43,1.6-.64.44-1.45.78-2.42,1.02-.45.09-.9.16-1.33.2s-.84.07-1.21.1l-.72-2.04c.4.01.81.01,1.22,0,.41-.01.81-.06,1.18-.14.56-.11,1.08-.28,1.56-.51.48-.23.86-.55,1.15-.94.29-.39.43-.87.43-1.43,0-.52-.14-.96-.42-1.31-.28-.35-.66-.62-1.14-.81-.48-.19-1.03-.28-1.64-.28-.87,0-1.73.09-2.58.27-.85.18-1.69.43-2.52.75-.61.24-1.17.53-1.68.86-.51.33-.91.68-1.2,1.03-.29.35-.44.69-.44,1.01,0,.2.07.39.2.57s.3.34.49.47.4.24.61.32c.21.08.41.12.58.12.2,0,.36-.07.49-.21.13-.14.19-.38.19-.71,0-.37,0-.9-.03-1.58-.02-.68-.04-1.43-.05-2.25-.01-.82-.02-1.61-.02-2.37,0-.57,0-1.17.01-1.79,0-.62.01-1.22.02-1.79,0-.57.01-1.08.02-1.52,0-.44,0-.76,0-.96,0-.15,0-.32-.02-.52s-.03-.4-.04-.59-.03-.35-.06-.47h2.2ZM108.39,18.77c.57.07,1.07.11,1.48.13.41.02.81.03,1.18.03.49,0,1.05-.03,1.68-.08.63-.05,1.26-.12,1.91-.2.65-.08,1.28-.18,1.9-.31.62-.13,1.18-.26,1.69-.41l.04,1.96c-.53.12-1.12.23-1.77.34-.65.11-1.3.2-1.96.29-.66.09-1.29.15-1.88.2-.59.05-1.12.07-1.57.07-.6,0-1.11,0-1.52-.03-.41-.02-.79-.04-1.12-.07l-.06-1.92ZM120.51,17.51c.49.24,1.04.54,1.65.89.61.35,1.19.71,1.74,1.06.55.35,1,.66,1.33.93l-.98,1.6c-.24-.23-.56-.47-.95-.74-.39-.27-.81-.54-1.26-.82-.45-.28-.88-.54-1.3-.79-.42-.25-.79-.45-1.11-.61l.88-1.52Z"/></g></svg>