<?xml version="1.0" encoding="UTF-8"?><svg id="_レイヤー_2" xmlns="http://www.w3.org/2000/svg" viewBox="0 0 352 88"><defs><style>.cls-1{fill:#333;}.cls-1,.cls-2,.cls-3{stroke-width:0px;}.cls-2{fill:#fff;}.cls-3{fill:#e3e3e3;}</style></defs><g id="_ツール"><rect class="cls-2" x="1" y="1" width="350" height="86" rx="7" ry="7"/><path class="cls-3" d="M344,2c3.31,0,6,2.69,6,6v72c0,3.31-2.69,6-6,6H8c-3.31,0-6-2.69-6-6V8c0-3.31,2.69-6,6-6h336M344,0H8C3.58,0,0,3.58,0,8v72c0,4.42,3.58,8,8,8h336c4.42,0,8-3.58,8-8V8c0-4.42-3.58-8-8-8h0Z"/><path class="cls-1" d="M120.13,47.19h3.46v9.43c0,1.22-.12,2.46-.34,3.71-.23,1.25-.65,2.47-1.28,3.67-.62,1.2-1.52,2.35-2.7,3.46-1.18,1.1-2.69,2.14-4.55,3.1-1.86.96-4.15,1.84-6.86,2.63-.12-.24-.3-.53-.54-.86-.24-.34-.5-.67-.77-1.01-.28-.34-.53-.62-.77-.86,2.62-.67,4.79-1.42,6.53-2.25s3.13-1.7,4.18-2.63,1.83-1.89,2.36-2.9c.53-1.01.88-2.03,1.04-3.06.17-1.03.25-2.05.25-3.06v-9.36ZM106.27,61.05h31.68v2.95h-31.68v-2.95ZM106.7,43.16h30.6v7.31h-3.53v-4.32h-23.72v4.32h-3.35v-7.31ZM109.79,49.78h24.66v2.77h-24.66v-2.77ZM110.37,55.33h23.51v2.81h-23.51v-2.81ZM120.2,39.81h3.53v5.44h-3.53v-5.44ZM123.98,61.7c1.1,2.45,2.86,4.38,5.27,5.8,2.41,1.42,5.45,2.35,9.12,2.81-.34.34-.7.8-1.1,1.4-.4.6-.71,1.13-.95,1.58-2.62-.46-4.92-1.15-6.91-2.07-1.99-.92-3.69-2.12-5.08-3.58-1.39-1.46-2.53-3.22-3.42-5.26l3.06-.68Z"/><path class="cls-1" d="M142.73,62.17l1.98.4c-.05,1.08-.14,2.16-.27,3.24s-.33,2.08-.59,3.01c-.26.92-.64,1.71-1.12,2.36l-1.84-1.01c.43-.6.77-1.33,1.03-2.18.25-.85.44-1.78.56-2.77.12-1,.2-2.01.25-3.04ZM143.02,41.22h13.03v2.81h-10.15v15.34h-2.88v-18.14ZM143.02,57.56h12.2v2.7h-12.2v-2.7ZM144.64,46.65h10.66v2.63h-10.66v-2.63ZM144.64,52.05h10.66v2.63h-10.66v-2.63ZM145.33,62.85l1.62-.18c.19,1.06.33,2.2.41,3.44.08,1.24.11,2.3.09,3.19l-1.69.22c.05-.91.03-1.98-.05-3.2s-.21-2.38-.38-3.46ZM147.88,62.56l1.55-.29c.34.91.63,1.91.9,3.01.26,1.09.42,2.02.47,2.79l-1.66.36c-.05-.77-.19-1.7-.43-2.81-.24-1.1-.52-2.12-.83-3.06ZM148.93,42.76h2.77v16.27h-2.77v-16.27ZM153.75,57.56h2.81c0,.6-.01,1.01-.04,1.22-.12,2.93-.25,5.3-.38,7.11-.13,1.81-.29,3.19-.49,4.12-.19.94-.45,1.6-.76,1.98-.26.36-.56.62-.88.77-.32.16-.7.26-1.13.31-.34.05-.8.08-1.39.09-.59.01-1.2,0-1.82-.05-.02-.41-.1-.86-.22-1.37-.12-.5-.29-.94-.5-1.3.55.05,1.06.08,1.51.09.46.01.79.02,1.01.02s.4-.03.56-.09c.16-.06.29-.17.41-.34.22-.24.4-.77.54-1.58.14-.82.28-2.07.4-3.76.12-1.69.24-3.94.36-6.75v-.47ZM150.22,62.02l1.48-.5c.38.72.76,1.52,1.12,2.39.36.88.62,1.63.79,2.25l-1.55.58c-.14-.65-.39-1.41-.74-2.29-.35-.88-.71-1.69-1.1-2.43ZM165.2,42.8c-.55.98-1.26,2.02-2.12,3.1-.87,1.08-1.83,2.11-2.9,3.1-1.07.98-2.18,1.84-3.33,2.56-.17-.41-.41-.88-.74-1.4-.32-.53-.63-.96-.92-1.3,1.18-.67,2.3-1.51,3.38-2.52,1.08-1.01,2.06-2.08,2.93-3.22.88-1.14,1.57-2.25,2.07-3.33h3.02c.72,1.15,1.55,2.27,2.5,3.37.95,1.09,1.96,2.08,3.02,2.97,1.07.89,2.14,1.61,3.22,2.16-.29.38-.59.85-.92,1.4-.32.55-.59,1.06-.81,1.51-1.06-.65-2.11-1.43-3.17-2.36-1.06-.92-2.03-1.91-2.93-2.95-.9-1.04-1.67-2.07-2.32-3.08ZM163.83,49.93h3.06v7.27c0,1.44-.11,2.89-.32,4.34-.22,1.45-.64,2.88-1.28,4.28-.64,1.4-1.59,2.74-2.86,4-1.27,1.26-2.96,2.39-5.08,3.4-.14-.22-.34-.47-.59-.77-.25-.3-.51-.6-.77-.9-.26-.3-.5-.53-.72-.7,1.92-.89,3.46-1.88,4.61-2.97,1.15-1.09,2.01-2.23,2.57-3.42s.94-2.4,1.12-3.64c.18-1.24.27-2.45.27-3.65v-7.24ZM157.42,53.89h16.16v9.22h-16.16v-9.22ZM159.8,48.74h11.16v2.66h-11.16v-2.66ZM160.23,56.44v4.1h10.4v-4.1h-10.4ZM167.32,61.56c.62,2.02,1.6,3.81,2.93,5.38,1.33,1.57,2.96,2.74,4.88,3.51-.24.22-.5.48-.77.79-.28.31-.54.64-.79.97s-.46.65-.63.94c-2.04-1.01-3.74-2.47-5.11-4.37-1.37-1.91-2.41-4.1-3.13-6.57l2.63-.65Z"/><path class="cls-1" d="M191.95,50.22l3.31,1.12c-1.49,3.19-3.66,5.89-6.52,8.08-2.86,2.2-6.17,3.95-9.94,5.27-.14-.24-.34-.53-.58-.86-.24-.34-.49-.67-.76-.99-.26-.32-.52-.57-.76-.74,3.6-1.2,6.73-2.79,9.4-4.77s4.61-4.35,5.83-7.11ZM177.76,53.85h32.54v3.02h-32.54v-3.02ZM180.18,41.25h11.99v10.22h-11.99v-10.22ZM180.71,61.34h11.66v11.84h-3.13v-9.04h-5.51v9.11h-3.03v-11.92ZM182.3,69.15h8.42v2.84h-8.42v-2.84ZM183.27,43.99v4.75h5.62v-4.75h-5.62ZM195.51,61.34h11.74v11.84h-3.13v-9.04h-5.62v9.11h-2.99v-11.92ZM198.9,54.68c.82,1.08,1.87,2.1,3.17,3.06,1.3.96,2.75,1.81,4.36,2.54,1.61.73,3.28,1.3,5,1.71-.24.19-.5.46-.77.79-.28.34-.53.67-.77,1.01-.24.34-.44.65-.61.94-1.82-.53-3.58-1.22-5.26-2.09-1.68-.86-3.22-1.87-4.63-3.02-1.4-1.15-2.61-2.41-3.62-3.78l3.13-1.15ZM195.87,41.25h12.06v10.22h-12.06v-10.22ZM197.1,69.15h8.46v2.84h-8.46v-2.84ZM198.97,43.99v4.75h5.69v-4.75h-5.69Z"/><path class="cls-1" d="M224.53,65.88l3.02,2.27c-1.01.62-2.18,1.25-3.51,1.87-1.33.62-2.69,1.21-4.07,1.75s-2.68,1.01-3.91,1.42c-.29-.38-.66-.83-1.12-1.35s-.88-.94-1.26-1.28c1.25-.36,2.55-.8,3.91-1.33,1.36-.53,2.65-1.09,3.89-1.67,1.24-.59,2.25-1.15,3.04-1.67ZM214.02,62.17h32.04v3.17h-32.04v-3.17ZM219.13,41.18h22.03v18.86h-22.03v-18.86ZM222.48,43.81v2.88h15.16v-2.88h-15.16ZM222.48,49.17v2.84h15.16v-2.84h-15.16ZM222.48,54.54v2.88h15.16v-2.88h-15.16ZM232.52,68.36l2.56-2.3c1.37.48,2.75,1,4.16,1.57,1.4.56,2.74,1.12,4,1.67,1.26.55,2.35,1.07,3.26,1.55l-3.38,2.34c-.79-.48-1.76-1-2.92-1.57-1.15-.56-2.38-1.13-3.69-1.71-1.31-.58-2.63-1.09-3.98-1.55Z"/><path class="cls-1" d="M110.76,15.83c-.05.37-.1.76-.14,1.16-.04.4-.07.78-.08,1.14-.03.55-.05,1.22-.08,2.03-.03.81-.05,1.66-.08,2.56-.03.9-.05,1.79-.07,2.66-.02.87-.03,1.66-.03,2.35s.13,1.27.4,1.68c.27.41.63.71,1.1.89.47.18.99.27,1.56.27.88,0,1.67-.11,2.38-.34.71-.23,1.34-.53,1.91-.92.57-.39,1.08-.83,1.53-1.32s.86-1,1.22-1.52l1.42,1.72c-.33.48-.76.98-1.27,1.5s-1.12,1.01-1.81,1.46-1.49.82-2.39,1.11c-.9.29-1.91.43-3.03.43-1.01,0-1.9-.16-2.66-.47-.76-.31-1.35-.81-1.78-1.49-.43-.68-.64-1.57-.64-2.68,0-.57,0-1.22.02-1.93.01-.71.03-1.45.05-2.22.02-.77.04-1.52.06-2.26.02-.74.04-1.41.05-2.02.01-.61.02-1.1.02-1.49,0-.43-.02-.84-.05-1.23-.03-.39-.09-.76-.17-1.09l2.56.02ZM116.12,17.45c.19.25.4.57.63.96.23.39.47.78.7,1.18.23.4.42.76.57,1.08l-1.44.64c-.17-.4-.36-.78-.56-1.15s-.41-.73-.62-1.09c-.21-.36-.44-.7-.68-1.02l1.4-.6ZM118.76,16.41c.19.24.4.55.64.93.24.38.48.76.72,1.15.24.39.44.73.6,1.04l-1.42.68c-.19-.37-.39-.74-.6-1.11-.21-.37-.43-.72-.65-1.07-.22-.35-.44-.67-.67-.98l1.38-.64Z"/><path class="cls-1" d="M123.93,23.21c.29-.05.62-.13.97-.22s.69-.19,1.01-.28c.35-.12.8-.27,1.35-.44.55-.17,1.16-.35,1.83-.53.67-.18,1.34-.33,2.01-.45s1.31-.18,1.91-.18c1,0,1.88.19,2.64.56.76.37,1.35.91,1.78,1.6.43.69.64,1.51.64,2.46s-.21,1.79-.63,2.52c-.42.73-1.03,1.37-1.84,1.9s-1.78.96-2.92,1.27c-1.14.31-2.44.52-3.89.61l-.84-1.94c1.11-.04,2.15-.15,3.12-.32.97-.17,1.83-.43,2.57-.78s1.32-.79,1.74-1.34.63-1.19.63-1.94c0-.55-.13-1.03-.4-1.44-.27-.41-.63-.74-1.1-.98-.47-.24-1.02-.36-1.66-.36-.48,0-1.02.06-1.62.18-.6.12-1.22.28-1.85.47-.63.19-1.25.4-1.84.62-.59.22-1.13.42-1.61.61-.48.19-.87.35-1.16.48l-.84-2.08Z"/><path class="cls-1" d="M145.99,15.99c-.05.21-.12.46-.2.73-.08.27-.15.51-.2.71-.15.65-.29,1.39-.43,2.22s-.25,1.69-.34,2.58c-.09.89-.12,1.77-.1,2.64s.11,1.67.27,2.4c.13-.37.29-.81.48-1.32s.37-.98.54-1.42l1.04.66c-.17.49-.35,1.03-.52,1.62-.17.59-.33,1.14-.48,1.67-.15.53-.26.96-.34,1.31-.03.16-.05.33-.07.51-.02.18-.03.32-.03.43s0,.23.02.36.03.26.04.38l-1.74.2c-.13-.41-.29-.96-.47-1.65-.18-.69-.33-1.44-.45-2.27-.12-.83-.18-1.65-.18-2.48,0-1.09.04-2.15.13-3.16.09-1.01.19-1.94.3-2.77s.21-1.52.29-2.07c.04-.25.07-.51.08-.78s.02-.51.02-.72l2.34.22ZM148.49,19.71c.31.04.63.08.98.12s.7.07,1.07.08c.37.01.73.02,1.09.02.84,0,1.71-.02,2.61-.06.9-.04,1.77-.1,2.62-.19.85-.09,1.6-.2,2.27-.33l-.02,2.04c-.63.09-1.35.17-2.18.24s-1.69.12-2.6.15c-.91.03-1.8.05-2.68.05-.29,0-.63,0-1.01-.02-.38-.01-.76-.03-1.13-.04-.37-.01-.71-.03-1.02-.04v-2.02ZM156.05,15.69c-.03.19-.05.39-.06.6-.01.21-.03.43-.04.66v.77c0,.35,0,.75,0,1.19,0,.44.01.89.02,1.35,0,.46,0,.88,0,1.27v.94c0,1.16-.03,2.23-.1,3.2-.07.97-.23,1.88-.5,2.72s-.69,1.62-1.27,2.33c-.58.71-1.38,1.38-2.41,2.01l-1.84-1.44c.35-.15.72-.35,1.12-.61.4-.26.73-.52,1-.79.47-.44.84-.9,1.11-1.39.27-.49.48-1.03.62-1.62.14-.59.23-1.25.28-1.98.05-.73.07-1.54.07-2.45,0-.35,0-.78,0-1.3,0-.52-.02-1.06-.04-1.61-.02-.55-.04-1.06-.05-1.53s-.03-.82-.04-1.06c-.01-.24-.04-.47-.09-.7-.05-.23-.08-.41-.11-.56h2.32Z"/><path class="cls-1" d="M169.24,16.55c-.09.13-.19.28-.3.45-.11.17-.22.34-.34.53-.23.35-.49.78-.8,1.29s-.63,1.06-.96,1.65c-.33.59-.66,1.17-.98,1.74-.32.57-.6,1.09-.84,1.56.43-.33.87-.58,1.33-.73.46-.15.9-.23,1.33-.23.71,0,1.28.22,1.71.65.43.43.67,1.06.71,1.87.01.35.02.74.02,1.17s0,.86,0,1.27c0,.41.02.77.05,1.08.03.47.18.8.47.99.29.19.62.29.99.29.51,0,.96-.14,1.37-.42.41-.28.77-.66,1.08-1.13.31-.47.58-.99.8-1.56.22-.57.4-1.14.53-1.71l1.68,1.38c-.35,1.11-.78,2.08-1.3,2.91-.52.83-1.15,1.49-1.88,1.96s-1.6.71-2.6.71c-.72,0-1.3-.13-1.75-.4-.45-.27-.77-.6-.98-1s-.32-.81-.35-1.24c-.03-.39-.04-.8-.05-1.25,0-.45-.01-.89-.02-1.32,0-.43-.02-.81-.05-1.13-.01-.4-.13-.71-.36-.93-.23-.22-.55-.33-.96-.33-.49,0-.97.15-1.43.44s-.87.68-1.24,1.16-.68.99-.93,1.52c-.15.29-.3.64-.46,1.05-.16.41-.32.83-.47,1.26-.15.43-.29.84-.41,1.23-.12.39-.22.71-.3.96l-2.2-.74c.25-.68.57-1.45.94-2.31s.79-1.77,1.24-2.72c.45-.95.91-1.9,1.38-2.83.47-.93.91-1.82,1.34-2.66.43-.84.81-1.57,1.14-2.2.33-.63.59-1.1.76-1.42.13-.24.27-.5.42-.79.15-.29.29-.61.42-.97l2.24.9Z"/><path class="cls-1" d="M187,21.57c1.17.11,2.31.18,3.41.22s2.14.04,3.13,0c.99-.04,1.87-.11,2.66-.2,1-.09,1.89-.23,2.67-.4.78-.17,1.45-.35,2.01-.52l.32,1.88c-.57.15-1.23.29-1.96.43-.73.14-1.51.26-2.34.35-.83.09-1.78.16-2.86.21-1.08.05-2.21.06-3.4.04-1.19-.02-2.37-.07-3.54-.15l-.1-1.86ZM187.38,17.43c1.43.16,2.77.25,4.02.28,1.25.03,2.4,0,3.44-.08.85-.08,1.69-.2,2.51-.36.82-.16,1.62-.37,2.39-.62l.26,1.82c-.68.2-1.43.38-2.26.53-.83.15-1.65.27-2.48.35-1.03.08-2.21.12-3.55.11-1.34,0-2.74-.08-4.21-.21l-.12-1.82ZM190.32,26.01c-.24.35-.44.7-.61,1.05-.17.35-.25.75-.25,1.19,0,.79.36,1.37,1.08,1.75.72.38,1.81.57,3.28.57.93,0,1.8-.04,2.6-.11.8-.07,1.56-.18,2.28-.33l-.1,2.02c-.69.11-1.45.19-2.27.26-.82.07-1.65.1-2.49.1-1.32,0-2.45-.14-3.38-.41-.93-.27-1.65-.69-2.16-1.26s-.77-1.3-.78-2.21c0-.6.08-1.14.24-1.61.16-.47.36-.94.6-1.39l1.96.38ZM193.76,17.51c-.08-.33-.17-.66-.28-.99-.11-.33-.22-.66-.34-.99l2.14-.24c.07.59.17,1.18.31,1.79.14.61.3,1.19.47,1.76.17.57.34,1.1.5,1.59.17.49.39,1.03.64,1.62.25.59.53,1.17.84,1.74.31.57.62,1.11.94,1.6.12.17.25.34.38.49.13.15.28.3.44.45l-1,1.48c-.37-.09-.82-.18-1.35-.25-.53-.07-1.07-.14-1.62-.21-.55-.07-1.07-.12-1.55-.16l.16-1.52c.48.04.99.09,1.52.14.53.05.95.1,1.26.14-.55-.87-1.02-1.75-1.42-2.64-.4-.89-.74-1.73-1.02-2.5-.16-.47-.3-.89-.42-1.26-.12-.37-.23-.72-.32-1.05-.09-.33-.19-.66-.28-.99Z"/><path class="cls-1" d="M233.65,16.81c-.25.19-.52.4-.81.63-.29.23-.54.44-.75.61-.32.28-.72.61-1.21,1s-.99.79-1.52,1.22c-.53.43-1.04.84-1.53,1.23-.49.39-.91.74-1.26,1.05-.37.32-.63.59-.76.8-.13.21-.13.42,0,.63.14.21.41.48.81.83.33.28.74.61,1.21,1,.47.39.98.8,1.52,1.25.54.45,1.09.91,1.65,1.39.56.48,1.1.95,1.62,1.42.52.47.99.91,1.4,1.32l-1.8,1.66c-.24-.27-.49-.54-.75-.81-.26-.27-.52-.54-.79-.81-.33-.35-.75-.75-1.25-1.22s-1.04-.95-1.63-1.46-1.16-1-1.73-1.49c-.57-.49-1.08-.92-1.55-1.31-.65-.55-1.07-1.03-1.25-1.46-.18-.43-.15-.85.09-1.28s.68-.9,1.32-1.42c.37-.32.82-.69,1.34-1.11.52-.42,1.06-.86,1.61-1.33.55-.47,1.08-.92,1.58-1.35s.92-.82,1.25-1.15c.24-.24.49-.5.74-.77.25-.27.45-.52.58-.73l1.86,1.66ZM232.51,19.95c.17.25.37.56.58.93.21.37.42.73.63,1.1.21.37.38.67.51.91l-1.36.58c-.13-.28-.3-.6-.49-.96s-.39-.72-.59-1.08c-.2-.36-.39-.67-.58-.94l1.3-.54ZM234.89,19.03c.17.23.37.52.58.88.21.36.42.72.63,1.08s.38.67.53.94l-1.34.58c-.15-.28-.32-.6-.52-.96-.2-.36-.4-.71-.61-1.06s-.4-.65-.59-.9l1.32-.56Z"/></g></svg>