<?xml version="1.0" encoding="UTF-8"?><svg id="_レイヤー_2" xmlns="http://www.w3.org/2000/svg" viewBox="0 0 352 88"><defs><style>.cls-1{fill:#333;}.cls-1,.cls-2,.cls-3{stroke-width:0px;}.cls-2{fill:#fff;}.cls-3{fill:#e3e3e3;}</style></defs><g id="_ツール"><rect class="cls-2" x="1" y="1" width="350" height="86" rx="7" ry="7"/><path class="cls-3" d="M344,2c3.31,0,6,2.69,6,6v72c0,3.31-2.69,6-6,6H8c-3.31,0-6-2.69-6-6V8c0-3.31,2.69-6,6-6h336M344,0H8C3.58,0,0,3.58,0,8v72c0,4.42,3.58,8,8,8h336c4.42,0,8-3.58,8-8V8c0-4.42-3.58-8-8-8h0Z"/><path class="cls-1" d="M170.53,45.25c0,2.33-.43,4.51-1.3,6.55-.86,2.04-2.08,3.83-3.64,5.38-1.56,1.55-3.35,2.75-5.38,3.62-2.03.86-4.21,1.3-6.53,1.3s-4.51-.43-6.55-1.3c-2.04-.86-3.83-2.08-5.38-3.64-1.55-1.56-2.75-3.35-3.62-5.38-.86-2.03-1.3-4.21-1.3-6.53s.43-4.51,1.3-6.55c.86-2.04,2.08-3.83,3.64-5.38,1.56-1.55,3.35-2.75,5.38-3.62,2.03-.86,4.21-1.3,6.53-1.3s4.51.43,6.55,1.3c2.04.86,3.83,2.08,5.38,3.64,1.55,1.56,2.75,3.35,3.62,5.38.86,2.03,1.3,4.21,1.3,6.53ZM153.68,32.47c-1.76,0-3.42.33-4.96,1-1.55.67-2.9,1.58-4.07,2.75-1.16,1.17-2.08,2.52-2.75,4.07-.67,1.55-1,3.2-1,4.96s.33,3.42,1,4.96c.66,1.55,1.58,2.9,2.75,4.07,1.16,1.17,2.52,2.08,4.07,2.75,1.55.67,3.2,1,4.96,1s3.42-.33,4.96-1c1.55-.67,2.9-1.58,4.07-2.75,1.16-1.16,2.08-2.52,2.75-4.07.67-1.55,1-3.2,1-4.96s-.33-3.42-1-4.96c-.67-1.55-1.58-2.9-2.75-4.07-1.17-1.16-2.52-2.08-4.07-2.75-1.55-.67-3.2-1-4.96-1Z"/><path class="cls-1" d="M211.36,61.2l-12.99-12.99-13.04,12.99-2.88-2.83,13.04-13.04-13.04-12.99,2.93-2.88,12.99,13.04,12.99-13.04,2.88,2.88-13.04,12.99,13.04,13.04-2.88,2.83Z"/></g></svg>