<?xml version="1.0" encoding="UTF-8"?><svg id="_レイヤー_2" xmlns="http://www.w3.org/2000/svg" viewBox="0 0 136 84"><defs><style>.cls-1{fill:#ff8080;}.cls-1,.cls-2{stroke-width:0px;}.cls-2{fill:#fff;}</style></defs><g id="_ヘッダー"><path class="cls-2" d="M94,0H0v84h94c23.2,0,42-18.8,42-42h0C136,18.8,117.2,0,94,0Z"/><path class="cls-1" d="M97.08,39c.06-.08.14-.15.19-.24.1-.15.19-.31.27-.48.04-.07.09-.14.12-.22.09-.2.15-.41.2-.63.01-.05.03-.09.04-.14.06-.27.09-.54.09-.82s-.03-.56-.09-.82c-.01-.05-.03-.09-.04-.14-.05-.22-.12-.43-.2-.63-.03-.08-.08-.14-.12-.22-.08-.16-.17-.33-.27-.48-.06-.08-.13-.16-.19-.24-.11-.13-.21-.26-.33-.37-.02-.02-.04-.05-.06-.07l-19.29-17.55c-1.63-1.49-4.16-1.37-5.65.27-1.49,1.63-1.37,4.16.27,5.65l11.64,10.59h-30.62c-10.5,0-19.04,8.62-19.04,19.23s8.54,19.23,19.04,19.23c2.21,0,4-1.79,4-4s-1.79-4-4-4c-6.09,0-11.04-5.04-11.04-11.23s4.95-11.23,11.04-11.23h30.62l-11.64,10.59c-1.63,1.49-1.75,4.02-.27,5.65.79.87,1.87,1.31,2.96,1.31.96,0,1.92-.34,2.69-1.04l19.29-17.55s.04-.05.06-.07c.12-.11.23-.24.33-.37Z"/></g></svg>