<?xml version="1.0" encoding="UTF-8"?><svg id="_レイヤー_2" xmlns="http://www.w3.org/2000/svg" viewBox="0 0 136 84"><defs><style>.cls-1{fill:#ff8080;}.cls-1,.cls-2{stroke-width:0px;}.cls-2{fill:#fff;}</style></defs><g id="_ヘッダー"><path class="cls-2" d="M42,0C18.8,0,0,18.8,0,42h0c0,23.2,18.8,42,42,42h94V0H42Z"/><path class="cls-1" d="M82.96,32.47h-30.62l11.64-10.59c1.63-1.49,1.75-4.02.27-5.65-1.49-1.63-4.02-1.75-5.65-.27l-19.29,17.55s-.04.05-.06.07c-.12.11-.23.24-.33.37-.06.08-.14.15-.19.24-.1.15-.19.31-.27.48-.04.07-.08.14-.12.22-.09.2-.15.41-.2.63-.01.05-.03.09-.04.14-.06.27-.09.54-.09.82s.03.56.09.82c.01.05.03.09.04.14.05.22.12.43.2.63.03.08.08.14.12.22.08.16.17.33.27.48.06.08.13.16.19.24.1.13.21.26.33.37.02.02.04.05.06.07l19.29,17.55c.77.7,1.73,1.04,2.69,1.04,1.09,0,2.17-.44,2.96-1.31,1.49-1.63,1.37-4.16-.27-5.65l-11.64-10.59h30.62c6.09,0,11.04,5.04,11.04,11.23s-4.95,11.23-11.04,11.23c-2.21,0-4,1.79-4,4s1.79,4,4,4c10.5,0,19.04-8.62,19.04-19.23s-8.54-19.23-19.04-19.23Z"/></g></svg>