<?xml version="1.0" encoding="UTF-8"?><svg id="_レイヤー_2" xmlns="http://www.w3.org/2000/svg" viewBox="0 0 352 88"><defs><style>.cls-1{fill:#333;}.cls-1,.cls-2,.cls-3{stroke-width:0px;}.cls-2{fill:#fff;}.cls-3{fill:#e3e3e3;}</style></defs><g id="_ツール"><rect class="cls-2" x="1" y="1" width="350" height="86" rx="7" ry="7"/><path class="cls-3" d="M344,2c3.31,0,6,2.69,6,6v72c0,3.31-2.69,6-6,6H8c-3.31,0-6-2.69-6-6V8c0-3.31,2.69-6,6-6h336M344,0H8C3.58,0,0,3.58,0,8v72c0,4.42,3.58,8,8,8h336c4.42,0,8-3.58,8-8V8c0-4.42-3.58-8-8-8h0Z"/><path class="cls-1" d="M96.65,43.02c-.74,1.08-1.64,2.2-2.68,3.37s-2.21,2.32-3.49,3.46c-1.28,1.14-2.63,2.23-4.05,3.26-1.42,1.03-2.88,1.98-4.39,2.84-.22-.41-.53-.88-.95-1.42-.42-.54-.82-.98-1.21-1.31,2.06-1.1,4.06-2.42,5.98-3.94,1.92-1.52,3.65-3.12,5.2-4.79,1.55-1.67,2.78-3.27,3.69-4.81h3.49c.96,1.37,2.04,2.69,3.24,3.98,1.2,1.28,2.48,2.5,3.85,3.64,1.37,1.14,2.77,2.18,4.21,3.11,1.44.94,2.88,1.73,4.32,2.38-.43.43-.85.92-1.24,1.46s-.74,1.06-1.03,1.57c-1.39-.79-2.8-1.69-4.23-2.7-1.43-1.01-2.81-2.08-4.14-3.2-1.33-1.13-2.56-2.28-3.69-3.46-1.13-1.17-2.09-2.32-2.88-3.42ZM81.53,69.19h30.74v3.06h-30.74v-3.06ZM84.49,60.94h24.59v2.99h-24.59v-2.99ZM86.18,52.92h21.38v3.06h-21.38v-3.06ZM94.89,54.25h3.6v16.63h-3.6v-16.63Z"/><path class="cls-1" d="M119.77,53.53h18.65v3.1h-18.65v-3.1ZM120.63,43.52h17.32v2.99h-17.32v-2.99ZM122.03,59.47h14.54v13.61h-3.31v-10.66h-8.06v10.8h-3.17v-13.75ZM122.79,47.66l2.84-.61c.38.86.72,1.82,1.01,2.86s.48,1.95.58,2.72l-2.99.68c-.05-.77-.21-1.68-.49-2.74-.28-1.06-.59-2.03-.95-2.92ZM123.22,68.25h11.56v2.99h-11.56v-2.99ZM127.61,39.96h3.31v5.44h-3.31v-5.44ZM132.83,46.87l3.24.72c-.38,1.03-.77,2.07-1.17,3.11s-.79,1.94-1.17,2.68l-2.7-.68c.24-.53.47-1.13.68-1.82.22-.68.43-1.39.63-2.11.2-.72.37-1.36.49-1.91ZM139.71,41.86h10.69v3.2h-7.34v28.12h-3.35v-31.32ZM149.5,41.86h.65l.54-.11,2.52,1.55c-.7,1.73-1.46,3.56-2.29,5.51-.83,1.94-1.64,3.71-2.43,5.29,1.13,1.1,1.99,2.16,2.57,3.17.59,1.01,1,1.97,1.22,2.88.23.91.34,1.79.34,2.63,0,1.2-.14,2.22-.43,3.06-.29.84-.77,1.49-1.44,1.94-.65.43-1.45.72-2.41.86-.43.05-.91.07-1.44.07h-1.58c-.02-.48-.11-1.04-.25-1.69-.14-.65-.36-1.21-.65-1.69.5.05.97.08,1.39.09.42.01.79,0,1.1-.02.29-.02.55-.07.79-.13.24-.06.47-.14.68-.23.36-.24.61-.59.74-1.04.13-.46.2-1.01.2-1.66,0-1.06-.29-2.24-.88-3.56-.59-1.32-1.71-2.72-3.37-4.21.41-.91.82-1.9,1.24-2.95.42-1.06.83-2.11,1.24-3.17.41-1.06.77-2.06,1.1-3.01.32-.95.61-1.76.85-2.43v-1.15Z"/><path class="cls-1" d="M170.74,41.9c-.1.65-.18,1.34-.25,2.07-.07.73-.12,1.42-.14,2.07-.05.98-.1,2.2-.14,3.65-.05,1.45-.1,2.99-.14,4.61-.05,1.62-.08,3.22-.11,4.79-.02,1.57-.04,2.98-.04,4.23s.23,2.28.7,3.02c.47.74,1.12,1.28,1.96,1.6.84.32,1.78.49,2.81.49,1.58,0,3.01-.2,4.28-.61,1.27-.41,2.42-.96,3.44-1.66s1.94-1.49,2.75-2.38,1.55-1.81,2.2-2.77l2.56,3.13c-.6.86-1.36,1.76-2.27,2.7-.91.94-2,1.81-3.26,2.63-1.26.82-2.7,1.48-4.32,1.98s-3.44.76-5.45.76c-1.82,0-3.42-.28-4.79-.83-1.37-.55-2.44-1.44-3.2-2.66-.77-1.22-1.15-2.83-1.15-4.82,0-1.03.01-2.2.04-3.49.02-1.3.05-2.63.09-4.01.04-1.38.07-2.73.11-4.05.04-1.32.07-2.53.09-3.64.02-1.1.04-1.99.04-2.66,0-.77-.03-1.51-.09-2.21-.06-.71-.16-1.36-.31-1.96l4.61.04Z"/><path class="cls-1" d="M218.59,41.36c-.02.34-.05.7-.09,1.1-.04.4-.07.85-.09,1.35-.02.41-.04,1-.05,1.76-.01.77-.02,1.61-.04,2.54s-.02,1.85-.02,2.77v2.54c0,1.1.03,2.3.09,3.58.06,1.28.13,2.55.2,3.8.07,1.25.14,2.4.2,3.46.06,1.06.09,1.92.09,2.59,0,.91-.23,1.76-.68,2.56s-1.18,1.43-2.16,1.93c-.98.49-2.27.74-3.85.74-2.71,0-4.78-.49-6.19-1.46-1.42-.97-2.12-2.36-2.12-4.16,0-1.15.34-2.16,1.03-3.02s1.67-1.54,2.95-2.03c1.28-.49,2.81-.74,4.59-.74,1.92,0,3.73.22,5.42.65,1.69.43,3.24.98,4.64,1.66s2.65,1.37,3.73,2.11c1.08.73,1.99,1.39,2.74,1.96l-2.09,3.2c-.84-.77-1.79-1.55-2.84-2.34s-2.22-1.51-3.49-2.16c-1.27-.65-2.62-1.16-4.05-1.55-1.43-.38-2.93-.58-4.52-.58s-2.71.26-3.51.77c-.8.52-1.21,1.13-1.21,1.85,0,.5.16.95.49,1.35.32.4.81.71,1.46.94.65.23,1.49.34,2.52.34.67,0,1.28-.08,1.82-.25s.97-.46,1.28-.88c.31-.42.47-1.01.47-1.78,0-.62-.02-1.46-.07-2.52-.05-1.06-.09-2.2-.13-3.44s-.08-2.44-.13-3.6c-.05-1.16-.07-2.15-.07-2.97s0-1.71.02-2.61c.01-.9.02-1.79.02-2.66v-4.52c0-.31-.01-.7-.04-1.17s-.07-.83-.14-1.1h3.85ZM204.15,52.74c.6.1,1.3.19,2.09.27s1.61.15,2.45.2c.84.05,1.64.09,2.39.13s1.41.05,1.96.05c1.94,0,3.77-.04,5.49-.13,1.72-.08,3.37-.2,4.97-.36,1.6-.16,3.15-.33,4.66-.52l-.04,3.35c-1.22.17-2.42.31-3.6.41-1.18.11-2.36.2-3.55.27-1.19.07-2.44.12-3.74.14-1.31.02-2.73.04-4.27.04-.74,0-1.64-.02-2.7-.05s-2.12-.09-3.2-.16c-1.08-.07-2.04-.16-2.88-.25l-.04-3.38ZM204.33,45.03c.6.1,1.3.19,2.11.29.8.1,1.63.19,2.48.27s1.66.14,2.43.18c.77.04,1.44.05,2.02.05,2.38,0,4.76-.08,7.16-.25,2.4-.17,4.82-.46,7.27-.86v3.31c-1.3.14-2.74.29-4.32.43-1.58.14-3.23.26-4.95.36-1.72.1-3.43.14-5.13.14-.79,0-1.75-.04-2.86-.11-1.12-.07-2.23-.16-3.33-.25-1.1-.1-2.05-.19-2.84-.29l-.04-3.28Z"/><path class="cls-1" d="M262.58,58.28c0-.94-.23-1.76-.7-2.48-.47-.72-1.13-1.29-2-1.71-.86-.42-1.88-.63-3.06-.63-1.37,0-2.66.11-3.87.32-1.21.22-2.31.47-3.29.76-.98.29-1.81.53-2.48.72-.53.14-1.08.32-1.66.54-.58.22-1.09.42-1.55.61l-1.12-4.1c.55-.05,1.15-.13,1.78-.23.64-.11,1.23-.22,1.78-.34.89-.22,1.9-.45,3.04-.7,1.14-.25,2.38-.48,3.71-.68,1.33-.2,2.69-.31,4.09-.31,1.8,0,3.4.32,4.79.97,1.39.65,2.48,1.6,3.28,2.84.79,1.25,1.19,2.77,1.19,4.57,0,1.94-.41,3.68-1.24,5.22-.83,1.54-1.99,2.88-3.49,4.01s-3.27,2.08-5.31,2.83c-2.04.74-4.26,1.3-6.66,1.66l-2.05-3.49c2.21-.26,4.22-.67,6.03-1.22,1.81-.55,3.38-1.25,4.7-2.09,1.32-.84,2.33-1.85,3.04-3.02.71-1.17,1.06-2.52,1.06-4.03ZM247.85,41.58c1.03.22,2.25.43,3.65.63,1.4.2,2.86.38,4.37.52,1.51.14,2.94.26,4.28.36,1.34.1,2.47.14,3.38.14l-.58,3.49c-1.01-.07-2.2-.16-3.56-.27-1.37-.11-2.79-.24-4.27-.4-1.48-.16-2.89-.32-4.25-.5-1.36-.18-2.55-.35-3.58-.52l.54-3.46Z"/><path class="cls-1" d="M78.31,21.47c.29,0,.64-.01,1.03-.03.39-.02.8-.05,1.23-.09.43-.04,1.04-.1,1.84-.17.8-.07,1.71-.16,2.73-.26,1.02-.1,2.08-.2,3.17-.3,1.09-.1,2.16-.19,3.19-.28s1.95-.15,2.75-.19c.25-.03.54-.05.85-.06.31-.01.6-.03.87-.06v1.96c-.11-.01-.26-.02-.47-.02s-.43,0-.66,0c-.23,0-.44,0-.61,0-.52.01-1.16.05-1.92.1-.76.05-1.57.12-2.44.19s-1.75.15-2.66.24-1.78.17-2.61.26c-.83.09-1.59.17-2.27.24s-1.22.13-1.62.17c-.21.03-.46.06-.73.1s-.54.08-.8.11c-.26.03-.48.07-.67.11l-.2-2.04ZM84.6,16.81c-.03.27-.05.55-.07.84s-.03.61-.03.96c0,.41,0,.93-.01,1.56,0,.63-.01,1.3-.02,2.03,0,.73,0,1.44,0,2.14v1.9c0,.57,0,1,.02,1.31.01.52.05.95.1,1.29.05.34.19.61.4.82.21.21.55.35,1.01.44s1.09.13,1.89.13c.69,0,1.41-.02,2.16-.06.75-.04,1.45-.1,2.12-.18.67-.08,1.23-.16,1.68-.24l-.06,2.14c-.45.04-1,.09-1.65.14-.65.05-1.33.1-2.05.14-.72.04-1.41.06-2.08.06-1.21,0-2.18-.08-2.9-.23-.72-.15-1.26-.4-1.62-.73-.36-.33-.6-.78-.72-1.35-.12-.57-.19-1.26-.22-2.09,0-.28,0-.67-.01-1.18s0-1.07,0-1.7v-6.24c0-.35-.01-.67-.03-.97s-.06-.61-.11-.93h2.22ZM92.5,16.19c-.01.11-.03.25-.04.44-.01.19-.03.38-.04.58-.01.2-.02.38-.02.54-.01.43-.02.85-.03,1.28s-.01.84-.02,1.23c0,.39-.02.76-.03,1.11-.01.53-.03,1.11-.06,1.73s-.06,1.2-.09,1.75c-.03.55-.09.99-.17,1.34-.08.48-.25.81-.5.98-.25.17-.63.26-1.12.26-.24,0-.54-.02-.9-.05-.36-.03-.71-.08-1.06-.13-.35-.05-.62-.09-.82-.12l.04-1.74c.33.08.68.14,1.05.19.37.05.66.07.87.07.23,0,.4-.03.51-.1.11-.07.18-.2.19-.4.05-.27.09-.61.11-1.02.02-.41.04-.86.07-1.35.03-.49.04-.96.04-1.43.01-.36.02-.74.02-1.14v-2.38c0-.16-.01-.34-.03-.55-.02-.21-.04-.41-.05-.61-.01-.2-.03-.36-.06-.48h2.14ZM94.13,16.19c.13.24.27.53.4.86.13.33.27.67.4,1,.13.33.25.63.34.9l-1.18.4c-.09-.29-.2-.61-.32-.94-.12-.33-.24-.66-.37-.99-.13-.33-.26-.62-.39-.87l1.12-.36ZM96.17,15.53c.13.24.27.53.41.86s.28.66.41.99c.13.33.24.62.32.89l-1.16.4c-.15-.45-.32-.94-.52-1.45-.2-.51-.4-.96-.6-1.33l1.14-.36Z"/><path class="cls-1" d="M110.02,16.55c-.09.13-.19.28-.3.45-.11.17-.22.34-.34.53-.23.35-.49.78-.8,1.29-.31.51-.63,1.06-.96,1.65-.33.59-.66,1.17-.98,1.74-.32.57-.6,1.09-.84,1.56.43-.33.87-.58,1.33-.73.46-.15.9-.23,1.33-.23.71,0,1.28.22,1.71.65.43.43.67,1.06.71,1.87.01.35.02.74.02,1.17s0,.86,0,1.27.02.77.05,1.08c.03.47.18.8.47.99s.62.29.99.29c.51,0,.96-.14,1.37-.42.41-.28.77-.66,1.08-1.13.31-.47.58-.99.8-1.56.22-.57.4-1.14.53-1.71l1.68,1.38c-.35,1.11-.78,2.08-1.3,2.91-.52.83-1.15,1.49-1.88,1.96-.73.47-1.6.71-2.6.71-.72,0-1.3-.13-1.75-.4s-.77-.6-.98-1c-.21-.4-.32-.81-.35-1.24-.03-.39-.04-.8-.05-1.25,0-.45-.01-.89-.02-1.32s-.02-.81-.05-1.13c-.01-.4-.13-.71-.36-.93-.23-.22-.55-.33-.96-.33-.49,0-.97.15-1.43.44-.46.29-.87.68-1.24,1.16-.37.48-.68.99-.93,1.52-.15.29-.3.64-.46,1.05-.16.41-.32.83-.47,1.26s-.29.84-.41,1.23c-.12.39-.22.71-.3.96l-2.2-.74c.25-.68.57-1.45.94-2.31.37-.86.79-1.77,1.24-2.72.45-.95.91-1.9,1.38-2.83s.91-1.82,1.34-2.66c.43-.84.81-1.57,1.14-2.2.33-.63.59-1.1.76-1.42.13-.24.27-.5.42-.79.15-.29.29-.61.42-.97l2.24.9Z"/><path class="cls-1" d="M132.69,27.15c-.37.39-.83.82-1.37,1.3-.54.48-1.13.96-1.76,1.44-.63.48-1.29.93-1.97,1.34l-1.2-1.7c.43-.23.88-.5,1.35-.81s.94-.65,1.4-1.01c.46-.36.9-.72,1.31-1.08.41-.36.76-.7,1.04-1.02l1.2,1.54ZM131.77,29.91c.53.15,1.05.26,1.56.34s1.05.12,1.62.12c.32,0,.62-.05.91-.14.29-.09.52-.25.7-.47.18-.22.27-.52.27-.89,0-.32-.08-.67-.23-1.05s-.35-.76-.6-1.13c-.25-.37-.51-.73-.8-1.08s-.55-.65-.79-.92c-.24-.24-.51-.5-.81-.77-.3-.27-.6-.53-.91-.77l1.52-1.3c.27.28.53.55.79.81.26.26.51.52.75.77.67.68,1.24,1.34,1.73,1.97.49.63.86,1.25,1.12,1.86.26.61.39,1.22.39,1.83s-.11,1.15-.33,1.57c-.22.42-.51.75-.86.99-.35.24-.75.41-1.19.5-.44.09-.87.14-1.28.14-.6,0-1.18-.03-1.73-.09-.55-.06-1.06-.13-1.53-.21l-.3-2.08ZM135.43,20.49c.25-.17.5-.35.75-.53.25-.18.44-.32.59-.43-.28-.23-.65-.47-1.11-.73-.46-.26-.95-.52-1.48-.78s-1.05-.48-1.57-.67l1.18-1.46c.53.21,1.11.46,1.72.74.61.28,1.21.57,1.8.88.59.31,1.09.61,1.5.9l.48,1.26c-.12.11-.29.24-.5.41-.21.17-.44.35-.69.54-.25.19-.49.38-.73.57-.24.19-.46.35-.66.48l-1.28-1.18ZM143.11,30.99c-.13-.48-.31-1.01-.54-1.59-.23-.58-.48-1.16-.77-1.75-.29-.59-.59-1.15-.92-1.68-.33-.53-.66-1-1.01-1.4l1.68-.94c.32.4.65.87,1,1.4s.68,1.1.99,1.69c.31.59.6,1.17.86,1.73.26.56.46,1.07.61,1.52l-1.9,1.02ZM141.49,17.99c.17.24.36.52.56.85.2.33.39.66.58.99.19.33.35.63.48.9l-1.32.58c-.2-.41-.45-.89-.75-1.42-.3-.53-.58-.99-.85-1.36l1.3-.54ZM143.77,17.13c.17.25.36.55.57.88.21.33.41.66.61.99.2.33.36.62.48.87l-1.3.56c-.21-.43-.47-.9-.77-1.42-.3-.52-.59-.97-.87-1.34l1.28-.54Z"/></g></svg>