<?xml version="1.0" encoding="UTF-8"?><svg id="_レイヤー_2" xmlns="http://www.w3.org/2000/svg" viewBox="0 0 512 88"><defs><style>.cls-1{fill:#333;}.cls-1,.cls-2,.cls-3{stroke-width:0px;}.cls-2{fill:#fff;}.cls-3{fill:#e3e3e3;}</style></defs><g id="_ツール"><rect class="cls-2" x="1" y="1" width="510" height="86" rx="7" ry="7"/><path class="cls-3" d="M504,2c3.31,0,6,2.69,6,6v72c0,3.31-2.69,6-6,6H8c-3.31,0-6-2.69-6-6V8c0-3.31,2.69-6,6-6h496M504,0H8C3.58,0,0,3.58,0,8v72c0,4.42,3.58,8,8,8h496c4.42,0,8-3.58,8-8V8c0-4.42-3.58-8-8-8h0Z"/><path class="cls-1" d="M28.72,68.53c-.39,0-.78-.11-1.11-.34-.56-.37-.89-1-.89-1.66V24.58c0-.81.49-1.54,1.23-1.85,10.58-4.38,22.23-4.38,32.81,0,.75.31,1.23,1.04,1.23,1.85v41.96c0,.67-.33,1.29-.89,1.66-.56.37-1.26.44-1.88.18-9.59-3.97-20.16-3.97-29.75,0-.25.1-.51.15-.77.15ZM30.72,25.94v37.71c8.89-3,18.39-3,27.28,0V25.94c-8.85-3.32-18.44-3.32-27.28,0Z"/><path class="cls-1" d="M60,68.53c-.39,0-.78-.11-1.11-.34-.56-.37-.89-1-.89-1.66V24.58c0-.81.49-1.54,1.23-1.85,10.58-4.38,22.23-4.38,32.81,0,.75.31,1.23,1.04,1.23,1.85v41.96c0,.67-.33,1.29-.89,1.66-.56.37-1.26.44-1.88.18-9.59-3.97-20.16-3.97-29.75,0-.25.1-.51.15-.77.15ZM75.64,61.4c4.6,0,9.19.75,13.64,2.25V25.94c-8.85-3.32-18.44-3.32-27.28,0v37.71c4.45-1.5,9.04-2.25,13.64-2.25Z"/><path class="cls-1" d="M152.54,39.85l3.17,1.04c-.79,2.02-1.73,4.03-2.81,6.03-1.08,2-2.24,3.88-3.49,5.63-1.25,1.75-2.53,3.31-3.85,4.68-.12-.29-.29-.65-.5-1.08s-.45-.86-.7-1.3c-.25-.43-.47-.79-.67-1.08,1.18-1.13,2.31-2.43,3.4-3.91,1.09-1.48,2.11-3.07,3.04-4.79.94-1.71,1.74-3.46,2.41-5.24ZM148.9,49.42l3.24-3.2.04.04v26.82h-3.28v-23.65ZM163.59,58.28l2.7.97c-.82,1.66-1.8,3.28-2.95,4.86-1.15,1.58-2.41,3.02-3.78,4.32-1.37,1.3-2.77,2.38-4.21,3.24-.17-.29-.39-.59-.67-.92s-.56-.65-.85-.97c-.29-.32-.56-.59-.83-.81,1.39-.7,2.77-1.61,4.12-2.75,1.36-1.14,2.59-2.39,3.71-3.76,1.12-1.37,2.03-2.76,2.75-4.18ZM154.16,57.24h23.26v3.1h-23.26v-3.1ZM156.71,41.43h18.79v11.88h-18.79v-11.88ZM159.92,44.42v5.83h12.2v-5.83h-12.2ZM164.2,52.3h3.42v20.88h-3.42v-20.88ZM168.41,58.57c.7,1.37,1.58,2.72,2.66,4.05s2.26,2.56,3.53,3.67c1.27,1.12,2.54,2.03,3.82,2.75-.26.22-.55.48-.86.79-.31.31-.6.64-.86.99-.26.35-.49.65-.68.92-1.3-.86-2.58-1.95-3.85-3.26-1.27-1.31-2.45-2.73-3.53-4.27-1.08-1.54-2.02-3.11-2.81-4.72l2.59-.94Z"/><path class="cls-1" d="M193.03,39.74l3.6.9c-.86,2.81-1.95,5.59-3.26,8.35-1.31,2.76-2.89,5.33-4.73,7.72-1.85,2.39-4.02,4.45-6.52,6.17-.1-.31-.25-.67-.47-1.06-.22-.4-.43-.79-.65-1.19-.22-.4-.42-.73-.61-.99,1.63-1.13,3.11-2.45,4.45-3.96,1.33-1.51,2.53-3.14,3.58-4.9,1.06-1.75,1.97-3.57,2.74-5.45.77-1.88,1.39-3.75,1.87-5.6ZM181.55,44.46h31.79v3.28h-31.79v-3.28ZM185.91,54.61h3.42v18.5h-3.42v-18.5ZM191.7,60.44h22.25v3.17h-22.25v-3.17ZM194.65,51.22h14.36v3.1h-14.36v-3.1ZM201.39,57.27h3.46v12.13c0,.91-.11,1.62-.34,2.12-.23.5-.69.88-1.39,1.12-.65.26-1.5.42-2.56.47s-2.33.07-3.82.07c-.07-.5-.2-1.06-.4-1.66-.19-.6-.4-1.14-.61-1.62.72.02,1.41.04,2.07.05.66.01,1.24.02,1.75.02h1.08c.31-.02.52-.08.61-.16.1-.08.14-.25.14-.49v-12.06ZM208.15,51.22h.83l.72-.18,2.12,1.69c-.7.82-1.49,1.64-2.39,2.48s-1.82,1.64-2.77,2.41c-.95.77-1.89,1.45-2.83,2.05-.22-.31-.51-.67-.88-1.06s-.69-.71-.95-.95c.77-.48,1.54-1.06,2.32-1.75.78-.68,1.51-1.39,2.2-2.11.68-.72,1.23-1.37,1.64-1.94v-.65Z"/><path class="cls-1" d="M224.95,41.9c-.1.65-.18,1.34-.25,2.07-.07.73-.12,1.42-.14,2.07-.05.98-.1,2.2-.14,3.65-.05,1.45-.1,2.99-.14,4.61-.05,1.62-.08,3.22-.11,4.79-.02,1.57-.04,2.98-.04,4.23s.23,2.28.7,3.02c.47.74,1.12,1.28,1.96,1.6.84.32,1.78.49,2.81.49,1.58,0,3.01-.2,4.28-.61,1.27-.41,2.42-.96,3.44-1.66,1.02-.7,1.94-1.49,2.75-2.38s1.55-1.81,2.2-2.77l2.56,3.13c-.6.86-1.36,1.76-2.27,2.7-.91.94-2,1.81-3.26,2.63-1.26.82-2.7,1.48-4.32,1.98s-3.44.76-5.45.76c-1.82,0-3.42-.28-4.79-.83-1.37-.55-2.44-1.44-3.2-2.66-.77-1.22-1.15-2.83-1.15-4.82,0-1.03.01-2.2.04-3.49.02-1.3.05-2.63.09-4.01.04-1.38.07-2.73.11-4.05.04-1.32.07-2.53.09-3.64.02-1.1.04-1.99.04-2.66,0-.77-.03-1.51-.09-2.21-.06-.71-.16-1.36-.31-1.96l4.61.04Z"/><path class="cls-1" d="M252.81,47.41c1.39,0,2.87-.07,4.43-.22,1.56-.14,3.15-.35,4.77-.61,1.62-.26,3.19-.59,4.7-.97v3.56c-1.49.34-3.06.62-4.72.86-1.66.24-3.28.43-4.86.56-1.58.13-3.04.2-4.36.2-.82,0-1.57-.01-2.25-.04-.68-.02-1.36-.06-2.03-.11l-.07-3.53c.89.1,1.67.17,2.36.22.68.05,1.36.07,2.03.07ZM261.3,41.65c-.12.43-.25.97-.38,1.6-.13.64-.23,1.13-.31,1.49-.17.84-.37,1.84-.59,3.01-.23,1.16-.49,2.38-.79,3.65-.3,1.27-.61,2.51-.92,3.71-.31,1.27-.7,2.65-1.15,4.14-.46,1.49-.94,2.99-1.46,4.52-.52,1.53-1.03,2.96-1.55,4.32-.52,1.36-1.03,2.55-1.53,3.58l-3.92-1.33c.53-.91,1.08-2.02,1.66-3.33.58-1.31,1.14-2.71,1.69-4.21.55-1.5,1.07-2.99,1.55-4.48.48-1.49.89-2.86,1.22-4.1.22-.84.43-1.72.65-2.65s.42-1.82.61-2.68c.19-.87.35-1.67.47-2.43.12-.76.22-1.39.29-1.89.1-.58.15-1.16.16-1.76s0-1.09-.02-1.48l4.32.32ZM265.41,61.48c-.12.55-.23,1.1-.32,1.64-.1.54-.14,1.04-.14,1.49,0,.41.08.8.23,1.17.16.37.43.7.83.99s.96.52,1.69.68c.73.17,1.67.25,2.83.25s2.38-.07,3.6-.2c1.22-.13,2.42-.31,3.6-.52l-.11,3.64c-1.01.12-2.11.23-3.29.34-1.19.11-2.47.16-3.83.16-2.93,0-5.17-.47-6.71-1.4-1.55-.94-2.32-2.29-2.32-4.07,0-.77.06-1.53.18-2.29.12-.76.26-1.49.43-2.21l3.35.32ZM264.15,52.59c.98-.1,2.06-.17,3.24-.23,1.18-.06,2.34-.09,3.49-.09,1.06,0,2.12.02,3.19.05,1.07.04,2.11.11,3.11.23l-.11,3.46c-.91-.12-1.89-.23-2.93-.32-1.04-.09-2.11-.14-3.19-.14-1.18,0-2.32.03-3.44.09-1.12.06-2.24.16-3.37.3v-3.35Z"/><path class="cls-1" d="M308.04,44.06c-.26.55-.51,1.15-.74,1.8-.23.65-.43,1.22-.59,1.73-.48,1.34-1.05,2.8-1.71,4.36-.66,1.56-1.4,3.1-2.23,4.61-.83,1.51-1.75,2.9-2.75,4.18-1.03,1.34-2.27,2.67-3.73,3.98-1.45,1.31-3.01,2.51-4.68,3.62-1.67,1.1-3.4,2.03-5.2,2.77l-3.2-3.31c1.85-.65,3.61-1.46,5.27-2.43,1.67-.97,3.22-2.06,4.64-3.26,1.43-1.2,2.68-2.46,3.76-3.78,1.13-1.39,2.14-2.96,3.02-4.7.89-1.74,1.66-3.53,2.3-5.36s1.13-3.62,1.44-5.35l4.39,1.15Z"/><path class="cls-1" d="M312.75,54.1c.41.03.91.05,1.49.09.59.04,1.22.07,1.91.09.68.02,1.34.04,1.96.04h19.58c.86,0,1.64-.03,2.34-.09.7-.06,1.26-.1,1.69-.13v4.46c-.41-.02-.98-.06-1.73-.11-.74-.05-1.51-.07-2.3-.07h-19.58c-.98,0-1.97.02-2.95.05-.98.04-1.79.08-2.41.13v-4.46Z"/><path class="cls-1" d="M351.67,66.85v-20.81c0-.58-.02-1.24-.07-2-.05-.76-.13-1.43-.25-2.03h4.43c-.05.58-.1,1.24-.16,1.98-.06.74-.09,1.43-.09,2.05v20.81c0,.38.01.85.04,1.4.02.55.06,1.11.11,1.67.05.56.1,1.07.14,1.53h-4.43c.1-.62.17-1.37.22-2.25.05-.88.07-1.66.07-2.36ZM354.7,51.4c1.18.34,2.5.75,3.96,1.24s2.94,1.02,4.43,1.58c1.49.56,2.9,1.12,4.25,1.67,1.34.55,2.48,1.06,3.42,1.51l-1.62,3.92c-1.01-.55-2.14-1.11-3.4-1.67-1.26-.56-2.55-1.11-3.87-1.64-1.32-.53-2.6-1.01-3.83-1.44-1.24-.43-2.35-.8-3.33-1.12v-4.07Z"/><path class="cls-1" d="M390.16,41.5c-.14.7-.34,1.54-.59,2.54-.25,1-.62,2.12-1.1,3.37-.41,1.01-.91,2.04-1.49,3.1-.59,1.06-1.19,2.02-1.82,2.88.41-.24.88-.44,1.42-.59.54-.16,1.09-.28,1.66-.36.56-.08,1.07-.12,1.53-.12,1.44,0,2.65.41,3.64,1.24.98.83,1.48,2.02,1.48,3.58v1.76c0,.7.01,1.43.04,2.2.02.77.04,1.52.05,2.27.01.75.02,1.39.02,1.95h-3.42c.02-.46.05-.99.07-1.6s.04-1.25.05-1.93c.01-.67.02-1.32.02-1.94v-1.66c-.02-1.08-.35-1.86-.97-2.34-.62-.48-1.36-.72-2.2-.72-1.08,0-2.15.25-3.22.76s-1.99,1.12-2.75,1.84c-.5.5-1.03,1.08-1.57,1.73-.54.65-1.11,1.36-1.71,2.12l-3.1-2.3c1.66-1.56,3.06-3.05,4.21-4.46,1.15-1.42,2.11-2.77,2.86-4.05.76-1.28,1.35-2.5,1.78-3.65.38-.98.7-1.99.94-3.01.24-1.02.38-1.97.43-2.86l3.74.29ZM377.27,45.14c.96.14,2.02.25,3.17.31s2.16.09,3.02.09c1.61,0,3.35-.04,5.22-.11s3.76-.19,5.67-.36,3.71-.41,5.42-.72v3.35c-1.27.17-2.63.32-4.07.47s-2.9.26-4.39.34c-1.49.08-2.92.14-4.28.18-1.37.04-2.62.05-3.74.05-.5,0-1.1,0-1.78-.02s-1.39-.04-2.12-.09c-.73-.05-1.43-.08-2.11-.11v-3.38ZM405.24,54.5c-.34.12-.73.25-1.17.4-.44.14-.88.3-1.31.47-.43.17-.83.32-1.19.47-1.22.48-2.65,1.06-4.27,1.73-1.62.67-3.28,1.45-4.99,2.34-1.15.6-2.15,1.2-2.99,1.8-.84.6-1.49,1.22-1.96,1.87-.47.65-.7,1.36-.7,2.12,0,.62.14,1.13.43,1.51s.69.68,1.21.88c.52.21,1.14.35,1.87.43.73.08,1.55.13,2.47.13,1.44,0,3.07-.08,4.9-.25,1.82-.17,3.53-.4,5.11-.68l-.11,3.64c-.86.1-1.87.2-3.02.31s-2.33.19-3.55.25c-1.21.06-2.36.09-3.44.09-1.8,0-3.42-.17-4.86-.5-1.44-.34-2.58-.92-3.42-1.75-.84-.83-1.26-1.99-1.26-3.47,0-1.17.27-2.24.81-3.19.54-.95,1.25-1.8,2.12-2.57.88-.77,1.85-1.48,2.93-2.12,1.08-.65,2.15-1.24,3.2-1.76,1.13-.6,2.18-1.12,3.15-1.57.97-.44,1.88-.85,2.74-1.21.85-.36,1.65-.72,2.39-1.08.62-.26,1.21-.52,1.76-.77.55-.25,1.1-.52,1.66-.81l1.48,3.31Z"/><path class="cls-1" d="M410.37,41.25h3.35v31.97h-3.35v-31.97ZM412.1,46.18h9.65v2.34h-9.65v-2.34ZM412.42,41.25h11.45v12.42h-11.45v-2.52h8.24v-7.42h-8.24v-2.48ZM415.88,61.88h18.97v2.84h-18.97v-2.84ZM420.13,56.73h2.92v6.73c0,.55-.07,1.24-.2,2.05-.13.82-.38,1.69-.74,2.61-.36.92-.85,1.82-1.48,2.68-.62.86-1.44,1.63-2.45,2.3-.24-.31-.58-.67-1.01-1.06-.43-.4-.83-.71-1.19-.96,1.13-.7,1.99-1.52,2.57-2.46.59-.95,1-1.89,1.22-2.83.23-.94.34-1.73.34-2.38v-6.7ZM416.49,55.76h17.68v2.74h-17.68v-2.74ZM438.85,41.25v2.48h-8.89v7.49h8.89v2.48h-12.13v-12.46h12.13ZM427.33,56.59h3.06v15.95h-3.06v-15.95ZM428.77,46.18h9.68v2.34h-9.68v-2.34ZM437.12,41.25h3.38v27.79c0,.91-.11,1.64-.34,2.18-.23.54-.63.95-1.21,1.24-.6.29-1.37.47-2.3.54s-2.1.11-3.49.11c-.02-.31-.09-.67-.2-1.08-.11-.41-.23-.82-.36-1.24-.13-.42-.28-.77-.45-1.06.91.02,1.78.04,2.59.04h1.66c.26-.02.45-.09.56-.2.11-.11.16-.29.16-.56v-27.76Z"/><path class="cls-1" d="M465.88,43.88c-.46.34-.94.71-1.46,1.13-.52.42-.95.79-1.31,1.1-.6.5-1.33,1.1-2.2,1.8-.86.7-1.77,1.43-2.72,2.2-.95.77-1.87,1.51-2.75,2.21-.89.71-1.64,1.34-2.27,1.89-.67.58-1.13,1.06-1.37,1.44-.24.38-.23.76.02,1.13s.73.87,1.42,1.49c.62.5,1.36,1.1,2.21,1.8.85.7,1.76,1.45,2.74,2.25.97.8,1.96,1.64,2.97,2.5,1.01.86,1.98,1.72,2.92,2.56s1.78,1.63,2.52,2.38l-3.28,2.99c-.86-.98-1.78-1.96-2.74-2.92-.6-.62-1.36-1.36-2.27-2.2-.91-.84-1.89-1.72-2.93-2.63-1.04-.91-2.08-1.8-3.11-2.68-1.03-.88-1.97-1.66-2.81-2.36-1.15-.98-1.9-1.86-2.23-2.63-.34-.77-.28-1.54.16-2.3.44-.77,1.23-1.62,2.36-2.56.7-.58,1.51-1.24,2.45-2s1.9-1.55,2.9-2.39c1-.84,1.94-1.65,2.84-2.43.9-.78,1.65-1.47,2.25-2.07.43-.43.88-.89,1.33-1.39.46-.49.79-.93,1.01-1.31l3.35,2.99Z"/><path class="cls-1" d="M157.91,16.11c-.04.12-.09.28-.15.48-.06.2-.11.4-.15.59s-.07.35-.1.47c-.07.33-.14.75-.23,1.24-.09.49-.17,1.03-.25,1.62-.08.59-.16,1.18-.23,1.79s-.13,1.19-.18,1.75-.07,1.05-.07,1.48c0,.35.01.7.04,1.07.03.37.07.74.12,1.11.09-.28.2-.57.32-.88s.25-.61.38-.91c.13-.3.25-.58.34-.83l1,.82c-.17.49-.36,1.03-.55,1.61s-.37,1.13-.53,1.65-.27.95-.34,1.3c-.03.13-.05.29-.08.47-.03.18-.03.33-.02.45,0,.09,0,.21,0,.35,0,.14.02.27.03.39l-1.8.14c-.21-.71-.4-1.6-.55-2.69-.15-1.09-.23-2.31-.23-3.67,0-.75.03-1.52.1-2.32.07-.8.15-1.58.24-2.35.09-.77.19-1.47.28-2.1.09-.63.17-1.16.24-1.57.03-.24.06-.51.09-.81.03-.3.06-.58.07-.83l2.2.18ZM167.27,17.77v4.64c0,.65.01,1.3.04,1.94.03.64.06,1.26.09,1.85.03.59.06,1.15.09,1.68s.04,1,.04,1.43c0,.84-.28,1.51-.85,2s-1.44.74-2.61.74c-.75,0-1.42-.11-2.03-.33-.61-.22-1.09-.55-1.44-.98-.35-.43-.53-.98-.53-1.65,0-.53.14-1.02.42-1.46.28-.44.71-.79,1.3-1.06.59-.27,1.33-.4,2.22-.4s1.79.1,2.58.3c.79.2,1.49.46,2.12.79.63.33,1.18.67,1.67,1.03.49.36.9.69,1.25.98l-1.06,1.74c-.64-.65-1.32-1.23-2.05-1.73-.73-.5-1.48-.9-2.25-1.19-.77-.29-1.55-.44-2.32-.44-.64,0-1.15.12-1.53.36s-.57.56-.57.96c0,.44.18.77.54.99.36.22.85.33,1.46.33.47,0,.83-.07,1.09-.22.26-.15.44-.35.55-.61.11-.26.16-.56.16-.89,0-.31-.01-.69-.03-1.16s-.05-.98-.08-1.55c-.03-.57-.06-1.14-.07-1.72s-.02-1.13-.02-1.65v-4.72h1.82ZM160.73,21.51c1.23.09,2.44.14,3.63.13,1.19,0,2.34-.05,3.44-.13s2.12-.17,3.05-.28v1.82c-.87.09-1.85.17-2.96.24-1.11.07-2.27.11-3.48.12s-2.43,0-3.66-.06l-.02-1.84ZM161.05,16.85c.84.07,1.69.11,2.55.12.86.01,1.7,0,2.51-.02.81-.03,1.58-.07,2.31-.14.73-.07,1.39-.15,1.99-.24v1.78c-.59.05-1.24.11-1.97.16-.73.05-1.5.1-2.31.13-.81.03-1.65.05-2.51.05s-1.72-.02-2.57-.06v-1.78Z"/><path class="cls-1" d="M182.01,16.31c.28.01.56.03.84.04.28.01.58.02.9.02.17,0,.45,0,.83-.02.38-.01.81-.03,1.3-.05.49-.02.98-.04,1.49-.07s.97-.05,1.4-.08c.43-.03.75-.05.98-.08.28-.03.52-.06.73-.1.21-.04.37-.08.49-.12l1.26,1.44c-.16.11-.37.25-.64.43-.27.18-.48.34-.64.47-.29.24-.62.51-.99.81-.37.3-.75.61-1.14.94-.39.33-.79.65-1.19.98s-.78.64-1.15.94c-.37.3-.7.56-.99.79.96-.11,1.97-.2,3.02-.28s2.1-.14,3.13-.19,2-.07,2.89-.07l.02,1.86c-.97-.05-1.92-.07-2.83-.06-.91.01-1.68.06-2.29.14-.47.07-.92.2-1.35.41-.43.21-.83.47-1.18.79-.35.32-.63.68-.82,1.07-.19.39-.29.82-.29,1.27,0,.6.15,1.09.44,1.46.29.37.69.65,1.19.84s1.05.33,1.65.42c.57.07,1.11.1,1.62.09.51,0,.95-.02,1.32-.05l-.42,2.06c-2.49.11-4.41-.22-5.76-.98s-2.02-1.93-2.02-3.52c0-.51.1-.99.3-1.44.2-.45.45-.86.74-1.21s.59-.64.88-.87c-.99.08-2.07.19-3.25.34-1.18.15-2.33.32-3.45.52l-.18-1.9c.55-.07,1.14-.14,1.77-.21s1.2-.14,1.71-.19c.51-.35,1.05-.75,1.63-1.2.58-.45,1.16-.92,1.74-1.41s1.12-.94,1.61-1.37.89-.78,1.2-1.06c-.16.01-.4.03-.73.05-.33.02-.68.04-1.07.06-.39.02-.77.04-1.16.06-.39.02-.74.04-1.05.06-.31.02-.56.04-.73.05-.25.01-.53.04-.82.07-.29.03-.57.06-.84.09l-.1-2.04ZM192.21,18.57c.24.35.49.74.75,1.17.26.43.5.86.71,1.29l-1.26.56c-.2-.44-.41-.87-.64-1.28-.23-.41-.48-.82-.76-1.22l1.2-.52ZM194.37,17.73c.24.31.5.69.78,1.14.28.45.53.88.74,1.28l-1.24.58c-.21-.43-.44-.85-.69-1.28-.25-.43-.51-.82-.79-1.18l1.2-.54Z"/><path class="cls-1" d="M206.61,16.55c-.09.13-.19.28-.3.45-.11.17-.22.34-.34.53-.23.35-.49.78-.8,1.29-.31.51-.63,1.06-.96,1.65-.33.59-.66,1.17-.98,1.74-.32.57-.6,1.09-.84,1.56.43-.33.87-.58,1.33-.73.46-.15.9-.23,1.33-.23.71,0,1.28.22,1.71.65.43.43.67,1.06.71,1.87.01.35.02.74.02,1.17s0,.86,0,1.27c0,.41.02.77.05,1.08.03.47.18.8.47.99s.62.29.99.29c.51,0,.96-.14,1.37-.42.41-.28.77-.66,1.08-1.13.31-.47.58-.99.8-1.56.22-.57.4-1.14.53-1.71l1.68,1.38c-.35,1.11-.78,2.08-1.3,2.91-.52.83-1.15,1.49-1.88,1.96s-1.6.71-2.6.71c-.72,0-1.3-.13-1.75-.4-.45-.27-.77-.6-.98-1-.21-.4-.32-.81-.35-1.24-.03-.39-.04-.8-.05-1.25s-.01-.89-.02-1.32c0-.43-.02-.81-.05-1.13-.01-.4-.13-.71-.36-.93-.23-.22-.55-.33-.96-.33-.49,0-.97.15-1.43.44-.46.29-.87.68-1.24,1.16s-.68.99-.93,1.52c-.15.29-.3.64-.46,1.05-.16.41-.32.83-.47,1.26s-.29.84-.41,1.23c-.12.39-.22.71-.3.96l-2.2-.74c.25-.68.57-1.45.94-2.31.37-.86.79-1.77,1.24-2.72.45-.95.91-1.9,1.38-2.83s.91-1.82,1.34-2.66c.43-.84.81-1.57,1.14-2.2s.59-1.1.76-1.42c.13-.24.27-.5.42-.79.15-.29.29-.61.42-.97l2.24.9Z"/><path class="cls-1" d="M408.78,17.45c.33.03.7.03,1.1,0,.45-.03.98-.07,1.59-.13.61-.06,1.22-.14,1.84-.24.62-.1,1.2-.2,1.73-.31.53-.11.95-.21,1.26-.32l.58,1.76c-.13.04-.3.09-.5.16-.2.07-.37.14-.52.22-.27.2-.58.49-.94.86-.36.37-.73.82-1.11,1.34-.38.52-.73,1.1-1.06,1.74-.33.64-.59,1.33-.8,2.06-.21.73-.31,1.5-.31,2.3,0,.65.1,1.21.29,1.66s.46.82.81,1.09c.35.27.74.47,1.19.6.45.13.92.19,1.41.19,1.56,0,2.77-.53,3.62-1.58.85-1.05,1.36-2.54,1.51-4.47s-.04-4.18-.59-6.75l1.86,3.18c.2,1.12.31,2.24.34,3.35.03,1.11-.07,2.17-.3,3.18-.23,1.01-.6,1.9-1.12,2.68-.52.78-1.22,1.39-2.1,1.84-.88.45-1.97.67-3.26.67-.8,0-1.54-.11-2.23-.33-.69-.22-1.29-.55-1.8-.98-.51-.43-.91-.98-1.2-1.63-.29-.65-.43-1.41-.43-2.26s.1-1.71.29-2.5.45-1.52.78-2.21c.33-.69.7-1.33,1.12-1.94.42-.61.86-1.18,1.31-1.71-.31.03-.66.07-1.05.12s-.77.1-1.13.15-.65.08-.88.11c-.2.03-.39.05-.56.08-.17.03-.37.06-.6.1l-.14-2.08ZM421.58,16.41c.09.61.23,1.27.41,1.97.18.7.43,1.42.74,2.16.31.74.72,1.48,1.23,2.22s1.13,1.45,1.88,2.13l-1.3,1.8c-.73-.8-1.39-1.68-1.98-2.65-.59-.97-1.12-2.04-1.6-3.22-.48-1.18-.94-2.46-1.38-3.85l2-.56Z"/><path class="cls-1" d="M431.02,19.35c-.07.31-.14.69-.21,1.16s-.15.95-.22,1.46-.14.99-.21,1.45c-.07.46-.12.84-.16,1.15.93-.76,1.92-1.32,2.97-1.68s2.14-.54,3.27-.54,2.03.2,2.82.59c.79.39,1.4.92,1.83,1.58.43.66.65,1.39.65,2.19,0,.89-.2,1.72-.6,2.47-.4.75-1.03,1.39-1.9,1.9-.87.51-1.99.88-3.37,1.09-1.38.21-3.04.24-4.99.08l-.6-2.06c2.05.25,3.77.26,5.15.02,1.38-.24,2.42-.67,3.11-1.29.69-.62,1.04-1.37,1.04-2.25,0-.49-.14-.93-.43-1.31-.29-.38-.68-.68-1.17-.9-.49-.22-1.06-.33-1.7-.33-1.23,0-2.35.22-3.37.67-1.02.45-1.86,1.07-2.53,1.87-.17.2-.31.38-.41.55s-.19.34-.27.51l-1.84-.44c.08-.37.16-.82.25-1.35.09-.53.17-1.09.25-1.7.08-.61.15-1.22.22-1.84.07-.62.13-1.22.18-1.8.05-.58.09-1.09.12-1.53l2.12.28ZM431.2,15.55c.45.13,1.03.28,1.74.44.71.16,1.45.32,2.22.47.77.15,1.51.29,2.2.4s1.26.19,1.7.23l-.46,1.94c-.4-.05-.87-.13-1.42-.23-.55-.1-1.13-.21-1.76-.33s-1.24-.24-1.85-.36c-.61-.12-1.16-.24-1.65-.36-.49-.12-.9-.22-1.22-.3l.5-1.9Z"/></g></svg>