<?xml version="1.0" encoding="UTF-8"?><svg id="_レイヤー_2" xmlns="http://www.w3.org/2000/svg" viewBox="0 0 514 90"><defs><style>.cls-1{stroke:#e3e3e3;stroke-miterlimit:10;stroke-width:2px;}.cls-1,.cls-2{fill:#fff;}.cls-3{fill:#333;}.cls-3,.cls-2,.cls-4{stroke-width:0px;}.cls-4{fill:#e3e3e3;}</style></defs><g id="_ツール"><rect class="cls-1" x="1" y="1" width="512" height="88" rx="8" ry="8"/><rect class="cls-2" x="2" y="2" width="510" height="86" rx="7" ry="7"/><path class="cls-4" d="M505,3c3.31,0,6,2.69,6,6v72c0,3.31-2.69,6-6,6H9c-3.31,0-6-2.69-6-6V9c0-3.31,2.69-6,6-6h496M505,1H9C4.58,1,1,4.58,1,9v72c0,4.42,3.58,8,8,8h496c4.42,0,8-3.58,8-8V9c0-4.42-3.58-8-8-8h0Z"/><path class="cls-3" d="M145.87,43.04h32.11v3.21h-32.11v-3.21ZM146.98,49.31h3.35v24.88h-3.35v-24.88ZM148.86,68.75h26.1v3.24h-26.1v-3.24ZM153.25,49.78h17.28v16.27h-17.28v-16.27ZM156.06,52.58v3.96h11.52v-3.96h-11.52ZM156.06,59.21v4.03h11.52v-4.03h-11.52ZM160.09,43.98h3.42v7.16h-3.42v-7.16ZM160.3,51.04h2.99v13.9h-2.99v-13.9ZM173.62,49.31h3.31v24.8h-3.31v-24.8Z"/><path class="cls-3" d="M192.27,40.92l3.13.9c-.67,2.09-1.47,4.17-2.39,6.25-.92,2.08-1.94,4.04-3.04,5.89-1.1,1.85-2.27,3.48-3.49,4.9-.07-.26-.21-.62-.41-1.08-.2-.46-.42-.91-.65-1.37-.23-.46-.44-.83-.63-1.12,1.03-1.18,2.01-2.53,2.93-4.07.92-1.54,1.78-3.19,2.56-4.95s1.45-3.55,2-5.35ZM189.39,50.21l3.13-3.17.11.07v27.07h-3.24v-23.98ZM201.02,40.81l3.28.58c-.96,1.73-2.12,3.46-3.49,5.18-1.37,1.73-3,3.34-4.9,4.82-.26-.33-.64-.7-1.13-1.08-.49-.38-.93-.67-1.31-.86,1.18-.84,2.25-1.75,3.22-2.74.97-.98,1.82-1.99,2.56-3.01.73-1.02,1.33-1.98,1.78-2.9ZM206.74,63.24l2.2,1.51c-1.01,1.06-2.26,2.11-3.74,3.17-1.49,1.06-3.07,2.04-4.73,2.95-1.67.91-3.26,1.67-4.77,2.27-.22-.38-.49-.82-.83-1.3-.34-.48-.67-.88-1.01-1.19,1.13-.36,2.3-.81,3.53-1.35,1.22-.54,2.42-1.15,3.58-1.82,1.16-.67,2.24-1.37,3.24-2.11,1-.73,1.84-1.45,2.54-2.14ZM205.52,54.06l2.63,1.08c-.98.94-2.15,1.83-3.49,2.68-1.34.85-2.75,1.64-4.21,2.36-1.46.72-2.9,1.33-4.32,1.84-.12-.19-.29-.43-.52-.72-.23-.29-.46-.58-.7-.86s-.47-.53-.68-.72c1.39-.38,2.79-.86,4.19-1.44s2.73-1.22,3.98-1.94c1.25-.72,2.29-1.48,3.13-2.27ZM204.91,59.46l1.94,1.3c-.82.77-1.84,1.55-3.06,2.34-1.22.79-2.51,1.54-3.85,2.23-1.34.7-2.62,1.27-3.82,1.73-.17-.34-.41-.72-.72-1.15-.31-.43-.61-.79-.9-1.08,1.18-.34,2.42-.8,3.74-1.39,1.32-.59,2.57-1.23,3.76-1.93,1.19-.7,2.15-1.38,2.9-2.05ZM196.3,47.94h21.35v8.28h-21.35v-8.28ZM199.4,50.32v3.49h14.98v-3.49h-14.98ZM201.63,43.04h8.39v2.52h-10.4l2.02-2.52ZM201.49,58.38l2.23-1.4c1.42.98,2.56,2.08,3.42,3.29.86,1.21,1.5,2.46,1.91,3.74.41,1.28.62,2.51.65,3.69.02,1.18-.13,2.23-.47,3.15-.34.92-.8,1.63-1.4,2.11-.55.46-1.1.78-1.66.96-.55.18-1.21.28-1.98.31-.36,0-.77,0-1.24-.02-.47-.01-.95-.03-1.46-.05,0-.41-.07-.89-.2-1.44-.13-.55-.33-1.04-.59-1.48.55.05,1.08.08,1.58.11.5.02.92.04,1.26.04.43,0,.81-.04,1.13-.11.32-.07.62-.25.88-.54.48-.38.8-1.03.97-1.94.17-.91.13-1.98-.11-3.2-.24-1.22-.76-2.47-1.55-3.73s-1.92-2.42-3.38-3.47ZM205.2,48.95h3.06v5.98h-3.06v-5.98ZM208.98,43.04h.72l.61-.21,2.05,1.48c-.6,1.03-1.31,2.08-2.12,3.15-.82,1.07-1.61,1.99-2.38,2.75-.22-.31-.52-.67-.9-1.06s-.72-.71-1.01-.95c.58-.62,1.15-1.37,1.73-2.25.58-.88,1.01-1.66,1.3-2.36v-.54ZM210.27,54.6c.48,2.23,1.12,4.35,1.93,6.35.8,2,1.8,3.79,2.99,5.35s2.56,2.8,4.12,3.71c-.24.19-.5.45-.77.77-.28.32-.55.65-.81.99-.26.34-.48.65-.65.94-1.66-1.13-3.11-2.57-4.36-4.32-1.25-1.75-2.29-3.76-3.13-6.03-.84-2.27-1.54-4.69-2.09-7.25l2.77-.5ZM216.46,57.16l2.34,2.02c-.91.79-1.91,1.59-3.01,2.39-1.09.8-2.09,1.48-3.01,2.03l-1.94-1.84c.6-.38,1.24-.85,1.91-1.39.67-.54,1.34-1.09,2-1.66s1.23-1.08,1.71-1.57Z"/><path class="cls-3" d="M241.56,42.5c-.14.7-.34,1.54-.59,2.54-.25,1-.62,2.12-1.1,3.37-.41,1.01-.91,2.04-1.49,3.1-.59,1.06-1.19,2.02-1.82,2.88.41-.24.88-.44,1.42-.59.54-.16,1.09-.28,1.66-.36.56-.08,1.07-.13,1.53-.13,1.44,0,2.65.41,3.64,1.24.98.83,1.48,2.02,1.48,3.58v1.76c0,.7.01,1.43.04,2.2.02.77.04,1.52.05,2.27.01.74.02,1.39.02,1.94h-3.42c.02-.46.05-.99.07-1.6.02-.61.04-1.25.05-1.93.01-.67.02-1.32.02-1.94v-1.66c-.02-1.08-.35-1.86-.97-2.34s-1.36-.72-2.2-.72c-1.08,0-2.15.25-3.22.76s-1.99,1.12-2.75,1.84c-.5.5-1.03,1.08-1.57,1.73s-1.11,1.36-1.71,2.12l-3.1-2.3c1.66-1.56,3.06-3.05,4.21-4.46,1.15-1.42,2.11-2.77,2.86-4.05.76-1.28,1.35-2.5,1.78-3.65.38-.98.7-1.99.94-3.01.24-1.02.38-1.97.43-2.86l3.74.29ZM228.67,46.14c.96.14,2.02.25,3.17.31,1.15.06,2.16.09,3.02.09,1.61,0,3.35-.04,5.22-.11s3.76-.19,5.67-.36,3.71-.41,5.42-.72v3.35c-1.27.17-2.63.32-4.07.47-1.44.14-2.9.26-4.39.34-1.49.08-2.92.14-4.28.18-1.37.04-2.62.05-3.74.05-.5,0-1.1,0-1.78-.02-.68-.01-1.39-.04-2.12-.09-.73-.05-1.43-.08-2.11-.11v-3.38ZM256.64,55.5c-.34.12-.73.25-1.17.4-.44.14-.88.3-1.31.47-.43.17-.83.32-1.19.47-1.22.48-2.65,1.06-4.27,1.73-1.62.67-3.28,1.45-4.99,2.34-1.15.6-2.15,1.2-2.99,1.8-.84.6-1.49,1.22-1.96,1.87-.47.65-.7,1.36-.7,2.12,0,.62.14,1.13.43,1.51.29.38.69.68,1.21.88.52.2,1.14.35,1.87.43s1.55.13,2.47.13c1.44,0,3.07-.08,4.9-.25,1.82-.17,3.53-.4,5.11-.68l-.11,3.64c-.86.1-1.87.2-3.02.31-1.15.11-2.33.19-3.55.25-1.21.06-2.36.09-3.44.09-1.8,0-3.42-.17-4.86-.5-1.44-.34-2.58-.92-3.42-1.75-.84-.83-1.26-1.99-1.26-3.47,0-1.18.27-2.24.81-3.19s1.25-1.81,2.12-2.57c.88-.77,1.85-1.48,2.93-2.12,1.08-.65,2.15-1.24,3.2-1.76,1.13-.6,2.18-1.12,3.15-1.57.97-.44,1.88-.85,2.74-1.21.85-.36,1.65-.72,2.39-1.08.62-.26,1.21-.52,1.76-.77.55-.25,1.1-.52,1.66-.81l1.48,3.31Z"/><path class="cls-3" d="M270.46,46.75h12.46v2.74h-12.46v-2.74ZM271.94,61.51h2.84v12.24h-2.84v-12.24ZM272.01,51.72h9.86v2.63h-9.86v-2.63ZM272.01,56.58h9.86v2.63h-9.86v-2.63ZM272.23,41.96h9.54v2.66h-9.54v-2.66ZM273.6,61.51h8.35v10.66h-8.35v-2.74h5.51v-5.18h-5.51v-2.74ZM288.54,59.32h3.17c-.07,1.92-.22,3.65-.45,5.2s-.62,2.93-1.17,4.14c-.55,1.21-1.33,2.29-2.34,3.22-1.01.94-2.32,1.73-3.92,2.38-.12-.26-.29-.57-.52-.92-.23-.35-.47-.68-.74-1.01-.26-.32-.5-.58-.72-.77,1.42-.53,2.56-1.16,3.42-1.89.86-.73,1.52-1.6,1.98-2.59.46-1,.77-2.13.95-3.4.18-1.27.29-2.72.34-4.36ZM283.42,54.49h20.02v6.62h-3.17v-3.89h-13.79v3.89h-3.06v-6.62ZM283.71,43.76h19.55v2.81h-19.55v-2.81ZM284.86,49.42h17.32v2.81h-17.32v-2.81ZM291.6,40.74h3.35v10.12h-3.35v-10.12ZM294.8,59.32h3.17v10.44c0,.48.05.78.14.9.1.12.3.18.61.18h1.91c.24,0,.42-.1.54-.31.12-.2.21-.65.27-1.33.06-.68.1-1.7.13-3.04.22.17.49.34.83.5.34.17.68.32,1.04.45.36.13.67.25.94.34-.07,1.66-.23,2.95-.47,3.89-.24.94-.59,1.58-1.06,1.94-.47.36-1.09.54-1.85.54h-2.77c-.91,0-1.61-.12-2.11-.36-.49-.24-.83-.66-1.03-1.26-.19-.6-.29-1.42-.29-2.45v-10.44Z"/><path class="cls-3" d="M317.41,44.38c.48.05.98.08,1.49.11.52.02.97.04,1.35.04.5,0,1.12-.01,1.84-.04.72-.02,1.46-.05,2.23-.09s1.5-.07,2.2-.11c.7-.04,1.24-.07,1.62-.09.38-.05.76-.11,1.12-.18s.68-.16.97-.25l2.27,1.8c-.22.22-.41.43-.59.65-.18.22-.34.45-.49.68-.38.62-.85,1.51-1.39,2.66s-1.1,2.4-1.69,3.74c-.59,1.34-1.16,2.64-1.71,3.89-.36.82-.74,1.69-1.15,2.63-.41.94-.82,1.87-1.24,2.81-.42.94-.83,1.81-1.22,2.61-.4.8-.79,1.49-1.17,2.07-.67.98-1.41,1.69-2.21,2.12-.8.43-1.73.65-2.79.65-1.44,0-2.64-.47-3.6-1.42-.96-.95-1.44-2.25-1.44-3.91,0-1.39.31-2.68.94-3.87.62-1.19,1.5-2.23,2.63-3.13,1.13-.9,2.47-1.6,4.03-2.09s3.28-.74,5.15-.74c2.04,0,4.02.24,5.94.72,1.92.48,3.71,1.09,5.36,1.82,1.66.73,3.16,1.51,4.52,2.32,1.36.82,2.51,1.56,3.47,2.23l-1.66,3.89c-1.08-.94-2.29-1.87-3.62-2.79-1.33-.92-2.77-1.76-4.32-2.52-1.55-.76-3.18-1.36-4.9-1.82-1.72-.46-3.5-.68-5.35-.68s-3.48.31-4.82.92c-1.34.61-2.36,1.39-3.06,2.32-.7.94-1.04,1.91-1.04,2.92,0,.72.19,1.26.58,1.62.38.36.83.54,1.33.54.38,0,.73-.09,1.04-.27.31-.18.64-.5.97-.95.36-.48.71-1.06,1.06-1.73.35-.67.7-1.4,1.06-2.18.36-.78.71-1.58,1.06-2.39.35-.82.68-1.58.99-2.3.48-1.03.95-2.09,1.42-3.19.47-1.09.94-2.15,1.4-3.17.47-1.02.89-1.93,1.28-2.72-.36,0-.84.01-1.44.04-.6.03-1.25.05-1.94.09-.7.04-1.36.07-1.98.09-.62.02-1.14.05-1.55.07-.38.02-.83.06-1.35.11-.52.05-1,.11-1.46.18l-.14-3.71ZM340.45,52.55c-.14,2.54-.4,4.87-.77,6.98-.37,2.11-.96,4.02-1.76,5.72-.8,1.7-1.9,3.23-3.28,4.59-1.38,1.36-3.13,2.57-5.24,3.65l-3.02-2.48c2.16-.91,3.91-1.99,5.24-3.22,1.33-1.24,2.35-2.55,3.06-3.96.71-1.4,1.21-2.81,1.49-4.21.29-1.4.48-2.71.58-3.91.02-.6.04-1.22.05-1.85.01-.63-.02-1.21-.09-1.71l3.74.4Z"/><path class="cls-3" d="M359.49,66.41c.82,1.25,1.95,2.18,3.4,2.79,1.45.61,3.17.96,5.17,1.03,1.03.05,2.26.08,3.67.09,1.42.01,2.92,0,4.5-.04,1.58-.04,3.12-.08,4.61-.12,1.49-.05,2.8-.12,3.92-.22-.14.26-.29.61-.43,1.03-.14.42-.28.85-.4,1.28-.12.43-.22.83-.29,1.19-1.03.05-2.23.08-3.58.11-1.36.02-2.76.04-4.21.05-1.45.01-2.86.01-4.23,0-1.37-.01-2.57-.04-3.6-.09-2.28-.1-4.23-.46-5.85-1.1-1.62-.64-3.02-1.66-4.19-3.08-.82.74-1.66,1.49-2.54,2.23-.88.74-1.81,1.51-2.79,2.3l-1.73-3.53c.84-.53,1.75-1.14,2.72-1.84.97-.7,1.89-1.39,2.75-2.09h3.1ZM359.49,54.89v13h-3.31v-9.83h-4.64v-3.17h7.96ZM351.75,43.69l2.52-2.05c.77.48,1.55,1.04,2.36,1.69.8.65,1.54,1.31,2.21,1.98.67.67,1.22,1.3,1.66,1.87l-2.7,2.23c-.38-.58-.91-1.21-1.57-1.89-.66-.68-1.38-1.36-2.16-2.03-.78-.67-1.55-1.27-2.32-1.8ZM370.15,49.67l3.49.5c-.82,4.08-2.06,7.62-3.74,10.62-1.68,3-3.86,5.46-6.55,7.38-.17-.24-.41-.52-.72-.85s-.64-.65-.99-.97c-.35-.32-.65-.58-.92-.77,2.59-1.61,4.65-3.76,6.17-6.46,1.52-2.7,2.61-5.85,3.26-9.45ZM364.42,42.47h7.56v3.2h-7.56v-3.2ZM370.11,42.47h3.64c.19,2.66.51,5.19.95,7.58.44,2.39,1.07,4.58,1.89,6.57.82,1.99,1.85,3.74,3.11,5.26,1.26,1.51,2.81,2.74,4.66,3.67-.26.19-.56.44-.9.74-.34.3-.66.61-.97.94-.31.32-.58.63-.79.92-1.87-1.1-3.46-2.47-4.75-4.09s-2.36-3.47-3.2-5.54c-.84-2.08-1.49-4.33-1.96-6.75-.47-2.42-.81-4.99-1.03-7.7h-.65v-1.58Z"/><path class="cls-3" d="M393.26,46.97c1.03.14,2.03.26,2.99.34.96.08,1.88.13,2.77.13,1.75,0,3.61-.13,5.56-.4,1.96-.26,3.91-.65,5.85-1.15v3.46c-1.3.29-2.63.53-4,.72-1.37.19-2.67.34-3.91.43-1.24.1-2.33.14-3.29.14-.77,0-1.64-.03-2.63-.09-.98-.06-2.04-.15-3.17-.27l-.18-3.31ZM404.67,58.88c0,.91-.11,1.84-.32,2.79-.22.95-.56,1.82-1.04,2.61-.48.79-1.12,1.43-1.91,1.91-.79.48-1.79.72-2.99.72-.77,0-1.53-.2-2.29-.59-.76-.4-1.39-1.04-1.89-1.93s-.76-2.05-.76-3.49c0-1.32.26-2.53.79-3.62.53-1.09,1.26-1.97,2.2-2.63s2.03-.99,3.28-.99c1.61,0,2.83.49,3.67,1.48.84.98,1.26,2.23,1.26,3.74ZM398.77,63.53c.67,0,1.2-.22,1.58-.65.38-.43.66-.99.83-1.67.17-.68.25-1.4.25-2.14,0-.79-.17-1.41-.52-1.85-.35-.44-.81-.67-1.39-.67s-1.06.18-1.51.52c-.46.35-.82.83-1.1,1.44-.28.61-.41,1.33-.41,2.14,0,.94.23,1.65.68,2.14.46.49.98.74,1.58.74ZM402.87,63.38c-.02.24-.04.57-.05.99-.01.42-.02.85-.04,1.3-.01.44-.02.86-.02,1.24,0,.43.05.82.14,1.15.1.34.32.61.67.81.35.21.88.36,1.58.47.71.11,1.66.16,2.86.16.65,0,1.34-.03,2.07-.09.73-.06,1.43-.14,2.11-.23.67-.1,1.22-.2,1.66-.32.94-.29,1.64-.73,2.12-1.33.48-.6.72-1.44.72-2.52,0-.7-.01-1.39-.04-2.07-.02-.68-.08-1.4-.18-2.14l3.89,1.19c.02.53.04,1.01.04,1.44v1.24c0,.4-.01.85-.04,1.35-.05,1.1-.23,2.05-.56,2.83s-.83,1.44-1.53,1.98c-.7.54-1.66.98-2.88,1.31-.53.17-1.24.31-2.12.41-.89.11-1.82.19-2.81.25-.98.06-1.88.09-2.7.09-1.54,0-2.82-.08-3.85-.23-1.03-.16-1.86-.38-2.48-.67-.62-.29-1.09-.63-1.39-1.03-.3-.4-.5-.83-.59-1.29-.1-.47-.14-.97-.14-1.49,0-.65.01-1.29.04-1.93.02-.64.05-1.22.07-1.75l3.46-1.12ZM403.99,42.36c-.05.43-.11.98-.18,1.64-.07.66-.11,1.41-.11,2.25v10.98l-3.35-1.55v-4.84c0-.95,0-1.83-.02-2.65-.01-.82-.02-1.46-.02-1.94,0-.89-.02-1.65-.05-2.29-.04-.63-.11-1.17-.23-1.6h3.96ZM416.37,45.85c.55.36,1.16.82,1.84,1.37.67.55,1.36,1.15,2.07,1.8s1.37,1.28,1.98,1.89c.61.61,1.12,1.17,1.53,1.67l-2.56,2.63c-.62-.79-1.37-1.63-2.23-2.52-.86-.89-1.74-1.73-2.63-2.54-.89-.8-1.67-1.45-2.34-1.93l2.34-2.38Z"/><path class="cls-3" d="M153.14,21.09c.33.01.65.02.96.02s.63,0,.98-.02c.31-.01.7-.04,1.17-.07.47-.03.98-.07,1.52-.12s1.08-.09,1.61-.14,1.03-.08,1.49-.11c.46-.03.83-.04,1.11-.04.64,0,1.22.1,1.73.31s.92.57,1.22,1.09c.3.52.45,1.25.45,2.18,0,.79-.04,1.64-.11,2.55-.07.91-.19,1.79-.36,2.62-.17.83-.39,1.53-.67,2.09-.32.69-.74,1.16-1.26,1.4s-1.13.36-1.82.36c-.39,0-.8-.03-1.23-.09-.43-.06-.82-.13-1.15-.21l-.34-2.08c.28.08.57.15.88.21.31.06.6.11.88.14.28.03.51.05.7.05.35,0,.66-.06.94-.19.28-.13.51-.38.7-.75.2-.43.36-.97.49-1.62.13-.65.22-1.35.29-2.1.07-.75.1-1.47.1-2.16,0-.59-.08-1.02-.24-1.3-.16-.28-.39-.47-.7-.57-.31-.1-.67-.15-1.1-.15-.32,0-.76.02-1.31.07-.55.05-1.14.1-1.76.17s-1.2.13-1.74.19c-.54.06-.96.11-1.25.15-.25.03-.58.07-.97.12-.39.05-.73.11-1.01.16l-.2-2.16ZM160.74,16.83c-.05.2-.1.43-.15.68s-.1.49-.15.7c-.04.27-.1.6-.18.99-.08.39-.16.8-.23,1.22s-.16.82-.25,1.21c-.13.56-.3,1.21-.5,1.94-.2.73-.43,1.52-.69,2.35-.26.83-.55,1.68-.88,2.54-.33.86-.68,1.7-1.06,2.52-.38.82-.79,1.58-1.23,2.29l-2.06-.82c.47-.61.9-1.31,1.3-2.08.4-.77.77-1.57,1.1-2.39.33-.82.63-1.63.9-2.43.27-.8.49-1.54.68-2.23.19-.69.33-1.28.44-1.77.19-.85.34-1.71.45-2.56s.17-1.65.17-2.4l2.34.24ZM167.62,19.01c.31.41.64.93.99,1.55.35.62.7,1.28,1.03,1.97.33.69.64,1.36.92,2.01.28.65.5,1.2.66,1.67l-1.98.94c-.15-.53-.34-1.13-.59-1.8-.25-.67-.53-1.34-.84-2.03-.31-.69-.65-1.34-1-1.95-.35-.61-.7-1.13-1.05-1.54l1.86-.82ZM167.58,16.15c.17.24.36.53.56.86.2.33.39.67.58,1,.19.33.35.63.48.9l-1.32.56c-.12-.27-.27-.57-.46-.9-.19-.33-.38-.67-.57-1-.19-.33-.38-.63-.57-.88l1.3-.54ZM169.86,15.31c.17.25.37.55.58.88.21.33.42.66.61.99s.35.61.47.85l-1.3.58c-.21-.43-.47-.9-.77-1.42-.3-.52-.6-.97-.89-1.34l1.3-.54Z"/><path class="cls-3" d="M189.07,17.31c.28.01.56.03.84.04.28.01.58.02.9.02.17,0,.45,0,.83-.02.38-.01.81-.03,1.3-.05.49-.02.98-.04,1.49-.07s.97-.05,1.4-.08c.43-.03.75-.05.98-.08.28-.03.52-.06.73-.1.21-.04.37-.08.49-.12l1.26,1.44c-.16.11-.37.25-.64.43-.27.18-.48.34-.64.47-.29.24-.62.51-.99.81-.37.3-.75.61-1.14.94-.39.33-.79.65-1.19.98s-.78.64-1.15.94c-.37.3-.7.56-.99.79.96-.11,1.97-.2,3.02-.28s2.1-.14,3.13-.19,2-.07,2.89-.07l.02,1.86c-.97-.05-1.92-.07-2.83-.06-.91.01-1.68.06-2.29.14-.47.07-.92.2-1.35.41-.43.21-.83.47-1.18.79-.35.32-.63.68-.82,1.07-.19.39-.29.82-.29,1.27,0,.6.15,1.09.44,1.46.29.37.69.65,1.19.84s1.05.33,1.65.42c.57.07,1.11.1,1.62.09.51,0,.95-.02,1.32-.05l-.42,2.06c-2.49.11-4.41-.22-5.76-.98s-2.02-1.93-2.02-3.52c0-.51.1-.99.3-1.44.2-.45.45-.86.74-1.21s.59-.64.88-.87c-.99.08-2.07.19-3.25.34-1.18.15-2.33.32-3.45.52l-.18-1.9c.55-.07,1.14-.14,1.77-.21s1.2-.14,1.71-.19c.51-.35,1.05-.75,1.63-1.2.58-.45,1.16-.92,1.74-1.41s1.12-.94,1.61-1.37.89-.78,1.2-1.06c-.16.01-.4.03-.73.05-.33.02-.68.04-1.07.06-.39.02-.77.04-1.16.06-.39.02-.74.04-1.05.06-.31.02-.56.04-.73.05-.25.01-.53.04-.82.07-.29.03-.57.06-.84.09l-.1-2.04ZM199.27,19.57c.24.35.49.74.75,1.17.26.43.5.86.71,1.29l-1.26.56c-.2-.44-.41-.87-.64-1.28-.23-.41-.48-.82-.76-1.22l1.2-.52ZM201.43,18.73c.24.31.5.69.78,1.14.28.45.53.88.74,1.28l-1.24.58c-.21-.43-.44-.85-.69-1.28-.25-.43-.51-.82-.79-1.18l1.2-.54Z"/><path class="cls-3" d="M215.67,25.81c0-.52-.13-.98-.39-1.38-.26-.4-.63-.72-1.11-.95s-1.05-.35-1.7-.35c-.76,0-1.48.06-2.15.18s-1.28.26-1.83.42c-.55.16-1.01.29-1.38.4-.29.08-.6.18-.92.3-.32.12-.61.23-.86.34l-.62-2.28c.31-.03.64-.07.99-.13.35-.06.68-.12.99-.19.49-.12,1.06-.25,1.69-.39.63-.14,1.32-.27,2.06-.38.74-.11,1.5-.17,2.27-.17,1,0,1.89.18,2.66.54.77.36,1.38.89,1.82,1.58s.66,1.54.66,2.54c0,1.08-.23,2.05-.69,2.9-.46.85-1.11,1.6-1.94,2.23-.83.63-1.82,1.16-2.95,1.57-1.13.41-2.37.72-3.7.92l-1.14-1.94c1.23-.15,2.34-.37,3.35-.68,1.01-.31,1.88-.69,2.61-1.16.73-.47,1.3-1.03,1.69-1.68.39-.65.59-1.4.59-2.24ZM207.49,16.53c.57.12,1.25.24,2.03.35.78.11,1.59.21,2.43.29.84.08,1.63.15,2.38.2.75.05,1.37.08,1.88.08l-.32,1.94c-.56-.04-1.22-.09-1.98-.15-.76-.06-1.55-.13-2.37-.22-.82-.09-1.61-.18-2.36-.28-.75-.1-1.42-.2-1.99-.29l.3-1.92Z"/><path class="cls-3" d="M290.02,16.55c-.03.17-.05.38-.07.63-.02.25-.04.51-.06.78-.02.27-.03.52-.03.75-.01.45-.02.99,0,1.6,0,.61,0,1.24,0,1.88,0,.55.02,1.19.05,1.93.03.74.07,1.5.11,2.28.04.78.08,1.51.11,2.18.03.67.05,1.22.05,1.65s-.07.83-.2,1.22-.35.73-.65,1.03c-.3.3-.7.54-1.21.71-.51.17-1.13.26-1.86.26-.93,0-1.78-.11-2.53-.33-.75-.22-1.35-.58-1.79-1.07s-.66-1.15-.66-1.96c0-.65.19-1.24.57-1.76.38-.52.96-.94,1.73-1.25.77-.31,1.75-.47,2.92-.47,1.01,0,1.99.11,2.94.34.95.23,1.84.53,2.68.91.84.38,1.61.8,2.3,1.27s1.29.93,1.8,1.4l-1.2,1.88c-.49-.49-1.06-.98-1.7-1.46-.64-.48-1.34-.92-2.1-1.31-.76-.39-1.56-.7-2.4-.93-.84-.23-1.7-.34-2.58-.34-.93,0-1.65.15-2.16.44-.51.29-.76.69-.76,1.2s.25.91.75,1.16,1.17.38,2.01.38c.69,0,1.2-.16,1.52-.48.32-.32.48-.83.48-1.52,0-.35-.01-.83-.04-1.45-.03-.62-.05-1.29-.08-2.02-.03-.73-.05-1.43-.08-2.12-.03-.69-.04-1.28-.04-1.77,0-.4,0-.81,0-1.24,0-.43-.01-.84-.01-1.23v-1.01c-.01-.29-.03-.58-.04-.85s-.03-.52-.06-.75-.06-.41-.1-.56h2.4ZM288.76,20.49c.32,0,.75,0,1.3-.01.55,0,1.14-.03,1.79-.06.65-.03,1.3-.07,1.96-.11.66-.04,1.26-.09,1.81-.16l.08,1.88c-.55.05-1.15.1-1.82.14-.67.04-1.32.07-1.97.1-.65.03-1.25.05-1.8.07s-1,.03-1.33.03l-.02-1.88Z"/><path class="cls-3" d="M363.33,26.39c-.12.37-.21.74-.28,1.1-.07.36-.1.71-.1,1.06,0,.71.36,1.29,1.09,1.74.73.45,1.85.68,3.37.68.92,0,1.8-.03,2.65-.1.85-.07,1.64-.16,2.37-.28.73-.12,1.37-.26,1.9-.42l.02,2.2c-.52.13-1.14.25-1.85.36-.71.11-1.49.19-2.34.25s-1.74.09-2.67.09c-1.43,0-2.63-.16-3.62-.47s-1.73-.77-2.24-1.37c-.51-.6-.76-1.33-.76-2.2,0-.55.05-1.06.14-1.53.09-.47.18-.9.26-1.29l2.06.18ZM362.13,18.15c.73.09,1.56.16,2.47.2.91.04,1.88.06,2.89.06.65,0,1.31-.01,1.98-.04.67-.03,1.31-.06,1.93-.11s1.18-.09,1.67-.13v2.08c-.45.04-1,.08-1.63.12-.63.04-1.29.07-1.97.09-.68.02-1.33.03-1.96.03-1.03,0-1.98-.02-2.86-.07s-1.72-.1-2.52-.15v-2.08Z"/><path class="cls-3" d="M92,71H30c-1.1,0-2-.9-2-2V21c0-1.1.9-2,2-2h62c1.1,0,2,.9,2,2v48c0,1.1-.9,2-2,2ZM32,67h58V23H32v44Z"/><path class="cls-3" d="M70.47,38.48c-.56-.85-1.51-1.36-2.53-1.36-1.02,0-1.97.51-2.53,1.36l-9.76,14.85-5.39-6.1c-.62-.71-1.54-1.08-2.49-1.02-.94.07-1.8.57-2.32,1.36l-9.04,13.77h49.13l-15.09-22.86Z"/><path class="cls-3" d="M50.05,41.58c3.39,0,6.14-2.75,6.14-6.14s-2.75-6.14-6.14-6.14-6.14,2.75-6.14,6.14c0,3.39,2.75,6.14,6.14,6.14Z"/></g></svg>