<?xml version="1.0" encoding="UTF-8"?><svg id="_レイヤー_2" xmlns="http://www.w3.org/2000/svg" viewBox="0 0 132 64"><defs><style>.cls-1{fill:#4577ff;}.cls-1,.cls-2{stroke-width:0px;}.cls-2{fill:#fff;}</style></defs><g id="_ツール"><path class="cls-2" d="M32,63c-17.09,0-31-13.91-31-31S14.91,1,32,1h68c17.09,0,31,13.91,31,31s-13.91,31-31,31H32Z"/><path class="cls-1" d="M100,2c16.54,0,30,13.46,30,30s-13.46,30-30,30H32c-16.54,0-30-13.46-30-30S15.46,2,32,2h68M100,0H32C14.33,0,0,14.33,0,32s14.33,32,32,32h68c17.67,0,32-14.33,32-32S117.67,0,100,0h0Z"/><path class="cls-1" d="M73.9,52c-.76,0-1.53-.22-2.21-.67l-24-16c-1.11-.74-1.78-1.99-1.78-3.33s.67-2.59,1.78-3.33l24-16c1.84-1.23,4.32-.73,5.55,1.11s.73,4.32-1.11,5.55l-19.01,12.67,19.01,12.67c1.84,1.23,2.33,3.71,1.11,5.55-.77,1.16-2.04,1.78-3.33,1.78Z"/></g></svg>