<?xml version="1.0" encoding="UTF-8"?><svg id="_レイヤー_2" xmlns="http://www.w3.org/2000/svg" viewBox="0 0 48 48"><defs><style>.cls-1{fill:#4577ff;}.cls-1,.cls-2{stroke-width:0px;}.cls-2{fill:#fff;}</style></defs><g id="_ツール"><circle class="cls-2" cx="24" cy="24" r="23"/><path class="cls-1" d="M24,2c12.13,0,22,9.87,22,22s-9.87,22-22,22S2,36.13,2,24,11.87,2,24,2M24,0C10.75,0,0,10.75,0,24s10.75,24,24,24,24-10.75,24-24S37.25,0,24,0h0Z"/><path class="cls-1" d="M32.48,34.94c-.77,0-1.54-.29-2.12-.88L13.39,17.09c-1.17-1.17-1.17-3.07,0-4.24,1.17-1.17,3.07-1.17,4.24,0l16.97,16.97c1.17,1.17,1.17,3.07,0,4.24-.59.59-1.35.88-2.12.88Z"/><path class="cls-1" d="M15.51,34.94c-.77,0-1.54-.29-2.12-.88-1.17-1.17-1.17-3.07,0-4.24L30.36,12.84c1.17-1.17,3.07-1.17,4.24,0,1.17,1.17,1.17,3.07,0,4.24l-16.97,16.97c-.59.59-1.35.88-2.12.88Z"/></g></svg>