<?xml version="1.0" encoding="UTF-8"?><svg id="_レイヤー_2" xmlns="http://www.w3.org/2000/svg" viewBox="0 0 352 88"><defs><style>.cls-1{fill:#333;}.cls-1,.cls-2,.cls-3{stroke-width:0px;}.cls-2{fill:#fff;}.cls-3{fill:#e2e2e2;}</style></defs><g id="_ツール"><rect class="cls-2" x="1" y="1" width="350" height="86" rx="7" ry="7"/><path class="cls-3" d="M344,2c3.31,0,6,2.69,6,6v72c0,3.31-2.69,6-6,6H8c-3.31,0-6-2.69-6-6V8c0-3.31,2.69-6,6-6h336M344,0H8C3.58,0,0,3.58,0,8v72c0,4.42,3.58,8,8,8h336c4.42,0,8-3.58,8-8V8c0-4.42-3.58-8-8-8h0Z"/><path class="cls-1" d="M70.63,49.68c1.46-.19,3.22-.45,5.27-.77,2.05-.32,4.16-.64,6.32-.96l.14,2.52c-1.99.38-3.97.75-5.92,1.1-1.96.35-3.73.67-5.31.95l-.5-2.84ZM71.53,42.73h10.76v2.66h-10.76v-2.66ZM75.45,54.43h20.16v2.56h-16.7v16.24h-3.46v-18.79ZM78.08,59.5h17.68v2.45h-17.68v-2.45ZM78.08,64.62h17.75v2.45h-17.75v-2.45ZM80.21,39.74h3.42v13.68h-3.42v-13.68ZM88.23,39.74h3.42v9.25c0,.5.11.83.32.99.22.16.7.23,1.44.23h4.9c.38,0,.68-.07.9-.22.22-.14.37-.43.47-.85.1-.42.16-1.05.18-1.89.38.26.87.5,1.46.72.59.21,1.11.37,1.57.47-.12,1.2-.33,2.14-.63,2.83-.3.68-.73,1.16-1.3,1.44s-1.34.41-2.32.41h-5.65c-1.25,0-2.22-.13-2.92-.38s-1.18-.68-1.44-1.28c-.26-.6-.4-1.43-.4-2.48v-9.25ZM94.71,54.43h3.49v15.19c0,.87-.13,1.53-.38,2-.25.47-.7.82-1.35,1.06-.65.24-1.48.38-2.48.43-1.01.05-2.24.07-3.71.07-.07-.46-.22-.96-.43-1.51-.22-.55-.45-1.04-.68-1.48.67.02,1.33.05,1.98.07.65.02,1.22.03,1.73.02s.84-.02,1.01-.02c.31-.02.53-.08.65-.18.12-.1.18-.26.18-.5v-15.16ZM99.29,41.25l2.3,2.45c-1.03.41-2.17.8-3.42,1.19-1.25.38-2.52.74-3.8,1.08-1.28.34-2.53.62-3.73.86-.07-.31-.2-.7-.38-1.17-.18-.47-.37-.86-.56-1.17,1.13-.29,2.29-.61,3.47-.97,1.19-.36,2.31-.73,3.37-1.12,1.06-.38,1.97-.77,2.74-1.15Z"/><path class="cls-1" d="M123.48,65.98l3.13,1.22c-.82.7-1.76,1.38-2.83,2.05s-2.17,1.3-3.29,1.89c-1.13.59-2.22,1.08-3.28,1.49-.17-.22-.41-.47-.72-.77-.31-.3-.62-.61-.94-.92s-.59-.55-.83-.72c1.06-.33,2.12-.73,3.2-1.19,1.08-.46,2.11-.95,3.08-1.47.97-.53,1.79-1.06,2.47-1.58ZM115.34,53.31h31.86v2.7h-31.86v-2.7ZM119.45,40.96h23.8v10.44h-23.8v-10.44ZM120.31,57.6h22.28v7.88h-22.28v-7.88ZM122.72,43.2v1.91h17.14v-1.91h-17.14ZM122.72,47.23v1.94h17.14v-1.94h-17.14ZM123.55,60.01v3.06h15.62v-3.06h-15.62ZM129.67,64.04h3.42v6.08c0,.77-.11,1.35-.32,1.75-.22.4-.64.69-1.26.88-.6.19-1.35.31-2.25.34-.9.04-1.99.05-3.26.05-.07-.41-.21-.86-.4-1.35-.19-.49-.38-.93-.58-1.31.55.02,1.11.04,1.67.05s1.06.02,1.48.02h.88c.24-.02.4-.08.49-.16.08-.08.13-.22.13-.41v-5.94ZM129.56,50.94h3.49v3.89h-3.49v-3.89ZM135.65,67.82l2.23-1.87c1.03.38,2.14.84,3.31,1.37,1.18.53,2.3,1.07,3.38,1.62,1.08.55,1.98,1.08,2.7,1.58l-2.41,2.05c-.65-.48-1.49-1.01-2.54-1.58-1.04-.58-2.15-1.15-3.33-1.71-1.18-.56-2.29-1.05-3.35-1.46Z"/><path class="cls-1" d="M174.99,41.5c-.14.7-.34,1.54-.59,2.54-.25,1-.62,2.12-1.1,3.37-.41,1.01-.91,2.04-1.49,3.1s-1.19,2.02-1.82,2.88c.41-.24.88-.44,1.42-.59.54-.16,1.09-.28,1.66-.36.56-.08,1.07-.13,1.53-.13,1.44,0,2.65.41,3.63,1.24.98.83,1.48,2.02,1.48,3.58v1.76c0,.7.01,1.43.04,2.2.02.77.04,1.52.05,2.27s.02,1.39.02,1.94h-3.42c.02-.46.05-.99.07-1.6.02-.61.04-1.25.05-1.93.01-.67.02-1.32.02-1.94v-1.66c-.02-1.08-.35-1.86-.97-2.34-.62-.48-1.36-.72-2.2-.72-1.08,0-2.15.25-3.22.76-1.07.5-1.99,1.12-2.75,1.84-.5.5-1.03,1.08-1.57,1.73s-1.11,1.36-1.71,2.12l-3.1-2.3c1.66-1.56,3.06-3.05,4.21-4.46,1.15-1.42,2.11-2.77,2.86-4.05.76-1.28,1.35-2.5,1.78-3.65.38-.98.7-1.99.94-3.01.24-1.02.38-1.97.43-2.86l3.74.29ZM162.11,45.14c.96.14,2.02.25,3.17.31,1.15.06,2.16.09,3.02.09,1.61,0,3.35-.04,5.22-.11,1.87-.07,3.76-.19,5.67-.36s3.71-.41,5.42-.72v3.35c-1.27.17-2.63.32-4.07.47-1.44.14-2.9.26-4.39.34s-2.92.14-4.28.18c-1.37.04-2.62.05-3.74.05-.5,0-1.1,0-1.78-.02-.68-.01-1.39-.04-2.12-.09s-1.43-.08-2.11-.11v-3.38ZM190.08,54.5c-.34.12-.73.25-1.17.4-.44.14-.88.3-1.31.47-.43.17-.83.32-1.19.47-1.22.48-2.65,1.06-4.27,1.73-1.62.67-3.28,1.45-4.99,2.34-1.15.6-2.15,1.2-2.99,1.8-.84.6-1.49,1.22-1.96,1.87-.47.65-.7,1.36-.7,2.12,0,.62.14,1.13.43,1.51.29.38.69.68,1.21.88.52.2,1.14.35,1.87.43s1.55.13,2.47.13c1.44,0,3.07-.08,4.9-.25,1.82-.17,3.53-.4,5.11-.68l-.11,3.64c-.86.1-1.87.2-3.02.31-1.15.11-2.33.19-3.55.25-1.21.06-2.36.09-3.44.09-1.8,0-3.42-.17-4.86-.5-1.44-.34-2.58-.92-3.42-1.75-.84-.83-1.26-1.99-1.26-3.47,0-1.18.27-2.24.81-3.19.54-.95,1.25-1.81,2.12-2.57.88-.77,1.85-1.48,2.93-2.12s2.15-1.24,3.2-1.76c1.13-.6,2.18-1.12,3.15-1.57.97-.44,1.88-.85,2.74-1.21.85-.36,1.65-.72,2.39-1.08.62-.26,1.21-.52,1.76-.77.55-.25,1.1-.52,1.66-.81l1.48,3.31Z"/><path class="cls-1" d="M211.46,65.52c.79,1.3,1.91,2.26,3.37,2.88s3.19.97,5.2,1.04c1.06.05,2.34.08,3.85.09,1.51.01,3.1,0,4.77-.02s3.28-.07,4.84-.13c1.56-.06,2.93-.13,4.1-.2-.12.24-.25.55-.4.94-.14.38-.27.78-.38,1.19-.11.41-.2.77-.27,1.08-1.08.05-2.34.09-3.78.13-1.44.04-2.93.06-4.48.07-1.55.01-3.04,0-4.46-.02-1.43-.03-2.68-.05-3.76-.07-2.3-.1-4.27-.47-5.88-1.12-1.62-.65-2.98-1.68-4.09-3.1-.74.74-1.51,1.49-2.29,2.25-.78.76-1.59,1.53-2.43,2.32l-1.69-3.24c.74-.55,1.55-1.19,2.43-1.91.88-.72,1.7-1.45,2.47-2.2h2.88ZM204.12,42.33l2.7-1.73c.67.58,1.36,1.22,2.05,1.93.7.71,1.34,1.41,1.93,2.11s1.04,1.36,1.35,1.98l-2.88,1.91c-.29-.6-.71-1.27-1.26-2-.55-.73-1.17-1.46-1.85-2.2-.68-.73-1.36-1.4-2.03-2ZM211.46,53.89v13h-3.2v-9.83h-4.1v-3.17h7.31ZM212.83,60.33h24.16v2.56h-24.16v-2.56ZM214.88,45.25h5.87v-1.94h-7.34v-2.27h10.26v6.52h-8.78v-2.3ZM220.32,63l2.99,1.04c-.94.87-2.07,1.71-3.4,2.52-1.33.82-2.61,1.5-3.83,2.05-.19-.22-.44-.46-.74-.72-.3-.26-.61-.52-.92-.77s-.59-.45-.83-.59c1.22-.46,2.45-.99,3.69-1.6,1.24-.61,2.25-1.25,3.04-1.93ZM213.91,54.79h21.96v2.52h-21.96v-2.52ZM213.98,45.25h2.84v3.67c0,.36.07.59.22.68s.48.14,1.01.14h3.42c.41,0,.68-.09.81-.27.13-.18.22-.62.27-1.31.26.19.64.37,1.12.52.48.16.91.28,1.3.38-.14,1.18-.44,1.97-.9,2.39-.46.42-1.19.63-2.2.63h-4.21c-.96,0-1.7-.09-2.23-.27-.53-.18-.9-.5-1.12-.96-.21-.46-.32-1.1-.32-1.94v-3.67ZM219.02,52.45h3.24v9.14h-3.24v-9.14ZM226.72,45.25h5.8v-1.94h-7.38v-2.27h10.33v6.52h-8.75v-2.3ZM225.83,45.25h2.84v3.64c0,.36.08.59.23.7.16.11.5.16,1.03.16h3.71c.41,0,.68-.1.81-.29.13-.19.22-.66.27-1.4.29.19.67.37,1.15.54s.91.29,1.3.36c-.14,1.22-.45,2.05-.92,2.48s-1.22.65-2.25.65h-4.43c-.96,0-1.72-.09-2.27-.27-.55-.18-.94-.5-1.15-.96-.21-.46-.32-1.1-.32-1.94v-3.67ZM226.8,64.51l2.45-1.48c.89.41,1.79.86,2.7,1.37.91.5,1.78,1,2.61,1.49.83.49,1.53.97,2.11,1.42l-3.42,1.37c-.72-.65-1.67-1.36-2.86-2.12-1.19-.77-2.38-1.45-3.58-2.05ZM227.41,52.45h3.24v9.14h-3.24v-9.14Z"/><path class="cls-1" d="M259.23,62.49c-.67.7-1.49,1.48-2.47,2.34-.97.86-2.03,1.73-3.17,2.59-1.14.86-2.32,1.67-3.55,2.41l-2.16-3.06c.77-.41,1.58-.89,2.43-1.46.85-.56,1.69-1.17,2.52-1.82.83-.65,1.61-1.3,2.36-1.94s1.37-1.26,1.87-1.84l2.16,2.77ZM257.58,67.46c.96.27,1.9.47,2.81.61.91.14,1.88.21,2.92.21.58,0,1.12-.08,1.64-.25.52-.17.94-.45,1.26-.85s.49-.93.49-1.6c0-.58-.14-1.21-.41-1.89-.28-.68-.64-1.36-1.08-2.03-.44-.67-.92-1.32-1.44-1.94-.52-.62-.99-1.18-1.42-1.66-.43-.43-.92-.89-1.46-1.39s-1.09-.95-1.64-1.39l2.74-2.34c.48.5.96.99,1.42,1.46.47.47.92.93,1.35,1.39,1.2,1.22,2.24,2.41,3.11,3.55.88,1.14,1.55,2.26,2.02,3.35.47,1.09.7,2.19.7,3.29s-.2,2.07-.59,2.83c-.4.76-.91,1.35-1.55,1.78-.64.43-1.35.73-2.14.9-.79.17-1.56.25-2.3.25-1.08,0-2.12-.05-3.11-.16-1-.11-1.91-.23-2.75-.38l-.54-3.74ZM264.17,50.5c.46-.31.91-.63,1.35-.95.44-.32.8-.58,1.06-.77-.5-.41-1.17-.85-2-1.31-.83-.47-1.72-.94-2.66-1.4s-1.89-.87-2.83-1.21l2.12-2.63c.96.38,1.99.83,3.1,1.33,1.1.5,2.18,1.03,3.24,1.58s1.96,1.09,2.7,1.62l.86,2.27c-.22.19-.52.44-.9.74-.38.3-.8.62-1.24.97-.44.35-.88.69-1.31,1.03s-.83.62-1.19.86l-2.3-2.12ZM277.99,69.4c-.24-.87-.56-1.82-.97-2.86-.41-1.04-.87-2.09-1.39-3.15-.52-1.06-1.07-2.06-1.66-3.02-.59-.96-1.19-1.8-1.82-2.52l3.02-1.69c.58.72,1.18,1.56,1.8,2.52s1.22,1.97,1.78,3.04c.56,1.07,1.08,2.11,1.55,3.11.47,1.01.83,1.92,1.1,2.74l-3.42,1.84ZM275.07,46c.31.43.65.94,1.01,1.53.36.59.71,1.18,1.04,1.78.34.6.62,1.14.86,1.62l-2.38,1.04c-.36-.74-.81-1.6-1.35-2.56-.54-.96-1.05-1.78-1.53-2.45l2.34-.97ZM279.18,44.46c.31.46.65.98,1.03,1.58.37.6.74,1.2,1.1,1.78.36.59.65,1.11.86,1.57l-2.34,1.01c-.38-.77-.85-1.62-1.39-2.56s-1.06-1.74-1.57-2.41l2.3-.97Z"/><path class="cls-1" d="M73.22,16.07c-.04.11-.09.26-.14.46-.05.2-.1.4-.15.6-.05.2-.08.36-.11.48-.07.32-.14.73-.23,1.23s-.17,1.05-.26,1.64c-.09.59-.17,1.2-.24,1.81s-.13,1.2-.18,1.76c-.05.56-.07,1.05-.07,1.48,0,.35.01.7.04,1.05.03.35.07.72.12,1.09.09-.28.2-.57.32-.87.12-.3.24-.6.37-.89.13-.29.24-.56.35-.8l1,.78c-.17.51-.36,1.05-.56,1.63-.2.58-.38,1.13-.53,1.65-.15.52-.27.95-.35,1.3-.03.13-.05.29-.07.47-.02.18-.03.33-.03.45.01.09.02.21.03.35,0,.14.02.27.03.39l-1.78.14c-.21-.71-.4-1.6-.55-2.69-.15-1.09-.23-2.31-.23-3.67,0-.75.03-1.52.1-2.33.07-.81.15-1.6.25-2.37.1-.77.2-1.48.29-2.12.09-.64.17-1.16.24-1.56.03-.25.06-.53.09-.82s.06-.57.07-.84l2.18.2ZM83.04,15.89c-.03.2-.05.41-.07.62-.02.21-.04.42-.05.62-.01.23-.02.53-.03.9s-.01.78-.02,1.21c0,.43,0,.86,0,1.29,0,.84.02,1.65.05,2.42s.07,1.51.11,2.2c.04.69.07,1.34.1,1.95.03.61.04,1.16.04,1.65,0,.45-.06.89-.18,1.3-.12.41-.32.78-.6,1.1-.28.32-.66.57-1.13.75-.47.18-1.06.27-1.75.27-1.36,0-2.41-.27-3.16-.8s-1.12-1.28-1.12-2.24c0-.61.17-1.16.51-1.64s.83-.86,1.46-1.14c.63-.28,1.4-.42,2.29-.42s1.71.1,2.44.29,1.41.45,2.04.78c.63.33,1.19.68,1.69,1.07s.96.76,1.37,1.12l-1.08,1.68c-.72-.69-1.44-1.29-2.15-1.8s-1.44-.9-2.17-1.18c-.73-.28-1.5-.42-2.3-.42-.68,0-1.23.13-1.65.4-.42.27-.63.61-.63,1.04,0,.47.21.82.62,1.05.41.23.94.35,1.58.35.49,0,.88-.08,1.16-.24.28-.16.48-.39.6-.7s.18-.67.18-1.08c0-.35-.01-.82-.04-1.41-.03-.59-.06-1.25-.1-1.96-.04-.71-.07-1.45-.1-2.2-.03-.75-.04-1.48-.04-2.17v-3.38c0-.17,0-.38-.03-.63-.02-.25-.05-.46-.09-.65h2.26ZM75.78,19.39c.57.05,1.14.1,1.71.13.57.03,1.15.05,1.75.05,1.2,0,2.4-.05,3.6-.16s2.31-.26,3.34-.46v1.94c-1.07.17-2.2.3-3.39.38s-2.38.13-3.57.14c-.59,0-1.16-.01-1.71-.04-.55-.03-1.12-.06-1.71-.1l-.02-1.88Z"/><path class="cls-1" d="M92.32,17.31c-.04.19-.07.41-.1.68-.03.27-.05.53-.07.8-.02.27-.03.49-.03.68,0,.41,0,.87,0,1.38,0,.51.02,1.02.03,1.55.01.53.05,1.05.1,1.57.11,1.05.27,1.97.48,2.76.21.79.49,1.4.82,1.84.33.44.72.66,1.16.66.25,0,.49-.12.72-.36s.44-.56.64-.96.38-.84.55-1.31c.17-.47.31-.93.43-1.37l1.58,1.86c-.43,1.13-.85,2.04-1.27,2.71-.42.67-.85,1.16-1.29,1.45-.44.29-.91.44-1.4.44-.67,0-1.3-.23-1.91-.69-.61-.46-1.13-1.22-1.57-2.27-.44-1.05-.75-2.46-.94-4.22-.07-.59-.12-1.22-.15-1.9s-.05-1.33-.06-1.94c0-.61,0-1.12,0-1.52,0-.25,0-.56-.03-.93-.02-.37-.06-.68-.13-.95l2.44.04ZM102.56,17.81c.36.47.71,1.01,1.05,1.63.34.62.65,1.29.93,2.01.28.72.53,1.45.75,2.2s.4,1.49.55,2.22c.15.73.25,1.43.3,2.08l-2.06.8c-.08-.87-.21-1.77-.4-2.72-.19-.95-.43-1.88-.72-2.81-.29-.93-.64-1.8-1.03-2.62-.39-.82-.84-1.53-1.35-2.13l1.98-.66Z"/><path class="cls-1" d="M117.12,15.99c-.05.21-.12.46-.2.73-.08.27-.15.51-.2.71-.15.65-.29,1.39-.43,2.22-.14.83-.25,1.69-.34,2.58-.09.89-.12,1.77-.1,2.64.02.87.11,1.67.27,2.4.13-.37.29-.81.48-1.32.19-.51.37-.98.54-1.42l1.04.66c-.17.49-.35,1.03-.52,1.62-.17.59-.33,1.14-.48,1.67s-.26.96-.34,1.31c-.03.16-.05.33-.07.51-.02.18-.03.32-.03.43s0,.23.02.36.03.26.04.38l-1.74.2c-.13-.41-.29-.96-.47-1.65-.18-.69-.33-1.44-.45-2.27s-.18-1.65-.18-2.48c0-1.09.04-2.15.13-3.16.09-1.01.19-1.94.3-2.77s.21-1.52.29-2.07c.04-.25.07-.51.08-.78.01-.27.02-.51.02-.72l2.34.22ZM119.62,19.71c.31.04.63.08.98.12.35.04.7.07,1.07.08.37.01.73.02,1.09.02.84,0,1.71-.02,2.61-.06.9-.04,1.77-.1,2.62-.19.85-.09,1.6-.2,2.27-.33l-.02,2.04c-.63.09-1.35.17-2.18.24s-1.69.12-2.6.15c-.91.03-1.8.05-2.68.05-.29,0-.63,0-1.01-.02-.38-.01-.76-.03-1.13-.04s-.71-.03-1.02-.04v-2.02ZM127.18,15.69c-.03.19-.05.39-.06.6-.01.21-.03.43-.04.66v.77c0,.35,0,.75,0,1.19,0,.44.01.89.02,1.35,0,.46,0,.88,0,1.27v.94c0,1.16-.03,2.23-.1,3.2s-.23,1.88-.5,2.72-.69,1.62-1.27,2.33c-.58.71-1.38,1.38-2.41,2.01l-1.84-1.44c.35-.15.72-.35,1.12-.61.4-.26.73-.52,1-.79.47-.44.84-.9,1.11-1.39.27-.49.48-1.03.62-1.62.14-.59.23-1.25.28-1.98.05-.73.07-1.54.07-2.45,0-.35,0-.78,0-1.3,0-.52-.02-1.06-.04-1.61-.02-.55-.04-1.06-.05-1.53s-.03-.82-.04-1.06-.04-.47-.09-.7-.08-.41-.11-.56h2.32Z"/><path class="cls-1" d="M135.84,17.31c-.04.19-.07.41-.1.68-.03.27-.05.53-.07.8-.02.27-.03.49-.03.68,0,.41,0,.87,0,1.38,0,.51.02,1.02.03,1.55.01.53.05,1.05.1,1.57.11,1.05.27,1.97.48,2.76.21.79.49,1.4.82,1.84.33.44.72.66,1.16.66.25,0,.49-.12.72-.36.23-.24.44-.56.64-.96.2-.4.38-.84.55-1.31.17-.47.31-.93.43-1.37l1.58,1.86c-.43,1.13-.85,2.04-1.27,2.71s-.85,1.16-1.29,1.45c-.44.29-.91.44-1.4.44-.67,0-1.3-.23-1.91-.69-.61-.46-1.13-1.22-1.57-2.27-.44-1.05-.75-2.46-.94-4.22-.07-.59-.12-1.22-.15-1.9s-.05-1.33-.06-1.94c0-.61,0-1.12,0-1.52,0-.25,0-.56-.03-.93s-.06-.68-.13-.95l2.44.04ZM146.08,17.81c.36.47.71,1.01,1.05,1.63.34.62.65,1.29.93,2.01.28.72.53,1.45.75,2.2.22.75.4,1.49.55,2.22.15.73.25,1.43.3,2.08l-2.06.8c-.08-.87-.21-1.77-.4-2.72-.19-.95-.43-1.88-.72-2.81-.29-.93-.64-1.8-1.03-2.62s-.84-1.53-1.35-2.13l1.98-.66Z"/><path class="cls-1" d="M217.68,21.43c-.21.16-.43.33-.64.5-.21.17-.39.33-.54.46-.21.19-.49.43-.82.73-.33.3-.68.62-1.04.96-.36.34-.69.65-1,.94s-.53.52-.68.69c.09-.01.22,0,.37.01s.28.05.39.09c.35.05.63.2.85.44.22.24.4.56.53.96.07.17.14.38.21.63.07.25.15.49.22.74.07.25.14.47.21.67.11.35.28.61.53.78.25.17.6.26,1.05.26.48,0,.95-.02,1.42-.05s.91-.08,1.32-.15c.41-.07.78-.13,1.1-.2l-.12,2.1c-.28.04-.65.08-1.12.13s-.95.09-1.44.12c-.49.03-.91.05-1.26.05-.87,0-1.56-.12-2.08-.37-.52-.25-.89-.7-1.12-1.35-.07-.2-.14-.44-.22-.71s-.16-.55-.23-.82c-.07-.27-.14-.5-.19-.67-.12-.36-.28-.62-.48-.79-.2-.17-.43-.25-.68-.25s-.48.07-.71.21c-.23.14-.46.32-.69.55-.15.15-.33.34-.56.57-.23.23-.48.5-.75.8-.27.3-.56.61-.85.94-.29.33-.59.66-.88,1-.29.34-.56.67-.8.99l-1.9-1.32c.15-.13.32-.29.53-.46.21-.17.42-.37.65-.58.15-.16.39-.41.74-.76.35-.35.75-.75,1.22-1.22s.96-.97,1.49-1.5c.53-.53,1.05-1.06,1.58-1.58.53-.52,1.02-1.01,1.47-1.47.45-.46.84-.86,1.16-1.19-.29.01-.64.03-1.04.06-.4.03-.82.06-1.25.09-.43.03-.86.07-1.28.11-.42.04-.81.07-1.16.1-.35.03-.66.05-.91.08-.33.01-.64.04-.91.08-.27.04-.52.08-.75.12l-.18-2.2c.23.01.5.03.81.04.31.01.64.02.99.02.21-.01.55-.03,1-.05s.97-.05,1.55-.08,1.17-.07,1.76-.11c.59-.04,1.15-.08,1.67-.12.52-.04.94-.08,1.26-.12.17-.03.36-.06.57-.1.21-.04.36-.08.45-.12l1.18,1.32ZM209.14,15.45c.55.11,1.18.21,1.89.32.71.11,1.45.21,2.2.3.75.09,1.47.17,2.16.24.69.07,1.28.11,1.77.14l-.26,1.86c-.52-.04-1.12-.1-1.79-.17s-1.38-.16-2.11-.25c-.73-.09-1.46-.19-2.18-.3-.72-.11-1.39-.21-2-.32l.32-1.82Z"/><path class="cls-1" d="M226.64,19.35c-.07.31-.14.69-.21,1.16s-.15.95-.22,1.46c-.07.51-.14.99-.21,1.45-.07.46-.12.84-.16,1.15.93-.76,1.92-1.32,2.97-1.68s2.14-.54,3.27-.54,2.03.2,2.82.59c.79.39,1.4.92,1.83,1.58s.65,1.39.65,2.19c0,.89-.2,1.72-.6,2.47-.4.75-1.03,1.39-1.9,1.9-.87.51-1.99.88-3.37,1.09-1.38.21-3.04.24-4.99.08l-.6-2.06c2.05.25,3.77.26,5.15.02,1.38-.24,2.42-.67,3.11-1.29.69-.62,1.04-1.37,1.04-2.25,0-.49-.14-.93-.43-1.31-.29-.38-.68-.68-1.17-.9-.49-.22-1.06-.33-1.7-.33-1.23,0-2.35.22-3.37.67s-1.86,1.07-2.53,1.87c-.17.2-.31.38-.41.55-.1.17-.19.34-.27.51l-1.84-.44c.08-.37.16-.82.25-1.35.09-.53.17-1.09.25-1.7.08-.61.15-1.22.22-1.84.07-.62.13-1.22.18-1.8s.09-1.09.12-1.53l2.12.28ZM226.82,15.55c.45.13,1.03.28,1.74.44s1.45.32,2.22.47c.77.15,1.51.29,2.2.4s1.26.19,1.7.23l-.46,1.94c-.4-.05-.87-.13-1.42-.23s-1.13-.21-1.76-.33c-.63-.12-1.24-.24-1.85-.36-.61-.12-1.16-.24-1.65-.36-.49-.12-.9-.22-1.22-.3l.5-1.9Z"/></g></svg>