<?xml version="1.0" encoding="UTF-8"?><svg id="_レイヤー_2" xmlns="http://www.w3.org/2000/svg" viewBox="0 0 352 88"><defs><style>.cls-1{fill:#4577ff;}.cls-1,.cls-2{stroke-width:0px;}.cls-2{fill:#fff;}</style></defs><g id="_ツール"><rect class="cls-1" x="1" y="1" width="350" height="86" rx="7" ry="7"/><path class="cls-1" d="M344,2c3.31,0,6,2.69,6,6v72c0,3.31-2.69,6-6,6H8c-3.31,0-6-2.69-6-6V8c0-3.31,2.69-6,6-6h336M344,0H8C3.58,0,0,3.58,0,8v72c0,4.42,3.58,8,8,8h336c4.42,0,8-3.58,8-8V8c0-4.42-3.58-8-8-8h0Z"/><path class="cls-2" d="M60.48,43.42c.5.05,1.04.09,1.6.13.56.04,1.12.05,1.67.05h23.54c.38,0,.88-.02,1.48-.05.6-.04,1.12-.08,1.55-.13v3.71c-.41-.05-.89-.08-1.46-.09-.56-.01-1.09-.02-1.57-.02h-23.54c-.55,0-1.12,0-1.69.02-.58.01-1.1.04-1.58.09v-3.71ZM64.72,34.28c.55.07,1.13.13,1.73.18.6.05,1.19.07,1.76.07h14.54c.55,0,1.15-.02,1.78-.07s1.24-.11,1.82-.18v3.71c-.58-.05-1.18-.08-1.8-.09s-1.22-.02-1.8-.02h-14.51c-.6,0-1.21,0-1.84.02s-1.19.04-1.69.09v-3.71ZM78.08,45.33c0,2.28-.18,4.36-.54,6.23-.36,1.87-.94,3.56-1.73,5.08-.43.79-1.01,1.6-1.75,2.43-.73.83-1.55,1.61-2.47,2.36-.91.74-1.9,1.38-2.95,1.91l-3.31-2.41c1.32-.55,2.58-1.31,3.78-2.29,1.2-.97,2.16-2,2.88-3.08.91-1.42,1.5-2.98,1.76-4.7.26-1.71.41-3.56.43-5.53h3.89Z"/><path class="cls-2" d="M102.2,58.62c2.02-.31,3.88-.73,5.58-1.24,1.7-.52,3.27-1.1,4.7-1.76,1.43-.66,2.72-1.34,3.87-2.03,1.92-1.18,3.69-2.53,5.31-4.07,1.62-1.54,3.04-3.12,4.27-4.75,1.22-1.63,2.2-3.22,2.92-4.75l2.2,3.92c-.86,1.56-1.93,3.12-3.19,4.68-1.26,1.56-2.68,3.05-4.27,4.48s-3.31,2.72-5.18,3.87c-1.2.74-2.51,1.46-3.94,2.16-1.43.7-2.96,1.32-4.61,1.87s-3.39,1-5.24,1.33l-2.41-3.71ZM105.91,34.53c.65.43,1.39.97,2.23,1.6.84.63,1.7,1.31,2.57,2.03.88.72,1.71,1.42,2.5,2.09s1.43,1.27,1.91,1.8l-2.84,2.92c-.46-.48-1.06-1.06-1.8-1.75-.74-.68-1.54-1.39-2.39-2.12-.85-.73-1.7-1.43-2.54-2.09-.84-.66-1.6-1.22-2.27-1.67l2.63-2.81Z"/><path class="cls-2" d="M168.58,37.88c-.14.29-.27.61-.38.97-.11.36-.2.73-.27,1.12-.22.91-.47,1.93-.77,3.06-.3,1.13-.67,2.29-1.12,3.49-.44,1.2-.96,2.37-1.55,3.51s-1.24,2.19-1.96,3.15c-1.1,1.39-2.35,2.71-3.73,3.94-1.38,1.24-2.95,2.34-4.7,3.31-1.75.97-3.71,1.81-5.87,2.5l-3.1-3.38c2.35-.6,4.39-1.32,6.12-2.16,1.73-.84,3.23-1.81,4.52-2.9,1.28-1.09,2.43-2.26,3.44-3.51.82-1.06,1.53-2.23,2.14-3.53s1.12-2.6,1.51-3.91c.4-1.31.68-2.51.85-3.62h-17.71c-.77,0-1.49.01-2.16.04-.67.02-1.25.06-1.73.11v-4.03c.36.02.76.06,1.21.11.44.05.91.08,1.39.11.48.02.91.04,1.3.04h17.46c.31,0,.68-.01,1.1-.04.42-.02.82-.08,1.21-.18l2.81,1.8ZM164.91,35.25c0-.77.19-1.46.56-2.09.37-.62.87-1.12,1.49-1.49.62-.37,1.32-.56,2.09-.56s1.46.19,2.09.56c.62.37,1.13.87,1.51,1.49.38.62.58,1.32.58,2.09s-.19,1.46-.58,2.09c-.38.62-.89,1.12-1.51,1.49-.62.37-1.32.56-2.09.56s-1.46-.19-2.09-.56c-.62-.37-1.12-.87-1.49-1.49-.37-.62-.56-1.32-.56-2.09ZM166.82,35.25c0,.62.22,1.15.65,1.58.43.43.96.65,1.58.65s1.16-.22,1.6-.65c.44-.43.67-.96.67-1.58s-.22-1.16-.67-1.6-.98-.67-1.6-.67-1.15.22-1.58.67c-.43.44-.65.98-.65,1.6Z"/><path class="cls-2" d="M185.72,60.09c.17-.36.28-.69.32-.99.05-.3.07-.64.07-1.03v-20.12c0-.38-.02-.81-.05-1.28-.04-.47-.07-.91-.11-1.33s-.09-.76-.16-1.03h4.46c-.07.53-.14,1.12-.2,1.76s-.09,1.26-.09,1.84v19.69c1.61-.43,3.29-1.03,5.06-1.8,1.76-.77,3.51-1.69,5.24-2.75,1.73-1.07,3.35-2.24,4.88-3.51,1.52-1.27,2.85-2.62,3.98-4.03l2.05,3.17c-2.4,2.93-5.41,5.48-9.02,7.65-3.61,2.17-7.6,3.93-11.97,5.27-.22.07-.49.17-.81.29-.32.12-.65.28-.99.47l-2.66-2.27Z"/><path class="cls-2" d="M221.97,45.3c.41.02.91.05,1.49.09.59.04,1.22.07,1.91.09.68.02,1.34.04,1.96.04h19.58c.86,0,1.64-.03,2.34-.09.7-.06,1.26-.1,1.69-.13v4.46c-.41-.02-.98-.06-1.73-.11-.74-.05-1.51-.07-2.3-.07h-19.58c-.98,0-1.97.02-2.95.05-.98.04-1.79.08-2.41.12v-4.46Z"/><path class="cls-2" d="M270.57,58.04v-20.81c0-.58-.02-1.24-.07-2s-.13-1.43-.25-2.03h4.43c-.05.58-.1,1.24-.16,1.98-.06.74-.09,1.43-.09,2.05v20.81c0,.38.01.85.04,1.4.02.55.06,1.11.11,1.67.05.56.1,1.07.14,1.53h-4.43c.1-.62.17-1.37.22-2.25s.07-1.66.07-2.36ZM273.6,42.6c1.18.34,2.5.75,3.96,1.24s2.94,1.02,4.43,1.58c1.49.56,2.9,1.12,4.25,1.67,1.34.55,2.48,1.06,3.42,1.51l-1.62,3.92c-1.01-.55-2.14-1.11-3.4-1.67-1.26-.56-2.55-1.11-3.87-1.64-1.32-.53-2.6-1.01-3.83-1.44-1.24-.43-2.35-.8-3.33-1.12v-4.07Z"/></g></svg>