<?xml version="1.0" encoding="UTF-8"?><svg id="_レイヤー_2" xmlns="http://www.w3.org/2000/svg" viewBox="0 0 352 88"><defs><style>.cls-1{fill:#333;}.cls-1,.cls-2,.cls-3{stroke-width:0px;}.cls-2{fill:#fff;}.cls-3{fill:#e2e2e2;}</style></defs><g id="_ツール"><rect class="cls-2" x="1" y="1" width="350" height="86" rx="7" ry="7"/><path class="cls-3" d="M344,2c3.31,0,6,2.69,6,6v72c0,3.31-2.69,6-6,6H8c-3.31,0-6-2.69-6-6V8c0-3.31,2.69-6,6-6h336M344,0H8C3.58,0,0,3.58,0,8v72c0,4.42,3.58,8,8,8h336c4.42,0,8-3.58,8-8V8c0-4.42-3.58-8-8-8h0Z"/><path class="cls-1" d="M25.99,49.68c1.46-.19,3.22-.45,5.27-.77,2.05-.32,4.16-.64,6.32-.95l.14,2.52c-1.99.38-3.97.75-5.92,1.1-1.96.35-3.73.67-5.31.96l-.5-2.84ZM26.89,42.73h10.76v2.66h-10.76v-2.66ZM30.81,54.43h20.16v2.56h-16.7v16.24h-3.46v-18.79ZM33.44,59.5h17.68v2.45h-17.68v-2.45ZM33.44,64.62h17.75v2.45h-17.75v-2.45ZM35.56,39.74h3.42v13.68h-3.42v-13.68ZM43.59,39.74h3.42v9.25c0,.5.11.83.32.99.22.16.7.23,1.44.23h4.9c.38,0,.68-.07.9-.22s.37-.43.47-.85.16-1.05.18-1.89c.38.26.87.5,1.46.72.59.22,1.11.37,1.57.47-.12,1.2-.33,2.14-.63,2.83-.3.68-.73,1.16-1.3,1.44-.56.28-1.34.41-2.32.41h-5.65c-1.25,0-2.22-.12-2.92-.38-.7-.25-1.18-.68-1.44-1.28-.26-.6-.4-1.43-.4-2.48v-9.25ZM50.07,54.43h3.49v15.19c0,.86-.12,1.53-.38,2s-.7.82-1.35,1.06c-.65.24-1.48.38-2.48.43-1.01.05-2.24.07-3.71.07-.07-.46-.21-.96-.43-1.51-.22-.55-.44-1.04-.68-1.48.67.02,1.33.05,1.98.07.65.02,1.22.03,1.73.02.5-.01.84-.02,1.01-.02.31-.02.53-.08.65-.18.12-.1.18-.26.18-.5v-15.16ZM54.64,41.25l2.3,2.45c-1.03.41-2.17.8-3.42,1.19-1.25.38-2.51.74-3.8,1.08-1.28.34-2.53.62-3.73.86-.07-.31-.2-.7-.38-1.17s-.37-.86-.56-1.17c1.13-.29,2.29-.61,3.47-.97,1.19-.36,2.31-.73,3.37-1.12,1.06-.38,1.97-.77,2.74-1.15Z"/><path class="cls-1" d="M78.84,65.98l3.13,1.22c-.82.7-1.76,1.38-2.83,2.05-1.07.67-2.17,1.3-3.29,1.89-1.13.59-2.22,1.08-3.28,1.49-.17-.21-.41-.47-.72-.77-.31-.3-.62-.61-.94-.92-.31-.31-.59-.55-.83-.72,1.05-.33,2.12-.73,3.2-1.19,1.08-.46,2.11-.95,3.08-1.48.97-.53,1.79-1.06,2.47-1.58ZM70.7,53.31h31.86v2.7h-31.86v-2.7ZM74.8,40.96h23.8v10.44h-23.8v-10.44ZM75.67,57.6h22.28v7.88h-22.28v-7.88ZM78.08,43.2v1.91h17.14v-1.91h-17.14ZM78.08,47.23v1.95h17.14v-1.95h-17.14ZM78.91,60.01v3.06h15.62v-3.06h-15.62ZM85.03,64.04h3.42v6.08c0,.77-.11,1.35-.32,1.75-.22.4-.64.69-1.26.88-.6.19-1.35.31-2.25.34-.9.04-1.99.05-3.26.05-.07-.41-.21-.86-.4-1.35s-.38-.93-.58-1.31c.55.02,1.11.04,1.67.05.56.01,1.06.02,1.48.02h.88c.24-.02.4-.08.49-.16.08-.08.13-.22.13-.41v-5.94ZM84.92,50.94h3.49v3.89h-3.49v-3.89ZM91.01,67.82l2.23-1.87c1.03.38,2.14.84,3.31,1.37,1.18.53,2.3,1.07,3.38,1.62s1.98,1.08,2.7,1.58l-2.41,2.05c-.65-.48-1.49-1.01-2.54-1.58-1.04-.58-2.15-1.15-3.33-1.71s-2.29-1.05-3.35-1.46Z"/><path class="cls-1" d="M130.35,41.5c-.14.7-.34,1.54-.59,2.54s-.62,2.12-1.1,3.37c-.41,1.01-.91,2.04-1.49,3.1-.59,1.06-1.19,2.02-1.82,2.88.41-.24.88-.44,1.42-.59.54-.16,1.09-.28,1.66-.36s1.07-.13,1.53-.13c1.44,0,2.65.41,3.64,1.24.98.83,1.48,2.02,1.48,3.58v1.76c0,.7.01,1.43.04,2.2.02.77.04,1.52.05,2.27s.02,1.39.02,1.94h-3.42c.02-.46.05-.99.07-1.6.02-.61.04-1.25.05-1.93s.02-1.32.02-1.94v-1.66c-.02-1.08-.35-1.86-.97-2.34-.62-.48-1.36-.72-2.2-.72-1.08,0-2.15.25-3.22.76s-1.99,1.12-2.75,1.84c-.5.5-1.03,1.08-1.57,1.73-.54.65-1.11,1.36-1.71,2.12l-3.1-2.3c1.66-1.56,3.06-3.05,4.21-4.46,1.15-1.42,2.11-2.77,2.86-4.05s1.35-2.5,1.78-3.65c.38-.98.7-1.99.94-3.01.24-1.02.38-1.97.43-2.86l3.74.29ZM117.46,45.14c.96.14,2.02.25,3.17.31,1.15.06,2.16.09,3.02.09,1.61,0,3.35-.04,5.22-.11,1.87-.07,3.76-.19,5.67-.36s3.71-.41,5.42-.72v3.35c-1.27.17-2.63.32-4.07.47-1.44.14-2.9.26-4.39.34-1.49.08-2.92.14-4.28.18-1.37.04-2.62.05-3.74.05-.5,0-1.1,0-1.78-.02-.68-.01-1.39-.04-2.12-.09-.73-.05-1.43-.08-2.11-.11v-3.38ZM145.44,54.5c-.34.12-.73.25-1.17.4-.44.14-.88.3-1.31.47s-.83.32-1.19.47c-1.22.48-2.65,1.06-4.27,1.73-1.62.67-3.28,1.45-4.99,2.34-1.15.6-2.15,1.2-2.99,1.8-.84.6-1.49,1.22-1.96,1.87-.47.65-.7,1.36-.7,2.12,0,.62.14,1.13.43,1.51.29.38.69.68,1.21.88.52.2,1.14.35,1.87.43.73.08,1.55.12,2.47.12,1.44,0,3.07-.08,4.9-.25,1.82-.17,3.53-.4,5.11-.68l-.11,3.64c-.86.1-1.87.2-3.02.31s-2.33.19-3.55.25-2.36.09-3.44.09c-1.8,0-3.42-.17-4.86-.5-1.44-.34-2.58-.92-3.42-1.75-.84-.83-1.26-1.99-1.26-3.47,0-1.18.27-2.24.81-3.19s1.25-1.81,2.12-2.57c.88-.77,1.85-1.48,2.93-2.12,1.08-.65,2.15-1.24,3.2-1.76,1.13-.6,2.18-1.12,3.15-1.57.97-.44,1.88-.85,2.74-1.21.85-.36,1.65-.72,2.39-1.08.62-.26,1.21-.52,1.76-.77.55-.25,1.1-.52,1.66-.81l1.48,3.31Z"/><path class="cls-1" d="M159.26,45.75h12.46v2.74h-12.46v-2.74ZM160.74,60.51h2.84v12.24h-2.84v-12.24ZM160.81,50.72h9.86v2.63h-9.86v-2.63ZM160.81,55.58h9.86v2.63h-9.86v-2.63ZM161.03,40.96h9.54v2.66h-9.54v-2.66ZM162.39,60.51h8.35v10.66h-8.35v-2.74h5.51v-5.18h-5.51v-2.74ZM177.33,58.31h3.17c-.07,1.92-.22,3.65-.45,5.2-.23,1.55-.62,2.93-1.17,4.14-.55,1.21-1.33,2.29-2.34,3.22s-2.32,1.73-3.92,2.38c-.12-.27-.29-.57-.52-.92-.23-.35-.47-.68-.74-1.01-.26-.32-.5-.58-.72-.77,1.42-.53,2.56-1.16,3.42-1.89.86-.73,1.52-1.6,1.98-2.59.46-1,.77-2.13.95-3.4.18-1.27.29-2.72.34-4.36ZM172.22,53.49h20.02v6.62h-3.17v-3.89h-13.79v3.89h-3.06v-6.62ZM172.51,42.76h19.55v2.81h-19.55v-2.81ZM173.66,48.42h17.32v2.81h-17.32v-2.81ZM180.39,39.74h3.35v10.12h-3.35v-10.12ZM183.6,58.31h3.17v10.44c0,.48.05.78.14.9.09.12.3.18.61.18h1.91c.24,0,.42-.1.54-.31.12-.2.21-.65.27-1.33.06-.68.1-1.7.13-3.04.22.17.49.34.83.5.34.17.68.32,1.04.45.36.13.67.25.94.34-.07,1.66-.23,2.95-.47,3.89-.24.94-.59,1.58-1.06,1.94-.47.36-1.09.54-1.85.54h-2.77c-.91,0-1.62-.12-2.11-.36-.49-.24-.83-.66-1.03-1.26-.19-.6-.29-1.42-.29-2.45v-10.44Z"/><path class="cls-1" d="M210.53,43.38c.48.05.98.08,1.49.11.52.02.96.04,1.35.04.5,0,1.12-.01,1.84-.04.72-.02,1.46-.05,2.23-.09.77-.04,1.5-.07,2.2-.11s1.24-.07,1.62-.09c.38-.05.76-.11,1.12-.18s.68-.16.97-.25l2.27,1.8c-.22.22-.41.43-.59.65-.18.22-.34.45-.49.68-.38.62-.85,1.51-1.39,2.66-.54,1.15-1.1,2.4-1.69,3.74-.59,1.34-1.16,2.64-1.71,3.89-.36.82-.74,1.69-1.15,2.63-.41.94-.82,1.87-1.24,2.81-.42.94-.83,1.81-1.22,2.61s-.79,1.49-1.17,2.07c-.67.98-1.41,1.69-2.21,2.12-.8.43-1.73.65-2.79.65-1.44,0-2.64-.47-3.6-1.42-.96-.95-1.44-2.25-1.44-3.91,0-1.39.31-2.68.94-3.87.62-1.19,1.5-2.23,2.63-3.13,1.13-.9,2.47-1.6,4.03-2.09,1.56-.49,3.28-.74,5.15-.74,2.04,0,4.02.24,5.94.72,1.92.48,3.71,1.09,5.36,1.82,1.66.73,3.16,1.51,4.52,2.32,1.36.82,2.51,1.56,3.47,2.23l-1.66,3.89c-1.08-.94-2.29-1.87-3.62-2.79s-2.77-1.76-4.32-2.52c-1.55-.76-3.18-1.36-4.9-1.82s-3.5-.68-5.35-.68-3.48.3-4.82.92c-1.34.61-2.36,1.38-3.06,2.32-.7.94-1.04,1.91-1.04,2.92,0,.72.19,1.26.58,1.62.38.36.83.54,1.33.54.38,0,.73-.09,1.04-.27.31-.18.64-.5.97-.95.36-.48.71-1.06,1.06-1.73.35-.67.7-1.4,1.06-2.18.36-.78.71-1.58,1.06-2.39.35-.82.68-1.58.99-2.3.48-1.03.95-2.09,1.42-3.19.47-1.09.94-2.15,1.4-3.17.47-1.02.89-1.93,1.28-2.72-.36,0-.84.01-1.44.04-.6.02-1.25.05-1.94.09-.7.04-1.36.07-1.98.09-.62.03-1.14.05-1.55.07-.38.02-.83.06-1.35.11s-1,.11-1.46.18l-.14-3.71ZM233.56,51.55c-.14,2.54-.4,4.87-.77,6.98-.37,2.11-.96,4.02-1.76,5.72-.8,1.7-1.9,3.23-3.28,4.59s-3.13,2.57-5.24,3.65l-3.02-2.48c2.16-.91,3.91-1.99,5.24-3.22s2.35-2.56,3.06-3.96c.71-1.4,1.21-2.81,1.49-4.21s.48-2.71.58-3.91c.02-.6.04-1.22.05-1.85.01-.64-.02-1.21-.09-1.71l3.74.4Z"/><path class="cls-1" d="M256.93,65.41c.82,1.25,1.95,2.18,3.4,2.79,1.45.61,3.17.95,5.17,1.03,1.03.05,2.26.08,3.67.09,1.42.01,2.92,0,4.5-.04,1.58-.04,3.12-.08,4.61-.13s2.79-.12,3.92-.22c-.14.26-.29.61-.43,1.03-.14.42-.28.85-.4,1.28s-.22.83-.29,1.19c-1.03.05-2.23.08-3.58.11-1.36.02-2.76.04-4.21.05-1.45.01-2.86.01-4.23,0-1.37-.01-2.57-.04-3.6-.09-2.28-.1-4.23-.46-5.85-1.1s-3.02-1.66-4.19-3.08c-.82.74-1.66,1.49-2.54,2.23-.88.74-1.81,1.51-2.79,2.3l-1.73-3.53c.84-.53,1.75-1.14,2.72-1.84s1.89-1.39,2.75-2.09h3.1ZM256.93,53.89v13h-3.31v-9.83h-4.64v-3.17h7.96ZM249.19,42.69l2.52-2.05c.77.48,1.55,1.04,2.36,1.69.8.65,1.54,1.31,2.21,1.98.67.67,1.22,1.3,1.66,1.87l-2.7,2.23c-.38-.58-.91-1.21-1.57-1.89-.66-.68-1.38-1.36-2.16-2.03-.78-.67-1.55-1.27-2.32-1.8ZM267.59,48.67l3.49.5c-.82,4.08-2.06,7.62-3.74,10.62-1.68,3-3.86,5.46-6.55,7.38-.17-.24-.41-.52-.72-.85-.31-.32-.64-.65-.99-.97-.35-.32-.65-.58-.92-.77,2.59-1.61,4.65-3.76,6.17-6.46s2.61-5.85,3.26-9.45ZM261.86,41.47h7.56v3.21h-7.56v-3.21ZM267.55,41.47h3.64c.19,2.66.51,5.19.95,7.58.44,2.39,1.07,4.58,1.89,6.57.82,1.99,1.85,3.74,3.11,5.26,1.26,1.51,2.81,2.74,4.66,3.67-.26.19-.56.44-.9.74-.34.3-.66.61-.97.94-.31.32-.58.63-.79.92-1.87-1.1-3.46-2.47-4.75-4.09-1.29-1.62-2.36-3.47-3.2-5.54-.84-2.08-1.49-4.33-1.96-6.75-.47-2.42-.81-4.99-1.03-7.71h-.65v-1.58Z"/><path class="cls-1" d="M295.02,45.97c1.03.14,2.03.26,2.99.34.96.08,1.88.13,2.77.13,1.75,0,3.61-.13,5.56-.4,1.96-.26,3.91-.65,5.85-1.15v3.46c-1.3.29-2.63.53-4,.72-1.37.19-2.67.34-3.91.43-1.24.1-2.33.14-3.29.14-.77,0-1.64-.03-2.63-.09-.98-.06-2.04-.15-3.17-.27l-.18-3.31ZM306.43,57.88c0,.91-.11,1.84-.32,2.79-.22.95-.56,1.82-1.04,2.61s-1.12,1.43-1.91,1.91c-.79.48-1.79.72-2.99.72-.77,0-1.53-.2-2.29-.59s-1.39-1.04-1.89-1.93c-.5-.89-.76-2.05-.76-3.49,0-1.32.26-2.53.79-3.62.53-1.09,1.26-1.97,2.2-2.63s2.03-.99,3.28-.99c1.61,0,2.83.49,3.67,1.48.84.98,1.26,2.23,1.26,3.74ZM300.53,62.53c.67,0,1.2-.22,1.58-.65.38-.43.66-.99.83-1.67.17-.68.25-1.4.25-2.14,0-.79-.17-1.41-.52-1.85-.35-.44-.81-.67-1.39-.67s-1.06.17-1.51.52c-.46.35-.82.83-1.1,1.44-.28.61-.41,1.33-.41,2.14,0,.94.23,1.65.68,2.14.46.49.98.74,1.58.74ZM304.63,62.38c-.02.24-.04.57-.05.99-.01.42-.02.85-.04,1.3-.01.44-.02.86-.02,1.24,0,.43.05.82.14,1.15.1.34.32.61.67.81.35.2.88.36,1.58.47.71.11,1.66.16,2.86.16.65,0,1.34-.03,2.07-.09s1.43-.14,2.11-.23,1.22-.2,1.66-.32c.94-.29,1.64-.73,2.12-1.33s.72-1.44.72-2.52c0-.7-.01-1.39-.04-2.07-.02-.68-.08-1.4-.18-2.14l3.89,1.19c.02.53.04,1.01.04,1.44v1.24c0,.4-.01.85-.04,1.35-.05,1.1-.23,2.05-.56,2.83-.32.78-.83,1.44-1.53,1.98-.7.54-1.66.98-2.88,1.31-.53.17-1.24.31-2.12.41-.89.11-1.82.19-2.81.25s-1.88.09-2.7.09c-1.54,0-2.82-.08-3.85-.23-1.03-.16-1.86-.38-2.48-.67-.62-.29-1.09-.63-1.39-1.03-.3-.4-.5-.83-.59-1.3s-.14-.97-.14-1.49c0-.65.01-1.29.04-1.93.02-.64.05-1.22.07-1.75l3.46-1.12ZM305.75,41.36c-.05.43-.11.98-.18,1.64-.07.66-.11,1.41-.11,2.25v10.98l-3.35-1.55v-4.84c0-.95,0-1.83-.02-2.65-.01-.82-.02-1.46-.02-1.94,0-.89-.02-1.65-.05-2.29-.04-.63-.12-1.17-.23-1.6h3.96ZM318.13,44.85c.55.36,1.16.82,1.84,1.37.67.55,1.36,1.15,2.07,1.8.71.65,1.37,1.28,1.98,1.89.61.61,1.12,1.17,1.53,1.67l-2.56,2.63c-.62-.79-1.37-1.63-2.23-2.52-.86-.89-1.74-1.73-2.63-2.54-.89-.8-1.67-1.45-2.34-1.93l2.34-2.38Z"/><path class="cls-1" d="M177.1,15.66c-.03.17-.05.38-.07.63-.02.25-.04.51-.06.78-.02.27-.03.52-.03.75-.01.45-.02.99,0,1.6,0,.61,0,1.24,0,1.88,0,.55.02,1.19.05,1.93.03.74.07,1.5.11,2.28.04.78.08,1.51.11,2.18.03.67.05,1.22.05,1.65s-.07.83-.2,1.22-.35.73-.65,1.03c-.3.3-.7.54-1.21.71-.51.17-1.13.26-1.86.26-.93,0-1.78-.11-2.53-.33-.75-.22-1.35-.58-1.79-1.07s-.66-1.15-.66-1.96c0-.65.19-1.24.57-1.76.38-.52.96-.94,1.73-1.25.77-.31,1.75-.47,2.92-.47,1.01,0,1.99.11,2.94.34.95.23,1.84.53,2.68.91.84.38,1.61.8,2.3,1.27s1.29.93,1.8,1.4l-1.2,1.88c-.49-.49-1.06-.98-1.7-1.46-.64-.48-1.34-.92-2.1-1.31s-1.56-.7-2.4-.93c-.84-.23-1.7-.34-2.58-.34-.93,0-1.65.15-2.16.44-.51.29-.76.69-.76,1.2s.25.91.75,1.16,1.17.38,2.01.38c.69,0,1.2-.16,1.52-.48.32-.32.48-.83.48-1.52,0-.35-.01-.83-.04-1.45-.03-.62-.05-1.29-.08-2.02-.03-.73-.05-1.43-.08-2.12-.03-.69-.04-1.28-.04-1.77,0-.4,0-.81,0-1.24,0-.43,0-.84,0-1.23v-1.01c-.01-.29-.03-.58-.04-.85s-.03-.52-.06-.75c-.03-.23-.06-.41-.1-.56h2.4ZM175.84,19.6c.32,0,.75,0,1.3-.01s1.14-.03,1.79-.06c.65-.03,1.3-.07,1.96-.11s1.26-.09,1.81-.16l.08,1.88c-.55.05-1.15.1-1.82.14-.67.04-1.32.07-1.97.1-.65.03-1.25.05-1.8.07s-1,.03-1.33.03l-.02-1.88Z"/><path class="cls-1" d="M258.63,25.5c-.12.37-.21.74-.28,1.1-.07.36-.1.71-.1,1.06,0,.71.36,1.29,1.09,1.74.73.45,1.85.68,3.37.68.92,0,1.8-.03,2.65-.1.85-.07,1.64-.16,2.37-.28.73-.12,1.37-.26,1.9-.42l.02,2.2c-.52.13-1.14.25-1.85.36s-1.49.19-2.34.25c-.85.06-1.74.09-2.67.09-1.43,0-2.63-.16-3.62-.47-.99-.31-1.73-.77-2.24-1.37-.51-.6-.76-1.33-.76-2.2,0-.55.05-1.06.14-1.53.09-.47.18-.9.26-1.29l2.06.18ZM257.43,17.26c.73.09,1.56.16,2.47.2.91.04,1.88.06,2.89.06.65,0,1.31-.01,1.98-.04.67-.03,1.31-.06,1.93-.11.62-.05,1.18-.09,1.67-.13v2.08c-.45.04-1,.08-1.63.12-.63.04-1.29.07-1.97.09-.68.02-1.33.03-1.96.03-1.03,0-1.98-.02-2.86-.07-.88-.05-1.72-.1-2.52-.15v-2.08Z"/><path class="cls-1" d="M29.46,16.18c-.04.11-.09.26-.14.46-.05.2-.1.4-.15.6-.05.2-.08.36-.11.48-.07.32-.14.73-.23,1.23-.09.5-.17,1.05-.26,1.64-.09.59-.17,1.2-.24,1.81-.07.61-.13,1.2-.18,1.76-.05.56-.07,1.05-.07,1.48,0,.35.01.7.04,1.05.03.35.07.72.12,1.09.09-.28.2-.57.32-.87.12-.3.24-.6.37-.89s.24-.56.35-.8l1,.78c-.17.51-.36,1.05-.56,1.63s-.38,1.13-.53,1.65-.27.95-.35,1.3c-.03.13-.05.29-.07.47-.02.18-.03.33-.03.45.01.09.02.21.03.35s.02.27.03.39l-1.78.14c-.21-.71-.4-1.6-.55-2.69-.15-1.09-.23-2.31-.23-3.67,0-.75.03-1.52.1-2.33s.15-1.6.25-2.37c.1-.77.2-1.48.29-2.12.09-.64.17-1.16.24-1.56.03-.25.06-.53.09-.82.03-.29.06-.57.07-.84l2.18.2ZM39.28,16c-.03.2-.05.41-.07.62-.02.21-.04.42-.05.62-.01.23-.02.53-.03.9,0,.37-.01.78-.02,1.21s0,.86,0,1.29c0,.84.02,1.65.05,2.42.03.77.07,1.51.11,2.2s.07,1.34.1,1.95c.03.61.04,1.16.04,1.65,0,.45-.06.89-.18,1.3-.12.41-.32.78-.6,1.1-.28.32-.66.57-1.13.75-.47.18-1.06.27-1.75.27-1.36,0-2.41-.27-3.16-.8-.75-.53-1.12-1.28-1.12-2.24,0-.61.17-1.16.51-1.64.34-.48.83-.86,1.46-1.14.63-.28,1.4-.42,2.29-.42s1.71.1,2.44.29c.73.19,1.41.45,2.04.78.63.33,1.19.68,1.69,1.07s.96.76,1.37,1.12l-1.08,1.68c-.72-.69-1.44-1.29-2.15-1.8s-1.44-.9-2.17-1.18c-.73-.28-1.5-.42-2.3-.42-.68,0-1.23.13-1.65.4s-.63.61-.63,1.04c0,.47.21.82.62,1.05s.94.35,1.58.35c.49,0,.88-.08,1.16-.24s.48-.39.6-.7c.12-.31.18-.67.18-1.08,0-.35-.01-.82-.04-1.41-.03-.59-.06-1.25-.1-1.96-.04-.71-.07-1.45-.1-2.2-.03-.75-.04-1.48-.04-2.17v-3.38c0-.17-.01-.38-.03-.63s-.05-.46-.09-.65h2.26ZM32.02,19.5c.57.05,1.14.1,1.71.13.57.03,1.15.05,1.75.05,1.2,0,2.4-.05,3.6-.16,1.2-.11,2.31-.26,3.34-.46v1.94c-1.07.17-2.2.3-3.39.38s-2.38.13-3.57.14c-.59,0-1.16-.01-1.71-.04-.55-.03-1.12-.06-1.71-.1l-.02-1.88Z"/><path class="cls-1" d="M48.56,17.42c-.04.19-.07.41-.1.68s-.05.53-.07.8-.03.49-.03.68c0,.41,0,.87,0,1.38,0,.51.02,1.02.03,1.55.01.53.05,1.05.1,1.57.11,1.05.27,1.97.48,2.76.21.79.49,1.4.82,1.84s.72.66,1.16.66c.25,0,.49-.12.72-.36.23-.24.44-.56.64-.96.2-.4.38-.84.55-1.31.17-.47.31-.93.43-1.37l1.58,1.86c-.43,1.13-.85,2.04-1.27,2.71-.42.67-.85,1.16-1.29,1.45-.44.29-.91.44-1.4.44-.67,0-1.3-.23-1.91-.69-.61-.46-1.13-1.22-1.57-2.27-.44-1.05-.75-2.46-.94-4.22-.07-.59-.12-1.22-.15-1.9-.03-.68-.05-1.33-.06-1.94,0-.61,0-1.12,0-1.52,0-.25,0-.56-.03-.93-.02-.37-.06-.68-.13-.95l2.44.04ZM58.8,17.92c.36.47.71,1.01,1.05,1.63.34.62.65,1.29.93,2.01.28.72.53,1.45.75,2.2.22.75.4,1.49.55,2.22s.25,1.43.3,2.08l-2.06.8c-.08-.87-.21-1.77-.4-2.72-.19-.95-.43-1.88-.72-2.81-.29-.93-.64-1.8-1.03-2.62-.39-.82-.84-1.53-1.35-2.13l1.98-.66Z"/><path class="cls-1" d="M72.21,16.1c-.05.21-.12.46-.2.73s-.15.51-.2.71c-.15.65-.29,1.39-.43,2.22-.14.83-.25,1.69-.34,2.58-.09.89-.12,1.77-.1,2.64.02.87.11,1.67.27,2.4.13-.37.29-.81.48-1.32.19-.51.37-.98.54-1.42l1.04.66c-.17.49-.35,1.03-.52,1.62-.17.59-.33,1.14-.48,1.67-.15.53-.26.96-.34,1.31-.03.16-.05.33-.07.51-.02.18-.03.32-.03.43s0,.23.02.36.03.26.04.38l-1.74.2c-.13-.41-.29-.96-.47-1.65s-.33-1.44-.45-2.27c-.12-.83-.18-1.65-.18-2.48,0-1.09.04-2.15.13-3.16.09-1.01.19-1.94.3-2.77s.21-1.52.29-2.07c.04-.25.07-.51.08-.78.01-.27.02-.51.02-.72l2.34.22ZM74.71,19.82c.31.04.63.08.98.12.35.04.7.07,1.07.08.37.01.73.02,1.09.02.84,0,1.71-.02,2.61-.06.9-.04,1.77-.1,2.62-.19.85-.09,1.6-.2,2.27-.33l-.02,2.04c-.63.09-1.35.17-2.18.24s-1.69.12-2.6.15c-.91.03-1.8.05-2.68.05-.29,0-.63,0-1.01-.02-.38-.01-.76-.03-1.13-.04-.37-.01-.71-.03-1.02-.04v-2.02ZM82.27,15.8c-.03.19-.05.39-.06.6-.01.21-.03.43-.04.66v.77c0,.35,0,.75.01,1.19,0,.44.01.89.02,1.35,0,.46,0,.88,0,1.27v.94c0,1.16-.03,2.23-.1,3.2-.07.97-.23,1.88-.5,2.72-.27.84-.69,1.62-1.27,2.33-.58.71-1.38,1.38-2.41,2.01l-1.84-1.44c.35-.15.72-.35,1.12-.61.4-.26.73-.52,1-.79.47-.44.84-.9,1.11-1.39.27-.49.48-1.03.62-1.62s.23-1.25.28-1.98.07-1.54.07-2.45c0-.35,0-.78,0-1.3,0-.52-.02-1.06-.04-1.61-.02-.55-.04-1.06-.05-1.53s-.03-.82-.04-1.06c-.01-.24-.04-.47-.09-.7-.05-.23-.08-.41-.11-.56h2.32Z"/><path class="cls-1" d="M90.93,17.42c-.04.19-.07.41-.1.68-.03.27-.05.53-.07.8-.02.27-.03.49-.03.68,0,.41,0,.87,0,1.38,0,.51.02,1.02.03,1.55.01.53.05,1.05.1,1.57.11,1.05.27,1.97.48,2.76.21.79.49,1.4.82,1.84.33.44.72.66,1.16.66.25,0,.49-.12.72-.36s.44-.56.64-.96c.2-.4.38-.84.55-1.31.17-.47.31-.93.43-1.37l1.58,1.86c-.43,1.13-.85,2.04-1.27,2.71s-.85,1.16-1.29,1.45c-.44.29-.91.44-1.4.44-.67,0-1.3-.23-1.91-.69-.61-.46-1.13-1.22-1.57-2.27-.44-1.05-.75-2.46-.94-4.22-.07-.59-.12-1.22-.15-1.9-.03-.68-.05-1.33-.06-1.94,0-.61,0-1.12,0-1.52,0-.25,0-.56-.03-.93s-.06-.68-.13-.95l2.44.04ZM101.17,17.92c.36.47.71,1.01,1.05,1.63s.65,1.29.93,2.01c.28.72.53,1.45.75,2.2.22.75.4,1.49.55,2.22.15.73.25,1.43.3,2.08l-2.06.8c-.08-.87-.21-1.77-.4-2.72-.19-.95-.43-1.88-.72-2.81s-.64-1.8-1.03-2.62c-.39-.82-.84-1.53-1.35-2.13l1.98-.66Z"/></g></svg>