<?xml version="1.0" encoding="UTF-8"?><svg id="_レイヤー_2" xmlns="http://www.w3.org/2000/svg" viewBox="0 0 352 88"><defs><style>.cls-1{fill:#4577ff;}.cls-1,.cls-2{stroke-width:0px;}.cls-2{fill:#fff;}</style></defs><g id="_ツール"><rect class="cls-1" x="1" y="1" width="350" height="86" rx="7" ry="7"/><path class="cls-1" d="M344,2c3.31,0,6,2.69,6,6v72c0,3.31-2.69,6-6,6H8c-3.31,0-6-2.69-6-6V8c0-3.31,2.69-6,6-6h336M344,0H8C3.58,0,0,3.58,0,8v72c0,4.42,3.58,8,8,8h336c4.42,0,8-3.58,8-8V8c0-4.42-3.58-8-8-8h0Z"/><path class="cls-2" d="M43.45,60.15h32v3.13h-32v-3.13ZM44.02,45.64h30.89v8.39h-3.35v-5.36h-24.3v5.36h-3.24v-8.39ZM46.47,41.47l2.88-1.29c.67.72,1.33,1.54,1.98,2.45.65.91,1.12,1.72,1.4,2.41l-3.02,1.48c-.29-.7-.74-1.51-1.37-2.45-.62-.94-1.25-1.8-1.87-2.59ZM49.64,51.98h17.32v2.99h-17.32v-2.99ZM57.63,57.63h3.49v11.74c0,.94-.14,1.66-.41,2.16-.28.5-.8.89-1.57,1.15-.74.24-1.67.39-2.77.45-1.1.06-2.46.09-4.07.09-.1-.48-.28-1.04-.56-1.67-.28-.64-.56-1.18-.85-1.64.84.02,1.66.05,2.47.07.8.03,1.51.03,2.11.02.6-.01,1.02-.02,1.26-.02.36-.02.6-.08.72-.18.12-.1.18-.28.18-.54v-11.63ZM55.65,40.71l2.99-1.12c.58.82,1.15,1.73,1.71,2.75.56,1.02.95,1.9,1.17,2.65l-3.17,1.26c-.19-.77-.55-1.67-1.06-2.72-.52-1.04-1.06-1.99-1.64-2.83ZM65.88,51.98h.83l.76-.18,2.16,1.66c-.82.86-1.75,1.72-2.81,2.56-1.06.84-2.17,1.62-3.33,2.34-1.16.72-2.32,1.36-3.47,1.91-.22-.31-.51-.67-.88-1.06-.37-.4-.7-.71-.99-.95.98-.46,1.97-1.01,2.97-1.66,1-.65,1.91-1.31,2.75-2,.84-.68,1.51-1.34,2.02-1.96v-.65ZM69.4,39.99l3.64,1.15c-.79,1.15-1.63,2.29-2.52,3.42-.89,1.13-1.7,2.09-2.45,2.88l-2.74-1.08c.48-.58.97-1.24,1.48-1.98.5-.74.99-1.5,1.46-2.27.47-.77.85-1.48,1.13-2.12Z"/><path class="cls-2" d="M87.51,52.81c1.22-.38,2.69-.88,4.39-1.48,1.7-.6,3.43-1.22,5.18-1.87l.54,2.48c-1.54.62-3.07,1.26-4.61,1.91-1.54.65-2.95,1.24-4.25,1.76l-1.26-2.81ZM88.45,41.5h11.81v2.7h-11.81v-2.7ZM89.71,46.22l1.69-1.94c.84.41,1.72.91,2.63,1.51s1.61,1.16,2.09,1.69l-1.76,2.2c-.48-.53-1.16-1.12-2.05-1.76-.89-.65-1.75-1.21-2.59-1.69ZM92.44,58.17h23.54v15.12h-3.53v-12.46h-16.63v12.46h-3.38v-15.12ZM94.17,63.68h19.26v2.63h-19.26v-2.63ZM94.32,69.3h19.22v2.63h-19.22v-2.63ZM99.43,41.5h3.1v11.95c0,.7-.09,1.24-.27,1.62s-.52.68-1.03.9c-.5.22-1.15.34-1.93.36-.78.02-1.72.04-2.83.04-.07-.36-.19-.77-.36-1.24-.17-.47-.35-.87-.54-1.21.72.02,1.39.04,2.02.04s1.04-.01,1.26-.04c.24,0,.4-.04.47-.13.07-.08.11-.21.11-.38v-11.92ZM102.17,54.82l3.64.61c-.43.84-.88,1.66-1.35,2.47-.47.8-.88,1.48-1.24,2.03l-2.77-.65c.31-.65.64-1.39.99-2.23.35-.84.59-1.58.74-2.23ZM103.75,52.12c1.3-.38,2.83-.88,4.61-1.49,1.78-.61,3.6-1.24,5.47-1.89l.5,2.48c-1.61.6-3.24,1.21-4.9,1.82-1.66.61-3.16,1.17-4.5,1.67l-1.19-2.59ZM104.65,41.5h12.53v2.7h-12.53v-2.7ZM105.51,46.22l1.66-2.02c.84.41,1.73.91,2.68,1.49s1.67,1.15,2.18,1.67l-1.76,2.23c-.48-.53-1.18-1.11-2.11-1.75-.92-.64-1.81-1.18-2.65-1.64ZM115.59,41.5h3.17v11.92c0,.75-.1,1.31-.29,1.69-.19.38-.55.71-1.08.97-.53.22-1.21.34-2.05.38-.84.04-1.85.05-3.02.05-.07-.41-.2-.86-.38-1.35-.18-.49-.37-.93-.56-1.31.77.02,1.5.04,2.2.05.7.01,1.16.02,1.4.02.24-.02.4-.07.49-.14s.13-.2.13-.4v-11.88Z"/><path class="cls-2" d="M136.15,64.83c.53.02,1.16.06,1.91.11.74.05,1.5.07,2.27.07h19.37v3.74h-19.22c-.72,0-1.49.01-2.3.04-.82.02-1.49.06-2.02.11v-4.07ZM136.58,45.1c.65.05,1.36.1,2.12.14s1.45.07,2.05.07h17.89c.48,0,1,0,1.57-.02.56-.01,1-.03,1.31-.05-.02.41-.04.89-.05,1.46-.01.56-.02,1.09-.02,1.57v18.61c0,.62.02,1.31.05,2.07.04.76.07,1.34.09,1.75h-4.1c0-.41.01-.92.04-1.53.02-.61.04-1.24.04-1.89v-18.32h-16.81c-.7,0-1.45.01-2.27.04-.82.02-1.45.06-1.91.11v-4Z"/><path class="cls-2" d="M171.32,67.42c2.02-.31,3.88-.73,5.58-1.24s3.27-1.1,4.7-1.76c1.43-.66,2.72-1.34,3.87-2.03,1.92-1.18,3.69-2.53,5.31-4.07,1.62-1.54,3.04-3.12,4.27-4.75,1.22-1.63,2.2-3.21,2.92-4.75l2.2,3.92c-.86,1.56-1.93,3.12-3.19,4.68-1.26,1.56-2.68,3.05-4.27,4.48-1.58,1.43-3.31,2.72-5.18,3.87-1.2.74-2.51,1.46-3.94,2.16-1.43.7-2.96,1.32-4.61,1.87-1.64.55-3.39,1-5.24,1.33l-2.41-3.71ZM175.03,43.34c.65.43,1.39.97,2.23,1.6.84.64,1.7,1.31,2.57,2.03.88.72,1.71,1.42,2.5,2.09.79.67,1.43,1.27,1.91,1.8l-2.84,2.92c-.46-.48-1.06-1.06-1.8-1.75-.74-.68-1.54-1.39-2.39-2.12-.85-.73-1.7-1.43-2.54-2.09s-1.6-1.22-2.27-1.67l2.63-2.81Z"/><path class="cls-2" d="M205.92,52.23c.5.05,1.04.09,1.6.13.56.04,1.12.05,1.67.05h23.54c.38,0,.88-.02,1.48-.05.6-.04,1.12-.08,1.55-.13v3.71c-.41-.05-.89-.08-1.46-.09-.56-.01-1.09-.02-1.57-.02h-23.54c-.55,0-1.12,0-1.69.02-.58.01-1.1.04-1.58.09v-3.71ZM210.16,43.09c.55.07,1.13.13,1.73.18.6.05,1.19.07,1.76.07h14.54c.55,0,1.15-.02,1.78-.07.64-.05,1.24-.11,1.82-.18v3.71c-.58-.05-1.18-.08-1.8-.09-.62-.01-1.22-.02-1.8-.02h-14.51c-.6,0-1.21,0-1.84.02-.62.01-1.19.04-1.69.09v-3.71ZM223.52,54.14c0,2.28-.18,4.36-.54,6.23s-.94,3.56-1.73,5.08c-.43.79-1.01,1.6-1.75,2.43-.73.83-1.55,1.62-2.47,2.36-.91.74-1.9,1.38-2.95,1.91l-3.31-2.41c1.32-.55,2.58-1.31,3.78-2.29,1.2-.97,2.16-2,2.88-3.08.91-1.42,1.5-2.98,1.76-4.7.26-1.72.41-3.56.43-5.53h3.89Z"/><path class="cls-2" d="M243.32,67.42c2.02-.31,3.88-.73,5.58-1.24s3.27-1.1,4.7-1.76c1.43-.66,2.72-1.34,3.87-2.03,1.92-1.18,3.69-2.53,5.31-4.07,1.62-1.54,3.04-3.12,4.27-4.75,1.22-1.63,2.2-3.21,2.92-4.75l2.2,3.92c-.86,1.56-1.93,3.12-3.19,4.68-1.26,1.56-2.68,3.05-4.27,4.48-1.58,1.43-3.31,2.72-5.18,3.87-1.2.74-2.51,1.46-3.94,2.16-1.43.7-2.96,1.32-4.61,1.87-1.64.55-3.39,1-5.24,1.33l-2.41-3.71ZM247.03,43.34c.65.43,1.39.97,2.23,1.6.84.64,1.7,1.31,2.57,2.03.88.72,1.71,1.42,2.5,2.09.79.67,1.43,1.27,1.91,1.8l-2.84,2.92c-.46-.48-1.06-1.06-1.8-1.75-.74-.68-1.54-1.39-2.39-2.12-.85-.73-1.7-1.43-2.54-2.09s-1.6-1.22-2.27-1.67l2.63-2.81Z"/><path class="cls-2" d="M281.3,44.85c.24.53.55,1.22.94,2.09.38.86.77,1.79,1.17,2.79.4,1,.77,1.95,1.13,2.84.36.9.65,1.65.86,2.25l-3.64,1.33c-.14-.46-.34-1.04-.59-1.75s-.54-1.46-.86-2.27c-.32-.8-.65-1.6-.99-2.39s-.65-1.51-.94-2.14-.52-1.12-.68-1.46l3.6-1.29ZM307.51,45.21c-.14.36-.29.76-.43,1.21-.14.44-.25.83-.32,1.17-.36,1.42-.82,2.92-1.39,4.52-.56,1.6-1.23,3.17-2,4.72-.77,1.55-1.64,2.98-2.63,4.3-1.25,1.63-2.65,3.12-4.19,4.46-1.55,1.34-3.16,2.53-4.84,3.54-1.68,1.02-3.38,1.83-5.11,2.43l-3.13-3.17c1.68-.5,3.37-1.19,5.08-2.07s3.34-1.94,4.91-3.19c1.57-1.25,2.96-2.64,4.16-4.18.94-1.2,1.79-2.62,2.56-4.25.77-1.63,1.42-3.37,1.96-5.22.54-1.85.93-3.67,1.17-5.47l4.21,1.19ZM291.31,42.66c.22.43.5,1.07.85,1.91.35.84.71,1.75,1.08,2.72s.71,1.9,1.03,2.79c.31.89.55,1.6.72,2.12l-3.56,1.26c-.14-.55-.37-1.26-.68-2.12-.31-.86-.64-1.78-.99-2.74-.35-.96-.7-1.87-1.04-2.72-.35-.85-.64-1.53-.88-2.03l3.49-1.19Z"/><path class="cls-2" d="M46.17,20.09c.33.01.65.02.96.02s.63,0,.98-.02c.31-.01.7-.04,1.17-.07.47-.03.98-.07,1.52-.12s1.08-.09,1.61-.14,1.03-.08,1.49-.11.83-.04,1.11-.04c.64,0,1.22.1,1.73.31.51.21.92.57,1.22,1.09.3.52.45,1.25.45,2.18,0,.79-.04,1.64-.11,2.55s-.19,1.79-.36,2.62c-.17.83-.39,1.53-.67,2.09-.32.69-.74,1.16-1.26,1.4-.52.24-1.13.36-1.82.36-.39,0-.8-.03-1.23-.09s-.82-.13-1.15-.21l-.34-2.08c.28.08.57.15.88.21s.6.11.88.14c.28.03.51.05.7.05.35,0,.66-.06.94-.19s.51-.38.7-.75c.2-.43.36-.97.49-1.62.13-.65.22-1.35.29-2.1.07-.75.1-1.47.1-2.16,0-.59-.08-1.02-.24-1.3-.16-.28-.39-.47-.7-.57s-.67-.15-1.1-.15c-.32,0-.76.02-1.31.07-.55.05-1.14.1-1.76.17-.62.07-1.2.13-1.74.19s-.96.11-1.25.15c-.25.03-.58.07-.97.12-.39.05-.73.11-1.01.16l-.2-2.16ZM53.77,15.83c-.05.2-.1.43-.15.68-.05.25-.1.49-.15.7-.04.27-.1.6-.18.99-.08.39-.16.8-.23,1.22-.07.42-.16.82-.25,1.21-.13.56-.3,1.21-.5,1.94-.2.73-.43,1.52-.69,2.35s-.55,1.68-.88,2.54c-.33.86-.68,1.7-1.06,2.52-.38.82-.79,1.58-1.23,2.29l-2.06-.82c.47-.61.9-1.31,1.3-2.08.4-.77.77-1.57,1.1-2.39.33-.82.63-1.63.9-2.43.27-.8.49-1.54.68-2.23s.33-1.28.44-1.77c.19-.85.34-1.71.45-2.56.11-.85.17-1.65.17-2.4l2.34.24ZM60.65,18.01c.31.41.64.93.99,1.55.35.62.7,1.28,1.03,1.97s.64,1.36.92,2.01.5,1.2.66,1.67l-1.98.94c-.15-.53-.34-1.13-.59-1.8-.25-.67-.53-1.34-.84-2.03s-.65-1.34-1-1.95-.7-1.13-1.05-1.54l1.86-.82ZM60.61,15.15c.17.24.36.53.56.86.2.33.39.67.58,1,.19.33.35.63.48.9l-1.32.56c-.12-.27-.27-.57-.46-.9-.19-.33-.38-.67-.57-1s-.38-.63-.57-.88l1.3-.54ZM62.89,14.31c.17.25.37.55.58.88.21.33.42.66.61.99.19.33.35.61.47.85l-1.3.58c-.21-.43-.47-.9-.77-1.42-.3-.52-.6-.97-.89-1.34l1.3-.54Z"/><path class="cls-2" d="M76.23,16.81c-.25.19-.52.4-.81.63-.29.23-.53.44-.73.61-.33.28-.74.61-1.22,1-.48.39-.98.79-1.51,1.22-.53.43-1.04.84-1.53,1.23s-.91.74-1.26,1.05c-.37.32-.63.59-.76.8-.13.21-.13.42,0,.63.14.21.4.48.79.83.35.28.76.61,1.23,1,.47.39.98.8,1.52,1.25.54.45,1.09.91,1.65,1.39.56.48,1.1.95,1.62,1.42.52.47.99.91,1.4,1.32l-1.82,1.66c-.48-.55-.99-1.09-1.52-1.62-.33-.35-.75-.75-1.26-1.22-.51-.47-1.05-.95-1.63-1.46-.58-.51-1.16-1-1.73-1.49-.57-.49-1.09-.92-1.56-1.31-.64-.55-1.05-1.03-1.24-1.46-.19-.43-.16-.85.09-1.28.25-.43.68-.9,1.31-1.42.39-.32.84-.69,1.36-1.11.52-.42,1.06-.86,1.61-1.33.55-.47,1.08-.92,1.58-1.35.5-.43.92-.82,1.25-1.15.24-.24.49-.5.74-.77.25-.27.44-.52.56-.73l1.86,1.66Z"/><path class="cls-2" d="M85.17,15.71c-.05.36-.1.74-.14,1.15s-.07.79-.08,1.15c-.03.55-.05,1.22-.08,2.03-.03.81-.05,1.66-.08,2.56-.03.9-.05,1.79-.06,2.66-.01.87-.02,1.66-.02,2.35s.13,1.27.39,1.68c.26.41.62.71,1.09.89.47.18.99.27,1.56.27.88,0,1.67-.11,2.38-.34s1.34-.53,1.91-.92,1.08-.83,1.53-1.32c.45-.49.86-1.01,1.22-1.54l1.42,1.74c-.33.48-.75.98-1.26,1.5s-1.11,1.01-1.81,1.46c-.7.45-1.5.82-2.4,1.1-.9.28-1.91.42-3.03.42-1.01,0-1.9-.15-2.66-.46-.76-.31-1.35-.8-1.78-1.48-.43-.68-.64-1.57-.64-2.68,0-.57,0-1.22.02-1.94.01-.72.03-1.46.05-2.23.02-.77.04-1.52.06-2.25.02-.73.04-1.41.05-2.02.01-.61.02-1.11.02-1.48,0-.43-.02-.84-.05-1.23-.03-.39-.09-.76-.17-1.09l2.56.02Z"/><path class="cls-2" d="M100.87,19.97c-.05.15-.1.31-.14.48s-.08.32-.12.44c-.05.24-.11.53-.17.87-.06.34-.12.7-.17,1.08-.05.38-.09.76-.12,1.13-.03.37-.04.71-.04,1,.44-.88,1.01-1.62,1.71-2.23s1.48-1.07,2.33-1.38c.85-.31,1.71-.47,2.58-.47,1.12,0,2.07.2,2.84.61.77.41,1.36.95,1.75,1.64.39.69.59,1.46.59,2.31,0,.92-.19,1.77-.58,2.56-.39.79-.97,1.41-1.75,1.88-.78.47-1.77.7-2.97.7-.64,0-1.27-.11-1.88-.34-.61-.23-1.17-.56-1.68-1.01s-.93-1-1.26-1.67l1.04-1.44c.39.79.88,1.42,1.49,1.89.61.47,1.36.71,2.25.71.81,0,1.48-.14,1.99-.42.51-.28.89-.66,1.14-1.15.25-.49.37-1.04.37-1.67,0-.55-.11-1.04-.34-1.49-.23-.45-.59-.8-1.09-1.07-.5-.27-1.16-.4-1.99-.4-.87,0-1.65.15-2.35.45-.7.3-1.31.69-1.84,1.18-.53.49-.95,1.02-1.28,1.61-.33.59-.54,1.16-.65,1.72-.03.13-.05.28-.07.43-.02.15-.03.32-.03.49.01.11.03.27.05.48.02.21.05.43.08.65.03.22.06.4.09.53l-1.7.24c-.16-.53-.3-1.19-.41-1.98-.11-.79-.17-1.58-.17-2.38,0-.49.02-1,.05-1.51s.07-1.01.12-1.49.09-.91.14-1.29.08-.69.11-.93c.03-.16.04-.32.04-.49s0-.3-.02-.41l2.06.14ZM106.67,18.95c.08.4.16.92.24,1.55.08.63.15,1.34.21,2.11s.09,1.57.09,2.38c0,1.09-.1,2.15-.29,3.17s-.54,1.96-1.03,2.81c-.49.85-1.19,1.59-2.1,2.2l-1.72-1.02c.69-.4,1.26-.87,1.69-1.4.43-.53.77-1.12,1.02-1.75.25-.63.42-1.3.51-2,.09-.7.14-1.42.14-2.17,0-1.08-.05-2.03-.14-2.86-.09-.83-.19-1.48-.28-1.96-.04-.19-.09-.36-.14-.52-.05-.16-.11-.33-.16-.5l1.96-.04Z"/><path class="cls-2" d="M125.65,24.81c0-.52-.13-.98-.39-1.38-.26-.4-.63-.72-1.11-.95-.48-.23-1.05-.35-1.7-.35-.76,0-1.48.06-2.15.18-.67.12-1.28.26-1.83.42-.55.16-1.01.29-1.38.4-.29.08-.6.18-.92.3-.32.12-.61.23-.86.34l-.62-2.28c.31-.03.64-.07.99-.13.35-.06.68-.12.99-.19.49-.12,1.06-.25,1.69-.39.63-.14,1.32-.27,2.06-.38s1.5-.17,2.27-.17c1,0,1.89.18,2.66.54.77.36,1.38.89,1.82,1.58.44.69.66,1.54.66,2.54,0,1.08-.23,2.05-.69,2.9s-1.11,1.6-1.94,2.23c-.83.63-1.82,1.16-2.95,1.57-1.13.41-2.37.72-3.7.92l-1.14-1.94c1.23-.15,2.34-.37,3.35-.68,1.01-.31,1.88-.69,2.61-1.16.73-.47,1.3-1.03,1.69-1.68.39-.65.59-1.4.59-2.24ZM117.47,15.53c.57.12,1.25.24,2.03.35s1.59.21,2.43.29c.84.08,1.63.15,2.38.2.75.05,1.37.08,1.88.08l-.32,1.94c-.56-.04-1.22-.09-1.98-.15-.76-.06-1.55-.13-2.37-.22-.82-.09-1.61-.18-2.36-.28-.75-.1-1.42-.2-1.99-.29l.3-1.92Z"/></g></svg>