<?xml version="1.0" encoding="UTF-8"?><svg id="_レイヤー_2" xmlns="http://www.w3.org/2000/svg" viewBox="0 0 338 84"><defs><style>.cls-1{fill:#ff8080;}.cls-1,.cls-2{stroke-width:0px;}.cls-2{fill:#fff;}</style></defs><g id="_ヘッダー"><rect class="cls-2" y="0" width="338" height="84" rx="42" ry="42"/><path class="cls-1" d="M106.06,56.28c-.47-.37-.99-.78-1.57-1.22s-1.12-.86-1.64-1.24c-.37-.27-.64-.46-.88-.61v-.32h5.98v-3.64h-5.98v-2.77h6.3v-3.53h-3.66c.24-.49.5-1.07.78-1.75.31-.76.64-1.54.97-2.36l-2.2-.43h3.82v-3.49h-6.01v-3.28h-4.18v3.28h-6.05v3.49h4.08l-2.28.54c.31.7.57,1.46.77,2.29.16.65.26,1.2.32,1.71h-3.33v3.53h6.48v2.77h-6.37v3.64h5.55c-.34.56-.72,1.12-1.14,1.67-.8,1.07-1.67,2.06-2.61,2.99-.94.92-1.87,1.69-2.81,2.29.46.36.96.85,1.51,1.46s.98,1.15,1.3,1.6c.96-.77,1.92-1.72,2.88-2.84.59-.7,1.15-1.44,1.69-2.21v7.25h4.18v-7.72s.06.06.09.09c.52.5,1,1,1.44,1.49.44.49.81.91,1.1,1.24l2.52-3.1c-.24-.17-.59-.44-1.06-.81ZM97.73,40.34c-.21-.71-.45-1.34-.72-1.93h5.44c-.07.34-.16.7-.29,1.1-.17.52-.35,1.03-.54,1.53-.19.5-.37.96-.54,1.37l2.59.54h-7.41l1.94-.54c-.07-.58-.23-1.27-.47-2.07Z"/><path class="cls-1" d="M124.73,43.23h-11.27v-5.08c.88-.18,1.77-.37,2.68-.59,1.5-.35,2.97-.75,4.41-1.21,1.44-.46,2.77-.96,4-1.51l-3.46-3.13c-.84.43-1.84.86-3.01,1.3-1.16.43-2.41.83-3.73,1.21-.85.24-1.7.46-2.54.66l-2.5-.72v12.56c0,1.25-.04,2.55-.13,3.91-.08,1.36-.28,2.72-.58,4.09-.3,1.37-.76,2.69-1.37,3.98s-1.45,2.48-2.5,3.58c.36.17.74.43,1.13.77.4.35.78.71,1.15,1.1.37.38.64.74.81,1.08,1.22-1.3,2.21-2.72,2.95-4.28s1.31-3.17,1.69-4.84c.38-1.67.64-3.3.77-4.9.12-1.43.18-2.75.19-3.98h3.65v17.75h4.21v-17.75h3.42v-4Z"/><path class="cls-1" d="M139.2,33.37c-.1.74-.19,1.55-.27,2.41s-.15,1.66-.2,2.38c-.02.98-.07,2.18-.13,3.58-.06,1.4-.11,2.87-.14,4.41s-.07,3.05-.11,4.54c-.04,1.49-.05,2.78-.05,3.89,0,1.2.22,2.15.67,2.86s1.04,1.21,1.78,1.51c.74.3,1.58.45,2.52.45,1.49,0,2.84-.2,4.07-.59,1.22-.4,2.34-.93,3.35-1.6,1.01-.67,1.91-1.45,2.72-2.34.8-.89,1.53-1.82,2.18-2.81l3.28,3.96c-.58.86-1.33,1.78-2.27,2.74-.94.96-2.05,1.86-3.33,2.7s-2.77,1.52-4.45,2.05-3.54.79-5.58.79-3.68-.31-5.13-.92c-1.45-.61-2.58-1.56-3.38-2.84-.8-1.28-1.21-2.95-1.21-4.99,0-.98.01-2.11.04-3.37.02-1.26.06-2.57.11-3.94.05-1.37.08-2.71.11-4.01.02-1.31.05-2.49.07-3.55.02-1.06.04-1.9.04-2.52,0-.86-.04-1.71-.11-2.54-.07-.83-.19-1.6-.36-2.32l5.8.07Z"/><path class="cls-1" d="M171.2,36.18c-.1.43-.17.92-.23,1.48-.06.55-.11,1.09-.14,1.62-.04.53-.05.96-.05,1.3-.02.79-.03,1.61-.02,2.45.01.84.04,1.7.07,2.57.04.88.09,1.75.16,2.61.17,1.73.41,3.25.72,4.57.31,1.32.72,2.35,1.22,3.08s1.14,1.1,1.91,1.1c.41,0,.81-.23,1.21-.68.4-.46.76-1.05,1.08-1.78s.61-1.51.86-2.32c.25-.82.47-1.58.67-2.3l3.6,4.39c-.79,2.09-1.58,3.75-2.36,4.99-.78,1.24-1.59,2.12-2.43,2.66s-1.75.81-2.74.81c-1.3,0-2.53-.43-3.69-1.3s-2.15-2.26-2.97-4.19c-.82-1.93-1.39-4.5-1.73-7.72-.12-1.1-.21-2.27-.27-3.49-.06-1.22-.1-2.39-.11-3.49-.01-1.1-.02-2.02-.02-2.74,0-.5-.02-1.1-.07-1.8-.05-.7-.12-1.32-.22-1.87l5.54.07ZM189.2,37.01c.67.82,1.32,1.81,1.94,2.99.62,1.18,1.2,2.44,1.73,3.78.53,1.34,1,2.72,1.4,4.12.41,1.4.74,2.77.99,4.1.25,1.33.41,2.55.49,3.65l-4.75,1.84c-.12-1.46-.34-3.06-.65-4.79-.31-1.73-.73-3.47-1.26-5.22s-1.16-3.41-1.89-4.97c-.73-1.56-1.59-2.9-2.57-4.03l4.57-1.48Z"/><path class="cls-1" d="M227.87,35.57c-.31.65-.6,1.33-.86,2.05-.26.72-.5,1.38-.72,1.98-.5,1.37-1.1,2.84-1.78,4.43s-1.44,3.14-2.27,4.66c-.83,1.52-1.73,2.9-2.72,4.12-1.01,1.27-2.23,2.57-3.65,3.91-1.43,1.33-2.99,2.57-4.68,3.71-1.69,1.14-3.46,2.08-5.31,2.83l-4.1-4.21c1.87-.65,3.65-1.45,5.33-2.41,1.68-.96,3.23-2.04,4.64-3.24,1.42-1.2,2.65-2.44,3.71-3.71,1.15-1.39,2.18-2.97,3.08-4.73.9-1.76,1.67-3.58,2.3-5.45.64-1.87,1.11-3.66,1.42-5.36l5.62,1.44Z"/><path class="cls-1" d="M237.15,45.25c.43.02.98.05,1.66.09.67.04,1.37.07,2.11.09.73.02,1.41.04,2.03.04h19.33c.84,0,1.63-.03,2.38-.09.74-.06,1.36-.1,1.84-.13v5.65c-.41-.02-1.02-.06-1.84-.11-.82-.05-1.61-.07-2.38-.07h-19.33c-1.03,0-2.09.02-3.17.05s-1.96.08-2.63.13v-5.65Z"/><path class="cls-1" d="M281.15,58.46v-20.7c0-.62-.03-1.34-.09-2.16-.06-.82-.15-1.54-.27-2.16h5.62c-.07.62-.14,1.31-.22,2.07-.07.76-.11,1.51-.11,2.25v20.7c0,.34.01.81.04,1.42.02.61.07,1.24.14,1.89.07.65.12,1.22.14,1.73h-5.62c.1-.72.18-1.56.25-2.52.07-.96.11-1.8.11-2.52ZM285,42.77c1.2.31,2.54.71,4.03,1.21,1.49.49,2.99,1.01,4.5,1.57,1.51.55,2.93,1.1,4.27,1.64s2.44,1.04,3.33,1.49l-2.05,4.97c-1.01-.53-2.12-1.06-3.35-1.6-1.22-.54-2.47-1.06-3.73-1.57-1.26-.5-2.5-.97-3.71-1.4-1.21-.43-2.31-.82-3.29-1.15v-5.15Z"/><path class="cls-1" d="M96.87,17.23c-.21-.1-.42-.18-.64-.25.05-.16.11-.32.16-.47.07-.19.13-.34.16-.45l-2.2-.52c-.01.12-.03.28-.06.48-.03.2-.06.39-.1.58,0,.01,0,.02,0,.03-.11,0-.21-.01-.32-.01-.68,0-1.38.07-2.08.2-.21.04-.4.09-.6.14,0-.12,0-.24.01-.36.03-.44.09-.86.13-1.28.65-.03,1.3-.06,1.96-.11.81-.06,1.59-.13,2.34-.23.75-.09,1.44-.19,2.06-.3l-.02-2.09c-.92.23-1.85.4-2.78.52s-1.9.2-2.9.25c-.14,0-.29,0-.43.01.05-.35.11-.68.17-.99.04-.14.08-.3.12-.46s.09-.33.14-.5l-2.34-.05c.01.16.01.33,0,.53s-.02.38-.04.55c-.03.3-.07.62-.11.96-.24,0-.47,0-.72,0-.36,0-.76-.01-1.2-.04-.44-.03-.85-.07-1.23-.11s-.68-.08-.88-.1l.05,2.09c.28.01.6.03.98.04.38.02.76.03,1.15.04.39.01.74.02,1.05.02.19,0,.39,0,.59,0,0,.1-.02.19-.03.29-.05.59-.09,1.19-.13,1.8,0,.06,0,.13,0,.19-.45.21-.89.44-1.3.73-.62.44-1.17.94-1.64,1.5-.47.56-.83,1.16-1.1,1.78s-.4,1.26-.4,1.91c0,.6.11,1.09.33,1.48.22.39.52.67.89.86.37.18.77.27,1.21.27.77,0,1.53-.17,2.29-.5.18-.08.34-.17.51-.26.07.27.15.53.23.77l2.07-.63c-.15-.43-.28-.9-.41-1.37.44-.37.88-.79,1.33-1.3.58-.67,1.11-1.45,1.61-2.34.31-.55.58-1.15.83-1.77.06.02.14.03.2.06.56.26.98.6,1.26,1.02.28.42.42.89.42,1.42,0,.59-.17,1.16-.5,1.71s-.86,1.02-1.58,1.41-1.66.65-2.81.78l1.19,1.89c1.1-.17,2.03-.44,2.79-.81.76-.37,1.37-.82,1.83-1.33.46-.52.79-1.08,1-1.68.2-.61.31-1.23.31-1.86,0-.95-.25-1.78-.76-2.48s-1.2-1.27-2.08-1.67ZM89.16,23.56c-.56.28-1.06.42-1.49.42-.29,0-.5-.08-.63-.23-.13-.15-.2-.37-.2-.66,0-.41.13-.85.4-1.33.26-.48.63-.94,1.1-1.38.24-.22.5-.43.77-.61.02.7.06,1.4.15,2.09.07.52.15,1.02.23,1.5-.11.06-.21.14-.32.19ZM92.67,20.2c-.43.62-.88,1.16-1.35,1.65-.02-.12-.04-.24-.06-.36-.1-.79-.14-1.65-.14-2.58,0-.02,0-.03,0-.05.14-.04.27-.09.42-.13.6-.17,1.29-.25,2.05-.26-.27.65-.58,1.23-.92,1.74Z"/><path class="cls-1" d="M109.45,19.12c.56-.07,1.13-.12,1.7-.15.57-.03,1.16-.04,1.77-.04.55,0,1.1.02,1.63.06.53.04,1.02.09,1.47.15l.05-2.16c-.53-.06-1.06-.1-1.59-.13-.53-.02-1.06-.04-1.58-.04-.58,0-1.17.02-1.78.05s-1.17.08-1.67.13v2.12Z"/><path class="cls-1" d="M112.64,24.41c-.48,0-.88-.04-1.2-.11-.32-.07-.57-.17-.75-.3-.18-.13-.31-.27-.4-.44s-.13-.35-.13-.54c0-.2.02-.44.07-.71.05-.27.11-.53.18-.78l-2.14-.22c-.07.36-.14.75-.22,1.17-.07.42-.11.83-.11,1.24,0,.91.4,1.62,1.2,2.11.8.5,1.95.75,3.46.75.72,0,1.39-.03,2-.08.61-.05,1.17-.11,1.67-.17l.09-2.3c-.65.12-1.28.21-1.9.28-.62.07-1.23.1-1.85.1Z"/><path class="cls-1" d="M108.5,16.04c.84-.12,1.63-.26,2.38-.43v-2.25c-.79.18-1.59.34-2.39.47-.2.03-.4.05-.6.08.05-.24.1-.46.14-.65.04-.19.09-.46.16-.81.07-.35.14-.64.22-.88l-2.75-.22c.02.2.03.47.02.81-.01.34-.04.67-.07,1.01-.04.28-.09.6-.15.96,0,.01,0,.03,0,.04-.55.04-1.1.08-1.62.08-.37,0-.73-.01-1.06-.04-.34-.02-.74-.06-1.21-.11l.05,2.25c.32.01.66.03,1.01.05.35.02.74.03,1.17.03.38,0,.78-.01,1.2-.03-.02.07-.03.14-.05.21-.11.44-.22.88-.34,1.3-.17.64-.37,1.33-.61,2.07s-.5,1.49-.78,2.25c-.28.76-.57,1.46-.87,2.12-.3.65-.58,1.21-.85,1.67l2.5.85c.25-.54.51-1.15.77-1.84.26-.69.52-1.42.78-2.18.26-.76.5-1.51.73-2.25.23-.74.42-1.42.58-2.06.16-.6.31-1.23.46-1.89.04-.16.07-.3.1-.45.37-.04.74-.07,1.11-.13Z"/><path class="cls-1" d="M124.31,14.2c.55.11,1.11.22,1.68.33.57.11,1.11.21,1.62.3s.95.16,1.3.21l.54-2.2c-.4-.05-.91-.12-1.54-.22-.63-.1-1.3-.21-2.01-.35-.71-.14-1.39-.28-2.03-.42-.65-.14-1.19-.28-1.62-.41l-.58,2.16c.29.07.66.16,1.12.27.46.11.96.22,1.51.33Z"/><path class="cls-1" d="M131.39,19.64c-.39-.62-.96-1.13-1.7-1.51-.74-.38-1.64-.58-2.7-.58-.94,0-1.85.14-2.75.41-.89.28-1.75.71-2.56,1.3.04-.25.08-.56.13-.94s.11-.76.17-1.17c.06-.41.12-.8.19-1.18.07-.38.13-.69.19-.93l-2.41-.34c-.02.44-.06.94-.11,1.48-.05.54-.1,1.09-.16,1.64-.06.55-.13,1.1-.2,1.65-.07.55-.14,1.06-.22,1.53-.07.47-.14.88-.22,1.23l2.07.52c.08-.18.18-.35.28-.51.1-.16.23-.34.39-.53.56-.68,1.29-1.21,2.17-1.58.88-.37,1.83-.55,2.83-.55.52,0,.98.09,1.39.26.41.17.73.41.95.72.23.31.34.66.34,1.05,0,.76-.32,1.39-.95,1.92s-1.56.87-2.78,1.04c-1.22.17-2.74.14-4.54-.1l.68,2.36c1.87.16,3.45.13,4.73-.07,1.28-.21,2.32-.55,3.11-1.04.79-.49,1.36-1.08,1.71-1.78.35-.7.52-1.45.52-2.27,0-.73-.2-1.41-.58-2.03Z"/><path class="cls-1" d="M70.75,38h-16v-16c0-2.21-1.79-4-4-4s-4,1.79-4,4v16h-16c-2.21,0-4,1.79-4,4s1.79,4,4,4h16v16c0,2.21,1.79,4,4,4s4-1.79,4-4v-16h16c2.21,0,4-1.79,4-4s-1.79-4-4-4Z"/></g></svg>