<?xml version="1.0" encoding="UTF-8"?><svg id="_レイヤー_2" xmlns="http://www.w3.org/2000/svg" viewBox="0 0 64 64"><defs><style>.cls-1{fill:#ff8080;}.cls-1,.cls-2{stroke-width:0px;}.cls-2{fill:#fff;}</style></defs><g id="_ツール"><circle class="cls-2" cx="32" cy="32" r="30"/><path class="cls-1" d="M32,4c15.44,0,28,12.56,28,28s-12.56,28-28,28S4,47.44,4,32,16.56,4,32,4M32,0C14.33,0,0,14.33,0,32s14.33,32,32,32,32-14.33,32-32S49.67,0,32,0h0Z"/><path class="cls-1" d="M37.66,31.27l8.49-8.49c1.56-1.56,1.56-4.09,0-5.66-1.56-1.56-4.09-1.56-5.66,0l-8.48,8.48-8.48-8.48c-1.56-1.56-4.09-1.56-5.66,0-1.56,1.56-1.56,4.09,0,5.66l8.49,8.49-8.49,8.49c-1.56,1.56-1.56,4.09,0,5.66.78.78,1.8,1.17,2.83,1.17s2.05-.39,2.83-1.17l8.48-8.48,8.48,8.48c.78.78,1.8,1.17,2.83,1.17s2.05-.39,2.83-1.17c1.56-1.56,1.56-4.09,0-5.66l-8.49-8.49Z"/></g></svg>