<?xml version="1.0" encoding="UTF-8"?><svg id="_レイヤー_2" xmlns="http://www.w3.org/2000/svg" viewBox="0 0 280 56"><defs><style>.cls-1{fill:#333;}.cls-1,.cls-2,.cls-3{stroke-width:0px;}.cls-2{fill:#fff;}.cls-3{fill:#e3e3e3;}</style></defs><g id="_ガイド"><path class="cls-2" d="M28,55c-14.89,0-27-12.11-27-27S13.11,1,28,1h224c14.89,0,27,12.11,27,27s-12.11,27-27,27H28Z"/><path class="cls-3" d="M252,2c14.34,0,26,11.66,26,26s-11.66,26-26,26H28c-14.34,0-26-11.66-26-26S13.66,2,28,2h224M252,0H28C12.54,0,0,12.54,0,28s12.54,28,28,28h224c15.46,0,28-12.54,28-28S267.46,0,252,0h0Z"/><path class="cls-1" d="M81.45,28.43c-.95-1.39-2.27-2.49-3.96-3.29-.53-.25-1.09-.45-1.67-.62.04-.11.08-.21.12-.34.11-.31.22-.62.32-.94.11-.31.2-.56.27-.76l-3.53-.86c-.02.22-.06.49-.11.81-.05.32-.1.64-.16.94-.05.23-.1.43-.15.61-.35-.02-.69-.05-1.06-.05-1.25,0-2.56.13-3.94.4-.62.12-1.21.26-1.8.41.02-.31.03-.61.05-.92.08-1.05.17-2.05.28-3.02,1.36-.07,2.73-.15,4.12-.25,1.58-.12,3.12-.27,4.61-.45s2.87-.38,4.14-.59l-.04-3.35c-1.73.41-3.53.73-5.42.97-1.88.24-3.85.41-5.89.52-.37.02-.76.03-1.13.04.13-.88.27-1.67.41-2.37.05-.26.11-.55.2-.86.08-.31.16-.6.23-.86l-3.71-.11c0,.24,0,.54-.02.9-.01.36-.04.7-.09,1.01-.06.71-.15,1.51-.25,2.39-.66.01-1.31.02-1.98.02-.6,0-1.31-.02-2.12-.07-.82-.05-1.6-.11-2.36-.18s-1.35-.14-1.78-.22l.11,3.35c.53.02,1.16.05,1.89.09.73.04,1.47.07,2.21.11s1.39.05,1.94.05,1.15,0,1.75-.02c-.03.27-.05.52-.08.8-.11,1.21-.2,2.45-.27,3.73,0,.14,0,.27-.01.41-.96.45-1.88.98-2.76,1.6-1.22.86-2.3,1.85-3.22,2.95-.92,1.1-1.65,2.27-2.18,3.49-.53,1.22-.79,2.46-.79,3.71,0,1.1.2,2.02.61,2.74s.96,1.25,1.66,1.58c.7.34,1.45.5,2.27.5,1.39,0,2.8-.31,4.23-.94.57-.25,1.11-.54,1.64-.83.17.65.35,1.25.54,1.8l3.28-.97c-.3-.91-.57-1.87-.84-2.86.96-.8,1.91-1.75,2.84-2.84,1.16-1.38,2.24-2.98,3.24-4.79.63-1.15,1.2-2.4,1.71-3.71.33.11.65.23.95.38,1.19.58,2.09,1.33,2.7,2.25.61.92.92,1.95.92,3.08,0,1.37-.39,2.64-1.17,3.82-.78,1.18-1.93,2.16-3.44,2.95-1.51.79-3.38,1.31-5.62,1.55l1.94,2.99c2.14-.34,3.95-.86,5.45-1.58s2.72-1.58,3.65-2.57c.94-1,1.61-2.09,2.03-3.28.42-1.19.63-2.43.63-3.73,0-1.75-.47-3.32-1.42-4.72ZM61.92,38.18c-1.13.53-2.12.79-2.99.79-.62,0-1.1-.17-1.42-.5-.32-.34-.49-.84-.49-1.51,0-.98.3-2.02.9-3.1.6-1.08,1.42-2.09,2.45-3.04.65-.6,1.37-1.12,2.13-1.57,0,1.6.1,3.19.29,4.79.14,1.17.32,2.27.53,3.35-.46.3-.93.57-1.39.79ZM69.46,31.05c-1.02,1.49-2.11,2.79-3.25,3.93-.08-.49-.17-.97-.24-1.48-.2-1.51-.31-3.12-.31-4.82,0-.28.01-.57.02-.86.45-.16.93-.31,1.44-.46,1.28-.37,2.71-.56,4.27-.56.09,0,.16,0,.25.01-.62,1.59-1.33,3.02-2.17,4.24Z"/><path class="cls-1" d="M94.6,16.91c-.07.34-.13.74-.18,1.22s-.09.96-.13,1.44c-.04.48-.05.89-.05,1.22,0,.74,0,1.57.02,2.48.01.91.03,1.84.05,2.79.02.95.08,1.89.18,2.83.19,1.9.48,3.55.86,4.97.38,1.42.88,2.52,1.48,3.31s1.3,1.19,2.09,1.19c.46,0,.89-.22,1.3-.65.41-.43.79-1.01,1.15-1.73.36-.72.69-1.51.99-2.36.3-.85.56-1.67.77-2.47l2.84,3.35c-.77,2.04-1.53,3.67-2.29,4.88s-1.53,2.08-2.32,2.61c-.79.53-1.63.79-2.52.79-1.2,0-2.35-.41-3.44-1.24-1.09-.83-2.03-2.19-2.83-4.09-.79-1.9-1.36-4.43-1.69-7.6-.12-1.06-.21-2.2-.27-3.42-.06-1.22-.1-2.39-.11-3.49-.01-1.1-.02-2.02-.02-2.74,0-.46-.02-1.01-.05-1.67-.04-.66-.11-1.23-.23-1.71l4.39.07ZM113.04,17.81c.65.84,1.28,1.82,1.89,2.93.61,1.12,1.17,2.32,1.67,3.62.5,1.3.95,2.62,1.35,3.96.4,1.34.73,2.68.99,4,.26,1.32.44,2.57.54,3.74l-3.71,1.44c-.14-1.56-.38-3.19-.72-4.9-.34-1.7-.77-3.39-1.3-5.06-.53-1.67-1.15-3.24-1.85-4.72s-1.52-2.75-2.43-3.83l3.56-1.19Z"/><path class="cls-1" d="M147.38,30.41c0-.94-.23-1.76-.7-2.48-.47-.72-1.13-1.29-2-1.71-.86-.42-1.88-.63-3.06-.63-1.37,0-2.66.11-3.87.32-1.21.22-2.31.47-3.29.76s-1.81.53-2.48.72c-.53.14-1.08.32-1.66.54-.58.22-1.09.42-1.55.61l-1.12-4.1c.55-.05,1.15-.13,1.78-.23.64-.11,1.23-.22,1.78-.34.89-.22,1.9-.45,3.04-.7,1.14-.25,2.38-.48,3.71-.68,1.33-.2,2.69-.31,4.09-.31,1.8,0,3.4.32,4.79.97s2.48,1.6,3.28,2.84c.79,1.25,1.19,2.77,1.19,4.57,0,1.94-.41,3.68-1.24,5.22-.83,1.54-1.99,2.87-3.49,4.01-1.5,1.14-3.27,2.08-5.31,2.83-2.04.74-4.26,1.3-6.66,1.66l-2.05-3.49c2.21-.26,4.22-.67,6.03-1.22,1.81-.55,3.38-1.25,4.7-2.09,1.32-.84,2.33-1.85,3.04-3.02.71-1.18,1.06-2.52,1.06-4.03ZM132.66,13.7c1.03.22,2.25.43,3.65.63,1.4.2,2.86.38,4.37.52,1.51.14,2.94.26,4.28.36,1.34.1,2.47.14,3.38.14l-.58,3.49c-1.01-.07-2.2-.16-3.56-.27-1.37-.11-2.79-.24-4.27-.4-1.48-.16-2.89-.32-4.25-.5-1.36-.18-2.55-.35-3.58-.52l.54-3.46Z"/><path class="cls-1" d="M184.6,24.32c-.38.29-.77.59-1.15.9-.38.31-.71.59-.97.83-.38.34-.88.77-1.48,1.31s-1.22,1.12-1.87,1.73c-.65.61-1.25,1.18-1.8,1.69-.55.52-.96.93-1.22,1.24.17-.02.39-.02.67.02.28.04.51.09.7.16.62.1,1.13.36,1.53.79.4.43.71,1.01.95,1.73.12.31.25.69.38,1.13.13.44.26.89.4,1.33.13.44.26.85.38,1.21.19.62.51,1.09.95,1.4.44.31,1.07.47,1.89.47.86,0,1.72-.03,2.56-.09.84-.06,1.63-.15,2.38-.27.74-.12,1.4-.24,1.98-.36l-.22,3.78c-.5.07-1.18.15-2.02.23-.84.08-1.71.16-2.59.22-.89.06-1.64.09-2.27.09-1.56,0-2.81-.22-3.74-.67-.94-.44-1.61-1.25-2.02-2.43-.12-.36-.25-.79-.4-1.28-.14-.49-.28-.98-.41-1.48-.13-.49-.25-.89-.34-1.21-.22-.65-.5-1.12-.86-1.42-.36-.3-.77-.45-1.22-.45-.43,0-.86.13-1.28.38s-.83.58-1.24.99c-.26.26-.6.61-1.01,1.03-.41.42-.86.9-1.35,1.44-.49.54-1,1.1-1.53,1.69-.53.59-1.06,1.19-1.58,1.8-.53.61-1.01,1.21-1.44,1.78l-3.42-2.38c.26-.24.58-.52.95-.83.37-.31.76-.66,1.17-1.04.26-.29.71-.74,1.33-1.37.62-.62,1.36-1.36,2.2-2.2.84-.84,1.73-1.74,2.68-2.7.95-.96,1.9-1.91,2.84-2.84.95-.94,1.83-1.82,2.65-2.65.82-.83,1.51-1.54,2.09-2.14-.53.02-1.15.06-1.87.11-.72.05-1.47.1-2.25.16-.78.06-1.55.13-2.3.2-.76.07-1.45.13-2.09.18-.64.05-1.18.1-1.64.14-.6.02-1.15.07-1.64.14-.49.07-.94.14-1.35.22l-.32-3.96c.41.02.89.05,1.46.07.56.02,1.16.04,1.78.04.38-.02.98-.05,1.8-.09.82-.04,1.75-.08,2.79-.14,1.04-.06,2.1-.13,3.17-.2,1.07-.07,2.07-.14,3.01-.22.94-.07,1.69-.14,2.27-.22.31-.05.65-.11,1.03-.18.37-.07.64-.14.81-.22l2.12,2.38ZM169.23,13.56c.98.19,2.12.38,3.4.58,1.28.19,2.6.37,3.96.54,1.36.17,2.65.31,3.89.43,1.24.12,2.3.2,3.19.25l-.47,3.35c-.94-.07-2.01-.17-3.22-.31-1.21-.13-2.48-.28-3.8-.45-1.32-.17-2.63-.35-3.92-.54-1.3-.19-2.5-.38-3.6-.58l.58-3.28Z"/><path class="cls-1" d="M226.06,20.78c-1-.64-2.04-1.27-3.13-1.91s-2.08-1.17-2.97-1.6l-1.58,2.74c.58.29,1.24.65,2,1.1.76.44,1.54.92,2.34,1.42.8.5,1.56,1,2.27,1.48.71.48,1.28.92,1.71,1.33l1.76-2.88c-.6-.48-1.4-1.04-2.39-1.67Z"/><path class="cls-1" d="M220.93,27.92c-1.42-.6-3.02-.9-4.82-.9-1.39,0-2.94.16-4.64.47-.96.18-1.9.41-2.84.67,0-.43,0-.86,0-1.25,0-.91,0-1.87.02-2.86,0-.43.02-.87.03-1.3.18-.02.36-.04.54-.07,1.19-.16,2.36-.33,3.53-.52s2.23-.4,3.19-.61l-.07-3.53c-.91.26-1.93.51-3.04.74-1.12.23-2.26.41-3.42.56-.21.03-.41.04-.62.06.01-.37.03-.74.04-1.09.04-.85.07-1.59.09-2.21.02-.29.05-.61.09-.95s.07-.68.09-1.01c.02-.32.06-.59.11-.81h-3.96c.05.22.08.5.11.85.02.35.05.7.07,1.06.02.36.04.67.04.94,0,.36,0,.94-.02,1.73,0,.55-.02,1.17-.03,1.84-.9.07-1.74.11-2.48.11-.67,0-1.38-.02-2.12-.05-.75-.04-1.63-.11-2.66-.23l.11,3.46c.6.05,1.27.09,2.02.13.74.04,1.66.05,2.74.05.69,0,1.49-.04,2.37-.1,0,.25,0,.5,0,.76-.01,1.12-.02,2.19-.02,3.22,0,.73,0,1.48.01,2.24-1.16.5-2.26,1.1-3.32,1.79-1.39.91-2.51,1.91-3.37,3.01-.85,1.09-1.28,2.19-1.28,3.29,0,.86.26,1.68.79,2.45.53.77,1.2,1.44,2.02,2.02.82.58,1.68,1.03,2.59,1.37s1.75.5,2.52.5c.72,0,1.34-.14,1.85-.43.52-.29.92-.79,1.22-1.51.3-.72.45-1.72.45-2.99,0-.55-.01-1.3-.04-2.25-.02-.95-.05-1.98-.07-3.1-.01-.68-.03-1.38-.04-2.07.91-.29,1.82-.54,2.74-.74,1.54-.32,3.08-.49,4.64-.49,1.1,0,2.09.17,2.95.5.86.34,1.55.82,2.05,1.46s.76,1.42.76,2.36c0,1.01-.26,1.87-.77,2.57-.52.71-1.21,1.27-2.07,1.69s-1.8.73-2.81.92c-.67.14-1.38.23-2.12.25s-1.48.02-2.2,0l1.3,3.67c.67-.05,1.4-.11,2.18-.18.78-.07,1.58-.19,2.39-.36,1.75-.43,3.2-1.04,4.36-1.84,1.15-.79,2.01-1.75,2.57-2.88.56-1.13.85-2.4.85-3.82,0-1.54-.41-2.87-1.22-4-.82-1.13-1.93-1.99-3.35-2.59ZM205.18,39.5c-.23.25-.52.38-.88.38-.31,0-.66-.07-1.04-.22-.38-.14-.75-.34-1.1-.58-.35-.24-.64-.52-.88-.85-.24-.32-.36-.67-.36-1.03,0-.58.26-1.18.79-1.82.53-.64,1.25-1.25,2.16-1.85.48-.32,1-.61,1.54-.88.02.96.04,1.88.06,2.72.04,1.22.05,2.17.05,2.84,0,.6-.11,1.03-.34,1.28Z"/></g></svg>