<?xml version="1.0" encoding="UTF-8"?><svg id="_レイヤー_2" xmlns="http://www.w3.org/2000/svg" viewBox="0 0 280 56"><defs><style>.cls-1{fill:#333;}.cls-1,.cls-2,.cls-3{stroke-width:0px;}.cls-2{fill:#fff;}.cls-3{fill:#e3e3e3;}</style></defs><g id="_ガイド"><path class="cls-2" d="M28,55c-14.89,0-27-12.11-27-27S13.11,1,28,1h224c14.89,0,27,12.11,27,27s-12.11,27-27,27H28Z"/><path class="cls-3" d="M252,2c14.34,0,26,11.66,26,26s-11.66,26-26,26H28c-14.34,0-26-11.66-26-26S13.66,2,28,2h224M252,0H28C12.54,0,0,12.54,0,28s12.54,28,28,28h224c15.46,0,28-12.54,28-28S267.46,0,252,0h0Z"/><path class="cls-1" d="M70.23,22.5c1.3.32,2.41.72,3.13,1.48.36.4.47.79.36,1.3,5.51.65,8.67,4.61,8.67,8.75,0,7.02-7.16,10.11-16.81,10.29l-.14-.76c8.96-1.33,14.04-4.86,14.04-10.26,0-3.46-2.3-6.3-6.19-6.91-1.19,2.92-3.78,6.62-6.66,9.65.43,1.01.83,1.76.83,2.56s-.54,1.15-1.26,1.15-1.3-.65-1.73-1.62c-2.63,2.2-5.29,3.35-7.45,3.35-1.69,0-2.66-.97-2.66-2.92,0-4.75,4.57-9.07,8.96-11.3.14-1.62.4-3.35.65-4.97-1.08.14-2.23.22-3.31.22-2.52,0-3.78-.97-5.15-3.46l.54-.5c1.87,1.44,3.1,1.8,4.97,1.8,1.12,0,2.2-.07,3.28-.22.22-1.51.4-2.74.4-3.38s-.14-.83-.68-1.01c-.61-.22-1.33-.36-2.09-.47l.04-.68c.65-.22,1.48-.47,2.02-.47,2.09,0,4.1,1.22,4.1,1.98s-.76,1.01-1.04,2.3c-.11.4-.22.83-.36,1.33,4.72-1.01,7.16-2.63,7.78-2.63,1.4,0,2.2.47,2.2,1.22,0,.54-.29.9-1.01,1.19-1.55.68-5.58,1.84-9.47,2.45-.29,1.4-.54,2.92-.72,4.36,1.76-.65,3.92-1.08,6.16-1.15.07-.86-.47-1.37-1.73-2.12l.36-.54ZM63.75,35.99c-.4-1.76-.61-3.85-.61-5.76,0-.43,0-.86.04-1.33-4,2.52-6.52,6.23-6.52,8.64,0,.94.32,1.3,1.15,1.3,1.69,0,4-1.26,5.94-2.84ZM65.84,34.05c2.2-2.34,4.46-5.51,5.4-7.77-2.05.07-3.92.54-5.97,1.48-.04.68-.07,1.3-.07,1.87,0,1.87.29,3.28.65,4.43Z"/><path class="cls-1" d="M91.65,23.25c0-1.98-.43-3.02-2.81-4.79l.29-.5c.9.11,1.8.22,2.59.54,1.44.65,3.42,2.38,3.42,3.92,0,1.66-1.44,3.85-1.44,7.77,0,4.14,1.94,6.37,3.38,7.09.54.25.97.18,1.3-.29,1.15-1.69,2.41-4.25,3.49-6.52l.9.4c-.83,2.48-1.91,5.51-2.05,6.66-.25,1.76.32,1.87.32,2.77,0,1.15-1.19,1.8-2.88,1.12-2.84-1.22-6.44-4.39-6.66-10.98-.11-2.66.14-5.33.14-7.2ZM108.46,22.17l.25-.79c3.53.5,5.36,1.76,7.16,3.53,2.09,2.09,3.13,5.51,3.13,8.03,0,1.66-.58,2.45-1.73,2.45-.65,0-1.19-.43-1.37-1.3-.29-1.55-.47-4.32-1.83-7.02-1.15-2.27-3.1-3.89-5.62-4.9Z"/><path class="cls-1" d="M130.6,23.76c.5,1.33,1.22,2.23,2.05,2.23,1.73,0,6.3-2.84,10.15-2.84s6.55,3.06,6.55,7.96c0,8.1-6.26,12.53-16.38,13.97l-.25-.83c8.67-2.2,13.53-6.44,13.53-13.57,0-3.78-1.51-5.98-3.74-5.98s-5.58,2.2-6.98,3.24c-.76.58-1.51,1.4-2.45,1.4-1.3,0-2.74-1.55-3.13-2.63-.32-.86-.18-1.76,0-2.77l.65-.18ZM133.27,13.93l.4-.5c2.45,1.69,4.71,1.98,6.73,1.98,1.26,0,2.41-.32,3.02-.32,1.44,0,3.17.76,3.17,1.84,0,.54-.47.9-1.37.9-.68.04-1.8.11-2.81.36-1.94.47-5,1.69-6.77,2.38l-.32-.65c1.51-.86,3.24-1.84,4.25-2.52-1.3-.22-4.28-.58-6.3-3.46Z"/><path class="cls-1" d="M166.28,23.11c.58,1.15,1.3,1.94,2.09,1.94,1.48,0,7.52-1.44,9.65-2.05.9-.25,1.19-.79,1.76-.79,1.12,0,3.56,1.44,3.56,2.63,0,.72-1.26,1.08-2.52,1.98-1.51,1.08-5.15,4.28-7.13,6.23.72-.18,1.58-.25,2.23-.25,1.33,0,2.52.72,2.95,2.09.36,1.19.76,2.7,1.04,3.82.47,1.69,1.04,2.3,2.59,2.3,3.96,0,4.57-.76,5.9-.76,1.51,0,2.48.61,2.48,1.58,0,1.58-4.46,1.94-7.49,1.94-3.96,0-5.15-.97-5.69-3.85-.25-1.22-.5-2.74-.76-4.03-.25-1.04-.79-1.73-1.91-1.73s-2.23.5-3.28,1.48c-2.23,1.91-4.28,4.86-5.69,6.59-.5.68-1.04,1.12-1.76,1.12s-1.33-.5-1.33-1.33c0-1.37.76-2.05,1.8-3.06,1.48-1.4,4.46-4.1,6.26-5.87,2.74-2.59,6.12-5.98,7.6-7.67.58-.65.25-1.04-.58-.83-1.44.36-4.68,1.4-6.62,2.34-1.04.54-1.48,1.15-2.23,1.15-1.66,0-3.1-1.48-3.49-2.63-.22-.68-.14-1.4,0-2.2l.54-.14ZM169.81,13.82l.5-.5c2.34,1.62,4.43,2.41,6.66,2.48,1.15.04,1.69-.25,2.3-.25,1.26,0,2.74.94,2.74,2.16,0,.54-.4,1.04-1.37,1.04-.86,0-1.55-.04-2.48,0-1.58.14-4.68,1.12-6.19,1.58l-.29-.76c1.44-.61,3.17-1.37,4.25-1.87-1.26-.32-4-1.04-6.12-3.89Z"/><path class="cls-1" d="M208.36,31.35c2.99-1.48,6.16-2.59,9.72-2.59,4.32,0,7.38,2.59,7.38,6.8,0,3.67-2.84,6.8-7.49,6.8-2.77,0-5.08-1.37-6.84-4l.58-.54c1.37,1.19,3.17,2.16,5.62,2.16,3.42,0,5.4-2.2,5.4-5.08,0-2.63-1.62-4.75-5.47-4.75-2.84,0-6.05,1.48-8.85,3.06.14,5,.58,6.3.58,7.63,0,1.66-1.08,3.49-2.3,3.49-.94,0-.97-1.19-2.12-2.27-.83-.79-2.41-1.94-3.71-2.81-1.04,1.01-1.48,1.48-2.05,1.48-.47,0-.86-.29-1.26-.68-.54-.54-.76-1.12-.76-1.76,0-.97.22-1.26,1.08-1.19.97.11,1.44-.07,2.12-.47,1.22-.72,4-2.88,6.48-4.28v-6.59c-1.3.29-2.88.61-3.92.61-1.91,0-3.49-.47-4.86-3.92l.58-.43c1.8,1.73,2.41,2.12,4.25,2.05,1.08-.04,2.52-.32,3.96-.72,0-2.52.04-4.79,0-5.65-.04-.9-.22-1.04-.79-1.26-.61-.22-1.37-.25-2.34-.29l-.11-.65c.83-.5,1.73-.83,2.77-.83,1.48,0,3.92,1.19,3.92,2.12,0,.86-.54,1.44-.79,2.59-.18.72-.32,1.87-.43,3.24,2.52-.97,3.64-2.05,4.32-2.05.58-.04,1.98.07,2.02,1.15,0,.61-.43,1.08-1.22,1.48-1.3.65-3.56,1.44-5.29,1.98-.11,1.58-.14,3.2-.14,4.75v1.4ZM206.46,34.41c-1.66,1.19-3.46,2.81-4.9,4.14,1.3.65,2.84,1.37,3.85,1.8.79.29,1.04.04,1.04-.68v-5.26ZM217.36,19.36c1.69-.43,3.24-.61,4.9-.32,2.99.5,5.58,2.95,5.65,5.33.04.83-.32,1.55-1.19,1.62-.83.14-1.3-.9-2.41-.72-.65.07-2.09.68-2.84,1.01l-.4-.58c.72-.47,2.38-1.51,2.84-1.98.43-.47.47-.79.07-1.37-1.33-1.94-4.1-2.3-6.55-2.16l-.07-.83Z"/></g></svg>