<?xml version="1.0" encoding="UTF-8"?><svg id="_レイヤー_2" xmlns="http://www.w3.org/2000/svg" viewBox="0 0 128 88"><defs><style>.cls-1{fill:none;stroke:#333;stroke-linecap:round;stroke-linejoin:round;stroke-width:4px;}.cls-2{fill:#333;}.cls-2,.cls-3,.cls-4{stroke-width:0px;}.cls-3{fill:#fff;}.cls-4{fill:#e3e3e3;}</style></defs><g id="_ガイド"><rect class="cls-3" x="1" y="1" width="126" height="86" rx="7" ry="7"/><path class="cls-4" d="M120,2c3.31,0,6,2.69,6,6v72c0,3.31-2.69,6-6,6H8c-3.31,0-6-2.69-6-6V8c0-3.31,2.69-6,6-6h112M120,0H8C3.58,0,0,3.58,0,8v72c0,4.42,3.58,8,8,8h112c4.42,0,8-3.58,8-8V8c0-4.42-3.58-8-8-8h0Z"/><path class="cls-2" d="M46.7,15.53c-.05.35-.1.77-.14,1.26-.04.49-.08,1.01-.12,1.56-.04.55-.06,1.05-.06,1.5-.03.91-.03,1.97-.02,3.2.01,1.23.02,2.48.02,3.76,0,1.09.03,2.38.1,3.86.07,1.48.14,3,.22,4.56s.15,3.01.22,4.36c.07,1.35.1,2.45.1,3.3s-.13,1.67-.4,2.44c-.27.77-.7,1.46-1.3,2.06-.6.6-1.41,1.07-2.42,1.42-1.01.35-2.25.52-3.72.52-1.87,0-3.55-.22-5.06-.66-1.51-.44-2.7-1.15-3.58-2.14-.88-.99-1.32-2.29-1.32-3.92,0-1.31.38-2.48,1.14-3.52.76-1.04,1.91-1.87,3.46-2.5,1.55-.63,3.49-.94,5.84-.94,2.03,0,3.99.23,5.88.68,1.89.45,3.68,1.06,5.36,1.82,1.68.76,3.21,1.61,4.6,2.54,1.39.93,2.59,1.87,3.6,2.8l-2.4,3.76c-.99-.99-2.12-1.96-3.4-2.92-1.28-.96-2.68-1.83-4.2-2.62-1.52-.79-3.12-1.41-4.8-1.86-1.68-.45-3.4-.68-5.16-.68-1.87,0-3.31.29-4.32.88-1.01.59-1.52,1.39-1.52,2.4s.5,1.81,1.5,2.32c1,.51,2.34.76,4.02.76,1.39,0,2.4-.32,3.04-.96.64-.64.96-1.65.96-3.04,0-.69-.03-1.66-.08-2.9-.05-1.24-.11-2.59-.16-4.04-.05-1.45-.11-2.87-.16-4.24-.05-1.37-.08-2.55-.08-3.54,0-.8,0-1.63-.02-2.48-.01-.85-.02-1.67-.02-2.46v-2.02c-.03-.59-.05-1.15-.08-1.7-.03-.55-.07-1.05-.12-1.5-.05-.45-.12-.83-.2-1.12h4.8ZM44.18,23.41c.64,0,1.51,0,2.6-.02,1.09-.01,2.29-.05,3.58-.12,1.29-.07,2.6-.14,3.92-.22,1.32-.08,2.53-.19,3.62-.32l.16,3.76c-1.09.11-2.31.2-3.64.28-1.33.08-2.65.15-3.94.2-1.29.05-2.49.1-3.6.14-1.11.04-1.99.06-2.66.06l-.04-3.76Z"/><path class="cls-2" d="M76.02,35.21c-.24.75-.43,1.48-.56,2.2-.13.72-.2,1.43-.2,2.12,0,1.41.73,2.57,2.18,3.48,1.45.91,3.7,1.36,6.74,1.36,1.84,0,3.61-.07,5.3-.2,1.69-.13,3.27-.32,4.74-.56,1.47-.24,2.73-.52,3.8-.84l.04,4.4c-1.04.27-2.27.51-3.7.72-1.43.21-2.99.38-4.68.5-1.69.12-3.47.18-5.34.18-2.85,0-5.27-.31-7.24-.94-1.97-.63-3.47-1.54-4.48-2.74-1.01-1.2-1.52-2.67-1.52-4.4,0-1.09.09-2.11.28-3.06.19-.95.36-1.81.52-2.58l4.12.36ZM73.62,18.73c1.47.19,3.11.32,4.94.4,1.83.08,3.75.12,5.78.12,1.31,0,2.63-.03,3.96-.08,1.33-.05,2.62-.13,3.86-.22,1.24-.09,2.35-.18,3.34-.26v4.16c-.91.08-1.99.16-3.26.24-1.27.08-2.58.14-3.94.18-1.36.04-2.67.06-3.92.06-2.05,0-3.96-.05-5.72-.14-1.76-.09-3.44-.19-5.04-.3v-4.16Z"/><line class="cls-1" x1="41" y1="69.74" x2="91" y2="69.74"/><polyline class="cls-1" points="83 77.74 91 69.74 83 61.74"/></g></svg>