<?xml version="1.0" encoding="UTF-8"?><svg id="_レイヤー_2" xmlns="http://www.w3.org/2000/svg" viewBox="0 0 128 88"><defs><style>.cls-1{fill:none;stroke:#333;stroke-linecap:round;stroke-linejoin:round;stroke-width:4px;}.cls-2{fill:#333;}.cls-2,.cls-3,.cls-4{stroke-width:0px;}.cls-3{fill:#fff;}.cls-4{fill:#e3e3e3;}</style></defs><g id="_ガイド"><rect class="cls-3" x="1" y="1" width="126" height="86" rx="7" ry="7"/><path class="cls-4" d="M120,2c3.31,0,6,2.69,6,6v72c0,3.31-2.69,6-6,6H8c-3.31,0-6-2.69-6-6V8c0-3.31,2.69-6,6-6h112M120,0H8C3.58,0,0,3.58,0,8v72c0,4.42,3.58,8,8,8h112c4.42,0,8-3.58,8-8V8c0-4.42-3.58-8-8-8h0Z"/><path class="cls-2" d="M48.76,13.32c1.49,0,3.1-.08,4.82-.24,1.72-.16,3.45-.38,5.2-.66,1.75-.28,3.45-.62,5.1-1.02v3.88c-1.6.37-3.3.69-5.1.96-1.8.27-3.57.47-5.32.62-1.75.15-3.34.22-4.78.22-.88,0-1.7-.02-2.46-.06-.76-.04-1.49-.07-2.18-.1l-.12-3.92c.99.11,1.85.19,2.58.24.73.05,1.49.08,2.26.08ZM58.04,7.08c-.13.45-.27,1.03-.42,1.72-.15.69-.26,1.23-.34,1.6-.19.93-.41,2.03-.66,3.3-.25,1.27-.54,2.59-.86,3.98-.32,1.39-.65,2.75-1,4.08-.35,1.36-.77,2.85-1.26,4.48-.49,1.63-1.02,3.27-1.58,4.92-.56,1.65-1.13,3.23-1.7,4.72-.57,1.49-1.11,2.79-1.62,3.88l-4.4-1.44c.61-1.01,1.23-2.23,1.86-3.66.63-1.43,1.24-2.95,1.84-4.58.6-1.63,1.16-3.25,1.68-4.88s.97-3.12,1.34-4.48c.24-.91.47-1.86.7-2.86.23-1,.44-1.98.64-2.94.2-.96.37-1.85.52-2.66.15-.81.26-1.49.34-2.02.08-.64.13-1.29.16-1.94.03-.65.03-1.19,0-1.62l4.76.4ZM62.52,28.64c-.16.61-.29,1.22-.4,1.82-.11.6-.16,1.14-.16,1.62,0,.43.09.85.26,1.26.17.41.47.77.9,1.08.43.31,1.04.55,1.84.74s1.81.28,3.04.28c1.31,0,2.63-.07,3.96-.22,1.33-.15,2.64-.34,3.92-.58l-.16,4c-1.07.16-2.25.29-3.54.4-1.29.11-2.7.16-4.22.16-3.17,0-5.61-.51-7.3-1.54-1.69-1.03-2.54-2.51-2.54-4.46,0-.83.07-1.65.2-2.46.13-.81.28-1.62.44-2.42l3.76.32ZM61.08,18.96c1.07-.11,2.25-.19,3.54-.26,1.29-.07,2.55-.1,3.78-.1,1.15,0,2.3.03,3.46.08,1.16.05,2.3.13,3.42.24l-.12,3.8c-.99-.13-2.05-.25-3.2-.34-1.15-.09-2.31-.14-3.48-.14-1.25,0-2.49.03-3.72.1-1.23.07-2.45.17-3.68.3v-3.68Z"/><path class="cls-2" d="M43.28,49.72c.75-.03,1.45-.06,2.1-.1.65-.04,1.17-.07,1.54-.1.59-.05,1.33-.12,2.24-.2.91-.08,1.93-.17,3.08-.28,1.15-.11,2.37-.22,3.68-.34,1.31-.12,2.65-.25,4.02-.38,1.37-.13,2.73-.25,4.06-.36,1.41-.11,2.79-.21,4.12-.3,1.33-.09,2.59-.17,3.76-.24,1.17-.07,2.2-.11,3.08-.14l.04,4c-.72,0-1.55.01-2.5.04-.95.03-1.89.07-2.82.14-.93.07-1.75.21-2.44.42-1.31.37-2.5.97-3.58,1.8s-2.01,1.79-2.8,2.9c-.79,1.11-1.4,2.27-1.84,3.5s-.66,2.41-.66,3.56c0,1.44.25,2.69.76,3.74.51,1.05,1.19,1.95,2.06,2.7.87.75,1.87,1.35,3,1.82,1.13.47,2.34.82,3.62,1.06,1.28.24,2.57.39,3.88.44l-1.44,4.28c-1.55-.08-3.08-.31-4.6-.7-1.52-.39-2.96-.93-4.32-1.64-1.36-.71-2.57-1.57-3.62-2.6-1.05-1.03-1.88-2.23-2.48-3.6-.6-1.37-.9-2.93-.9-4.66,0-1.47.2-2.86.6-4.18.4-1.32.93-2.53,1.6-3.62.67-1.09,1.41-2.06,2.22-2.9.81-.84,1.62-1.51,2.42-2.02-.8.05-1.77.15-2.92.28-1.15.13-2.38.27-3.7.42-1.32.15-2.65.31-3.98.48-1.33.17-2.59.35-3.76.54-1.17.19-2.2.39-3.08.6l-.44-4.36Z"/><line class="cls-1" x1="92.05" y1="20" x2="92.05" y2="72"/><polyline class="cls-1" points="84.05 64 92.05 72 100.05 64"/></g></svg>