<svg class="svg-icon" style="width: 1em; height: 1em;vertical-align: middle;fill: currentColor;overflow: hidden;" viewBox="0 0 1024 1024" version="1.1" xmlns="http://www.w3.org/2000/svg"><path d="M845.216 265.632l-23.488 0c61.32 70.84 98.552 163.064 98.552 263.896 0 222.632-181.136 403.776-403.776 403.776-222.64 0-403.768-181.144-403.768-403.776 0-222.64 181.136-403.776 403.768-403.776 17.592 0 34.888 1.248 51.888 3.448l0-18.16c-17.016-2.104-34.304-3.312-51.888-3.312-232.576 0-421.784 189.208-421.784 421.792 0 232.584 189.2 421.784 421.784 421.784s421.784-189.192 421.784-421.784C938.296 429.704 903.376 337.944 845.216 265.632zM378.992 493.296l40.496-194.192-13.856 0c-3.152 5.016-6.504 9.28-10.016 12.8-5.808 5.72-14.496 12.4-26.056 20.048-11.568 7.664-23.288 13.856-35.152 18.608l-4.488 21.632c23.92-6.24 42.48-14.544 55.664-24.928l-30.6 146.04L378.992 493.304zM520.464 303.136c-6.192 2.68-12.504 6.872-18.912 12.592-6.424 5.72-12.632 13.632-18.608 23.744-5.984 10.112-11.408 23.616-16.304 40.504-4.88 16.88-7.32 33.504-7.32 49.872 0 21.72 4.992 38.28 14.968 49.656 9.984 11.408 22.24 17.088 36.752 17.088 14.168 0 26.784-4.712 37.856-14.12 14.424-12.4 25.688-31 33.76-55.8 6.864-20.936 10.312-42.088 10.312-63.464 0-20.752-4.96-36.632-14.832-47.624-9.912-10.992-22.24-16.496-37.016-16.496C533.56 299.104 526.68 300.448 520.464 303.136zM562.296 327.48c5.312 6.144 7.984 16.176 7.984 30.064 0 14.424-2.752 33.008-8.232 55.736-5.528 22.744-13.712 40-24.608 51.784-7.568 8.36-15.976 12.528-25.216 12.528-10.552 0-18.504-4.616-23.872-13.848-3.96-6.688-5.936-15.96-5.936-27.832 0-11.608 2.24-26.92 6.728-45.912 5.288-22.248 11.48-38.968 18.6-50.128 5.016-7.92 10.264-13.504 15.784-16.752 5.48-3.256 11.392-4.888 17.736-4.888C549.944 318.232 556.96 321.32 562.296 327.48zM661.312 496.6c14.152 0 26.784-4.712 37.848-14.12 14.424-12.4 25.672-31 33.776-55.8 6.872-20.936 10.288-42.088 10.288-63.464 0-20.752-4.936-36.632-14.84-47.624-9.872-10.992-22.216-16.496-37-16.496-7.56 0-14.464 1.344-20.624 4.032-6.224 2.68-12.52 6.872-18.944 12.592-6.432 5.72-12.624 13.632-18.608 23.744s-11.424 23.616-16.296 40.504c-4.88 16.88-7.312 33.504-7.312 49.872 0 21.72 4.968 38.28 14.968 49.656C634.536 490.912 646.8 496.6 661.312 496.6zM639.4 390c5.272-22.248 11.48-38.968 18.6-50.128 5.024-7.92 10.288-13.504 15.768-16.752 5.496-3.256 11.424-4.888 17.752-4.888 8.712 0 15.704 3.088 21.032 9.248 5.32 6.144 8.016 16.176 8.016 30.064 0 14.424-2.784 33.008-8.272 55.736-5.496 22.744-13.704 40-24.592 51.784-7.56 8.36-15.976 12.528-25.2 12.528-10.568 0-18.52-4.616-23.88-13.848-3.952-6.688-5.928-15.96-5.928-27.832C632.68 424.304 634.92 409 639.4 390zM546.616 701.928c-6.728 9.312-10.104 20.704-10.104 34.176 0 16.96 3.776 29.656 11.304 38.152 7.544 8.48 16.992 12.728 28.312 12.728 11.504 0 21.16-4.288 28.944-12.856 7.8-8.56 11.696-20.776 11.696-36.592 0-16.296-3.84-28.616-11.576-37.032-7.688-8.368-17.432-12.568-29.192-12.568C563.144 687.928 553.336 692.584 546.616 701.928zM590.96 711.144c3.84 4.88 5.76 13.376 5.76 25.488 0 13.136-1.896 22.16-5.696 27.08-3.8 4.952-8.64 7.416-14.512 7.416-5.6 0-10.352-2.464-14.168-7.416-3.824-4.92-5.752-13.376-5.752-25.296 0-13.208 1.896-22.272 5.672-27.216 3.816-4.944 8.592-7.408 14.392-7.408C582.344 703.784 587.12 706.224 590.96 711.144zM576.648 589.512 557.992 589.512 455.504 786.984 474.544 786.984ZM454.992 688.576c11.416 0 21.024-4.272 28.816-12.84 7.808-8.568 11.696-20.792 11.696-36.608 0-16.28-3.856-28.6-11.568-37.016-7.696-8.4-17.44-12.592-29.192-12.592-12.784 0-22.544 4.704-29.264 14.08-6.728 9.36-10.104 20.728-10.104 34.104 0 17.056 3.776 29.784 11.312 38.232C434.224 684.368 443.656 688.576 454.992 688.576zM441.12 612.8c3.784-4.952 8.536-7.408 14.248-7.408 5.704 0 10.48 2.432 14.312 7.336 3.832 4.888 5.744 13.4 5.744 25.472 0 13.136-1.888 22.168-5.672 27.112-3.8 4.952-8.592 7.424-14.384 7.424-5.624 0-10.352-2.456-14.192-7.36-3.832-4.888-5.752-13.36-5.752-25.36C435.432 626.808 437.336 617.752 441.12 612.8z"  /></svg>