<?xml version="1.0" encoding="UTF-8"?><svg id="_レイヤー_2" xmlns="http://www.w3.org/2000/svg" viewBox="0 0 88 88"><defs><style>.cls-1{fill:#4577ff;}.cls-1,.cls-2{stroke-width:0px;}.cls-2{fill:#fff;}</style></defs><g id="_2"><circle class="cls-1" cx="44" cy="44" r="44"/><path class="cls-2" d="M64.19,66.09c-.34,0-.68-.05-1.02-.15l-19.17-5.82-19.17,5.82c-1.32.4-2.74,0-3.65-1.04-.91-1.03-1.12-2.5-.56-3.75l20.19-44.53c.57-1.25,1.81-2.05,3.19-2.05s2.62.8,3.19,2.05l20.19,44.53c.57,1.25.35,2.72-.56,3.75-.67.77-1.64,1.19-2.63,1.19ZM44,52.96c.34,0,.69.05,1.02.15l12.79,3.89-13.81-30.46-13.81,30.46,12.79-3.89c.33-.1.67-.15,1.02-.15Z"/></g></svg>