<?xml version="1.0" encoding="UTF-8"?><svg id="_レイヤー_2" xmlns="http://www.w3.org/2000/svg" viewBox="0 0 88 88"><defs><style>.cls-1{fill:#4577ff;}.cls-1,.cls-2{stroke-width:0px;}.cls-2{fill:#fff;}</style></defs><g id="_2"><circle class="cls-1" cx="44" cy="44" r="44"/><path class="cls-2" d="M23.81,65.76c-.99,0-1.96-.42-2.63-1.19-.91-1.03-1.12-2.5-.56-3.75l20.19-44.53c.57-1.25,1.81-2.05,3.19-2.05s2.62.8,3.19,2.05l11.36,25.05c.8,1.76.02,3.83-1.74,4.63-1.76.8-3.83.02-4.63-1.74l-8.17-18.02-13.81,30.46,12.79-3.89c1.85-.56,3.8.48,4.37,2.33.56,1.85-.48,3.8-2.33,4.37l-20.19,6.13c-.34.1-.68.15-1.02.15Z"/><path class="cls-2" d="M70.46,56.44h-5.76v-5.76c0-1.38-1.12-2.5-2.5-2.5s-2.5,1.12-2.5,2.5v5.76h-5.76c-1.38,0-2.5,1.12-2.5,2.5s1.12,2.5,2.5,2.5h5.76v5.76c0,1.38,1.12,2.5,2.5,2.5s2.5-1.12,2.5-2.5v-5.76h5.76c1.38,0,2.5-1.12,2.5-2.5s-1.12-2.5-2.5-2.5Z"/></g></svg>