<?xml version="1.0" encoding="UTF-8"?><svg id="_レイヤー_2" xmlns="http://www.w3.org/2000/svg" viewBox="0 0 72 72"><defs><style>.cls-1{fill:none;}.cls-1,.cls-2{stroke-width:0px;}.cls-2{fill:#4577ff;}</style></defs><g id="_2"><path class="cls-2" d="M61.03,53.28l-8.42-8.42c2.36-3.17,3.77-7.09,3.77-11.34,0-10.52-8.56-19.07-19.07-19.07s-19.07,8.56-19.07,19.07,8.56,19.07,19.07,19.07c4.47,0,8.57-1.55,11.83-4.14l8.36,8.36c.49.49,1.13.73,1.77.73s1.28-.24,1.77-.73c.98-.98.98-2.56,0-3.54ZM23.24,33.52c0-7.76,6.31-14.07,14.07-14.07s14.07,6.31,14.07,14.07-6.31,14.07-14.07,14.07-14.07-6.31-14.07-14.07Z"/><path class="cls-2" d="M44.99,31.02h-15.36c-1.38,0-2.5,1.12-2.5,2.5s1.12,2.5,2.5,2.5h15.36c1.38,0,2.5-1.12,2.5-2.5s-1.12-2.5-2.5-2.5Z"/><rect class="cls-1" width="72" height="72"/></g></svg>