<?xml version="1.0" encoding="UTF-8"?><svg id="_レイヤー_2" xmlns="http://www.w3.org/2000/svg" viewBox="0 0 64 64"><defs><style>.cls-1{fill:none;}.cls-1,.cls-2{stroke-width:0px;}.cls-2{fill:#4577ff;}</style></defs><g id="_2"><rect class="cls-1" width="64" height="64"/><path class="cls-2" d="M32,60.13H5.92c-.96,0-1.83-.55-2.25-1.41-.42-.86-.3-1.89.3-2.64l5.55-6.97c-3.86-4.97-5.96-11.08-5.96-17.42C3.55,16.01,16.32,3.25,32,3.25s28.44,12.76,28.44,28.45-12.76,28.43-28.44,28.43ZM11.1,55.14h20.9c12.93,0,23.45-10.52,23.45-23.45s-10.52-23.46-23.45-23.46S8.54,18.76,8.54,31.7c0,5.82,2.15,11.39,6.04,15.71.82.91.86,2.27.1,3.23l-3.59,4.51Z"/><path class="cls-2" d="M31.93,48.15c-1.38,0-2.5-1.12-2.5-2.5v-27.91c0-1.38,1.12-2.5,2.5-2.5s2.5,1.12,2.5,2.5v27.91c0,1.38-1.12,2.5-2.5,2.5Z"/><path class="cls-2" d="M20.15,41.52c-1.38,0-2.5-1.12-2.5-2.5v-14.65c0-1.38,1.12-2.5,2.5-2.5s2.5,1.12,2.5,2.5v14.65c0,1.38-1.12,2.5-2.5,2.5Z"/><path class="cls-2" d="M43.71,41.52c-1.38,0-2.5-1.12-2.5-2.5v-14.65c0-1.38,1.12-2.5,2.5-2.5s2.5,1.12,2.5,2.5v14.65c0,1.38-1.12,2.5-2.5,2.5Z"/></g></svg>