<?xml version="1.0" encoding="UTF-8"?><svg id="_レイヤー_2" xmlns="http://www.w3.org/2000/svg" viewBox="0 0 64 64"><defs><style>.cls-1{fill:none;}.cls-1,.cls-2,.cls-3{stroke-width:0px;}.cls-2{fill:#4577ff;}.cls-3{fill:#fff;}</style></defs><g id="_2"><path class="cls-3" d="M52.6,23.3c-.33-1.5-1.49-2.69-2.99-3.04l-5.64-1.33.18-.14c1.21-.95,1.78-2.5,1.45-4.01-.33-1.5-1.49-2.69-2.99-3.04l-26.07-6.16c-1.2-.28-2.47,0-3.43.78-.96.77-1.51,1.95-1.49,3.18l.43,26.11c.02,1.52.9,2.89,2.27,3.54.55.26,1.14.39,1.73.39.87,0,1.74-.29,2.46-.84l.44-.34.09,5.78c.02,1.52.9,2.89,2.27,3.54,1.37.66,2.99.48,4.18-.45l5.12-3.98c.42,1.06.77,2.39,1.05,3.98.46,2.71-.83,5.06-.83,5.06-.97,1.67-.61,3.79.85,5.05.75.64,1.68.96,2.6.96s1.78-.3,2.52-.89c.87-.7,8.46-7.13,8.81-16.6.08-2.28-.02-5.4-.8-8.6l6.32-4.91c1.22-.95,1.78-2.5,1.45-4.01Z"/><polygon class="cls-2" points="19.3 14.09 22.15 14.76 37.99 18.51 41.7 15.62 15.63 9.46 16.06 35.56 19.61 32.81 19.35 17.02 19.3 14.09"/><rect class="cls-1" width="64" height="64"/><path class="cls-2" d="M48.7,24.15l-26.07-6.16.43,26.11,8.35-6.49c2.57,1.99,3.65,5.69,4.21,8.97.73,4.29-1.32,7.75-1.32,7.75,0,0,7.04-5.67,7.33-13.64.11-3.16-.21-6.77-1.43-9.92l8.5-6.61Z"/></g></svg>