<?xml version="1.0" encoding="UTF-8"?><svg id="_レイヤー_2" xmlns="http://www.w3.org/2000/svg" viewBox="0 0 64 64"><defs><style>.cls-1{fill:none;}.cls-1,.cls-2{stroke-width:0px;}.cls-2{fill:#4577ff;}</style></defs><g id="_2"><path class="cls-2" d="M47.45,58.5H8c-1.38,0-2.5-1.12-2.5-2.5V16.55c0-1.38,1.12-2.5,2.5-2.5h16.63c1.38,0,2.5,1.12,2.5,2.5s-1.12,2.5-2.5,2.5h-14.13v34.45h34.45v-16.52c0-1.38,1.12-2.5,2.5-2.5s2.5,1.12,2.5,2.5v19.02c0,1.38-1.12,2.5-2.5,2.5Z"/><path class="cls-2" d="M53.86,8.01l-19.99,1.76c-.88,0-1.32,1.06-.7,1.68l7.6,7.6-15.14,15.14c-1.15,1.15-1.15,3.02,0,4.17.58.58,1.33.86,2.09.86s1.51-.29,2.09-.86l15.14-15.14,7.6,7.6c.62.62,1.68.18,1.68-.7l1.76-19.99c.11-1.22-.91-2.24-2.13-2.13Z"/><rect class="cls-1" width="64" height="64"/></g></svg>