<?xml version="1.0" encoding="UTF-8"?><svg id="_レイヤー_2" xmlns="http://www.w3.org/2000/svg" viewBox="0 0 120 120"><defs><style>.cls-1{fill:none;stroke:#a4a4a4;stroke-linecap:round;stroke-linejoin:round;stroke-width:4px;}.cls-2{fill:#bdbdbd;}.cls-2,.cls-3,.cls-4{stroke-width:0px;}.cls-3{fill:#e3e3e3;}.cls-4{fill:#fafafa;}</style></defs><g id="_ツール"><rect class="cls-3" x="1" y="1" width="118" height="118"/><path class="cls-3" d="M118,2v116H2V2h116M120,0H0v120h120V0h0Z"/><polygon class="cls-4" points="1.01 115 1.01 1 115.01 1 115.01 91.58 91.59 115 1.01 115"/><path class="cls-3" d="M114.01,2v89.17l-22.83,22.83H2.01V2h112M116.01,0H0v116h92l24-24V0h0Z"/><polygon class="cls-2" points="90.88 114.15 90.88 91.08 113.95 91.08 90.88 114.15"/><line class="cls-1" x1="46" y1="79.32" x2="46" y2="20.68"/><line class="cls-1" x1="70" y1="79.32" x2="70" y2="20.68"/><line class="cls-1" x1="22" y1="79.32" x2="22" y2="20.68"/><line class="cls-1" x1="94" y1="79.32" x2="94" y2="20.68"/></g></svg>