<?xml version="1.0" encoding="UTF-8"?><svg id="_レイヤー_2" xmlns="http://www.w3.org/2000/svg" viewBox="0 0 152 152"><defs><style>.cls-1{fill:#533c3e;}.cls-1,.cls-2,.cls-3,.cls-4,.cls-5,.cls-6{stroke-width:0px;}.cls-2{fill:#a2afaf;}.cls-3{fill:#3dd800;}.cls-4{fill:#c4c4c4;}.cls-5{fill:#dbff80;}.cls-6{fill:#fff;}</style></defs><g id="_レイヤー_1-2"><circle class="cls-6" cx="76" cy="76" r="74"/><path class="cls-4" d="M76,4c39.7,0,72,32.3,72,72s-32.3,72-72,72S4,115.7,4,76,36.3,4,76,4M76,0C34.03,0,0,34.03,0,76s34.03,76,76,76,76-34.03,76-76S117.97,0,76,0h0Z"/><path class="cls-1" d="M124.53,42.88c-.99,0-1.98.25-2.87.72-9.66,5.18-24.04,8.04-40.5,8.04H29.47c-4.41,0-8,3.59-8,8v41.47c0,4.41,3.59,8,8,8h95.06c3.31,0,6-2.69,6-6v-54.24c0-3.3-2.69-5.99-6-5.99ZM125.94,47.45c-.11-.1-.23-.19-.36-.27.13.08.25.17.36.27ZM125.47,47.12c-.1-.05-.2-.1-.31-.13.11.04.21.08.31.13ZM125.02,46.95c-.11-.03-.23-.05-.35-.05.12,0,.24.03.35.05ZM124.56,46.89c-.11,0-.22.02-.34.03.1-.02.2-.04.3-.04.01,0,.02,0,.03,0ZM124.06,46.94c-.17.04-.34.1-.5.19.16-.09.33-.15.5-.19ZM126.47,48.38c.04.16.07.32.07.49,0-.17-.03-.34-.07-.49ZM125.98,47.51c.09.09.17.19.24.3-.07-.11-.15-.21-.24-.3ZM126.29,47.93c.05.1.1.2.13.31-.04-.11-.08-.21-.13-.31Z"/><path class="cls-2" d="M29.47,55.65h95.06c1.1,0,2,.9,2,2v45.47c0,1.1-.9,2-2,2H29.47c-2.21,0-4-1.79-4-4v-41.47c0-2.21,1.79-4,4-4Z"/><path class="cls-5" d="M126.53,48.88c0-1.53-1.63-2.47-2.98-1.74-11.5,6.17-27.48,8.51-42.39,8.51H29.47c-2.21,0-4,1.79-4,4v38.99c0,2.21,1.79,4,4,4h51.7c15.81,0,32.82-2.63,44.42-9.67.59-.36.95-1.01.95-1.71v-42.38Z"/><path class="cls-3" d="M126.53,91.25v-42.38c0-1.53-1.63-2.47-2.98-1.74-4.71,2.53-10.17,4.4-16,5.75v47c6.69-1.54,12.89-3.79,18.03-6.91.59-.36.94-1.01.94-1.71Z"/></g></svg>