<?xml version="1.0" encoding="UTF-8"?><svg id="_レイヤー_2" xmlns="http://www.w3.org/2000/svg" viewBox="0 0 152 152"><defs><style>.cls-1{fill:#533c3e;}.cls-1,.cls-2,.cls-3,.cls-4,.cls-5,.cls-6{stroke-width:0px;}.cls-2{fill:#c4c4c4;}.cls-3{fill:#b2ffff;}.cls-4{fill:#ff642e;}.cls-5{fill:#7eb8c4;}.cls-6{fill:#fff;}</style></defs><g id="_レイヤー_1-2"><circle class="cls-6" cx="76" cy="76" r="74"/><path class="cls-2" d="M76,4c39.7,0,72,32.3,72,72s-32.3,72-72,72S4,115.7,4,76,36.3,4,76,4M76,0C34.03,0,0,34.03,0,76s34.03,76,76,76,76-34.03,76-76S117.97,0,76,0h0Z"/><path class="cls-1" d="M119.17,51.43c-1.59,0-3.09.63-4.23,1.76l-56.31,56.31c-1.72,1.72-2.23,4.29-1.3,6.54s3.11,3.7,5.54,3.7h56.31c3.31,0,6-2.69,6-6v-56.31c0-3.31-2.7-6-6.01-6Z"/><path class="cls-3" d="M62.87,115.74h56.31c1.1,0,2-.9,2-2v-56.31c0-1.78-2.15-2.67-3.41-1.41l-56.31,56.31c-1.26,1.26-.37,3.41,1.41,3.41ZM106.01,99.91h-9.81c-1.34,0-2.01-1.62-1.06-2.56l9.81-9.8c.95-.94,2.56-.28,2.56,1.06v9.8c0,.83-.67,1.5-1.5,1.5Z"/><path class="cls-5" d="M109.44,115.74v-4.39c0-.83.67-1.5,1.5-1.5s1.5.67,1.5,1.5v4.39h-3Z"/><path class="cls-5" d="M100.54,111.35v4.39h-3v-4.39c0-.83.67-1.5,1.5-1.5s1.5.67,1.5,1.5Z"/><path class="cls-5" d="M88.64,111.35v4.39h-3v-4.39c0-.83.67-1.5,1.5-1.5s1.5.67,1.5,1.5Z"/><path class="cls-5" d="M76.74,111.35v4.39h-3v-4.39c0-.83.67-1.5,1.5-1.5s1.5.67,1.5,1.5Z"/><path class="cls-1" d="M82.96,107.65l-13.31-41.37c2.59-2.89,4.18-6.7,4.18-10.88,0-5.44-2.68-10.25-6.78-13.23v-8.9c0-3.45-2.81-6.25-6.25-6.25h-6.83c-3.45,0-6.25,2.81-6.25,6.25v9.04c-3.99,2.98-6.58,7.73-6.58,13.08,0,4.42,1.77,8.43,4.63,11.37l-8.16,23.7h-.49c-3.31,0-6,2.69-6,6v13.87c0,.82.25,1.61.72,2.28l2.64,3.8c1.12,1.61,2.96,2.57,4.93,2.57s3.87-1,4.99-2.66l2.52-3.77c.44-.66.68-1.43.68-2.23v-3.51l10.28-29.85,11.38,35.38c.32,1.01,1.03,1.84,1.97,2.33l4.77,2.46c.57.3,1.21.45,1.84.45.54,0,1.08-.11,1.59-.33,1.1-.48,1.93-1.43,2.26-2.58l1.34-4.73c.21-.76.2-1.56-.04-2.31Z"/><path class="cls-4" d="M63.33,59.69c.89-1.21,1.42-2.69,1.42-4.3,0-1.77-.64-3.4-1.7-4.66v-17.46c0-1.25-1.01-2.25-2.25-2.25h-6.83c-1.25,0-2.25,1.01-2.25,2.25v17.71c-.94,1.22-1.5,2.75-1.5,4.41,0,1.92.76,3.67,1.98,4.97l-11.74,34.1h-3.34c-1.1,0-2,.9-2,2v13.87l2.64,3.8c.8,1.16,2.52,1.14,3.3-.03l2.52-3.77v-4.18l14.4-41.84,15.06,46.82,4.76,2.46,1.34-4.73-15.82-49.18Z"/><path class="cls-6" d="M57.48,43.04c-6.81,0-12.35,5.54-12.35,12.35s5.54,12.35,12.35,12.35,12.35-5.54,12.35-12.35-5.54-12.35-12.35-12.35ZM57.48,62.66c-4.01,0-7.27-3.26-7.27-7.27s3.26-7.27,7.27-7.27,7.27,3.26,7.27,7.27-3.26,7.27-7.27,7.27Z"/></g></svg>