<?xml version="1.0" encoding="UTF-8"?><svg id="_レイヤー_2" xmlns="http://www.w3.org/2000/svg" viewBox="0 0 152 152"><defs><style>.cls-1{fill:#533c3e;}.cls-1,.cls-2,.cls-3,.cls-4,.cls-5,.cls-6{stroke-width:0px;}.cls-2{fill:#4be70f;}.cls-3{fill:#219eff;}.cls-4{fill:#c4c4c4;}.cls-5{fill:#fff;}.cls-6{fill:#ffbd00;}</style></defs><g id="_レイヤー_1-2"><circle class="cls-5" cx="76" cy="76" r="74"/><path class="cls-4" d="M76,4c39.7,0,72,32.3,72,72s-32.3,72-72,72S4,115.7,4,76,36.3,4,76,4M76,0C34.03,0,0,34.03,0,76s34.03,76,76,76,76-34.03,76-76S117.97,0,76,0h0Z"/><path class="cls-1" d="M120.3,70.55h-34.66c-3.68,0-6.67,2.99-6.67,6.67v34.66c0,3.68,2.99,6.67,6.67,6.67h34.66c3.68,0,6.67-2.99,6.67-6.67v-34.66c0-3.68-2.99-6.67-6.67-6.67Z"/><rect class="cls-3" x="82.98" y="74.55" width="39.99" height="39.99" rx="2.67" ry="2.67"/><path class="cls-1" d="M102.67,59.21l-21.51-37.26c-.95-1.64-2.71-2.66-4.61-2.66s-3.66,1.02-4.61,2.66l-21.51,37.26c-.95,1.64-.95,3.68,0,5.32.95,1.64,2.71,2.66,4.61,2.66h43.02c1.9,0,3.66-1.02,4.61-2.66.95-1.64.95-3.68,0-5.32Z"/><path class="cls-2" d="M75.41,23.95l-21.51,37.26c-.51.88.13,1.98,1.15,1.98h43.02c1.02,0,1.65-1.1,1.15-1.98l-21.51-37.26c-.51-.88-1.78-.88-2.29,0Z"/><path class="cls-1" d="M51.04,120.56c-14.34,0-26.01-11.67-26.01-26.01s11.67-26.01,26.01-26.01,26.01,11.67,26.01,26.01-11.67,26.01-26.01,26.01Z"/><circle class="cls-6" cx="51.04" cy="94.55" r="22.01"/></g></svg>