<?xml version="1.0" encoding="UTF-8"?><svg id="_レイヤー_2" xmlns="http://www.w3.org/2000/svg" viewBox="0 0 152 152"><defs><style>.cls-1{fill:#533c3e;}.cls-1,.cls-2,.cls-3,.cls-4{stroke-width:0px;}.cls-2{fill:#c4c4c4;}.cls-3{fill:#ffcb1b;}.cls-4{fill:#fff;}</style></defs><g id="_レイヤー_1-2"><circle class="cls-4" cx="76" cy="76" r="74"/><path class="cls-2" d="M76,4c39.7,0,72,32.3,72,72s-32.3,72-72,72S4,115.7,4,76,36.3,4,76,4M76,0C34.03,0,0,34.03,0,76s34.03,76,76,76,76-34.03,76-76S117.97,0,76,0h0Z"/><path class="cls-1" d="M76,22.13c-29.71,0-53.87,24.17-53.87,53.87s24.17,53.87,53.87,53.87,53.87-24.17,53.87-53.87-24.17-53.87-53.87-53.87Z"/><circle class="cls-3" cx="76" cy="76" r="49.87"/><path class="cls-1" d="M68.73,74.29c-1.38,0-2.5-1.12-2.5-2.5,0-2.91-2.37-5.27-5.27-5.27s-5.27,2.37-5.27,5.27c0,1.38-1.12,2.5-2.5,2.5s-2.5-1.12-2.5-2.5c0-5.67,4.61-10.27,10.27-10.27s10.27,4.61,10.27,10.27c0,1.38-1.12,2.5-2.5,2.5Z"/><path class="cls-1" d="M98.82,74.29c-1.38,0-2.5-1.12-2.5-2.5,0-2.91-2.37-5.27-5.27-5.27s-5.27,2.37-5.27,5.27c0,1.38-1.12,2.5-2.5,2.5s-2.5-1.12-2.5-2.5c0-5.67,4.61-10.27,10.27-10.27s10.27,4.61,10.27,10.27c0,1.38-1.12,2.5-2.5,2.5Z"/><path class="cls-1" d="M76,102.04c-10.26,0-18.81-6.24-20.33-14.84-.24-1.36.67-2.66,2.03-2.9,1.36-.24,2.66.67,2.9,2.02,1.08,6.11,7.71,10.71,15.41,10.71s14.34-4.62,15.41-10.74c.24-1.36,1.53-2.27,2.89-2.03,1.36.24,2.27,1.53,2.03,2.89-1.5,8.62-10.06,14.88-20.34,14.88Z"/></g></svg>