<?xml version="1.0" encoding="UTF-8"?><svg id="_レイヤー_2" xmlns="http://www.w3.org/2000/svg" viewBox="0 0 152 152"><defs><style>.cls-1{fill:#533c3e;}.cls-1,.cls-2,.cls-3,.cls-4{stroke-width:0px;}.cls-2{fill:#c4c4c4;}.cls-3{fill:#fff;}.cls-4{fill:#ff2b48;}</style></defs><g id="_レイヤー_1-2"><circle class="cls-3" cx="76" cy="76" r="74"/><path class="cls-2" d="M76,4c39.7,0,72,32.3,72,72s-32.3,72-72,72S4,115.7,4,76,36.3,4,76,4M76,0C34.03,0,0,34.03,0,76s34.03,76,76,76,76-34.03,76-76S117.97,0,76,0h0Z"/><path class="cls-1" d="M108.34,62.15h4.76c3.31,0,6-2.69,6-6v-13.58c0-3.31-2.69-6-6-6h-35.24l.04-1.02c.06-1.63-.54-3.22-1.67-4.39-1.13-1.18-2.69-1.84-4.32-1.84h-14.97c-3.31,0-6,2.69-6,6v1.25h-12.14c-3.31,0-6,2.69-6,6v13.58c0,3.31,2.69,6,6,6h12.07c-11.04,5.96-21.6,17.03-21.6,32.41,0,11.71,6.36,24.23,24.23,24.23,6.72,0,12.98-2.22,18.58-5.78l2.03,6.28c.81,2.49,3.14,4.15,5.73,4.15.12,0,.25,0,.38-.01,4.86-.3,14.96-.94,24.23-5.12,12.39-5.6,18.95-15.61,18.95-28.95,0-12.01-5.42-21.4-15.04-27.2Z"/><path class="cls-3" d="M80.74,59.54c-3.25,0-5.75.17-7.57.34,0-.58.01-1.17.02-1.74h39.92c1.1,0,2-.9,2-2v-13.58c0-1.1-.9-2-2-2h-39.4l.2-5.18c.02-.54-.18-1.07-.56-1.46-.38-.39-.9-.61-1.44-.61h-14.97c-1.1,0-2,.9-2,2v5.25h-16.14c-1.1,0-2,.9-2,2v13.58c0,1.1.9,2,2,2h16.05c0,1.6.04,3.64.13,6.4-10.72,5.05-21.71,15.38-21.71,30.01,0,18.26,14.15,20.23,20.23,20.23,8.25,0,15.29-3.77,20.71-8.2l3.71,11.46c.27.83,1.06,1.38,1.93,1.38.04,0,.08,0,.13,0,4.62-.29,14.23-.89,22.83-4.77,11.01-4.97,16.59-13.49,16.59-25.31,0-18.39-14.81-29.81-38.64-29.81Z"/><path class="cls-4" d="M56.93,35.32h14.97l-.28,7.25h41.48v13.58h-41.85c-.09,1.77-.09,4.09-.09,5.95,1.77-.19,4.84-.56,9.58-.56,21.48,0,36.64,9.49,36.64,27.81,0,25.76-28.64,27.53-37.57,28.09l-4.19-12.93c10.79-.56,14.04-.74,19.25-3.53,4.56-2.42,7.91-7.07,7.91-12.56,0-1.3,0-9.67-10.51-13.11-4.19,15.25-19.72,37.48-38.78,37.48-16.46,0-18.23-12.56-18.23-18.23,0-14.69,11.9-24.46,21.76-28.74-.19-4.84-.19-7.63-.19-9.67h-18.04v-13.58h18.14v-7.25ZM58.04,79.31c-2.05,1.49-9.11,6.42-9.11,14.04,0,1.12.28,6.79,6.42,6.79.93,0,3.53-.09,6.7-1.95-1.58-4.28-2.88-9.67-4-18.88ZM80.18,73.35c-2.33-.09-4.84-.09-8.74.56.28,4.65.56,9.21,1.58,13.95,4.37-6.04,5.86-10.6,7.16-14.51Z"/></g></svg>