<?xml version="1.0" encoding="UTF-8"?><svg id="_レイヤー_2" xmlns="http://www.w3.org/2000/svg" viewBox="0 0 152 152"><defs><style>.cls-1{fill:#533c3e;}.cls-1,.cls-2,.cls-3,.cls-4,.cls-5{stroke-width:0px;}.cls-2{fill:#c4c4c4;}.cls-3{fill:#ff8e00;}.cls-4{fill:#fff;}.cls-5{fill:#ffd12e;}</style></defs><g id="_レイヤー_1-2"><circle class="cls-4" cx="76" cy="76" r="74"/><path class="cls-2" d="M76,4c39.7,0,72,32.3,72,72s-32.3,72-72,72S4,115.7,4,76,36.3,4,76,4M76,0C34.03,0,0,34.03,0,76s34.03,76,76,76,76-34.03,76-76S117.97,0,76,0h0Z"/><path class="cls-1" d="M69.15,38.79h-27.41c-5.99,0-10.86,4.77-10.86,10.64v53.15c0,5.86,4.87,10.64,10.86,10.64h68.52c5.99,0,10.86-4.77,10.86-10.64v-39.86c0-5.86-4.87-10.64-10.86-10.64h-30.26v-2.65c0-5.86-4.87-10.64-10.85-10.64h0Z"/><path class="cls-3" d="M117.12,62.71v39.86c0,3.66-3.07,6.64-6.86,6.64H41.74c-3.79,0-6.86-2.97-6.86-6.64v-53.15c0-3.66,3.07-6.64,6.86-6.64h27.41c3.78,0,6.85,2.97,6.85,6.64v6.65h34.26c3.79,0,6.86,2.97,6.86,6.64Z"/><path class="cls-5" d="M117.11,69.36v33.21c0,3.67-3.07,6.64-6.85,6.64H41.74c-3.79,0-6.85-2.97-6.85-6.64v-39.86h75.37c3.79,0,6.85,2.97,6.85,6.64Z"/></g></svg>