<?xml version="1.0" encoding="UTF-8"?><svg id="_レイヤー_2" xmlns="http://www.w3.org/2000/svg" viewBox="0 0 152 152"><defs><style>.cls-1{fill:#533c3e;}.cls-1,.cls-2,.cls-3,.cls-4,.cls-5{stroke-width:0px;}.cls-2{fill:#2ed2ff;}.cls-3{fill:#c4c4c4;}.cls-4{fill:#fff;}.cls-5{fill:#ffffd4;}</style></defs><g id="_レイヤー_1-2"><circle class="cls-4" cx="76" cy="76" r="74"/><path class="cls-3" d="M76,4c39.7,0,72,32.3,72,72s-32.3,72-72,72S4,115.7,4,76,36.3,4,76,4M76,0C34.03,0,0,34.03,0,76s34.03,76,76,76,76-34.03,76-76S117.97,0,76,0h0Z"/><path class="cls-1" d="M106.27,29.41h-60.53c-4.41,0-8,3.59-8,8v77.17c0,4.41,3.59,8,8,8h60.53c4.41,0,8-3.59,8-8V37.41c0-4.41-3.59-8-8-8h0Z"/><rect class="cls-5" x="41.73" y="33.41" width="68.53" height="85.17" rx="4" ry="4"/><path class="cls-2" d="M45.73,33.41c-2.21,0-4,1.79-4,4v77.17c0,2.21,1.79,4,4,4h9.34V33.41h-9.34Z"/><path class="cls-1" d="M101.88,55.4h-38c-1.1,0-2-.9-2-2s.9-2,2-2h38c1.1,0,2,.9,2,2s-.9,2-2,2Z"/><path class="cls-1" d="M101.88,70.45h-38c-1.1,0-2-.9-2-2s.9-2,2-2h38c1.1,0,2,.9,2,2s-.9,2-2,2Z"/><path class="cls-1" d="M101.88,85.5h-38c-1.1,0-2-.9-2-2s.9-2,2-2h38c1.1,0,2,.9,2,2s-.9,2-2,2Z"/></g></svg>