<?xml version="1.0" encoding="UTF-8"?><svg id="_レイヤー_2" xmlns="http://www.w3.org/2000/svg" viewBox="0 0 152 152"><defs><style>.cls-1{fill:#533c3e;}.cls-1,.cls-2,.cls-3,.cls-4,.cls-5{stroke-width:0px;}.cls-2{fill:#05864d;}.cls-3{fill:#c4c4c4;}.cls-4{fill:#92cab1;}.cls-5{fill:#fff;}</style></defs><g id="_レイヤー_1-2"><circle class="cls-5" cx="76" cy="76" r="74"/><path class="cls-3" d="M76,4c39.7,0,72,32.3,72,72s-32.3,72-72,72S4,115.7,4,76,36.3,4,76,4M76,0C34.03,0,0,34.03,0,76s34.03,76,76,76,76-34.03,76-76S117.97,0,76,0h0Z"/><path class="cls-1" d="M125.75,46.8l-22-22c-.75-.75-1.77-1.17-2.83-1.17s-2.08.42-2.83,1.17l-56.57,56.57-6.29,6.29c-.66.66-1.06,1.52-1.15,2.44l-1.91,19.8-2.02,2.02c-2.34,2.34-2.34,6.15,0,8.49,1.13,1.13,2.64,1.76,4.24,1.76s3.11-.62,4.24-1.76l2.02-2.02,19.81-1.92c.92-.09,1.79-.5,2.44-1.16l3.6-3.61,59.25-59.25c1.56-1.56,1.56-4.09,0-5.66Z"/><path class="cls-2" d="M38.83,114.55l-3.03,3.03c-.79.78-2.05.78-2.83,0-.39-.39-.59-.9-.59-1.42s.2-1.02.59-1.41l3.03-3.03,2.83,2.83Z"/><polygon class="cls-5" points="60.06 112.49 38.83 114.55 36 111.72 36 111.71 38.05 90.49 60.06 112.49"/><rect class="cls-2" x="36.04" y="54.5" width="88.89" height="31.12" transform="translate(-25.96 77.43) rotate(-45)"/><rect class="cls-4" x="27.79" y="57.91" width="88.89" height="7.78" transform="translate(-22.54 69.18) rotate(-45)"/></g></svg>