<?xml version="1.0" encoding="UTF-8"?><svg id="_レイヤー_2" xmlns="http://www.w3.org/2000/svg" viewBox="0 0 152 152"><defs><style>.cls-1{fill:#533c3e;}.cls-1,.cls-2,.cls-3,.cls-4,.cls-5,.cls-6{stroke-width:0px;}.cls-2{fill:#3cb6ff;}.cls-3{fill:#a7deff;}.cls-4{fill:#c4c4c4;}.cls-5{fill:#fff;}.cls-6{fill:#eaeaea;}</style></defs><g id="_レイヤー_1-2"><circle class="cls-5" cx="76" cy="76" r="74"/><path class="cls-4" d="M76,4c39.7,0,72,32.3,72,72s-32.3,72-72,72S4,115.7,4,76,36.3,4,76,4M76,0C34.03,0,0,34.03,0,76s34.03,76,76,76,76-34.03,76-76S117.97,0,76,0h0Z"/><path class="cls-1" d="M128.73,56.73l-33.47-33.47c-.37-.37-.78-.7-1.21-.99-1.28-.84-2.76-1.29-4.29-1.29-2.08,0-4.03.81-5.5,2.28l-45.47,45.47c-1.34,1.34-1.53,3.41-.56,4.95l-8.22,8.22c-5.2,5.2-5.2,13.67,0,18.87l20.8,20.8c2.52,2.52,5.87,3.91,9.44,3.91s6.91-1.39,9.43-3.91l8.15-8.15c.75.64,1.68.96,2.6.96,1.02,0,2.05-.39,2.83-1.17l45.47-45.47c3.03-3.03,3.03-7.97,0-11.01Z"/><path class="cls-6" d="M32.84,84.73c-3.65,3.65-3.65,9.56,0,13.21l20.8,20.8c3.65,3.65,9.56,3.65,13.21,0l10.97-10.97-34.01-34.01-10.97,10.97Z"/><path class="cls-2" d="M80.44,110.38l45.47-45.47c1.48-1.48,1.48-3.87,0-5.35l-33.47-33.47c-1.48-1.48-3.87-1.48-5.35,0l-45.47,45.47,38.81,38.81Z"/><path class="cls-3" d="M52.4,82.34l48.14-48.14-8.1-8.1c-1.48-1.48-3.87-1.48-5.35,0l-45.47,45.47,10.77,10.77Z"/></g></svg>